<svg width="800" height="480" xmlns="http://www.w3.org/2000/svg"><g fill="none" fill-rule="evenodd"><path fill="#000" d="M0 0h800v480H0z"/><path fill="#090" d="M533.273 0h266.575v480H533.273z"/><path fill="#BF0000" d="M266.574 0h266.7v480h-266.7z"/><path d="M420.775 267.43h8.827c0 3.402 2.127 7.018 4.786 9.039h-17.016c2.659-2.34 3.403-5.318 3.403-9.04z" stroke="#BD6B00" stroke-width=".532" fill="#FFF"/><path fill="#FFF" d="M364.625 217.128l4.892 5.317 60.617.213 4.892-5.318-15.527-.319-7.444-5.317h-24.46l-7.018 5.424h-15.952z"/><path d="M389.403 210.96h20.95c2.766-1.49 3.723-6.275 3.723-8.934 0-7.87-5.637-11.698-11.167-11.91-.85 0-1.808-.638-2.02-1.383-.532-1.701-.426-2.871-1.064-2.765-.425 0-.319 1.064-.744 2.553-.32.85-1.17 1.595-2.127 1.701-6.806.32-11.273 5.317-11.166 11.804.106 4.254.638 6.807 3.615 8.934z" stroke="#BD6B00" stroke-width=".532" fill="#FFF"/><path fill="#FFF" d="M355.054 285.508h89.65l-7.977-6.487h-73.804l-7.976 6.487z"/><path d="M396.21 260.942l1.595 4.892h3.722l-2.978-4.892h-2.34zm-2.127 4.892l1.063 4.892h4.254l-1.595-4.892h-3.722zm7.444 0l2.978 4.892h6.274l-4.892-4.892h-4.36zm-36.69 11.06c3.297-3.084 5.424-5.636 5.424-9.358h8.082c0 2.127.745 3.296 1.915 3.19h8.188v-4.786h-5.955v-26.267c-.213-9.358 11.273-14.676 15.952-14.676h-27.97v-.85h58.81v.85h-28.182c8.402 0 16.484 7.976 16.59 14.676v7.444h-1.063l-.106-7.338c0-7.338-9.252-14.144-16.697-13.931-6.38.106-16.377 6.274-16.27 13.825v2.34l15.207.106-.106 2.659 2.34 1.488 4.785 1.49v4.04l3.403.958v3.934l4.04 1.808v4.041l2.66 1.596-.107 4.147 3.51 2.446h-8.295l5.21 5.849h-7.763l-3.828-5.849h-4.998l2.233 5.743h-5.317l-1.383-5.743h-6.593v6.168h-23.716zm23.61-15.952v4.892h5.636l-1.064-4.892h-4.68.107z" stroke="#BD6B00" stroke-width=".532" fill="#FFF"/><path stroke="#BD6B00" stroke-width=".532" d="M388.765 252.434h3.51v8.083h-3.51z"/><path d="M383.767 261.049h3.403v-5.956c0-2.552 2.34-5.21 3.403-5.317 1.276 0 3.084 2.446 3.19 5.104v6.169h3.616v-15.314h-13.612v15.314zm27.225 3.509h4.253v3.403h-4.253v-3.403zm-2.553-5.636h4.254v3.296h-4.254v-3.296zm-4.147-5.743h4.254v3.297h-4.254v-3.297zm-3.51-4.786h4.254v3.297h-4.254v-3.297z" stroke="#BD6B00" stroke-width=".532"/><path stroke="#BD6B00" stroke-width=".532" d="M397.911 261.049l4.467.212 7.763 6.806v-4.04l-2.659-1.915v-3.19l-3.828-2.127v-3.51l-3.722-1.276v-4.573l-1.808-1.595-.107 15.314z"/><path stroke="#BD6B00" stroke-width=".532" fill="#FFF" d="M416.415 250.946h1.064v7.55h-1.064zm-61.787-25.311c-1.276-2.127-2.871 2.978-8.295 6.7-2.446 1.702-4.254 6.275-4.254 9.252 0 2.127.213 4.148 0 6.168-.106 1.17-1.488 4.041-.531 4.786 2.34 1.701 5.423 5.743 6.806 7.125 1.276 1.063 2.34-5.636 3.19-8.508 1.064-3.19.638-7.125 3.403-9.996 1.915-2.127 6.806-4.041 6.381-4.892l-6.7-10.635z"/><path d="M354.31 242.013a10.635 10.635 0 0 0-1.702-2.765 6.487 6.487 0 0 0-2.553-1.915 5.636 5.636 0 0 1-2.552-1.595 3.828 3.828 0 0 1-.85-1.595 6.274 6.274 0 0 1 0-2.127l-.32.32c-2.446 1.7-4.254 6.274-4.254 9.251a30.309 30.309 0 0 0 0 2.446c.213.532.32 1.064.639 1.383l1.17.85 2.87.745a7.55 7.55 0 0 1 2.766 2.127c.774.82 1.419 1.752 1.914 2.765l.213-.851c.85-2.871.744-6.274 2.765-9.04h-.107z" stroke="#BD6B00" stroke-width=".532" fill="#BF0000"/><path d="M346.652 231.91c-.531 3.51 1.49 4.785 3.403 5.423 1.915.745 3.51 2.765 4.254 4.68m-12.442 1.595c.85 3.19 2.977 2.765 4.892 3.403 1.914.744 3.934 3.19 4.785 5.104" stroke="#BD6B00" stroke-width=".532"/><path stroke="#BD6B00" stroke-width=".532" fill="#FFF" d="M352.82 223.508l1.064-.638 18.823 31.798-1.063.638-18.824-31.904z"/><path d="M354.841 222.232a2.127 2.127 0 1 1-4.254 0 2.127 2.127 0 0 1 4.254 0zm16.165-25.523h7.656v1.702h-7.656v-1.702zm0 3.297h7.656v14.676h-7.656v-14.676zm-.426-5.317h8.508c.213-2.872-2.659-5.956-4.254-5.956-1.702.107-4.36 3.19-4.254 5.956z" stroke="#BD6B00" stroke-width=".532" fill="#FFF"/><path d="M392.168 192.987c-1.595.638-2.87 2.446-3.615 4.573-.745 2.127-1.064 4.573-.638 6.487 0 .744.319 1.17.531 1.595.213.32.426.532.638.532.32 0 .638 0 .745-.32l.212-.85c-.106-2.127-.106-4.041.32-5.743a8.189 8.189 0 0 1 3.19-4.679c.319-.212.425-.531.532-.744a1.063 1.063 0 0 0-.32-.745c-.425-.319-1.063-.425-1.595-.106zm.213.425c.425-.212.85 0 1.064.107l.106.212c0 .107 0 .213-.32.426a8.72 8.72 0 0 0-3.296 4.892 17.76 17.76 0 0 0-.319 5.955c0 .23-.075.454-.213.638 0 0 0 .107-.212 0 0 0-.213 0-.426-.319-.21-.4-.354-.83-.425-1.276-.32-1.914 0-4.254.744-6.38.745-1.915 1.915-3.616 3.19-4.255h.107z" fill="#BD6B00"/><path d="M394.933 195.008c-1.595.744-2.658 2.446-3.19 4.466a14.463 14.463 0 0 0-.319 6.275c.213 1.382 1.063 2.127 1.702 2.127.319.106.638 0 .85-.32.213-.319.32-.638.213-1.063-.425-1.702-.532-3.616-.32-5.424.32-1.808 1.064-3.403 2.34-4.36.32-.319.532-.532.532-.85a.85.85 0 0 0-.212-.639 1.696 1.696 0 0 0-1.596-.212zm.213.531c.425-.212.85-.106 1.064 0l.106.32-.32.425a6.912 6.912 0 0 0-2.551 4.679c-.32 1.914-.107 3.935.212 5.53.107.425 0 .638 0 .85l-.531.107c-.32 0-1.064-.532-1.277-1.808-.319-1.808-.212-4.147.32-6.061.531-1.915 1.595-3.51 2.977-4.042z" fill="#BD6B00"/><path d="M370.58 226.592h8.508v11.698h-8.508v-11.698zm.532 18.505h8.189v2.552h-8.19v-2.552zm-.213 4.36h8.508v9.252h-8.508v-9.252zm-.638 11.166h9.252v5.211h-9.252v-5.21zm1.17-17.653h7.444l1.489-2.553h-10.21l1.277 2.553zm9.996-9.146l.107-6.38h5.104a18.504 18.504 0 0 0-5.21 6.38z" stroke="#BD6B00" stroke-width=".532" fill="#FFF"/><path d="M371.963 236.483c0 1.382 1.595.85 1.595.106v-5.955c0-1.064 2.552-.851 2.552-.107v6.381c0 1.063 1.808.957 1.702 0v-7.444c0-2.34-5.85-2.234-5.85-.107v7.126zm0 14.144h6.061v7.444h-6.061v-7.444z" stroke="#BD6B00" stroke-width=".532"/><path d="M375.791 253.817h2.127v1.063h-2.127v-1.063zm-3.722 0h2.127v1.063h-2.127v-1.063zm2.127-3.19h1.595v3.19h-1.595v-3.19zm0 4.253h1.595v3.297h-1.595v-3.297zm-33.712-79.76c.426 5.85-1.489 9.147-4.573 8.615-.85-3.19 1.064-5.424 4.573-8.614zm-6.912 13.081c-2.765-1.382-.745-12.23.319-16.802.744 5.849 2.127 14.144-.32 16.802z" stroke="#BD6B00" stroke-width=".532" fill="#FFF"/><path d="M334.529 188.733c4.68 1.595 8.508-3.403 9.677-9.252-3.828 5.317-10.103 5.317-9.57 9.252h-.107zm-3.51 5.424c-3.615-.957-1.488-12.443-.744-17.015.744 4.785 3.297 15.42.744 17.015zm1.277-.32c.212-3.934 4.147-2.87 6.912-4.997-.532 2.126-2.127 5.53-6.912 4.998zm-4.467 5.318c-3.616-1.063-1.489-13.4-1.701-18.504 1.063 4.466 4.466 17.334 1.701 18.504zm1.702-.532c2.977.958 6.912-1.063 7.231-4.572-2.659 1.807-6.7.425-7.231 4.572z" stroke="#BD6B00" stroke-width=".532" fill="#FFF"/><path d="M325.064 204.579c-3.403.319-1.914-10.21-1.914-19.993 1.276 9.145 4.785 17.547 1.914 19.993z" stroke="#BD6B00" stroke-width=".532" fill="#FFF"/><path d="M326.34 204.153c2.34 1.064 6.487-.744 7.657-4.679-4.254 1.808-7.019 0-7.657 4.68zm27.225-23.608c-.638 5.21-2.765 8.188-5.85 7.656-.85-3.19 1.702-5.317 5.85-7.656zm-8.295 13.186c5.21.745 7.019-3.19 10.634-8.4-4.998 3.615-10.847 4.253-10.634 8.507v-.107z" stroke="#BD6B00" stroke-width=".532" fill="#FFF"/><path d="M343.675 193.2c-2.765-3.403 0-7.763 2.127-11.38-.426 5.424 1.382 8.508-2.127 11.38zm-1.064 5.636c-.425-3.403 5.317-4.147 7.87-5.955-.957 1.914-2.127 7.125-7.976 5.955h.106z" stroke="#BD6B00" stroke-width=".532" fill="#FFF"/><path d="M341.335 198.836c-3.935-.425-2.34-7.125.532-10.74-1.17 5.104 2.127 8.613-.532 10.74z" stroke="#BD6B00" stroke-width=".532" fill="#FFF"/><path d="M338.357 204.472c-4.466-2.126-1.595-7.656 0-10.953-.638 4.36 2.978 7.657 0 10.847v.106z" stroke="#BD6B00" stroke-width=".532" fill="#FFF"/><path d="M339.208 203.834c2.34 3.19 6.913-.85 7.87-5.53-3.935 3.297-6.913 2.765-7.87 5.637v-.107zm-10.21 21.589c-.425-4.573 2.979-12.762.533-17.228-.32-.639.744-2.234 1.488-1.277 1.064 1.596 2.127 6.062 2.66 4.36.424-1.807.53-4.891 2.126-5.53 1.063-.318 2.446-.637 2.02 1.064-.425 1.489-1.276 3.616-.318 3.722.531 0 2.126-2.127 3.509-3.19 1.063-.851 2.765.638 1.063 1.914-5.104 4.254-10.102 6.274-13.08 16.165zm-9.251 68.593c-.638 0-1.383-.32-.638.638 6.061 7.444 7.763 9.571 16.59 8.508 8.826-1.17 10.953-3.616 17.228-7.126a15.527 15.527 0 0 1 11.91-1.063c1.702.532 2.765.532 1.49-.745-1.277-1.17-2.66-2.87-4.255-4.04a18.61 18.61 0 0 0-13.505-2.872c-6.381 1.063-11.805 5.21-18.292 6.806a26.586 26.586 0 0 1-10.528 0v-.106zm50.833 13.293c1.064.213 1.808 2.34 2.446.957.85-2.446.213-4.254-.85-4.147-1.277.319-3.297 3.19-1.596 3.19z" stroke="#BD6B00" stroke-width=".532" fill="#FFF"/><path d="M315.6 221.913c-1.277-1.489-.958-1.914 1.063-2.02 1.489 0 4.466 1.063 5.636.106 1.064-.744.532-3.935 1.064-5.317.212-.957.744-2.127 2.126-.213 3.829 6.168 8.508 13.612 10.635 20.844 1.064 4.04 0 10.422-3.616 14.676 0-3.616-1.276-6.062-2.871-9.146-2.127-3.935-9.678-14.889-14.038-19.036v.106z" fill="#FFF"/><path d="M331.445 254.242c4.254 0 4.998-5.636 4.998-7.231-2.127.425-5.743 3.935-4.998 7.231zm36.69 55.194c2.977.638 2.87-6.594-.213-9.678 1.382 4.68-2.127 8.934.106 9.572l.106.106zm-1.277-.106c.213 3.403-8.508-.426-10.635-3.19 5.105 2.232 10.422.425 10.635 3.19zm-3.722-4.892c.319 3.296-7.444.319-9.89-2.234 5.21 1.702 9.57-.531 9.89 2.127v.107zm1.382.425c3.084.744 2.553-6.806-.425-9.358 1.489 4.998-1.914 8.614.425 9.358zm-3.19-4.573c3.084.745 1.276-5.743-.957-8.295.425 4.68-1.064 7.976 1.063 8.295h-.106zm-1.595 0c.319 3.403-5.743.851-8.082-2.446 5.104 1.595 7.763-.319 8.082 2.446zm-1.595-2.658c1.914-1.383-.107-5.105-3.935-4.892.425 2.233 1.701 6.274 3.935 4.892zm14.888 15.632c.106 3.403-8.508 1.702-11.273-1.914 5.53 1.064 10.954-.85 11.167 1.914h.106zm-34.456-6.168c.32 3.403-9.146-.425-11.485-3.615 4.998 1.701 11.166.85 11.485 3.615zm5.743 1.383c2.02-1.383-2.02-4.998-5.318-5.85.426 2.234 3.19 7.232 5.318 5.956v-.106zm.638 2.446c.212 3.084-10.103 1.382-12.762-1.49 8.827 1.596 12.443-1.169 12.762 1.49z" stroke="#BD6B00" stroke-width=".532" fill="#FFF"/><path d="M349.843 312.945c1.063 2.872-8.827 2.127-12.336.532 5.636 0 11.485-2.552 12.336-.532z" stroke="#BD6B00" stroke-width=".532" fill="#FFF"/><path d="M354.416 315.072c1.063 2.553-8.083 2.553-12.55 1.064 5.956 0 11.486-3.616 12.55-1.064zm6.7 1.383c1.7 3.084-8.083 3.297-11.167 1.808 5.53-.745 9.784-4.254 11.166-1.808zm-11.38-5.211c-3.084 1.914-2.871-3.829-5.317-7.763 3.828 3.509 7.444 5.955 5.317 7.763z" stroke="#BD6B00" stroke-width=".532" fill="#FFF"/><path d="M355.266 313.37c-2.552 2.234-4.679-5.636-7.019-10.102 3.829 4.254 9.359 8.189 7.02 9.996v.107zm7.232 2.128c-2.127 2.552-8.508-7.445-10.847-12.762 3.509 4.148 12.548 10.635 10.847 12.762zm-6.168 7.657c-1.064 3.828-17.228-3.616-19.142-7.551 9.358 4.892 19.354 3.828 19.142 7.444v.107zm-51.79-78.484c-.426-.532-1.49 0-1.277 1.17.32 1.595 2.659 9.784 6.7 12.549 2.871 2.127 18.079 5.424 24.885 6.912 3.828.745 6.912 2.659 9.465 5.637a100.39 100.39 0 0 0-3.19-10.422c-1.277-3.19-4.68-6.594-8.296-6.7-6.487-.32-14.994-.85-21.269-3.51a17.015 17.015 0 0 1-7.125-5.636h.106z" stroke="#BD6B00" stroke-width=".532" fill="#FFF"/><path d="M342.08 277.107c2.126 1.489 4.36-3.935 1.807-9.146-.106 4.998-4.04 6.7-1.808 9.146z" stroke="#BD6B00" stroke-width=".532" fill="#FFF"/><path d="M344.1 282.105c2.871.85 3.722-4.254 1.914-8.295.32 4.36-4.573 7.019-1.914 8.295z" stroke="#BD6B00" stroke-width=".532" fill="#FFF"/><path d="M346.333 286.146c2.765 1.383 3.722-3.828 1.808-7.55.213 4.785-3.935 6.274-1.808 7.444v.106z" stroke="#BD6B00" stroke-width=".532" fill="#FFF"/><path d="M345.163 286.465c-1.063 3.19-7.444-2.871-8.507-6.168 3.935 3.935 9.252 3.403 8.507 6.062v.106z" stroke="#BD6B00" stroke-width=".532" fill="#FFF"/><path d="M342.292 281.467c-1.276 3.19-9.252-5.317-11.06-9.252 3.935 3.935 11.91 6.912 11.06 9.146v.106z" stroke="#BD6B00" stroke-width=".532" fill="#FFF"/><path d="M340.697 276.469c-1.276 3.722-9.89-6.168-12.443-9.678 4.254 3.829 13.4 7.019 12.443 9.678zm-.32-3.616c3.191-.638-.105-3.19-3.934-7.338-.106 4.36.532 7.444 3.935 7.338z" stroke="#BD6B00" stroke-width=".532" fill="#FFF"/><path d="M335.167 270.3c1.382-1.382-1.17-2.02-4.36-5.636-.532 2.446 2.977 6.913 4.466 5.637h-.106zm14.888 16.165c1.702 1.064 2.765-2.446.745-5.53-.532 3.403-2.233 4.254-.745 5.53zm-36.37-21.588c-3.51 2.127-9.146-6.38-10.635-9.89 3.084 4.04 11.273 7.657 10.635 9.89z" stroke="#BD6B00" stroke-width=".532" fill="#FFF"/><path d="M316.77 269.769c-2.021 2.127-8.19-3.722-10.316-6.7 3.19 2.871 11.166 3.19 10.315 6.7z" stroke="#BD6B00" stroke-width=".532" fill="#FFF"/><path d="M320.066 274.235c-.638 2.978-9.571-3.722-11.698-6.912 3.828 3.722 12.336 3.403 11.698 6.912z" stroke="#BD6B00" stroke-width=".532" fill="#FFF"/><path d="M318.683 277.532c-1.382 2.659-8.72-4.041-10.528-7.444 4.573 3.828 11.698 4.785 10.635 7.444h-.107zm-3.722-13.08c2.233-2.446 1.276-3.616-.425-7.445-.851 3.935-2.233 5.53.425 7.445zm3.084 4.572c4.254.213 0-4.891-1.063-9.252.425 4.892-1.064 8.827 1.063 9.252z" stroke="#BD6B00" stroke-width=".532" fill="#FFF"/><path d="M320.704 273.066c2.871-.638 2.127-4.786-.213-9.784.532 5.423-2.446 8.507.213 9.784zm-1.064 8.188c-1.063 3.19-9.358-4.254-10.634-7.231 4.254 3.615 11.379 4.785 10.634 7.231z" stroke="#BD6B00" stroke-width=".532" fill="#FFF"/><path d="M324.639 286.359c-1.17 3.19-9.89-3.403-12.55-7.019 5.212 4.254 13.188 3.828 12.55 7.019z" stroke="#BD6B00" stroke-width=".532" fill="#FFF"/><path d="M329.743 291.57c-1.382 4.573-10.528-2.765-13.187-6.381 5.743 4.467 13.825 3.19 13.187 6.38zm-8.507-11.698c2.446 1.17 3.403-5.743 2.02-10.741 0 5.317-4.998 9.358-2.127 10.634l.107.107z" stroke="#BD6B00" stroke-width=".532" fill="#FFF"/><path d="M325.383 285.402c2.978.85 2.127-6.7-.532-11.698-.319 4.998-2.446 9.57.532 11.698zm5.317 5.21c3.19.107 1.064-6.486-1.701-10.209.425 4.786-1.064 9.572 1.701 10.21zm-5.849 2.766c-1.063 1.701-3.403-1.383-7.444-3.722 3.616 1.063 7.87 2.127 7.444 3.722zm-1.914-56.045c3.19-2.34.745-6.593 0-10.634-1.063 3.828-3.616 8.933 0 10.634zm0 5.637c-4.785-.532-4.041-6.487-4.254-10.316 1.49 5.211 5.318 6.062 4.254 10.422v-.106zm.638-.745c3.935-.212 3.722-4.679 3.935-9.145-2.02 4.147-4.254 4.785-3.935 9.145z" stroke="#BD6B00" stroke-width=".532" fill="#FFF"/><path d="M323.469 247.755c-3.19.32-4.68-2.765-5.317-7.444 2.87 4.36 5.423 2.978 5.317 7.444zm1.063-.319c3.935.532 3.19-4.04 3.19-7.444-1.275 3.19-4.466 4.254-3.19 7.444z" stroke="#BD6B00" stroke-width=".532" fill="#FFF"/><path d="M318.364 245.522c.32 2.978 2.234 8.082 5.318 6.912 1.17-3.615-2.765-4.36-5.318-6.912z" stroke="#BD6B00" stroke-width=".532" fill="#FFF"/><path d="M324.532 252.754c-1.276-2.553 3.19-3.935 4.041-7.338.532 4.892.107 8.082-4.04 7.444v-.106zM311.877 221.7c2.446-2.552.32-6.806-.425-10.847-1.064 3.829-2.659 8.933.425 10.847zm0 4.892c-4.254.532-5.317-8.188-5.849-12.017 1.489 5.211 6.38 7.445 5.85 12.124v-.107zm.85 0c2.979-1.595 2.34-4.998 3.191-7.444-1.914 3.084-3.828 3.51-3.19 7.444z" stroke="#BD6B00" stroke-width=".532" fill="#FFF"/><path d="M311.77 232.335c-4.36.32-7.018-9.358-7.23-13.187 1.382 5.211 7.869 7.976 7.337 13.187h-.106zm.958-.213c4.254-.957 3.722-3.722 3.084-8.082-1.383 4.467-3.722 3.51-3.084 8.082z" stroke="#BD6B00" stroke-width=".532" fill="#FFF"/><path d="M311.77 237.865c-4.891.85-4.572-7.019-8.507-12.655 3.403 4.254 9.571 9.571 8.508 12.655zm1.064-.319c3.829.213 4.254-5.424 4.041-7.763-.957 2.34-5.317 4.466-3.934 7.87l-.107-.107z" stroke="#BD6B00" stroke-width=".532" fill="#FFF"/><path d="M304.114 231.803c1.808 6.062 4.466 12.124 7.657 11.698 1.595-3.509-3.084-3.934-7.657-11.698z" stroke="#BD6B00" stroke-width=".532" fill="#FFF"/><path d="M312.94 242.544c-1.276-2.658 3.191-3.934 4.042-7.338.532 4.892.106 8.083-4.041 7.338zm-7.55-3.828c2.659 5.423 3.829 11.698 7.444 10.74 1.383-4.253-4.04-5.104-7.444-10.74z" stroke="#BD6B00" stroke-width=".532" fill="#FFF"/><path d="M313.579 248.5c-1.595-2.978 2.871-3.935 4.04-7.87.533 5.105 0 8.827-4.04 7.763v.107zm7.657-36.69c2.552.638 5.317-2.233 4.36-6.593-2.978.638-4.254 3.403-4.36 6.593zm-8.402-2.233c.213 1.276 1.808 1.383 1.276-.425a5.636 5.636 0 0 1 0-3.616 7.976 7.976 0 0 0 0-4.892c-.425-1.063-1.914-.425-1.276.425.638.957.745 2.978.213 3.935-.638 1.383-.425 3.19-.213 4.573zm24.354 17.015c-1.064 1.383-3.085.426-1.49-1.595 1.277-1.595 3.191-2.977 3.191-4.679.213-2.127 1.383-5.317 2.552-6.487 1.17-1.17 2.553.425 1.277 1.276-1.383.85-2.34 4.68-2.234 6.168-.106 2.127-2.127 3.722-3.296 5.317zm-3.19-2.446c-1.064 1.49-2.553.532-1.702-1.807.744-1.596.85-3.723 1.701-4.892 1.276-1.808 3.19-3.297 4.36-4.467 1.276-1.063 2.127 0 1.064 1.064a28.713 28.713 0 0 0-3.51 4.253c-1.488 2.34-.85 4.254-1.914 5.85zM317.3 216.49c-.107 2.126 1.595 2.552 1.489-.426 0-3.19-2.34-6.168-1.064-10.953.851-2.34.851-6.7.426-8.934-.426-2.34-2.127-.85-1.383.958.638 2.126-.106 5.955-.638 7.976-1.595 5.742 1.276 8.507 1.063 11.379h.107zm4.573-11.699c-.213 2.021-1.915 2.127-1.383-.531.426-2.127.426-3.829 0-5.637-.638-2.233-.425-6.061 0-7.657.532-1.701 2.127-.744 1.489.532-.742 2.01-.854 4.2-.319 6.275.638 2.127.532 5.104.213 7.125v-.107zm-16.59 39.455c.85.957 2.127.319 1.063-1.064-1.063-1.063-.744-1.276-1.382-2.552-.638-1.489-.532-2.233-1.276-3.19-.745-1.064-1.702 0-1.064.744.85 1.064.638 1.702 1.064 2.659 1.063 1.595.744 2.446 1.595 3.403zm21.694 26.161a9.146 9.146 0 0 1 4.68 7.125c.11 2.648.84 5.234 2.126 7.55-2.126-.531-3.19-3.934-3.509-7.23-.319-3.404-2.127-4.786-3.19-7.445h-.107zm5.424 6.274c1.808 3.297 4.254 4.573 4.466 7.02.213 2.87.426 2.977 1.17 5.742-2.127-.532-2.658-.745-3.19-4.998-.32-2.978-2.765-4.999-2.446-7.764z" stroke="#BD6B00" stroke-width=".532" fill="#FFF"/><path d="M388.34 307.309c1.063 1.914 2.127 4.786 4.254 4.254 0-1.383-2.233-2.446-4.254-4.254zm3.19.638c3.935 1.702 7.445 1.276 7.976 3.829-3.828.425-5.317-1.064-8.082-3.829h.106zm-17.121-13.506a14.888 14.888 0 0 1 5.317 8.189 30.84 30.84 0 0 0 3.828 8.295 13.825 13.825 0 0 1-5.636-7.87c-.744-3.19-1.702-5.636-3.51-8.508v-.106zm3.296 0c2.978 2.34 5.743 5.105 6.594 8.401.85 3.085 1.382 5.424 3.403 8.508-3.19-2.02-4.36-4.998-5.317-8.295-.745-3.19-2.66-5.53-4.68-8.508v-.106zm9.784 7.763a1.17 1.17 0 0 1 .745-1.276 35.52 35.52 0 0 1 2.765-.85c1.063-.32 1.701.425 1.701.957v2.127c0 .744-.213.85-.744.957-.745.106-1.808.212-2.553.744-.638.425-1.276.106-1.595-.532l-.319-2.127zm11.273 0c0-.638-.213-1.17-.638-1.276a5.743 5.743 0 0 0-2.553-.425c-1.063 0-1.17.213-1.17.638v2.233c0 .851 0 .851.426 1.064.744 0 1.914 0 2.659.638.531.319 1.063 0 1.17-.638l.106-2.234z" fill="#FFF"/><path d="M445.448 225.635c1.276-2.127 2.871 2.978 8.295 6.7 2.446 1.702 4.254 6.275 4.254 9.252 0 2.127-.213 4.148 0 6.168.106 1.17 1.488 4.041.531 4.786-2.34 1.701-5.423 5.743-6.806 7.125-1.276 1.063-2.34-5.636-3.19-8.508-1.064-3.19-.638-7.125-3.403-9.996-1.915-2.127-6.806-4.041-6.381-4.892l6.7-10.635z" stroke="#BD6B00" stroke-width=".532" fill="#FFF"/><path d="M445.767 242.013a10.635 10.635 0 0 1 1.701-2.765 6.487 6.487 0 0 1 2.553-1.915 5.636 5.636 0 0 0 2.552-1.595 3.828 3.828 0 0 0 .85-1.595 6.274 6.274 0 0 0 0-2.127l.32.32c2.446 1.7 4.254 6.274 4.254 9.251.032.815.032 1.631 0 2.446-.213.532-.32 1.064-.639 1.383l-1.17.85-2.87.745a7.55 7.55 0 0 0-2.766 2.127 11.175 11.175 0 0 0-1.914 2.765l-.213-.851c-.85-2.871-.744-6.274-2.765-9.04h.107z" stroke="#BD6B00" stroke-width=".532" fill="#BF0000"/><path d="M453.424 231.91c.531 3.51-1.49 4.785-3.403 5.423-1.915.745-3.51 2.765-4.254 4.68m12.442 1.595c-.85 3.19-2.977 2.765-4.892 3.403-1.914.744-3.934 3.19-4.785 5.104" stroke="#BD6B00" stroke-width=".532"/><path stroke="#BD6B00" stroke-width=".532" fill="#FFF" d="M447.256 223.508l-1.064-.638-18.823 31.798 1.063.638 18.824-31.904z"/><path d="M445.235 222.232a2.127 2.127 0 1 0 4.254 0 2.127 2.127 0 0 0-4.254 0zM429.07 196.71h-7.656v1.702h7.656v-1.702zm0 3.297h-7.656v14.676h7.656v-14.676zm.426-5.317h-8.508c-.213-2.872 2.659-5.956 4.254-5.956 1.702.107 4.36 3.19 4.254 5.956z" stroke="#BD6B00" stroke-width=".532" fill="#FFF"/><path d="M407.908 192.987c1.595.638 2.87 2.446 3.615 4.573.745 2.127 1.064 4.573.638 6.487 0 .744-.319 1.17-.531 1.595-.213.32-.426.532-.638.532-.32 0-.638 0-.745-.32l-.212-.85c.106-2.127.106-4.041-.32-5.743a8.189 8.189 0 0 0-3.19-4.679c-.319-.212-.425-.531-.532-.744.004-.28.119-.548.32-.745.425-.319 1.063-.425 1.595-.106zm-.213.425c-.425-.212-.85 0-1.064.107l-.106.212c0 .107 0 .213.32.426a8.72 8.72 0 0 1 3.296 4.892 17.76 17.76 0 0 1 .319 5.955c0 .23.075.454.213.638 0 0 0 .107.212 0 0 0 .213 0 .426-.319.21-.4.354-.83.425-1.276.32-1.914 0-4.254-.744-6.38-.745-1.915-1.915-3.616-3.19-4.255h-.107z" fill="#BD6B00"/><path d="M405.143 195.008c1.595.744 2.658 2.446 3.19 4.466.565 2.043.674 4.185.319 6.275-.213 1.382-1.063 2.127-1.702 2.127-.319.106-.638 0-.85-.32-.213-.319-.32-.638-.213-1.063.425-1.702.532-3.616.32-5.424-.32-1.808-1.064-3.403-2.34-4.36-.32-.319-.532-.532-.532-.85a.85.85 0 0 1 .212-.639 1.696 1.696 0 0 1 1.596-.212zm-.213.531a1.217 1.217 0 0 0-1.064 0l-.106.32.32.425a6.912 6.912 0 0 1 2.551 4.679c.32 1.914.107 3.935-.212 5.53-.107.425 0 .638 0 .85l.531.107c.32 0 1.064-.532 1.277-1.808.319-1.808.212-4.147-.32-6.061-.531-1.915-1.595-3.51-2.977-4.042z" fill="#BD6B00"/><path d="M429.496 226.592h-8.508v11.698h8.508v-11.698zm-.532 18.505h-8.189v2.552h8.19v-2.552zm.213 4.36h-8.508v9.252h8.508v-9.252zm.638 11.166h-9.252v5.211h9.252v-5.21zm-1.17-17.653h-7.444l-1.489-2.553h10.21l-1.277 2.553zm-9.996-9.146l-.107-6.38h-5.104a18.504 18.504 0 0 1 5.21 6.38z" stroke="#BD6B00" stroke-width=".532" fill="#FFF"/><path d="M428.113 236.483c0 1.382-1.595.85-1.595.106v-5.955c0-1.064-2.552-.851-2.552-.107v6.381c0 1.063-1.808.957-1.702 0v-7.444c0-2.34 5.85-2.234 5.85-.107v7.126zm0 14.144h-6.061v7.444h6.061v-7.444z" stroke="#BD6B00" stroke-width=".532"/><path d="M424.285 253.817h-2.127v1.063h2.127v-1.063zm3.722 0h-2.127v1.063h2.127v-1.063zm-2.127-3.19h-1.595v3.19h1.595v-3.19zm0 4.253h-1.595v3.297h1.595v-3.297zm33.712-79.76c-.426 5.85 1.489 9.147 4.573 8.615.85-3.19-1.064-5.424-4.573-8.614zm6.912 13.081c2.765-1.382.745-12.23-.319-16.802-.744 5.849-2.127 14.144.32 16.802z" stroke="#BD6B00" stroke-width=".532" fill="#FFF"/><path d="M465.547 188.733c-4.68 1.595-8.508-3.403-9.677-9.252 3.828 5.317 10.103 5.317 9.57 9.252h.107zm3.51 5.424c3.615-.957 1.488-12.443.744-17.015-.744 4.785-3.297 15.42-.744 17.015zm-1.277-.32c-.212-3.934-4.147-2.87-6.912-4.997.532 2.126 2.127 5.53 6.912 4.998zm4.467 5.318c3.616-1.063 1.489-13.4 1.701-18.504-1.063 4.466-4.466 17.334-1.701 18.504zm-1.702-.532c-2.977.958-6.912-1.063-7.231-4.572 2.659 1.807 6.7.425 7.231 4.572z" stroke="#BD6B00" stroke-width=".532" fill="#FFF"/><path d="M475.012 204.579c3.403.319 1.914-10.21 1.914-19.993-1.276 9.145-4.785 17.547-1.914 19.993z" stroke="#BD6B00" stroke-width=".532" fill="#FFF"/><path d="M473.736 204.153c-2.34 1.064-6.487-.744-7.657-4.679 4.254 1.808 7.019 0 7.657 4.68zm-27.225-23.608c.638 5.21 2.765 8.188 5.85 7.656.85-3.19-1.702-5.317-5.85-7.656zm8.295 13.186c-5.21.745-7.019-3.19-10.634-8.4 4.998 3.615 10.847 4.253 10.634 8.507v-.107z" stroke="#BD6B00" stroke-width=".532" fill="#FFF"/><path d="M456.401 193.2c2.765-3.403 0-7.763-2.127-11.38.426 5.424-1.382 8.508 2.127 11.38zm1.064 5.636c.425-3.403-5.317-4.147-7.87-5.955.957 1.914 2.127 7.125 7.976 5.955h-.106z" stroke="#BD6B00" stroke-width=".532" fill="#FFF"/><path d="M458.741 198.836c3.935-.425 2.34-7.125-.532-10.74 1.17 5.104-2.127 8.613.532 10.74z" stroke="#BD6B00" stroke-width=".532" fill="#FFF"/><path d="M461.719 204.472c4.466-2.126 1.595-7.656 0-10.953.638 4.36-2.978 7.657 0 10.847v.106z" stroke="#BD6B00" stroke-width=".532" fill="#FFF"/><path d="M460.868 203.834c-2.34 3.19-6.913-.85-7.87-5.53 3.935 3.297 6.913 2.765 7.87 5.637v-.107zm10.21 21.589c.425-4.573-2.979-12.762-.533-17.228.32-.639-.744-2.234-1.488-1.277-1.064 1.596-2.127 6.062-2.66 4.36-.424-1.807-.53-4.891-2.126-5.53-1.063-.318-2.446-.637-2.02 1.064.425 1.489 1.276 3.616.318 3.722-.531 0-2.126-2.127-3.509-3.19-1.063-.851-2.765.638-1.063 1.914 5.104 4.254 10.102 6.274 13.08 16.165zm9.251 68.593c.638 0 1.383-.32.638.638-6.061 7.444-7.763 9.571-16.59 8.508-8.826-1.17-10.953-3.616-17.228-7.126a15.527 15.527 0 0 0-11.91-1.063c-1.702.532-2.765.532-1.49-.745 1.277-1.17 2.66-2.87 4.255-4.04a18.61 18.61 0 0 1 13.505-2.872c6.381 1.063 11.805 5.21 18.292 6.806 3.474.702 7.054.702 10.528 0v-.106zm-50.833 13.293c-1.064.213-1.808 2.34-2.446.957-.85-2.446-.213-4.254.85-4.147 1.277.319 3.297 3.19 1.596 3.19z" stroke="#BD6B00" stroke-width=".532" fill="#FFF"/><path d="M484.477 221.913c1.276-1.489.957-1.914-1.064-2.02-1.489 0-4.466 1.063-5.636.106-1.064-.744-.532-3.935-1.064-5.317-.212-.957-.744-2.127-2.126-.213-3.829 6.168-8.508 13.612-10.635 20.844-1.064 4.04 0 10.422 3.616 14.676 0-3.616 1.276-6.062 2.871-9.146 2.127-3.935 9.678-14.889 14.038-19.036v.106z" fill="#FFF"/><path d="M468.631 254.242c-4.254 0-4.998-5.636-4.998-7.231 2.127.425 5.743 3.935 4.998 7.231zm-36.69 55.194c-2.977.638-2.87-6.594.213-9.678-1.382 4.68 2.127 8.934-.106 9.572l-.106.106zm1.277-.106c-.213 3.403 8.508-.426 10.635-3.19-5.105 2.232-10.422.425-10.635 3.19zm3.722-4.892c-.319 3.296 7.444.319 9.89-2.234-5.21 1.702-9.57-.531-9.89 2.127v.107zm-1.382.425c-3.084.744-2.553-6.806.425-9.358-1.489 4.998 1.914 8.614-.425 9.358zm3.19-4.573c-3.084.745-1.276-5.743.957-8.295-.425 4.68 1.064 7.976-1.063 8.295h.106zm1.595 0c-.319 3.403 5.743.851 8.082-2.446-5.104 1.595-7.763-.319-8.082 2.446zm1.595-2.658c-1.914-1.383.107-5.105 3.935-4.892-.425 2.233-1.701 6.274-3.935 4.892zm-14.888 15.632c-.106 3.403 8.508 1.702 11.273-1.914-5.53 1.064-10.954-.85-11.167 1.914h-.106zm34.456-6.168c-.32 3.403 9.146-.425 11.485-3.615-4.998 1.701-11.166.85-11.485 3.615zm-5.743 1.383c-2.02-1.383 2.02-4.998 5.318-5.85-.426 2.234-3.19 7.232-5.318 5.956v-.106zm-.638 2.446c-.212 3.084 10.103 1.382 12.762-1.49-8.827 1.596-12.443-1.169-12.762 1.49z" stroke="#BD6B00" stroke-width=".532" fill="#FFF"/><path d="M450.233 312.945c-1.063 2.872 8.827 2.127 12.336.532-5.636 0-11.485-2.552-12.336-.532z" stroke="#BD6B00" stroke-width=".532" fill="#FFF"/><path d="M445.66 315.072c-1.063 2.553 8.083 2.553 12.55 1.064-5.956 0-11.486-3.616-12.55-1.064zm-6.7 1.383c-1.7 3.084 8.083 3.297 11.167 1.808-5.53-.745-9.784-4.254-11.166-1.808zm11.38-5.211c3.084 1.914 2.871-3.829 5.317-7.763-3.828 3.509-7.444 5.955-5.317 7.763z" stroke="#BD6B00" stroke-width=".532" fill="#FFF"/><path d="M444.81 313.37c2.552 2.234 4.679-5.636 7.019-10.102-3.829 4.254-9.359 8.189-7.02 9.996v.107zm-7.232 2.128c2.127 2.552 8.508-7.445 10.847-12.762-3.509 4.148-12.548 10.635-10.847 12.762zm6.168 7.657c1.064 3.828 17.228-3.616 19.142-7.551-9.358 4.892-19.354 3.828-19.142 7.444v.107zm51.79-78.484c.426-.532 1.49 0 1.277 1.17-.32 1.595-2.659 9.784-6.7 12.549-2.871 2.127-18.079 5.424-24.885 6.912-3.828.745-6.912 2.659-9.465 5.637a100.39 100.39 0 0 1 3.19-10.422c1.277-3.19 4.68-6.594 8.296-6.7 6.487-.32 14.994-.85 21.269-3.51a17.015 17.015 0 0 0 7.125-5.636h-.106z" stroke="#BD6B00" stroke-width=".532" fill="#FFF"/><path d="M457.997 277.107c-2.127 1.489-4.36-3.935-1.808-9.146.106 4.998 4.04 6.7 1.808 9.146z" stroke="#BD6B00" stroke-width=".532" fill="#FFF"/><path d="M455.976 282.105c-2.871.85-3.722-4.254-1.914-8.295-.32 4.36 4.573 7.019 1.914 8.295z" stroke="#BD6B00" stroke-width=".532" fill="#FFF"/><path d="M453.743 286.146c-2.765 1.383-3.722-3.828-1.808-7.55-.213 4.785 3.935 6.274 1.808 7.444v.106z" stroke="#BD6B00" stroke-width=".532" fill="#FFF"/><path d="M454.913 286.465c1.063 3.19 7.444-2.871 8.507-6.168-3.935 3.935-9.252 3.403-8.507 6.062v.106z" stroke="#BD6B00" stroke-width=".532" fill="#FFF"/><path d="M457.784 281.467c1.276 3.19 9.252-5.317 11.06-9.252-3.935 3.935-11.91 6.912-11.06 9.146v.106z" stroke="#BD6B00" stroke-width=".532" fill="#FFF"/><path d="M459.38 276.469c1.275 3.722 9.89-6.168 12.442-9.678-4.254 3.829-13.4 7.019-12.443 9.678zm.318-3.616c-3.19-.638.106-3.19 3.935-7.338.106 4.36-.532 7.444-3.935 7.338z" stroke="#BD6B00" stroke-width=".532" fill="#FFF"/><path d="M464.91 270.3c-1.383-1.382 1.169-2.02 4.36-5.636.531 2.446-2.978 6.913-4.467 5.637h.106zm-14.89 16.165c-1.7 1.064-2.764-2.446-.744-5.53.532 3.403 2.233 4.254.745 5.53zm36.371-21.588c3.51 2.127 9.146-6.38 10.635-9.89-3.084 4.04-11.273 7.657-10.635 9.89z" stroke="#BD6B00" stroke-width=".532" fill="#FFF"/><path d="M483.307 269.769c2.02 2.127 8.189-3.722 10.315-6.7-3.19 2.871-11.166 3.19-10.315 6.7z" stroke="#BD6B00" stroke-width=".532" fill="#FFF"/><path d="M480.01 274.235c.638 2.978 9.571-3.722 11.698-6.912-3.828 3.722-12.336 3.403-11.698 6.912z" stroke="#BD6B00" stroke-width=".532" fill="#FFF"/><path d="M481.393 277.532c1.382 2.659 8.72-4.041 10.528-7.444-4.573 3.828-11.698 4.785-10.635 7.444h.107zm3.722-13.08c-2.233-2.446-1.276-3.616.425-7.445.851 3.935 2.233 5.53-.425 7.445zm-3.084 4.572c-4.254.213 0-4.891 1.063-9.252-.425 4.892 1.064 8.827-1.063 9.252z" stroke="#BD6B00" stroke-width=".532" fill="#FFF"/><path d="M479.372 273.066c-2.871-.638-2.127-4.786.213-9.784-.532 5.423 2.446 8.507-.213 9.784zm1.064 8.188c1.063 3.19 9.358-4.254 10.634-7.231-4.254 3.615-11.379 4.785-10.634 7.231z" stroke="#BD6B00" stroke-width=".532" fill="#FFF"/><path d="M475.437 286.359c1.17 3.19 9.89-3.403 12.55-7.019-5.212 4.254-13.188 3.828-12.55 7.019z" stroke="#BD6B00" stroke-width=".532" fill="#FFF"/><path d="M470.333 291.57c1.382 4.573 10.528-2.765 13.187-6.381-5.743 4.467-13.825 3.19-13.187 6.38zm8.507-11.698c-2.446 1.17-3.403-5.743-2.02-10.741 0 5.317 4.998 9.358 2.127 10.634l-.107.107z" stroke="#BD6B00" stroke-width=".532" fill="#FFF"/><path d="M474.693 285.402c-2.978.85-2.127-6.7.532-11.698.319 4.998 2.446 9.57-.532 11.698zm-5.317 5.21c-3.19.107-1.064-6.486 1.701-10.209-.425 4.786 1.064 9.572-1.701 10.21zm5.849 2.766c1.063 1.701 3.403-1.383 7.444-3.722-3.616 1.063-7.87 2.127-7.444 3.722zm1.914-56.045c-3.19-2.34-.745-6.593 0-10.634 1.063 3.828 3.616 8.933 0 10.634zm0 5.637c4.785-.532 4.041-6.487 4.254-10.316-1.49 5.211-5.318 6.062-4.254 10.422v-.106zm-.638-.745c-3.935-.212-3.722-4.679-3.935-9.145 2.02 4.147 4.254 4.785 3.935 9.145z" stroke="#BD6B00" stroke-width=".532" fill="#FFF"/><path d="M476.607 247.755c3.19.32 4.68-2.765 5.317-7.444-2.87 4.36-5.423 2.978-5.317 7.444zm-1.063-.319c-3.935.532-3.19-4.04-3.19-7.444 1.275 3.19 4.466 4.254 3.19 7.444z" stroke="#BD6B00" stroke-width=".532" fill="#FFF"/><path d="M481.712 245.522c-.32 2.978-2.234 8.082-5.318 6.912-1.17-3.615 2.765-4.36 5.318-6.912z" stroke="#BD6B00" stroke-width=".532" fill="#FFF"/><path d="M475.544 252.754c1.276-2.553-3.19-3.935-4.041-7.338-.532 4.892-.107 8.082 4.04 7.444v-.106zm12.655-31.054c-2.446-2.552-.32-6.806.425-10.847 1.064 3.829 2.659 8.933-.425 10.847zm0 4.892c4.254.532 5.317-8.188 5.849-12.017-1.489 5.211-6.38 7.445-5.85 12.124v-.107zm-.85 0c-2.979-1.595-2.34-4.998-3.191-7.444 1.914 3.084 3.828 3.51 3.19 7.444z" stroke="#BD6B00" stroke-width=".532" fill="#FFF"/><path d="M488.305 232.335c4.36.32 7.019-9.358 7.232-13.187-1.383 5.211-7.87 7.976-7.338 13.187h.106zm-.957-.213c-4.254-.957-3.722-3.722-3.084-8.082 1.383 4.467 3.722 3.51 3.084 8.082z" stroke="#BD6B00" stroke-width=".532" fill="#FFF"/><path d="M488.305 237.865c4.892.85 4.573-7.019 8.508-12.655-3.403 4.254-9.571 9.571-8.508 12.655zm-1.063-.319c-3.829.213-4.254-5.424-4.041-7.763.957 2.34 5.317 4.466 3.934 7.87l.107-.107z" stroke="#BD6B00" stroke-width=".532" fill="#FFF"/><path d="M495.962 231.803c-1.808 6.062-4.466 12.124-7.657 11.698-1.595-3.509 3.084-3.934 7.657-11.698z" stroke="#BD6B00" stroke-width=".532" fill="#FFF"/><path d="M487.135 242.544c1.277-2.658-3.19-3.934-4.04-7.338-.533 4.892-.107 8.083 4.04 7.338zm7.55-3.828c-2.658 5.423-3.828 11.698-7.443 10.74-1.383-4.253 4.04-5.104 7.444-10.74z" stroke="#BD6B00" stroke-width=".532" fill="#FFF"/><path d="M486.497 248.5c1.595-2.978-2.871-3.935-4.04-7.87-.533 5.105 0 8.827 4.04 7.763v.107zm-7.657-36.69c-2.552.638-5.317-2.233-4.36-6.593 2.978.638 4.254 3.403 4.36 6.593zm8.402-2.233c-.213 1.276-1.808 1.383-1.276-.425a5.636 5.636 0 0 0 0-3.616 7.976 7.976 0 0 1 0-4.892c.425-1.063 1.914-.425 1.276.425-.638.957-.745 2.978-.213 3.935.638 1.383.425 3.19.213 4.573zm-24.354 17.015c1.064 1.383 3.085.426 1.49-1.595-1.277-1.595-3.191-2.977-3.191-4.679-.213-2.127-1.383-5.317-2.552-6.487-1.17-1.17-2.553.425-1.277 1.276 1.383.85 2.34 4.68 2.234 6.168.106 2.127 2.127 3.722 3.296 5.317zm3.19-2.446c1.064 1.49 2.553.532 1.702-1.807-.744-1.596-.85-3.723-1.701-4.892-1.276-1.808-3.19-3.297-4.36-4.467-1.276-1.063-2.127 0-1.064 1.064a28.713 28.713 0 0 1 3.51 4.253c1.488 2.34.85 4.254 1.914 5.85zm16.697-7.656c.107 2.126-1.595 2.552-1.489-.426 0-3.19 2.34-6.168 1.064-10.953-.851-2.34-.851-6.7-.426-8.934.426-2.34 2.127-.85 1.383.958-.638 2.126.106 5.955.638 7.976 1.595 5.742-1.276 8.507-1.063 11.379h-.107zm-4.573-11.699c.213 2.021 1.915 2.127 1.383-.531-.426-2.127-.426-3.829 0-5.637.638-2.233.425-6.061 0-7.657-.532-1.701-2.127-.744-1.489.532.742 2.01.854 4.2.319 6.275-.638 2.127-.532 5.104-.213 7.125v-.107zm16.59 39.455c-.85.957-2.127.319-1.063-1.064 1.063-1.063.744-1.276 1.382-2.552.638-1.489.532-2.233 1.276-3.19.745-1.064 1.702 0 1.064.744-.85 1.064-.638 1.702-1.064 2.659-1.063 1.595-.744 2.446-1.595 3.403zm-21.694 26.161a9.146 9.146 0 0 0-4.68 7.125 17.015 17.015 0 0 1-2.126 7.55c2.126-.531 3.19-3.934 3.509-7.23.319-3.404 2.127-4.786 3.19-7.445h.107zm-5.424 6.274c-1.808 3.297-4.254 4.573-4.466 7.02-.213 2.87-.426 2.977-1.17 5.742 2.127-.532 2.658-.745 3.19-4.998.32-2.978 2.765-4.999 2.446-7.764z" stroke="#BD6B00" stroke-width=".532" fill="#FFF"/><path d="M411.736 307.309c-1.063 1.914-2.127 4.786-4.254 4.254 0-1.383 2.233-2.446 4.254-4.254zm-3.19.638c-3.935 1.702-7.445 1.276-7.976 3.829 3.828.425 5.317-1.064 8.082-3.829h-.106zm17.121-13.506a14.888 14.888 0 0 0-5.317 8.189 30.84 30.84 0 0 1-3.828 8.295 13.825 13.825 0 0 0 5.636-7.87c.744-3.19 1.702-5.636 3.51-8.508v-.106zm-3.296 0c-2.978 2.34-5.743 5.105-6.594 8.401-.85 3.085-1.382 5.424-3.403 8.508 3.19-2.02 4.36-4.998 5.317-8.295.745-3.19 2.66-5.53 4.68-8.508v-.106zm-9.784 7.763a1.17 1.17 0 0 0-.745-1.276 35.52 35.52 0 0 0-2.765-.85c-1.063-.32-1.701.425-1.701.957v2.127c0 .744.213.85.744.957.745.106 1.808.212 2.553.744.638.425 1.276.106 1.595-.532l.319-2.127zm-11.273 0c0-.638.213-1.17.638-1.276a5.743 5.743 0 0 1 2.553-.425c1.063 0 1.17.213 1.17.638v2.233c0 .851 0 .851-.426 1.064-.744 0-1.914 0-2.659.638-.531.319-1.063 0-1.17-.638l-.106-2.234z" fill="#FFF"/><path d="M430.347 332.088c0 1.276.212 2.34 1.063 3.296a20.206 20.206 0 0 0-14.676 1.17c-1.914.85-4.254-1.063-2.02-2.871 3.19-2.446 10.315-1.064 15.633-1.595zm-61.15 0a7.444 7.444 0 0 1-.425 3.19c4.68-1.808 9.678-.213 14.463 1.702 3.19 1.382 3.51-1.064 2.978-1.808a6.912 6.912 0 0 0-5.317-3.084h-11.698zm4.042-23.077c-1.383-.532-2.872 0-4.254 1.488-4.573 4.467-9.997 8.827-14.357 12.337-1.595 1.382-3.19 3.934 3.616 6.38.32.213 5.317 2.127 8.508 2.127 1.382 0 1.382 1.914 1.063 2.446-.532 1.064-.106 1.489-1.17 2.446-1.17 1.064 0 2.233 1.064 1.383 3.828-3.403 10.209-1.17 16.27.744 1.49.425 4.042.32 4.042-1.701 0-2.127 1.595-3.616 2.552-3.723 2.553.426 14.889.532 18.61.107 2.128-.32 2.34 3.084 3.51 4.254.85.957 3.935 1.17 6.168.212 4.254-1.914 10.635-1.914 13.293 0 1.064.745 2.021 0 1.383-.744-.85-1.064-.744-1.702-1.17-2.552-1.063-2.127-.213-2.553.851-2.66 11.698-1.594 15.526-5.53 11.91-8.826-4.679-4.041-9.783-8.188-14.25-12.974-1.276-1.276-2.127-1.808-4.573-.744a70.72 70.72 0 0 1-26.905 6.274 80.823 80.823 0 0 1-26.161-6.168v-.106z" fill="#FFF"/><path d="M428.326 309.649l-1.702.425c-9.57 3.403-18.291 5.743-27.33 5.743-8.827 0-18.08-2.553-26.48-5.956a2.446 2.446 0 0 0-1.596 0 2.902 2.902 0 0 0-1.382.745 122.83 122.83 0 0 1-12.55 10.953c-.744.532-.637 1.915.533 2.34 8.826 3.19 17.44 9.04 42.113 8.827 24.991-.213 33.818-5.956 41.687-8.614.532-.213 1.064-.532 1.383-1.064.153-.256.192-.565.106-.85a2.127 2.127 0 0 0-.638-.851c-4.573-3.722-9.358-6.7-12.549-11.06-.319-.532-.957-.638-1.595-.532v-.106zm0 .531c.532 0 1.063 0 1.17.32 3.19 4.572 8.188 7.444 12.655 11.166l.425.744c.06.136.06.29 0 .426-.106.319-.638.638-1.063.744-8.082 2.765-16.696 8.508-41.475 8.72-24.672.213-33.18-5.636-42.007-8.826-.85-.426-.744-1.277-.425-1.49 4.466-3.402 8.72-7.23 12.549-11.06.33-.308.732-.527 1.17-.637h1.276a72.315 72.315 0 0 0 26.586 5.955c9.252 0 18.08-2.34 27.65-5.636a7.125 7.125 0 0 1 1.595-.426h-.106z" fill="#BD6B00"/><path d="M367.815 149.173c0-1.49 2.127-1.596 1.914.425-.319 2.446 4.786 8.827 5.211 12.761.32 2.66-1.595 4.892-3.403 6.381a7.019 7.019 0 0 1-7.231.532c-.957-.85-1.808-3.51-1.064-4.573.213-.319 1.383 3.935 3.935 3.935 3.51 0 6.38-2.659 6.38-4.998.214-4.042-5.635-10.422-5.742-14.463zm10.103 9.996c.638-.425 1.489 1.383.85 1.808-.53.319-1.594-1.383-.85-1.914v.106zm1.595-3.722c-.319.213-.85 0-.744-.213a12.762 12.762 0 0 1 3.828-3.51c.426-.212 1.064.426.851.745a11.698 11.698 0 0 1-3.935 2.978zm13.4-10.635c.319-.638 2.233-1.382 2.765-1.808.425-.531.638.426.425.745-.319.744-2.02 1.808-2.765 1.914-.319 0-.638-.425-.425-.744v-.107zm4.573.32a8.827 8.827 0 0 1 2.658-3.616c.532-.32 1.383 0 1.17.425a9.571 9.571 0 0 1-3.084 3.51c-.319.318-.85 0-.744-.32zm-3.935 2.87c-.32.213-.106.745.106.851.638.213 1.595.213 2.127 0 .638-.425.32-3.084-.532-1.701-.638.85-1.063.638-1.701.85zm-7.763 5.956c-1.383-1.063.425-2.552 1.808-1.489 2.87 2.127-4.254 10.422-8.083 14.25-.744.745-1.382-1.063-.425-2.02a35.839 35.839 0 0 0 7.125-8.082c.425-.532.744-1.702-.425-2.659zm16.27-7.019c.107-1.063-1.701 0-1.701-1.382 0-.745 2.02-1.276 2.871-.426 1.383 1.49.32 3.935-2.127 4.148-1.914 0-5.317 2.871-4.785 3.403.532.744 5.743 1.17 8.827.744 1.914-.319 1.488 1.383-.426 1.596-1.914.212-3.403 0-5.104.638-2.127.531-2.978 3.19-4.148 4.253-.213.213-.85-.85-.638-1.276.85-1.276 2.127-3.19 3.616-3.828.85-.32-2.552-.426-3.616-.745-.85-.212-.638-1.382-.319-2.02.425-.85 3.616-4.148 4.998-4.041 1.17 0 2.446-.32 2.553-1.064zm5.318.213c.638-.532 1.063-1.383 1.595-1.914.32-.32.957 0 .85.85-.106.745-1.063 1.277-1.594 1.808-.532.32-1.064-.425-.745-.744h-.106zm6.912-2.446c.957 0 1.064 1.702.213 1.914-.638.213-1.063-1.808-.213-1.914zm-2.233 5.317c0 1.595.745 1.49 2.127 1.383 1.383 0 2.552 0 2.552-1.276 0-1.383-.744-2.659-1.063-1.702-.106.85-.32 2.34-.85 1.702-.426-.532-.214-.638-1.064.212-.532.532-.532-.212-.851-.638-.213-.319-.85.213-.85.426v-.107zm-9.784 7.657c-.319 2.02 0 4.786.957 4.786 1.277 0 3.829-4.254 5.105-6.594.744-1.276 1.914-1.489 1.382-.106-.744 2.02-.638 6.38 0 7.657.426.638 3.19-.638 3.616-1.595.851-1.808.107-5.105.426-7.125.106-1.277 1.382-1.596 1.276-.32a80.398 80.398 0 0 0-.107 7.976c0 1.064 3.084 2.553 3.51-.638.213-1.914 1.276-3.934 0-6.061-.85-1.383 1.17-1.277 2.233.638.745 1.276-.638 3.403-.532 4.998 0 2.552-1.914 4.041-3.296 4.041-1.276 0-2.127-1.595-3.19-1.595-1.064 0-2.34 1.808-3.191 1.701-3.829-.212-1.808-5.636-2.978-5.742-1.276 0-2.658 5.317-4.254 5.21-1.488-.212-3.19-4.466-2.446-6.167.532-1.702 1.596-2.127 1.49-1.064zm17.973-8.507c-1.808-1.064 0-3.935.957-2.978 1.701 2.127 3.403 6.912 4.68 7.338.744.212.637-3.616 1.169-5.318.425-1.382 1.914-.957 1.701.745-.106.532-2.126 6.806-1.914 7.019a50.089 50.089 0 0 1 3.51 8.295c.319 1.276-1.17.425-1.383.212-.957-1.489-2.552-6.912-2.552-6.593l-1.808 8.189c-.213 1.063-1.808.85-1.383-1.064.32-1.489 2.446-8.827 2.34-9.146a18.292 18.292 0 0 0-5.317-6.7z" fill="#FFF"/><path d="M423.434 166.826c-.425 0-1.276 1.063 1.276 1.595 3.297.638 7.02-.532 8.083-3.828 1.382-3.935 2.126-7.657 2.87-9.04.852-1.595 1.915-1.489 1.064-3.828-.531-1.808-1.595-1.276-1.808-.32-.531 2.447-2.765 10.635-3.509 12.018-1.276 2.765-3.935 3.828-7.976 3.403z" fill="#FFF"/><path d="M430.24 153.852c-.425-.745-1.276 0-1.063.744.105.62.646 1.072 1.276 1.064.744 0 2.34.106 2.34-1.064 0-.85-.745-1.595-1.17-.638-.532.85-1.064.745-1.383 0v-.106zm.745-3.19c-.213.212 0 1.17.319 1.063a7.444 7.444 0 0 0 3.51-.85c.212-.214.105-.745-.214-.745-1.063 0-2.765 0-3.615.531zm9.358 2.445c.85-1.276 2.978-1.382 2.127.426a653.283 653.283 0 0 1-6.7 13.08c-.85 1.49-1.489.745-.85-.425.744-1.489 5.21-12.762 5.423-13.08z" fill="#FFF"/><path d="M432.154 168.74c-.212-.85-1.595-2.127-1.382.213.213 4.041 5.849 2.765 7.444 1.382 1.595-1.382.32 4.573 2.34 5.211 1.063.32 3.19-1.17 4.254-2.552 2.871-3.722 4.785-9.146 7.444-12.761 1.063-1.49-.532-2.553-1.064-1.383-2.552 4.041-5.53 12.336-8.826 14.463-2.659 1.702-1.808-2.127-1.915-3.403-.106-.85-1.17-2.127-2.552-.957a5.849 5.849 0 0 1-3.935 1.276c-.744 0-1.488 0-1.808-1.489z" fill="#FFF"/><path d="M442.151 161.296c0-.32-1.17-.425-1.063.744 0 .851 1.063 1.064 1.17 1.064 1.595-1.276-.32-.638-.107-1.914v.106zm-2.446 4.68c-.319 0-.638 1.063.213 1.169l4.147-.213c.426 0 .638-.957-.425-.85-1.276 0-2.871-.32-3.935 0v-.107zm-65.934-17.654c.531 0 1.701 1.489 1.595 2.02 0 .213-1.276 0-1.595-.319-.32-.319-.213-1.701 0-1.701zm-5.637 11.06c-1.063.638.213 1.808 1.064 1.276 2.977-2.02 7.444-4.041 8.507-7.976.32-1.276 1.49-3.297 2.659-3.722 1.063-.532 2.765 2.02 3.828 0 .639-1.064 2.872.744 3.404-.426.638-1.382.319-2.126.319-3.615 0-.851-.745-1.064-1.277.319-.212.638 0 1.276-.106 1.701-.213.213-.638.426-1.063.213-.213-.213 0-.744-.638-1.064-.213 0-.639-.106-.851.213-.745 1.383-1.064 2.659-2.234 1.064-.957-1.064-1.488-3.297-2.126-.32-.213 1.064-1.808 2.553-2.765 2.553-1.17 0-.851-3.19-3.404-2.659-1.382.32-1.276 2.872-1.063 3.722.32 1.383 4.254.426 3.935 1.277-.638 2.87-4.68 5.742-8.189 7.444zm-24.14 14.037c-.107.532.531 1.808 1.17 1.915.638 0 1.063-1.383.85-1.915-.212-.319-1.914-.319-2.02 0zm3.51 5.211c-.426-.425-1.702.745-.639 1.596.532.531 2.659 1.17 3.19.212.851-1.276-.744-5.849 0-6.38.532-.532 2.978 2.977 4.254 3.19 2.872.425 2.127-4.892 5.318-4.467 2.02.213 2.233-2.34 1.914-4.04-.213-1.596-2.765-3.83-3.935-4.893-1.489-1.276-2.233 1.064-1.276 1.702 1.276 1.063 3.51 3.084 3.828 4.36.107.638-1.489 1.914-2.127 1.595-1.489-.85-2.765-4.254-4.04-4.998-.426-.213-1.49.319-1.064 1.382.638 1.17 3.19 2.872 3.296 4.148.107 1.063-1.063 3.403-1.914 3.403-.957 0-3.19-2.871-3.935-4.254-.425-.532-1.595-.532-1.807.426-.07 1.964.109 3.929.531 5.849.213 1.701-.957 1.807-1.595 1.17zm-4.255-9.145c-.425.425.851 1.276 1.064 1.063.425-.425 2.233-2.446 1.914-3.19-.32-.638-2.765-2.127-3.19-1.383-.745 1.17 2.34 1.808 1.807 2.127a7.444 7.444 0 0 0-1.595 1.383zm4.36-8.933s.851 2.658 1.49 1.488c.425-.744-1.49-1.488-1.49-1.488zm1.277 4.253c-.213 0-1.064.745-.532 1.064.85.425 3.084.85 2.552-.745-.319-.957 3.403 0 2.446-2.552a3.935 3.935 0 0 0-1.808-1.808c-.425 0-1.595.532-.85.957.531.213 2.126 1.17 1.595 1.808-.745.638-1.17-.319-2.02-.106-.426 0-.107 1.276-.426 1.595 0 .213-.745-.425-.957-.319v.106zm5.849-10.102a3.722 3.722 0 0 0-1.277 2.126c0 .213.32.639.532.532a3.403 3.403 0 0 0 1.276-2.02c0-.32-.212-.851-.531-.638zm2.977-.32c-.85-1.063 1.064-2.765 1.808-.531.532 1.382 5.85 8.401 6.913 10.74.85 1.596 0 2.234-.957 1.064-2.66-3.403-4.892-7.657-7.764-11.273zm5.53.107c.957-1.064 2.872-3.19 2.34-4.254-.425-1.063-1.595-1.063-1.808-.744-1.063 1.382.85 1.063.532 1.488-.532 1.064-1.064 1.702-1.383 2.765-.106.32.107.958.32.745zm82.737 3.403c-.744-.532.639-3.19 1.596-2.127 2.446 2.871 3.615 12.336 4.36 19.461 0 0-1.064.957-1.064.745 0-3.722-1.595-15.314-4.892-18.08zm-56.47-9.146c-.85-1.914 1.17-2.552 1.49-1.276 1.382 6.168 4.785 10.847 7.444 14.995.744 1.276 0 2.127-1.808.85-1.276-.85-2.659-4.147-3.19-4.253-1.277-.213-4.042 5.317-9.678 3.722-1.489-.426-1.382-4.786-1.489-6.7 0-.957 1.064-1.063 1.064 0 0 1.808 0 5.53 2.233 5.743 1.914 0 5.955-2.553 6.806-4.68.85-2.126-2.02-6.274-2.871-8.507v.106z" fill="#FFF"/><path d="M447.468 174.483c.426-1.276 6.487-11.486 7.338-13.719.426-1.063 2.127 1.914.426 3.51-1.49 1.276-5.85 8.507-6.7 11.06-.426 1.063-1.49.531-1.064-.851z" fill="#FFF"/><path d="M457.784 164.805c1.063-4.253 3.828.638 1.382 2.978-3.615 3.616-4.785 10.528-10.634 11.592-1.49.319-4.254-.745-5.105-1.383-.319-.212.213-1.701 1.17-.957 1.382 1.064 4.36 1.383 5.955.107a27.012 27.012 0 0 0 7.232-12.337zm-60.617 13.506c-.32.32-1.064.32-1.17.745-.32 1.489 0 2.34-.32 3.828-.318 1.489-1.382 1.489-1.275.32 0-1.49 1.382-3.723.425-3.83-.638-.106-1.063-.956-.425-1.382 1.17-.744 1.808-.638 2.552-.425.319.106.425.532.213.744z" fill="#FFF"/><path d="M396.316 176.184c-1.489 1.49-2.978 2.021-4.36 3.723-.638.638-.532 1.595-.957 2.552-.32.957-1.49 1.063-1.808.957-.532-.425-.426-2.127-1.064-1.276-.638.957-.957 2.127-1.808 2.127-.744 0-2.127-1.595-1.382-1.595 2.446-.32 2.34-2.127 3.19-2.34 1.064-.106 1.064 1.595 1.808 1.276.426-.213.745-2.233 1.276-2.765 1.595-1.701 2.872-2.552 4.573-3.828.745-.638 1.383.531.532 1.276v-.107zm5.636 5.318c-1.276.212-1.063 1.808-.638 1.914.532.319 1.489.425 1.808-1.383.213-.744.32 3.723 1.914 2.021 1.064-1.063 3.297.213 4.254-1.063.745-.958 1.064-1.596.425-2.872-.212-.319-1.063-.212-1.063.745 0 .85-.532 1.808-1.382 1.701-.426-.106.212-2.02-.213-2.552a.532.532 0 0 0-.745 0c-.319.425.32 2.34-.638 2.552-1.276.213-.638-1.276-1.063-1.489-1.808-.85-1.914.213-2.659.32v.106zm9.571-3.19c.957-.213.638-.213 2.127-1.383.532-.426.638.85.532 1.382 0 .745-1.063.213-1.382.957-.426.958-.213 3.19-.426 4.042 0 .425-.85.425-.85 0-.213-1.064.106-2.127 0-3.51 0-.425-.532-1.17 0-1.382v-.107zm-5.317-2.66c-.213.958-.213 1.702-.213 2.447 0 .531 1.064.212 1.064.106 0-.85.213-2.127 0-2.446-.213-.106-.745-.319-.85-.106z" fill="#FFF"/><path d="M399.506 165.762l-1.489 5.956-2.126-4.041v4.147l-4.68-5.53 1.595 5.956-4.253-3.616 2.34 4.041-7.445-4.786 4.68 5.53-5.956-2.977 4.254 3.615-9.571-3.615 9.252 4.573a30.84 30.84 0 0 1 13.4-2.765c5.21 0 9.89 1.063 13.293 2.765l9.358-4.573-9.571 3.615 4.254-3.615-5.85 2.977 4.574-5.53-7.445 4.786 2.34-4.041-4.254 3.51 1.595-5.85-4.573 5.53v-4.147l-2.127 4.04-1.595-5.955z" fill="#FFF"/><path d="M391.3 295l-.3 2.6h-.4l-.1-1.8a9.3 9.3 0 0 0-.5-1.6 7.3 7.3 0 0 0-.5-1.3l-1-1.4.8-2.2a6.6 6.6 0 0 1 1.5 2.4 9.4 9.4 0 0 1 .5 3.2m7-4.2c0 .7-.2 1.2-.5 1.5-.2.3-.6.6-1.3.7l.4 1.5a6.7 6.7 0 0 1 0 2 22.5 22.5 0 0 1-.1 1.3h-.4a8.2 8.2 0 0 0-.1-1.3 5.5 5.5 0 0 0-.2-1l-.4-1a10.5 10.5 0 0 0-.7-1.4l-1-1.7.6-2 1 1c.3.2.6.3 1 .3.8 0 1.2-.4 1.2-1.3h.4v1.4m6.4 4.8l-.5 2.1c-.4 0-.6-.3-.8-.7l-.4-1.3a12.4 12.4 0 0 1-.1-1.7 4 4 0 0 1-1 .2 2 2 0 0 1-1.3-.4 1.3 1.3 0 0 1-.5-1c0-.9.3-1.7.7-2.3.5-.7 1-1 1.5-1.1.5 0 .8.1 1 .4a2 2 0 0 1 .3.9v2c0 .9.1 1.5.3 1.9 0 .3.3.6.8 1m-2-3.5c0-.6-.3-.8-.8-.8a1 1 0 0 0-.6.1c-.2.1-.2.2-.2.3 0 .3.3.5 1 .5l.6-.1m8.7 3l-.3 2.6c-.5-.4-1-1-1.4-2a25.4 25.4 0 0 1-1.3-4.1 52.8 52.8 0 0 1-1.8 5.5 2.9 2.9 0 0 1-.8.7v-2.5c.6-.7.9-1.1 1-1.5a7.6 7.6 0 0 0 .8-1.7l.5-2.7h.4l.9 2.7c.2.6.5 1.2.9 1.6l1 1.4" fill="#FFF" fill-rule="nonzero"/><path d="M430.8 319.4c.4.4.6.8.7 1.2l.4 1.6-.8.1a7.8 7.8 0 0 0-1-1.5 18.8 18.8 0 0 0-1.1-1.2 46 46 0 0 0-1.7-1.5 34.4 34.4 0 0 0-2-1.7c-.4-.2-.6-.4-.6-.5a1.9 1.9 0 0 1-.3-.8 11.2 11.2 0 0 1-.2-1.6l2.7 2.2a44.3 44.3 0 0 1 2.5 2.2l1.4 1.5m-9.5-5.8l-.2 2H418l.3-2h3m8.4 8.9l-7.6 2.3-1.3-2 6.5-2-.7-.8a2.8 2.8 0 0 0-.9-.6 1.4 1.4 0 0 1-.4 1 2 2 0 0 1-1 .6 3.4 3.4 0 0 1-1.8 0 2 2 0 0 1-1.3-.7 4 4 0 0 1-.7-2.2c0-1 .3-1.6.9-1.8.7-.2 1.8 0 3 .7a8.1 8.1 0 0 1 3 2.4l2.3 3.1m-5.8-4a3.8 3.8 0 0 0-.8-.3 1.1 1.1 0 0 0-.6 0 .7.7 0 0 0-.5.3.5.5 0 0 0 0 .6l.5.2h.6l.4-.3.4-.5m-8-1.6l-.5 2-3.2-.3.5-2 3.1.3m7.5 7.7l-1.7.4a5.3 5.3 0 0 1-1.7 0 3.6 3.6 0 0 1-1.5-.4c-.3.5-.8 1-1.5 1.2a7.4 7.4 0 0 1-1.6.6l-1.2.3-1-2 1.1-.3a9.1 9.1 0 0 0 1.3-.4l.9-.5-1-.5h-.7a.4.4 0 0 0-.2 0 .6.6 0 0 0-.2.3h-.5c-.5-.8-.6-1.5-.3-2s.9-.8 2-1a6.8 6.8 0 0 1 2.6-.2c.8.1 1.3.4 1.5.9.2.2.2.5.2.7l-.4 1.2h.5a2 2 0 0 0 .6 0l1.7-.3 1 2m-8 1.8l-1.6.3a3 3 0 0 1-2.2-.4 5.5 5.5 0 0 1-1.7-2.6l-.8-2.2a2 2 0 0 0-.8-1 4.6 4.6 0 0 0-.9-.5l.6-2.1c.6.3 1 .6 1.4 1l1 1.7.5 1.5 1.1 2.2c.3.3.7.4 1 .3l1.7-.2.7 2m-7-7.5l-1 1.9-3-.7 1-1.9 3 .7m1.8 8.4l-7.5.7-.4-2 6.2-.7a2.3 2.3 0 0 0-.6-.8 8.3 8.3 0 0 0-1-.6l.5-2c.7.4 1.2.9 1.6 1.3.3.5.6 1.2.8 2.1l.4 2m-6 1a17 17 0 0 1-2.2-.2 10.5 10.5 0 0 1-1.7-.5 5.6 5.6 0 0 1-1.3.4 9.9 9.9 0 0 1-1.7 0h-2a2.5 2.5 0 0 1-1.2-.3c-.3-.2-.5-.5-.8-1a4.1 4.1 0 0 1-1.5 1l-1.7.1h-1.7l.2-2.1h1.7c.8 0 1.5 0 2.1-.4a2 2 0 0 0 1.3-1.8l.7.1a30.2 30.2 0 0 0-.1 1.3c0 .3 0 .5.3.7.3.2.6.3 1 .3h1.5c1 0 1.6 0 2-.2.6-.2.9-.5 1-1.1l.1-.4s.3 0 .5-.2l.5-.2v.4c.002.1.002.2 0 .3l-.3 1.1a12.4 12.4 0 0 0 2 .5c.1-.2 0-.4-.1-.7l-.3-.6a.5.5 0 0 1 .1-.3l.3-.2 1-.9.5 1v1l-.2 2.9m-11.3-8.7l-2 1.3-1.3-.9-1.4 1-1.9-1 1.8-1.3 1.5.8 1.5-1 1.8 1m-3 8.2l-7.3-1.2.8-2 6.2 1c0-.4 0-.7-.2-1a5.2 5.2 0 0 0-.5-.8l1.6-1.7c.4.6.6 1 .7 1.6 0 .5-.2 1.2-.5 2.1l-.8 2m-6.1-1l-1.6-.3c-.9-.2-1.4-.6-1.5-1.2-.2-.6.1-1.5.8-2.8l1.2-2c.3-.5.4-.9.3-1.2a2.2 2.2 0 0 0-.3-.7l2.2-1.6c.3.5.3 1 .3 1.4 0 .5-.3 1.1-.7 1.8l-.8 1.4a5.8 5.8 0 0 0-.9 2.2c0 .4.2.6.5.7l1.6.4-1.1 2m-3.8-8l-2.5 1.1-1.8-1.7 2.6-1 1.7 1.7m-1 6.6a6.8 6.8 0 0 1-1.6 1.4 4.2 4.2 0 0 1-1.7.6l-2.4-.1a14.8 14.8 0 0 1-2.8-.7 7.7 7.7 0 0 1-3.4-2c-.6-.8-.6-1.5 0-2.2a7 7 0 0 1 2-1.6c.8-.5 2-1 3.8-1.6l.4.5-2.8 1.2c-.5.3-1 .6-1.3 1-.4.4-.3 1 .2 1.6a10.5 10.5 0 0 0 6.3 2.2c1.2 0 2-.3 2.3-.7.3-.3.4-.6.5-1l.2-1.6 2.5-1.5a8 8 0 0 1-.1 1.5 4.4 4.4 0 0 1-1 1.6l-1.2 1.4" fill="#BF0000" fill-rule="nonzero"/></g></svg>