<svg width="800" height="480" xmlns="http://www.w3.org/2000/svg"><g fill="none" fill-rule="evenodd"><path fill="#FFF" d="M0 0h799.267v479.531H0z"/><path fill="#000" d="M1.78.563h796.754v202.593H1.675z"/><path fill="#0061FF" d="M147.958 190.5h528.796v106.688H147.958z"/><path d="M798.743 1.688V480H400L798.743 1.594v.093zm-797.382 0V480H400L1.361 1.594v.093z" fill="#E20000" fill-rule="nonzero"/><path fill="#FFD600" d="M586.806 190.594l-80-18.094 67.958-45.938-83.455 10.688 42.932-65.156-74.032 38.437 13.404-75.844L423.455 94.5l-20.209-69.375-22.722 71.531L330.47 35.72l14.346 78-74.136-40.594 42.932 65.156-81.048-11.719 66.807 44.813-83.665 19.219h370.995z"/></g></svg>