<svg width="800" height="480" xmlns="http://www.w3.org/2000/svg"><g fill="none" fill-rule="evenodd"><path fill="#FFF" d="M.4.4h402.7v240H.4z"/><path fill="#C00" d="M.4.4v18l96.1 59.3 36.1 1.3L.5.4z"/><path fill="#006" d="M41.6.4l116.5 73V.5H41.6z"/><path fill="#C00" d="M173.6.4v93.3H.4V147h173.2v93.2H227V147h173.2V93.7H226.9V.4z"/><path fill="#006" d="M242.4.4v68.8L356.4 1l-114-.5z"/><path fill="#C00" d="M246 76.8l32-.3L402.7.9l-33 .7L246 76.7z"/><path d="M401.3 21l-95 56.7 93.8.4v84.4h-80l79.2 51.5 1.2 26.2-42.3-.6-115.8-68.2v68.8h-84.3v-68.8L49.5 240l-49 .2V480h799.2V.4L402.2 0l-.9 21zM.4 27L0 77l84.2 1L.4 27.1V27zm0 135.5v51l80-50.5-80-.5z" fill="#006" fill-rule="nonzero"/><path d="M308.2 164.6l-33.3-.3 125.6 75-.8-17.1-91.5-57.6zm-276.6 76l117.8-74.2-31 .3-118 73.8 31.2.1z" fill="#C00" fill-rule="nonzero"/><path d="M457.9 255.5c0 52.5-6 111.6 33 152.7 8 8.4 23.4 27.7 36.5 27 13.7-.8 31.4-21.1 39.2-31 34-44.8 28.7-98.2 29.8-150.2-15.3 6.9-23 9.2-36.4 9.1-10 1-25.3-5.6-34.5-10-6 4-14.7 8.8-30.4 9.3-18 .8-23.8-2.3-37.2-6.9z" fill="#CC3"/><path d="M462 261.2c-1 27.6-.2 58.6 4.1 88.1 4.8 15.4 4.1 23.9 11.2 33.1l99-.8c6-9.7 10.5-24.4 11-30.3 5.6-29.7 5.7-62.6 5.9-92a62 62 0 0 1-35.7 7.4 69 69 0 0 1-30.5-9.2c-9.5 5.6-12.8 8.2-28.4 8.9-12.2.6-22 1.6-36.6-5.2z" fill="#FFF"/><path d="M477.5 381.8c7 14.8 32 49.8 51 49.2 18.6-.7 39.5-34.9 47.6-49.2h-98.6z" fill="#0CF"/><path d="M529.4 302.6c3.2 7.4 13.2 15.5 16 19.5-3.5 4-4.2 3.6-3.8 11 6.1-6.4 6.2-7 10.2-6.1 8.6 8.6 1.5 27-5.6 31-7.1 4.3-5.8-.1-16.5 5.2 4.9 4.2 10.6-.6 15.2.7 2.5 3-1.2 8.4.7 13.6 4.1-.4 3.6-8.7 4.6-11.7 3-11 21-18.6 21.9-28.7 3.8-1.7 7.5-.5 12.1 2-2.3-9.4-9.8-9.3-11.9-12.2-4.8-7.4-9.1-15.8-19.4-18-7.9-1.7-7.3.5-12.3-3-3.2-2.4-12.7-7-11.2-3.3z" fill="#F90"/><path d="M552 311a1.65 1.65 0 1 1-3.3 0 1.65 1.65 0 0 1 3.3 0z" fill="#FFF"/><path d="M504.3 333.9c5-6.2 7.6-19 9.8-23.2 5.2 1.2 5.1 2 11.5-1.8-8.5-2.4-9.2-2.2-10.2-6.1 3.6-11.7 23.2-14 30.1-9.6 7.1 4.3 2.6 5.2 12.3 12.1 1.4-6.3-5.5-9-6.5-13.7 1.5-3.7 8-3 11.6-7-2.2-3.5-9.3.8-12.4 1.4-11 2.5-26.3-9.8-35.6-6-3.3-2.5-4-6.4-3.9-11.7-7.2 6.5-3.6 13.1-5.3 16.3-4.2 7.7-9.7 15.5-6.8 25.6 2.2 7.8 3.8 6.2 3.2 12.3-.7 3.9-.4 14.5 2.2 11.4z" fill="#F90"/><path d="M501.2 310c.8-.4 1.8-.1 2.2.7a1.6 1.6 0 1 1-2.2-.7z" fill="#FFF"/><path d="M545.4 338.2c-8-1-20.1 3.3-25 3.7-1.5-5.1-.8-5.5-7.4-9 2.3 8.6 2.8 9 0 12-11.8 2.9-24-12.7-23.8-20.8 0-8.3 3.2-5 4-16.9-6 2-4.8 9.4-8.3 12.7-3.9.6-6.6-5.3-12-6.3-1.8 3.7 5.5 7.5 7.6 9.9 7.9 8.2 5.2 27.5 13.3 33.5-.4 4.2-3.4 6.8-8 9.4 9.3 2.9 13.1-3.7 16.7-3.9 8.8-.3 18.3.3 25.5-7.4 5.4-5.9 3.3-6.5 8.8-9 3.7-1.4 12.6-7.2 8.6-7.9z" fill="#F90"/><path d="M526.6 353.3a1.638 1.638 0 1 1 1.7-2.8 1.638 1.638 0 0 1-1.7 2.8z" fill="#FFF"/></g></svg>