<svg width="800" height="480" xmlns="http://www.w3.org/2000/svg"><g fill="none" fill-rule="evenodd"><path fill="red" d="M0 0h800v243.6H0z"/><path fill="#000" d="M0 236.4h800V480H0z"/><path d="M367.7 134.2c165.2 43.3 59 255.6-71.3 167.2l-8.8 13.6c76.7 54.6 152.6 10.6 174-46.4 22.2-58.8-7.6-141.5-92.6-150l-1.3 15.6z" fill="#FFEC00"/><path d="M309 316.8l21.7 10.1-10.2 21.8-21.7-10.2 10.2-21.7zm149-99.5h24v24h-24v-24zm-11.7-38.9l22.3-8.6 8.7 22.3-22.3 8.7-8.7-22.4zm-26-29.1l17.1-16.9 16.9 17-17 16.9-17-17zm-26.2-39.8l22.4 8.4-8.5 22.4-22.4-8.4 8.5-22.4zM455 256l22.3 8.9-9 22.2-22.2-8.9L455 256zm-69.9 70l22-9.3 9.5 22-22 9.4-9.5-22.1zm-39.5 2.8h24v24h-24v-24zm41.3-116l-20.3-15-20.3 14.6 8-23-20.3-15h24.5l8.5-22.6 7.8 22.7 24.7-.3-19.6 15.3 7 23.4v-.1z" fill="#FFEC00"/><path d="M475 332.4c-1.2.4-6.2 12.4-9.7 18.2l3.7 1c13.6 4.8 20.4 9.2 26.2 17.5a7.9 7.9 0 0 0 10.2.7s2.8-1 6.4-5c3-4.5 2.2-8-1.4-11.1-11-8-22.9-14-35.4-21.3z" fill="#FE0"/><path d="M504.3 358.8a4.35 4.35 0 1 1-8.7 0 4.3 4.3 0 0 1 8.6 0h.1zm-21.4-13.6a4.35 4.35 0 1 1-8.7 0 4.35 4.35 0 0 1 8.7 0zm10.9 7a4.35 4.35 0 1 1-8.7 0 4.35 4.35 0 0 1 8.7 0z" fill="#000" fill-rule="nonzero"/><path d="M463.5 349.7c-42.6-24.3-87.3-50.5-130-74.8-18.7-11.7-19.6-33.4-7-49.9 1.2-2.3 2.8-1.8 3.4-.5 1.5 8 6 16.3 11.4 21.5A5288 5288 0 0 1 473 331.6c-3.4 5.8-6 12.3-9.5 18v.1z" fill="#FE0"/><path fill="#FFEC00" d="M436.2 291.5l17.8 16-16 17.8-17.8-16z"/><path d="M470.5 334.8l-125-75.5m109.6 58.1L413 290.1m18.2 42.7L388.3 308" stroke="#000" stroke-width="3"/></g></svg>