<svg width="800" height="480" xmlns="http://www.w3.org/2000/svg"><g fill="none" fill-rule="evenodd"><path fill="#74ACDF" d="M0 0h800v480H0z"/><path fill="#FFF" d="M0 160h800v160H0z"/><g transform="translate(328 168)"><g fill-rule="nonzero"><path d="M68.928 73.248l27.36 59.52s.48 1.152 1.248.864c.768-.384.288-1.44.288-1.44l-22.752-61.44M74.4 93.888c-.384 9.024 5.184 14.016 4.512 22.08-.768 8.16 3.648 12.672 4.8 15.84.96 3.168-1.248 4.992-.288 5.472.96.48 2.88-2.016 2.304-6.528-.672-4.416-4.032-5.76-3.264-15.648.768-9.888-4.032-12.192-2.88-21.12" stroke="#85340A" stroke-width="1.056" fill="#F6B40E"/><path d="M68.684 71.977l2.5 65.46s.003 1.248.823 1.276c.856-.061.817-1.22.817-1.22l2.492-65.47M65.84 93.14c-3.808 8.19-.574 14.933-4.281 22.126-3.832 7.245-1.479 13.104-1.627 16.471-.325 3.295-3.063 4.135-2.36 4.946.703.81 3.432-.76 4.627-5.15 1.069-4.337-1.521-6.864 2.972-15.706 4.494-8.841.94-12.807 5.422-20.614" fill="#F6B40E" stroke="#85340A" stroke-width="1.056"/><path d="M68.945 70.71l-22.74 61.434s-.475 1.154.271 1.493c.815.272 1.222-.815 1.222-.815L75.055 73.29M58.22 89.174c-6.653 6.11-6.245 13.577-12.423 18.804-6.313 5.227-6.38 11.54-7.806 14.594-1.561 2.92-4.412 2.648-4.073 3.666.34 1.018 3.462.61 6.245-2.987 2.648-3.598 1.222-6.924 8.757-13.373 7.535-6.449 5.77-11.472 12.898-16.97" fill="#F6B40E" stroke="#85340A" stroke-width="1.056"/><path d="M69.671 69.64l-44.519 48.054s-.88.884-.32 1.484c.648.562 1.44-.285 1.44-.285L74.33 74.36m-21.632 8.232c-8.484 3.1-10.966 10.154-18.673 12.619-7.833 2.413-10.311 8.22-12.797 10.496-2.56 2.1-5.09.757-5.166 1.828-.076 1.07 2.965 1.89 6.913-.37 3.822-2.31 3.778-5.929 13.207-9.003 9.43-3.075 9.721-8.391 18.41-10.743" fill="#F6B40E" stroke="#85340A" stroke-width="1.056"/><path d="M76.128 95.424c.48 8.64 5.376 12.48 4.416 20.448 2.112-6.24-2.976-11.136-2.688-20.352m-7.392-22.848l18.72 40.896-15.648-42.144" fill="#85340A"/><path d="M66.85 95.22c-2.863 8.167.19 13.588-3.745 20.582 4.339-4.957 1.512-11.427 5.305-19.831m1.914-23.938l1.645 44.947 1.67-44.924" fill="#85340A"/><path d="M58.356 91.482c-5.77 6.449-5.024 12.626-11.337 17.582 5.906-2.92 5.77-9.979 12.49-16.292m10.93-21.383l-15.681 42.155 18.735-40.865" fill="#85340A"/><path d="M51.939 84.778c-7.799 3.75-9.473 9.742-17.202 11.905 6.573-.437 9.15-7.011 17.774-10.272m18.28-15.573l-30.619 32.945L73.12 73.2" fill="#85340A"/></g><g fill-rule="nonzero"><path d="M70.752 68.928l-59.52 27.36s-1.152.48-.864 1.248c.384.768 1.44.288 1.44.288l61.44-22.752M50.112 74.4c-9.024-.384-14.016 5.184-22.08 4.512-8.16-.768-12.672 3.648-15.84 4.8-3.168.96-4.992-1.248-5.472-.288-.48.96 2.016 2.88 6.528 2.304 4.416-.672 5.76-4.032 15.648-3.264 9.888.768 12.192-4.032 21.12-2.88" stroke="#85340A" stroke-width="1.056" fill="#F6B40E"/><path d="M72.023 68.684l-65.46 2.5s-1.248.003-1.276.823c.061.856 1.22.817 1.22.817l65.47 2.492M50.86 65.84c-8.19-3.808-14.933-.574-22.126-4.281-7.245-3.832-13.104-1.479-16.471-1.627-3.295-.325-4.135-3.063-4.946-2.36-.81.703.76 3.432 5.15 4.627 4.337 1.069 6.864-1.521 15.706 2.972 8.841 4.494 12.807.94 20.614 5.422" fill="#F6B40E" stroke="#85340A" stroke-width="1.056"/><path d="M73.29 68.945l-61.434-22.74s-1.154-.475-1.493.271c-.272.815.815 1.222.815 1.222L70.71 75.055M54.826 58.22c-6.11-6.653-13.577-6.245-18.804-12.423-5.227-6.313-11.54-6.38-14.594-7.806-2.92-1.561-2.648-4.412-3.666-4.073-1.018.34-.61 3.462 2.987 6.245 3.598 2.648 6.924 1.222 13.373 8.757 6.449 7.535 11.472 5.77 16.97 12.898" fill="#F6B40E" stroke="#85340A" stroke-width="1.056"/><path d="M74.36 69.671L26.307 25.152s-.884-.88-1.484-.32c-.562.648.285 1.44.285 1.44L69.64 74.33m-8.232-21.632c-3.1-8.484-10.154-10.966-12.619-18.673-2.413-7.833-8.22-10.311-10.496-12.797-2.1-2.56-.757-5.09-1.828-5.166-1.07-.076-1.89 2.965.37 6.913 2.31 3.822 5.929 3.778 9.003 13.207 3.075 9.43 8.391 9.721 10.743 18.41" fill="#F6B40E" stroke="#85340A" stroke-width="1.056"/><path d="M48.576 76.128c-8.64.48-12.48 5.376-20.448 4.416 6.24 2.112 11.136-2.976 20.352-2.688m22.848-7.392l-40.896 18.72 42.144-15.648" fill="#85340A"/><path d="M48.78 66.85c-8.167-2.863-13.588.19-20.582-3.745 4.957 4.339 11.427 1.512 19.831 5.305m23.938 1.914L27.02 71.969l44.924 1.67" fill="#85340A"/><path d="M52.518 58.356c-6.449-5.77-12.626-5.024-17.582-11.337 2.92 5.906 9.979 5.77 16.292 12.49m21.383 10.93L30.456 54.758l40.865 18.735" fill="#85340A"/><path d="M59.222 51.939c-3.75-7.799-9.742-9.473-11.905-17.202.437 6.573 7.011 9.15 10.272 17.774m15.573 18.28L40.217 40.172 70.8 73.12" fill="#85340A"/></g><g fill-rule="nonzero"><path d="M75.072 70.752l-27.36-59.52s-.48-1.152-1.248-.864c-.768.384-.288 1.44-.288 1.44l22.752 61.44m.672-23.136c.384-9.024-5.184-14.016-4.512-22.08.768-8.16-3.648-12.672-4.8-15.84-.96-3.168 1.248-4.992.288-5.472-.96-.48-2.88 2.016-2.304 6.528.672 4.416 4.032 5.76 3.264 15.648-.768 9.888 4.032 12.192 2.88 21.12" stroke="#85340A" stroke-width="1.056" fill="#F6B40E"/><path d="M75.316 72.023l-2.5-65.46s-.003-1.248-.823-1.276c-.856.061-.817 1.22-.817 1.22l-2.492 65.47M78.16 50.86c3.808-8.19.574-14.933 4.281-22.126 3.832-7.245 1.479-13.104 1.627-16.471.325-3.295 3.063-4.135 2.36-4.946-.703-.81-3.432.76-4.627 5.15-1.069 4.337 1.521 6.864-2.972 15.706-4.494 8.841-.94 12.807-5.422 20.614" fill="#F6B40E" stroke="#85340A" stroke-width="1.056"/><path d="M75.055 73.29l22.74-61.434s.475-1.154-.271-1.493c-.815-.272-1.222.815-1.222.815L68.945 70.71M85.78 54.826c6.653-6.11 6.245-13.577 12.423-18.804 6.313-5.227 6.38-11.54 7.806-14.594 1.561-2.92 4.412-2.648 4.073-3.666-.34-1.018-3.462-.61-6.245 2.987-2.648 3.598-1.222 6.924-8.757 13.373-7.535 6.449-5.77 11.472-12.898 16.97" fill="#F6B40E" stroke="#85340A" stroke-width="1.056"/><path d="M74.329 74.36l44.519-48.054s.88-.884.32-1.484c-.648-.562-1.44.285-1.44.285L69.67 69.64m21.632-8.232c8.484-3.1 10.966-10.154 18.673-12.619 7.833-2.413 10.311-8.22 12.797-10.496 2.56-2.1 5.09-.757 5.166-1.828.076-1.07-2.965-1.89-6.913.37-3.822 2.31-3.778 5.929-13.207 9.003-9.43 3.075-9.721 8.391-18.41 10.743" fill="#F6B40E" stroke="#85340A" stroke-width="1.056"/><path d="M67.872 48.576c-.48-8.64-5.376-12.48-4.416-20.448-2.112 6.24 2.976 11.136 2.688 20.352m7.392 22.848l-18.72-40.896 15.648 42.144" fill="#85340A"/><path d="M77.15 48.78c2.863-8.167-.19-13.588 3.745-20.582-4.339 4.957-1.512 11.427-5.305 19.831m-1.914 23.938L72.031 27.02l-1.67 44.924" fill="#85340A"/><path d="M85.644 52.518c5.77-6.449 5.024-12.626 11.337-17.582-5.906 2.92-5.77 9.979-12.49 16.292M73.56 72.611l15.681-42.155-18.735 40.865" fill="#85340A"/><path d="M92.061 59.222c7.799-3.75 9.473-9.742 17.202-11.905-6.573.437-9.15 7.011-17.774 10.272m-18.28 15.573l30.619-32.945L70.88 70.8" fill="#85340A"/></g><g fill-rule="nonzero"><path d="M73.248 75.072l59.52-27.36s1.152-.48.864-1.248c-.384-.768-1.44-.288-1.44-.288l-61.44 22.752m23.136.672c9.024.384 14.016-5.184 22.08-4.512 8.16.768 12.672-3.648 15.84-4.8 3.168-.96 4.992 1.248 5.472.288.48-.96-2.016-2.88-6.528-2.304-4.416.672-5.76 4.032-15.648 3.264-9.888-.768-12.192 4.032-21.12 2.88" stroke="#85340A" stroke-width="1.056" fill="#F6B40E"/><path d="M71.977 75.316l65.46-2.5s1.248-.003 1.276-.823c-.061-.856-1.22-.817-1.22-.817l-65.47-2.492M93.14 78.16c8.19 3.808 14.933.574 22.126 4.281 7.245 3.832 13.104 1.479 16.471 1.627 3.295.325 4.135 3.063 4.946 2.36.81-.703-.76-3.432-5.15-4.627-4.337-1.069-6.864 1.521-15.706-2.972-8.841-4.494-12.807-.94-20.614-5.422" fill="#F6B40E" stroke="#85340A" stroke-width="1.056"/><path d="M70.71 75.055l61.434 22.74s1.154.475 1.493-.271c.272-.815-.815-1.222-.815-1.222L73.29 68.945M89.174 85.78c6.11 6.653 13.577 6.245 18.804 12.423 5.227 6.313 11.54 6.38 14.594 7.806 2.92 1.561 2.648 4.412 3.666 4.073 1.018-.34.61-3.462-2.987-6.245-3.598-2.648-6.924-1.222-13.373-8.757-6.449-7.535-11.472-5.77-16.97-12.898" fill="#F6B40E" stroke="#85340A" stroke-width="1.056"/><path d="M69.64 74.329l48.054 44.519s.884.88 1.484.32c.562-.648-.285-1.44-.285-1.44L74.36 69.67m8.232 21.632c3.1 8.484 10.154 10.966 12.619 18.673 2.413 7.833 8.22 10.311 10.496 12.797 2.1 2.56.757 5.09 1.828 5.166 1.07.076 1.89-2.965-.37-6.913-2.31-3.822-5.929-3.778-9.003-13.207-3.075-9.43-8.391-9.721-10.743-18.41" fill="#F6B40E" stroke="#85340A" stroke-width="1.056"/><path d="M95.424 67.872c8.64-.48 12.48-5.376 20.448-4.416-6.24-2.112-11.136 2.976-20.352 2.688m-22.848 7.392l40.896-18.72-42.144 15.648" fill="#85340A"/><path d="M95.22 77.15c8.167 2.863 13.588-.19 20.582 3.745-4.957-4.339-11.427-1.512-19.831-5.305m-23.938-1.914l44.947-1.645-44.924-1.67" fill="#85340A"/><path d="M91.482 85.644c6.449 5.77 12.626 5.024 17.582 11.337-2.92-5.906-9.979-5.77-16.292-12.49M71.389 73.56l42.155 15.681-40.865-18.735" fill="#85340A"/><path d="M84.778 92.061c3.75 7.799 9.742 9.473 11.905 17.202-.437-6.573-7.011-9.15-10.272-17.774m-15.573-18.28l32.945 30.619L73.2 70.88" fill="#85340A"/></g><circle stroke="#85340A" stroke-width="1.4" fill="#F6B40E" cx="72" cy="72" r="26.7"/><path d="M81.1 66.3c-1.8 0-3.6.8-4.6 2.4 2 1.9 6.6 2 9.7-.2a7 7 0 0 0-5.1-2.2zm0 .4c1.7 0 3.4.8 3.6 1.6-2 2.3-5.3 2-7.4.4a4.3 4.3 0 0 1 3.8-2z" fill="#843511" fill-rule="nonzero"/><path d="M81.4 65c-2.7 0-3.3.7-4.5 1.7-1.2 1-1.9.8-2 1-.3.2 0 .8.3.6.5-.2 1.3-.6 2.5-1.6s2.5-1 3.7-1c3.7 0 5.7 3 6.2 2.8.3-.2-2.1-3.5-6.2-3.5z" fill="#85340A"/><path d="M88.8 66.3c-4.7-4.1-10.7-4.8-14-1.7a8 8 0 0 0-1.5 3.5c-.4 2.3.3 4.8 2.1 7.4l-.8.4a14.6 14.6 0 0 1-1.6-9.4 13.3 13.3 0 0 1 .6-2.3c4.5-3.7 10.7-4 15.2 2v.1z" fill="#85340A"/><circle cx="1.9" cy="2.3" r="1.9" transform="translate(79.1 66)" fill="#85340A"/><path d="M86.3 69.5c-3.5 2.7-7 2.5-9 1.3-2-1.3-2-1.7-1.6-1.7.4 0 .8.4 2.4 1.3 1.7.8 4.1.8 8.2-.9z" fill="#85340A"/><path d="M68 75.7a1.9 1.9 0 1 0 1.8 2.9 4 4 0 0 0 2.2.6h.2a3.9 3.9 0 0 0 2.3-.6 1.9 1.9 0 1 0 1.8-3c.5.3.8.7.8 1.3 0 .6-.5 1.2-1.2 1.2a1.2 1.2 0 0 1-1.2-1.2 3 3 0 0 1-2.6 1.7 3 3 0 0 1-2.5-1.7 1.2 1.2 0 0 1-1.3 1.2c-.6 0-1.2-.6-1.2-1.2s.3-1 .8-1.2h.1zm2 5.5c-2.1 0-3 1.8-4.8 3 1-.4 1.9-1.2 3.3-2s2.7.2 3.5.2c.8 0 2-1 3.5-.2 1.4.8 2.3 1.6 3.3 2-1.9-1.2-2.7-3-4.8-3a5.5 5.5 0 0 0-2 .6 5.5 5.5 0 0 0-2-.7v.1z" fill="#85340A" fill-rule="nonzero"/><path d="M69.2 83.6c-.8 0-1.8.2-3.4.6 3.7-.8 4.5.5 6.2.5 1.6 0 2.4-1.3 6.1-.5-4-1.2-4.9-.4-6.1-.4-.8 0-1.4-.3-2.8-.2z" fill="#85340A"/><path d="M66 84.2h-.8c4.3.5 2.3 3 6.8 3s2.5-2.5 6.8-3c-4.5-.4-3.1 2.3-6.8 2.3-3.5 0-2.4-2.3-6-2.3zm9.7 6.7a3.7 3.7 0 1 0-7.4 0 3.8 3.8 0 0 1 7.4 0z" fill="#85340A" fill-rule="nonzero"/><path d="M55.4 66.3c4.7-4.1 10.7-4.8 14-1.7a8 8 0 0 1 1.5 3.5c.4 2.3-.3 4.8-2.1 7.4l.8.4a14.6 14.6 0 0 0 1.6-9.4 13.3 13.3 0 0 0-.6-2.3c-4.5-3.7-10.7-4-15.2 2v.1z" fill="#85340A"/><path d="M62.8 65c2.7 0 3.3.7 4.5 1.7 1.2 1 1.9.8 2 1 .3.2 0 .8-.3.6-.5-.2-1.3-.6-2.5-1.6s-2.5-1-3.7-1c-3.7 0-5.7 3-6.2 2.8-.3-.2 2.1-3.5 6.2-3.5z" fill="#85340A"/><path d="M62.7 66.3c-1.8 0-3.6.8-4.6 2.4 2 1.9 6.6 2 9.7-.2a7 7 0 0 0-5.1-2.2zm0 .4c1.7 0 3.4.8 3.6 1.6-2 2.3-5.3 2-7.4.4a4.3 4.3 0 0 1 3.8-2z" fill="#843511" fill-rule="nonzero"/><circle fill="#85340A" cx="62.9" cy="68.3" r="1.9"/><path d="M57.9 69.5c3.5 2.7 7 2.5 9 1.3 2-1.3 2-1.7 1.6-1.7-.4 0-.8.4-2.4 1.3-1.7.8-4.1.8-8.2-.9z" fill="#85340A"/></g></g></svg>