<svg width="800" height="480" xmlns="http://www.w3.org/2000/svg"><g fill="none" fill-rule="evenodd"><path fill="#006" d="M0 0h800v480H0z"/><path fill="#BD1021" d="M0 240l800 240V0z"/><path fill="#FFF" d="M800 25.688v428.625L85.703 240z"/><g stroke="#000"><path d="M673.988 291.937s-4.79-3.892.898-10.254c-3.069-2.544-.225-7.56-.225-7.56s-5.239-1.945.225-10.029c-3.967-2.62-2.246-8.457-2.246-8.457s-12.723-4.79-.598-9.356c-10.03 4.341-19.386-5.913-19.386-5.913l-14.52.45c-2.47-12.126-21.705-1.573-7.484-36.301-3.668-.674-7.785-1.722-11.976 1.272-4.042 3.069-15.793 9.58-22.753 3.069-6.961-6.512 4.49-15.868 4.79-16.092.224-.225 15.418-8.084 17.589-13.248-.225-3.967-5.015-6.96-.674-15.493 5.015-8.009 35.702-15.643 49.624-18.263a22.08 22.08 0 0 0 9.73-8.907l1.571 5.689s30.912-9.132 32.409-13.473c1.497-4.34.674 3.892.674 3.892 12.125-1.123 27.618-11.526 29.789-6.736 10.179-1.946 29.788-10.703 29.788-10.703s6.737-.225 1.947 7.185c2.993 4.79-.899 8.982-1.123 8.982-.15 0 1.347 4.715-2.545 7.335 1.272 4.116-2.395 7.484-2.395 7.484s1.721 4.94-5.24 7.485c.674 4.416-3.891 5.24-3.891 5.24s.598 4.565-2.395 6.586c0 3.443-3.518 5.24-3.518 5.24s2.245 1.272-.898 3.442a1173.595 1173.595 0 0 1-34.58 21.331c0-.224 23.053 4.117 24.625 4.94 1.572.824 18.936 12.425 18.936 12.425l-17.664 21.705s-19.535-2.095-20.433-1.048c-.898 1.048 4.117 1.497 5.24 3.294 1.047 1.721 2.844 5.838 6.287 5.389 3.517-.375-6.512 6.362-13.024 6.96 0 2.395 8.233 2.62 10.479.749 2.096-2.021-5.24 5.613-6.138 6.736-.898 1.123 9.73-1.572 9.73-1.572s-1.721 7.186-11.002 9.356c3.668 6.063 2.17 9.955 1.946 9.955-.224 0-6.137-5.988-11.75-4.94 1.496 5.838 6.062 11.227 7.409 12.125 1.272.898-10.254.748-11.751-2.62-1.497-3.368-2.844 7.86 1.272 11.377-4.79.225-8.906-2.62-8.906-2.62s-2.844 6.512-.898 9.73c1.946 3.294-6.737-6.511-6.737-6.511l-16.466 6.96-3.742-6.287z" stroke-width="1.8" fill="#9C3900" stroke-linejoin="round"/><path d="M546.225 278.989c.374 0 24.025-.374 34.878-6.587a64.593 64.593 0 0 0 12.724 14.296l3.518-12.35s8.532.375 9.28 2.246c-1.122 2.395-1.496 5.464-1.496 5.464s5.763.449 6.212 1.197c.374.749-1.572 7.335-1.572 7.335l24.775 5.838s1.946-9.73 3.892-8.532c1.946 1.197 10.478 13.173 22.454 13.921 11.975.749 12.723-10.03 12.723-10.03l2.77 1.498s5.015-10.778 5.838-10.778c.823 0 1.871 1.497 8.458 1.497 1.946 2.32 2.769 7.784 2.769 7.784s-7.41 7.335-5.09 13.173c2.32 5.838 2.77 4.266 2.77 4.266l53.44 12.724s2.695 4.266-1.946 6.586c0 .375-53.89-12.35-53.89-12.35s-5.014 5.764-8.906 4.641c-3.892-1.122-1.123 2.246-1.123 2.246l58.081 4.715s4.266 5.389 1.198 6.96c-3.892.375-62.797-3.891-62.797-3.891s-3.443 7.41-7.335 1.197c-2.694 4.266-5.838-1.197-5.838-1.197s-5.014 3.892-5.763-.375c-4.266 3.144-6.96-1.946-6.96-1.946l-24.85-1.497-1.497 2.246s4.267 1.197-2.32 3.892c-6.586 2.77 39.52 1.572 40.642 1.946 1.197.449-3.069 3.892-3.069 3.892s23.577 1.497 27.843-3.443c4.266-5.09-1.497 6.587-1.497 6.587s18.562-.749 18.562-1.572c0-.824-.374 5.763-13.173 5.014a83.828 83.828 0 0 0 17.44 8.159s-9.73 2.245-20.958-.374c1.946 5.014 10.479 9.655 10.479 9.655s-6.212 5.389-20.134-7.784c3.892 7.035.749 9.73.374 8.981a35.926 35.926 0 0 0-22.454-13.996c9.73 6.212 5.464 8.982 5.464 8.982s-5.09-8.982-13.173 0c-3.143-8.234-15.119-12.874-29.864-13.623-4.64-5.389-7.335-3.892-18.187-6.96-6.213-6.961-15.12-14.745-15.12-14.745s.375-10.479 10.853-9.281c1.198 3.518 1.198 2.32 1.198 2.32s11.601-4.266 15.044 1.497c5.09-8.832 11.975-1.272 13.173 1.796 3.368.524 20.209.973 20.209.973s-2.021-3.517-.749-3.068c1.123.374 10.404-3.518 10.03-4.64-.45-1.198-.749-5.09.748-4.716 1.497.449-13.173-1.871-21.331 4.266-2.695-2.694-.749-10.03-.749-10.03L608.273 298l-1.198 6.137s-7.036 1.198-6.587-.374l-1.571 5.464s-9.281-2.32-9.281-2.77c0-.448 2.694-13.92 2.694-13.472 0 .3-7.784.749-18.562 8.832-3.143-9.73-27.543-22.454-27.543-22.828z" stroke-width="1.9" fill="#FFC221"/><path d="M605.129 282.507l-5.015 22.454m9.655-13.997l-1.497 7.41m26.272-1.497l-2.246 6.886m45.208 40.268c-.375 0-12.35 1.571-13.922 1.197-1.497-.374 19.011 6.212 19.011 8.907m-26.72-7.335s-11.976-7.784-13.996-7.036c-1.872.749 11.975-.374 13.173-1.497m-23.951-.374s-12.425.374-13.622-.748c-1.198-1.123 11.975 8.457 14.37 7.709m-24.774-12.425c-.374 0-8.533-3.068-11.976-3.892 2.994 3.144 5.39 7.41 13.099 8.982m1.946-10.104c-.375-.749-15.494-5.464-15.494-7.784a24.4 24.4 0 0 0 13.173 1.571m82.481-11.6l-1.497 6.96" stroke-width="1.9"/><path d="M576.463 247.254s-16.242 13.921 0 22.08c.748-5.464 1.946-6.213 1.946-6.213s13.472 5.015 21.705-6.96c-3.518-5.09-9.73-3.144-9.73-3.144s-12.724 0-13.921-5.763z" stroke-width="1.9" fill="#FFC221"/><path d="M590.01 253.466l-11.227 9.655m45.806 57.558s2.62 2.844.3 6.361m54.188-3.517l-4.266.374m-30.612-2.695l7.784 1.198m13.098-21.107s.225 7.86-6.287 7.635c-6.587-.225-4.416.224-4.416.224" stroke-width="1.9"/><path d="M670.096 299.946s2.62.898 1.946 2.844c-.674 1.946.673 7.635-6.961 13.098-8.083 1.722-7.185-6.736-7.185-6.736" stroke-width="1.9"/><path d="M672.94 302.416s4.715-2.844 5.389 1.721c.673 4.491-3.892 13.024-7.185 14.371-3.219 1.272-6.961-.225-6.512-2.395m14.146-11.751s4.341-3.518 5.688 1.048c1.273 4.565-3.518 14.82-5.464 14.97m5.838-14.97s2.246-1.048 3.743.224m-10.703 15.419c-.824.224-4.491.449-5.838-2.395m-13.697-5.24l-4.566.3m21.257 16.915l-.375-7.185-1.796-2.395-2.994 3.068s-.449 7.186-1.796 7.86m1.796-8.084l-2.395-4.49-3.742 4.49s-.374 6.512-1.722 7.185m1.722-7.41l-1.497-4.34s-4.341 2.394-4.79 4.116c-.45 1.796-.674 6.512-1.722 6.96m1.722-7.783s.449-3.967-.899-3.967c-1.272 0-7.11 5.463-7.335 10.254" stroke-width="1.9"/><path d="M576.987 247.329s2.17-2.17 2.844-4.79c.598-2.545-.898-5.39 1.721-7.784 2.62-2.395 36.974-16.99 39.819-19.835a86.074 86.074 0 0 0 8.682-10.179c.673-1.347 2.62 6.512-3.293 9.955 6.361-1.722 10.478-3.668 13.098-2.77-2.62 3.668-9.58 9.73-12.874 9.73 7.634-2.769 14.595-5.239 16.541-3.667 1.946 1.497-9.356 9.131-13.921 9.58 7.634-1.946 17.813-5.014 19.16-1.721-4.116 1.272-2.844 2.395-11.301 7.185a21.331 21.331 0 0 1-6.512 1.048c6.512-.674 15.418-3.293 16.316 1.497-5.239 2.02-7.185 4.566-11.526 5.688-4.416 1.048-14.37 2.994-20.508 5.464-5.988 2.395-14.97 9.356-14.97 9.356s-19.384.599-19.384.374c0-.224-3.743-8.907-3.892-9.131z" stroke-width="1.9" fill="#FFF" stroke-linejoin="round"/><path d="M586.118 245.832s.224-4.341 2.245-5.838c1.871-1.497 11.676-5.24 13.847-8.533 2.245-3.218-3.219 5.689-2.395 8.084m-9.73-.225s4.715 1.722 3.667 5.39" stroke-width="1.9"/><path d="M595.698 241.79a3.593 3.593 0 1 1-7.185 0 3.593 3.593 0 0 1 7.185 0z" stroke-width="1.6"/><path d="M742.921 234.081l37.648 7.185s4.117-4.79 1.946-7.41c5.689-1.272 4.117-8.682 4.117-8.682s6.512-2.844 1.123-9.356c3.742-3.742-.899-6.511-.899-6.511s1.497-6.512-3.218-7.186c1.272-5.239-8.233-6.96-8.233-6.96s-19.834 5.464-33.756 5.838c4.49 4.565-1.721 7.484-1.721 7.484s3.667 2.545 2.544 4.716c-1.047 2.245.749 4.565-4.116 6.137 6.287 2.77-.674 7.56-.674 7.56s6.96 4.79 5.24 7.185z" stroke-width="1.9" fill="#FFF"/><path d="M739.254 226.072s33.232 3.892 34.804 3.892c1.571 0 7.335 1.946 8.457 3.892m-41.54-9.73l46.33 1.048M741.2 222.93s43.935-2.545 47.004-7.11m-45.657-2.396s44.16-4.79 44.534-4.116m-46.106-1.347s42.813-6.737 43.262-5.614M618.75 180.341s13.472 14.82 12.2 24.85" stroke-width="1.9"/><path d="M630.053 197.331s4.34 6.287 6.062 6.961c1.722.674 16.99 1.497 17.889 8.083.823 4.117-3.294 2.77-2.62 5.838 1.048 3.893 11.227 8.982 22.454 2.994m-10.329 3.07s9.131 13.471 22.604-1.049m-6.96 5.838s11.076 5.913 20.208-9.356m-11.751 10.703s5.464 4.491 16.765-1.496m15.643-6.138s16.766 3.443 17.814 4.49m-11.452-8.232l11.751.449m-18.936-6.96s20.059-1.273 22.679 2.843m-31.361-9.056s28.067 1.123 29.34 2.62M716.8 235.054s4.79-1.347 5.464-.748m-16.317 12.424s6.287 5.389 14.37 2.994m-10.852 6.137s7.185 3.219 15.643 1.273m-13.248 4.116s7.185 4.79 11.976 3.967m-15.27-1.123s5.016 3.743 5.24 5.689m-12.2-1.347s1.497 7.858 6.96 10.703m-10.627-7.186s-2.395 10.18 3.667 16.467m-10.03-8.458c0 .225-.374 4.79-.149 5.24m-38.92-44.834l11.676-.599s4.34-1.796 1.347-4.565m1.497 2.62c.225 0 11.077.823 13.921 4.116 2.845 3.218 6.288 9.73 8.234 10.853 2.02 1.122 2.395-.45 2.395-.45m-4.79-1.72s-5.839 10.029-1.273 13.022m-1.946-1.946s-5.24 6.961-1.123 10.479m-1.047-.898s-4.117 6.736.823 11.302m-2.695-29.19c-.224.299-5.014 3.667-6.736 2.844m1.722 7.784s1.946 2.02 3.667 1.721m-3.443 8.533l3.144 2.095m-2.695 5.689l2.695 1.646m-51.87-108.303s5.763 2.994 10.329 0c4.566-2.994 26.496-14.22 32.184-16.017 5.763-1.796 8.982-12.35 10.104-16.915m-4.34 12.35l32.033-9.356s5.24-4.342 5.464-12.35m-2.245 8.682s31.96-3.218 31.96-15.119m-5.015 8.233s33.68-9.131 36.824-12.574" stroke-width="1.9"/><path d="M642.702 182.736s20.358-10.478 23.577-11.676c3.218-1.123 10.478-10.329-.45-10.329" stroke-width="1.9"/><path d="M652.582 186.853c.224 0 16.69-10.778 22.154-12.125 2.994-4.117 1.347-8.458-3.667-7.56" stroke-width="1.9"/><path d="M676.158 171.958c.45-.224 8.907-.449 5.913 6.213-4.34 3.143-23.127 12.574-23.127 12.574m12.798-25.822l35.702-11.976s2.994-6.137-1.347-7.035m29.714-10.778c0 .224 4.566 2.77 1.796 6.886-5.014 2.993-28.74 8.682-28.74 8.682m63.095-19.236l-33.681 9.43m31.136-1.87l-29.19 8.981m26.72-1.646l-25.897 7.784m21.032-.45c-.673 0-19.16 5.689-19.16 5.689m15.118 0l-11.975 4.79m8.982 1.647a240.257 240.257 0 0 0-10.33 4.341m7.336.898l-9.132 4.341m-6.66 5.464s1.122.45.897 1.871m-23.95 10.703s3.817 1.422.224 5.09c-1.871 2.47-7.11 1.796-10.329 6.362m35.028-62.647s4.79 1.123 1.123 7.335c-9.58 3.668-29.04 9.58-29.04 9.58s-.899 1.647-3.443 2.994a567.787 567.787 0 0 1-30.164 9.132m63.096-21.93s5.24 2.245 0 6.137c-5.988 3.443-26.72 9.88-26.72 9.88s-.3 1.796-1.198 2.47c-.898.748-28.367 9.88-28.367 9.88" stroke-width="1.9"/><path d="M741.05 155.492s5.539 1.647.749 6.212a216.307 216.307 0 0 1-24.026 9.58s-1.871 2.246-4.865 3.22a687.842 687.842 0 0 0-21.93 8.681m51.494-21.48c1.572.673 5.988 1.347.674 5.463-6.212 2.77-21.256 8.682-21.256 8.682l-1.423 2.545-23.95 10.254m47.303-20.807s2.245 2.769-2.77 5.987c-5.463 2.994-17.364 7.485-17.364 7.485m17.364-7.035s2.545 1.571-.673 3.892c-3.668 1.796-18.038 9.355-18.038 9.355l-9.356 6.213" stroke-width="1.9"/><path d="M708.118 153.172c0 .3 3.892 3.443 2.545 7.11 3.443 2.545 2.769 5.24 2.769 5.24s4.79 2.769 4.116 6.736c4.79 1.122 4.491 3.817 4.491 3.817l-1.497 2.545s4.716-.225.6 5.987c2.544 1.348 1.421 2.92 1.421 2.92m-1.422-2.77c-.674 0-16.69 5.988-20.807 9.655" stroke-width="1.9"/><path d="M682.52 177.721s4.79-.224 4.117 5.015c5.538-1.871 4.34 3.443 4.34 3.443s6.438-2.545 5.24 5.464c4.192-.898 3.443 3.218 3.443 3.218s3.742-.224 3.742 1.797c2.47-2.246 5.24-1.123 5.24-1.123s1.796-2.545 4.34-1.796m-26.12-11.227c0 .449-21.482 12.35-21.482 12.35m25.598-8.458l-16.242 10.03m21.706-5.016c0 .225-14.146 8.458-14.146 8.458m17.364-5.24s-10.03 8.234-12.35 7.785m15.793-5.24s-5.688 4.267-10.478 6.363m16.466-8.234s1.796 2.246-9.655 8.234" stroke-width="1.9"/></g></g></svg>