<svg width="800" height="480" xmlns="http://www.w3.org/2000/svg"><g fill="none" fill-rule="evenodd"><path fill="#006" d="M0 0h800v480H0z"/><g fill-rule="nonzero"><path d="M0 0v26.88L354.913 240h44.74v-26.88L44.74 0H0zm399.653 0v26.88L44.74 240H0v-26.88L354.913 0h44.74z" fill="#FFF"/><path d="M166.474 0v240h66.59V0h-66.59zM0 79.968v80.064h399.653V79.968H0z" fill="#FFF"/><path d="M0 96v48h399.653V96H0zM179.884 0v240h39.77V0h-39.885.115zM0 240l133.18-79.968h29.826L29.826 240H0zM0 0l133.18 79.968h-29.712L0 17.856V0zm236.647 79.968L369.827 0h29.826L266.474 79.968h-29.827zM399.653 240l-133.179-79.968h29.711l103.468 62.112V240z" fill="#C00"/></g><path fill="#FFF" d="M266.6 379.3l-43.7 3.8 6 43.4-30.1-31.7-30.1 31.7 6-43.4-43.7-3.8 37.7-22.3-24.3-36.5 41 15.5 13.4-41.7 13.5 41.7 41-15.5L229 357m419.6-90.2l-10.3 6.5 2.9-11.9-9.3-7.8 12.1-1 4.6-11.2 4.7 11.3 12.1.9-9.3 7.8 2.9 11.9-10.4-6.5zm38.7-83.2l-10.7-15.8 17.8 6.7 5.8-18.1 5.9 18.1 17.8-6.7-10.5 15.8 16.3 9.7-19 1.7 2.6 18.8-13-13.8-13.2 13.8 2.6-18.8-19-1.7 16.6-9.7zm-199.9 28.2L476.9 196l17.8 6.7 5.8-18.1 5.9 18.1 17.8-6.7-10.6 15.8 16.4 9.7-19 1.7 2.7 18.9-13.2-13.9-13 13.9 2.5-18.9-19-1.6 16.4-9.8zM593.1 97.2l-10.5-15.8 17.8 6.7 5.8-18.1 5.8 18.1 17.8-6.7-10.5 15.8 16.4 9.8-19 1.6 2.6 18.9-13-13.8-13.2 13.7 2.6-18.8-19-1.6 16.4-9.8zm.1 282.1l-10.6-15.8 17.8 6.7 5.8-18.1 5.8 18.1 17.8-6.7-10.5 15.8 16.4 9.7-19 1.7 2.6 18.9-13-13.9-13.2 13.9 2.6-18.9-19-1.6 16.5-9.8z"/></g></svg>