<svg width="800" height="480" xmlns="http://www.w3.org/2000/svg" xmlns:xlink="http://www.w3.org/1999/xlink"><defs><path id="a" d="M.624.623h799.004V479.63H.624z"/><path id="c" d="M.624.623h799.004V479.63H.624z"/></defs><g fill="none" fill-rule="evenodd"><path d="M.624.623h799.004V479.63H.624z" fill="#009"/><mask id="b" fill="#fff"><use xlink:href="#a"/></mask><path fill="#FC0" mask="url(#b)" d="M225.718.998l478.466 479.287V1.279z"/><mask id="d" fill="#fff"><use xlink:href="#c"/></mask><path d="M585.552 450.721l-26.125-18.992-26.778 18.899 10.112-31.06-26.405-19.18h32.771l10.113-31.06 10.019 31.154h32.772l-26.217 19.366 9.737 30.874v-.001zm76.123 9.73l-32.77-.094-10.02-31.154-10.113 31.06h-32.771l26.404 19.18-10.113 31.06 26.78-18.899 26.218 18.993-9.833-30.874 26.218-19.272zM515.982 360.16l26.217-19.366-32.771-.093-10.02-31.06-10.112 31.06-32.771-.094 26.404 19.18-10.113 31.152 26.78-18.991 26.217 19.086-9.832-30.875.001.001zm-60.206-60.343l26.216-19.273-32.77-.094-10.02-31.155-10.206 31.062h-32.678l26.405 19.179-10.112 31.06 26.778-18.899 26.124 18.993-9.737-30.874zm-59.645-59.502l26.217-19.366h-32.771l-9.925-31.248-10.113 31.06h-32.771l26.404 19.086L353.059 271l26.78-18.993 26.218 19.086-9.833-30.875-.093.095zm-60.3-60.156l26.218-19.273-32.771-.094-10.02-31.154-10.206 31.06h-32.678l26.499 19.18-10.113 31.06 26.78-18.898 26.122 18.992-9.737-30.874h-.094v.001zm-59.55-59.783l26.123-19.366h-32.771l-9.925-31.248-10.206 31.155H216.73l26.591 19.085-10.206 31.06 26.78-18.898 26.03 19.086-9.645-30.874zM216.354 60.5l26.123-19.366h-32.77l-9.926-31.248-10.206 31.155h-32.771l26.59 19.084-10.299 31.155 26.874-18.992L226 91.373 216.354 60.5v.001zM156.431.622l26.03-19.365h-32.772l-10.02-31.155-10.018 31.06h-32.77L123.375.252l-10.112 31.06 26.78-18.9 26.03 19.088L156.429.624l.002-.002z" fill="#FFF" fill-rule="nonzero" mask="url(#d)"/></g></svg>