<svg width="800" height="480" xmlns="http://www.w3.org/2000/svg"><g fill="none" fill-rule="evenodd"><path fill="#00267F" d="M0 0h800v480H0z"/><path fill="#FFC726" d="M266.664 0h266.79v480h-266.79z"/><path d="M399.498 136c-7 19-14 38.6-29.2 53.7 4.7-1.6 13-3 18.2-2.8v79.5l-22.4 3.3c-.8 0-1-1.3-1-3-2.2-24.7-8-45.5-14.8-67-.5-2.9-9-14-2.4-12 .8 0 9.5 3.6 8.2 1.9a85 85 0 0 0-46.4-24c-1.5-.3-2.4.5-1 2.2 22.4 34.6 41.3 75.5 41.1 124 8.8 0 30-5.2 38.7-5.2v56.1h11.2l2.5-156.7-2.7-50z" fill="#000"/><path d="M400.2 136.5c7 19 14 38.6 29.2 53.7-4.7-1.6-13-3-18.2-2.8v79.5l22.4 3.3c.8 0 1-1.3 1-3 2.2-24.7 8-45.5 14.8-67 .5-2.9 9-14 2.4-12-.8 0-9.5 3.6-8.2 1.9a85 85 0 0 1 46.4-24c1.5-.3 2.4.5 1 2.2-22.4 34.6-41.3 75.5-41.1 124-8.8 0-30-5.2-38.7-5.2v56.1H400l-2.5-156.7 2.7-50z" fill="#000"/></g></svg>