<svg width="800" height="480" xmlns="http://www.w3.org/2000/svg"><g fill="none" fill-rule="evenodd"><path d="M.025 0l399.814 240L.025 480V0zm799.627 0L399.839 240l399.813 240V0z" fill="#00CF00" fill-rule="nonzero"/><path d="M.025 0l399.814 240L799.652 0H.025zm0 480l399.814-240 399.813 240H.025z" fill="red" fill-rule="nonzero"/><path fill="#FFF" d="M799.652 0h-74.499L.025 435.281V480h74.499L799.652 44.719z"/><path d="M537.927 240c0 76.655-61.803 138.797-138.042 138.797-76.238 0-138.042-62.142-138.042-138.797 0-76.63 61.783-138.75 137.996-138.75 76.212 0 137.995 62.12 137.995 138.75h.093z" fill="#FFF"/><path fill="#FFF" d="M.025 0v44.719L725.153 480h74.499v-44.719L74.524 0z"/><path d="M427.065 187.688l-17.996.28-9.324 15.376-9.23-15.375-17.903-.375 8.672-15.844-8.578-15.75 17.902-.375 9.324-15.375 9.23 15.469 17.903.375-8.672 15.75 8.672 15.844zm-60.233 104.625l-17.903.28-9.324 15.376-9.23-15.375-17.902-.375 8.67-15.844-8.577-15.75 17.902-.375 9.324-15.375 9.23 15.469 17.903.375-8.672 15.75 8.579 15.844zm121.771 0l-17.902.28-9.324 15.376-9.324-15.375-17.809-.375 8.671-15.844-8.67-15.75 17.901-.375 9.324-15.375 9.324 15.469 17.902.375-8.764 15.75 8.671 15.844z" stroke="#00DE00" stroke-width="3.656" fill="red" fill-rule="nonzero"/></g></svg>