<svg width="800" height="480" xmlns="http://www.w3.org/2000/svg"><g fill="none" fill-rule="evenodd"><path fill="#CF142B" d="M0 0h800v480H0z"/><path fill="#00247D" d="M0 0h400v240H0z"/><path d="M0 0v26.85L355.25 240H400v-26.85L44.75 0H0zm400 0v26.85L44.75 240H0v-26.85L355.25 0H400z" fill="#FFF" fill-rule="nonzero"/><path d="M166.625 0v240h66.75V0h-66.75zM0 79.95v80.1h400v-80.1H0z" fill="#FFF" fill-rule="nonzero"/><path d="M0 96v48h400V96H0zM180 0v240h40V0h-40zM0 240l133.375-79.95h29.75L29.75 240H0zM0 0l133.375 79.95H103.5L0 18V0zm236.875 79.95L370 0h30L266.625 79.95h-29.75zM400 240l-133.375-79.95H296.5L400 222v18z" fill="#CF142B" fill-rule="nonzero"/><g transform="translate(500 114)"><path d="M198.356.411v185.616c0 49.59-99.04 65.754-99.04 65.754S0 235.616 0 185.89V.41h198.356z" fill="#FFF"/><path d="M198.356 186.027c0 49.59-99.04 65.754-99.04 65.754S0 235.616 0 185.89c0 0 0-4.11 2.055-6.302 0 0-1.096 8.22 5.205 14.52 0 0-4.931-8.904 0-17.534 0 0-1.918 11.233 5.069 17.535 0 0-3.836-9.042.41-19.178 0 0-2.054 16.438 5.48 19.863 0 0 2.055-9.59-.959-15.617 0 0 5.206 2.055 4.932 15.89 0 0 1.644-2.054 2.055-12.054 0 0 .274 11.507 4.11 14.11 0 0 1.369-1.234-.412-6.302-1.78-5.069.685-6.986 1.096-6.85 0 0-.822 5.617 3.973 10 0 0-2.055-9.04.822-10.273 0 0-.685 7.67 5.48 9.315 0 0 .41-2.192-.96-4.658 0 0-1.096-2.877-.274-5.205 0 0 1.918 6.849 4.52 8.082 0 0-1.506-4.11 0-8.082 0 0 .275 5.753 5.48 8.219 0 0-3.424-4.52-2.192-9.452l33.014 1.644 17.123.822 51.37-3.562 8.767-7.671s3.562 4.794-2.054 12.465c0 0 5.479-.958 7.26-9.589 0 0 2.192 4.795-.822 10.137 0 0 6.027-6.164 6.85-13.013 0 0 2.465 6.712-3.288 13.835 0 0 5.068-1.78 7.26-9.315 0 0 1.78 4.52-3.15 10.96 0 0 9.314-4.795 9.04-15.07 0 0 3.836 5.617-.548 13.425 0 0 4.658-4.246 5.206-10.685 0 0 2.603 2.877-.274 10.822 0 0 5.753-5.48 6.712-11.37 0 0 1.233 5.48-3.698 12.33 0 0 3.287-.823 6.575-7.535 0 0 .822 2.74-2.055 7.534 0 0 3.15-.548 5.206-6.712 0 0 .41 3.698-.548 6.85 0 0 2.465-1.508 3.013-8.357 0 0 1.37 2.192 1.37 5.069v.958l.137.137z" fill="#2F8F22"/><path d="M147.397 78.63s-3.424.685-7.945-.685c-4.384-1.37-6.164-.822-7.534 0 0 0 1.78-3.561-2.603-6.438 0 0 1.37 3.698-.548 5.342 0 0-.822.822-1.918-.41 0 0-1.507-1.644-3.15-2.74 0 0 3.698-1.37 3.013-5.206-.685-3.698-2.74-4.11-3.698-4.657a6.85 6.85 0 0 0 0 2.74s-4.11-2.192 1.37-5.343c5.479-3.15 4.52-5.069 3.561-6.712a15.068 15.068 0 0 0-4.11-4.11s1.097 1.78.823 3.288c-.137 1.37-2.74 2.328-2.192-.137.548-2.74 0-2.192 0-4.932 0 0 4.794 1.644 6.85-3.15 0 0 1.78-4.932-4.384-7.398 0 0 1.506 2.055.821 3.562 0 0-1.37 2.466-2.876.548-1.507-1.918-2.603-2.466-2.466-4.795 0 0 5.616.822 4.11-5.342 0 0-.96 4.11-8.22-1.37 0 0 4.795-4.932 2.877-8.767 0 0-.548-1.781-5.616-.822 0 0 4.383-2.74 2.602-5.206 0 0-.959-1.506-5.205.548 0 0 1.644-2.74-2.466-5.753 0 0-2.74 1.37-4.11 2.74 0 0-2.74-3.562-4.52-4.932 0 0-3.288 1.233-4.11 4.932 0 0-1.506-1.781-4.931-2.74 0 0-1.644 3.15.548 5.753 0 0-1.644 0-4.52-1.37 0 0-3.288-1.37-2.74 1.37.41 2.74.685 3.425 1.37 4.795 0 0-7.398-1.78-7.124 2.329a10.137 10.137 0 0 0 3.562 7.123s-4.11 5.48-7.671 1.37c0 0-1.37 1.37 1.37 4.794 0 0 2.74 2.877.41 4.795 0 0-2.876 2.329-4.246-2.192 0 0-4.795 4.658.822 8.22 0 0 3.561 2.054 7.26-1.097 0 0-1.233 9.041-4.658 7.26 0 0-2.054-1.37 1.644-3.287 0 0-5.48-.685-6.301 4.52 0 0-.685 4.11 4.11 5.754 0 0 3.561 1.37-.137 4.11 0 0-2.74 2.054-.96 5.068 0 0 2.055 3.288-3.287 3.699 0 0-2.74 0-3.836-.411 0 0-1.233 2.191-.41 4.657 0 0-2.74-2.055-8.63.137-6.028 2.192-5.617.685-6.028 1.37l-1.781 2.74s3.15 4.11 3.288 3.835l-.685 4.52 1.644.686 12.328-5.48 12.74-6.575 10.137.548 6.438 1.507 8.357.685L110 78.63h8.767l9.59 4.795L139.314 90l5.753 1.096 4.384-.274v-8.904l-2.055-3.288z" stroke="#000" stroke-width=".5" fill="#D40000" stroke-linejoin="round"/><path d="M47.26 89.041s4.795 2.466 6.85-.41c0 0 2.602-5.07-3.151-6.85 0 0 3.15-3.699-.274-7.123 0 0-1.78-1.918-4.795-.548 0 0-1.37-2.74-4.246-2.603 0 0-2.74 0-3.562 2.877 0 0-3.561-1.37-5.48.684 0 0-3.424 3.7 1.234 6.713l3.287.274 3.288-1.507 3.699.959s-.96 3.698 3.15 7.534z" stroke="#000" stroke-width=".5" fill="#D40000" stroke-linejoin="round"/><path d="M154.52 80.274a7.671 7.671 0 0 1 7.946 4.384c3.013 7.123-3.425 10.958-3.425 10.958.411 1.507.548 3.7.548 3.7 9.041 1.095 7.397 11.232 7.397 11.232l-3.013-2.466c-5.206-2.055-10.685 2.466-14.52 9.863-3.837 7.534-2.056 10.96-1.37 19.863.684 8.904 15.068 14.247 15.068 14.247l-11.233 28.767c-4.384 11.37-13.699 6.712-16.439 4.246-2.602-2.328-3.287-.958-4.52 0-1.37 1.096 6.027 6.85-7.534 12.33-13.425 5.479-15.754 9.588-18.083 10.958-2.191 1.37-11.506.548-12.328-.685-1.096-1.096-.548-1.096-4.11-3.287-3.425-2.055-9.315-4.11-15.753-7.124-6.439-3.15-6.302-7.123-6.165-7.945 0-.822 2.192-7.534-5.342-2.192-7.534 5.343-13.973-2.602-13.973-2.602-1.37-1.918-7.808-18.768-7.808-18.768a106.164 106.164 0 0 0-4.931-13.698s-.411.822 5.205-2.329c5.48-3.15 8.082-8.493 10-13.699 1.918-5.342 0-14.383-.685-16.164-.685-1.78-4.794-10.137-10-11.918-5.068-1.78-8.63 2.74-8.63 2.74s-1.507-10.274 7.534-11.37c0 0 0-2.192.548-3.699 0 0-6.438-3.835-3.425-10.958 0 0 2.055-4.932 7.809-4.384l-1.37 2.74s-1.37 14.52 19.863 4.794c21.233-9.863 20.548-11.644 32.877-5.48l8.767-.136s12.74-6.028 16.849-3.425c4.11 2.603 18.767 10.822 18.767 10.822s14.247 5.343 17.123-4.52l-1.643-4.795z" stroke="#000" stroke-width=".4" fill="#64B4D1"/><path d="M90.411 143.425s-.685-4.52-1.37-7.398c0 0-1.644-4.52 1.096-7.808l3.288-3.835s2.054-2.74 4.657-3.151c0 0 2.603 0 2.74-.548.274-.548 3.15-5.206 9.863 0 0 0 2.055-3.425 5.48-4.11 0 0 3.424-.959 5.205 1.644 0 0 3.972-3.014 7.397 1.918 0 0 4.658-2.74 8.22 2.603 0 0 4.52-2.329 7.397 2.465 2.876 4.932 2.328 6.85 2.328 6.85l2.192 7.808 7.534 9.315-17.534 6.575h-7.945l-15.754 4.11-27.945 2.192-7.671-9.178 10.959-9.59-.137.138z" stroke="#00247D" stroke-width=".5" fill="#FFF"/><path d="M66.85 189.863s-4.11.137-6.302 1.37c-2.055.959-3.699 2.055-6.164 3.699 0 0-1.233 1.506-6.028.547 0 0-8.219-1.917-8.219 4.521 0 0-10.137.822-6.027 9.589 0 0 2.74 6.85 8.493 2.055 0 0-3.699 5.205 3.424 7.26 0 0 5.069 1.37 6.576-3.972 0 0 .822-2.055-1.096-4.521 0 0 2.466-.548 4.11-3.15 0 0-5.206 6.575.547 9.04 0 0 7.26 1.781 7.672-5.753 0 0-.685-3.562 2.191-4.795 0 0 5.754-1.37 8.22-7.67 0 0-8.22-4.384-7.398-8.22zM50 123.836s-6.438-2.877-9.589 0c0 0-4.11-2.603-8.63 0 0 0-4.247 2.74-7.26 5.89 0 0-2.055 1.78-1.37 7.397 0 0 1.233 3.973.548 5.89 0 0-1.37-.273-4.247 3.151 0 0-3.562 4.11-6.85.411 0 0 1.097 5.206 6.987 4.384 0 0-2.877 2.192-.41 8.082 0 0 1.917 4.11-1.097 9.315 0 0 5.206-2.055 5.069-8.219 0 0-.548-4.11 1.096-6.986 0 0-1.644 2.602 1.917 8.219 0 0 2.74 4.11.548 8.219 0 0 5.069-1.78 4.658-7.945-.548-6.302-3.562-3.699-1.644-9.452 0 0 .548 3.013 2.055 4.52a8.22 8.22 0 0 1 2.74 8.083s3.013-3.836 2.328-7.809c-.2-1.765-.71-3.48-1.507-5.068l9.59-5.48 4.931-8.63.137-13.972z" stroke="#000" stroke-width=".5" fill="#D40000" fill-rule="nonzero" stroke-linejoin="round"/><path d="M35.342 148.493s-4.11-.274-4.657-3.425m-6.986-2.054s1.37 0 2.74 1.37c0 0 .821 1.37 2.191 1.095" stroke="#000" stroke-width=".5"/><path d="M41.233 136.712s-2.055 0-3.288-.959c0 0-1.096-.821-1.78.411 0 0-1.097 1.918.821 2.74 0 0 2.603 1.37-1.37 3.836 0 0 4.658-1.781 2.74-4.11 0 0-2.055-1.37-1.37-1.918 0 0 .274-.548 1.096 0 .822.685 2.466.411 3.15 0z" fill="#000"/><path stroke="#000" stroke-width=".4" fill="#784421" d="M103.973 147.945l2.465-.685-16.027-55.205-.548.137z"/><path d="M50.685 209.178s-3.699-2.192-6.85.274c0 0 .412-1.37 2.74-1.918 0 0 1.37-3.698 4.932-3.287 0 0-1.507 1.78-3.425 3.15 0 0 2.055.274 2.74 1.781h-.137z" fill="#000"/><path d="M37.534 217.808s-6.027-3.698-2.74-10c0 0 .96-1.78 2.74-1.37 0 0 3.699 1.096.822 6.302 0 0-1.507 3.287-.822 5.205v-.137zm12.055 6.028s-8.493-3.836-5.89-10.548c0 0 .822-2.192 2.74-2.055 0 0 3.287.274 2.602 4.657 0 0-.959 4.11.548 7.946z" stroke="#00247D" stroke-width=".4" fill="#64B4D1" fill-rule="nonzero"/><path d="M47.808 199.178s-2.603 1.918-3.561 3.15c0 0-1.096-1.37-2.466-2.054 0 0 1.644-.274 2.466.41 0 0 1.37-1.232 3.561-1.506z" fill="#000"/><path d="M55.342 222.192s6.85-1.644 5.48-8.63c0 0-.685-3.014-3.425-2.603 0 0-3.424.959-1.233 5.342 0 0 1.37 3.014-.822 5.89z" stroke="#00247D" stroke-width=".4" fill="#64B4D1"/><path d="M85.616 76.301l6.576 2.192s6.164 2.74 14.11 0l6.027-2.329-4.11 6.302v3.287l2.466 3.7s-1.507.684-6.164-2.193c0 0-5.069-3.972-11.096 0 0 0-3.425 2.192-6.165 2.192l3.973-4.384-1.507-3.972-4.11-4.932v.137z" stroke="#000" stroke-width=".5" fill="#F5CE00"/><path d="M57.945 213.973s.274-.411 0-.548l-.548.274s-.685 1.096 0 2.74c0 0 .548.958.274 2.054l.137.411s.274-.137.274-.41c0 0 .411-.96-.274-2.056 0 0-.685-1.643.137-2.465z" fill="#FFF"/><path d="M150.411 89.041s-4.795 2.466-6.85-.41c0 0-2.465-5.07 3.288-6.85 0 0-3.15-3.699.137-7.123 0 0 1.781-1.918 4.795-.548 0 0 1.37-2.74 4.246-2.603 0 0 2.74 0 3.562 2.877 0 0 3.699-1.37 5.616.684 0 0 3.288 3.7-1.37 6.713l-3.287.274-3.288-1.507-3.561.959s.959 3.698-3.288 7.534z" stroke="#000" stroke-width=".5" fill="#D40000" stroke-linejoin="round"/><path d="M112.329 85.205s0 .96-.96 1.096c0 0-1.095.411-1.78-.959v-.41c0-.548-.274-2.33 1.644-3.7 0 0 3.014-2.465 8.767.549 5.535 3.12 11.203 6 16.986 8.63 0 0 3.562 1.78 9.041 2.055 0 0 7.535.548 10.685-4.795 0 0 2.466-3.972 0-6.575 0 0-.959-1.096-2.602-.959-.548.137-1.37.41-2.055 1.37 0 0-1.233 1.644.137 2.877 0 0 1.78 1.095 2.466-1.233 0 .274.547 2.054-.411 3.424 0 0-4.658 6.85-17.124-.137l-16.438-9.315s-8.22-4.246-13.288 2.466c0 0-3.972 5.48 1.233 9.041 0 0 3.836 2.329 6.165-1.37 0 0 2.054-3.561-1.096-5.068 0 0-2.74-1.37-3.836 1.37-1.096 2.74 2.055 3.561 2.329 1.506 0 0 0-.41.274 0l-.137.137z" stroke="#000" stroke-width=".5" fill="#F5CE00"/><path d="M46.986 113.699v-10.411c0-.822 0-1.37 1.37-2.466 1.096-.959 2.466-2.603 4.247 1.918 0 0 3.698-3.973 4.931-4.52 0 0 2.192-1.782 3.699.821 0 0 1.918-3.014 3.425-3.699 0 0 3.698-2.328 3.835 4.795l2.877-2.74s2.329-1.78 4.794.822c0 0 4.11 4.11 4.658 5.206 0 0 .959 1.233 1.096 3.15 0 0 0 2.192 1.096 3.425 0 0 1.37 1.233 2.602 1.37 0 0 2.877.137 4.11 3.014 0 0 .411-.548 1.918 12.876v24.658l-16.576 19.726-26.575-7.671-10.548-4.384-2.466-7.671 10.274-6.713 5.48-15.068-1.644-10.548-2.603-6.027v.137z" stroke="#000" stroke-width=".4" fill="#E4CB5E"/><path d="M120.137 126.575l1.37-1.78 2.877-2.33s4.657 12.056 4.794 14.658v3.699s6.85 1.78 8.22 12.329l-5.754 10.548-8.904-5.069-2.603-1.78v-30.276z" stroke="#000" stroke-width=".4" fill="#784421"/><path d="M35.89 209.315s.274-.41 0-.685l-.548.411s-1.78 1.918-.274 5.069c0 0 0 .41.411.274 0 0 .274 0 0-.411 0 0-1.37-2.74.411-4.658z" fill="#FFF"/><path d="M62.74 207.26s.137-.959-.411-1.918c0 0-.411-.684-.274-1.643" stroke="#000" stroke-width=".5"/><path d="M68.493 100.137s0 2.603.822 4.52c.685 1.918 3.288 5.206 3.425 6.85" stroke="#000" stroke-width=".4"/><path d="M130.959 189.863s4.11.137 6.301 1.37c2.192.959 3.836 2.055 6.302 3.699 0 0 1.096 1.506 5.89.547 0 0 8.356-1.917 8.356 4.521 0 0 10 .822 5.89 9.589 0 0-2.74 6.85-8.493 2.055 0 0 3.7 5.205-3.424 7.26 0 0-5.069 1.37-6.576-3.972 0 0-.821-2.055 1.233-4.521 0 0-2.465-.548-4.11-3.15 0 0 5.206 6.575-.547 9.04 0 0-7.26 1.781-7.671-5.753 0 0 .548-3.562-2.192-4.795 0 0-5.754-1.37-8.356-7.67 0 0 8.219-4.384 7.397-8.22z" stroke="#000" stroke-width=".5" fill="#D40000" stroke-linejoin="round"/><path d="M65.205 111.644l6.85 54.931m-5.206-55.068l7.672 51.233m-6.302-51.507l8.904 50.822" stroke="#000" stroke-width=".4"/><path stroke="#000" stroke-width=".4" fill="#784421" d="M82.192 157.671l2.466-.822-16.028-55.068h-.548z"/><path d="M73.15 109.178L89.316 150m-17.26-40.137l15.616 42.466" stroke="#000" stroke-width=".4"/><path d="M46.575 219.863s-1.917-1.78-1.643-4.931c0 0 0-.685-.274-.822 0 0-.411-.137-.411.685 0 0-.548 3.287 1.78 5.205 0 0 .137.274.411.137 0 0 .274 0 0-.274h.137z" fill="#FFF"/><path d="M73.973 108.63l16.438 37.26m-20.959-34.93l10.274 50.137" stroke="#000" stroke-width=".4"/><path d="M152.74 147.945c-7.26-4.11-8.904-13.15-8.904-13.15a28.22 28.22 0 0 1 1.917-16.439c4.658-9.863 12.74-11.78 12.74-11.78s-7.945 5.479-10.137 12.876c0 0-1.644 6.301-.685 12.329.96 6.301.548 4.657 2.055 9.452l3.014 6.85v-.138z" stroke="#000" stroke-width=".5" fill="#F5CE00"/><path d="M121.37 124.658l-30.548 9.726-1.644 13.698c-7.26 10.548-22.055 12.329-22.055 12.329L78.63 172.74l21.918 4.52 11.644-8.904 10.548-9.589c-1.096-5.205-.548-12.877-.548-12.877 0-1.37.548-4.383.548-4.383s-1.781-12.329-1.37-16.712v-.137z" stroke="#000" stroke-width=".2" fill="#784421"/><path d="M89.589 144.658s20.137-6.302 32.192-11.37m-41.918 22.876s25.205-4.52 42.877-14.657l6.438-4.384" stroke="#000" stroke-width=".4"/><path d="M129.178 140.822l-6.85 5.068s-28.218 12.877-49.725 13.288m49.589-4.11s-21.644 11.096-33.973 11.233" stroke="#000" stroke-width=".4"/><path d="M147.945 123.836s6.439-2.877 9.59 0c0 0 4.109-2.603 8.766 0 0 0 4.11 2.74 7.124 5.89 0 0 2.054 1.78 1.37 7.397 0 0-1.096 3.973-.411 5.89 0 0 1.37-.273 4.11 3.151 0 0 3.698 4.11 6.848.411 0 0-.958 5.206-6.849 4.384 0 0 2.74 2.192.274 8.082 0 0-1.78 4.11 1.096 9.315 0 0-5.205-2.055-4.931-8.219 0 0 .41-4.11-1.096-6.986 0 0 1.506 2.602-2.055 8.219 0 0-2.74 4.11-.411 8.219 0 0-5.206-1.78-4.658-7.945.411-6.302 3.562-3.699 1.507-9.452 0 0-.41 3.013-1.918 4.52a8.22 8.22 0 0 0-2.74 8.083s-3.013-3.836-2.328-7.809c.685-3.972 1.37-5.068 1.37-5.068l-9.59-5.48-4.794-8.63-.274-13.972z" stroke="#000" stroke-width=".5" fill="#D40000" stroke-linejoin="round"/><path d="M38.493 158.767s.96-4.246 4.932-2.74c0 0 1.37-6.849 8.904-7.123 7.397-.274 7.808 7.26 7.808 7.808 0 0 2.329-3.287 5.89-2.876 0 0 6.302-.411 4.11 9.726l1.096 1.37s4.794-11.37 14.657-8.494c0 0 9.59 3.014 3.425 12.33 0 0 4.795 6.3 8.767 5.616 4.11-.548 7.671-1.781 11.644-8.905 4.11-7.123 13.425-8.219 15.753-7.808 2.33.411 4.247 2.055 4.658 3.699 0 0 4.931-16.438 22.74-13.973l7.123 3.699 2.74 1.233-4.11 11.37-9.726 22.191-7.534 2.192-7.808-4.383-2.74 1.37-.137 6.712-10.274 7.397-7.123 2.877-7.809 5.48-1.917 4.794s-4.247-1.918-9.178 0l-1.644-4.11-4.658-4.246-17.808-8.494-3.15-10.41-3.288-1.37-3.699 4.11-5.205.684-7.946-5.48-8.63-24.109.137-.137z" stroke="#00247D" stroke-width=".5" fill="#FFF"/><path d="M116.164 77.945s-6.849-.274-6.575 6.85" stroke="#000" stroke-width=".5"/><path d="M160.822 152.877c-11.78-3.699-15.069-16.439-15.069-16.439a29.315 29.315 0 0 1 1.507-17.808c5.48-12.74 14.52-12.74 14.52-12.74a4.658 4.658 0 0 1 5.206 3.836c.411 2.74-1.507 3.699-1.507 3.699-3.15 1.78-5.205-.548-5.205-.548-1.37-1.781-.274-3.288-.274-3.288.822-1.096 2.329-.548 2.329-.548 1.37.274 1.096 1.918 1.096 1.918s.41-1.918-1.37-2.055c0 0-3.699-.822-7.808 4.384 0 0-5.48 6.986-5.48 16.164 0 0-.685 16.986 16.986 21.37 0 0-1.917 2.74-5.342 12.74 0 0-3.836 12.876-7.397 19.863 0 0-4.932 9.863-15.89 5.89 0 0-6.44-2.877-6.44-7.534 0 0-.41-4.384 3.426-4.658 0 0 3.835-.274 3.835 3.014 0 0 0 3.425-4.11 2.74 0 0-1.37-.411-1.232-1.781 0 0 .274-1.37 2.055-.685 1.78.685 0 0 0-.137 0 0-.685-.274-1.37 0 0 0-.685.137-.685 1.233 0 0 0 .685.822 1.233l1.917.274s1.096 2.191 3.562 3.013c3.425.96 6.301 0 8.082-1.37a12.329 12.329 0 0 0 3.425-4.931 130.137 130.137 0 0 0 6.027-15.48s2.055-6.575 3.836-10l.548-1.37z" stroke="#000" stroke-width=".5" fill="#F5CE00"/><path d="M127.397 185.205s2.329-.273 2.329 1.644c0 0-.137 2.74-3.699 2.192 0 0-3.424-.685-2.191-4.52 0 0 .822-2.74 4.11-2.33 0 0 3.15 0 4.52 4.384 0 0 1.096 3.699-.822 6.85-2.055 3.424-7.123 5.753-9.59 6.849 0 0-10 3.836-13.013 6.164 0 0-4.52 3.288-2.466 6.439 0 0 .822 1.233 1.918 1.233 0 0 1.37 0 1.507-1.37 0 0 0 .822-.822 1.233 0 0-.959.41-1.918-.411 0 0-1.096-1.096-.274-2.74 0 0 1.233-1.918 4.11-.685 0 0 2.329 1.233 1.37 3.699 0 0-.96 2.465-3.836 2.328 0 0-2.192 0-3.698-1.37-2.192-2.465-2.33-6.849-.274-9.178 0 0 1.78-2.465 5.479-4.11l10.274-4.109c3.014-1.233 5.616-2.602 7.397-4.657 0 0 1.507-1.644 2.055-4.658 0 0 .411-2.192-.959-2.74l-1.37-.274-.137.137z" stroke="#000" stroke-width=".5" fill="#F5CE00"/><path d="M127.671 185.205s2.466-.547 3.973 2.466c0 0 .822 1.781.959 2.877m.822-10.411s-2.466.41-1.233 3.973c1.37 3.287 3.424 4.246 4.11 4.794" stroke="#000" stroke-width=".5"/><path d="M85.616 85.205s0 .96 1.096 1.096c0 0 .96.274 1.507-.959l.137-.41c0-.548.274-2.33-1.507-3.7 0 0-3.15-2.465-8.904.549 0 0-4.52 2.192-7.671 4.11 0 0-8.22 4.383-9.315 4.657 0 0-3.562 1.78-9.041 2.055 0 0-7.534.548-10.685-4.795 0 0-2.466-3.972 0-6.575 0 0 .959-1.096 2.603-.959.685.137 1.37.41 2.054 1.37 0 0 1.233 1.644-.137 2.877 0 0-1.78 1.095-2.465-1.233 0 .274-.411 1.917.548 3.424 0 0 4.52 6.85 16.986-.274L77.26 77.26s8.22-4.246 13.288 2.329c0 0 3.973 5.48-1.096 9.178 0 0-3.836 2.329-6.301-1.37 0 0-1.918-3.561 1.096-5.068 0 0 2.74-1.37 3.972 1.37 1.096 2.74-2.192 3.561-2.466 1.506 0 0 0-.41-.137 0zm-40.41 62.877c7.26-4.11 8.904-13.287 8.904-13.287 1.643-9.179-1.918-16.439-1.918-16.439-4.658-9.863-12.74-11.78-12.74-11.78s7.945 5.479 10.137 12.876c0 0 1.78 6.301.685 12.329-.959 6.301-.548 4.657-2.055 9.452l-3.014 6.85z" stroke="#000" stroke-width=".5" fill="#F5CE00" fill-rule="nonzero"/><path d="M81.918 77.945s6.85-.274 6.438 6.85" stroke="#000" stroke-width=".5"/><path d="M36.986 152.877c11.918-3.699 15.069-16.439 15.069-16.439a29.315 29.315 0 0 0-1.37-17.808c-5.48-12.74-14.52-12.74-14.52-12.74a4.658 4.658 0 0 0-5.206 3.836c-.411 2.74 1.507 3.699 1.507 3.699 3.15 1.78 5.205-.548 5.205-.548 1.37-1.781.274-3.288.274-3.288-.822-1.096-2.329-.548-2.329-.548-1.37.274-1.095 1.918-1.095 1.918s-.411-1.918 1.37-2.055c0 0 3.698-.822 7.808 4.384 0 0 5.48 6.986 5.48 16.164 0 0 .684 16.986-16.987 21.37 0 0 1.918 2.74 5.342 12.74 0 0 3.836 12.876 7.534 19.863 0 0 4.795 9.863 15.754 5.89 0 0 6.438-2.877 6.438-7.534 0 0 .411-4.384-3.424-4.658 0 0-3.836-.274-3.836 3.014 0 0 0 3.425 4.11 2.74 0 0 1.37-.411 1.232-1.781 0 0-.274-1.37-2.054-.685-1.781.685 0 0 0-.137 0 0 .685-.274 1.37 0 0 0 .684.137.684 1.233 0 0 0 .685-.821 1.233l-1.781.274s-1.096 2.191-3.699 3.013a8.63 8.63 0 0 1-8.082-1.37 12.329 12.329 0 0 1-3.425-4.931 130.41 130.41 0 0 1-6.027-15.48s-2.055-6.575-3.699-10l-.685-1.37h-.137z" stroke="#000" stroke-width=".5" fill="#F5CE00"/><path d="M70.548 185.205s-2.192-.273-2.192 1.644c0 0 0 2.74 3.562 2.192 0 0 3.424-.685 2.192-4.52 0 0-.822-2.74-4.11-2.33 0 0-3.15 0-4.52 4.384 0 0-1.096 3.699.821 6.85 2.055 3.424 7.124 5.753 9.59 6.849 0 0 10 3.836 13.013 6.164 0 0 4.52 3.288 2.466 6.439 0 0-.685 1.233-1.918 1.233 0 0-1.37 0-1.507-1.37 0 0 0 .822.822 1.233 0 0 .959.41 1.918-.411 0 0 1.096-1.096.274-2.74 0 0-1.233-1.918-3.973-.685 0 0-2.465 1.233-1.37 3.699 0 0 .822 2.465 3.7 2.328 0 0 2.19 0 3.698-1.37 2.191-2.465 2.328-6.849.41-9.178 0 0-1.917-2.465-5.479-4.11-2.192-.684-6.301-2.465-10.41-4.109-3.014-1.233-5.617-2.602-7.398-4.657 0 0-1.507-1.644-2.055-4.658 0 0-.41-2.192.96-2.74l1.369-.274h.137v.137z" stroke="#000" stroke-width=".5" fill="#F5CE00"/><path d="M70.274 185.205s-2.466-.547-3.973 2.466c0 0-.822 1.781-.959 2.877m-.821-10.411s2.465.41 1.232 3.973c-1.37 3.287-3.424 4.246-4.11 4.794M93.152 84.247s5.89-3.7 11.917.41" stroke="#000" stroke-width=".5"/><path d="M59.452 120.548s.822-3.425-3.014-9.178c0 0-2.465-5.343-3.698-8.63m8.493-3.699l2.74 7.534 3.287 7.809m-5.068 9.726s2.329 2.465 2.055 6.438m-9.315-9.041s2.465 1.233 2.191 7.808c0 0-.137 4.658 3.425 7.123m-6.027 1.644s7.67-.822 8.219 3.973c0 0 0 4.52 2.74 4.931 0 0 3.835.411 4.657 4.11m-13.15-7.808s1.37 2.054 2.739 3.013m7.123-7.945s1.918 3.014 2.33 4.658m6.163-40.274s1.781 2.465 3.562 3.561m3.562 10.96s3.835 1.78 3.287 11.506c0 0-.548 5.617 1.096 8.767" stroke="#000" stroke-width=".4"/><path d="M64.384 110.685l.41.959s6.85.274 10.548-4.384l-.41-.959s-6.028-.274-10.411 4.384h-.137z" stroke="#000" stroke-width=".4" fill="#784421"/><path d="M89.178 147.397s23.699-6.986 32.877-11.096" stroke="#000" stroke-width=".4"/><path stroke="#000" stroke-width=".2" fill="#784421" d="M86.712 103.699l-.274-.685 11.644-4.52.274.821z"/><path d="M87.671 103.288l7.808 38.219m-6.438-38.63l8.904 37.945m-7.397-38.63L100.274 140m-5.89-39.178l13.287 28.22m-11.507-28.768l14.11 27.945M97.397 99.59l15.343 27.945m-17.808 14.247l6.027-1.918m-10.548-1.78s17.534-5.206 30.959-10.549m-31.233 12.329s22.329-5.753 31.233-10.137m-24.384 28.356l1.096 3.699 3.288-1.096-1.096-3.562m5.753-1.507l1.096 3.562 3.151-1.096-1.096-3.561m-18.356-20.137l-.274-4.795 29.315-8.904 1.507 4.11m-18.356.958l1.507 4.384m8.63-7.397l1.917 4.11m.548-4.932l1.781 3.835m.548-4.52l1.781 4.11m0-4.658l3.288-1.78 1.37 3.56m-3.014-2.739l1.644 3.836" stroke="#000" stroke-width=".4"/><path d="M48.767 175.616s-5.753-5.89 0-11.506c0 0-6.301-3.014-5.342-7.946m15.616 23.973s-6.027.822-4.246-10.685c0 0-2.466 4.52-3.288 6.85a5.342 5.342 0 0 0 2.329 6.164c.959.685 6.301 2.055 7.945-1.37m-9.452-18.63s-2.466 2.192-.685 6.301m3.15-5.753s.274 3.972 2.33 6.164m-.549-7.671s0 4.657 3.288 7.534m-1.644-9.178s0 5.205 3.836 8.493m15.48-.822s1.917-4.383 6.027-4.11c0 0-1.918.96-1.918 2.877 0 0-.274 3.425 3.288 3.699 0 0 2.876.411 4.383-1.233" stroke="#00247D" stroke-width=".5"/><path d="M87.397 187.123s-10.274-4.794-9.178-11.644c0 0 .411-4.11 4.52-6.164m-2.191 4.384s-.959 2.876 1.096 4.931m1.233-6.986s-1.37 3.288.822 5.616m1.643-7.26s-1.506 2.74.274 5.205m-9.589 12.603s5.48 4.932 9.863 4.932m-11.643-3.288s5.205 4.11 8.493 4.795m-10.411-3.7s6.438 5.617 10.41 6.028m15.754 5.206s-6.301 3.424-1.37 7.123m-2.74-10.822l10.412-5.205M96.986 200s10.411-6.301 13.425-7.671m-8.082 8.219s8.904-6.027 13.698-8.63m-7.808 8.219s6.165-4.658 12.055-8.22m2.055-5.89s-3.014-4.383-12.877 0c0 0 3.699-3.287 10.822-5.89m9.863-18.767s.822 3.562 0 5.753" stroke="#00247D" stroke-width=".5"/><path d="M114.247 178.63s2.054-3.014 7.26-4.52c0 0 1.37 3.424 5.48 2.74 0 0 6.027-1.234 4.109-7.946 0 0-1.233-4.931-8.22-5.48m20.823-8.356s6.986 1.37 6.849 6.987c0 0 .685 8.767-8.493 10.41m7.534-13.835s1.918-4.246 6.301-6.027m-5.205-2.466s1.918 3.15 3.15 3.562m-4.109-1.096s1.78 2.329 2.329 2.74m-3.014-.548s.959 1.37 1.78 1.917m-38.355-35.48s1.37-2.19 4.931-1.369m13.973 18.22s2.192-9.042 9.726-5.754m-3.014-.685s.685-4.11-1.096-6.302m-4.11 5.89s.96 1.782.138 3.152" stroke="#00247D" stroke-width=".5"/><path d="M148.356 223.836s8.493-3.836 5.89-10.548c0 0-.821-2.192-2.74-2.055 0 0-3.287.137-2.739 4.52 0 0 1.096 4.384-.548 8.083h.137z" stroke="#00247D" stroke-width=".4" fill="#64B4D1"/><path d="M151.37 219.863s1.918-1.78 1.644-4.931c0 0-.137-.685.137-.822 0 0 .41-.137.41.685 0 0 .549 3.287-1.643 5.205 0 0-.137.274-.411.137 0 0-.274 0-.137-.274z" fill="#FFF"/><path d="M160.411 217.808s6.027-3.698 2.74-10c0 0-.96-1.78-2.74-1.37 0 0-3.699 1.096-.822 6.302 0 0 1.37 3.287.822 5.205v-.137z" stroke="#00247D" stroke-width=".4" fill="#64B4D1"/><path d="M161.918 209.315s-.274-.41 0-.685l.41.411s1.782 1.918.412 5.069c0 0-.137.41-.548.274v-.411s1.37-2.74-.274-4.658z" fill="#FFF"/><path d="M142.466 222.192s-6.713-1.644-5.48-8.63c0 0 .685-3.014 3.562-2.603 0 0 3.425.959 1.233 5.342 0 0-1.37 3.014.685 5.89z" stroke="#00247D" stroke-width=".4" fill="#64B4D1"/><path d="M139.863 213.973s-.137-.411 0-.548c0 0 .411 0 .548.274 0 0 .685 1.096.137 2.74 0 0-.548.958-.274 2.054 0 0 0 .274-.274.411l-.274-.41s-.274-.96.274-2.056c0 0 .685-1.643 0-2.465h-.137z" fill="#FFF"/><path d="M147.26 209.178s3.836-2.192 6.85.274c0 0-.274-1.37-2.74-1.918 0 0-1.233-3.698-4.795-3.287 0 0 1.37 1.78 3.425 3.15 0 0-2.055.274-2.74 1.781zm2.74-10s2.74 1.918 3.699 3.15c0 0 .959-1.37 2.328-2.054 0 0-1.506-.274-2.328.41 0 0-1.37-1.232-3.562-1.506H150z" fill="#000" fill-rule="nonzero"/><path d="M135.205 207.26s-.273-.959.411-1.918c0 0 .411-.684.274-1.643m26.85-55.206s3.972-.274 4.657-3.425m6.85-2.054s-1.37 0-2.603 1.37c0 0-.96 1.37-2.329 1.095" stroke="#000" stroke-width=".5"/><path d="M156.85 136.712s2.054 0 3.15-.959c0 0 1.233-.821 1.918.411 0 0 1.096 1.918-.96 2.74 0 0-2.465 1.37 1.508 3.836 0 0-4.795-1.781-2.74-4.11 0 0 2.055-1.37 1.233-1.918 0 0-.274-.548-1.096 0-.822.685-2.466.411-3.014 0z" fill="#000"/><path d="M159.589 86.575s.959-1.37.548-5.068c-.411-3.699 3.014-4.247 4.247-3.15 0 0 1.37 1.095 0 3.56a9.589 9.589 0 0 1-4.795 4.658z" stroke="#00247D" stroke-width=".4" fill="#64B4D1"/><path d="M160.822 83.699s1.37-1.37.685-4.247l.137-.274.41.137s.686 3.15-.684 4.795c0 0-.274.274-.548 0v-.411z" fill="#FFF"/><path d="M158.63 85.205s-.137-1.643-2.74-4.11c-2.74-2.739-.548-5.068 1.096-5.068 0 0 1.644 0 2.33 2.603a9.589 9.589 0 0 1-.686 6.575z" stroke="#00247D" stroke-width=".4" fill="#64B4D1"/><path d="M158.22 81.78s0-1.917-2.467-3.835v-.41h.411s2.603 2.054 2.603 4.383c0 0 0 .274-.274.274 0 0-.274 0-.274-.411z" fill="#FFF"/><path d="M154.932 83.973s-.685-1.233-3.973-2.466c-3.288-1.096-2.466-3.973-1.096-4.658 0 0 1.507-.548 3.014 1.37a8.767 8.767 0 0 1 2.055 5.754z" stroke="#00247D" stroke-width=".4" fill="#64B4D1"/><path d="M153.425 81.644s-.685-1.644-3.699-2.466c0 0-.274 0-.274-.274 0 0 0-.274.411-.137 0 0 3.288.685 4.247 2.74l-.137.41s-.274 0-.411-.273h-.137z" fill="#FFF"/><path d="M156.986 85.205s-1.507.548-5.068-1.232c-3.562-1.644-5.069 1.37-4.384 2.74 0 0 .548 1.78 3.288 1.37a9.589 9.589 0 0 0 6.164-2.74v-.138z" stroke="#00247D" stroke-width=".4" fill="#64B4D1"/><path d="M148.767 86.301s1.644 1.096 4.52 0h.412s0 .274-.274.411c0 0-3.014 1.37-5.069.137 0 0-.274-.137 0-.41h.411V86.3z" fill="#FFF"/><path d="M151.918 74.11s1.644.822 1.37 2.876m6.301-2.602s.685 2.191 0 3.424" stroke="#000" stroke-width=".5"/><path d="M38.082 86.575s-.959-1.37-.548-5.068c.411-3.836-2.876-4.247-4.11-3.15 0 0-1.37 1.095-.136 3.56a9.589 9.589 0 0 0 4.794 4.658z" stroke="#00247D" stroke-width=".4" fill="#64B4D1"/><path d="M36.85 83.699s-1.234-1.37-.686-4.247v-.274l-.548.137s-.548 3.15.822 4.795c0 0 .274.274.411 0v-.411z" fill="#FFF"/><path d="M39.178 85.205s0-1.643 2.74-4.11c2.74-2.739.548-5.068-1.096-5.068 0 0-1.78 0-2.329 2.603a9.589 9.589 0 0 0 .685 6.575z" stroke="#00247D" stroke-width=".4" fill="#64B4D1"/><path d="M39.589 81.78s0-1.917 2.329-3.835c0 0 .274-.274 0-.41 0 0 0-.138-.274 0 0 0-2.74 2.054-2.74 4.383 0 0 0 .274.411.274 0 0 .274 0 .274-.411z" fill="#FFF"/><path d="M42.74 83.973s.685-1.233 4.11-2.466c3.15-1.096 2.328-3.973.958-4.658 0 0-1.37-.548-3.013 1.37a8.767 8.767 0 0 0-2.055 5.754z" stroke="#00247D" stroke-width=".4" fill="#64B4D1"/><path d="M44.247 81.644s.685-1.644 3.698-2.466c0 0 .274 0 .274-.274 0 0 0-.274-.274-.137 0 0-3.287.685-4.246 2.74v.41s.41 0 .548-.273z" fill="#FFF"/><path d="M40.685 85.205s1.644.548 5.068-1.232c3.562-1.644 5.069 1.37 4.521 2.74 0 0-.685 1.78-3.425 1.37a9.589 9.589 0 0 1-6.164-2.74v-.138z" stroke="#00247D" stroke-width=".4" fill="#64B4D1"/><path d="M48.904 86.301s-1.507 1.096-4.52 0h-.274v.411s3.287 1.37 5.205.137c0 0 .274-.137 0-.41h-.41V86.3z" fill="#FFF"/><path d="M45.89 74.11s-1.78.822-1.37 2.876m-6.438-2.602s-.685 2.191 0 3.424" stroke="#000" stroke-width=".5"/><path d="M114.52 54.384s1.096 3.15.685 6.027c-.41 2.74.137 3.288 1.096 3.836.822.41 2.74-.411 2.877-2.466 0 0 2.192 4.383-2.055 7.26 0 0-3.15 1.918-5.753-.548-.959-.959-1.37-3.425-.822-5.753 0 0 .685-3.014-.548-6.302 0 0 1.78 1.918 1.37 5.617 0 0-.959 6.85 4.11 6.438 0 0 3.424 0 3.561-4.11 0 0-1.37 1.37-2.877.96a2.74 2.74 0 0 1-2.054-3.288c.137-1.781.685-4.932.41-7.671zm-5.479 10.958s-.41 5.48-5.205 6.713c0 0 .685-.96-.411-3.699 0 0-1.096-1.37-1.096-3.835 0 0-1.37 1.232.274 4.383 1.096 1.918.137 4.11-.137 4.247-.411.137 7.945-1.096 6.438-7.672l.137-.137zm-6.438-5.205s-1.233-1.37-1.37-4.384c0-3.013-.548-3.835-.959-4.11 0 0 .548 2.604.41 4.11 0 1.781.138 2.74.412 3.425 0 0-2.74.411-4.384-3.425-1.507-3.698-3.15-3.424-3.972-3.424 0 0 .959.137 2.74 3.561 1.917 3.288 2.465 4.11 7.123 4.11v.137zm-12.329-7.945s1.37 3.561 1.507 5.48c0 0-3.562-1.097-4.52-4.11 0 0-3.7 1.233-2.33 5.48 0 0-3.287-1.097-4.794-3.7 0 0 1.78 1.37 3.562 1.918 0 0-.274-3.561 4.11-4.794 0 0 .684 3.15 3.013 3.835l-.548-4.11zm5.753-6.302s1.37 1.781 3.836 1.781a4.11 4.11 0 0 0 3.699-1.78s-.137 3.013-3.699 3.15c0 0-3.836 0-3.836-3.15zm-15.48 21.233l2.33 2.192s1.37 1.37 2.328-.274c0 0 1.507-2.74 3.288-2.603 0 0-1.37.822-2.74 3.425 0 0-.274.822-1.37.959-.547 0-1.095.274-2.054-.822 0 0-.822-.959-1.781-2.74v-.137zm19.179-33.698c-3.699 0-.548 2.74-.548 2.74 0 4.657-3.562 6.164-6.027 4.794-2.603-1.37-.548-4.658-.548-4.658s-2.74 1.781-1.096 4.52c1.78 2.74 6.575 1.37 8.219-.958 1.78 2.466 6.575 3.699 8.22.959 1.917-2.74-.96-4.52-.96-4.52s2.055 3.287-.548 4.657c-2.465 1.37-6.164 0-6.027-4.658 0 0 3.15-2.876-.548-2.876h-.137zm2.329-5.069s1.37 2.329 1.096 5.617c0 0 1.096-3.288-1.096-5.48v-.137zM90.548 33.7s-.274-2.466-2.74-2.74c0 0 2.192 1.507 2.74 2.74zm18.493 0s.274-2.466 2.74-2.74c0 0-2.055 1.507-2.74 2.74zM86.85 37.397s1.918.548 3.014-.822l-3.014.822zM80.685 22.33s2.192-.137 4.383 3.15c0 0-2.191 1.096-2.74 1.781 0 0 0-1.096 1.097-1.918 0 0-.411-1.643-2.74-2.876v-.137zm36.712 0s-2.192-.137-4.383 3.15c0 0 2.191 1.096 2.74 1.781 0 0 0-1.096-1.096-1.918 0 0 .41-1.643 2.74-2.876v-.137zm-16.85 2.603s1.919.547 4.385-.822c0 0 3.013-1.644 4.931 0 0 0-1.644-.822-4.931.822 0 0-3.151 1.78-4.384 0z" fill="#000" fill-rule="nonzero"/><path d="M102.603 26.85s1.644-2.877 6.85-2.33c0 0-1.37 4.11-6.85 2.33z" fill="#FFF"/><ellipse fill="#784421" cx="106.027" cy="25.89" rx="1" ry="1.233"/><ellipse fill="#000" cx="106.027" cy="25.89" rx="1" ry="1"/><path d="M91.644 20.548s3.15.274 5.205 1.37c0 0 2.055 1.37 4.384-.411 0 0 2.603-1.507 4.246-3.562 0 0-3.972 2.74-5.479 3.15 0 0-1.37-1.095-1.78-2.602 0 0 .136-1.096 2.328-3.15 0 0-2.877.958-3.425 3.287a8.22 8.22 0 0 0 1.644 2.74s-.548.274-1.918-.685c0 0-3.15-.959-5.205 0v-.137zM99.863 40c-2.74 2.466 0 2.192 0 2.192s2.74.274 0-2.192zm-1.644-15.068s-2.055.547-4.52-.822c0 0-3.014-1.644-4.932 0 0 0 1.644-.822 4.932.822 0 0 3.287 1.78 4.52 0z" fill="#000" fill-rule="nonzero"/><path d="M96.164 26.85s-1.643-2.877-6.849-2.33c0 0 1.37 4.11 6.85 2.33z" fill="#FFF"/><ellipse fill="#784421" cx="92.603" cy="25.89" rx="1" ry="1.233"/><ellipse fill="#000" cx="92.603" cy="25.89" rx="1" ry="1"/><path d="M198.63.411v185.616c0 49.59-99.041 65.754-99.041 65.754S.411 235.616.411 186.027V.411h198.356-.137z" stroke="#000" stroke-width="1.3"/></g></g></svg>