<svg width="800" height="480" xmlns="http://www.w3.org/2000/svg"><g fill="none" fill-rule="evenodd"><path fill="#F7E017" d="M0 0h800v480H0z"/><path fill="#FFF" d="M0 33.3v213.4l800 100V233.3z"/><path fill="#000" d="M0 146.7v100l800 200v-100z"/><g fill="#CF1126"><path d="M383.802 379.802a78.134 78.134 0 0 1-32.933-11.467c-1.6-1.066-3.067-2-3.334-2-.266 0-.4 1.267-.4 2.734 0 4.266-1.733 6.4-6 7.533-4.133 1.067-10.4-1.067-15.466-5.333a45.534 45.534 0 0 0-16.467-9 26.6 26.6 0 0 0-18.667 2.4 5.8 5.8 0 0 1-1.866.866c-.734 0-.667-4.6.133-6 1-2 3.4-3.867 6.267-4.867 1.466-.533 2.666-1.2 2.666-1.533 0-.267-.533-1.333-1.133-2.4-1.933-3.4-1.133-6.667 2.267-9.267 3.466-2.666 9.333-3.066 14.466-1.133.868.37 1.758.682 2.667.933.667 0 .267-1-1.6-3.733-2.133-3.133-2.6-4.667-2.333-8.467a9.8 9.8 0 0 1 9-9c3.866-.266 6.266 1.067 12 6.467a96 96 0 0 0 57.333 27.733c5.534.667 16.534.334 23-.666a104 104 0 0 0 54.534-27.2c4.267-4 6.267-5.067 9.8-5.067 3 0 5.133.933 7.333 3.333 2 2.2 2.667 4.267 2.4 7.667-.133 2.133-.466 3.133-1.733 5.267-1.867 3-1.533 3.333 2.134 1.866 5.066-2 11.266-1.066 14.6 2.134 2.933 2.8 3.2 5.6.933 9.333-.867 1.4-1.533 2.667-1.533 2.933 0 .4.666.534 3.666 1.067 4 .667 6.334 3.6 6.334 8.133 0 1.334-.2 2.467-.4 2.467s-1.734-.6-3.334-1.267c-4.666-1.933-7.333-2.4-12.8-2.333-4.133 0-5.533.2-8.4 1.133a38.334 38.334 0 0 0-13 7.667c-4.267 3.8-6.933 5-11.067 4.934-3.866 0-6.466-1.134-7.866-3.334-.734-1.2-.867-1.866-.667-4.533.133-1.734.067-3.134 0-3.134-.2 0-1.667.934-3.333 2.067a53.667 53.667 0 0 1-12.334 6.6 121.067 121.067 0 0 1-54.867 6.467z"/><path d="M390.869 350.135a90.934 90.934 0 0 1-65.267-37.133c-16.267-22.134-21.333-51.4-16.4-78.134 2.667-12.2 8-24.4 17-33.067a76.4 76.4 0 0 0-5.8 49.534c6 33.2 34 61.267 67.534 66.133 13.333 3.8 27-.266 39.667-4.333 28-9.867 49.333-36.4 51.866-66.067 2.2-16-.2-32.734-7.466-47.334 4.133 2.2 9.333 10.8 12.4 16.534 10.667 20.667 11.133 45.4 4.867 67.467-8.534 28.067-30 52.667-58.334 61.6a110.467 110.467 0 0 1-40 4.8h-.067zm-129.534-36.867c-1.667-.266-3.533 1.4-2.867 3.134 1.2 1.733 3.334 2.666 5.2 3.466a36.134 36.134 0 0 0 15.467 2.4 33.068 33.068 0 0 0 11.334-2c2-.666 4.533-1.333 5.333-3.6.867-1.4-.667-2.866-2.067-2.6-2 .467-4 1.334-6 1.934a38.467 38.467 0 0 1-13.533 1.333 36 36 0 0 1-9.6-2.8c-1.067-.467-2.067-1.133-3.267-1.267z"/><path d="M263.202 306.335c-1.667-.267-3.134 1.733-2.467 3.333 1.333 1.867 3.533 2.867 5.6 3.734a28.267 28.267 0 0 0 11.333 1.933h1c3.292.014 6.554-.62 9.6-1.867 1.8-.733 4.067-1.466 4.867-3.466.6-1.134.134-2.734-1.333-2.867-1.2 0-2.333.8-3.533 1.133a29.533 29.533 0 0 1-13.734 2.134c-2.933-.334-5.667-1.4-8.333-2.667-1-.467-1.867-1.2-3-1.333v-.067z"/><path d="M265.535 299.735c-1.467-.2-2.467 1.467-2.2 2.733.2 1.2 1.2 2 2.067 2.667a20 20 0 0 0 12.4 3.533h1.066a18.667 18.667 0 0 0 8-1.866c1.667-.667 3.6-1.534 4.2-3.467.267-.867.4-2.133-.6-2.667-1.066-.533-2.066.334-3 .667a22.667 22.667 0 0 1-10.333 2.6 18 18 0 0 1-8.733-2.667c-1-.466-1.8-1.333-2.867-1.533z"/><path d="M241.002 201.801c-2.134 2.2-.467 6.2-.667 9 1.2 8.8 2.6 17.667 5.867 26 4 8 12.533 12.334 17.666 19.467 1.867 3.4 1.2 7.533 1.6 11.333.267 10.2.2 20.467 0 30.667 4.667 2.4 9.667 4.667 15 3.8 3.134-.733 9-1.2 9.667-4.333l-.666-53c-1.8-5.4-7.334-8.2-11.4-11.667a103.667 103.667 0 0 1-9.467-10.734c-1.734-3-8.6-4-6.134 1.067 1.467 4.467 5.134 7.733 6.067 12.4.2 2.6 3.333 7.334.667 8.8a16.333 16.333 0 0 0-7.134-6.666c-2.933-2.2-7.8-3.134-8.866-7a28.6 28.6 0 0 0-7.334-14.667c1-4.934 0-11.134-4.266-14.334l-.6-.133z"/><path d="M247.602 202.801c-2 .333-1.867 2.8-1 4.133.988 2.87 1.24 5.942.733 8.934a29.4 29.4 0 0 1 7.067 14.466c0 2 2.133 2.667 3.533 3.667 3.267 2.067 6.867 3.6 9.8 6.2.6.667 1.067 1.334.667 0-.467-1.733-.667-3.6-2-4.866-1.867-2-4.134-3.734-6.8-4.267-.2-2.8-1.534-5.334-2.734-7.734-1.333-2.333-2.733-4.8-5-6.266 0-4.067 0-8.334-1.733-12.134-.533-.933-1.333-2.066-2.533-2.133z"/><path d="M253.135 204.401c-1.333.4-1.067 2.133-.667 3.133a36 36 0 0 1 .667 8.8c2.6 2 4.133 4.934 5.6 7.734.933 1.866 1.733 3.866 2.067 5.933 2.066.667 3.866 2 5.466 3.334-.666-1.867-2-3.334-3-5.134-1-1.8-2-3.733-2.466-5.8-2-2.067-3.067-5.067-2.667-8 .133-3.133-.867-6.4-3-8.8-.533-.533-1.2-1.133-2-1.2z"/><path d="M259.468 205.334c-.8.134-1.2.8-1.6 1.4-.2.6.534 1.2.667 1.867.871 2.2 1.191 4.58.933 6.933-.066 1.667.534 3.334 1.334 4.667a2.6 2.6 0 0 1 2.333-1.867c.333 0 .933.134.667-.466-.267-3.2-.734-6.4-1.867-9.334a6.4 6.4 0 0 0-1.867-3c-.133-.133-.4-.266-.666-.2h.066zM538.67 313.268c1.666-.266 3.533 1.4 2.866 3.134-1.2 1.733-3.333 2.666-5.2 3.466a36.134 36.134 0 0 1-15.466 2.4 33.068 33.068 0 0 1-11.334-2c-2-.666-4.533-1.333-5.333-3.6-.867-1.4.667-2.866 2.067-2.6 2 .467 4 1.334 6 1.934a38.467 38.467 0 0 0 13.533 1.333 36 36 0 0 0 9.6-2.8c1.067-.467 2.067-1.133 3.267-1.267z"/><path d="M536.803 306.335c1.667-.267 3.133 1.733 2.467 3.333-1.334 1.867-3.534 2.867-5.6 3.734a28.267 28.267 0 0 1-11.334 1.933h-1a25.067 25.067 0 0 1-9.6-1.867c-1.8-.733-4.066-1.466-4.866-3.466-.6-1.134-.134-2.734 1.333-2.867 1.2 0 2.333.8 3.533 1.133a29.533 29.533 0 0 0 13.734 2.134c2.933-.334 5.666-1.4 8.333-2.667 1-.467 1.867-1.2 3-1.333v-.067z"/><path d="M534.47 299.735c1.466-.2 2.466 1.467 2.2 2.733-.2 1.2-1.2 2-2.067 2.667a20 20 0 0 1-12.4 3.533h-1.067a18.667 18.667 0 0 1-8-1.866c-1.666-.667-3.6-1.534-4.2-3.467-.266-.867-.4-2.133.6-2.667 1.067-.533 2.067.334 3 .667a22.667 22.667 0 0 0 10.334 2.6 18 18 0 0 0 8.733-2.667c1-.466 1.8-1.333 2.867-1.533z"/><path d="M559.003 201.801c2.134 2.2.467 6.2.667 9-1.2 8.8-2.6 17.667-5.867 26-4 8-12.533 12.334-17.667 19.467-1.866 3.4-1.2 7.533-1.6 11.333-.266 10.2-.2 20.467 0 30.667-4.666 2.4-9.666 4.667-15 3.8-3.133-.733-9-1.2-9.666-4.333l.666-53c1.8-5.4 7.334-8.2 11.4-11.667a103.52 103.52 0 0 0 9.467-10.734c1.733-3 8.6-4 6.133 1.067-1.466 4.467-5.133 7.733-6.066 12.4-.2 2.6-3.334 7.334-.667 8.8a16.333 16.333 0 0 1 7.133-6.666c2.934-2.2 7.8-3.134 8.867-7a28.6 28.6 0 0 1 7.334-14.667c-1-4.934 0-11.134 4.266-14.334l.6-.133z"/><path d="M552.403 202.801c2 .333 1.867 2.8 1 4.133a18.133 18.133 0 0 0-.733 8.934 29.4 29.4 0 0 0-7.067 14.466c0 2-2.133 2.667-3.533 3.667-3.267 2.067-6.867 3.6-9.8 6.2-.6.667-1.067 1.334-.667 0 .467-1.733.667-3.6 2-4.866 1.867-2 4.133-3.734 6.8-4.267.2-2.8 1.533-5.334 2.733-7.734 1.334-2.333 2.734-4.8 5-6.266 0-4.067 0-8.334 1.734-12.134.533-.933 1.333-2.066 2.533-2.133z"/><path d="M546.87 204.401c1.333.4 1.066 2.133.666 3.133a36 36 0 0 0-.666 8.8c-2.6 2-4.134 4.934-5.6 7.734-.934 1.866-1.734 3.866-2.067 5.933-2.067.667-3.867 2-5.467 3.334.667-1.867 2-3.334 3-5.134 1-1.8 2-3.733 2.467-5.8 2-2.067 3.067-5.067 2.667-8-.134-3.133.866-6.4 3-8.8.533-.533 1.2-1.133 2-1.2z"/><path d="M540.536 205.334c.8.134 1.2.8 1.6 1.4.2.6-.533 1.2-.666 1.867a14.533 14.533 0 0 0-.934 6.933c.067 1.667-.533 3.334-1.333 4.667a2.6 2.6 0 0 0-2.333-1.867c-.334 0-.934.134-.667-.466.267-3.2.733-6.4 1.867-9.334a6.4 6.4 0 0 1 1.866-3c.134-.133.4-.266.667-.2h-.067zm-143.4 112.001a23.733 23.733 0 0 1-19.934-16c.2-1.467 2 .8 2.867 1a12.667 12.667 0 0 0 5.333 1.733c2.334 1 3.8 3.334 6.067 4.6 1.067.8 4.8 2.4 4.067-.2-.867-1.333-1.467-3.066-.667-4.666 1.2-2.734 3.133-5.134 5.133-7.467 1.4-.467 2.4 2.4 3.4 3.333 1.4 2.2 3.134 4.867 2.267 7.534-.8 1-1.333 4 .867 3.066 2.666-1.2 4.866-3.2 7.066-5.066 2-1.334 4.467-1.4 6.467-2.667 1-.2 2.934-2.067 3.334-1.067a29.933 29.933 0 0 1-4.934 8.2 21.4 21.4 0 0 1-12.533 7.267 32.516 32.516 0 0 1-8.8.4z"/><path d="M407.67 306.802c.2-1.8-.2-3.6-1.134-5.334-1.4-2.8-3.334-5.333-5.334-7.933-1.866-1.067-2.866 2.466-4.066 3.466-1.934 2.867-4.334 5.8-4.467 9.334-1.067 1.667-3.067-1.333-3.933-2.333a12.667 12.667 0 0 1-2.667-8 33.867 33.867 0 0 1 2.4-13.734c1.333-3.733 3.4-7.333 3.2-11.333.133-3.134-.467-6.467-2.933-8.534-2.4-1.866 1.533-2.266 2.733-1.333 2.133.2 3.267 3.667 5.2 2.8.733-1.8.933-4 2.533-5.4 1.534-2.133 3.134.867 3.667 2.333 1.133 1.2 0 4.334 1.733 4.4 2.134-1.533 3.667-4 6.4-4.6 1.134-.666 3 0 1.534 1.2-2 1.934-3.734 4.267-4.134 7.134-.6 3.533.267 7.133 1.8 10.266 3 6.267 5.334 13.334 3.8 20.334-.666 3.067-2.8 5.733-5.333 7.533-.333.2-.867.2-1-.266z"/><path d="M404.47 259.735a14.133 14.133 0 0 0-3.734-4.667c-1.6 0-2.6 2-3.667 3.067-.733 1.4-1.667 3.733-3.533 1.933-3-1.733-3.467-5.533-3.467-8.667-.2-5.066 1.867-9.8 3.667-14.4 1.133-2.866.866-6.133.133-9.067-.867-3.333-3.6-5.733-5.667-8.4.134-1 2.8-.466 3.8-.266 2.267.6 3.6 2.533 5.267 4 1.2-.4.667-2.8 1.267-3.934 0-1.6 2.133-3.666 3-1.4 1.333 1.467 0 4.334 1.666 5.2 1.6-.6 2.4-2.333 3.867-3.133a5.333 5.333 0 0 1 5.2-.333c.6 1.466-1.733 2.666-2.4 4a13.6 13.6 0 0 0-2.533 12c.933 3.333 2.533 6.333 3.133 9.667.72 3.8.606 7.713-.333 11.466-.6 2.267-2.534 3.734-4.534 4.667-.533-.467-.8-1.133-1.133-1.733z"/><path d="M394.402 217.934c-2.266-1.666-3-3.2-3-6.333 0-1.533.334-2.4 1.334-3.867 1.6-2.133 1.333-2.8-.867-2.2-3.533 1-5.2.134-5.333-2.866 0-1.467.266-2.067 2.2-4.467 1.6-1.867 2.2-2.867 1.866-3.2-.333-.267-2.2 1.333-6 5.2a82.667 82.667 0 0 1-7.6 7.067c-6.533 4.4-12.8 5.066-15.666 1.666-1.467-1.733-1.4-2.666.266-3.733a18.267 18.267 0 0 0 2.934-2.467 57.334 57.334 0 0 1 10.733-7.733c2.4-1.2 2.933-2 1.4-2-2 0-8.333 4.133-13.2 8.533-1.4 1.334-3.467 2.8-4.533 3.334a16.933 16.933 0 0 1-9.267.666c-1.467-.466-4.2-3-4.2-3.933 0-.2.666-.733 1.333-1.2a20 20 0 0 0 3.067-2.133c3.867-3.334 11.2-6.867 17-8.134 1.867-.333 1.133-1.333-.933-1.2a37.334 37.334 0 0 0-16.667 7.8c-5.534 4.6-13.867 4.134-16.534-.866-.466-.867-.8-1.667-.666-1.8a61.867 61.867 0 0 0 13.6-5.2 34.334 34.334 0 0 1 12.067-4.334c1.866-.333 2-1.266.2-1.466-2.4-.267-6 .933-12.334 4-8.2 4.066-10.533 4.8-14.8 4.533-4-.267-6.2-1.267-9.333-4.267-2.134-2-5.067-7-4.534-7.6 3.461.728 7 1.02 10.534.867 5.533 0 7.066-.133 10-1a56.2 56.2 0 0 0 16-8.067 38.334 38.334 0 0 1 24.533-9.067c8.267 0 13.467 1.867 18.134 6.6 1.6 1.6 2.933 2.6 3.133 2.4.2-.2.4-3 .467-6.2 0 0 2.466-.266 3 .467 0 5.134 0 5.6.8 5.6.466 0 1-.533 1.333-1.333.667-1.667 3.333-4 6.133-5.467 6-3 16.467-3.133 24.867-.2a41.6 41.6 0 0 1 11.134 6.334 60.134 60.134 0 0 0 16 8c4.533 1.333 12.666 1.666 16.733.666 1.19-.275 2.39-.498 3.6-.666 1.533 0-1.067 5.066-4.133 8.066-5.6 5.467-12.867 5.4-23.067-.066-6.4-3.467-14-5.334-14-3.467 0 .4.4.667 1 .667 2.2 0 6.467 1.466 12.467 4.333a35.8 35.8 0 0 0 12.2 4.333c1.533 0 1.6 1 .133 3.134-1.533 2.266-4.133 3.333-7.8 3.333-3.533 0-5.533-.733-8.667-3.333-5.333-4.4-18.4-9.334-17.933-6.667.133.467.733.8 2.133 1a37.334 37.334 0 0 1 15.4 7.333l3.934 2.867c.733.4.733.533.133 1.667-.933 1.866-3.467 3.266-6.133 3.533-3.467.4-6.534-.667-9.667-3.333-6.667-5.534-12.867-9.534-14.867-9.534-1.666 0-.933.934 2 2.467a53.134 53.134 0 0 1 10.534 7.333c1.333 1.267 2.866 2.467 3.333 2.734 1.267.666 1.2 1.6-.133 3.333-1.334 1.733-3.6 2.533-6.467 2.2-5.733-.6-10.267-3.333-17.334-10.667a47.134 47.134 0 0 0-5.466-5.2c-.934 0-.334 1.267 1.466 3.334 2.267 2.466 2.667 3.866 1.8 6-.733 1.733-2 2.2-4.533 1.466-2.667-.666-3.067 0-1.333 2.067 2.533 3.267 2.2 7.133-1 9.867a8 8 0 0 1-2.267 1.533c-.267 0-.933-.667-1.533-1.6-2-3.067-3.8-3.067-5.8 0a35.734 35.734 0 0 1-1.334 2 75.402 75.402 0 0 1-2-1.467z"/><path d="M404.47 155.334l-3.468 2.667-3.066-2.267v18.534h6.533z"/><path d="M383.269 136.2a58.867 58.867 0 0 1-6 21.534l7.4-6.867 5.133 6.134 5.6-6.267 5.667 5.333 5.467-5.533 5.666 6.667 4.934-5.467 8.4 6c-3.067-6.667-7.134-12.4-6.667-21.867-8.067 6-27.333 7.067-35.6.267v.067z"/><path d="M398.002 131.734c-3 0-6.133.067-8.933.667a13.4 13.4 0 0 0-5.2 2c.2 5.733 27.333 8.066 34.6.133a13.333 13.333 0 0 0-5.467-2.2c-2.666-.533-5.733-.533-8.6-.667v4.734h-6.4v-4.667z"/><path d="M403.27 102.667h-4.2v32.934h4.266z"/><path d="M403.27 103.467l-1.6 15.8 16.2 7.934-8.2-11 11.2-3.667-17.6-9.067zm-1.8-4.067c-2.468 0-4.268.934-4.268 2 0 1.067 1.8 2 4.267 2 2.467 0 4.267-.933 4.267-2 0-1.066-1.8-2-4.267-2z" fill-rule="nonzero"/></g><g fill="#F7E017" fill-rule="nonzero"><path d="M394 375.9c2.7-.9 4.2-2.5 5.3-5.6.5-1.6.9-3.2.8-3.6-.2-1-1.4-1-2.6.1-.9.7-1 1.1-.8 2.6.7 3.7-.7 4.7-7.7 5.4-.7 0-2.8 0-4.5-.3-3.4-.4-4.6 0-3.4 1a7 7 0 0 0 2.1.9c1.9.5 8.8.2 10.8-.5zm14.7-.6c.4-.4 1.7-1 3-1.5 1.7-.5 2.6-1 3.3-2.2 2.1-3 1.7-5.7-1.3-9.3-1.7-2-2.4-1.9-3.7.3-1.2 1.8-1.1 2 .5 2.4.9.2 1.7.8 2.1 1.6 1.8 3.1 1.3 5-1.4 5-2.4 0-3 .4-3.7 2l-.6 1.9c0 .6 1 .5 1.8-.2zm-4.8-3.5c.4-1.3.6-3.5.5-8a33 33 0 0 0-.3-6.4c-.4-.4-2.3.8-2.6 1.7a3 3 0 0 0 .5 2.1c.6 1.2.7 2.4.5 7-.3 6 .1 7 1.4 3.6z"/><path d="M392.6 369l.7-5c.1-1.7.5-3.8.7-4.7.7-2.3 0-2.9-1.8-1.6l-1.3 1 .2 3.3c.3 3-.2 8.5-.9 10.7-.2.6.1.4.9-.5.6-.7 1.3-2.2 1.5-3.3v.1zm-10 1.6c2.4-2 2.1-5.6 2.7-8.4 0-1.9 1.2-4.1.4-5.8-2.3.4-3.7 2.6-2.5 4.7 0 2.5 0 5.2-1.3 7.4-1 1.5-4.4 1.1-4.2-1 .8-3-2.9-1.5-4.3-.7-1.1.8-3.5.9-2.6-1-.6-2.7-3.9-1-5.7-1-1.7 0-.1-3.5-2.6-3-4.5-.3-9.5.1-13.5-2.6-2.3-1.1-2-3.9-.7-5.7 1.4-2.4 1.8-5.5 4-7.4 2.3-2.1-2-1.2-3-.5-2.2 1.2-.2 4.3-2 6-1 1.8-2.4 4.2-4.8 3.9-3.5-.7-5.5-4-8-6-2.2-.5-1 3.4.2 4.2a21.9 21.9 0 0 0 7.4 3.6c2.6-.5 2.7 3 5 3.5 4 2 8.6 2.5 13.1 2.8 1.8.1.8 3.3 3.1 2.6 1.3.4 4.3-.5 4.4 1-2 2.4 1.9 2.3 3.3 2 1.9-.4 4.2-1 4.7 1.4 1.5 1.7 4.3 1.4 6.2.5l.7-.5z"/><path d="M342.8 350.4a23.9 23.9 0 0 0 2.4-4.2 16 16 0 0 1 2-3.6c1.2-1.2.5-2-1.4-1.6-1 .2-1.4.6-1.5 1.5a23 23 0 0 1-2.5 7c-1.7 2.5-1.7 2.6-1 2.6.3 0 1.2-.8 2-1.7zm-25-15.7c-1.9 0-2 1.2-.2 1.8 1 .3 1.7 1 2.3 2.3 1.7 3.5 2.8 4.2 7.5 4.6l3 .2.2 1.9c0 1 .3 1.8.5 1.8l2.6-1c2.2-1.2 4.3-3.8 4.3-5.5 0-1-1.8-2.2-3.4-2.2-.7 0-2 .6-3.1 1.4-3.4 2.4-7 2-9-1.2-1.5-2.6-3.2-4-4.7-4v-.1zm16.3 6.5c.9 0 1 .7.6 2a.9.9 0 0 1-1.7 0c-.4-1 .1-2 1-2h.1zm126.5-4c-1.3 0-1.6.2-2.4 1.4-1.3 1.9-1.4 6-.2 7.4.7.9.8.9 2.3.2 2.2-.9 2.6-.8 2.5.3 0 3-4.2 8.7-8.6 11.7a9.7 9.7 0 0 0-2.4 2c-.3.8 1.3.7 3.3-.4a21 21 0 0 0 7.9-8c1.1-2.3 1.3-3 1.5-7 0-3.8 0-5-.6-6.2-.8-1.4-1-1.5-2.8-1.5h-.5v.1zm.1 2.5c1 0 1 .2 1.2 1.6 0 1-.1 1.7-.7 2.3-.8.7-1 .7-1.6-.4-1-1.6-.4-3.5 1.1-3.5zm-20.2 28.5c3.9-2 6.2-4.1 7.6-7.2a20 20 0 0 0 1.3-3.1c0-.6-1.9-1.5-3-1.5s-1.4-.8-1-3c.5-2.1 0-4.8-1-4.8-.3 0-1 .5-1.3 1.1-.6 1-.7 1.4-.2 2.7.7 2 .1 3.6-1.7 4.9-.9.6-1.3 1.3-1.3 2l.1 1 2.1-1 2-1.2 1.1 1c.7.4 1.2 1.2 1.2 1.7 0 2.4-6.8 6.4-11.4 6.8-2.5.2-3 0-3.8-.8-.7-.7-.9-1.3-.7-2l.5-2.6c.4-2.1-.4-1.8-2 .6-1.2 2-1.6 4.1-.9 5.2.6 1 4.4 1.8 7.2 1.6 1.7 0 3.4-.5 5.2-1.4zm26-14.5c2.4-2.5 3.5-5.5 3.5-10v-3.5l2-1c2.7-1.2 5.2-3.7 5.2-5.1 0-1.4-.7-1.4-1.8.2-.9 1.1-2 1.8-6 3.7-1 .4-1.1.7-1.4 5-.2 5-1 6.8-3.7 10.2-1.7 2-1.8 2.4-.6 2.4.5 0 1.8-.9 2.8-2v.1zm-26.7-2.8c.2-.7-1.2-1.2-1.7-.6-.3.2-.4.6-.2.9.4.6 1.6.4 1.9-.3zm36.8-9.5c.3-.8-1.1-1.3-1.7-.7-.2.3-.3.7-.1 1 .4.6 1.6.4 1.8-.3zm-44.3-25.9c-1 .5-1.5 1.5-2.1 2.3-.5.3-.1.6.1 1 1.7 1.7 2.4 4.2 3.2 6.5.8 2.7 1.8 5.6 1 8.4-.3 1-1.2 2.1-2.4 1.8-2-.1-4-.7-6-.7-1.9.1-3.3 1.8-5.1 1.6-1.2 0-1.2-2.4-2.2-1.7-.6 1.3-.3 2.7-.4 4 .2.3.8.1 1.1.2h3.7c.2 1.2.2 2.7 1 3.7 1.3.4 2.8 0 4-.5 1.2-.6 1.4-2.1 1.8-3.3.4-1.3 2-1 3-1.5a5.7 5.7 0 0 0 4-5.7c-.2-3.9-1.6-7.4-2.8-11-.5-1.6-.9-3.3-1.5-4.9l-.4-.2zm-6 21.8c1.3 0 1.9 1.6 1.6 2.7-.5 1.5-2.4.6-2.7-.5-.7-1-.3-2.3 1-2.2h.1z"/><path d="M376 324.8c-.6 0-1.3.2-2 .7-3.5 2.5-4.5 5.4-2 6.6 1.7.8 1.3 1.8-1.5 3.2-4 2-7.5 1.7-14.2-1-1.6-.7-2-.4-1.7 1 .4 1.5 1.8 2.3 5.1 3 3.6 1 8 .7 10.8-.5a14 14 0 0 0 4.3-3.4l2.2-2.3 2.5.3c3.1.4 3.2.4 3.2 1.9 0 1.2 0 1.2 2.9 1.5l4.7.2c1.3 0 2 .3 2.4.9.6.7.9.8 5.6.4 4.4-.4 5.2-.4 7.2.3 1.4.4 3 .6 4.1.5 3.4-.4 8-3.1 8.7-5.1 0-.3 1.3-.7 2.7-1 3.4-.7 3.5-1.4.4-1.8a22.9 22.9 0 0 1-4.6-1.1 12.2 12.2 0 0 0-3.5-.9c-1.7 0-3.3 1-3.3 2.2 0 .7.2.8 2.3.6 1.8-.2 2.4-.1 3.4.7.7.5 1.1 1.1 1 1.3-.5.8-4.5 2.6-6.2 2.9a4.7 4.7 0 0 1-3-.5c-1.6-.8-3.8-.9-4.3-.2-.2.3-.6.1-1.3-.5l-1-1-2.4 1c-2.4 1-3.3 1-3.3-.2 0-.5-.7-.6-4.2-.3-3.9.2-4.3.1-5-.7-.7-.7-.7-1-.2-1.7.4-.8.4-1 0-1.5-.4-.4-1-.4-2.5 0-3.9 1-5 .5-5-2.5 0-1.9-1-3-2.3-3zm-1 2.8c.2 0 .4.1.7.4.3.3.5 1 .3 1.3-.3.9-2 .9-2.3 0-.2-.5 0-1 .5-1.3l.8-.4z"/><path d="M368 330.4c2.4-1.5 2.4-1.4 2.7-5.5.2-3 .2-3.2-.6-3.2-1.2 0-1.8 1.3-1.8 3.7 0 1.6-.2 2.3-1 3-2 2-6.8 1.1-7.5-1.3-.2-.8.1-1.6 1.1-3 2.1-3 1.7-3.8-1-1.5-1.7 1.6-2 1.6-1.7.3.3-1.3-.3-1.8-1.8-1.4-.7.2-1.2.6-1.3 1.6-.2.8-.6 1.3-1.3 1.5-1.2.3-3.2-.8-3.2-1.8 0-.7 3-4.4 6.9-8.4 1.4-1.5 2.6-3 2.6-3.1 0-.2-.8-.4-1.7-.4-1.4 0-1.8.2-1.8.8 0 .4-1.9 3-4.3 5.7-5 5.6-5.4 6.7-3 8.2a6 6 0 0 0 6.6-.2l1.6-1.1v2c0 2.5.5 3.5 2.5 4.5a8 8 0 0 0 8-.4zm104.4-34.6c-1.8 1.1-.4 3.4 0 5-.8 2-3.5 2.6-5.5 3-2.8.5-4.8 2.8-5.8 5.3-.6 1.6-2 4-3.5 1.6-1.3-1.3-3.7-2.4-5.2-.8-1.2 1.1-1.5 2.7-2 4.2-.7-1.1-1-2.8-2.4-3.2-2.4.3-1.5 3.3-.4 4.5 1 1.5 2 3.3 1 5-1 2-4 3.4-5.7 1.7-1.6-.9-.5-4-2.2-4.2-.8.6-.8 3.9-2.1 2.1-1-1.5-.4-3.6-1.6-4.9-1.3.2-2.4 2.5-2 3.7 1.8 2.4 2.6 5.4 3.3 8.3.4 1.2-.1 3.5 1 4 .7-1.9 0-4 .6-5.9 1.8-.2 3.7.6 5.5.2 2.7-.3 4.7-2.6 5.6-4.9.3-1.8 0-3.6-.1-5.4 2 .4 4.2.4 6.2 1 1 1.5-.3 3.7-.6 5.3-1 3.4-3.7 5.8-6.2 8-1.1.7-1.2 2.4.3 1.5a15 15 0 0 0 7.5-8c1.1-2.6.2-5.5 1-8.1 1-2 3.5-1.6 5.4-1.6 1.9 0 3.5-2.3 2.9-4.2-.6-2.2 1.7-3.2 3.2-4 2.1-1 3.7-3.1 3.5-5.5 0-1.3 0-3.6-1.7-3.7zm-7.3 12.5c2.2.6-.4 4.8-1.6 2.1-.4-1 .5-2.1 1.6-2.1zm-10.3 3c2.9-.1 1.8 4-.6 2.2-1.3-.7-.9-2.2.6-2.2zM350 327.6c0-.4-.2-.7-.6-.7-.7 0-1.2.7-.9 1.3.4.7 1.3.3 1.5-.6zm34-3.6c0-.7-.3-.9-.8-.8-1.1.2-1.3 1.7-.1 1.7.6 0 .9-.3.9-1v.1zm-42-20.4c-1.3-.3-2.2.9-2.7 2-1 1.7-2.2 3.4-4 4.3-1.3.4-2.7-.1-3.9-.8-1.3-.7-1-2.3-1.6-3.4-1-.8-2.7.3-2.6 1.5-.1 1.6 1.3 2.5 2.6 3.1 1 .7 2.6 1 3 2.3 0 1.1.4 2.4 1.7 2 1.5 0 2 1.8 1.3 2.9a6.3 6.3 0 0 0-.7 4c.7.7 1.4-1 2-1.4l1-1.4c2.7.1 5.3.5 8 .4 2 0 3.5-1.2 4.7-2.6 1.8-1.8 3.2-3.9 5.1-5.4 1.4-.4.7-3-.8-2.2-1.3.5-1.7 2-2.6 2.9a31 31 0 0 1-5 5.2c-1.5.6-3.1.3-4.6 0-.6-.5 1.2-1 1.5-1.6.8-.8 1.8-1.6 2.3-2.7-.5-1-1.9-1-2.9-1-2.4.2-4.3 2.3-6.8 2.5-1.9 0-.9-2 0-2.7 1.6-2 3.4-3.8 5.1-5.7.5-.6 2.3-1.2 1.2-2-.4-.2-.9-.2-1.3-.2zm1.2 10c1.3.7-.8 1.8-1.6 1.7-1.1.3-1.2-.8-.2-1 .6-.4 1.2-.7 1.8-.7zm-3.8 2.6c.7 0 2.2.7.8 1.1-1 .8-2-.8-.8-1.1z"/><path d="M369.4 317.8c0-1-1.6-.8-1.8.2-.2.6 0 .7.8.6.6 0 1-.4 1-.8zm74.7-6.6c.2-.9-1-1.5-1.7-.8-.7.6 0 1.9.8 1.7.4 0 .8-.5 1-.9h-.1zM328 302.1c1.1-1 1.2-1.1.7-3.3-.8-3.1-.7-3.5.5-3.8 1.5-.3 5.3 1.7 6 3.3.8 1.3.7 1.4-.4 2.4-1.2 1.1-1.2 2.4 0 2.4 1 0 3.7-2.6 3.7-3.5 0-1.3-3-4.4-5.4-5.5a10.7 10.7 0 0 0-4.6-1c-3.1 0-3.5.7-2.7 4.2 1 4.2-.3 4.8-3.7 1.6a10.4 10.4 0 0 1-3.5-8.6c0-4 1.6-6.1 5.1-6.6 2.4-.3 2.3-.9 0-1.2-3.6-.6-6.6 1.8-7.7 6-1.3 4.7 1.6 10.4 6.7 13.3 2.7 1.5 3.7 1.6 5.3.3zm139.2-5.2c.3-.2.5-.9.5-1.4 0-.5.5-1.6 1.1-2.4.6-.8 1-1.6 1-1.8 0-.8-1.3-.8-2.3 0-1.1.9-2 1-2 0l1.2-.9c1.6-.7 1.7-1.5.4-2.1-1.7-.8-3.5.6-3.6 3-.1 1.6 0 1.8 1.2 2.5 1.1.7 1.3 1 1.1 2-.3 1.6.4 2.2 1.4 1.1zm13-1.4c1-1 1.8-1.9 1.8-2.2 0-.3.9-1.2 1.9-2 2.8-2 3.5-4 2.2-7.3-.5-1.3-2-3-5.5-6a26 26 0 0 0-5.4-4.4c-.9 0-.7 3.4.2 3.7 1.7.6 2.8 1.3 5.4 3.7 3.2 2.8 4.6 5.5 3.8 7-.7 1.4-1.7 1-4.5-2a13.8 13.8 0 0 0-3.2-2.9c-.3 0-.5.6-.5 1.4 0 1 .5 2 2 3.5 2.3 2.6 2.5 4.1.7 5.5a5 5 0 0 1-1.4 1 33.2 33.2 0 0 0-9-10c-.3 0-.5.4-.5 1.4 0 1.3.2 1.7 1.2 2.2a38 38 0 0 1 7 7l1.8 2a9 9 0 0 0 2-1.7v.1zm6-16.8c-.5-1.2-8.4-9.4-9.3-9.4-.4 0-.5.5-.4 1.8 0 1.6.3 1.8 1.4 2.1a20 20 0 0 1 4.6 3.7 17 17 0 0 0 3.7 3v-1.2zm-47.8 92.6c.146.41-.035.851-.453 1.1a1.399 1.399 0 0 1-1.394 0c-.418-.249-.6-.69-.453-1.1-.146-.41.035-.851.453-1.1a1.399 1.399 0 0 1 1.394 0c.418.249.6.69.453 1.1zm4.2-1.4c0 .357-.229.687-.6.866a1.41 1.41 0 0 1-1.2 0c-.371-.179-.6-.509-.6-.866 0-.552.537-1 1.2-1 .663 0 1.2.448 1.2 1z"/></g></g></svg>