<svg width="800" height="480" xmlns="http://www.w3.org/2000/svg"><g fill="none" fill-rule="evenodd"><path fill="#FFD520" d="M0 0h800v480H0z"/><path fill="#FF4E12" d="M.125 480h798.877V0z"/><g fill="#FFF" stroke="#000" stroke-width=".4"><path d="M431.076 150c-4.992-1.3-8.237.7-7.987 5.9 0 5.1 3.494 8 8.487 6.1l-.5-12z"/><path d="M435.445 140.4c-4.119-2.6-7.988-1.5-9.985 3.4-1.872 5 .125 8.6 5.616 8l4.369-11.4z"/><path d="M442.309 131c-3.495-3-7.488-2.4-10.484 2.2-2.87 4.6-1.622 8.5 3.994 8.7l6.49-10.8v-.1zm-4.493 45.5c-6.116 1.8-6.74 8.5-2.87 12.6 3.744 4.1 10.857 4.9 14.726 0l-11.856-12.6z" fill-rule="nonzero"/><path d="M430.702 162.3c-5.741-1.5-10.983 4.7-11.856 10.3-1.124 7-13.729 9.4-6.74 20.1 1.498-6.8 7.114-10.6 11.607-10.8 4.493-.3 11.232-1 14.103-5.4l-7.114-14.2zm18.346 27.6c-6.74 1.3-7.738 8.5-2.87 13.6 4.118 4.4 17.098 3.4 16.724-1l-13.729-12.6h-.125zm19.096 43.4c.374-4.7-8.986-6.5-13.48-5.6-4.492 1-13.104-.1-14.976-4-1.747 3.1.624 6.5 7.114 8.2 4.992 1.2 4.867 4 3.37 5.4 3.744.5 14.602.5 17.972-4z" fill-rule="nonzero"/><path d="M462.902 203.7c-6.615-2.4-10.484 1.2-12.98 4.6-3.744 5-15.101-1.4-18.97 5.3 5.241-1.8 10.483 2 12.98 3.3 7.113 3.7 20.717 2.6 22.714-6.2l-3.744-7z"/><path d="M466.77 209.8c-6.614 4-9.235 8.8-8.985 12 .125 3.2 5.74 10.3 11.856 10.7 3.495-5.8 5.367-18-2.87-22.7h-.001zm-27.456 24.9c0-2 3.494-2.7 5.99-2 2.372.6 6.116 2.5 4.743 4.6l-10.733-2.6zM403.12 224c-.624-2.3 3.994-6.3 10.234-4.1s7.114 6.4 4.493 8.1l-14.727-4z" fill-rule="nonzero"/><path d="M418.346 228.4c-.499-1.3 4.119-3.9 11.732-2.4 7.738 1.6 9.61 5.6 9.36 8.7l-21.092-6.3zm-16.1-4.3c4.12-2.4 2.497-7-1.123-8.5-6.49-2.6-4.118-9.2-8.362-10.5-4.118-1.3-8.112-3.6-8.362-6-1.997 3.3-.748 6.2 2.122 8.3 2.87 2-2.246 10.4 1.498 12.6l14.227 4.1zm-86.115-1.8c-3.37-4.2-11.357-3.5-14.727-.5-3.37 3-2.87 7.3.25 9.3l14.477-8.8zm19.345-6.3c-1.248-5.7-9.86-6.3-14.478-4.9-4.742 1.4-7.862 7.1-4.867 11.2l19.345-6.3z" fill-rule="nonzero"/><path d="M348.206 215.2c3.12-4.7-2.87-11.8-9.61-12.8-5.616-1-12.23-.9-14.477-5.3-1.248 3.8 2.246 6.3 6.49 8.5 4.118 2.2-.75 7.8 5.99 11l11.732-1.4h-.125z"/><path d="M347.707 215.4c-1.498-3.4 1.373-8 7.114-7.6 5.865.3 9.11 3.6 6.614 7.9l-13.728-.3z"/><path d="M360.562 215.7c-.874-3.6 2.745-7.8 8.486-6.8 5.617 1 8.237 4.7 4.993 8.5l-13.48-1.8v.1h.001z"/><path d="M373.167 217.3c-.5-3.6 3.37-7.6 8.986-6.4 5.616 1.2 7.987 5 4.493 8.7l-13.354-2.3h-.125zm-96.849 59c-10.858 0-13.479 2-14.976 11-1.997 11 16.848 12.3 14.976-11z" fill-rule="nonzero"/><path d="M281.06 264.7c-16.473-5-25.46 16-41.934 12.2 5.866 7.5 20.094 0 25.46.8 8.987 1.3 28.456-1.4 16.475-13h-.001zm-10.732 28.7c-8.238-3-16.974 7-15.476 11.5 2.121 5.5 20.842 1 15.476-11.5zm-38.19 43.3c4.492 1 9.984 3 8.985 10-.998 7-17.472 21.1-32.2 22-14.726.7-19.968 15-32.823 11 11.981-1.8 11.981-12.6 21.217-16-6.74-2-10.234 10.3-18.97 10.3-8.737 0-12.856 11.1-23.464 10.3-10.608-.7-11.607 13.5-32.949 13.7-16.224.1-36.193 15.3-43.556 8.7 15.85-1.8 22.215-8.8 31.575-16.5 14.977-12.3 32.075-6.8 37.94-17.7-6.736 3.643-14.713 5.529-22.838 5.4-9.985-.2-20.718 12.6-31.826 7 6.365-.7 10.609-2.9 17.348-8.6 6.864-5.8 17.099-2 25.086-8 12.48-9.2 23.339-1.5 35.32-13-3.37-1.4-10.609-.5-17.348 2.4-6.74 2.8-15.351-2-23.089 1.4.874-7.6 18.97-3.3 30.203-8.5 12.73-6 23.214-4.2 33.198-3.5-13.978 0-19.345-10.7-38.69-7.6-8.362 1.4-15.101-9.3-23.463-3.9.25-4 8.986-7.2 17.972-3.3 8.986 3.9 12.605-3.4 30.577 5.7 7.489 3.7 20.094-2.4 28.081 1.6-.998-2.4-5.616-4-10.983-3.6 3.37-5.6 25.211-4.9 34.696.7h.001z" fill-rule="nonzero"/><path d="M246.365 328.3c-6.989-4.4-16.849.9-23.713-1.2 0 3.6 2.371 9 9.735 11.1 2.246-1.3 12.48-8.4 13.978-9.9z"/><path d="M257.473 315.8c-11.108-4.5-12.98 6.7-21.716 4.4.374 3.2 3.619 7.2 10.608 8.1l11.233-12.5h-.125z"/><path d="M264.087 305.6c-16.35-5.1-18.47 7.5-28.08 5 2.246 4.4 15.974 6.8 23.088 5.2l4.992-10.2zm22.465-55.2c-4.368-5-13.479-1-14.976 4.9-1.373 5.8 2.121 13.9 8.237 12l6.74-17v.1h-.001z" fill-rule="nonzero"/><path d="M297.66 235c-7.488-1.5-16.225-.8-15.226 5-2.996 1.1-3.744 8.7 4.118 10.4l11.108-15.5v.1z"/><path d="M302.652 231c-7.488-7-15.6-6.9-20.218-4-8.612 5.5-16.849 2.4-17.099 7.8 5.117-3.2 9.735.6 13.729-.5 4.243-1.2 7.363 5.3 18.97 2.6l4.618-6v.1zm-17.847 103.9c1.123 1.7 7.988 2.4 11.357-.4 4.493-3.8-.374-14.2-7.488-15-7.114-.7-7.738 11.8-3.869 15.4z" fill-rule="nonzero"/><path d="M276.817 335.1c9.985 3 14.353-3.7 8.986-8a89.53 89.53 0 0 1-8.986 8z"/><path d="M238.877 346.2c-1.997 4.7-11.982 5.4-23.214 19.8-11.232 14.5-21.966 8.4-24.711 18.3 13.479-8.7 24.087-3 32.2-11.6 12.105-13.1 22.215-11.2 26.957-20 6.74-12.7 36.194-12.4 37.94-32.3-9.983-1.5-41.56 19.9-49.172 25.8zM492.48 151.5c12.855 3.4 13.105 16.7 27.957 21.1 14.727 4.4 16.224 15 28.33 12.4-11.232-2.5-10.483-12.9-22.215-15.5-13.728-3-18.97-19.8-29.953-22.4l-4.119 4.4zm59.033 69.9c2.247 4.2 1.872 11.5-6.24 13.4 4.368 2.2 10.858.2 14.353-4.6-5.242 9.4-1.748 17.9 6.614 19.6-3.994-6.6 4.992-9.7 2.122-14 5.242 1.9 9.984 7.7 9.735 11.3 6.989-6.2-4.992-14.5-2.87-20.3l-23.714-5.4zm-83.494 66.2c-7.863-5.5-11.233 1.5-14.977-1-3.744-2.2-8.487-2.5-10.359-.3 6.74.2 3.495 4.4 16.6 5.4-13.105.7-10.734 12.5-19.47 11.9 9.235 7 14.103-6.3 21.716-4.1-2.247.5 3.494 4.7-.5 10.4 6.49-.1 9.111-7.3 9.985-11l-2.995-11.3zm-173.48 60.2c-2.745-2-11.232-2.9-14.352-1.3-3.245 1.5-2.121 2 1.747 2.2 3.87.2 8.737 5.2.5 5.5-3.87.1-2.496 7.6-10.609 8.1 3.245 3.2 12.73 1.1 16.1-2.4-.624 2.9 4.119 5.5 2.247 9 5.865.5 2.496-9.7 11.856-9.2-3.744.4-2.246 7.4 4.493 5.6-3.994 1.5-1.872 5.3 2.496 4.4-2.746.7-3.744 3.7.25 5.4 3.869-4.3-.5-19.5-14.602-27.3h-.126zm350.204-142.1c8.357.502 16.361-2.787 20.73-8.517 4.37-5.73 4.37-12.937 0-18.666-4.369-5.73-12.373-9.019-20.73-8.517-11.659.7-20.672 8.483-20.672 17.85s9.013 17.15 20.672 17.85z" fill-rule="nonzero"/><path d="M528.424 227.2c6.865-5.1 17.099-7.7 24.213-3.8 6.989 3.8 30.452 8.4 42.059 2 11.607-6.4 17.098-9.8 22.215-9 3.744 4.6 8.487 6.8 14.228 7.2 1.747 1.6 8.112 2.8 11.607 2.5 5.117 1 11.357-.3 16.35-4.7 7.737 1 14.976-3.7 17.721-10.7 8.238-.7 8.737-8 3.495-13-4.743-.7-1.123-13.8-18.596-11.2 7.488 3.6 1.747 10.8 7.863 14.2-4.119 0-9.61 1.4-10.858 6.4 1.622-3.4-.25-5.8-1.248-6.5 0-3-8.113-10.3-15.85-7.6 5.49 1 2.496 8 6.49 10.8-3.072.1-5.92 1.315-7.739 3.3-2.121-3-9.485-6-13.978-6.3 0-1-.25-3-.873-4.1-1.997-3.1-3.745-6.8-2.87-11.5-3.65 3.442-6.676 7.28-8.987 11.4-6.115-3.4-21.217 1.5-28.33 2.8-6.99 1.3-30.827-1.8-36.194-6.4-7.638-4.892-16.623-8.252-26.21-9.8-13.728-3.2-13.728-15.2-28.829-23.5-.374 15 27.956 62.4 34.321 67.5zM370.92 341.1c11.925 0 21.592-7.745 21.592-17.3s-9.667-17.3-21.592-17.3c-11.924 0-21.59 7.745-21.59 17.3s9.666 17.3 21.59 17.3z" fill-rule="nonzero"/><path d="M319.5 327.8c4.369 4.5 11.732 4.2 14.853 3.9 2.496 5.4 10.733 5.2 14.227 8.2 3.62 3 15.601 2.7 19.096 1-3.12-.2-7.364-1.8-11.233-4.5-4.992-3.2-2.746-9.8-6.49-12 2.383-2.43 3.379-5.552 2.746-8.6 2.995-1.4 5.242-3.7 5.491-4.9 4.478-.173 8.73-1.628 11.982-4.1 2.745 2 9.61-.6 13.354 2.8.749-8.5-9.36-13-16.225-10.1-2.62-1.2-9.86-.4-11.232 1.1-2.122-.8-8.487 1.8-11.233 3.5 3.12-1.4 3.62-5.7 2.371-7.2 2.746-1 5.742-3.9 6.116-6 3.744.5 9.61-1.6 12.106-1.1-4.119-4.4-10.983-6-18.097-5.5-7.363.3-10.483 4.4-11.482 8.8-4.243 2.1-5.74 9-4.118 11.5-2.496 0-4.868 1.9-5.741 3a40.511 40.511 0 0 0-11.732-2l5.242 22.2h-.001zm-3.619-29.2c-1.497-3.4.375-6.4 1.373-9 2.496-6.8.999-8.6-6.614-7.7.448 5.778 2.225 11.44 5.241 16.7z" fill-rule="nonzero"/><path d="M310.265 282.3c1.997 1.6 8.737 2.3 9.485-2.6.874-5.6-1.996-7.8-8.112-5.6-.5 1.3-.998 6.5-1.248 8.2h-.125z"/><path d="M311.763 273.9c2.496.8 8.112 2.5 11.232-2.3 2.496-4-.873-7-6.24-6.8-1.248 1.2-3.744 5.3-4.992 9.1z"/><path d="M316.505 264.4c.624 1.6 7.24 6.7 11.982 3 4.867-3.7 4.867-9.3-2.372-11.3-1.872.2-7.737 5.6-9.61 8.3z"/><path d="M326.115 256c1.373 3.3 5.991 8.8 14.353 6.3 8.362-2.6 4.743-11 .874-12.7-5.592 1.281-10.78 3.496-15.227 6.5v-.1z"/><path d="M341.342 249.6c-.624 2.9 0 10.6 11.482 10.5 11.357-.2 8.237-10.9 5.242-12.4-4.618 0-12.481.1-16.724 2v-.1z"/><path d="M358.565 248c-1.248 2.3-4.119 16.7 18.221 12.7 2.87-.5 10.36-13.8-18.221-12.6v-.1z"/><path d="M370.796 249.4c-2.247 1.8 3.494 16.3 18.72 13.9 14.977-2.5 2.372-16.3-18.72-14v.1z"/><path d="M383.65 251.6c-2.496 4 1.249 15.8 19.845 15.8 16.848 0-.874-15.6-19.844-15.8h-.001z"/><path d="M398.253 255c-1.248 2.3-2.621 14.8 19.345 15.9 15.85.8 11.98-17.3-19.345-15.9z"/><path d="M421.84 260.3c-2.62 3.9-5.49 13.5 18.597 14.3 15.35.5 5.866-14-18.471-14.3h-.126z"/><path d="M441.934 263.3c-3.494 3.8-.873 11.4 8.113 12.8 11.232 1.8 12.855-6.7 5.117-10.8-7.738-4-13.23-2-13.23-2z"/><path d="M453.042 265c-2.62 3.7-1.123 12.4 15.975 12.4 3.495 0 16.974-11-16.1-12.3l.125-.1zM320.874 433c13.785 0 24.96-8.954 24.96-20s-11.175-20-24.96-20c-13.786 0-24.961 8.954-24.961 20s11.175 20 24.96 20h.001z" fill-rule="nonzero"/><path d="M504.337 141.7c-2.694 2.406-4.962 5.098-6.74 8-8.361 20 13.979 35 26.958 56.7 10.856 19.85 8.216 42.777-6.989 60.7-5.491 5.8-3.869 7.5-10.983 13.4-2.745 2.3-5.74 5.2-4.742 13.4 4.493-1.3 10.858 2 12.106 5 3.245-1.4 7.738-.9 9.36.7 5.492-2 9.985-1 14.852 3 4.119-.4 8.736 0 12.855 3.7 2.247-3.6 6.74-5 9.984-4.1-.374-4.7 5.367-8 10.484-6.2-.815-2.689.258-5.52 2.801-7.391 2.544-1.872 6.156-2.488 9.43-1.609 5.866-3.6 17.473-3.9 23.214 1.5-10.36-2.3-9.985 6.5-18.721 5.7 2.246 5.1-3.495 8.1-9.236 9.8 3.745-1.4 7.738-3.1 8.986-1.3 3.245-2.3 9.61-1.4 11.233-.3 4.243-1 8.362-.2 10.234 3.9 5.866 2.8 9.735 10 5.491 15.4-1.248-5.6-6.115-5.4-7.987-7.7-4.493 1.3-8.986 1.3-10.36-1-2.495 2-11.232 3.9-14.976.8-1.497 4.6-6.49 8.5-12.355 8.5 1.622 3.6-2.87 9.7-6.365 12.8 5.49 2.3 3.744 7.5 2.496 10.6 8.486 1 1.248 7 15.85 10.8-7.114 1.8-20.967 0-22.84-7-7.113-.2-11.856-5.9-11.606-11.8-5.492-4.1-6.24-10 1.248-14.2-6.365 1.6-9.985-6.7-19.22-3.3-4.618 1.7-16.849-1.2-16.724-4.6-1.872 2.5-13.729 1.5-15.226-2.9-3.87 1.7-12.855-1.1-12.73-5.4-4.993 1.8-11.732-1.4-11.358-5.5-4.742-.5-5.241-3.9-4.992-6.7-4.118-1.6-2.995-4.8-1.248-8.6-2.995-2.6-1.747-6.2.5-9.6-3.12-2.6-2.497-5.6-1.623-9.3-15.351-1-34.696-4-79.002-14.9-66.895-16.5-84.867 22.2-70.14 46.4 17.098 28-1.872 34 3.869 54.8 6.24 1 9.36 5.2 8.986 9.6 3.744.1 6.24 2.8 4.992 8 3.436-.453 6.94.397 9.485 2.3 2.247-3.4 9.735-4.2 13.48-.3 8.361-.5 12.604 5 12.23 11.6 4.114 6.177 3.384 13.706-1.872 19.3.5-2.7 0-6.5-.125-8.9-.374-4.2-7.738-5.1-6.989-8.6-3.744.3-7.488-1.4-8.736-3.7-2.268 1.567-5.398 2.061-8.237 1.3 4.243 1.5 7.737 7.7 6.365 11.8 2.246 3.1 1.747 8.8-.874 11.2-1.248 5-6.24 6.8-12.48 4.6 3.619-1.8 4.867-5 4.742-7.7-2.106-1.687-3.39-3.921-3.62-6.3-6.24.8-14.976-3.5-16.474-5.2-6.641 0-13.01 2.12-17.694 5.893-4.685 3.773-7.3 8.885-7.267 14.207-.748-4.1-7.238-8.2-6.365-11.7-3.869-9.5 1.623-18.4 17.348-20.2-1.997-3.6 4.743-7.3 2.247-11.4-5.012-7.304-11.179-14.06-18.347-20.1 5.492-7.5 3.745-17.5.624-23.7-4.617-8.9-8.985-6.7-25.335 7.7-26.708 23.5-62.402 17-93.853 32.5-8.362 4-16.724 5.6-7.738-1.6 8.986-7.2 32.699-14.4 48.175-20.6 28.954-11.6 53.416-30.9 63.026-68.5 22.59-88.4 106.084-59.2 158.752-42.8 49.548 15.5 40.562-19.5 15.476-40.7-30.203-25.3-24.088-45.3-9.985-61.3 25.336-2.8 74.135 4.3 64.275 11.1z"/><path d="M593.947 358.8c9.832 0 18.917-4.203 23.833-11.025 4.915-6.822 4.915-15.228 0-22.05-4.916-6.822-14.001-11.025-23.833-11.025-15.164 0-27.457 9.85-27.457 22s12.293 22 27.457 22v.1z"/></g><g stroke="#000" stroke-width=".4"><path d="M488.986 142.7c-6.24 21.7-.998 31.5 7.987 41 18.596 19.7 33.448 64.6 12.231 94"/><g stroke-linecap="round"><path d="M521.06 252.3c2.497-.7 7.49-3.2 8.488-7.4m-6.49-2c.749-3.7 7.987-5.3 8.112-9.3m-7.987-5.2c-.5-3.9 7.238-7.4 6.115-11.2m-10.359-2.7c-.624-2.2 6.49-6.3 4.493-9.8m-9.735-3.8c-1.497-2.4 3.37-5.2 1.248-7.8m-8.986-3c-.499-1.6 2.497-5.3.874-7.5m-8.611-5.2c.624-.7 3.244-2.2 2.246-4.1m-7.488-5.3c.998-.4 4.118-1.2 3.744-3"/><path d="M331.981 410.9c-6.24-1.8-14.352.7-15.975 5.1m4.868 4c.748-4.4 9.11-6.3 11.606-4.3-5.241-2.3-7.862 6-3.12 6.2m43.183-103.8c-3.744 1.6-4.992 7.2 0 11.5m5.74-10.2c-2.62 1.8-2.495 7.2 1.499 8.5-3.37-2 0-5.3 2.496-5.4 2.371-.1 3.993 2.2.998 4.5m220.905 5.2c-8.986-2-16.225 6.4-7.988 13.9-.25-7.2 6.24-12 14.103-10.7m-3.744 5c-1.86 0-3.37 1.209-3.37 2.7 0 1.4 1.498 2.8 3.994 2.8 1.623 0 2.996-1.5 2.996-2.7m28.206-161c1.497 4.4 8.985 6.3 14.976 5.2m0-2.8c-4.618.1-8.487-3.4-8.237-6.3 0 2.2 6.24 3.2 8.237 1.8" stroke-linejoin="round"/><path d="M334.353 331.7c-1.248-2.6 3.744-5.2 3.993-7.6.125-2.5 5.741-4.4 11.607.2m-2.746-27.4l-3.12 1.2m14.228 12.8c-1.373 0-4.243 0-5.74-.9m0 5.8c-1 .5-3.495 1.2-4.993 1.5m-50.047 76.3c-.25 2.3 2.746 5.7 4.243 6.7m8.238-12.2c-1.787 2.258-2.372 4.995-1.623 7.6m25.585 0c-2.87-1.5-.998-5.4-1.248-8-.374-2.6 3.37-6.7 10.609-3.2M307.02 381c2.87-.4 5.866-.3 7.863.4m28.705-7.7c-1.004 1.19-1.607 2.568-1.747 4m15.35-4.3c-2.246 0-4.242 1.3-5.24 2.6m-25.96-68.5c2.496.7 9.235 4 9.485 7.4m17.847-24.2c-7.863-.1-10.983-6.5-4.992-6.5m19.095 15.2c-2.995 1-1.623 5.2 2.746 7.3m-21.592 33.1c-1.497-1.6.5-6 5.492-4.7m6.24 51.7c.374-4 6.49-6.2 8.986-1.8m-31.825 13c-.375-4.3 2.496-5.7 4.742-6 2.496-.2 5.866 1.4 7.489 4.2m-60.032 5c.25-2.6 2.996-5.3 5.866-4.9m288.3-109.4c-2.122 1.2-3.495 6.7 4.368 7.2m-16.6 1.9c0 .6 1 1.5 1.623 2m36.194 8.3c-1.997-1.3-7.489 4-2.496 7.7m-48.674 35.6c-1.124-3.7 3.12-4.7 7.238-3.9m-17.472-22.2c2.496-1.2 4.992-2.7 7.987-3.3m-9.235 17.5c0-3 1.997-5.7 3.744-6.4m10.483-29.1c-.188 3.239.857 6.447 2.996 9.2m35.195-9c-2.372.6-4.368 1.3-5.242 2.9m2.62 7.7c1.249-.8 2.497-1.7 2.996-2.3m57.785-110.2c0 3.6-5.616 5.6-9.36 3.3m21.59-3.1c2.497 1.5 11.108 0 9.112-4m-19.72 24.7c-2.334-.548-4.444-1.584-6.115-3m23.838-7.7c-2.87.5-4.868 0-6.24-.5m-39.439 13.4c2.773-.09 5.513-.63 8.112-1.6m-12.605-21.2c-2.122-.2-3.744.1-4.867.8m37.192 5.5c-.623 1.978-1.919 3.778-3.745 5.2"/><path d="M620.905 212.8c3.994-1.4 8.986 9.5 18.72 5.7m.75-11.4c-1.353 1.675-2.128 3.607-2.247 5.6" stroke-linejoin="round"/></g><path d="M448.05 190.4c1.248-.2 3.62-.5 4.118-1.8M282.683 310.3c4.868 2.2 8.237 5.9 6.24 11.4m214.79-143.2c1.498.8 6.864.8 9.984 0m3.744 2.6c0 1.8.625 8.6-3.744 10m1.623-.8c3.994 1 11.981.6 14.602-5.3m-5.616 5c2.121 2.6 2.745 7.6-3.495 10.3m4.992-6c4.743 1.2 15.476 1.4 14.353-6m-3.744 6c3.37 3.5 17.473 7.8 15.226.3m-28.081 10c5.367 1.1 13.104-1.9 9.984-9.6m15.351 3.9c.75 3 18.721 6 16.35-.7m-3.37 3.9c3.37 6.2 21.217 5.7 15.6-2.6m-2.87 6.5c3.495 3.4 19.345 1.4 12.98-7m-.125 6.8c9.86 6 21.217-2.5 8.736-8.7m5.741 6.8c8.737 5.5 19.345-4.5 11.732-7.3m-80.374 5c2.745.6 8.486.4 9.86-3.6m-2.247 2.7c-.25 5.8 11.981 8 15.101 1.3m-4.118 3.7c2.246 3.9 13.104 5.4 14.851-.1m-1.747 2.6c1.747 3.8 11.108 3.4 13.729-.6m-3.495 2.6c2.87 5 14.852 5 17.473-2.3m-1.997 3.2c4.618 2.3 14.602 1.4 13.729-5.8m-1.872 5.2c6.989 4.5 16.723.1 11.856-7.5m-.374 13.4c3.744-.5 5.616-6.4 1.747-8m-87.364 9c7.489-3.3 9.111-9 3.744-14.5m2.746 8.9c4.868 2.3 13.978-.2 15.6-5.8m-8.985 6.4c2.746 2.8 3.245 6.3-.375 9.5m2.497-5.9c8.611-4.2 19.22 3.6 11.232 8.4m-1.248-8.8c1.872-.4 5.242-3.2 5.491-6.4m-1.747 9.4c3.62-3 27.707 3 12.48 9.3m-1.247-17.4c4.742 1.4 7.113 6.7 0 8.5m6.24 4.4c4.992-4.3 21.217-1.6 15.35 3.8m-3.868-5.5c2.87-7.9 20.093-3 14.477.2m-17.972-8c.5 1.5.624 5.3-2.496 7.4m16.974-9c.705 1.795.337 3.751-.999 5.3m11.857-5.2c.998 1.4 2.496 4.1-.999 6.3M470.64 153.2c.124 7.3 3.37 12.2 15.725 7.6m-11.856 1.1c-6.24 6.6.748 13.7 12.854 6.6m-31.825-3.5c8.362 7.2 23.339 2 13.729-9m9.984 15.2c-1.497 7.1 5.741 8.5 11.607 5.3m-42.683-10.3c1.497 7.1 10.608 12.7 19.47 8.4m-8.612 1.4c0 10.2 17.472 11.3 21.591.8m-6.24 6.4c5.616 9.3 17.847 5.5 21.84-.1m-34.196-14.7c2.247 4.5 6.74 9.5 17.098 5.8m-49.298-8c1.498 3.7 9.86 8.2 19.47 3m-13.479 1.8c-5.242 6 4.992 11.7 17.473 2.7m-11.358 4.7c1.997 8.5 6.24 15.4 21.217 4.4m-7.488 4.4c5.491 5.4 13.853 8.7 21.716-.4"/><path d="M483.37 188.8c-.5 6.5.998 9.7 7.363 9.4 4.992-.2 9.61-3.3 12.356-6.7m-13.479 6.7c-.25 7.4 6.99 13.2 20.593 5.7m-14.977 3c-2.496 5.5 5.117 14.5 20.219 9.9m-52.294-24.6c-.873 7 7.239 11.8 20.468 2.7m-13.978 5.1c.5 5.8 8.737 12.8 20.718 2.7m-14.977 4.7c-.873 9.9 10.484 12.7 20.094 5.1M458.284 200c2.496.2 4.618-1.6 5.866-3m-.5 10.2c2.247.4 6.24-1.2 7.489-3.3m-1.747 15c2.496 2.3 11.232.7 12.355-2.3m-2.745 2.2c4.742 9 17.597 8.7 22.964-1.5m-2.496 3.6c2.496 5.3 8.611 8.6 18.596 6.8m-13.729-1.4c-5.616 7.3 1.747 16 14.353 7.5m-11.233 3.5c-.624 4.6 4.618 9.9 11.857 10.5m-35.695-24c-1.872 10.4 7.489 15.4 19.096 9.8m-32.7-4.8c2.996 1.9 8.487 2.1 13.73.6m6.24 6c-2.996 8.8 8.237 15.1 17.847 5.3m-33.573-10.5c.25 4.5 5.616 9.4 15.101 8m26.584 9c-6.49 3.4-7.738 9.6 1.248 13.6m-16.974-15.4c.25 5.2 3.37 8.2 10.609 8.7m-20.094-11.4c-9.735 7-.25 15.3 11.233 8.3m-4.493 2.2c-3.245 8.1 8.736 13 15.226 4.8m-35.195-22c-3.495 8 .998 13.2 9.235 12.7m-21.965-14.3c.499 4.8 5.616 6.5 11.482 5.4m-7.738-.4c-4.368 6.7 2.246 10.3 10.983 7.8m26.209 15c-1.248 4.2-.5 7.2 7.363 8.7m-6.74-2.7c-9.484 3.4-10.358 10.8-2.994 15.5m-4.743-23.7c-2.303 1.614-3.493 4.019-3.195 6.458.297 2.44 2.044 4.615 4.693 5.842m-43.682-35.8c-5.367 4.3-.25 16.2 11.856 9.7m19.595 5.3c-7.489 5-4.119 13.8 8.112 11.4m-20.343-15c-3.87 8.7-.25 11.8 8.487 11.9"/><path d="M448.424 236.1c-2.42 1.33-4.01 3.428-4.369 5.762-.358 2.333.551 4.678 2.497 6.438 2.87 2.6 8.362 1.4 9.985-1.9m-21.966-13.8c-7.364 7.6 0 16.6 10.484 14m29.08 8.6c-7.49 2.1-13.355 7.6-8.737 12.5 2.87 2.8 14.727 3.2 18.097-7.8m-22.965-11.8c-4.368 5-2.995 9.8 4.993 12.2m-5.492-2.8c-4.742 2-7.738 4.5-6.614 9m-3.87-16.9c-1.747 6 .375 9.8 4.993 11.6m-5.117-4.4c-7.239-.4-10.983 2-8.487 7.8m.624-6.4c-7.114-2-8.237-7-5.117-12m-.998 7.6c-7.738.2-11.233 3.3-11.233 7.5"/><path d="M424.961 229.7c-5.616 1.9-7.488 8-5.367 11.3 2.122 3.3 8.737 3.6 12.73 1.4m-22.964-17.5c-5.117 4.6.75 13.7 9.985 11.5m-23.214-15.1c-4.743 5.4.5 14.4 12.855 11.8m.624 25.1c-1.248-6.4 7.114-10.6 17.473-2.3m-4.993-13c-2.981 2.147-4.51 5.303-4.118 8.5m-34.945-33.2c-5.367 7.2 1.123 13.8 12.48 11.2m17.223 6.7c-7.488 6-4.992 12.1.624 15.6m-5.491-8.5c-11.358.1-11.982 10.7-2.746 14m-5.866-24.6c-4.742 2.6-6.24 9.7 1.872 12.5m-2.246 3.4c-4.868-1.8-10.609.4-10.11 4.9m2.871-4.8c-4.368-8.2-16.973-6.8-15.85 1.7m19.345-11.9c-2.621.4-8.113 1.7-10.234 5m.748-14.3c-2.039 1.686-2.887 4.078-2.26 6.371.628 2.293 2.648 4.182 5.38 5.029m-18.47-24.5c-.999 5.6 1.747 8.3 10.483 7.8m-7.488-.7c-3.245 6.7 1.248 9.7 9.984 9.3m-7.987-1c-5.117 4.9-1.623 10.1 3.37 12.3m-5.742-6.1c-9.235-1-10.608 7.6-7.488 11.5"/><path d="M365.554 215.5c-5.616 2-8.861 7.6-5.866 11 3.12 3.5 9.236 2.4 12.48.6m-10.483 1c-4.743 5.7-.5 10 4.493 11.6"/><path d="M343.588 214.8c-3.744 3.1-1.373 9.4 7.488 9.6 7.364 0 10.983-5.4 8.737-9.3m-9.985 9.3c-2.87 5.1-.998 10.7 9.985 9.8m4.493 8c-6.615-2.4-15.726 0-11.857 6.5m-.873-15.6c-2.746 3.1-1.872 7.5 1.248 10.2m-1.748-2c-4.493.7-8.86 2.6-6.24 8.3m-.624-4.6c-5.74-1.4-13.104 2-8.736 6.7m-.874-4.5c-4.992-.7-10.858 3.6-6.115 7.8m-1.872-3.5c-4.493 1-9.86 5-5.117 8.3m27.831-28.5c-6.49 2.3-7.114 8.1-4.118 12.4m-2.746-23c-9.61 3-9.485 13.2 1.248 16.4m-4.618-2.3c-5.74 2.7-6.864 7.9-2.995 11.2m-7.114-29.2c-3.744 1-3.495 10.5 6.74 10.3m-17.348-7.1c-7.738 4.1 1.622 14.5 14.102 7m-6.864 2.7c-1.123 4.2.375 8.8 8.861 9.4m-8.362-3.8c-6.115 1.8-7.238 11.9 3.745 12.7m-23.214-21.8c-7.863 5.8 6.49 10.8 11.732 2.4m-22.59 7.2c-3.87 3.8 9.61 13.6 15.6-2.8m1.373-.3c.375 4 3.245 6.2 9.111 6.5m0 3.7c-9.61 1.2-12.605 10.7-1.997 12.8m-15.6-14c-.375 3.5 4.368 6.5 9.61 5.9m4.867 7.8c-8.736 1.6-9.86 10.6-2.122 10m-3.993 8.4c-7.24-1.7-7.489-8.6-.999-11.2"/><path d="M306.646 267.8c-6.116 3-3.744 10-.5 11 3.246 1 5.866-.2 6.24-2.4m-.623 10c.749 3.3-14.852 2-6.864-8.4m0 8.9c-5.242 6.6 3.245 12 8.611 6.3m-7.987 1.6c-2.122 5.3 5.865 9.1 10.982 5M288.3 245.4c-2.871 4.7 11.606 6.5 12.48-3.3m-16.474 10.3c-2.87 9.3 18.97 7.4 13.354-4.6m.5 6.2c2.943 1.105 6.367 1.023 9.224-.22 2.856-1.243 4.806-3.5 5.253-6.08m-6.615 6.6c.8 2.653 2.92 4.93 5.866 6.3m-16.35-3.9c-.998 5 5.367 9.2 12.48 8.8m-11.357-3.9c-3.494 3.9-4.617 11.3 6.49 11.8M279.563 263c-1.747 4 8.737 8.1 14.727 1.5m-17.972 8.7c-.873 3 8.487 7 13.729-5.8m-4.119 6.5c2.247 3.2 9.86 5.8 14.478-.5m-7.489 3.9c-1.997 4.5 3.37 8.7 9.735 7.5m-21.84-8.5c-1.249 6.4 8.112 10.1 13.728 6.8m-19.844-4c-2.746 8.2 10.483 11.3 15.476 5.1m-3.37 2.5c.5 4.6 9.485 8.6 16.474 4.8m-32.574-1c-.624 2.1 10.11 4.2 11.732-3m-5.492 4.9c2.496 5.2 11.233 6.5 16.225 0m-2.87 2.6c1.247 5 8.985 7.7 15.974 4.3m2.871 2c-1.747 6.5 6.74 11.8 11.981 8.2m-25.71-9.4c-2.496 7.2 8.737 11.3 14.977 7.3m-28.456-11c-.624 6.8 5.991 10.8 13.48 7.8m-27.832-7c-2.247 4.3 9.735 7.9 15.35 4.2m-22.714 7.7c3.12 2.8 13.729 0 14.603-6.3m-2.87 4.6c3.868 3.6 13.104 5.6 16.723-2.2m-3.245 4c0 5.6 12.23 9.6 16.225-.6m14.602 2c-1.248 2.7 1.498 7 7.114 7.5m-17.348-9.2c-.749 3 4.867 7.4 10.858 5.7m1.123 1.3c-1.622 3.3-.25 8.1 5.367 8m-4.868-1.8c-4.243 2.8-2.496 7.9 3.62 8m-5.741-3.2c-5.991 3.2-3.87 10.3 3.993 9.9m-22.09-23.8c0 7 10.858 8 12.855 1.6m-4.119 4c-1.622 4.2 2.496 8.2 9.111 7m-7.863 42.8c1.498 1.7 7.489-1.2 5.866-4-1.622-2.8-7.987-1.3-7.239 1.7m5.742-2.9c.748-5.6-7.489-6.5-9.61-1.6m2.995-2.9c2.122-2.8-4.992-6.7-7.863-2.5m2.496-1.7c1.997-4.1-5.99-6-6.614-2.2m-1.873-5.4c.999-2 9.985-.8 6.24 3.5m6.865 5.1c3.495-2.6-2.496-7.8-6.24-6m29.953 13.9c-2.746.2-5.616 1.7-3.62 6.5 1.498 3.3 7.614 3.4 8.612 1.5"/><path d="M325.117 365.9c-2.746-1.5-8.736 1-5.99 5.6 1.996 3.5 7.238 2 7.987.2m-17.473.8c1.498 2 8.237 1 9.485-1m-4.742-5.4c1.497-.8 4.118.2 4.618 1.2m-4.993-33c-4.742 2.5-1.872 10 5.367 8m-6.99-1.9c-3.743 2.3-.249 9.6 6.616 6.8m-5.367 0c-2.621 2.1-.125 7.8 6.49 6.7m-7.488-3.8c-1.498-.5-5.242-.2-6.865 1.8m2.621-28c-3.494 2.8-1.747 8.3 4.743 8.8m-5.99-3c-4.993 2-4.993 10 4.991 10.3m-5.366-1.3c-2.87 1.8-1.498 8.8 5.74 7.9m-3.494-.3c-.998.9-1.248 3-.25 3.9m-2.87-6.5c-2.496 0-5.99 1.5-6.864 3.7m-4.618-7.5c.874-2 8.861-2 9.485 4.1m.749-7.2c-1.123.2-3.245 1-3.744 2.8m.25-21.7c-3.37 2.6-4.993 10.5 5.366 12m-12.356 4.4c0-2.1 7.24-4 9.735-.8m-14.352-10.7c.998 1.6 5.99 3.8 8.986 2m-34.946-14.6c-.098 1.874.85 3.685 2.587 4.942 1.737 1.256 4.083 1.828 6.4 1.558 5.366-.5 6.489-4.2 4.866-6.7m-3.993 6.9c-3.62 3.4.749 8.3 4.742 6.9m-.749-9.4c2.122-.6 8.986-1.4 11.108 1.2m-33.448-.2c-1.622 2 8.362 3.9 11.732.2m-3.37 1.9c-.374 2.6 1.248 7 9.486 5.1"/><path d="M274.321 326.6c1.248-2.2-4.742-5.8-9.485-1.8-4.618 4 .749 8.5 3.62 7M252.98 318c-2.496 3.4 6.864 9.5 12.23 3.8"/><path d="M246.74 323.8c-3.37 2.8.873 7.9 5.865 6.3 5.117-1.5 4.618-5.8 3.37-6.9"/><path d="M240.25 329c-2.746 2 0 6.6 3.744 6.6s6.115-2.3 5.366-5.4m6.24-1.6c-.499 3 4.993 5 8.612 2.2m0-5.4c.624-.6.25-1.7-.624-2.3m-29.204 9.8c-3.12 2 3.744 7.6 7.862 2.5m16.35-3.5c-1.997 1.5 1.248 5.5 4.493 4.3m-15.476-1.5c.5 2.7 7.239 4.8 11.482.6m-7.863 2.1c-.998 1.8 1.124 4.5 3.745 4.2m60.28 11.8c-2.496 3.9 5.492 8.5 11.233 3.7m-5.492 2.1c-1.248 2.1.25 5.1 2.497 6.2m-9.985-1.7c.5-2 3.994-3.8 7.114-2.9m-11.232-2.2c.374-1.8 3.245-3.5 5.491-3m183.713-77.4c-11.482.1-6.615 14.8 3.245 11.9m-6.99-1c-2.246 2.9 2.122 7.6 6.99 4.8m-1.248.6c-3.495 4.5 8.611 11.4 13.479 4.3m-3.87 2.7c0 4.3 15.601 7 13.355-1.5m-1.498 4.6c3.744 5 17.473 5.5 16.1-2m-3.12 5.2c2.87 3.4 16.474 5.4 15.975-1.5m-70.764-40.8c1.872 4 8.486 5.4 15.725 3m-19.969-.2c4.618 2.3-1.997 12.9-8.86 8.6m8.985-2c4.992 1.9 11.108.5 12.855-5.2m-3.12 4.4c.5 3 5.866 5.3 12.73 4.1m-25.086-1c6.49 4.4-2.87 13.4-7.114 9.3m9.485-6c3.12 1.8 10.983.8 11.732-4m-3.494 4c.624 3.1 3.744 4.3 7.987 4.4m-17.972-.1c3.245 3.6 11.233 4.6 14.852-.1m-3.62 2.7c-.249 3.4 4.494 6.3 9.486 5.5m-26.833 2.1c4.118 1.7 8.736-4.7 5.117-9m-.25 15.7c4.992.2 5.616-5.8.874-9.2m10.483 14.7c4.244-.8 2.87-8.1-7.238-8.7m19.968 14.1c3.994-.9.75-9-10.358-8.5m25.585 11.4c2.745-3.4-6.24-9-13.729-6m21.217 10.6c4.992 1.2 8.487-9.4-7.364-7.7m16.6 7.7c4.368-1 7.488-7.2-5.242-5.2m14.976 5.7c3.744 1.6 5.492-7.5-6.24-5m-58.658-23c4.867 2.1 12.48-.4 11.731-5.3m-1.872 4.2c1.623 2.3.999 6.8-2.121 8m2.496-2.6c3.245 1 7.613.1 10.234-4m-4.493 4c.873 1.8 1.248 5.4-.874 7.2m1.623-4.1c3.619 1.6 7.738-.5 9.485-3.5m-2.247 2.6c2.496 1.3 4.868 7.3.5 9.8m2.496-2.8c2.995 0 7.488 0 10.358-3m-2.121 1.7c2.745.6 5.99 4.2 4.867 7.4m.125-1.1c3.12-.3 8.362-2 9.86-5m-1.498 2c2.829 1.335 4.398 3.89 3.994 6.5m0-2.1c3.12-.1 5.865-1.4 6.614-4.1m-.749 1.8c2.247.6 4.993 2.7 5.117 5.1m-.374-1.5c2.247-.3 3.869-1.4 5.367-3.2m6.115-.3c2.87 2.3-.998 10-6.989 8.6m-54.79-164.7c-5.865 2.9-22.839 2-14.477-9.2m16.225 1.6c-11.857 3.8-26.21-3.5-11.233-11.3m-3.993-2.6c-9.735 0-16.35 12.6-3.245 17M435.07 138c-2.497 4 6.614 8.4 12.854 4.4 4.868-3.1 4.493-11.5 1.623-14.7m-19.47 19.8c-3.245 8.5 20.468 9 16.724-4.5m-17.972 17.2c.749 6.4 22.59 4.3 15.6-8.7m2.497-3.6c1.747 2 6.614 5.3 14.851 4.6M450.546 139c.749 2.3 5.616 4 11.856 2.3M231.388 334.8c-5.616 3.1 2.996 8.1 6.116 2.6m-10.484-.2c-5.491 3.2 2.996 8.2 6.116 2.7m-10.734-.3c-5.49 3.2 2.996 8.1 6.24 2.7m-10.982-.5c-5.367 2.3.874 7.8 6.24 3m-11.482-.9c-5.367 2.3.874 7.8 6.24 3m20.718-9.6c-.125 3.3 7.613 4.6 10.484-.3m-5.617 3.3c-2.496 2.5 1.997 5.5 4.369 4.4m-14.727-4.8c-.25 2.8 6.49 4.4 9.734 1.3m-6.115 1.6c-2.122 2.2 2.122 5.3 4.992 4.4m-13.104-4.8c.25 2.2 4.118 4.7 8.237 3.3m-5.741-.3c-1.623 1.1-.874 3.8 1.373 4.7m-9.735-5c-.624 2 3.62 5.6 7.987 3.3m-7.114-1c-2.496 1.7-2.246 4.1.999 4.5m-7.239-4.7c-.25 1.4 1.872 3.6 4.618 3.3m-18.346-3.4c-2.497 1.1 3.993 6.7 8.112 1.5m-14.477.8c-3.245 1.2 4.742 7.4 8.361 1.1m12.481-1.3c-2.496.4-4.119 3.3-1.997 4.5m-6.24-3.5c-.25 1.2 2.87 3 5.366 2.4m-7.363-1.9c-2.496 1.2-1.123 4.6 1.747 4.1m-10.359-1.8c-2.246 1.3-.624 4 2.497 3.4m1.622-3.6c0 .7 2.122 1.8 3.744 1.3m-15.6-2.5c-2.871 1-2.621 6.6 6.864 3.6m-13.23-1.3c-3.993 1.5-2.62 5.8 5.991 1.7m.624.3c-.998.7-2.122 3.5 1.872 2.4m-8.986-1c-1.622 1.1-.624 3.5 2.87 2.6m-11.232-2.2c-2.87 1.3 3.495 3.1 7.738-.5m-5.74 2.1c-1.249 1-1.249 4.1 1.996 3m-10.234-1.7c-1.872 1.1 1.248 2.7 7.488.5m-4.992 1.1c-2.371 1.5-2.122 3.4 1.248 2.8m-7.987-2c-2.496 1.9 1.123 3.1 5.491 1.6m-5.491.5c-4.244 1.5-2.372 4.4.25 3.3m142.027 6.5c-.998 1.7 2.247 3.1 5.367 2.7 2.87-.3 5.741-2.3 3.495-5m.124 3.4c2.996 1.8 8.113-.3 8.113-3"/></g><g stroke="#000" stroke-width=".4"><path d="M495.226 103c-12.855-5-39.563-14.6-47.176-6.9 6.989-2.3 27.207.1 43.931 12.5l3.245-5.5v-.1z" fill="#FFF"/><path d="M502.964 102.5c-14.852-13.9-23.713-10.8-34.321-15.5-9.985-4.5-25.96-5.4-29.08 1.7 14.602-5.7 28.081 3 36.443 4.2 11.233 1.4 17.723 8.5 21.092 11.7l5.866-2v-.1zm56.038-1.8c-7.738-14.1-24.213-10.4-31.451-16.4-10.609-8.8-37.442-17-48.674-10.9 24.462-1 34.945 13.5 47.925 18.6 9.36 3.6 19.345 11.3 32.2 8.7z" fill="#FFF" fill-rule="nonzero"/><path d="M530.047 99.2c-13.105-13.1-33.448-24.7-42.684-20.4 12.231.6 16.1 7.4 24.712 11.8 8.736 4.3 4.867 10.7 17.972 8.6zm-62.652 23.2c-13.729-4.1-40.812-6.2-53.417 6.4 20.967 2.9 52.418 1.3 53.417-6.4z" fill="#FFF" fill-rule="nonzero"/><path d="M464.774 127.3c-13.729-5.2-24.587 2-37.567 1-24.71-2-42.433-.8-44.68 8.8 14.103-10.2 37.941-1.8 47.551-3.9 9.61-2 45.304-.3 56.537 3.6-5.741-5.7-14.727-7.2-21.841-9.5zm43.432-29.5c-3.245-8.5-2.995-17.5 12.855-16.9-3.994-4-18.72-6-21.217 8.9-17.473-10.3-36.693-12.1-40.187-3.2 8.986-6.2 22.964-1.7 39.688 13.5a35.127 35.127 0 0 1 8.86-2.3h.001z" fill="#FFF" fill-rule="nonzero"/><path d="M484.119 109.5c-9.985-5.2-23.464-13.5.124-16.9-9.984-4.3-24.96-2.4-23.338 12.5-26.958-8.7-46.303-5.8-50.421 2.9-4.493 9.5 12.23 14.8 15.101 8.7-2.995 1-13.479-1.8-7.987-7.2 5.49-5.4 33.447-1.3 60.03 9.8 7.489 3 32.824 2.6 6.49-9.8h.001z" fill="#FFF"/><path d="M477.005 123.7c-7.613-12.6-32.574-1.2-37.567-13.4-6.989 17.9 35.445 8 37.567 13.4zm158.627 13.6c5.242 2.1 9.735-1.2 1.747-3.7 5.242 2 9.86-1.1 1.872-3.7 5.242 2 9.735-1.1 1.747-3.7-2.121 1.7-5.117 8-5.366 11.1zm2.746-24.2c11.606-9.8-.874-13.1 13.229-23.2 11.607-8.2 2.246-13.7 13.104-20 3.62-2.1 11.233-6.2 11.982-10.4 4.617 9.3-14.478 10.6-13.23 25.5.874 9.5-7.238 8.7-10.234 24.8-.624 3.3-3.619 10.8-14.851 3.3z" fill="#FFF" fill-rule="nonzero"/><path d="M643.495 117.5c6.49-11 13.853-10.9 17.472-15.2 6.74-8.3 20.967 1.4 33.074-6-2.122 10.5-18.347 6.8-25.46 13.5-6.99 6.7-12.856 9.7-24.962 7.7h-.124z" fill="#FFF"/><path d="M645.242 121.1c11.232-7.2 19.47-2.4 27.207-6.2 19.595-9.5 27.457 2 44.93-2.6-4.493 9-30.452 1.3-41.685 8-11.232 6.7-50.795 13.2-30.577.8h.125zm-32.824 51.4c-.25-4.1-4.992-9.4-11.732-10-6.739-.7-9.734-6.4-14.851-6.6-5.117-.3-8.487-8.5-15.601-8.4-6.99.1-9.984 7.5 6.615 14.2 16.599 6.7 34.945 14.4 35.57 10.8h-.001zm-20.967 3.5c-6.99.2-7.988 8.5-14.727 8.7 9.235 4 16.1-1.8 20.842-7l-5.99-1.7h-.125z" fill="#FFF" fill-rule="nonzero"/><path d="M597.317 177c-6.24 4.1-7.988 12.7.873 15.2-5.241-5.9 9.36-8.5 4.868-14l-5.741-1.2z" fill="#FFF"/><path d="M603.307 177.3c-4.742 7.4 7.613 8.3 4.369 14 7.113-1.3 8.237-12 1.747-14.8l-6.116.7v.1z" fill="#FFF"/><path d="M556.131 161.3c11.607-.5 22.09 4.5 29.204 12.6 4.493 5.1 19.595 7.2 24.837 3 4.992-4 2.246-12.8-10.609-10-3.245-4.3-12.48-2.8-17.098-6.4-4.493-3.6-21.841-13.9-26.334.8z" fill="#FFF"/><path d="M599.563 167c-3.12.5-4.118 4.7-2.122 6.9m8.737-4.4c.873 1.3.25 3.1-.25 4m-31.45-11.8c5.865.2 6.988 3.7 13.478 5" fill="#FFF" fill-rule="nonzero" stroke-linecap="round"/><path d="M570.484 150c16.213 2.539 31.975 6.67 46.926 12.3 10.11 4.6 25.835 6 39.439 2.8 13.728-3 40.187-5.9 38.814 7.8 7.239-6.9-1.872-14.2-20.218-15.5.374-6.7-8.612-12.7-14.977-8.7 5.866-.7 10.983 8.2-.749 11.8 1.076-3.165-.245-6.542-3.383-8.648s-7.52-2.556-11.219-1.152c5.491 1.3 11.232 8.8-1.248 11.6-7.863 1.8-19.22-.5-27.707-4.6-8.486-4.1-56.162-19-45.678-7.8v.1z" fill="#FFF"/><path d="M622.278 143.3c-6.365 2.3-2.247 7.7-12.106 10.8-9.985 3-16.974 10.1-14.727 16.2 6.74-11.9 18.72-11.3 22.839-16 4.243-4.6 10.359-11.4 3.994-11z" fill="#FFF"/><path d="M624.025 144c-.25 9.4-9.485 6-5.866 19.2 1.123 4.1 3.245 10.8-.374 17.5 10.359-6 3.744-18.7 8.362-23.5 2.246-2.4 5.241-6 6.24-9-2.371 5.3-2.122 15.4 4.368 18-5.242-10 14.353-18.3.874-30-1.997 3-8.113 8-13.48 7.8h-.124zm-32.699-9.4c1.623 2 3.245 6.8 1.747 9.6 3.245-1.6 7.863-5.6 9.36-8.3 6.615.8 9.111 7.3 2.871 10.2 3.744 0 10.484 0 14.103-3.5-4.493-4-18.471-10.2-28.08-8h-.001z" fill="#FFF" fill-rule="nonzero"/><path d="M491.357 116.1c-1.742-1.078-3.808-1.768-5.99-2-9.735-1.6-4.618-8.6 3.619-8.5 17.722-15.5 27.582-3.6 49.173-8.4 7.488-1.8 12.73-1.3 16.724.2 9.735-5.2 20.967-3.8 29.204 2.3.83-1.147 2.166-2.003 3.745-2.4 7.613-1.7 13.728 3.4 15.85 10.1 5.866-.8 12.605 1.5 17.098 4.7 6.115-2.5 10.234-2.6 11.857 0 5.49-2 12.48-3.4 16.1 3.6 3.619 7-8.363 4.9-10.36 19.6-1.248 9-13.728 12.6-23.712 7.2-15.975-8.7-31.576-10-39.314 3-7.613 13.2-13.729 20.8-32.45 16.5-7.951-1.446-16.202 1.127-20.842 6.5-5.491 6-13.728.4-23.713 1 12.48-1.5 7.613-4 18.596-4.6 9.985-.5 7.364-8 13.729-9-24.961 5.1-24.088-2.4-44.68 2.8 8.986-9.3 23.213-4.1 30.202-9.5-18.595-.3-26.957-10-35.32-6-13.104 6.5-7.488 24.8-41.809 23.2-16.724-.7-27.332 1-37.192 9 17.348-28.8 40.936-13 52.418-22.1 5.958-4.295 11.126-9.244 15.351-14.7.998-1.602 2.823-2.772 4.992-3.2-28.58-7.2-11.232-18.5 16.724-19.3z" fill="#FFF"/><path d="M632.637 112c.374.8.624 1.8.624 3 0 5.6-10.609 5.8-11.233 14.2-.374 4.4-.998 6.8-4.618 6.3-3.744-.5-6.989-5.1-3.494-10.5" fill="#FFF" stroke-linecap="round"/><path d="M496.724 107.7c-2.25-1.319-4.951-2.052-7.738-2.1l7.738 2.1zm58.159-10.4c8.487 3 12.605 10 24.961 10.4 11.981.3 19.345 14.2 39.314 5.1.494-.207.994-.407 1.497-.6l-65.772-14.9zm29.204 2.4c-1.714 2.499-2.33 5.387-1.747 8.2l1.747-8.2zm-38.939 29.2c-14.976 0-18.97 6.1-18.97 12 0 6 7.114 13.7 19.594 13.7s19.345-6.2 19.345-12.9-7.738-12.9-19.969-12.9v.1z" fill="#FFF" fill-rule="nonzero"/><path d="M547.894 154.3c-.25-3.3-7.863-2.8-7.488-5.4.25-2.6 4.118-3.6 4.118-7.2s6.74-3.9 8.986-1c2.247 2.8 8.986 8.3 10.484 5.5m-10.484-5.5c-4.266 3.64-4.48 9.257-.5 13.1m5.368-8.8c-1.249 2-1.498 5-.125 6.8" fill="#FFF" fill-rule="nonzero"/><path d="M618.409 135.6c11.856.8 13.728-9.7 4.992-10.3m-19.594-17.8c-3.994-4.2-13.48-5.6-13.729 3.2"/><path d="M589.08 120.8c-3.994-8-14.353-9.1-19.72-5.1-4.617 3.3-4.742 12 4.993 13.8 3.494-3.3 9.984-7.5 14.727-8.7zm-4.369-5c-5.865-4.1-14.352 3.7-6.614 10.8l6.614-10.8zM474.51 135.3c3.993-.7 9.61.8 18.346 4 5.367 2.1 21.84 6.5 32.075 2.1-10.609 3.1-18.721-9.7-26.708-8.2-7.988 1.6-22.715 4-28.83-.8 14.976.8 23.088-8.8 40.436-.5 4.904 2.437 10.581 3.687 16.35 3.6-14.103-13.6-32.7-4.9-34.696-16 8.487 7.4 29.33-1.6 39.938 12.1l-56.911 3.7zm20.093-13.7c-1.997-2-1.248-4-3.245-5.5l3.245 5.5z" fill="#FFF" fill-rule="nonzero"/></g><path d="M603.807 107.5c-3.495-3-11.233-.7-8.986 5.4 1.659-2.922 5.031-4.986 8.986-5.5v.1zM581.966 124c2.15-1.356 4.55-2.436 7.114-3.2-.982-2.038-2.618-3.832-4.743-5.2-1.872-1-7.114 4.7-2.371 8.3v.1z" fill="#000" fill-rule="nonzero"/><path d="M572.48 113.5c-5.74-3.1-11.107-2.8-12.854-.3-4.119 0-7.614 2.4-7.738 7.2m8.86 2.1c-6.863-3.8-16.349-2.4-15.725 6.1m-4.243 4.9c3.37-2.2 8.237-3.8 11.981 0m39.688-8.4c-1.248 1.4-2.246 3.6-.125 7-2.496-2.8-8.985-2.8-15.975 4.4m31.327-11.8c-8.362.8-8.113 5.2-1.373 7m-58.035-23.4c-7.114-1.1-12.23 2.2-2.496 5m15.975-8.8c-9.984-2-13.978.1-9.485 2m-19.345 30c-.25 2.9 1.623 6.6 7.489 2.4m-5.492 6.1c0 .8-.125 1.7-.873 2.4m-22.34-40c-6.116-1.5-7.24-6 0-5.6m-1.997 16c-6.74-1.9-6.74-7.1-1.248-6.6m13.728 3.8c-7.863-1.5-8.112-5.9-2.246-5.2m3.245-8.2c-4.244-.2-10.609 3.5.124 5.7m11.607 1.8c-9.86-1.1-9.61 2-3.869 4.1m11.233-11.6c-7.489-1.1-10.11 2.5-4.993 4m-18.72 18.3c-1.872-1.2-3.37-7 5.366-5.3m12.855 3.5c-5.866-1.3-11.482 3.4-6.115 6m13.978-11.5c-6.24-1-11.482.5-8.112 2.3" stroke="#000" stroke-width=".4" stroke-linecap="round"/><path d="M603.557 107.5c-3.835.555-7.094 2.569-8.736 5.4" stroke="#000" stroke-width=".4" fill="#FFF"/></g></svg>