<svg width="800" height="480" xmlns="http://www.w3.org/2000/svg"><g fill="none" fill-rule="evenodd"><path fill="#B20000" d="M0 0h800v318.844H0z"/><path fill="#429F00" d="M0 318.844h800V480H0z"/><path fill="#FFF" d="M0 0h106.324v480H0z"/><g fill="#B20000" fill-rule="nonzero"><path d="M5.063 8.156h5.063v8.156H5.063V8.156zm15.19 0H35.44v8.156H20.252V8.156zM25.314 0h5.063v8.156h-5.063V0zM50.63 0h5.063v8.156H50.63V0zm20.253 8.156h15.189v8.156h-15.19V8.156zM75.946 0h5.063v8.156h-5.063V0zM15.189 16.313h10.126v8.062H15.19v-8.063zm15.19 0h10.125v8.062H30.378v-8.063zm35.44 0h10.127v8.062H65.82v-8.063zm15.19 0h10.126v8.062H81.009v-8.063zm-70.883 8.062h10.126v8.156H10.126v-8.156zm25.315 0h10.126v8.156H35.441v-8.156zm25.315 0h10.127v8.156H60.756v-8.156zm25.316 0h10.126v8.156H86.072v-8.156zM96.198 8.156h5.063v8.156h-5.063V8.156zM5.063 32.531h10.126v8.157H5.063V32.53zm35.441 0H50.63v8.157H40.504V32.53zm50.63 0h10.127v8.157H91.135V32.53zM10.127 56.906h10.126v8.157H10.126v-8.157zm5.063 8.157h10.126v8.156H15.19v-8.156zM35.441 57h10.126v8.063H35.441V57zm-5.063 8.063h10.126v8.156H30.378v-8.156zm-10.126 8.156h15.19v8.156h-15.19v-8.156z"/><path d="M25.315 81.375h5.063v8.156h-5.063v-8.156zM60.756 57h10.127v8.063H60.756V57zm5.064 8.063h10.126v8.156H65.82v-8.156zM86.072 57h10.126v8.063H86.072V57zm-5.063 8.063h10.126v8.156H81.009v-8.156zm-10.126 8.156h15.189v8.156h-15.19v-8.156zm5.063 8.156h5.063v8.156h-5.063v-8.156zm-25.316-8.25h5.063v8.156H50.63v-8.156zm-50.63 0h5.063v8.156H0v-8.156zm101.26 0h5.064v8.156h-5.063v-8.156zm-75.945 40.688h5.063v8.156h-5.063v-8.156zm-5.063 8.25h15.19v8.062h-15.19v-8.063zm-5.063 8.062h25.315v8.156H15.19v-8.156zm60.757-16.219h5.063v8.156h-5.063v-8.156zm-5.063 8.156h15.189v8.063h-15.19v-8.063zm-5.063 8.063h25.315v8.156H65.82v-8.156zm5.063 40.688h25.315v8.156H70.883v-8.156zM60.756 138.28h35.442v8.156H60.756v-8.156zm-50.63 0h35.441v8.156h-35.44v-8.156zm5.063 40.688h15.19v8.156h-15.19v-8.156zm-5.063-8.156h25.315v8.156H10.126v-8.156zm70.883-16.125h25.315v8.156H81.009v-8.156zm-5.063 24.375h15.189v8.156h-15.19v-8.156z"/><path d="M20.252 187.125h5.063v8.156h-5.063v-8.156zm60.757 0h5.063v8.156h-5.063v-8.156zM0 154.594h25.315v8.156H0v-8.156zm45.567 16.219h15.19v8.156h-15.19v-8.156zm5.063 8.25h5.063v8.156H50.63v-8.156zm-15.189-24.375h35.442v8.156H35.44v-8.156zM55.693 32.53H65.82v8.157H55.693V32.53zm-10.126 8.157h15.19v8.156h-15.19v-8.157zm-5.063 8.156H50.63v8.062H40.504v-8.062zm15.19 0H65.82v8.062H55.693v-8.062zM0 40.687h10.126v8.157H0v-8.157zm5.063 8.157h10.126v8.062H5.063v-8.062zm91.135-8.157h10.126v8.063H96.198v-8.063zm-5.063 8.063h10.126v8.063H91.135V48.75zM0 121.875h5.063v8.156H0v-8.156zm101.26 0h5.064v8.156h-5.063v-8.156zm-55.693 65.156h15.19v8.156h-15.19v-8.156zm-5.063 8.156H50.63v8.063H40.504v-8.063zm15.19 0H65.82v8.063H55.693v-8.063zM35.44 203.25h10.126v8.156H35.441v-8.156zm25.315 0h10.127v8.156H60.756v-8.156zm-30.378 8.156h10.126v8.156H30.378v-8.156zm35.442 0h10.126v8.156H65.82v-8.156zm-40.505 8.25H35.44v8.156H25.315v-8.156zm45.568 0h10.126v8.156H70.883v-8.156zm-55.694 8.156h15.19v8.157h-15.19v-8.156zm60.757 0h15.189v8.157h-15.19v-8.156zm10.126-8.156h10.126v8.156H86.072v-8.156zm5.063-8.156h10.126v8.156H91.135V211.5zm5.063-8.156h10.126v8.156H96.198v-8.156zm-86.072 16.312h10.126v8.156H10.126v-8.156zM5.063 211.5h10.126v8.156H5.063V211.5zM0 203.437h10.126v8.157H0v-8.156zm20.252 32.625h5.063v8.063h-5.063v-8.063zm60.757 0h5.063v8.063h-5.063v-8.063zM50.63 211.688h5.063v8.063H50.63v-8.063zm-15.189 24.375h5.063v8.063h-5.063v-8.063zm30.379 0h5.063v8.063H65.82v-8.063zm-15.19 0h5.063v8.063H50.63v-8.063zm-50.63 0h5.063v8.063H0v-8.063zm101.26 0h5.064v8.063h-5.063v-8.063zm-50.63-114h5.063v8.063H50.63v-8.063zM25.315 40.689h5.063v8.156h-5.063v-8.157zm50.63 0h5.064v8.156h-5.063v-8.157zM45.568 97.594h15.19v8.156h-15.19v-8.156zm-10.126 8.156h15.19v8.156H35.44v-8.156zm5.063 8.156h5.063v8.156h-5.063v-8.156zM30.378 97.594h10.126v8.156H30.378v-8.156zm5.063-8.063h15.19v8.063H35.44V89.53zm5.063-8.156h5.063v8.156h-5.063v-8.156zm15.19 8.156h15.189v8.063h-15.19V89.53zm5.062-8.156h5.064v8.156h-5.064v-8.156zm5.064 16.219h10.126v8.156H65.82v-8.156zm-10.127 8.156h15.19v8.156h-15.19v-8.156zm5.063 8.156h5.064v8.156h-5.064v-8.156zM81.01 97.594h10.126v8.156H81.009v-8.156zm5.063-8.063h15.189v8.063H86.07V89.53zm10.126 8.063h10.126v8.156H96.198v-8.156zm-10.126 8.156h15.189v8.156H86.07v-8.156zm5.063 8.156h5.063v8.156h-5.063v-8.156zm0-32.531h5.063v8.156h-5.063v-8.156zM0 97.5h10.126v8.156H0V97.5zm5.063-8.063h15.19V97.5H5.062v-8.063zM15.189 97.5h10.126v8.156H15.19V97.5zm-10.126 8.156h15.19v8.156H5.062v-8.156z"/><path d="M10.126 113.906h5.063v8.156h-5.063v-8.156zm0-32.531h5.063v8.156h-5.063v-8.156zm-5.063 65.063h20.252v8.156H5.063v-8.156zm25.315 0H50.63v8.156H30.378v-8.156zm25.315 0h20.253v8.156H55.693v-8.156zm25.316 0h20.252v8.156H81.009v-8.156zM40.504 162.75H65.82v8.063H40.504v-8.063zm-35.441 0h25.315v8.063H5.063v-8.063zm70.883 0h25.315v8.063H75.946v-8.063zm25.315 32.531h5.063v8.063h-5.063v-8.063zM0 195.281h5.063v8.063H0v-8.063zm5.063 276.563h5.063v-8.063H5.063v8.063zm15.19 0H35.44v-8.063H20.252v8.063zM25.314 480h5.063v-8.156h-5.063V480zm25.315 0h5.063v-8.156H50.63V480zm20.253-8.156h15.189v-8.156h-15.19v8.156zM75.946 480h5.063v-8.156h-5.063V480zm-60.757-16.313h10.126v-8.062H15.19v8.063zm15.19 0h10.125v-8.062H30.378v8.063zm35.44 0h10.127v-8.062H65.82v8.063zm15.19 0h10.126v-8.062H81.009v8.063zm-45.568-8.062h10.126v-8.156H35.441v8.156zm25.315 0h10.127v-8.156H60.756v8.156zm25.316 0h10.126v-8.156H86.072v8.156zm10.126 16.219h5.063v-8.156h-5.063v8.156zM5.063 447.469h10.126v-8.156H5.063v8.156zm35.441 0H50.63v-8.156H40.504v8.156zm50.63 0h10.127v-8.156H91.135v8.156zm-81.008-24.375h10.126v-8.156H10.126v8.156zm5.063-8.156h10.126v-8.157H15.19v8.156zm20.252 8.156h10.126v-8.156H35.441v8.156zm-5.063-8.156h10.126v-8.157H30.378v8.156zm-10.126-8.157h15.19v-8.156h-15.19v8.156zm5.063-8.156h5.063v-8.063h-5.063v8.063zM60.756 423h10.127v-8.063H60.756V423zm5.064-8.063h10.126v-8.156H65.82v8.156zm20.252 8.157h10.126v-8.156H86.072v8.156zm-5.063-8.156h10.126v-8.157H81.009v8.156zm-10.126-8.157h15.189v-8.156h-15.19v8.156zm5.063-8.156h5.063v-8.063h-5.063v8.063zm-25.316 8.25h5.063v-8.156H50.63v8.156zm-50.63 0h5.063v-8.156H0v8.156zm101.26 0h5.064v-8.156h-5.063v8.156zm-75.945-40.688h5.063v-8.156h-5.063v8.156zm-5.063-8.25h15.19v-8.062h-15.19v8.063zm-5.063-8.062h25.315v-8.156H15.19v8.156zm60.757 16.219h5.063v-8.156h-5.063v8.156z"/><path d="M70.883 357.938h15.189v-8.063h-15.19v8.063zm-5.063-8.063h25.315v-8.156H65.82v8.156zm5.063-40.688h25.315v-8.25H70.883v8.25zM60.756 341.72h35.442v-8.156H60.756v8.156zm-50.63 0h35.441v-8.156h-35.44v8.156zm5.063-40.688h15.19v-8.156h-15.19v8.156zm-5.063 8.156h25.315v-8.25H10.126v8.25zm70.883 16.125h25.315v-8.156H81.009v8.156zm-5.063-24.375h15.189v-8.156h-15.19v8.156zM0 325.313h25.315v-8.156H0v8.156zm45.567-16.218h15.19v-8.156h-15.19v8.156zm5.063-8.156h5.063v-8.157H50.63v8.156zm-15.189 24.375h35.442v-8.157H35.44v8.156zm20.252 122.062H65.82v-8.156H55.693v8.156zm-10.126-8.156h15.19v-7.969h-15.19v7.969zm-5.063-8.156H50.63v-8.157H40.504v8.156zm15.19 0H65.82v-8.157H55.693v8.156zM0 439.313h10.126v-8.063H0v8.063zm5.063-8.157h10.126v-8.062H5.063v8.062zm91.135 8.156h10.126v-8.062H96.198v8.063zm-5.063-8.156h10.126v-8.062H91.135v8.062zM0 358.125h5.063v-8.156H0v8.156zm101.26 0h5.064v-8.156h-5.063v8.156zm-60.756-73.313H50.63v-8.062H40.504v8.063zm15.19 0H65.82v-8.062H55.693v8.063zM35.44 276.75h10.126v-8.156H35.441v8.156zm25.315 0h10.127v-8.156H60.756v8.156zm-30.378-8.156h10.126v-8.156H30.378v8.156zm35.442 0h10.126v-8.156H65.82v8.156zm-40.505-8.25H35.44v-8.156H25.315v8.156zm45.568 0h10.126v-8.156H70.883v8.156zm-55.694-8.156h15.19v-8.157h-15.19v8.156zm60.757 0h15.189v-8.157h-15.19v8.156zm10.126 8.156h10.126v-8.156H86.072v8.156zm5.063 8.156h10.126v-8.156H91.135v8.156zm5.063 8.156h10.126V268.5H96.198v8.156zm-86.072-16.312h10.126v-8.156H10.126v8.156zM5.063 268.5h10.126v-8.156H5.063v8.156zM0 276.563h10.126v-8.157H0v8.156zm20.252-32.625h5.063v-8.063h-5.063v8.063zm30.378 24.375h5.063v-8.063H50.63v8.063zm0 89.53h5.063v-8.062H50.63v8.063zM25.315 439.22h5.063v-7.969h-5.063v7.969zm50.63 0h5.064v-7.969h-5.063v7.969zM45.568 382.5h15.19v-8.156h-15.19v8.156zm-10.126-8.156h15.19v-8.156H35.44v8.156zm5.063-8.156h5.063v-8.157h-5.063v8.156zM30.378 382.5h10.126v-8.156H30.378v8.156zm5.063 7.969h15.19V382.5H35.44v7.969zm5.063 8.156h5.063v-8.063h-5.063v8.063zm15.19-8.156h15.189V382.5h-15.19v7.969zm5.062 8.156h5.064v-8.063h-5.064v8.063zm5.064-16.219h10.126v-8.156H65.82v8.156zm-10.127-8.156h15.19v-8.156h-15.19v8.156zm5.063-8.156h5.064v-8.156h-5.064v8.156zM81.01 382.5h10.126v-8.156H81.009v8.156zm5.063 7.969h15.189V382.5H86.07v7.969zm10.126-8.063h10.126v-8.156H96.198v8.156zm-10.126-8.156h15.189v-8.156H86.07v8.156zm5.063-8.156h5.063v-8.156h-5.063v8.156zm0 32.531h5.063v-8.063h-5.063v8.063zM0 382.5h10.126v-8.156H0v8.156zm5.063 7.969h15.19V382.5H5.062v7.969z"/><path d="M15.19 382.406h10.125v-8.156H15.19v8.156zM5.062 374.25h15.19v-8.156H5.062v8.156zm5.063-8.156h5.063v-8.156h-5.063v8.156zm0 32.531h5.063v-8.063h-5.063v8.063zm-5.063-65.063h20.252v-8.156H5.063v8.156zm25.315 0H50.63v-8.156H30.378v8.156zm25.315 0h20.253v-8.156H55.693v8.156zm25.316 0h20.252v-8.156H81.009v8.156zM40.504 317.25H65.82v-8.063H40.504v8.063zm-35.441 0h25.315v-8.063H5.063v8.063zm70.883 0h25.315v-8.063H75.946v8.063zm25.315-32.438h5.063v-8.25h-5.063v8.25zM0 284.813h5.063v-8.25H0v8.25zm45.567-40.78h5.063v8.155h-5.063v-8.156zm10.126 0h5.063v8.155h-5.063v-8.156zm0-16.22h5.063v8.157h-5.063v-8.156zm-10.126 0h5.063v8.157h-5.063v-8.156zM10.127 447.47h10.125v8.156H10.126v-8.156zm70.882-154.594h5.063v-8.156h-5.063v8.156zm-60.757 0h5.063v-8.156h-5.063v8.156zm25.315-8.156h15.19v8.156h-15.19v-8.156z"/></g></g></svg>