<svg width="800" height="480" xmlns="http://www.w3.org/2000/svg"><defs><radialGradient cx="49.947%" cy="50.141%" fx="49.947%" fy="50.141%" r="75.716%" gradientTransform="matrix(.66632 0 0 1 .167 0)" id="a"><stop stop-color="#FFEF5D" offset="0%"/><stop stop-color="#EA5700" offset="100%"/></radialGradient><radialGradient cx="50.155%" cy="49.712%" fx="50.155%" fy="49.712%" r="51.374%" gradientTransform="matrix(1 0 0 .8735 0 .063)" id="b"><stop stop-color="#FFEF5D" offset="0%"/><stop stop-color="#EA5700" offset="100%"/></radialGradient><radialGradient cx="50.061%" cy="50.047%" fx="50.061%" fy="50.047%" r="75.512%" gradientTransform="matrix(.66625 0 0 1 .167 0)" id="c"><stop stop-color="#952D1A" offset="0%"/><stop stop-color="#570A00" offset="100%"/></radialGradient><radialGradient cx="49.733%" cy="49.837%" fx="49.733%" fy="49.837%" r="50.952%" gradientTransform="matrix(1 0 0 .91328 0 .043)" id="d"><stop stop-color="#952D1A" offset="0%"/><stop stop-color="#570A00" offset="100%"/></radialGradient></defs><g fill="none" fill-rule="evenodd"><path fill="#CE1126" d="M0 0h800v480H0z"/><path fill="#003F87" d="M0 34.3h800v411.4H0z"/><g transform="translate(211 51)"><circle fill="#FFF" cx="189" cy="189" r="188.6"/><circle stroke="#552300" stroke-width="3.9" cx="189" cy="188" r="156.3"/><path d="M171 22.2c14-15.2 26.9 2.3 26.5 10.6C197.2 41 183 59 170 44.5c13.4 3.4 17.4-11.5 24.1-11.7-6.7.2-9.5-14.6-23.2-10.6h.1zm-147.2 119c-7.4-19.4 14-23 21.3-19 7.3 3.9 17.3 24.6-1.6 29.6 9-10.4-2.7-20.5.2-26.6-2.9 6-17.5 2-19.9 16zM340.9 122c19.4 7.6 7.6 25.8-.2 28.4-7.9 2.7-30-4-21-21.2 1.6 13.6 17 12 19.7 18.1-2.6-6.2 10.3-14 1.5-25.3zM87.8 326.4c-20.7-2-14.3-22.7-7.5-27.4 6.8-4.7 30-4.3 26 14.7-5.3-12.6-19.7-6.8-24-12 4.3 5.2-6 16.3 5.5 24.7zm209.3-15c.3 20.7-21.1 16.8-26.6 10.6-5.4-6.2-7.7-29 11.8-27.3-12 6.6-4.6 20.2-9.4 25 4.8-4.8 17.1 4 24.2-8.2v-.1zM39 102c-1.9-20.6 19.8-18.3 25.7-12.6 6 5.8 10 28.4-9.6 28.2 11.5-7.6 3-20.5 7.4-25.6-4.4 5-17.3-2.8-23.5 10zm22.2 193c-20.5-3.5-12.7-23.7-5.6-27.9 7-4.2 30.1-2.3 25 16.4-4.5-13-19.3-8-23.1-13.6 3.8 5.5-7.2 16 3.7 25v.1zM223.3 23c18.6-9.2 24.3 11.7 21 19.3-3.2 7.5-23 19.4-29.8 1.3 11.2 7.9 20.3-4.7 26.7-2.4-6.4-2.3-3.7-17-17.9-18.2zM263 337.3c-9.3 18.5-26.5 5.3-28.5-2.7s6.5-29.3 23-19c-13.8.5-13.4 16-19.8 18 6.4-2 13.3 11.4 25.3 3.7zm90.5-178.7c15.6 13.7-1.7 26.8-10 26.7-8.2-.1-26.8-13.8-12.5-27-3 13.4 12 17 12.4 23.6-.3-6.7 14.5-9.8 10-23.3h.1zM90.5 49.8c4.7-20 24.5-11.2 28.4-3.9 3.8 7.3.5 30-18 23.8 13.3-3.7 9.3-18.6 15-22-5.7 3.4-15.5-8-25.4 2.1zM28.9 222.3c-18.2-10-4.2-26.5 4-28.1 8-1.7 29.2 7.7 18 23.7.2-13.7-15.4-14-17.2-20.5 1.8 6.5-12 12.7-4.8 25v-.1zM292.5 62.7c20.6-3 19.4 18.7 14 24.8-5.5 6.2-28 11.4-28.9-8 8.2 11 20.8 1.9 26.2 6-5.4-4.1 1.9-17.3-11.3-22.8zM175.3 357.1c-19 8.4-23.8-12.7-20.3-20 3.6-7.5 23.9-18.6 30-.1-11-8.4-20.5 3.8-26.8 1.3 6.3 2.5 3 17.2 17.1 18.8zM345.8 242c8.6 18.8-12.6 23.7-20.1 20.2-7.5-3.5-18.8-23.6-.2-29.7-8.4 10.9 4 20.3 1.4 26.6 2.5-6.3 17.3-3 19-17.1h-.1zM20.7 181.4c-12-17 8-25.7 16-23.6 8 2 22.8 19.8 5.7 29.2 6.2-12.3-7.6-19.3-6.3-25.9-1.3 6.6-16.5 6.1-15.4 20.2v.1zM133 344.6c-19.6 7.1-23-14.2-18.9-21.4 4-7.2 25-16.9 29.9 2-10.3-9.1-20.7 2.4-26.8-.5 6 2.9 1.8 17.3 15.8 19.9zm-5.7-314c11.6-17.2 27-2 28 6.3.9 8.1-10.3 28.2-25.4 15.8 13.8 1.3 15.4-14 22-15.2-6.6 1.2-11.7-13-24.6-7v.1zm200.2 252.1c1.3 20.6-20.3 17.7-26 11.7-5.8-5.9-9.1-28.6 10.4-27.8-11.7 7.2-3.6 20.4-8.2 25.4 4.6-5 17.3 3.3 23.8-9.3zm-5.3-194.4c20.4 4 12 24 4.7 28-7.2 4-30.2 1.3-24.4-17.2 4 13.1 19 8.7 22.6 14.4-3.6-5.7 7.7-15.7-3-25.2h.1zM63.8 73.7c.2-20.6 21.5-16.2 26.8-9.9 5.3 6.3 7 29.3-12.4 27 12.2-6.3 5-20 10-24.7-5 4.7-17-4.5-24.4 7.6zM38 260c-18.6-9.4-5.1-26.4 2.9-28.3 8-2 29.5 6.7 19 23-.4-13.7-16-13.4-18-19.8 2 6.4-11.6 13.1-4 25l.1.1zM261 40c19.5-7.3 23 14 19 21.2-4 7.2-24.9 17.1-29.9-1.7 10.4 9 20.7-2.6 26.9.3-6.2-2.9-2-17.3-16-19.8zm-41.3 314.8c-15.2 14.2-26.7-4.1-25.8-12.3.9-8.2 16.3-25.3 28.2-9.9-13-4.3-18 10.4-24.9 10 6.8.4 8.5 15.3 22.5 12.2zm132.7-158c14.2 15.1-4.4 26.5-12.6 25.5-8.2-.9-25.4-16.3-9.8-28-4.4 13 10.3 18 10 24.7.3-6.7 15.4-8.4 12.4-22.2z" fill="#007F00" fill-rule="nonzero"/><path d="M170 44.5c13.4 3.4 16.7-11.3 23.5-11.5-4 4.7-14.2 16.7-23.5 11.5zm1-22.3c14-15.2 26.9 2.3 26.5 10.6-11.5-20-15-17-26.6-10.6h.1zM43.4 151.8c9-10.4-2.8-19.9 0-26 2.6 5.6 8.9 20.1 0 26zm-19.7-10.7c-7.4-19.3 14-22.9 21.3-19-23.1 1.4-22 6-21.3 19zm295.9-11.8c1.6 13.5 16.7 11.3 19.3 17.5-5.9-2-21-7.1-19.3-17.6v.1zm21.2-7.3c19.4 7.6 7.6 25.8-.3 28.4 14.7-17.8 10.5-20 .3-28.4zM106.3 313.7c-5.3-12.6-19.2-6.4-23.4-11.7 6.2.3 22 1.2 23.4 11.7zm-18.5 12.7c-20.7-2-14.3-22.7-7.5-27.4-9.2 21.1-4.6 22.1 7.5 27.4zm194.5-31.7c-12 6.6-4.2 19.6-9 24.3-.4-6-1.3-21.8 9-24.3zm14.8 16.7c.3 20.7-21.1 16.8-26.6 10.6 22.3 6.6 22.7 2 26.6-10.6zM55 117.4c11.5-7.5 2.7-19.8 7-25 1 6.1 3 21.8-7 25zM38.9 102C37 81.4 58.7 83.7 64.6 89.4c-22.7-4.9-22.8-.2-25.7 12.6zm41.5 181.5c-4.4-13-18.7-7.6-22.5-13.2 6.1.7 21.9 2.7 22.5 13.2zM61.1 295c-20.5-3.5-12.7-23.7-5.6-27.9-10.6 20.5-6 21.8 5.6 27.9zM214.4 43.6c11.3 7.9 19.7-4.7 26.1-2.5-5.4 3-19.3 10.6-26 2.5h-.1zm8.9-20.6c18.6-9.2 24.3 11.7 21 19.3-3.5-22.8-8-21.1-21-19.3zm34.2 292.6c-13.8.5-12.8 15.6-19.3 17.6 2.5-5.6 9-20 19.3-17.5v-.1zm5.5 21.7c-9.3 18.5-26.5 5.3-28.5-2.7 16.7 16 19.2 12 28.5 2.7zm68-179c-3.1 13.4 11.9 16.3 12.2 23-4.9-3.8-17.2-13.7-12.2-23zm22.5.3c15.6 13.7-1.7 26.8-10 26.7 19.9-12 16.7-15.4 10-26.7zm-252.6-89c13.3-3.6 8.8-18 14.6-21.5-1 6-4 21.5-14.6 21.6v-.1zM90.5 49.8c4.7-20 24.5-11.2 28.4-3.9-20-11.7-21.6-7.2-28.4 4v-.1zM51 217.8c.1-13.6-15.2-13.3-17-19.8 5.6 2.7 19.9 9.7 17 19.9v-.1zm-22 4.5c-18.3-10-4.3-26.5 3.9-28.1-16.8 15.9-13 18.6-4 28.1h.1zM277.6 79.5c8.2 11 20.2 1.6 25.6 5.7-6.1 1.2-21.7 4.1-25.6-5.7zm14.9-16.8c20.6-3 19.4 18.7 14 24.8 3.7-22.7-1-22.5-14-24.8zM185 337c-11-8.4-19.9 3.9-26.1 1.4 5.5-2.8 19.7-9.8 26-1.4h.1zm-9.7 20.1c-19 8.4-23.8-12.7-20.3-20 2.7 22.8 7.2 21.4 20.3 20zm150.2-124.7c-8.4 10.9 4 19.7 1.5 25.9-2.8-5.4-10-19.5-1.5-26v.1zm20.3 9.5c8.6 18.8-12.6 23.7-20.1 20.2 23-2.8 21.6-7.2 20.1-20.2zm-303.3-55c6.2-12.3-7.7-18.6-6.4-25.2 3.8 4.8 13.5 17.3 6.4 25.2zm-21.8-5.7c-12-16.9 8-25.5 16-23.5-22.1 7-19.8 11-16 23.6v-.1zm123.3 144c-10.3-9.1-20 2.5-26.2-.4 5.7-2.4 20.4-8.5 26.2.3v.1zm-11 19.4c-19.6 7.1-23-14.2-18.9-21.4 1.1 23 5.7 21.9 18.9 21.4zm-3-291.9c13.7 1.3 14.7-13.8 21.3-15-3.1 5.3-11.4 18.8-21.4 15h.1zm-2.7-22.2c11.6-17.1 27-1.8 28 6.3-14.5-18-17.6-14.3-28-6.3zM312 266.6c-11.7 7.2-3.3 19.8-7.9 24.8-.7-6.1-2.3-21.8 8-24.8h-.1zm15.6 16.1c1.3 20.6-20.3 17.7-26 11.7 22.4 5.7 22.7 1 26-11.7zm-25-183.6c4 13.1 18.5 8.3 22.1 14-6-1-21.8-3.5-22-14h-.1zm19.7-10.8c20.4 4 12 24 4.7 28 11.3-20.1 6.8-21.6-4.7-28zm-244 2.6c12.2-6.4 4.7-19.6 9.6-24.2.3 6.1.8 21.9-9.6 24.2zM63.9 73.7c.2-20.6 21.5-16.2 26.8-9.9-22-7.1-22.6-2.4-26.8 10v-.1zm-4 181c-.3-13.7-15.6-12.8-17.6-19.2 5.7 2.4 20.2 9 17.6 19.2zM38 260c-18.5-9.4-5-26.4 3-28.3-16.2 16.4-12.3 19-3 28.3zM250.2 59.6c10.4 9 20-2.8 26.2 0-5.7 2.6-20.3 8.7-26.2 0zM261 40c19.5-7.3 23 14 19 21.3-1.2-23-5.8-21.9-19-21.3zm-38.9 292.6c-13-4.3-17.4 10.2-24.2 10 4.3-4.5 15.4-15.8 24.2-10zm-2.4 22.2c-15.2 14.2-26.7-4.1-25.8-12.3 10 20.7 13.8 17.9 25.8 12.3zM330 194.3c-4.4 13 10.2 17.3 9.9 24-4.5-4.2-15.8-15.3-9.9-24zm22.4 2.5c14.2 15.1-4.4 26.5-12.6 25.5 21-9.9 18.1-13.6 12.6-25.5z" fill="#005800" fill-rule="nonzero"/><g fill="#730000" fill-rule="nonzero" stroke="#000" stroke-width=".5"><path d="M218 69.3s.6-1.3 1.7-.6c1 .8 1.3 4.2 1.3 4.2l-1.6.8s.9-1.3-1.3-4.4h-.1zm-8.8 30.7s.8-1-.3-3.4l1.5-.5s.6 1.8-.2 3.9h-1zm27-5.4l-3.7 2.3 1.9.8 4.5-2.6-2.7-.5zm-49.7 14.6c-1 .8-1 2.1-1.7 3-.4.7-2 1.8-2 3-.2 1.1-.3 1.9.2 3.5.6 1.5 3 8.5 2 13.7-1 5.3-.6 7.5-.3 8.3.4.8 1.6 3 2.3 3 1.6-.2.9-.7 1.5-1.7 1.4-2.5 0-22.2-.7-27.6-.5-4.2-2.5-8-2.7-8.4l-.8-2.6c-1.5-3.5-3.3-6.5-3.3-13.9 0 0-4.7 1.1-8.8-8.2-2.2-4.7-5.3-4.2-9-5.7l1.6-1.1s3.2 1.6 4.7 1.6c1.6 0 1-3.2 1-3.2l1.7-1.5v6.8c0 3.1 4.3 7.4 6.8 8.7 1.6.8 3.6-2.4 3.1-5.6-.5-3 0-7.3 0-7.3l2.2 1.3s-.8 1.3-.6 2.1c.3.8 1.3-.7 2.1-1.5 0 0 .2.2 1 .2l-2.3 4c-.8 1.2-.8 6.2-.8 8 0 2 .7 6.2.7 7.6 0 1 1.8 5 3.3 7.4l1.6 3.5c1.2 1.9 1.3 3.2 2 4.7.4.8 1 3 1.6 7l.7 7c.2 2.4 2.2.6 4.5-1 2.4-1.8 2.4-6 2.4-6s1.8-1.6 1.5-.7c-.2 1 1 2 1 2-1.4 3.3-.6 2.9.9 2.8 1.5-.2 6.5-4 6.5-4 .7-.2 3.8-.2 3.3 0-.6.3-1.4 1.7-1.4 1.7l3.3-.4c-1.1.9-5.5 3.4-6.5 4a90.6 90.6 0 0 1-8.6 4.1c-2.3 1-6.7 3.2-6.9 5.4 0 2.3.3 8.3 0 10.3l-1 10.6h-10.4s2-7.6 0-9.7c-2.1-2.1-7-8.4-10-10.5-3.2-2 2-.5 2-.5v-2.1l4.8 5.7s8.3-7.3 0-17.3c-2.6-3.1-5.3-7.9-7.3-8.4-2.2-.6-3.3-1-6.9 0-3.7 1.1-12.6 1.1-16.3-4.8l3.1-.5 2.7-1s-1.1 3.7 6.3 3.7 8.4 0 7.8-6.8l2.2-1.1 1.6 1.5s-1.1 3.8-.5 5.3c.5 1.6 3 2.7 5.1 4.2 1 .7 1.6.8 2.2.8.9-.1 1-.1 2.2-1.3 1.8-2 1.4-1.8 3.2-3.4l1-1.6 1.1 2.9z"/><path d="M188 104c.5-.4 1.2-1.9 2-3.1 1.1-2 2.5-3.2 4-5.6 1.5-2.2 2-5.6 1.5-7.9l1.4.8v3.7l2.7-2 .8.4s-5.9 6-11.3 15.9l-1-2.2h-.1zm-51.3-20.3c.8 1.4 1.6 4 3.9 6l1.6-.4s-3.6-4.2-3.6-6l-1.9.4zm9.2-2.4s.5 5-.8 6.9l1.6-.8s1-3.4.7-5.3l-1.5-.7v-.1zm51.4-15.7s-.3 7 1.1 11.3l1.9-.5s-.3-1.3 1.2-1.9c1.6-.5 5.3-2 7.2-3.6l-.6-1.6s-2.8 2.3-4.2 2.9c-1.3.5-2 1-3.1.7-1.1-.3-2.4-2-1.6-6l-1.9-1.3zM218 98.4s-.4 5-.2 7.2l1.7.4s-.4-6 .7-6.5l-2.2-1v-.1zm7.5 3.8s-1.9 3.2-4 3.5l3.4-.7s1-.5 2.4-2l-1.8-.8z"/></g><g fill="#289400" stroke="#030" stroke-width=".5"><path d="M195.6 87.4l1.3.8 1.3.2 3.2 2.6c1.2 1 1.2-.2 1.2-.2l.8 3.1h1l-.2 3.2 1.8-1.6 2.2 1.9s1.5-1.4 2.3-1.4c.8 0 1.1-.8 1.1-.8h.1c-5.2-2.4-7.4-5-5.9-7.6 2.6-4.4 6.8-1.6 8.1-1l19 10.2s1.3-.8.4-1.6c-1-.8-1.4-2.7-1-3.5.2-.8 2.4 2.4 3.4 2.7l3.5.7v-1s3 2.2 3 3.3c0 0 2.3-1.2 1.5-1.9-.7-.7 3.5 1.7 3.7 3l1-1c-.2 0 .2-3.2 1.3-4.6a4.8 4.8 0 0 1 2-1.9s1-1.7 2-1.7c0 0-1-.6-1.4-1.4-.5-.8-1.6-1.2-1.6-1.2s1.4-1 1.8-1.5c.4-.6.8-.7.8-.7s-2.2-1.9-3.8-2.2c0 0-.1-2.5-2-2.7h.8s-1.4-2.8-2.8-2.8c0 0 .9-1 1.6-1.1 0 0-1.6-2.2-3.9-1.4l1.5-.6s-1-1.1-4.4-.6c0 0 .3-1.3-1.2-2.4 0 0-1.2 0-1.2 1 0 0-1.2-1-2.7-1-1.4 0 .5 1.6.5 1.6s-2-1.3-3.1-1c0 0 .5-2.2-.8-3.3 0 0-1.4.7-1.8 1.7l-.4-1s-2 2.4-2.4 1.7c-.3-.4-.6-2-.6-2l-1.1 1.7.2-2.4s-1.4.8-2.5 3.3c0 0-1.3 1.3-1.3 2.4 0 0-1.1-1.2-2 0-1 1.4 0 1.1 0 1.1s-.5.5-1.5.7l.2.8s-1.2-.7-2.2-.4l.5 1.2s-2.6.2-2.7-2c0 0-2.1-1-2.4.2l-1.6 1s-.5-1-1.3-1.2c-1-.3-.2 1.3-.2 1.3s-.3-1.2-1.5-1.8c-1.2-.5-.2 1-.2 1s-1.5-1.2-.8-2.2c0 0-1.4 1.4-.7 2.7l-1 .7s-.5-.5-.4-1c0-.3-1.7 1.3-1.7 1.3s-1-2.6 0-2.6c.1 0-1.8 0-2.1 2.2 0 0-1.3 0-2.5.4s1 1.3 1 1.3-2-.4-3 .2l.7.9s-.7-.7-2.4-.1c-1.7.5.4.8.4.8s-1.7-.4-2.6 0c-.9.4.3 1 .3 1s-3.2-1-3.7-.6c-.5.3 1 1.8 1 1.8s-2 .5-2.3 2l1.8.7s-.8.4-1.2 1.1c-.4.8 1.2.4 1.2.4s-2.2 1.6-2.2 2.8c0 0 1.6.5 2.7-.7 1.2-1.2.4-.8.4-.8l.1.8s2.3-1 2.3-1.6c0-.5-.4.8-.4.8l2.2-1.2 1.5 1z"/><path d="M193.7 57l-.5-2.2 5 .6.9-2s2.4 1 3.1 1.8c0 0 4.6-1.2 6-.7l-.6 2.1s4.2.3 5.6.8c1.2.5-.6 1.6-.6 1.6s4.8.6 6.8 1.8c2.2 1.3 2.2 2.4 1.1 2.7l2.6 4.2s-4.2.5-5 1.5c-.7 1.1-1.5-1-1.5-1l-.8 2.9s-2.6-1.4-3.7-2.4c0 0-1.3 1.6-.5 2.4l-4.8-3.1s-2-.3-2 1.5l-3-3.4-2.6.8s-.8-1-1.7-1.4c-1.1-.2-.3 1.4-.3 1.4l-1.6-1.9-1.6-1.8s-1.3 1.8-2.4 1.8c-1 0-1-1.2-.8-2.1.3-.8-3.1-1-3.4 0 0 0-1-4 2.6-5l3.7-1v.1zm-19 13.3l-1.6 1.6-1-.5-1.9 2.1-.4-1.1-1 1.7-1.7-.6-.8 1.3-1.5-.3s-1.2 1.2-2 1.5c-.8.2 0-1.8 0-1.8s-1.2 2-2 2c-.9 0-.6-1-.6-1s-.5 1.4-1.4 1.6c-.9 0-.5-1-.5-1l-1.6 1.2v-1l-.7-.3s.4-1.8 1.1-2.2c.7-.4-.7-1.5-.7-1.5l.7-.8s-2-.5-2-.1c0 0 1-2.6 2.4-3.1l.1-3s1.4-1.1 2.6-1.2c1.4-.2-.4-2.3-.4-2.3l3.2-1.8.4-2.3 4.7.4 1-2 3.8 1 3.3-1.7 2.3 2.7 3.5.3v3.1s4.1 1.3 4.6 1.7c0 0-.8 2.5-.8 3 0 0 3-.8 3.8-.6l.4 3.4s5 1.6 5.3 2.5c0 0-1 .7-1.7 1.6 0 0 .6 3 .6 4l-.4.5s-1.4-1.3-2.6-1.5l-1 2.1-1.7-1.1h-1.1s-.9-1-1.6-1v-1l-1.4.9s-2.2-1.1-2.2-1.8l.1-1.5-2.2 1.5s-.5-1.1-.4-1.6c0-.5-.9 1.1-.9 1.1s-1.2-2-1-2.4l-.4 1.7s-2.3-.8-2.6-2.4h-.1z" fill-rule="nonzero"/><path d="M143.5 79.9s4.1 2 4.1 3c0 0 1.1-2.1.5-3l1.6 1.1s.5-1.9-.1-2.5c-.5-.5 3.5-2.1 4.4.5 0 0 2.4-2.5-2.3-4.7 0 0-.4-1.6 2.5-1.2 0 0-.2-1-.9-1.3h2.7s-1.6-1.4-4-1.8c-2.4-.4-1-.7-1-1.2-.2-.5 0-2.2 0-2.2s-1.4-.5-2.5 0l.4-.4s-2.5-.7-3.5-.1c0 0-1.5-.6-1.3-2.1 0 0-1.5-.1-2.1 1.4 0 0-1.4 1.6-3.3 1.6-.3 0-1.7-.8-1.7-.8l-1.2 2.7H134l.5 1s-2.8-.8-3.7 0c0 0 1.1 1.7.8 2.8 0 0-2.2.4-2.7.8-.6.4.8.7.8.7s-2.6.8-3.2 1.6l1 .7-1.2 1.6 1 .2-2.5.8c-.9.3 1.5.5 1.5.5l-1.1 1 1.8.3s-1.4 4-1.5 5.8c0 0 2.2-2.7 2.8-3l-1.8 3s3.4-1 3.7-1.6l.5-1 .1 1.6s1.3-1.7 1.5-2.4c.1-.7 2 .7 2 .7v-1l2.4.7c.7 0 .8-.3.8-.3l1.6-.2-.3 1.4s1.2-.8 1.5-1.6c.2-.8.8 0 .8 0l.8-3.1h1.6zm-13.4 13.8l1.6 3.3c-1.3 0-3.1 1.5-3.1 1.5.3 5.4-1 5.1-1 5.1.3 1-.3 2.8-.3 2.8l7.7-4.6.1-.5 9.2-4.3.3.5 2.6-1.5 1.9 4.9-1.9 1c.1 1.7 2.1 4.6 2.1 4.6l2.4-.6 2.7-1v1c0-.3 2.9-1.3 2.9-1.3l1.3 1.3c1-.1 2.7-2.5 2.7-2.5l2 .8s.7-1.2.7-2 2.6-.8 2.6-.8l1.7 1.2 2.3-1.8s.7 1.3 1.6 1.5c1 .1 3.4 2 3.4 1.6 0-.4 1-2.5 1-2.5l4.1 1.6c-.5-1.8-2-4-2-4s2-1.6 1.7-2c-.4-.4-1.6 0-1.6 0l1.2-2.4h-1.6l.5-.6-2.5-1 1.3-2.8c-.6-.7-7.3-2-7.3-2l1.6-1.5s-.8-1.2-1.6-1.2-4.9.1-5-.3l-1.8-1.8-2.6 1.9-1.3-.4-2.2.8s0 1.3-.3.4c-.3-.8-2.3-2.8-2.3-2.8-.4.7-3 3.8-3 3.8s-.5 1.7-1.3.5c-1-1.2-3-2.4-3.4-1.5-.2 1.1-2.1 2-2.5 1.8-.4-.3-2.5-.1-2.7.5-.1.7-2.5 2.4-2.5 2.4-1.4-.7-3.8-.3-3.8-.3s-.7 1.1-.8 2l-4.7 1.2h-.1zm44.2 39.6v-2l2.3 1.5 1.4-1.5 1.8 1.7 1-1.7v2.8l2.7-2.3 1.5.6v-2.2s1.9-3.1 1.1-3.7l1.6-.5s-2.7-2.6-3.4-3.1c-.8-.6-1.9-.6-1.9-.6s-2-2-3.4-2.7c-1.3-.5-2 .6-2 .6s-.8-1.5-2.2-1.8c-1.3-.3-1.3 1-1.3 1s-1-1-2.2-1.4c-1.3-.6-.4 1.2-.4 1.2l-4.5-1.4.6 1.4-4.2-1.1.5 1.5-3-.5-.2 1.3-4.2.8.8 1.4-2.6-1.1v1.9l-3 1 1.1 1-4.7 2.4c-.7.5 1.6 1.6 1.6 1.6l-4.2-.6 1.6 1.4-3.7 3.4 2.6 1.9-1.6 2.3 4 .8 1.5 2.6 3.2-.6v3l4.7-3.7s3.4 3 3.7 2.1c.2-.8.2-3.4.2-3.4h1.7V136l1.2 1 2.2-3.1 2.8 3.9 2.2-5 3.1.5zm19.1-11.8l-.4-4.5-1.4 1.4.6-4.2-2.2-.4.8-4.1-1.6-.8.4-2 1.6-1.1 2.8-2.8 6.6.1.7-2.1 4.7.8c.8.8 3.3-1.8 3.3-1.8h1l1 2s3.4-.4 5 .6l-1.9 2.6 3.5.3 2.3.5 2.4-.8 3.2-.2.7 1.3h3l-1 1.1 3.8 1.8-.8.8s2.2.8 3.7.8h.8s.8 1.8-.3 2.6c0 0 1.1 2.6 3.4 3.1 2.4.5 2.4.5 2.7 1 .3.6 0 3.2-2.7 3.2v2.7s-2 1.8-2.3 2.6l-1.6-1s-1.3 1.5-1.3 2.5c0 0-3.5-4.5-4.7-4.7-1.4-.2-1 2.6-1 2.6l-3.8-3.1-.5 2.1-3.1-2.6-1.9 1.3-3.3-3.5-3.2.4 1.2-1.6h-3.9l-.7-3.4-.6 2.8-2.4-1.6-3 3.3s-.4-.4-.9-2c-.5-1.5-1.8 2-1.8 2l-1.1-2.5-1.3 2.4s-1-1.8-2.1-2.4c-1-.5-2 3-2.4 4.5zm.6 10.3l.2-1.6 5.6-2.2 4.7-1.7 2.3-1.1 1.1 1.9 1.4-2.7 2.1 2.8 1.2-1.5 1.8 1.4h1.6l.3 2s3.9.3 4.2-.5c.3-.8.8 2.7.8 2.7l3.7.5.8 4.2s1.8 3.9 1.2 5.4c-.5 1.7-2-2-2-2s-.3 2.9-.6 3.7c-.2.8-5-.8-5-.8l-2 3.9s-2.2-3.1-3.2-3.1-1 3.1-1 3.1l-4.5-5.3c-1.3-1.5-1.6 1.6-1.6 1.6s-2-3.4-2-4.4c0-1-1.9-2.2-1.9-2.2s-3.2 3.7-5.6 4.7c0 0 .3-2.3-.5-3-.7-.9-3 1.5-3 1.5s-1.7-3.6 0-7.4l-.1.1z" fill-rule="nonzero"/></g><path d="M219.8 73.5l.5 2s1.8-.4 3-.3l-.7 2.2s2.3-.4 3.4.3l-.5 1.2 2.7 1.2-2.5 2s4 1.5 4.9 2.7c0 0-2.7 1.8-3 1.7-.5-.2-.2.8.5 1.7l-2.2-.1s.9 2 .8 2.8c-.2.8-3.8.6-3.8.6m14.1-5.3s.7-3.9-.4-4.9c0 0 2.5 2.2 4.2 2.3 1.8 0 0-3.2 0-3.2s2.3 1.2 3.5 1.5c1.2.2-.9-2.4-.9-2.4s.7-1.3 2.7-.1m-45.4-15.5s0-1-.3-1.4c-2.4-3.2 2.4 2.4 3.4 2.6m4.5 0s1.6 1.2 2.3 1.2c.8 0-.5-3.1-.9-3.5-.3-.4 2.9 1.3 4 1.4 1.2.3 1.4-2 1.4-2s3.6.7 4.4 1.2m-25-.7l-.5-3m-24.2 12.7c-.2-.3 1-2 .5-2.9 0 0 .7.6 1.4.7.6.1.4-2.2.4-2.2l.7.3s2-1 1.7-1.8c-.4-.8 1.4 1.2 1.4 1.2s1.1-1.2 1.1-1.7 1.4 1.2 1.4 1.2 1.5-.3 1.5-1.2c0-.9 1.8.3 1.8.3s.8-1 .7-1.8m-19.7 9.8s.9-2-.1-3.4M139 80.7c0-1 .5-3.6 0-4-.4-.4 1 .4 2.2.7m9.3-.4c-1.2-1.1-1.9-1.7-3.7-1.7m-16.2 8.3c.3-.7.8-2.4.5-3.3m25 51.7l1.3-2.6 1.6 3.7 1-2.3.4.7 2.4-2.5 2.5 3.8m40.7-16.5l1.7-3.3 2.3 1.2 1-3.3 2.4 1.5 1.3-3 2.7.7.2-2.2s1.8 1 2.3 1.9c.6.7 0-2.7 0-2.7l2.2 1s1.5-1.6-.6-2.4" stroke="#004B00" stroke-width=".5"/><path d="M212.6 112.1l2.3 3.4 2-2.2 1.7 3.8 2.3-1.4 3.2 1.9 1.5-1.2 3.5 2.5 1.4-3 3.2 1 2-3.5m-84.4-9.2s1.4-2.3 1-3.4c-.7-1 2.8 1.8 2.8 1.8s.7-2.3.3-3.4c-.6-1 3.9 3.2 3.9 3.2s.7-3.7 0-4.4c-.8-.8 4.3 1 4.3 1s2-.6 1.2-1.6c-.8-1.1 3.4 1.5 3.4 1.5s1-2.6 0-3.6 3.2 1.3 3.2 1.3l-1.6-2.8 3.4.2-.3-3.2m30.3 45.1l2.2-1 2 2 2.2-3.5 2.6 2.5.4-2.5 2.8 1.2.6-1.6 3.1 1.7.3-2.4 1.6.5.3-1.5" stroke="#004B00" stroke-width=".5"/><path d="M152.1 247.1a69.8 69.8 0 0 1-6-13l42.4-37.2 42.3 37.1a64.7 64.7 0 0 1-6.2 13.3l-.3.5-3.2-1.2s-1.4 1.3-2.5 1.4c-1.4.2-2.7-1.3-2.7-1.3s-1.8 1.6-3.7 1.3c-1.9-.2-2.6-1.4-2.6-1.4s-2 1.6-3.4 1.3c-1.2-.3-2.1-1.2-2.1-1.2s-1.2 1.5-2.8 1.2c-1.6-.3-3-1.2-3-1.2s-2.5 1-4 1.3c-1.6.3-3-1.4-3-1.4s-2 1.4-2.8 1.4c-.8 0-3.7-1.4-3.7-1.4s-3 1-4.1 1c-1 0-4-1.3-4-1.3s-2.9.8-4.1.8c-1.4 0-3.4-.8-3.4-.8s-2.3 1.1-3.6.8c-1.4-.3-2.4-.8-2.4-.8s-2.6 1.1-4.2.8c-1.6-.3-3.4-1.4-3.4-1.4s-.3.8-3.4 1.4" fill="#9DD7FF"/><path d="M188.5 154.1V197l-42.3 37.4a84.2 84.2 0 0 1-4.4-27.1V154h46.7" stroke="#000" stroke-width=".7" fill="#FFF"/><path d="M188.5 154.1V197l42.2 37.4a84.2 84.2 0 0 0 4.3-27.1V154h-46.5" stroke="#000" stroke-width=".7" fill="#FFD83C"/><g stroke="#000" stroke-width=".5"><path d="M161.2 238.2c3.2 1.7 2 1.2 8.7 3.5a61.8 61.8 0 0 0 20.7 2.8c8 0 12.4-.7 15-1.4 2.5-.7 3.1-1.8 3.1-1.8l-6.5 6.7s-26.3 1.4-31-1.7c-2-1-6-4.2-10-8v-.1z" fill="#730000"/><path d="M199.8 225.8s8.4 4.8 0 14m-37.8-1l12-11.6-1.3 15.4m6.3 1.4v-25.8m20.8 25.8v-27.4m-10.5 27.9V215"/><path d="M179 219.6l-5.4 1.7 5.4.6v-2.3zm10.3-4l-5.8 2.1 5.8.2v-2.4.1zm10.5 1.5l-5.8 2.2 5.8.3V217v.1zm3.4 12.4c-.3-1.1 3.4-1 3.4-1s1 3.9 0 6.3l-3.1-.6s.3-2.6-.3-4.7z" fill="#FF0018" fill-rule="nonzero"/><g fill="#FFF"><path d="M163.8 237.1l10.3-10-.5 6s-5.3 3.5-5.3 5.9l-4.5-1.9zm5.5 2.1s1-3.1 4-4.7l-.3 6.3-3.7-1.6zm14.7-17.3s4.2-.6 7.4 0c0 0-.5 4.2 0 5 0 0-5.8-1.4-8.1.8 0 0-.8-4 .7-5.8zm-8.9 1s4.2-.5 7.4 0c0 0-.8 4.8-.3 5.5 0 0-4.7-2.6-7-.4 0 0-1.6-3.3 0-5l-.1-.1z" fill-rule="nonzero"/><path d="M174.9 228.4s4.2-.4 7.3 0c0 0-.5 4.3 0 5 0 0-5.5-1.2-7.8.8 0 0-1.1-3.9.5-5.8zm8.4-.7s6-.8 9.1-.3c0 0-1.2 3.4.3 5.7 0 0-6.5-1.7-9 .3 0 0-2-3.9-.4-5.7zm-9 6.5l8.2.6s-.8 6-.3 6.7c0 0-6.6-1.5-7.8.6 0 0-2.2-5.4 0-7.9h-.1zm9.2 0s7-.5 10.3 0c0 0-1.9 4.5.2 8.4 0 0-9.2-2.6-10.5-.5 0 0-2.1-5.4 0-7.9zm10.8-12.3s4.2-.6 7.3 0c0 0-.5 4.2 0 5 0 0-5.8-1.4-8 .8 0 0-.9-4 .7-5.8zm0 5.8s4.2-.5 7.3 0c0 0-.5 4.2 0 5 0 0-5.8-1.3-8 .7 0 0-.9-3.9.7-5.7zm.5 6s4.2-.6 7.4 0c0 0-1 6.6-.6 7.4 0 0-4.8-2.3-7-.3 0 0-1.4-5.2.2-7v-.1z" fill-rule="nonzero"/><path d="M203.5 234.2s1.3 5 3 5.6l-2.2 2.8s-2.9-2-3.2-4.4c0 0 1.9-2.1 2.4-4z"/></g></g><path d="M224.4 247.7a66.2 66.2 0 0 1-36 28.3 67.3 67.3 0 0 1-36.3-28.8h.1c3-.7 3.4-1.5 3.4-1.5s1.8 1.1 3.4 1.4c1.6.3 4.2-.8 4.2-.8s1 .5 2.4.8c1.3.3 3.6-.8 3.6-.8s2 .8 3.3.8c1.3 0 4.1-.8 4.1-.8s3 1.3 4 1.3c1.1 0 4.2-1 4.2-1s2.9 1.4 3.7 1.4c.7 0 2.8-1.4 2.8-1.4s1.4 1.7 3 1.4c1.5-.2 4-1.3 4-1.3s1.4.9 3 1.2c1.6.3 2.8-1.2 2.8-1.2s.9.9 2.1 1.2c1.4.3 3.3-1.3 3.3-1.3s.8 1.2 2.7 1.4c1.8.3 3.7-1.3 3.7-1.3s1.3 1.5 2.7 1.3c1.1-.1 2.5-1.4 2.5-1.4l3.3 1" fill="#006AC8"/><path d="M222.7 250.2c-1.4.1-1.6-.8-1.6-.8s-2 1.6-3.8 1.3c-2-.3-2.9-1.5-2.9-1.5s-2 1.6-3.4 1.3a5 5 0 0 1-2.3-1.1s-1.3 1.4-3 1.1c-1.6-.2-3-1.1-3-1.1s-2.7 1-4.4 1.3c-1.6.3-3-1.5-3-1.5s-3.8 1.2-4.6 1.2c-.9 0-3.6-1.2-3.6-1.2s-1.9 1.1-3 1.1-4.2-1.3-4.2-1.3-3 .8-4.3.8c-1.4 0-3.5-.8-3.5-.8s-2.5 1-3.9.8l-2.4-.8s-2.7 1-4.4.8c-1.6-.4-3.6-1.4-3.6-1.4s-.3.7-3.5 1.4h-.1" stroke="#000" stroke-width=".5"/><path d="M162.1 254.2s-.3.7-2.8 1.2l-.7.2.6-.2-.7.3a44 44 0 0 0 11.7 11c4.5 3 9.6 6.6 18.4 9.2a71 71 0 0 0 17.8-9c6-4.5 9.2-7.2 12.6-11.7-2.7 1.5-2.3 1.5-3.7 1.3-1.3-.3-2.3-1.3-2.3-1.3s-1.3 1.5-3 1.3c-1.6-.3-3-1.3-3-1.3s-2.2 1.5-4.4 1.4c-1.6-.1-3-1.6-3-1.6s-3.8 1.3-4.6 1.3c-.9 0-3.6-1.3-3.6-1.3s-1.9 1.2-3 1.2-4.2-1.4-4.2-1.4-3 .8-4.3.8c-1.3 0-3.4-.8-3.4-.8s-2.5 1-4 .8c-1.3-.3-2.4-.8-2.4-.8s-2.7 1-4.4.8c-1.6-.3-3.6-1.4-3.6-1.4z" stroke="#000" stroke-width=".6" fill="#5AC800"/><path d="M188.6 275.9a89 89 0 0 0 17.1-8.6c-1 0-4-1-2.9-1.2 0 0-1.2 1-2.3 1-1.1 0-4.2-1.3-4.2-1.3s-3 .7-4.3.7c-1.4 0-3.4-.7-3.4-.7s-2.6 1-4 .7l-2.4-.7s-2.8 1-4.4.7c-1.6-.3-3.6-1.3-3.6-1.3s-2.4 1.3-4 1.4a55 55 0 0 0 18.4 9.3z" stroke="#000" stroke-width=".6" fill="#FFD800"/><path d="M182.2 198c1.9-1.6 3-3 2.3-4.2-.7-1-1.8.6-3 .2 0 0-2-1.1-2.5-2-1-1.2-2.5-2.3-3.3-3.4-.9-1-4.2-5.3-9.1-10.3-1.5-.9-1.1-4.4-2.2-5.5 0-.8-10-10.6-13.4-14-1.5-1.1-2.2-1.8-4.7.5-2 1.7-2.7 3.6-.1 5.8l12.8 11.7c1.9 1.8 4.5 2.1 5.6 3l13 13.4c1.7 1.4 2.5 2.4 1.5 3.6-1 2 .1 2.3.3 2.3.2.1 1.1.1 1.7-.4l1-.7h.1z" stroke="#000" stroke-width=".5" fill="#B34B00"/><path d="M149.7 163l13.4 13.2" stroke="#000" stroke-width=".5"/><path d="M167.8 169l1.1-2.5c.2-.4 3.8-6.2 5.6-6.3l11.3 8.2c0 .5-5 7.8-5.3 7.2 0 0-13.2-5.5-12.7-6.6z" stroke="#000" stroke-width=".6" fill="#FFF"/><path d="M175 171c-1.6-1.2-4.1-2.4-6.2-3.8l-.9 2c.7.8 10 5.1 11.6 6 0 0-1.8-2-4.6-4.2h.1z" fill="#CCB8C8"/><path d="M168.8 167a73 73 0 0 0 5 3.1c2.7 2 4.4 4 6.4 5.2" stroke="#000" stroke-width=".4"/><path d="M146.1 202l25.5-31.7c.5-.4 2.9-.4 3.2 2l-24.2 33s-2.7-.3-4.5-3.4v.1z" stroke="#000" stroke-width=".5" fill="#782121"/><path d="M231.7 202.3c-1 .7-2.4.8-2.4.8-1.7-1.9-3-4-5.4-6.5l-25.5-31.3 2.7-2.6 23 26.9c.6.7 4.6 4.9 8.4 9.8 0 0 .3 2-.8 2.9z" stroke="#000" stroke-width=".5" fill="#730000"/><path d="M207.1 169.3l-4-5s-3.2.5-3.8 2.1c0 0-2.2 3.7-8.2 4.1 0 0 1.7 7 8.6 10.7 0 0 2.5-7.2 5-8.4 0 0 2.5-1.9 2.4-3.6v.1z" stroke="#000" stroke-width=".5" fill="#FFF"/><path d="M196.9 191c-.6-.3-1.2 0-2 .4-.9.5-1.8.3-1.7-.7 0-.8 0-.7 1-1.4a6.3 6.3 0 0 1 5-.5l-2.3 2.1v.1zm27.8-27.8c-.2-.7-.4-1.4.3-2.2.7-.8.7-2.2-1-1.5-1.7.7-2.2 2.5-.9 5.4l1.6-1.7z" stroke="#000" stroke-width=".5" fill="#730000" fill-rule="nonzero"/><path d="M196.3 191.5l28.9-28.7 7.1 7.6s-1.5-.6-2-.2c-.5.4.5 1.9.5 1.9s-1.3-.5-1.9-.1c-.7.4 0 2 0 2s-1.2-.8-1.8-.5c-.5.4 0 2.3 0 2.3s-1.5-.5-2-.1c-.3.4 0 2 0 2s-1.5-.7-2.3 0c-.8.7.4 1.9.4 1.9s-2-.8-2.7.4c-.8 1.2.1 2.2.1 2.2s-1.6-.7-2-.4c-.4.4 0 2.3 0 2.3s-1.3-.8-2.2.2c-.9 1 .1 2 .1 2s-1.3-.8-2-.4c-.6.4.2 2.2.2 2.2s-1.2-.9-2.1 0c-.9 1 0 2 0 2s-1-1-2.2 0c-1 1 0 2.1 0 2.1s-1.5-.8-2.1 0c-.7.8.2 1.9.2 1.9s-1.2-.7-2-.3c-.7.4 0 2.1 0 2.1s-1.1-1.3-1.6-.6c-.6.7 0 2.4 0 2.4s-1-1.3-1.6-.6c-.7.6.4 2 .4 2s-2-.8-1.5-.8l-5.9-6.8z" stroke="#000" stroke-width=".5" fill="#FFF"/><path d="M223.5 165.2l-2.2 2.2.5 7.7s.5-2.2 1.1-.7c0 0 .2-1.8.7-1.5-.4-.2 0-7.8 0-7.8m-4.3 4.3l-1.6 1.5.6 7.7s.4-2.9 1.1-.6v-8.6m-17.6 17.2l-1.5 1.7.4 4.7s.5-3 1.1-.7l-.2-2.6.2-3" fill="#7E4B7E" fill-rule="nonzero"/><g stroke="#7E4B7E" stroke-width=".9"><path d="M199.9 167.3c1 1 4 5 4 5m-2.6-2.9c-.2.6-.6 2.3-1.5 3.2m2-2.8c-.2.4-.2 1.7-1.5 3m2-2.4c-.3.7-.4 1.2-.8 1.7m1-1c0 .4-.3.5-.4.8m-3.2-2.7a29 29 0 0 1-4.8 2.8m4-1.8a14 14 0 0 1-3.1 2.2m2.8-1c-.5.4-1.5 1.4-2.3 1.7m1.8-.5c-.4.5-1 .8-1.5 1.1"/><path d="M180.3 173.7c.3-.6.9-1.8 1.6-2.8 1-1.4 1.3-1.6 1.8-2" stroke-linecap="square"/></g><path d="M86 252.4c1.5.7 0-4.8.5-6.8.6-2.2 4.8 5.2 6.8 6.2 2.2 1 15.3-5.2 15.3-5.2l3.1-5.8 1.7 4.8s3.6-4.2 4.6-5.8c1.1-1.6 0 3.1-1 4.7-1.1 1.5 3.1 2.1 2.6 5.3-.5 3 4.2-2.2 4.2-2.2l12.1 1s2-7.3 5.3-11.5l1 4.8 5-5.1a65.9 65.9 0 0 0 41.3 39.2 66.6 66.6 0 0 0 40.2-36.6l6.7 7s5.3-1.6 6.3-2.2a70.3 70.3 0 0 1 15.5 5.6c1 .7.3-3.5.3-3.5s5.8 1.1 5.3 4.2c0 0 1.2-2.9 2.3-3.4 1.1-.5 3.6 2.7 4.2 3.7.5 1 13 2.6 14.7 3.6 0 0 1.3 1.6 1.3 2.7 0 0 2.7-.3 4.7-.3 0 0-1.5.8-1.5 2.4 0 1.6-.8 2.9-2.4 3.6-1.5.8 0 1.4 2 1.6 2.2.3 0 3-4.1 4.5 0 0-1 2.3.8 3.1 0 0-3.7.3-4.2-.8 0 0-1.3 2.5-1.3 3.8 0 0-4-1.3-5-1.9 0 0-1.6 1.6-.5 2.3 0 0-7.1-.7-8.5-3.4 0 0-2.5.8-2 1.7 0 0-5-3.4-6.6-3.4l-1 1.7s-3.5-2-4.5-2-.2 1.5-.2 1.5l-4.8-2.9-1.9 3-5-2.7c-1-.8-1.2 1.6-2 1.9 0 0-1.6-2.2-3.7-1.9 0 0-.8 2.6-.5 3.4l-7.1-1.5c-1.1-.3-.5 1.2 0 2.3 0 0-4.5-1.3-5.5-2l-.3 2s-3.7-.3-4.5-1l-2.3 3.1h-3.5l-.7 2.9s-6.6-1.9-7.2-.8c-.5 1 .3 2.6.3 2.6l-5.7-.7-.5 2.3s-6.7-2-8.2-1c0 0-2 2-3.4 2.6-1.3.5 0-.8 0-.8l-2-2.9s-2.4 1.3-3.8.8c-1.3-.6-5.5 2-6.8 1.3 0 0 0-1.9-1.1-2.4-1-.4-2.8-.4-3.6.8l-2.2-3c-1.2-2.2-3.1.1-3.1.1l-.3-2.5-3.6-.3c-2.2-.3-2.6-2.2-2.6-2.2s-5.6.6-6.4.3l1.4-1.3s-7.6 1.6-9.2 1c-1.7-.5 1.8-2.6 1.8-2.6l-8.4-2c-1.3-.4-9 1.2-10 1.2s-1.6-1.8-1.6-1.8-1.8 1.6-3.4 2.1c0 0-1.3-3.1-.5-3.4 0 0-5 1.3-5.3 2.6 0 0-1.2-2-1-3 0 0-2.4 3.8-3.5 4.6-1 .8-.2-1.9-.2-1.9s-2.9 3.7-4 4v-2.6s-8.4 4.5-10.7 3.9c0 0 0-1.9.8-2.4l-5.3-.2c-1.3-.2-2.8-.8-4.2-1.1-1.3-.2 1.9-1.6 4-1 0 0-5.8-2.1-7.6-1 0 0-.8-2.2 2.3-3 0 0-4-3.9-6.3-3.6 0 0 2.6-1.6 4.8-.8 0 0-2.5-6.6-4-7.4 0 0 5.5-1 7.1-.2z" stroke="#060" stroke-width=".5" fill="#289400"/><path d="M77.9 137.8L149 101c.3-2-.7-3.4-1.9-5-20.3 10-38.8 22.2-61.4 29.5-1.3.5-12.5 5.2-18.3 12.1a7.7 7.7 0 0 0-2 4.5s.2 3.1.9 4c0 0 .1.8 1.2 1.5 0 0 .7.3 1.1.2.5 0 1.4 0 2.6-2a52.4 52.4 0 0 1 6.7-8z" stroke="#000" stroke-width=".5" fill="#730000"/><path d="M135.1 101.4l9.2-4.4s3.1 2.3 2.8 5c0 0 .7 6 8.2 10.2 0 0-6.3 8-17.4 8.6 0 0 1.2-10.4-1.1-13.5 0 0-.4.4-.2-.1.3-1-.2-4.5-1.7-5.3l.2-.5z" stroke="#000" stroke-width=".5" fill="#FFF"/><path d="M145.9 102.6c-2 .8-8.3 4.1-8.3 4.1m5.2-2.1c0 1-.6 3.3 0 5m-.8-4.7c0 .5-.8 2.2 0 4.6m-1-4.1c-.2 1-.4 1.5 0 2.6m-.8-2c-.2.5 0 .8 0 1.2m5.8-1.5c.3.7 2.9 4.8 4.5 6.5m-4.1-4.7c.3.8 1.7 3.6 2.8 4.7m-3-3c.4 1 1.1 2.7 2 3.7m-2-1.8a8 8 0 0 0 1.1 2.5" stroke="#7E4B7E" stroke-width=".8"/><g stroke="#000" stroke-width=".5"><path d="M211.3 97.3l26.1 12.8c5.2 2.5 7.1.2 10 1.5l51.6 26.2c4.5 2 7 2.5 6.3 4.8-.1 3.7 1.7 3.7 2.2 3.8.4 0 2.1-.2 2.8-1.2l.6-.6c.6-.6.5-.7.7-1 2.1-3 3.3-5.8 1-7.5-2.5-1.3-2.8 1.5-5.6 1.2 0 0-4.8-1.8-6.6-3.1-3.2-1.8-7.8-3.9-8.8-5-3.3-.6-28-14.6-42.1-21.6-1.5-1.2-2.3-5.9-5.3-7.4-.8-1.3-19.8-10-29.8-15-3.6-1.3-5.7-2.2-8.3 2.3-2.3 4.4-1.8 6.8 5.2 9.8z" fill="#B34B00"/><path d="M213.5 91.8l29.2 14.6"/></g><g stroke-width=".5"><path d="M52.512 19.296c-.192.576-.672.192-.672.384-.384 2.112-.288 3.168-.768 4.32a6.816 6.816 0 0 1-2.976 2.496c-1.92.672-4.32 2.976-8.16.864l-.576-.48s1.056 3.936-2.88 5.952l-15.072 7.872s-1.44 2.688-.48 6.24c0 .576.288 1.056-.288 1.44-.96.672-2.592 2.688-3.552 5.76 0 0-2.88-1.248-2.88-3.072 0-1.92 1.152-2.88 1.44-4.224.288-1.248.96-4.512.672-5.472-.384-1.056-2.208-1.44-2.88-1.92-.576-.288-1.344.48-1.248 1.344.096.96.768.768 1.536.96 0 0-.864 1.92-.768 3.264l-8.832 4.608 1.536 2.208c.384.672 1.248 9.792 3.84 14.112 2.592 4.32 3.552 3.072 4.128 3.648l1.92 1.92c.768.48 3.84.768 4.32-.96a8.64 8.64 0 0 1 3.072-3.936c1.92-1.536 5.76-5.184 5.76-6.912 0 0 2.208 6.528 1.92 11.904 0 0 8.16 1.632 15.456 1.824 7.296 0 11.04-1.44 11.04-1.44s.96-6.144.576-7.392c0 0 1.152 4.032 2.112 5.376.96 1.728 2.016 5.088 4.128 5.28 2.112.096 3.84-2.016 4.032-2.88v-6.528h8.352s3.648 1.44 4.8 1.248c1.248-.096 1.92-1.248.768-1.632l-.384-.288c1.152 0 2.496.672 2.496.672h4.128l-.096-.48c-.288-1.152-2.496-2.112-4.032-2.88-1.536-.48-3.36-1.152-4.512-1.248a19.2 19.2 0 0 0-5.952.384c-.768 0-3.744.384-5.568 1.248-.48.288-.96.384-.768-.96.288-1.248.192-7.488-1.248-10.08-1.152-1.92-.96-3.456-.864-4.992a83.52 83.52 0 0 0 0-8.448c-.288-1.632-2.4-3.84-6.336-4.224-3.648-.48-6.72-3.552-7.008-5.952-.288-2.496.384-6.912.768-8.928" stroke="#000" fill="url(#a)" transform="translate(73.8 88.2)"/><path d="M1.344 8.256c-.672 3.168-.672 5.856-.576 8.928.096 2.016 1.056 4.416 1.92 6.432a9.6 9.6 0 0 0 2.688 3.744c3.456 2.208 6.72-.192 8.544-.96a6.144 6.144 0 0 0 2.592-2.4c.48-1.152.288-2.016.768-4.32l.672-.384c.96-1.44.672-1.92 1.152-2.88.576-.96-.48-2.112-1.728-1.92.576-1.824.96-3.84.384-5.664-.192-.576.48-2.112-.576-1.728-4.416 1.728-9.6 1.344-14.208 1.344-.384 0-.768-.768-1.344-.672l-.288.48" stroke="#000" fill="url(#b)" transform="translate(108.36 88.2)"/><path d="M109.32 98.088c-.48-.384-.576-1.248 0-3.072.672-1.92 0-1.92 1.056-3.072 1.056-1.152.864-1.536 1.536-1.824.672-.192 2.688-.192 3.36-.48a10.56 10.56 0 0 1 8.64-.288c1.44.768 2.4 2.688 3.264 3.456.96.672 1.632 3.456 1.44 7.584-.288 4.128-1.152 3.36-1.152 3.36s-1.152-1.92-2.112-.288c0 0 0-1.632.192-2.88.096-1.056-.576-3.264.096-4.704 0 0-5.568 1.728-8.352 1.632-2.88-.192-7.104-.864-7.296-1.536l-.672 2.112" stroke="#000" fill="#000"/><path d="M112.2 94.728c-.288-.576-1.728-2.784-.576-3.456.96-.576.384 2.688 1.92 3.36 0 0-.576 1.44-1.344.096z" stroke="#FFF" fill="#FFF"/><path d="M115.368 102.696l-.864 3.072m10.176 1.536c.192.576.384.288.96.384m.288-3.84c.48-.48 1.152-.192.768 1.248m-16.992-4.704l2.688.96c1.44.576.576 2.784.192 4.128-.192.672-.96 1.92-.576 2.4.48.768 1.056.288 1.92.384 0-.288.576-.48.768-.48.672 0 1.056.48 1.632.288.576-.288.48-1.152.288-1.632m-.096-4.32c0-.384.96-.768 1.44-.864 2.016-.384 3.456-.672 5.184.48m-5.472 10.656c-1.728.384-3.456.672-4.992-.192m0-.768c.768-.384 1.056-.768 2.016-.288a4.8 4.8 0 0 1 1.056-.384c.768 0 1.344.288 2.112.768m-5.28.288c.96-.288 3.168-.288 5.184.096" stroke="#000"/><path d="M109.608 102.696c.672 0 1.536-.864 3.072.288 1.056.768-1.728 1.44-1.248 1.344-1.344.192-1.728-.48-1.824-1.152 0-.096-.192-.48 0-.48zm8.064.768c.672-1.344 1.728-.96 2.688-.768.96.288.672.096 1.632.672-1.152.096-.864.192-1.632.576-.864.48-1.632.672-2.208.288-.192-.192-.672-.48-.672-.96 0 .192 0 .288.192.288v-.096z" stroke="#000" fill="#FFF" fill-rule="nonzero"/><path d="M111.048 103.944c.384 0 .672-.384.672-.768 0-.576-.288-.96-.672-.96-.48 0-.864.384-.864.96 0 .384.384.768.864.768zm8.256.192c.384 0 .672-.384.672-.96a.768.768 0 0 0-.768-.768c-.384 0-.672.288-.672.768 0 .576.384.96.768.96z" stroke="#000" fill="#000" fill-rule="nonzero"/><g stroke="#000"><path d="M161.064 154.152a3.744 3.744 0 0 0-1.824-1.344l-1.92-.96c-.672-.384-1.632-.48-2.304-.864m.48 2.496l-.864-.48c-.288 0-.672 0-.96-.192 0 0 0-.192-.192-.192a3.36 3.36 0 0 1-2.304-1.248m-60.288-8.928c.96.672 3.072 2.112 3.264 4.896a10.08 10.08 0 0 0 .96 2.88M82.44 142.92c.48 1.632.576 7.104 5.76 12.864m-4.8-20.544c-.384 1.056-.96 2.112.192 2.88m13.824 10.272c1.056-2.496 4.416-2.304 4.416-4.608"/><path d="M102.408 148.008c-.288-2.784-.96-4.32-.384-8.352.192-1.152.384-5.664 0-7.776 0 0 1.536 7.488-3.552 8.928m33.024 12c0-3.84.96-5.952.96-5.952 1.152-5.376-1.152-7.392-.288-8.736.864-1.152 1.92-3.648.48-8.544 0 0 2.688 10.08-4.32 10.08-7.2 0-6.912-2.592-6.912-2.592"/><path d="M102.024 131.88c0 1.92 0 8.064 8.64 8.064 2.688 0 5.568-1.92 7.104-3.168m2.112-2.592c-.288-1.92-.288-4.224-.288-6.72m-13.056-3.264c2.304-.288 4.224-.576 8.64-.576m.192-6.048c.48 2.112-.288 5.568 3.84 6.048m4.128-6.816c-.576 1.536-.576 3.168-.768 4.224m.192 2.592c1.632 0 4.8-1.056 8.64-.288m1.344 21.888c.864 1.536.96 3.648 3.456 5.952m-30.432-10.944c.192 1.248-1.728 5.472-.288 8.928a11.808 11.808 0 0 1-1.152 10.56m6.432-18.24c-.864 1.632-2.208 3.168-2.496 4.512m6.336-1.536c0 .96-2.592 8.352-4.512 10.464 0 0 3.456 1.344 2.88 6.336m7.104-20.16c0 1.152-.192 1.536.96 2.304m2.304 0c1.248 1.536 5.28 6.24 4.416 8.832m-7.104-6.24c.288.96.288 6.048-.576 8.64m-2.016-.192c-1.056 0-2.688.768-2.88 2.592m8.352-2.88c1.056-.288 3.168 1.536 3.168 6.72m15.072-9.792c-2.016.576-2.88 1.632-2.304 1.056-1.056.96-2.112 1.536-2.112 1.536"/><path d="M107.208 139.08c.576 0 1.056-.384 1.056-.96 0-.288-.48-.672-1.056-.672-.48 0-.96.384-.96.768 0 .48.48.864.96.864zm22.08.288c.576 0 1.056-.384 1.056-.96 0-.384-.48-.672-.96-.672-.576 0-1.056.288-1.056.768 0 .48.48.864.96.864z" fill="#000" fill-rule="nonzero"/><path d="M98.28 179.208c1.248-7.68 4.8-13.92 4.896-14.592 0 0 3.744.864 10.176 1.44 6.336.672 8.064.384 11.04.192l6.528-.768s1.152 2.304 1.248 4.608c.288 4.992 2.208 26.592 2.4 32.352 0 0 .768 3.456.768 11.808 0 9.216 2.496 27.84 2.496 37.824l-2.496.48s-13.92 1.056-13.92-.768c0-2.016-.768-25.92 1.344-40.416 0 0-.48-2.88-1.344-5.28-.768-2.4-4.128-9.6-4.128-11.232 0 0-5.472 15.36-5.76 18.048-.288 2.496-1.152 36.864-1.632 39.648 0 0-7.872 6.048-8.928 6.72-1.056.384-8.64-3.264-8.928-4.224a202.56 202.56 0 0 1 4.416-31.872c1.344-6.816.576-8.064.576-9.984s.096-26.4 1.248-33.984z" fill="#FFF"/><path d="M111.528 213c-.576 2.112-1.632 4.128-3.456 5.472m-2.592-51.456c-.288 1.248-2.208 7.008-6.912 10.464m13.728-9.408c-1.056 3.456-5.28 21.792-6.048 43.584m-.288 6.816l-1.632 19.968m-.768 2.88a68.448 68.448 0 0 0-2.592 17.952m30.912-34.56c-.192 1.92-.96 15.072 3.456 26.88m-17.76-82.56c-.288 2.208-.768 16.032-.768 17.088 0 1.152 1.536 2.688 2.304 2.88 0 0-1.536.576-1.92 5.76m-3.84-12.288c-.288 1.632-1.92 8.16-2.88 10.848m12.48-24.48s4.8.96 5.088 0c0 0 1.536 28.32 3.648 44.16m-10.752-40.512l-.576 15.84m2.4 2.016s1.824 2.688 1.344 3.84m-17.088-26.88l2.88.768m4.992 1.536c-.288.864-.576 4.416-.576 4.416m8.448 37.344c.576.768 1.344 1.92.768 4.224"/><path d="M102.6 164.424s0-3.072 1.056-4.608c0 0 3.36.672 8.064 1.152 4.8.48 8.64.864 12.096.48 3.552-.384 7.104-1.248 7.104-1.248s.96 4.608.48 5.28c0 0-3.84.768-7.968.96a82.56 82.56 0 0 1-13.92-.768 54.72 54.72 0 0 1-7.008-1.248h.096z" fill="#9B5F00"/><path d="M105.48 164.808l.672-4.608h.96l-.192 4.896-1.344-.192m21.12-3.936l.096 5.28 1.248-.192-.096-5.376-1.248.288m-14.976 0l-.384 5.088h.672l.672-5.088h-.96" fill="#FFF" fill-rule="nonzero"/><path d="M94.728 256.968c-.288 1.248-.768 3.072-.96 5.28 0 .48-.576 3.168.96 3.264.96 0 1.344-2.784 1.344-2.784s-.96 3.168.288 3.552c1.728.384 1.92-3.456 1.92-3.456-.192 1.056-1.344 3.84.288 4.128 1.824.288 2.304-3.744 2.304-3.744s-1.536 4.032.288 4.128c1.632 0 1.632-3.84 1.632-3.84s-.864 4.8 1.44 4.32c1.344-.192 1.632-1.92 1.92-2.88.384-1.44 1.248-3.264.192-6.336-.768-2.208-.48-2.88-.48-2.88s-2.784 2.112-4.896 3.456c-.96.576-6.24-2.208-6.24-2.208zm28.512-4.224c-.48-.288-.384 1.824-.576 2.784-.096.96.192 3.072 3.456 2.88 3.264-.288 6.432-.96 8.544-.48 2.016.576 5.088.672 6.72.672 1.632 0 2.688-.192 3.552-.48.672-.288 2.112.384 2.88.384.768 0 1.632-.96 1.536-1.728 0-1.248-1.248-1.248-2.88-1.344a21.12 21.12 0 0 1-4.8-.96c-1.056-.288-2.976-1.44-5.472-1.92l-5.664.192c-.96 0-6.72.288-7.296 0z" fill="#FFA54B" fill-rule="nonzero"/></g><g stroke="#000"><path d="M74.472 131.208c-.48.288-1.056-1.92.384-2.784 0 0 .384-1.92 1.92-2.016 0 0 1.344-1.824 3.168-1.632 0 0 2.112-1.44 2.88-1.248.864.096 2.88 2.016 2.88 2.784.192.672 0 1.824-.48 2.304-.576.576-.96-.096-1.056-.96 0 0 .384 1.536-.768 2.112-1.152.672-1.056.192-1.152-.576 0 0-.384 1.536-1.152 1.824-.768.288-1.248-.48-1.92-.48 0 0 1.056.864.384 1.44-.672.48-1.44.288-1.92-.096-.48-.48-1.152-1.824-3.168-.576v-.096z" fill="#FFB366"/><path d="M84.072 127.56c-.48-1.44-2.112-2.88-3.84-2.688m2.112 4.224c-.288-.384-.384-.768-.768-1.152-.864-1.44-2.688-1.344-4.224-1.728m2.304 4.32c-.576-.384-.768-1.152-1.344-1.44-.96-.384-1.92-.864-3.168-.672"/></g></g><path d="M35.616 18.336c.672-.288.48.576.576.96.384 1.248.384 2.592.864 3.744.576 1.056.768 1.44 1.728 1.92 1.536.96 6.144 3.456 9.408 1.44.245-.128.471-.29.672-.48 0 0-1.248 3.936 2.88 5.952l14.976 7.872s1.44 2.592.576 6.24c-.192.576-.384 1.056.192 1.44.96.672 2.496 2.688 3.648 5.76 0 0 2.88-1.248 2.88-3.072 0-1.92-1.248-2.88-1.536-4.224-.192-1.248-.96-4.512-.576-5.472.384-1.056 2.016-1.44 2.688-1.92.672-.288 1.536.48 1.248 1.344 0 .96-.768.768-1.536.96 0 0 .96 1.92.768 3.264l9.024 4.608-1.536 2.208c-.48.672-1.44 9.792-4.032 14.016-2.688 4.32-3.552 3.168-4.032 3.84l-2.016 1.728c-.576.48-3.648.864-4.32-.864a8.64 8.64 0 0 0-2.976-3.936c-1.92-1.536-5.76-5.184-5.76-6.912 0 0-2.208 6.528-1.92 11.904 0 0-8.064 1.632-15.552 1.824-7.296 0-11.04-1.44-11.04-1.44s-.96-6.144-.576-7.392c0 0-1.152 4.032-1.92 5.376-1.056 1.728-2.112 5.088-4.224 5.28-2.112.096-3.84-2.016-4.032-2.88v-6.528h-8.352s-3.648 1.44-4.8 1.248c-1.248-.096-1.824-1.248-.864-1.632l.384-.288a6.72 6.72 0 0 0-2.4.672H0l.096-.48c.288-1.152 2.496-2.112 4.128-2.88 1.536-.48 3.168-1.152 4.416-1.248 1.824-.192 3.072-.096 5.952.384.768 0 3.84.384 5.568 1.248.48.288.96.384.768-.96-.288-1.248-1.152-5.28.288-7.968.96-1.824.864-3.36.768-4.992-.192-1.632-1.056-5.376-1.056-7.008 0-5.472 4.224-7.68 7.872-8.832 4.128-1.344 6.816-2.688 6.72-5.088-.192-2.592.48-6.72.096-8.64" stroke="#000" stroke-width=".5" fill="url(#c)" transform="translate(214.92 89.16)"/><g stroke="#000" stroke-width=".5"><path d="M19.488 7.296a19.2 19.2 0 0 1 1.152 5.088c0 1.152-.48 1.344-.096 2.688.672 2.304-.768 4.8-2.4 7.68-.768 1.152-1.344 2.88-2.592 3.648-3.264 2.016-7.2-.384-9.216-1.248a3.552 3.552 0 0 1-1.92-2.112c-.384-1.152-.48-2.208-.768-3.84 0-.288 0-1.152-.576-.864-1.248-1.344-.96-1.92-1.536-2.88-.48-.96.96-2.112 1.92-1.92a9.6 9.6 0 0 1-.192-5.664c.192-.576-.576-2.112.48-1.728 4.32 1.728 9.6 1.344 14.208 1.344.384 0 .672-.768 1.248-.672l.288.48" fill="url(#d)" transform="translate(247.56 89.16)"/><path d="M267.528 98.088c.384-.384.096-2.208-.384-4.128-.096-.96-.96-1.44-1.92-2.496s-1.536-.96-2.208-1.344c-.576-.192-1.92-.192-2.688-.48-.576-.288-2.112-.096-3.552.096-1.92.288-3.072.192-4.512.96-1.44.768-2.688 1.728-3.168 3.168-.384.96-.96 2.4-.768 6.528.192 4.128.96 3.36.96 3.36s1.056-1.632 1.824-.576l-.288-3.456c-.096-1.152 0-2.688.48-4.416 0 0 4.416 1.632 8.64 1.632 2.88 0 6.72-.288 6.816-.96l.672 2.112h.096z" fill="#000"/><path d="M261.384 102.696c.672 1.728.096 1.248.384 2.304m-9.792 1.92c0 .768-.576.576-.96.576"/><path d="M267.624 101.448c-.96-.672-2.592-.192-3.36.096-1.44.672-.672 2.208-.192 3.552.192.672.96 1.632.48 2.304-.384.768-.672.384-1.536.48 0-.288-.768 0-1.056 0-.576 0-.96.384-1.44.192-.576-.288-.48-1.152-.288-1.632m.096-4.32c0-.384-1.248-.768-2.592-.864-2.208 0-2.4.096-4.032 1.248m11.04 8.64c-.384-.576-.96-.96-2.016-.384 0-.192-1.536-.384-1.536-.384-.768 0-1.248.288-2.016.672m5.376.576c-.96-.576-3.168-.192-5.376-.192m.192.768c1.632.48 3.36.768 4.992 0"/><path d="M267.144 102.696c-.672 0-.96-.864-2.976.288-1.056.672 1.728 1.44 1.344 1.344 1.152.192 1.536-.48 1.632-1.152 0-.096.192-.48 0-.48zm-7.968.768c0-.768-1.728-.96-2.784-.768-.96.288-.48.096-1.44.672.96.096.672.192 1.536.576.864.48.96.864 2.208.288.288-.096.672-.48.768-.96 0 .192-.192.288-.288.288v-.096z" fill="#FFF" fill-rule="nonzero"/><path d="M265.896 103.944a.768.768 0 0 1-.768-.768c0-.576.288-.96.768-.96.384 0 .672.384.672.96 0 .384-.288.768-.672.768zm-8.352.192c-.384 0-.672-.384-.672-.96 0-.48.384-.768.768-.768s.672.288.672.768c0 .576-.288.96-.768.96z" fill="#000" fill-rule="nonzero"/></g><g stroke="#000" stroke-width=".5"><path d="M215.784 154.152a3.744 3.744 0 0 1 1.824-1.344l1.92-.96c.672-.384 1.632-.48 2.304-.864m-.48 2.496l.864-.48c.288 0 .672 0 .96-.192 0 0 0-.192.192-.192a3.36 3.36 0 0 0 2.304-1.248m60.288-8.928c-.96.672-3.072 2.112-3.264 4.896a10.08 10.08 0 0 1-.96 2.88m12.672-7.296c-.48 1.632-.576 7.104-5.76 12.864m4.8-20.544c.384 1.056.96 2.112-.192 2.88m-13.824 10.272c-1.056-2.496-4.416-2.304-4.416-4.608"/><path d="M274.44 148.008c.288-2.784.96-4.32.384-8.352-.192-1.152-.384-5.664 0-7.776 0 0-1.536 7.488 3.552 8.928m-33.024 12c0-3.84-.96-5.952-.96-5.952-1.152-5.376 1.152-7.392.288-8.736-.864-1.152-1.92-3.648-.48-8.544 0 0-2.688 10.08 4.32 10.08 7.2 0 6.912-2.592 6.912-2.592"/><path d="M274.824 131.88c0 1.92 0 8.064-8.64 8.064-2.688 0-5.568-1.92-7.104-3.168m-2.112-2.592c.288-1.92.288-4.224.288-6.72m13.056-3.264c-2.304-.288-4.224-.576-8.64-.576m-.192-6.048c-.48 2.112.288 5.568-3.84 6.048m-4.128-6.816c.576 1.536.576 3.168.768 4.224m-.192 2.592c-1.632 0-4.8-1.056-8.64-.288m-1.344 21.888c-.864 1.536-.96 3.648-3.456 5.952m30.432-10.944c-.192 1.248 1.728 5.472.288 8.928a11.808 11.808 0 0 0 1.152 10.56m-6.432-18.24c.864 1.632 2.208 3.168 2.496 4.512m-6.336-1.536c0 .96 2.592 8.352 4.512 10.464 0 0-3.456 1.344-2.88 6.336m-7.104-20.16c0 1.152.192 1.536-.96 2.304m-2.304 0c-1.248 1.536-5.28 6.24-4.416 8.832m7.104-6.24c-.288.96-.288 6.048.576 8.64m2.016-.192c1.056 0 2.688.768 2.88 2.592m-8.352-2.88c-1.056-.288-3.168 1.536-3.168 6.72m-15.072-9.792c2.016.576 2.88 1.632 2.304 1.056a12.25 12.25 0 0 0 2.112 1.536"/><path d="M269.64 139.08c-.576 0-1.056-.384-1.056-.96 0-.288.48-.672 1.056-.672.48 0 .96.384.96.768 0 .48-.48.864-.96.864zm-22.08.288c-.576 0-1.056-.384-1.056-.96 0-.384.48-.672.96-.672.576 0 1.056.288 1.056.768 0 .48-.48.864-.96.864z" fill="#000" fill-rule="nonzero"/><path d="M278.568 179.208c-1.248-7.68-4.8-13.92-4.896-14.592 0 0-3.744.864-10.176 1.44-6.336.672-8.064.384-11.04.192l-6.528-.768s-1.152 2.304-1.248 4.608c-.288 4.992-2.208 26.592-2.4 32.352 0 0-.768 3.456-.768 11.808 0 9.216-2.496 27.84-2.496 37.824l2.496.48s13.92 1.056 13.92-.768c0-2.016.768-25.92-1.344-40.416 0 0 .48-2.88 1.344-5.28.768-2.4 4.128-9.6 4.128-11.232 0 0 5.472 15.36 5.76 18.048.288 2.496 1.152 36.864 1.632 39.648 0 0 7.872 6.048 8.928 6.72 1.056.384 8.64-3.264 8.928-4.224a202.56 202.56 0 0 0-4.416-31.872c-1.344-6.816-.576-8.064-.576-9.984s-.096-26.4-1.248-33.984z" fill="#FFF"/><path d="M265.32 213c.576 2.112 1.632 4.128 3.456 5.472m2.592-51.456c.288 1.248 2.208 7.008 6.912 10.464m-13.728-9.408c1.056 3.456 5.28 21.792 6.048 43.584m.288 6.816l1.632 19.968m.768 2.88a68.448 68.448 0 0 1 2.592 17.952m-30.912-34.56c.192 1.92.96 15.072-3.456 26.88m17.76-82.56c.288 2.208.768 16.032.768 17.088 0 1.152-1.536 2.688-2.304 2.88 0 0 1.536.576 1.92 5.76m3.84-12.288c.288 1.632 1.92 8.16 2.88 10.848m-12.48-24.48s-4.8.96-5.088 0c0 0-1.536 28.32-3.648 44.16m10.752-40.512l.576 15.84m-2.4 2.016s-1.824 2.688-1.344 3.84m17.088-26.88l-2.88.768m-4.992 1.536c.288.864.576 4.416.576 4.416m-8.448 37.344c-.576.768-1.344 1.92-.768 4.224"/><path d="M274.248 164.424s0-3.072-1.056-4.608c0 0-3.36.672-8.064 1.152-4.8.48-8.64.864-12.096.48-3.552-.384-7.104-1.248-7.104-1.248s-.96 4.608-.48 5.28c0 0 3.84.768 7.968.96a82.56 82.56 0 0 0 13.92-.768 54.72 54.72 0 0 0 7.008-1.248h-.096z" fill="#9B5F00"/><path d="M271.368 164.808l-.672-4.608h-.96l.192 4.896 1.344-.192m-21.12-3.936l-.096 5.28-1.248-.192.096-5.376 1.248.288m14.976 0l.384 5.088h-.672l-.672-5.088h.96" fill="#FFF" fill-rule="nonzero"/><path d="M282.12 256.968c.288 1.248.768 3.072.96 5.28 0 .48.576 3.168-.96 3.264-.96 0-1.344-2.784-1.344-2.784s.96 3.168-.288 3.552c-1.728.384-1.92-3.456-1.92-3.456.192 1.056 1.344 3.84-.288 4.128-1.824.288-2.304-3.744-2.304-3.744s1.536 4.032-.288 4.128c-1.632 0-1.632-3.84-1.632-3.84s.864 4.8-1.44 4.32c-1.344-.192-1.632-1.92-1.92-2.88-.384-1.44-1.248-3.264-.192-6.336.768-2.208.48-2.88.48-2.88s2.784 2.112 4.896 3.456c.96.576 6.24-2.208 6.24-2.208zm-28.512-4.224c.48-.288.384 1.824.576 2.784.096.96-.192 3.072-3.456 2.88-3.264-.288-6.432-.96-8.544-.48-2.016.576-5.088.672-6.72.672-1.632 0-2.688-.192-3.552-.48-.672-.288-2.112.384-2.88.384-.768 0-1.632-.96-1.536-1.728 0-1.248 1.248-1.248 2.88-1.344a21.12 21.12 0 0 0 4.8-.96c1.056-.288 2.976-1.44 5.472-1.92l5.664.192c.96 0 6.72.288 7.296 0z" fill="#730000" fill-rule="nonzero"/></g><path d="M300.936 134.76c.48.192 1.92-1.92.48-2.88 0 0-.48-1.92-1.92-1.92 0 0-1.344-1.92-3.264-1.632 0 0-1.92-1.44-2.784-1.344-.96.192-2.88 2.112-2.88 2.88-.192.48 0 1.728.48 2.304.576.48.96-.096.96-.96 0 0-.288 1.44.864 2.112 1.152.672 1.056 0 1.152-.672 0 0 .288 1.536 1.056 1.92.864.192 1.344-.48 1.92-.48 0 0-.96.768-.288 1.248.672.576 1.44.288 1.92 0 .576-.48.288-1.728 2.304-.576z" stroke="#000" stroke-width=".5" fill="#730000"/><path d="M292.2 131.208c.48-1.728 2.112-3.072 3.84-2.784m-1.92 4.224c.096-.384.192-.768.48-1.152.96-1.536 2.88-1.536 4.416-1.824m-2.4 4.32c.576-.384.768-1.056 1.344-1.344a5.088 5.088 0 0 1 3.072-.672" stroke="#000" stroke-width=".5"/><path d="M292.008 128.328c-.864.672-1.728 1.728-1.824 2.112 0 .672 0 1.824.48 2.4.576.48.96 0 1.056-.768 0 .48 0 1.44.768 1.92 1.248.672 1.152.096 1.248-.672 0 0 .288 1.536.96 1.92.864.192 1.344-.48 1.92-.48 0 0-.96.768-.288 1.248.672.576 1.44.288 1.92 0 .576-.48.288-1.728 2.4-.576.192.192.768-.384.96-1.056l-7.392-5.28-2.208-.768z" fill="#730000"/><path d="M290.472 129.672c-1.44 2.496.48 3.936 1.056 2.496-.096 2.304 1.632 2.208 2.208 1.44.672 2.4 1.824 1.344 2.88 1.152-1.248 2.208 1.344 1.536 1.92.96.96-1.248 1.344-.192 1.92-.288l1.248-1.248m-7.68-5.472c-1.632.96-2.4 2.112-2.496 3.552m4.8-2.112c-1.728.96-2.496 2.112-2.496 3.552m5.184-1.632c-1.632.864-1.728 1.632-2.4 2.688" stroke="#000" stroke-width=".5"/><path d="M107.5 259.7l-.2-4.5 1.9 1.6.4-3.4c.8-.2 2.1 1.3 2.1 1.3l-.2-3.4 2.8 3.1s-.2-2.6.8-4.2c0 0 2.2 1.9 2.2 4 0 1.9 1.8-2.6 1.8-2.6a2905.29 2905.29 0 0 0 1.6 5l1.3-1.9 1 4 2.4-3.5 1.8 4 4.2-.3.5 2.4 1.9-2 2.4 1.5s2-.6 3.1-.6 2.4 1.4 2.4 1.4.8-1.4 1.5-1.9 1.9.8 2.2 1.6l1.6-2.9s2 2 2.3 2.9c0 0 .3-2.4.8-3.2.5-.7 1.2.3 1.8 1.3l1.3-4.2s1.4.3 2.3 1.9c1.1 1.5 1.1-2.4 1.1-2.4s2.4 3.2 3 5.3c0 0-16.2 5.6-27.6 4a306 306 0 0 1-24.5-4.3zm110.9-.5s.7-2.1 1.8-3.2c0 0 2 2.4 2 3.2l1.7-1 1.6 1.5 1.8-1.3 1.8 1.6 3.2-1.4 1.3 1.4 5-.6 1.8.8 1.8-2.3 1.6 1.8 2.7-2.6s1.3 1 1.5 1.8c0 0 2.2-1 2.7-1.8 0 0 2-.8 2.3.5 0 0 1.3-1 1.2-2-.1-1.2 1.5-.4 2 1 0 0 .5-2.2 2-2.4 0 0 1.2 1.3.9 3.7 0 0 2.3-1.9 3.4-2.1 0 0 .5 2.6-.3 5 0 0 2.4-4 3-2.7.1.8.7 3.5.1 5.3l2.2-1.3.8 2.6 2.3-.5s-13.9 2.1-27 .9c-13-1.3-25.3-5.9-25.3-5.9h.1zm-9.7 9.7c.6-.4-4.4 10.3-16.5 10.9-16.9.8-31.3-7.7-31.3-7.7s1.8-2.9 2.9-3.7c0 0 2.3 1.9 3 4.2 0 0 .4-1.5 1.2-2.9 0 0 2.9 1.4 3.4 3.2 0 0 1-1.8 1.8-2.3.8-.6 1.6 2 1.6 3.6 0 0 1.9-2 3-2 0 0 2 1 2.6 4.3 0 0 2-1.8 2.6-1.5 0 0 2.3 1.5 1.8 3.7-.3 1.2 2.3-1.4 5.5-2.2l2.9 2.2 3.4-4.7s2.1.8 2.1 2c0 0 1-3.7 1.8-4 .8-.5 1.8 1.1 1.8 2.2 0 0 .3-2.8 1.9-3.4 0 0 1.6 1 1.6 2.1 0 0 1.6-3.2 2.9-4z" fill="#5AC800" fill-rule="nonzero"/><path d="M107.5 259.7l-.2-4.5 1.9 1.6.4-3.4c.8-.2 2.1 1.3 2.1 1.3l-.2-3.4 2.8 3.1s-.2-2.6.8-4.2c0 0 2.2 1.9 2.2 4 0 1.9 1.8-2.6 1.8-2.6l1.6 5 1.3-1.9 1 4 2.4-3.5 1.8 4 4.2-.3.5 2.4 1.9-2 2.4 1.5s2-.6 3.1-.6 2.4 1.4 2.4 1.4.8-1.4 1.5-1.9c.8-.5 1.9.8 2.2 1.6l1.6-2.9s2 2.1 2.3 2.9c0 0 .3-2.4.8-3.2.5-.7 1.2.3 1.8 1.3l1.3-4.2s1.4.3 2.3 1.9c1.1 1.5 1.1-2.4 1.1-2.4s2.4 3.2 3 5.3m58.7-.8s.8-2.1 1.9-3.2c0 0 2 2.4 2 3.2l1.7-1 1.6 1.5 1.8-1.3 1.8 1.6 3.2-1.4 1.3 1.4 5-.6 1.8.8 1.8-2.2 1.6 1.7 2.7-2.6s1.2 1 1.5 1.8c0 0 2.2-1 2.7-1.8 0 0 2-.8 2.3.5 0 0 1.3-1 1.2-2-.1-1.2 1.5-.4 2 1 0 0 .5-2.2 2-2.4 0 0 1.2 1.3.9 3.7 0 0 2.3-1.9 3.4-2 0 0 .5 2.5-.3 4.9 0 0 2.4-4 3-2.7.1.8.7 3.5.1 5.3l2.2-1.3.8 2.6 2.3-.5m-109.8 8s1.8-3 2.9-3.7c0 0 2.3 1.8 3.1 4.2 0 0 .3-1.6 1-3 0 0 3 1.4 3.5 3.2 0 0 1-1.8 1.9-2.3.7-.6 1.5 2 1.5 3.6 0 0 1.9-2 3-2 0 0 2 1 2.6 4.4 0 0 2-1.9 2.6-1.6 0 0 2.4 1.6 1.8 3.7-.3 1.2 2.3-1.4 5.5-2.1l2.9 2.1 3.4-4.7s2.1.8 2.1 2c0 0 1-3.6 1.8-4 .8-.5 1.9 1.1 1.9 2.2 0 0 .3-2.8 1.8-3.4 0 0 1.6 1 1.6 2.1 0 0 1.6-3.2 3-4" stroke="#060" stroke-width=".5"/><path d="M140.3 294.4S129.9 297 126 297c-4 0-10.9-1.8-10.6-6 .2-2.8 4.8-3.8 8-4.1 2.3-.2 5.3 0 17 7.5m96.1 0S247 297 251 297c3.9 0 10.7-1.8 10.4-6-.2-2.8-4.8-3.8-7.9-4.1-2.3-.2-5.4 0-17 7.5m-83.4-9.3a93.7 93.7 0 0 1-3.1-2.3c-1.5-1.1-3-2-4.5-3.2 0 0 2.1-2.7 3.2-3 1.7-.6 3.7.3 4.1 3.8.3 2.7.3 4.7.3 4.7m-7.1 27.6c1.8 1 3.9 1 5.1.8 3.7 0 6.6-2.1 6.5-8.9 0 0 4.5 2.3 11.8 4 0 0 1.2 1.5 1.4 4.4.3 2.5-1.4 5.1-3.3 5 0 0-10.3-2-16.5-3-3.7-.7-5-2.3-5-2.3m77.7-27.6l3.2-2.3 4.4-3.2s-2.1-2.7-3.2-3c-1.6-.6-3.6.3-4 3.8l-.4 4.7m7.1 27.6c-1.8 1-3.9 1-5.1.8-3.6 0-6.5-2.1-6.5-8.9 0 0-4.5 2.3-11.7 4 0 0-1.3 1.5-1.5 4.4-.2 2.5 1.5 5.1 3.4 5 0 0 10.3-2 16.5-3 3.6-.7 5-2.3 5-2.3" fill="#69F" fill-rule="nonzero"/><g stroke="#000" stroke-width=".7"><path d="M188.5 310.9c22 .2 35-7.8 42-12.6 16.8-11.2 20.3-11.6 23-11.4 3.1.3 7.7 1.3 8 4 .2 4.3-6.6 6.1-10.5 6.1-4 0-14.5-2.6-14.5-2.6l-2.7 1.9c1.8.8 23.2 8 27.3 1.2 4.2-6.8 8.4-17.9 8.4-17.9s-4.7-8.4-15.1-8.4c-10.6 0-20.8 6.7-27.7 11.7-6.8 5-15.4 11.8-38.2 11.8-22.8 0-31.6-6.8-38.4-11.8-6.9-5-17.1-11.7-27.6-11.7s-15.2 8.4-15.2 8.4 4.2 11 8.4 18c4.1 6.7 25.5-.5 27.4-1.4l-2.7-1.8S130 297 126 297s-10.9-1.8-10.6-6c.2-2.8 4.8-3.8 8-4.1 2.7-.2 6.2.2 22.9 11.4a72 72 0 0 0 42.2 12.6z"/><path d="M153.1 285s0-1.9-.3-4.6c-.4-3.5-2.4-4.4-4-3.9-1.2.4-3.3 3-3.3 3v.1a31.9 31.9 0 0 0-3-1.8 18 18 0 0 1 6.3-3.6c1 0 14.5 5.4 18.8 9.1 1 1 1.8 7 1.2 9a46.6 46.6 0 0 1-15.7-7.2v-.1zm-6.5 13.7s-2.9 3-3 8.3c0 6.3 4.5 6.6 7.5 6.5 3.7 0 6.6-2.1 6.5-8.9 0 0-6-2.5-11-6v.1z"/><path d="M149.1 300.1s-2.3 2.5-2.7 6.5c-.2 3.1 1.8 4.9 4.5 4.7 3.7-.2 5.1-5.3 3.4-8.1l-5.2-3"/><path d="M146 312.7c1.8 1 3.9 1 5.2.8 3.6 0 6.5-2.1 6.4-8.9 0 0 4.5 2.3 11.8 4 0 0 1.2 1.5 1.4 4.5.3 2.4-1.4 5-3.3 4.8L151 315c-3.7-.7-5-2.3-5-2.3zm77.7-27.6l3.3-2.3c1.3-1.1 2.8-2 4.4-3.2 0 0-2.2-2.7-3.3-3-1.6-.6-3.6.3-4 3.8l-.4 4.7z"/><path d="M223.7 285l.4-4.6c.4-3.5 2.4-4.4 4-3.9 1 .4 3.2 3 3.2 3v.1a31.9 31.9 0 0 1 3-1.8c-.7-.9-5.2-3.6-6.2-3.6s-14.5 5.4-18.8 9.1c-1 1-1.8 7-1.3 9a45.7 45.7 0 0 0 15.7-7.2v-.1zm6.5 13.7s2.9 3 3 8.3c.2 6.3-4.5 6.6-7.5 6.5-3.6 0-6.5-2.1-6.5-8.9 0 0 6-2.5 11-6v.1z"/><path d="M227.7 300.1s2.4 2.5 2.8 6.5c.3 3.1-1.9 4.9-4.5 4.7-3.7-.2-5.1-5.3-3.4-8.1l5.1-3"/><path d="M230.9 312.7c-2 1-4 1-5.2.8-3.6 0-6.5-2.1-6.5-8.9 0 0-4.5 2.3-11.7 4 0 0-1.3 1.5-1.5 4.5-.2 2.4 1.5 5 3.4 4.8l16.5-2.9c3.6-.7 5-2.3 5-2.3z"/></g><path d="M168.6 310.4s3.3 2.4-.7 5.3m-9-6.8l10 4.3m-8.3-2.1l7.2 3.1m-4.6-5l5.4 2.5m39.7-1.3s-3.3 2.4.6 5.3m9-6.8l-10 4.3m8.4-2.1l-7.2 3.1m4.6-5l-5.4 2.5" stroke="#FFF" stroke-width=".7"/><path d="M130 280.4c.2.2.2.4.3.7a2.5 2.5 0 0 1 0 .8 2.4 2.4 0 0 1-1.2 1.6 3 3 0 0 1-2.2.4 3.7 3.7 0 0 1-1-.4 4.3 4.3 0 0 1-1-.6l-.3.4-.4-.1.4-2.9.5.1c0 .4 0 .7.2 1l.3 1 .7.6c.2.2.5.3.9.4h.7a1.2 1.2 0 0 0 .9-.6 1.8 1.8 0 0 0 .2-.6 1.7 1.7 0 0 0-.1-1 1.8 1.8 0 0 0-.7-.7 48.3 48.3 0 0 0-.8-.5l-.8-.6c-.5-.3-.8-.6-1-1-.2-.4-.2-.8-.1-1.4 0-.3.2-.6.4-.8a2.5 2.5 0 0 1 1.5-1 2.9 2.9 0 0 1 1 0l1 .4.8.6.3-.4.5.1-.5 2.8-.5-.1a11.2 11.2 0 0 0 0-1 3.6 3.6 0 0 0-.4-.8 2 2 0 0 0-.5-.7 2 2 0 0 0-.8-.4 1.4 1.4 0 0 0-1 .2c-.4.2-.6.5-.6.8v1l.7.7.8.5a14.1 14.1 0 0 1 1.3 1c.2 0 .4.3.5.5zm12 1.6l-.5-.1a1.4 1.4 0 0 0-.5-.1c-.2 0-.4.1-.5.3a5.7 5.7 0 0 0-.6 1l-1.8 3.1a2.4 2.4 0 0 1-1.9 1.3h-1.1a4.2 4.2 0 0 1-1-.5 4.3 4.3 0 0 1-1-.8 3 3 0 0 1-.7-1 2.2 2.2 0 0 1-.1-1 2 2 0 0 1 .2-.8l2.4-4.3a.9.9 0 0 0 .1-.4v-.3a1.5 1.5 0 0 0-.3-.3l-.4-.3.2-.3 3.1 1.7-.2.3-.3-.1a2 2 0 0 0-.4-.1h-.4a.9.9 0 0 0-.2.3l-2.2 4a3.3 3.3 0 0 0-.3.7 1.8 1.8 0 0 0 0 .8c0 .2 0 .5.2.7l.9.8 1 .3a1.9 1.9 0 0 0 1.5-.5l.5-.6 1.6-3 .5-1v-.6c0-.2-.2-.3-.4-.5a3.6 3.6 0 0 0-.4-.3l.2-.4 3 1.7c-.066.1-.132.2-.2.3zm4.3 7.5a1.9 1.9 0 0 1 0 1.8 2 2 0 0 1-.8.8 2.2 2.2 0 0 1-1 .3l-1-.1a4 4 0 0 1-.9-.4l-3.5-2 .2-.4a5 5 0 0 0 .8.3.5.5 0 0 0 .3 0 .7.7 0 0 0 .3-.3l3-5.3a1 1 0 0 0 .1-.3.6.6 0 0 0-.1-.4 1.7 1.7 0 0 0-.3-.3l-.3-.2.2-.4 3.4 2 .7.5.6.7a1.6 1.6 0 0 1 0 1.6 1.8 1.8 0 0 1-.6.6l-.7.3a2.5 2.5 0 0 1-.7 0 3.3 3.3 0 0 1-.8-.2v.1a5 5 0 0 1 .6.6l.5.7zm-.6-1.8c.2 0 .4-.2.5-.3a2.7 2.7 0 0 0 .5-.6c.2-.4.3-.8.2-1.2-.1-.3-.4-.6-.9-.9l-.4-.2-.4-.3-1.6 2.8.6.4.8.3h.7zm-.6 2.7c.2-.4.3-.8.1-1.3 0-.4-.4-.8-1-1.1a29 29 0 0 0-.5-.4l-.4-.1-1.5 2.5a.6.6 0 0 0 0 .7c.1.2.4.4.7.5.5.3 1 .4 1.4.3.5-.2.8-.5 1.2-1v-.1zm18.9 4.3a3.5 3.5 0 0 0-.5 0 1.4 1.4 0 0 0-.6-.1c-.1 0-.3.1-.4.4a5.9 5.9 0 0 0-.5 1l-1.5 3.3c-.1.4-.4.7-.7 1a2.6 2.6 0 0 1-1 .4 3.2 3.2 0 0 1-1.1 0 4.3 4.3 0 0 1-2.2-1 3.1 3.1 0 0 1-.7-.8 2.2 2.2 0 0 1-.3-1 2 2 0 0 1 .2-.9l2-4.5a.9.9 0 0 0 0-.4.7.7 0 0 0-.1-.3 1.6 1.6 0 0 0-.3-.3l-.4-.2.2-.4 3.3 1.4-.2.4a3.5 3.5 0 0 0-.4-.1 2.3 2.3 0 0 0-.4 0h-.3a1 1 0 0 0-.2.3l-1.9 4.3-.2.7a1.7 1.7 0 0 0 .4 1.4c.2.3.5.5 1 .7l1 .2a1.9 1.9 0 0 0 1.5-.7 2.5 2.5 0 0 0 .4-.6l1.3-3.1.3-1v-.7l-.4-.4a3.7 3.7 0 0 0-.5-.3l.2-.4 3.1 1.4-.1.3zm9.2 10.8l-3.6-1v-.4a9 9 0 0 0 .6 0l.4.1a.8.8 0 0 0 .4-.2.7.7 0 0 0 .2-.3l1.7-5.8a1.4 1.4 0 0 0-.1 0l-4.8 6h-.3l-.6-7.9-1.5 4.8-.2 1.1.1.6.5.4a3.2 3.2 0 0 0 .5.3l-.2.4-3.2-1v-.4h.6a1 1 0 0 0 .5 0c.2 0 .3-.2.5-.4l.3-1 1.2-4.2a1.7 1.7 0 0 0 .1-.6 1 1 0 0 0-.1-.4 1.2 1.2 0 0 0-.4-.4 2 2 0 0 0-.5-.2l.1-.4 2.8.8.6 6.7 3.5-4.5.3-.5a2.8 2.8 0 0 0 .2-.4l2.7.8-.1.4a3.9 3.9 0 0 0-.5 0 2.4 2.4 0 0 0-.4-.1.4.4 0 0 0-.3.1 1 1 0 0 0-.1.4l-1.7 5.8a.8.8 0 0 0 0 .3l.1.3a3.4 3.4 0 0 0 .8.4l-.1.4zm8.7-2.6a1.9 1.9 0 0 1 .7 1.7l-.4 1c-.2.3-.5.4-.8.6-.3.2-.6.2-1 .3h-1l-4-.5v-.4h.5a1.7 1.7 0 0 0 .4 0 .5.5 0 0 0 .3-.2.7.7 0 0 0 .1-.4l.8-6a1 1 0 0 0 0-.3.6.6 0 0 0-.3-.3 1.7 1.7 0 0 0-.4-.2h-.3v-.5l3.9.5c.3 0 .6 0 .9.2l.7.4a1.6 1.6 0 0 1 .6 1.5l-.2.8a1.7 1.7 0 0 1-.6.5 2.6 2.6 0 0 1-.6.3 3.4 3.4 0 0 1-.8.2l.8.3.7.5zm-1.3-1.5l.4-.5.2-.7a1.5 1.5 0 0 0-.3-1.1c-.2-.3-.6-.5-1.1-.5a25.83 25.83 0 0 0-1-.1l-.4 3.2h.8c.3.1.6 0 .8 0a1.3 1.3 0 0 0 .6-.3zm.5 2.8c0-.5 0-1-.3-1.3-.3-.3-.8-.5-1.4-.6l-.7-.1h-.4l-.3 2.9a.6.6 0 0 0 .2.6l.8.3c.6 0 1 0 1.5-.4.3-.3.5-.7.6-1.4zm11.4 2.6h-2.2a44 44 0 0 0-1.4-2l-1.3-1.8h-1v2.7l.1.4.3.2h.4l.5.1v.4h-3.6v-.4h.4l.4-.1a.5.5 0 0 0 .2-.2.7.7 0 0 0 .1-.4v-6.4l-.3-.3a2.2 2.2 0 0 0-.4 0l-.4-.1v-.4h4.9a2.8 2.8 0 0 1 .9.4l.6.6a2.3 2.3 0 0 1 0 1.8 2 2 0 0 1-.4.7 2.5 2.5 0 0 1-.7.4 5.3 5.3 0 0 1-.8.3l1 1.4c.3.4.7.8 1 1.4a2.5 2.5 0 0 0 1 .8 3 3 0 0 0 .8.1v.4h-.1zm-3.1-6.2c0-.5-.2-1-.4-1.2-.3-.3-.8-.5-1.3-.5h-1v3.6h.8c.5 0 1-.1 1.3-.5.4-.3.6-.8.6-1.4zm13 5.6l-3.6.3v-.4l.7-.2c.2 0 .3-.2.3-.2v-.2a.5.5 0 0 0 0-.1l-.9-1.8-3 .2a9.6 9.6 0 0 0-.2.7l-.1.6a3.4 3.4 0 0 0-.1.4v.3c0 .2.1.3.4.3l.9.1v.4l-3.2.3v-.4a2 2 0 0 0 .4-.1 1.3 1.3 0 0 0 .7-.6l.2-.5 1.1-3.6 1.1-3.6h.5l3.4 7 .2.3c.18.21.428.351.7.4h.4v.4h.1zm-3.7-3.1l-1.6-3.2-1 3.4 2.6-.2zm15.7-6.7a27.9 27.9 0 0 0-.4.2 3.1 3.1 0 0 0-.8-.9c-.4-.2-.7-.4-1-.3a6.3 6.3 0 0 0-.3 0l-.6.2-1.4.4.9 3.2 1-.2.6-.3.3-.4.1-.4v-.6l.4-.2.9 3.2-.4.1a2.9 2.9 0 0 0-.3-.5l-.4-.4a.9.9 0 0 0-.5-.2 2.3 2.3 0 0 0-.6.1l-1 .3.8 2.8s0 .2.2.3a.6.6 0 0 0 .3.2h.4l.4-.1.1.4-3.5 1-.1-.4a9.5 9.5 0 0 0 .4-.2l.4-.2a.5.5 0 0 0 .2-.3.8.8 0 0 0 0-.3l-1.6-5.9a1.1 1.1 0 0 0-.2-.3l-.3-.2a2.4 2.4 0 0 0-.4 0 2.4 2.4 0 0 0-.5 0l-.1-.3 6.4-1.8.6 2zm9.4-.7l1 2.4-6 2.8-.2-.3.4-.3a1.4 1.4 0 0 0 .3-.2.5.5 0 0 0 .1-.3.8.8 0 0 0 0-.4l-2.7-5.4a1 1 0 0 0-.2-.3.5.5 0 0 0-.4 0h-.4a2 2 0 0 0-.4 0l-.2-.3 3.3-1.6.2.4a2.8 2.8 0 0 0-.4.2 2.2 2.2 0 0 0-.3.3.4.4 0 0 0-.2.3.8.8 0 0 0 .1.4l2.5 5c0 .3.2.5.3.6l.3.2h.4l.7-.3.4-.2.4-.3.3-.2a.6.6 0 0 0 .2-.3 6.3 6.3 0 0 0 .2-2l.3-.2zm4.5-8.3a4.2 4.2 0 0 1 1.5.8l1.2 1.4a5 5 0 0 1 .6 1.7 4.1 4.1 0 0 1 0 1.6 4 4 0 0 1-.7 1.5 4 4 0 0 1-1.2 1 4 4 0 0 1-3.2.4 4 4 0 0 1-1.4-.7 5 5 0 0 1-1.2-1.4 5 5 0 0 1-.6-1.7 4.3 4.3 0 0 1 0-1.7 4 4 0 0 1 2-2.4 4 4 0 0 1 1.5-.6 3.9 3.9 0 0 1 1.5.1zm2.3 5.6a4 4 0 0 0-.2-1.3 7 7 0 0 0-.7-1.4 7.2 7.2 0 0 0-1-1.3 4 4 0 0 0-1-.8 2.4 2.4 0 0 0-1-.2c-.5 0-.8.1-1.2.3-.4.3-.7.6-.9 1a2.6 2.6 0 0 0-.3 1c0 .5.1.9.3 1.3a7.2 7.2 0 0 0 1.5 2.6c.3.4.7.6 1 .8a2.4 2.4 0 0 0 1.2.3c.3 0 .7 0 1.1-.3a2.3 2.3 0 0 0 1.2-2zm10.5-5.7l-1.9 1.3-2.3-.9-2-.6-.8.5 1.6 2.1.2.3h.4a1.8 1.8 0 0 0 .3-.1l.4-.3.3.4-3 2-.2-.3a8.6 8.6 0 0 0 .6-.5.5.5 0 0 0 0-.4.7.7 0 0 0 0-.3l-3.6-5a1 1 0 0 0-.2-.2.3.3 0 0 0-.4 0 3 3 0 0 0-.7.3l-.3-.4 3.2-2.2a4.6 4.6 0 0 1 .9-.5 2.7 2.7 0 0 1 .9-.2l.8.1c.548.29.947.8 1.1 1.4v.8a2.5 2.5 0 0 1-.2.7 4.9 4.9 0 0 1-.5.8l1.6.5 1.6.5a2.5 2.5 0 0 0 1.2.1h.4a2.6 2.6 0 0 0 .4-.3l.2.4zm-6.2-3.3c-.3-.4-.6-.6-1-.7-.4-.1-.9 0-1.3.3l-.8.6 2 3 .7-.5c.4-.3.7-.7.8-1.2 0-.5 0-1-.4-1.5zm13.2-2l.7 2.4-6.6 2.4-.2-.4a4.3 4.3 0 0 0 .8-.4.6.6 0 0 0 .2-.3.7.7 0 0 0 0-.4l-2.2-5.6a1 1 0 0 0-.1-.3l-.4-.1h-.4a2.2 2.2 0 0 0-.5 0l-.1-.3 6.1-2.3.7 1.9-.4.1a2.7 2.7 0 0 0-.8-.7l-.9-.3a4.3 4.3 0 0 0-.4.2l-.6.2-1.2.4 1.1 3.1 1-.3c.2 0 .4-.2.5-.3a.9.9 0 0 0 .3-.4v-1.1l.4-.1 1.1 3-.4.2a3.2 3.2 0 0 0-.3-.5 1.5 1.5 0 0 0-.4-.3.9.9 0 0 0-.5-.2c-.2 0-.4 0-.6.2l-.9.3.9 2.4.2.5a.5.5 0 0 0 .3.3h.5l.7-.3.5-.2a3.9 3.9 0 0 0 1-.4l.2-.3.2-1v-1l.5-.1zm7.1-5.8c.4.3.8.7 1 1.3.3.5.5 1 .6 1.7a4.9 4.9 0 0 1 0 1.8 4.1 4.1 0 0 1-.8 1.5 3.9 3.9 0 0 1-2.7 1.6 3.9 3.9 0 0 1-3-.9 4.1 4.1 0 0 1-1-1.2 4.9 4.9 0 0 1-.6-1.7 5 5 0 0 1 0-1.9l.8-1.5a4 4 0 0 1 2.7-1.5 4 4 0 0 1 1.6 0l1.4.8zm-.1 6c.2-.4.3-.8.3-1.3v-1.5a7 7 0 0 0-.4-1.5 3.9 3.9 0 0 0-.7-1.2 2.4 2.4 0 0 0-.9-.7 2.3 2.3 0 0 0-1.1-.1c-.5 0-1 .2-1.2.5-.3.2-.6.6-.7 1a4 4 0 0 0-.3 1.2 7 7 0 0 0 .4 3l.7 1.1c.2.4.5.6.9.7.3.2.7.2 1.2.2a2.3 2.3 0 0 0 1-.5 2.4 2.4 0 0 0 .8-1v.1z" stroke="#000" stroke-width=".7" fill="#000" fill-rule="nonzero"/><path d="M235 154.1v53c0 10.6-1.4 52.6-46.5 69-45.3-16.4-46.7-58.4-46.7-69v-53H235" stroke="#000"/></g></g></svg>