<svg width="800" height="480" xmlns="http://www.w3.org/2000/svg"><g fill="none" fill-rule="evenodd"><path fill="#FFF" d="M200.101 0h399.613v480H200.101z"/><path fill="red" fill-rule="nonzero" d="M.35 0H200.1v480H.35zm599.364 0h199.752v480H599.824zM285.955 237.875l-13.296 4.5 61.33 53.906c4.681 13.781-1.592 17.813-5.618 25.125l66.48-8.437L393.257 380l13.858-.375-3.09-66.563 66.667 7.97c-4.12-8.72-7.772-13.313-4.026-27.188l61.236-51.094-10.675-3.938c-8.801-6.75 3.746-32.53 5.618-48.843 0 0-35.674 12.281-38.015 5.812l-9.176-17.531-32.49 35.813c-3.558.843-5.056-.563-5.9-3.563l14.982-74.813-23.783 13.407c-1.966.937-3.932.187-5.243-2.156L400.281 101l-23.596 47.719c-1.779 1.687-3.558 1.875-5.056.75l-22.659-12.75 13.67 74.156c-1.123 3-3.745 3.75-6.741 2.156l-31.18-35.344c-4.026 6.563-6.741 17.157-12.172 19.594-5.337 2.25-23.408-4.5-35.487-7.125 4.12 14.906 17.041 39.656 8.895 47.813v-.094z"/></g></svg>