<svg width="800" height="480" xmlns="http://www.w3.org/2000/svg"><g fill="none" fill-rule="evenodd"><path fill="green" d="M0 0h800v480H0z"/><circle fill="#FFE000" cx="413.7" cy="237.7" r="66.7"/><circle fill="green" cx="433.9" cy="237.9" r="54.9"/><circle fill="#FFE000" cx="202.8" cy="171.8" r="69.8"/><path d="M198 224.5h17.5s.7-1.6-.2-2.4c-1-.8-4.7-1-3.7-3.8 2-5.8 2.4-4 3.7-17.8a739 739 0 0 0 2-35.5h-2.6s.5 6.7-1 15.5c-1.4 8.8-1.9 9.5-3.5 16.3a63.5 63.5 0 0 1-3.3 11.2c-1.4 4-1.6 4.1-3.8 7.8-2.3 3.6-1.5 2.2-2.7 4.4-.7 1.1-1.4.8-1.9 1.6-.4.8-.5 2.7-.5 2.7z" stroke="#7B3100" stroke-width="1.5" fill="#802000"/><path d="M211.5 121a23 23 0 0 1-1.2 9.2 26.5 26.5 0 0 0-2.3 9.8c-1.8.6-3.7-3.9-5.5-1.2 1.3 3.7 4.4 6.6 6.4 9.9.4 1 3.4 3.7 1.6 4.3-4.3-1.5-5.4-7-8-10.3a19 19 0 0 0-15.5-10c-2.5.1-10.4-.5-8.4 3.7 3 2 6.8 3.4 9.8 5.7 2.3.2 6.3 4 6.1 5.4-4-1.6-5.8-3.5-10-5.2-5.8-2.2-13.7-.9-17 4.8-.5 1.5-1.4 5.8.5 6.3 2.2-3.4 5.3-7.3 9.9-6.2 3.6.3-4 6.7-1.1 5.4 1-.4 3-1.8 4.6-2 1.5 0 2.3 1 3.4 1.2 2.3.3 3 1.2 2.7 1.8-.2.6-1 0-3.3.8-1.1.4-1.7 1.4-3 1.9-1.4.4-4.2.5-5.2 0-3.7-1.5-9.7-1.3-10.8 3.3 0 2-1.8-.2-2.6.7-.7 2.2-.8 4.4-4 4.2-2 2-4 4.2-6.6 5.7 1.5 3.4 7.3-3.4 7-.5-2.5 3.5 1.4 4.2 3 1.5 2.9-3 6.5-6.7 10.7-3.6 2 1.9 3.2-1 4.7-1 1 2.5 2.1.2 3.2-.5 1.7-.2 1.2 2.2 3.2.7 4.1-2.7 9.1-.4 13.1-3 4.3-2 .6 1.5-.5 2.9-1.9 3.6-.3 8.4-4.3 10.6-1.7 4.3 1.9 10-1.7 13.2-.5 2 4.6 1.8 6 2.6 2.6 0 0-5.8 2.5-6.6 3.4 2 3.2-3.8 2.5-5.6.4-4 .6-8.6 2.6-12.3 2.2-4.5 4.2 1.9 1.8 3.7-1.4 4.1-3.4 9.4-.3 13.3 1 .2 1.7 2.4 2.8 3 1.2.7 2.8-.1 3-2.1 1.6-6 .8-12.4 3-18.3 1.5-1.8 3.6-.3 4.5 1.4 3 3.5 5.1 7.8 8.7 10.7a15 15 0 0 1 7.8 7.3c0 2.6 7.4 3 5.2 0-2.1-2.7-.7-5.6 1.4-7.5 1.2.3.9-1.8 0-1-1.5-.3-1.6-3 .4-1.7 3.5 1.1-.2-2.5-1.5-2.6-2.9-1.8-6.2-3.8-7.6-7 3.8 0 7.7 2.1 11.5.9 3.1-1.6 6.2 0 7.3 2.8 2.4-.4 1.4-2.8 0-3.6 1.7-.7 3-2.2.8-3.5-1-1.4 1.5-4-1.7-3.8.1-2.5-.8-4.7-3.5-5.6-2.7-2.2-10.6 3.4-10.3-1.7-.8-2.8 3.2-.4 4.3-1.8 1.1-3-5.5-2.6-3.3-5 1.4-.8 8.1-2.1 2.9-3.1a8.3 8.3 0 0 1-7-1.1c-1.9 3.1-7.2-1.8-6.3 3.8-.7 2.1-5.5 7.6-6.8 3.4 1-3.3 6.8-4.3 5-8.8-.3-2.7-2.6.5-3.6.3-.6-1.7 1.6-3.8 3.2-4.2 3 2.4 3-3 6-2.5 2.1-.5-.7-1.4-1.3-1.8.6-1.5 3.9-2.3.7-3.7-2.9-2-5 2.1-7.3 2.3-2.2-2.5 2-3.7 3.2-5 .1-1-2.4-.3-1.7-1.2.7-1.1 5.2-1.2 3-3a14.7 14.7 0 0 0-10.2.6c-2 .6-2.5 5-4.2 4.8-.7-2 .3-5.8-2.4-6.3zm15 42.3c2.4-.4 0 3.7-1 3.6 0-1.4-3.6-1.3-1.3-2.6a7.3 7.3 0 0 1 2.3-1z" fill="green" fill-rule="nonzero"/><path d="M573.298 322.36l4.407 13.703 13.462-5.099-7.963 11.995 12.383 7.347-14.351 1.251 1.975 14.262-9.913-10.439-9.918 10.433 1.975-14.256-14.345-1.257 12.382-7.347-7.969-11.995 13.462 5.099zm-80.01-126.682l4.407 13.703 13.462-5.1-7.962 11.996 12.382 7.347-14.351 1.25 1.975 14.263-9.913-10.44-9.918 10.434 1.975-14.256L471 223.617l12.383-7.346-7.97-11.996 13.462 5.1zM573.298 109l4.407 13.703 13.462-5.099-7.963 11.995 12.383 7.347-14.351 1.251 1.975 14.262-9.913-10.439-9.918 10.433 1.975-14.256-14.345-1.257 12.382-7.347-7.969-11.995 13.462 5.099zm71.12 65.341l4.407 13.704 13.462-5.1-7.963 11.996 12.383 7.347-14.351 1.25 1.975 14.263-9.912-10.44-9.92 10.434 1.976-14.256-14.345-1.258 12.383-7.346-7.97-11.996 13.462 5.1zm-39.115 64.199l3.486 8.54 9.194.674-7.048 5.956 2.203 8.954-7.836-4.864-7.835 4.87 2.197-8.953-7.049-5.957 9.208-.673z" fill="#FFE000"/></g></svg>