<svg width="800" height="480" xmlns="http://www.w3.org/2000/svg"><g fill="none" fill-rule="evenodd"><path fill="#006" d="M0 0h800v480H0z"/><g fill-rule="nonzero"><path d="M0 0v26.81L355.333 240H400v-26.81L44.667 0H0zm400 0v26.81L44.667 240H0v-26.81L355.333 0H400z" fill="#FFF"/><path d="M166.667 0v240h66.666V0h-66.666zM0 80v80h400V80H0z" fill="#FFF"/><path d="M0 96v48h400V96H0zM180 0v240h40V0h-40zM0 240l133.333-80h29.778L29.778 240H0zM0 0l133.333 80h-29.777L0 17.838V0zm236.889 80L370.222 0H400L266.667 80h-29.778zM400 240l-133.333-80h29.777L400 222.054V240z" fill="#C00"/></g><path d="M615.5 213.1l5.2-16.7-14-10.6 17.6-.2 6-16.5 5.6 16.5 17.7.5-14.1 10.5 5 16.7-14.5-10m27.1 13l10.4-13.9-9.7-14.8 16.7 5.8 11-13.5v17.6l16.4 6.4-16.8 5-.8 17.5-10.2-14.4m-98.4 15l-.7-17.5-16.8-5.2 16.7-6.2v-17.4l10.9 13.5 16.8-5.6-9.8 14.7 10.3 14-17-4.5m-39.6 40.9l-7.4-15.8-17.4 1.8 12.8-12.3-6.6-16.3 15.2 8.2 13.3-11.8-3.4 17.4 14.9 8.9-17.3 2.5m-17.7 55.6l-13.3-11.1-15 9.2 6.4-16.7-12.9-11.6 17.3.7 7-16.4 4.3 17.2 17.2 1.5-14.6 9.8m3.2 60.4l-16.5-4.8-10.1 14.5-.7-17.9-16.4-5.5 16.1-6.2v-18l10.7 14.1 16.4-5.6-9.6 15m29.5 50.8l-17 2.4-3.5 17.4-7.8-16-17.1 1.6 12.2-12.3-7.1-16.4 15.3 8.5 12.8-11.8-2.8 17.4m45 38l-15.1 8.2 2.6 17.6-12.7-12.4-15.6 7.6 7.3-15.9-12.3-12.9 17.3 2.6 8-15.5 3.4 17.4m53.8 9l-8.3 15.3 11.7 13.2-17.4-3.3-8.9 15-2.4-17.3-17.2-4 15.8-7.4-1.7-17.5 12.2 12.8m57.4-13.1l-.5 17.4 16.3 6.4-17 5-1.2 17.5-10-14.3-17 4.4 10.8-13.9-9.4-14.7 16.6 5.7m54.5-203.1l12 12.6 15.9-7.4-8.3 15.8L734 244l-17-2.8-9 15.5-2.1-17.6-17-3.5 15.7-8m34.2 21l5.5 16.6 17.5.3-14.2 10.7 4.7 16.8-14.1-10-14.6 10.1 5.4-16.8-13.8-10.6 17.6-.4m19.5 33.2l-2 17.4 15.7 7.7-17.3 3.6-2.7 17.3-8.7-15.1-17.4 2.9 12-13-8.1-15.5 16 7.2m3 39.8l-7.8 15.6 11.9 12.7-17.4-2.7-8.4 15.3-3-17.3-17.4-3.3 15.6-8-2.3-17.4 12.6 12.3m-9.8 39.1l-14.7 9.2 3.8 17.3-13.5-11.5-15 8.6 6.3-16.3-13.1-12.1 17.4 1.5 7-16 4.4 17.2" fill="#FFF"/></g></svg>