<svg width="800" height="480" xmlns="http://www.w3.org/2000/svg"><g fill="none" fill-rule="evenodd"><path fill="#007A5E" d="M0 0h266.334v480H0z"/><path fill="#CE1126" d="M266.275 0H532.61v480H266.275z"/><path fill="#FCD116" d="M532.675 0H799.01v480H532.675z"/><g fill="#FCD116"><path d="M399.92 180l-17.756 54.044 26.989 9.245z"/><path d="M399.92 180l17.756 54.044-26.989 9.245z"/><path d="M453.995 219.31l-56.886-.187-.452 28.525z"/><path d="M453.995 219.31l-45.913 33.586-17.131-22.81z"/><path d="M433.34 282.913l-17.402-54.16-27.268 8.385z"/><path d="M433.34 282.913l-46.13-33.287 16.4-23.342z"/><path d="M366.5 282.913l46.13-33.287-16.4-23.342z"/><path d="M366.5 282.913l17.402-54.16 27.268 8.385z"/><path d="M345.845 219.31l45.913 33.586 17.131-22.81z"/><path d="M345.845 219.31l56.886-.187.452 28.525z"/></g></g></svg>