<svg width="800" height="480" xmlns="http://www.w3.org/2000/svg"><g fill="none" fill-rule="evenodd"><path stroke="#979797" fill="#081873" fill-rule="nonzero" d="M.5.5h799v479H.5z"/><path fill="#FFF" d="M.095 230H800v138.586H0z"/><path fill="#DE3929" d="M0 276.195h800v46.196H0z"/><path d="M238.944 373.691l6.18 19.096h20.042l-16.295 11.889 6.18 19.19-16.107-11.982-16.295 11.888 6.275-19.19-16.295-11.888h20.134m180.368-158.295l6.274 19.19h19.947l-16.294 11.795 6.18 19.19-16.295-11.888-16.294 11.888 6.18-19.19-16.295-11.795h20.229m-207.9 60.285l6.18 19.19h20.135l-16.202 11.982 6.275 19.097-16.295-11.795-16.295 11.795 6.18-19.097-16.294-11.888h20.134m220.45-24.713l6.274 19.096h19.947l-16.294 11.889 6.18 19.096-16.295-11.795-16.294 11.889 6.18-19.19-16.295-11.889h20.229m-37.928-151.367l6.274 19.096h20.228l-16.294 11.889 6.18 19.19-16.294-11.889-16.295 11.889 6.274-19.19-16.388-11.889h20.228m-60.404-42.311l6.275 19.19h20.134l-16.295 11.795 6.181 19.19-16.295-11.795-16.295 11.795 6.275-19.19-16.295-11.795h20.04m-60.403 2.714l6.275 19.19h20.134l-16.295 11.795 6.275 19.19-16.389-11.888-16.295 11.888 6.275-19.19-16.295-11.795h20.228m-32.59 40.44l6.181 19.19h20.228l-16.388 11.795 6.274 19.19-16.295-11.889-16.295 11.889 6.181-19.19-16.295-11.795h20.135m111.63 139.853l6.274 19.19h20.134l-16.295 11.795 6.275 19.19-16.389-11.888-16.295 11.888 6.275-19.19-16.295-11.795h20.04m76.98-39.035l6.18 19.096h20.135l-16.2 11.889 6.274 19.19-16.295-11.889-16.389 11.889 6.275-19.19-16.295-11.889h20.134" fill="#FFCE08" fill-rule="nonzero"/></g></svg>