<svg width="800" height="480" xmlns="http://www.w3.org/2000/svg"><g fill="none" fill-rule="evenodd"><path fill="#108C00" d="M0 0h800v480H0z"/><path fill="#FFD600" d="M0 167.063h800v46.968H0z"/><path fill="#FFD600" d="M328.656 0h45.469v480H328.75z"/><path fill="#000" d="M372.656 0h45.375v480h-45.375z"/><path fill="#000" d="M0 212.438h800V259.5H0z"/><path fill="#FFF" d="M0 259.5h800v46.969H0z"/><path fill="#FFF" d="M417.656 0h45.469v480h-45.469z"/><path fill="#E72910" d="M529.044 368.813H272.356V111h256.688z"/><path d="M394.063 128l5.25-15 4.78 14.719s16.032.469 16.032.187c0-.281-12.656 9.656-12.656 9.656l5.719 16.5c-.188-.468-13.875-10.218-13.875-10.218s-13.875 9.75-13.594 9.75c.281 0 5.25-15.938 5.25-15.938l-12.469-9.469 15.563-.28V128z" fill="#000"/><path d="M394.813 128.656l4.406-12.844 4.125 12.75s13.969.375 13.969.188c0-.188-10.97 8.438-10.97 8.438l4.876 14.25c-.188-.47-12-8.813-12-8.813s-12 8.438-11.813 8.438c.188 0 4.688-13.875 4.688-13.875l-10.875-8.25 13.5-.188.094-.094z" fill="#FFE700"/><path d="M396.688 130.813l2.625-7.5 2.437 7.406s7.969.187 7.969 0c0-.188-6.281 4.875-6.281 4.875l2.812 8.25c-.094-.281-6.938-5.063-6.938-5.063l-6.75 4.875c.188 0 2.625-7.969 2.625-7.969L389 131l7.688-.188z" fill="#108C00"/><path d="M493.5 198.75l5.25-15 4.688 14.719s16.125.562 16.125.281-12.657 9.656-12.657 9.656l5.625 16.5c-.187-.469-13.781-10.219-13.781-10.219s-13.875 9.75-13.594 9.75c.281 0 5.25-15.937 5.25-15.937l-12.469-9.563 15.563-.28v.093z" fill="#000"/><path d="M494.156 199.5l4.594-13.031 4.125 12.844s13.875.375 13.875.187-10.969 8.438-10.969 8.438l4.969 14.156c-.188-.375-12-8.813-12-8.813s-12 8.438-11.813 8.438c.188 0 4.594-13.875 4.594-13.875l-10.781-8.156 13.406-.188z" fill="#FFE700"/><path d="M496.125 201.656l2.625-7.5 2.344 7.313 8.062.187-6.375 4.781s3 8.438 2.813 8.25c0-.28-6.844-5.062-6.844-5.062l-6.844 4.781 2.625-7.969-6.187-4.687 7.781-.094z" fill="#108C00"/><path d="M464.5 309.563l5.25-15 4.688 14.812s16.125.469 16.125.281c0-.187-12.657 9.656-12.657 9.656l5.625 16.407c-.187-.469-13.781-10.125-13.781-10.125s-13.875 9.656-13.688 9.656c.188 0 5.344-15.938 5.344-15.938l-12.469-9.375 15.563-.28v-.094z" fill="#000"/><path d="M465.156 310.313l4.594-12.938 4.125 12.75s13.875.469 13.875.188c0-.282-10.969 8.437-10.969 8.437L481.75 333c-.188-.469-12-8.813-12-8.813s-12 8.438-11.813 8.438c.188 0 4.594-13.875 4.594-13.875l-10.781-8.156 13.406-.281z" fill="#FFE700"/><path d="M467.125 312.469l2.625-7.5 2.344 7.406s8.062.281 8.062.094c0-.188-6.375 4.875-6.375 4.875l2.813 8.156c0-.188-6.844-5.063-6.844-5.063l-6.844 4.875 2.625-7.968-6.187-4.688 7.781-.187z" fill="#108C00"/><path d="M324.781 309.563l5.25-15 4.688 14.812s16.031.469 16.031.281c0-.187-12.656 9.656-12.656 9.656l5.812 16.407c-.281-.469-13.875-10.125-13.875-10.125s-13.875 9.656-13.687 9.656c.187 0 5.344-15.938 5.344-15.938l-12.47-9.375 15.563-.28v-.094z" fill="#000"/><path d="M325.531 310.313l4.5-12.938 4.125 12.75s13.875.469 13.875.188c0-.282-10.969 8.437-10.969 8.437l4.97 14.25c-.188-.469-12-8.813-12-8.813s-12 8.438-11.813 8.438c.187 0 4.594-13.875 4.594-13.875l-10.782-8.156 13.406-.281h.094z" fill="#FFE700"/><path d="M327.406 312.469l2.625-7.5 2.344 7.406s8.063.281 8.063.094c0-.188-6.375 4.875-6.375 4.875l2.812 8.156c0-.188-6.844-5.063-6.844-5.063l-6.844 4.875 2.625-7.968-6.187-4.688 7.781-.187z" fill="#108C00"/><path d="M299.594 195.656l5.25-15 4.781 14.813s16.031.469 16.031.187c0-.281-12.656 9.75-12.656 9.75l5.719 16.406c-.281-.468-13.875-10.125-13.875-10.125s-13.875 9.563-13.594 9.563c.281 0 5.25-15.938 5.25-15.938l-12.469-9.375 15.563-.28z" fill="#000"/><path d="M300.344 196.406l4.5-12.937 4.219 12.75s13.78.469 13.78.187c0-.281-10.968 8.438-10.968 8.438l4.969 14.25c-.188-.469-12-8.813-12-8.813s-12 8.438-11.719 8.438c.281 0 4.5-13.875 4.5-13.875l-10.781-8.156 13.5-.282z" fill="#FFE700"/><path d="M302.219 198.563l2.625-7.5 2.437 7.406 7.969.094-6.281 4.875 2.812 8.156c-.094-.188-6.937-5.063-6.937-5.063l-6.75 4.875c.187 0 2.625-7.969 2.625-7.969l-6.188-4.687 7.688-.188z" fill="#108C00"/><path d="M463.469 163.344l-5.25 15-4.688-14.719s-16.125-.469-16.125-.281c0 .187 12.656-9.656 12.656-9.656l-5.625-16.407c.188.469 13.782 10.125 13.782 10.125s13.875-9.656 13.594-9.656c-.282 0-5.25 15.938-5.25 15.938l12.468 9.375-15.562.28z" fill="#000"/><path d="M462.813 162.594c0 .281-4.688 13.031-4.688 13.031l-4.031-12.75s-13.875-.469-13.875-.281c0 .187 10.969-8.344 10.969-8.344l-4.97-14.25c.188.469 12 8.813 12 8.813s12-8.438 11.813-8.438c-.187 0-4.594 13.875-4.594 13.875l10.782 8.156-13.5.188h.094z" fill="#FFE700"/><path d="M460.844 160.438l-2.625 7.5-2.344-7.313s-8.063-.281-8.063-.094c0 .188 6.375-4.875 6.375-4.875l-2.812-8.156c0 .188 6.844 5.063 6.844 5.063l6.844-4.875c-.188 0-2.72 7.968-2.72 7.968l6.282 4.688-7.781.187v-.094z" fill="#108C00"/><path d="M503.188 271.531l-5.25 15-4.688-14.812s-16.125-.469-16.125-.188c0 .281 12.656-9.656 12.656-9.656l-5.625-16.5c.188.469 13.781 10.125 13.781 10.125s13.875-9.656 13.594-9.656c-.281 0-5.25 15.937-5.25 15.937l12.563 9.469-15.563.281h-.094z" fill="#000"/><path d="M502.531 270.781l-4.594 12.938-4.125-12.75s-13.875-.375-13.875-.188c0 .188 10.97-8.437 10.97-8.437l-4.97-14.25c.188.469 12 8.812 12 8.812s12-8.437 11.813-8.437c-.188 0-4.594 13.875-4.594 13.875l10.781 8.25-13.5.187h.094z" fill="#FFE700"/><path d="M500.563 268.625l-2.625 7.5-2.344-7.406s-8.063-.188-8.063 0c0 .187 6.375-4.875 6.375-4.875l-2.812-8.25c0 .281 6.844 5.062 6.844 5.062l6.843-4.875c-.187 0-2.719 8.063-2.719 8.063l6.282 4.687-7.781.094z" fill="#108C00"/><path d="M404.281 351.531l-5.25 15-4.687-14.812s-16.125-.469-16.125-.281c0 .187 12.656-9.657 12.656-9.657l-5.625-16.406c.188.469 13.781 10.125 13.781 10.125s13.875-9.656 13.594-9.656c-.281 0-5.25 15.937-5.25 15.937l12.469 9.469-15.563.281z" fill="#000"/><path d="M403.625 350.688l-4.594 13.125-4.125-12.844s-13.875-.469-13.875-.188c0 .281 10.969-8.437 10.969-8.437l-4.969-14.25c.188.469 12 8.812 12 8.812s12-8.437 11.813-8.437c-.188 0-4.594 13.875-4.594 13.875l10.781 8.156-13.406.281v-.094z" fill="#FFE700"/><path d="M401.656 348.625l-2.625 7.5-2.344-7.406s-8.062-.281-8.062-.094c0 .188 6.375-4.875 6.375-4.875l-2.813-8.156c0 .187 6.844 5.062 6.844 5.062l6.844-4.875-2.625 7.969 6.188 4.688-7.782.187z" fill="#108C00"/><path d="M310.906 271.531l-5.344 15-4.687-14.812s-16.125-.469-16.125-.188c0 .281 12.656-9.656 12.656-9.656l-5.625-16.5c.188.469 13.781 10.125 13.781 10.125l13.782-9.563L314 261.875l12.469 9.469-15.563.281v-.094z" fill="#000"/><path d="M310.156 270.781l-4.594 12.938-4.125-12.75s-13.875-.375-13.875-.188c0 .188 10.97-8.437 10.97-8.437l-4.97-14.25c.188.469 12 8.812 12 8.812s12-8.437 11.813-8.437c-.188 0-4.594 13.875-4.594 13.875l10.781 8.25-13.406.187z" fill="#FFE700"/><path d="M308.188 268.625l-2.625 7.5-2.344-7.406s-8.063-.188-8.063 0c0 .187 6.375-4.875 6.375-4.875l-2.812-8.25c0 .281 6.844 5.062 6.844 5.062l6.843-4.875-2.625 8.063 6.188 4.687-7.781.094z" fill="#108C00"/><path d="M345.563 165.063l-5.25 15-4.875-14.72s-15.938-.468-15.938-.28c0 .187 12.656-9.657 12.656-9.657L326.437 139c.188.469 13.782 10.125 13.782 10.125s13.875-9.656 13.687-9.656c-.187 0-5.25 15.937-5.25 15.937l12.375 9.375-15.469.375v-.094z" fill="#000"/><path d="M344.813 164.313l-4.594 13.125-4.125-12.844s-13.875-.469-13.875-.188c0 .281 10.969-8.437 10.969-8.437l-4.97-14.25c.188.469 12 8.812 12 8.812s12-8.437 11.813-8.437c-.187 0-4.5 13.875-4.5 13.875l10.688 8.156-13.406.281v-.094z" fill="#FFE700"/><path d="M342.844 162.25l-2.625 7.5-2.344-7.406s-7.969-.281-7.969-.094c0 .188 6.281-4.875 6.281-4.875l-2.812-8.156c0 .187 6.844 5.062 6.844 5.062l6.844-4.875-2.625 7.969 6.187 4.688-7.781.187z" fill="#108C00"/><g transform="translate(372.656 172)"><g transform="translate(28.899 61.347)" fill="#009200" stroke="#000"><ellipse stroke-width=".508" cx="6.861" cy="33.704" rx="6.727" ry="32.017"/><ellipse stroke-width=".532" cx="15.46" cy="34.261" rx="7.207" ry="32.017"/><ellipse stroke-width=".5" cx="12.049" cy="35.224" rx="5.766" ry="35.219"/></g><g transform="translate(.877 97.695)" stroke="#000" stroke-width=".5"><path d="M.487 5.85c5.85-.292 3.316-3.217 6.24-4.875C9.652-.585 13.846.39 15.113 2.34c1.267 1.95.292 3.9 1.95 3.9 1.657 0 45.825-2.438 47.385-.878 1.56 1.658 1.95 4.876.292 6.143-1.56 1.365-57.427 2.925-59.377 1.56C3.412 11.7.486 6.24.486 5.85z" fill="#A95600"/><path d="M31.044 17.404c0 3.9 6.669 2.71 6.845 5.967-.103 3.451-11.218.341-11.496-5.967.278-6.318 10.969-9.555 11.218-5.948.175 2.984-6.582 2.048-6.582 5.948h.015z" fill="#FF0"/><path d="M34.944 17.501c0 3.9 6.669 2.71 6.844 5.967-.102 3.452-11.217.341-11.495-5.967.278-6.318 10.969-9.555 11.218-5.947.175 2.983-6.582 2.047-6.582 5.947h.015z" fill="#FF0"/><path d="M39.136 17.306c0 3.9 6.67 2.71 6.845 5.967-.102 3.452-11.217.341-11.495-5.967.278-6.318 10.969-9.555 11.217-5.947.176 2.983-6.581 2.047-6.581 5.947h.014z" fill="#FF0"/><path d="M43.036 17.306c0 3.9 6.67 2.71 6.845 5.967-.102 3.452-11.217.341-11.495-5.967.278-6.318 10.968-9.555 11.217-5.947.176 2.983-6.581 2.047-6.581 5.947h.014z" fill="#FF0"/><ellipse fill="#A95600" transform="rotate(.996 61.875 25.353)" cx="61.875" cy="25.353" rx="3.754" ry="3.813"/></g><g transform="rotate(-5.8 911.927 -170.971)" fill="#009200" stroke="#000"><ellipse stroke-width=".626" cx="14.047" cy="26.325" rx="3.448" ry="7.519"/><ellipse stroke-width=".626" cx="8.392" cy="25.253" rx="3.448" ry="7.519"/><ellipse stroke-width=".626" cx="5.077" cy="17.55" rx="3.448" ry="7.519"/><ellipse stroke-width=".665" cx="9.395" cy="15.941" rx="3.245" ry="8.224"/><ellipse stroke-width=".634" cx="17.293" cy="18.184" rx="3.245" ry="7.754"/><ellipse stroke-width=".634" cx="13.198" cy="15.064" rx="3.245" ry="7.754"/><ellipse stroke-width=".634" cx="8.128" cy="10.676" rx="3.245" ry="7.754"/><ellipse stroke-width=".634" cx="3.253" cy="7.946" rx="3.245" ry="7.754"/></g><path d="M22.035 27.3s-11.408 9.75-9.848 35.978c1.756 26.325 25.838 38.512 25.838 38.512s6.045-7.508 5.07-28.763C41.145 42.023 29.64 28.47 29.64 28.47l-7.605-1.267v.097z" stroke="#000" stroke-width=".5" fill="#804BFF"/><g transform="rotate(4.5 -1124.964 484.256)" fill="#009200" stroke="#000"><ellipse stroke-width=".626" cx="14.047" cy="26.325" rx="3.448" ry="7.519"/><ellipse stroke-width=".626" cx="8.392" cy="25.253" rx="3.448" ry="7.519"/><ellipse stroke-width=".626" cx="5.077" cy="17.55" rx="3.448" ry="7.519"/><ellipse stroke-width=".665" cx="9.395" cy="15.941" rx="3.245" ry="8.224"/><ellipse stroke-width=".634" cx="17.293" cy="18.184" rx="3.245" ry="7.754"/><ellipse stroke-width=".634" cx="13.198" cy="15.064" rx="3.245" ry="7.754"/><ellipse stroke-width=".634" cx="8.128" cy="10.676" rx="3.245" ry="7.754"/><ellipse stroke-width=".634" cx="3.253" cy="7.946" rx="3.245" ry="7.754"/></g><ellipse stroke="#000" stroke-width=".5" fill="#C90000" transform="rotate(-21.636 44.723 75.515)" cx="44.723" cy="75.515" rx="9.713" ry="29.377"/><g transform="rotate(1 -1241.075 928.52)" fill="#009200" stroke="#000"><ellipse stroke-width=".518" cx="23.634" cy="26.852" rx="4.212" ry="3.773"/><ellipse stroke-width=".51" cx="24.897" cy="21.489" rx="3.686" ry="3.773"/><ellipse stroke-width=".51" cx="19.827" cy="21.489" rx="3.686" ry="3.773"/><ellipse stroke-width=".507" cx="21.642" cy="13.49" rx="3.896" ry="3.396"/><ellipse stroke-width=".507" cx="21.155" cy="9.103" rx="3.896" ry="3.396"/><ellipse stroke-width=".51" cx="14.952" cy="18.759" rx="3.686" ry="3.773"/><ellipse stroke-width=".51" cx="15.927" cy="16.029" rx="3.686" ry="3.773"/><ellipse stroke-width=".518" cx="11.739" cy="14.177" rx="4.212" ry="3.773"/><ellipse stroke-width=".507" cx="18.23" cy="3.74" rx="3.896" ry="3.396"/><ellipse stroke-width=".51" cx="12.222" cy="10.764" rx="3.686" ry="3.773"/><ellipse stroke-width=".51" cx="4.324" cy="14.469" rx="3.686" ry="3.773"/><ellipse stroke-width=".51" cx="5.592" cy="13.787" rx="3.686" ry="3.773"/><ellipse stroke-width=".51" cx="7.152" cy="10.764" rx="3.686" ry="3.773"/></g><g transform="translate(21.47 41.34)" fill="#009200" stroke="#000" stroke-width=".5"><ellipse transform="rotate(-21.795 23.964 40.151)" cx="23.964" cy="40.151" rx="12.123" ry="37.748"/><ellipse transform="rotate(-23.4 33.73 46.166)" cx="33.73" cy="46.166" rx="2.334" ry="7.956"/><path d="M31.879 44.914c9.245 14.32 8.446 24.856 7.799 33.748-3.067-9.447-4.718-15.449-13.963-29.769-9.245-14.32-5.249-26.604-4.843-32.738 1.478 4.918 1.762 14.439 11.007 28.759z"/><path d="M32.563 55.444c9.245 14.32 8.447 24.856 7.8 33.748-3.068-9.447-4.719-15.449-13.964-29.769-9.244-14.32-5.248-26.604-4.842-32.738 1.477 4.918 1.761 14.439 11.006 28.759z"/><path d="M33.317 63.91c9.49 14.208 8.868 24.773 8.369 33.689-3.227-9.418-4.98-15.405-14.47-29.613-9.492-14.207-5.698-26.57-5.394-32.72 1.56 4.905 2.004 14.437 11.495 28.644z"/><ellipse transform="rotate(-21.907 26.207 34.344)" cx="26.207" cy="34.344" rx="4.304" ry="14.187"/><ellipse transform="rotate(-20.56 23.197 40.528)" cx="23.197" cy="40.528" rx="3.842" ry="11.568"/><ellipse transform="rotate(-19.17 16.713 44.88)" cx="16.713" cy="44.88" rx="3.833" ry="11.528"/><ellipse transform="rotate(-23.285 21.231 26.707)" cx="21.231" cy="26.707" rx="3.07" ry="8.791"/><ellipse transform="rotate(-19.988 18.377 30.8)" cx="18.377" cy="30.801" rx="3.119" ry="8.791"/><path d="M14.787 26.432c3.144 7.786 4.447 14.61 2.9 15.235-1.546.624-5.346-5.192-8.49-12.979"/><ellipse transform="rotate(-19.988 18.096 21.714)" cx="18.096" cy="21.714" rx="3.119" ry="8.791"/><ellipse transform="rotate(-18.991 13.283 24.955)" cx="13.283" cy="24.955" rx="3.113" ry="8.809"/><path d="M10.226 15.812c3.182 5.226 4.943 9.969 3.925 10.589-1.018.62-4.423-3.122-7.605-8.348"/><path d="M12.262 12.4c3.182 5.226 4.943 9.968 3.925 10.588-1.019.62-4.424-3.122-7.606-8.347m12.441-.305c4.386 7.208 6.804 13.754 5.388 14.615-1.415.861-6.117-4.295-10.503-11.503"/><path d="M15.285 9.424c3.33 5.679 5.173 10.793 4.107 11.418-1.066.625-4.63-3.48-7.96-9.16"/></g><g fill="#804BFF" stroke="#000" stroke-width=".5"><path d="M41.153 29.92c-1.919 1.974.062 5.406 1.872 6.586 2.028 1.652 13.51 12.484 21.263 2.574-6.365.172-18.518-13.556-23.135-9.16z"/><path d="M39.788 24.168c-1.919 1.974.062 5.406 1.872 6.585 2.028 1.652 13.51 12.484 21.263 2.574-6.365.172-18.518-13.556-23.135-9.159z"/><path d="M38.033 18.708c-1.919 1.974.062 5.406 1.872 6.585 2.028 1.652 13.51 12.484 21.263 2.574-6.365.172-18.518-13.556-23.135-9.159z"/><path d="M34.23 12.468c-1.918 1.974.063 5.406 1.872 6.585 2.028 1.652 13.51 12.484 21.263 2.574C51 21.8 38.848 8.071 34.23 12.468z"/></g><g transform="rotate(1 -16.382 670.524)"><path d="M5.504 10.047c3.588-3.244 10.388-4.685 15.827-2.205 4.537 1.972 12.297 10.842 17.938 12.626-2.942.96-6.124.793-8.825-.462-4.782 4.232-6.509 4.93-11.525 6.11-6.935 1.629-12.82.158-14.993-3.573-2.254-3.5-1.597-9.477 1.578-12.496z" stroke="#000" stroke-width=".5" fill="#804BFF"/><ellipse stroke="#000" stroke-width=".5" fill="red" cx="16.185" cy="13.445" rx="3.461" ry="1.901"/><ellipse stroke="#000" stroke-width=".5" fill="#FF0" transform="rotate(-22.298 6.826 21.297)" cx="6.826" cy="21.297" rx="4.893" ry="2.85"/><circle fill="#000" cx="10.803" cy="19.578" r="1.131"/><path d="M12.265 15.916c.43 1.404-.653 3.354-3.227 4.103-2.613 1.03-4.495 3.26-5.43 6.864-4.603-8.05-2.243-11.568 2.008-12.504 3.646-1.123 5.889-1.045 6.65 1.537z" stroke="#000" stroke-width=".584" fill="#FF0"/><circle fill="#000" cx="1.462" cy="23.868" r="1"/></g></g></g></svg>