<svg width="800" height="480" xmlns="http://www.w3.org/2000/svg"><g fill="none" fill-rule="evenodd"><path fill="#FFE800" d="M0 0h800v480H0z"/><path fill="#00148E" d="M0 240h800v240H0z"/><path fill="#DA0010" d="M0 360h800v120H0z"/><path d="M349.6 290.8L277 367.3l-1.2-1.6 72.4-76.5 1.2 1.6h.2zm50.4 12.5l-94.8 100-1.6-1.6 94.7-100 1.7 1.6z" fill="#000" fill-rule="nonzero"/><path stroke="#000" stroke-width=".5" fill="gray" d="M305.492 402.132l-8.86 8.86-10.099 7.621 7.621-10.099 8.86-8.86zm-24.4-39.1l-8.86 8.86-10.099 7.621 7.621-10.099 8.86-8.86z"/><path d="M287.94 114.792s-7.965 215.424 23.895 215.424 47.835-22.656 47.835-22.656l-.36-118.4-71.37-74.368z" stroke="#000" stroke-width=".553" fill="#FFDF00"/><path d="M307.425 134.888c0 11.328-3.555 172.672 12.375 172.672s39.87-11.328 39.87-11.328l-.36-107.072-51.885-54.272z" stroke="#000" stroke-width=".553" fill="#0000C4"/><path d="M317.775 145.768c0 11.328 2.025 139.136 18 139.136h23.895l-.36-95.744-41.535-43.392z" stroke="#000" stroke-width=".553" fill="#E10000"/><path fill="#000" d="M286.2 116l72.4 76.5 1.3-1.6-72.4-76.5-1.3 1.6z"/><path d="M264.296 158.936s-20.532 208.692 41.064 208.692c51.33 0 51.33-32.922 61.596-32.922l-10.266-76.88-92.452-98.89h.058z" stroke="#000" stroke-width=".6" fill="#FFDF00"/><g stroke="#000"><path d="M315.376 188.5c.437.061 15.906-31.311 54.568-44.826" stroke-width=".87"/><path d="M308.708 161.855c5.155 3.054 8.417 6.38 11.387 10.201-5.9-1.798-8.943-2.57-14.099-5.625-5.155-3.054-9.093-7.448-12.222-11 3.837 1.577 9.75 3.352 14.934 6.424z" stroke-width=".5" fill="#005B00"/><path d="M322.41 182.47c.396.683.055 1.656-.782 2.141-.837.486-1.84.316-2.246-.384-.406-.7-.045-1.638.792-2.123.837-.486 1.84-.316 2.236.367z" stroke-width=".5" fill="red"/><path d="M339.652 139.925c-2.588 5.875-5.443 9.889-8.734 13.71 1.48-6.363 2.108-9.614 4.696-15.489 2.588-5.875 6.364-10.8 9.418-14.726-1.318 4.226-2.777 10.598-5.38 16.505zm-8.086.501c-.55 5.973-1.753 10.387-3.334 14.768-.414-6.061-.722-9.118-.173-15.09.55-5.973 2.234-11.475 3.609-15.874.02 4.128.45 10.19-.102 16.196z" stroke-width=".5" fill="#005B00"/><path d="M336.881 146.518c-4.47 1.611-8.229 1.709-12.18 1.274 3.982-2.965 5.932-4.597 10.402-6.208 4.47-1.61 9.26-1.478 13.107-1.334-2.861 1.66-6.834 4.649-11.329 6.268zm-26.246 5.419c3.795 4.192 5.682 8.215 7.108 12.656-4.97-3.13-7.59-4.591-11.385-8.783-3.795-4.192-5.934-9.42-7.611-13.633 3.082 2.436 8.072 5.545 11.888 9.76zm-7.537 33.312c4.295 3.89 6.562 7.873 8.37 12.364-5.466-2.598-8.335-3.77-12.63-7.66-4.296-3.889-6.91-9.11-8.968-13.325 3.423 2.135 8.908 4.71 13.228 8.621zm21.168-1.509c-3.373 5.94-7.021 9.77-11.202 13.298 2.016-6.71 2.888-10.164 6.26-16.103 3.373-5.94 8.188-10.583 12.079-14.275-1.754 4.385-3.746 11.109-7.137 17.08z" stroke-width=".5" fill="#005B00"/><path d="M328.187 183.15c-5.682 4.137-10.628 6.316-15.898 8.05 4.858-5.268 7.214-8.036 12.896-12.173 5.682-4.137 12.02-6.649 17.113-8.626-3.554 3.3-8.397 8.589-14.11 12.749zm39.126-41.754c-2.792 2.649-5.295 4.211-7.992 5.57 2.298-3.17 3.402-4.816 6.194-7.465 2.792-2.648 6.013-4.504 8.604-5.974-1.71 2.028-3.999 5.206-6.806 7.87zm-5.62-8.043c-1.332 3.13-2.756 5.3-4.383 7.385.817-3.349 1.174-5.055 2.506-8.184 1.333-3.129 3.21-5.8 4.726-7.932-.701 2.233-1.509 5.585-2.849 8.731z" stroke-width=".5" fill="#005B00"/><path d="M370.206 138.336c-2.919 0-5.112-.644-7.305-1.596 2.919-.784 4.386-1.26 7.305-1.26 2.918 0 5.66.952 7.853 1.736-2 .322-4.918 1.12-7.853 1.12zm-34.942 16.394c-4.386 2.934-7.994 4.671-11.752 6.186 4.007-3.502 5.981-5.322 10.368-8.255 4.386-2.934 8.968-5 12.644-6.635-2.85 2.243-6.85 5.755-11.26 8.704zm13.221 4.01c-6.003 3.57-11.114 5.243-16.513 6.433 5.271-4.801 7.845-7.343 13.848-10.914 6.002-3.57 12.528-5.43 17.77-6.884-3.812 2.951-9.07 7.774-15.105 11.364z" stroke-width=".5" fill="#005B00"/><path d="M307.636 216.294c.395-.203-3.332-31.384 21.546-62.932" stroke-width=".866"/><path d="M345.11 150.37c.396.683.055 1.656-.782 2.141-.837.486-1.84.316-2.246-.384-.406-.7-.045-1.638.792-2.123.837-.486 1.84-.316 2.236.367zm10.8-6.3c.396.683.055 1.656-.782 2.141-.837.486-1.84.316-2.246-.384-.406-.7-.045-1.638.792-2.123.837-.486 1.84-.316 2.236.367zm-30.142 21.16c.277.523-.239 1.364-1.167 1.856-.929.493-1.908.46-2.191-.075-.284-.535.246-1.35 1.174-1.842.929-.493 1.908-.46 2.184.062z" stroke-width=".5" fill="red"/><path d="M328.968 163.83c.277.523-.239 1.364-1.167 1.856-.929.493-1.908.46-2.191-.075-.284-.535.246-1.35 1.174-1.842.929-.493 1.908-.46 2.184.062zm-1.9 3c.277.523-.239 1.364-1.167 1.856-.929.493-1.908.46-2.191-.075-.284-.535.246-1.35 1.174-1.842.929-.493 1.908-.46 2.184.062z" stroke-width=".5" fill="red"/><path d="M332.7 167.3c.4.8 0 1.8-1 2.3-1 .5-2 .2-2.4-.7-.4-.9 0-1.8 1-2.3 1-.5 2-.2 2.3.7h.1z" stroke-width=".3" fill="red"/><path d="M335 164.9c.3.8 0 1.8-1 2.3-1 .5-2 .2-2.5-.6s0-1.9 1-2.4 2-.1 2.4.7h.1z" stroke-width=".3" fill="red"/><path d="M335.5 166c.4.8 0 1.9-1 2.3-1 .4-2 .2-2.4-.6-.4-.8 0-1.8 1-2.3 1-.5 2-.2 2.4.6z" stroke-width=".3" fill="red"/></g><path d="M284.828 180.946c0 10.974-20.532 131.812 30.856 164.734 20.532 10.974 51.33-10.974 51.33 0l-10.266-87.854-71.92-76.88z" stroke="#000" stroke-width=".6" fill="#0000C4"/><path d="M305.36 202.894c0 10.974-10.266 98.828 20.59 120.838 20.532 21.948 71.92 15.996 71.92 15.996l-41.122-81.902-51.388-54.932z" stroke="#000" stroke-width=".6" fill="#E10000"/><path fill="#000" d="M263.8 158l94.8 100 1.7-1.6-94.8-99.9-1.6 1.6z"/><path d="M249.214 146.146l6.018 1.062 1.77 1.77c-.242-.018 1.77 1.77-.708 4.248-2.478 2.478-6.004-1.076-6.004-1.076s1.062 6.018 4.612 9.568 7.788 2.832 7.788 2.832-4.034-3.306-1.062-6.018c2.976-2.736 4.248-.708 4.248-.708l3.54 3.54 2.492-2.492-14.17-14.17-1.062-6.018-9.128-1.512 1.67 8.95-.004.024zm13.557-41.43l7.499 10.806 9.492 2.197-6.197 3.935 11.3-.611 5.118 3.333 1.833-2.814-5.132-3.343-4-10.599-1.103 7.275-5.837-7.81-12.977-2.394z" stroke="#000" stroke-width=".5" fill="#CECECC"/><path d="M292.8 110.9c0 .6-.8 1.11-1.72 1.11-.92 0-1.76-.51-1.76-1.11 0-.6.8-1.14 1.76-1.14s1.72.51 1.72 1.14zm-2.48 2.37c0 10.74 8.36 56.34 9.04 57.45.04 1.35-1.92 1.92-2.84.27-2.64-5.22-8.32-48-8.52-57.99-.12-4.11 1.48-4.44 3.32-4.35 1.48.06 3.32 1.11 3.32 2.37 0 1.5-2.32 2.61-4.32 2.25z" stroke="#000" stroke-width=".5" fill="#E10000"/><path d="M295.569 120.117c-.282.609-1.234.796-2.055.417-.82-.38-1.33-1.243-1.048-1.852.282-.609 1.248-.827 2.104-.431.856.396 1.295 1.227.999 1.866zm-3.324 1.382c2.59 23.888-6.1 58.782-6.028 60.219-.584 1.356-2.613 1.157-2.645-.928-.427-1.417 9.577-32.599 6.732-60.521 1.821-4.22 3.403-3.896 5.001-3.046 1.292.672 2.44 2.496 1.848 3.774-.704 1.523-3.293 1.692-4.908.502z" stroke="#000" stroke-width=".5" fill="#0000C4"/><path d="M266.7 151.5c0 1-1 2-2.2 2-1.2 0-2.2-1-2.2-2s1-1.8 2.2-1.8c1.2 0 2.1.8 2.1 1.8h.1zm-3.2 4c0 17.9 10.5 93.9 11.3 95.8 0 2.2-2.3 3.2-3.5.4-3.3-8.7-10.4-80-10.7-96.6-.1-6.9 1.9-7.4 4.2-7.3 1.9.1 4.1 1.9 4.1 4 0 2.4-2.9 4.3-5.4 3.7z" stroke="#000" stroke-width=".7" fill="#E10000"/><path d="M271.824 159.922c-.389.964-1.652 1.408-2.725.976-1.073-.432-1.722-1.647-1.333-2.612.388-.964 1.671-1.457 2.79-1.005 1.12.45 1.676 1.628 1.268 2.64zm-4.428 2.644c2.76 35.535-9.682 89.556-9.628 91.708-.808 2.141-3.483 2.185-3.467-.948-.525-2.062 13.55-50.715 10.565-92.284 2.523-6.664 4.602-6.443 6.69-5.433 1.687.792 3.152 3.344 2.336 5.37-.972 2.412-4.397 3.106-6.496 1.587z" stroke="#000" stroke-width=".512" fill="#0000C4"/><path d="M450.4 290.8l72.5 76.5 1.3-1.6-72.5-76.5-1.3 1.6zM400 303.3l94.8 100 1.6-1.6-94.7-100-1.7 1.6z" fill="#000" fill-rule="nonzero"/><path stroke="#000" stroke-width=".5" fill="gray" d="M494.508 402.132l8.86 8.86 10.099 7.621-7.621-10.099-8.86-8.86zm24.4-39.1l8.86 8.86 10.099 7.621-7.621-10.099-8.86-8.86z"/><path d="M512.06 114.792s7.965 215.424-23.895 215.424-47.835-22.656-47.835-22.656l.36-118.4 71.37-74.368z" stroke="#000" stroke-width=".553" fill="#FFDF00"/><path d="M492.575 134.888c0 11.328 3.555 172.672-12.375 172.672s-39.87-11.328-39.87-11.328l.36-107.072 51.885-54.272z" stroke="#000" stroke-width=".553" fill="#0000C4"/><path d="M482.225 145.768c0 11.328-2.025 139.136-18 139.136H440.33l.36-95.744 41.535-43.392z" stroke="#000" stroke-width=".553" fill="#E10000"/><path fill="#000" d="M513.8 116l-72.4 76.5-1.3-1.6 72.4-76.5z"/><g fill="#005B00" stroke="#000" stroke-width=".5"><path d="M455.098 172.878s21.526 28.278 31.911 49.178c10.377 20.939 22.493 52.28 22.493 52.28s-6.923-30.092-19.99-55.365c-17.122-31.898-34.423-44.428-34.414-46.093z"/><path d="M455.542 153.266s22.986 33.324 33.478 57.609c10.479 24.328 22.146 60.529 22.146 60.529s-5.663-34.464-18.948-63.86c-17.509-37.144-36.823-52.396-36.676-54.278z"/><path d="M473.109 132.245s18.687 38.157 24.382 64.185c5.664 26.064 9.123 63.734 9.123 63.734s3.6-34.314-4.034-65.987c-10.56-40.224-30.246-60.188-29.471-61.932z"/><path d="M460.964 123.799s22.325 38.97 31.021 66.526c8.673 27.601 16.829 68.145 16.829 68.145s-1.178-37.865-12.41-71.301c-15.07-42.344-35.928-61.364-35.44-63.37z"/><path d="M484.641 145.043s15.007 34.683 18.776 57.877c3.74 23.225 4.811 56.48 4.811 56.48s5.214-29.85-.019-58.12c-7.439-35.962-24.375-54.759-23.568-56.237zm-25.999-8.526s21.406 34.883 30.069 59.737c8.643 24.896 17.153 61.588 17.153 61.588s-2.068-34.438-13.202-64.578c-14.87-38.147-34.413-54.907-34.02-56.747z"/><path d="M453.44 157.963s23.567 31.163 34.323 54.043c10.743 22.921 22.705 57.137 22.705 57.137s-5.806-32.722-19.426-60.403c-17.95-34.955-37.752-48.977-37.601-50.777z"/><path d="M457.41 146.758s20.903 34.227 30.004 58.843c9.085 24.659 18.757 61.147 18.757 61.147s-3.873-34.453-15.461-64.283c-15.351-37.726-33.537-53.85-33.3-55.707z"/><path d="M478.015 132.459s16.013 37.722 19.983 62.95c3.936 25.26 4.965 61.431 4.965 61.431s5.719-32.467.196-63.216c-7.87-39.114-26.018-59.557-25.144-61.165z"/><path d="M461.668 111.628s19.56 42.325 26.64 71.911c7.056 29.633 13.056 72.938 13.056 72.938s.528-40.132-8.712-76.065c-12.504-45.545-31.536-66.685-30.984-68.784z"/><path d="M491.054 147.115s11.534 34.299 13.194 56.654c1.63 22.381-.178 54.03-.178 54.03s7.587-27.834 4.948-55.142c-4.114-34.808-18.87-54.214-17.964-55.542zm-31.886-17.352s19.56 37.247 26.64 63.283c7.056 26.077 13.056 64.186 13.056 64.186s.528-35.316-8.712-66.937c-12.504-40.081-31.536-58.684-30.984-60.532z"/></g><path d="M535.704 158.936s20.532 208.692-41.064 208.692c-51.33 0-51.33-32.922-61.596-32.922l10.266-76.88 92.452-98.89h-.058z" stroke="#000" stroke-width=".6" fill="#FFDF00"/><path d="M515.172 180.946c0 10.974 20.532 131.812-30.856 164.734-20.532 10.974-51.33-10.974-51.33 0l10.266-87.854 71.92-76.88z" stroke="#000" stroke-width=".6" fill="#0000C4"/><path d="M494.64 202.894c0 10.974 10.266 98.828-20.59 120.838-20.532 21.948-71.92 15.996-71.92 15.996l41.122-81.902 51.388-54.932z" stroke="#000" stroke-width=".6" fill="#E10000"/><path fill="#000" d="M536.2 158l-94.8 100-1.7-1.6 94.8-99.9 1.7 1.6z"/><path d="M550.786 146.146l-6.018 1.062-1.77 1.77c.242-.018-1.77 1.77.708 4.248 2.478 2.478 6.004-1.076 6.004-1.076s-1.062 6.018-4.612 9.568-7.788 2.832-7.788 2.832 4.034-3.306 1.062-6.018c-2.976-2.736-4.248-.708-4.248-.708l-3.54 3.54-2.492-2.492 14.17-14.17 1.062-6.018 9.128-1.512-1.67 8.95.004.024zm-13.557-41.43l-7.499 10.806-9.492 2.197 6.197 3.935-11.3-.611-5.118 3.333-1.833-2.814 5.132-3.343 4-10.599 1.103 7.275 5.837-7.81 12.977-2.394z" stroke="#000" stroke-width=".5" fill="#CECECC"/><path d="M507.3 110.9c0 .6.8 1.11 1.72 1.11.92 0 1.76-.51 1.76-1.11 0-.6-.8-1.14-1.76-1.14s-1.72.51-1.72 1.14zm2.48 2.37c0 10.74-8.36 56.34-9.04 57.45-.04 1.35 1.92 1.92 2.84.27 2.64-5.22 8.32-48 8.52-57.99.12-4.11-1.48-4.44-3.32-4.35-1.48.06-3.32 1.11-3.32 2.37 0 1.5 2.32 2.61 4.32 2.25z" stroke="#000" stroke-width=".5" fill="#E10000" fill-rule="nonzero"/><path d="M504.431 120.117c.282.609 1.234.796 2.055.417.82-.38 1.33-1.243 1.048-1.852-.282-.609-1.248-.827-2.104-.431-.856.396-1.295 1.227-.999 1.866zm3.324 1.382c-2.59 23.888 6.1 58.782 6.028 60.219.584 1.356 2.613 1.157 2.645-.928.427-1.417-9.577-32.599-6.732-60.521-1.821-4.22-3.403-3.896-5.001-3.046-1.292.672-2.44 2.496-1.848 3.774.704 1.523 3.293 1.692 4.908.502z" stroke="#000" stroke-width=".5" fill="#0000C4" fill-rule="nonzero"/><path d="M533.4 151.5c0 1 1 2 2.1 2 1.2 0 2.2-1 2.2-2s-1-1.8-2.2-1.8c-1.2 0-2.1.8-2.1 1.8zm3 4a1152 1152 0 0 1-11.2 95.8c0 2.2 2.3 3.2 3.5.4 3.3-8.7 10.4-80 10.7-96.6.1-6.9-1.9-7.4-4.2-7.3-1.9.1-4.1 1.9-4.1 4 0 2.4 2.9 4.3 5.4 3.7h-.1z" stroke="#000" stroke-width=".7" fill="#E10000" fill-rule="nonzero"/><path d="M528.176 159.922c.389.964 1.652 1.408 2.725.976 1.073-.432 1.722-1.647 1.333-2.612-.388-.964-1.671-1.457-2.79-1.005-1.12.45-1.676 1.628-1.268 2.64zm4.428 2.644c-2.76 35.535 9.682 89.556 9.628 91.708.808 2.141 3.483 2.185 3.467-.948.525-2.062-13.55-50.715-10.565-92.284-2.523-6.664-4.602-6.443-6.69-5.433-1.687.792-3.152 3.344-2.336 5.37.972 2.412 4.397 3.106 6.496 1.587z" stroke="#000" stroke-width=".512" fill="#0000C4" fill-rule="nonzero"/><g stroke="#000"><path d="M367.072 422.56c9.535 5.855 21.263 5.855 30.798 0v-87.854h-20.532c10.266 32.922 10.266 65.906-10.324 87.854h.058z" stroke-width=".6" fill="#E10000"/><path d="M383.33 336.65c0 61.95-14.875 75.74-14.875 88.2 6.195 0 10.325-5.81 14.875-13.79 6.195-12.46 6.79-75.39 6.195-74.41h-6.195z" stroke-width=".553" fill="#0000C4"/><path d="M370.94 336.65c-.315 36.19-15.68 69.72-12.775 77.14 3.29 6.65 12.775-15.19 25.165-2.8 6.195-12.39 6.79-75.32 6.195-74.41H370.94v.07z" stroke-width=".553" fill="#0000C4"/><path d="M372.33 331.37c0 40.71-14.245 43.424-14.245 54.28 6.195 0 14.21-5.934 14.245-5.382 6.195-8.188 6.79-49.542 6.195-48.898h-6.195z" stroke-width=".5" fill="#FFDF00"/><path d="M359.94 331.37c-.315 23.782-15.33 44.022-12.425 48.898 3.325 4.324 12.425-8.188 24.815 0 6.195-8.188 6.79-49.542 6.195-48.898H359.94z" stroke-width=".5" fill="#FFDF00"/><path d="M432.928 422.56c-9.535 5.855-21.263 5.855-30.798 0v-87.854h20.532c-10.266 32.922-10.266 65.906 10.324 87.854h-.058z" stroke-width=".6" fill="#E10000"/><path d="M416.67 336.65c0 61.95 14.875 75.74 14.875 88.2-6.195 0-10.325-5.81-14.875-13.79-6.195-12.46-6.79-75.39-6.195-74.41h6.195z" stroke-width=".553" fill="#0000C4"/><path d="M429.06 336.65c.315 36.19 15.68 69.72 12.775 77.14-3.29 6.65-12.775-15.19-25.165-2.8-6.195-12.39-6.79-75.32-6.195-74.41h18.585v.07z" stroke-width=".553" fill="#0000C4"/><path d="M427.67 331.37c0 40.71 14.245 43.424 14.245 54.28-6.195 0-14.21-5.934-14.245-5.382-6.195-8.188-6.79-49.542-6.195-48.898h6.195z" stroke-width=".5" fill="#FFDF00"/><path d="M440.06 331.37c.315 23.782 15.33 44.022 12.425 48.898-3.325 4.324-12.425-8.188-24.815 0-6.195-8.188-6.79-49.542-6.195-48.898h18.585z" stroke-width=".5" fill="#FFDF00"/></g><g stroke="#000"><path d="M321.632 341.56l-10.764 7.788 10.764 7.788 5.376-3.894 2.688 3.894 2.688 7.788 2.7-7.788 2.688-3.894H482v-7.788H337.76l-2.688-3.916c0-3.894.564-7.788 2.7-7.788h10.752c0-3.894-5.376-11.682-16.14-11.682-10.752 0-16.14 7.788-16.14 11.682h10.764c2.124 0 2.688 3.894 2.688 7.81l-2.688 3.894-5.388-3.916.012.022z" stroke-width=".797" fill="#908F8A"/><path d="M353.204 360.439h94.276v4.779h-94.248l-.028-4.779zm0-4.806h94.276v4.806h-94.248l-.028-4.806zm0-4.779h94.276v4.806h-94.248l-.028-4.806zm0-4.779h94.276v4.779h-94.248l-.028-4.779zm0-4.779h94.276v4.779h-94.248l-.028-4.779zm0-4.806h94.276v4.806h-94.248l-.028-4.806zm0-4.752h94.276v4.752h-94.248l-.028-4.752z" stroke-width=".5" fill="#B74D00" fill-rule="nonzero"/><path stroke-width=".859" fill="#908F8A" d="M357.7 331.454l34.45 33.48h4.925l-34.425-33.453h-4.925z"/><path stroke-width=".859" fill="#908F8A" d="M357.7 365.946l34.45-33.48h4.925l-34.425 33.453h-4.925z"/><path stroke-width=".853" fill="#908F8A" d="M358.656 331.454v33.48h4.956v-33.48z"/><path stroke-width=".859" fill="#908F8A" d="M402 331.454l34.45 33.48h4.925l-34.425-33.453h-4.925z"/><path stroke-width=".859" fill="#908F8A" d="M402 365.946l34.45-33.48h4.925l-34.425 33.453h-4.925z"/><path stroke-width=".853" fill="#908F8A" d="M437.456 331.454v33.48h4.956v-33.48zm-34.4 0v33.48h4.956v-33.48zm-10 0v33.48h4.956v-33.48z"/></g><g fill="#FFDF00" stroke="#000" stroke-width=".6"><path d="M469.79 235.878c0 54.56-32.248 98.828-71.92 98.828-39.672 0-71.92-44.268-71.92-98.828s32.19-98.89 71.92-98.89c39.73 0 71.92 44.268 71.92 98.828v.062zm-10.266 0c0 48.484-27.608 87.854-61.654 87.854-34.046 0-61.654-39.37-61.654-87.854 0-48.546 27.608-87.916 61.654-87.916 34.046 0 61.654 39.37 61.654 87.916z"/><path d="M425.884 144.8c-8.642-5.022-18.096-7.812-28.014-7.812s-19.372 2.79-28.014 7.75l4.06 10.168c14.844-9.146 33.122-9.146 47.966 0l4.002-10.168v.062zm.2 179.5c-8.642 5.022-18.096 7.812-28.014 7.812s-19.372-2.79-28.014-7.75l4.06-10.168c14.844 9.146 33.122 9.146 47.966 0l4.002 10.168v-.062z"/></g><path d="M459.6 235.9c0 48.5-27.7 87.8-61.7 87.8s-61.6-39.3-61.6-87.8 27.6-88 61.6-88 61.7 39.4 61.7 88z" fill="#A7CFFF"/><path d="M459.524 235.878c.638 16.492-2.668 24.552-6.902 41.726-1.102 1.86-6.38-4.03-9.512-6.944-3.132-2.914-4.524 2.604-8.468-1.86-3.886-4.588-6.38 1.24-9.28-2.604-2.9-3.844-29.754-4.34-29.754-4.712 2.668-1.364 16.356.124 14.152-6.882-2.494-7.316-17.98-.248-20.068-9.548-1.45-9.3-31.088-9.672-33.234-11.904.87 3.472 23.084 4.96 22.562 13.95-.522 3.72-21.866 4.774-23.954 7.874-1.74 3.906 16.82-1.054 17.458 3.72 0 1.984-2.726 0-12.354 3.1-4.872 1.55 8.932 6.386 3.712 9.052-5.22 2.666-16.414 3.844-15.95 4.96 1.74 5.58 25.926 12.152 23.548 13.082-8.584 4.092-13.108 6.758-17.226 9.114-12.066-18.117-18.388-39.888-18.038-62.124 18.386-7.068 14.5-8.556 48.488-8.556s45.24 1.426 74.82 8.556z" stroke="#000" stroke-width=".6" fill="#AFFF7B"/><path d="M459.524 235.878c-4.64 0-9.512 2.108-14.5 2.108-5.046 0-10.15-2.17-15.37-2.17-5.22 0-11.194 2.852-16.53 2.852-5.394 0-10.092-2.79-15.486-2.79s-10.788 2.108-16.124 2.108c-5.336 0-10.614-2.17-15.776-2.17-5.162 0-10.266 2.17-15.196 2.17s-9.744-2.17-14.326-2.17c0-12.09 1.74-23.622 4.872-34.162 15.66 1.24 6.38-9.734 15.66-9.734 5.48-.317 10.824 1.895 14.674 6.076 1.392 0 8.352-7.068 16.182-6.076 7.772.992 4.93 16.926 15.312 17.732 5.22 4.216 8.294 6.882 15.486 8.618 10.266.992 39.672-1.55 39.846-.124a124.571 124.571 0 0 1 1.276 17.732z" stroke="#000" stroke-width=".6" fill="#FFF"/><path d="M407.18 287.02c0-2.736 2.7-4.56 2.7-8.928 0-4.368-2.4-4.464-2.48-8.544-.04-1.68 2.06-3.36 2.98-3.552.92-.192 1.7 3.552 1.7 4.368 0 .816-.94-2.016-1.72-2.064-.78-.048-2.46.288-2.46 1.104 0 1.632 2.96 3.648 2.74 9.12-.22 5.376-2.54 7.008-2.54 8.64 0 1.632 1 6.144 1 6.144s-1.94-3.6-1.94-6.336l.02.048z" stroke="#000" stroke-width=".5" fill="#000"/><path d="M415.82 286.62c0-2.736-2.7-4.56-2.7-8.928 0-4.368 2.4-4.464 2.48-8.544.2-1.92-2.36-3.168-3.28-3.312-.92-.144-2 3.84-2 4.608 0 .768 1.08-2.496 1.86-2.544.78-.048 2.92.288 2.92 1.104 0 1.632-2.96 3.648-2.74 9.12.22 5.376 2.54 7.008 2.54 8.64 0 1.632-1 6.144-1 6.144s1.94-3.6 1.94-6.336l-.02.048z" stroke="#000" stroke-width=".5" fill="#000"/><path d="M413 264.9c0 1.3-.7 2.4-1.5 2.4s-1.4-1.1-1.4-2.5.6-2.4 1.4-2.4c.8 0 1.5 1.1 1.5 2.5zm17 9h.4v19.5h-.5l.1-19.5zm4.1-1.6h.5V292h-.5v-19.7z" fill="#000" fill-rule="nonzero"/><path fill="#000" d="M432.6 281.2v-.5l4 .7v.5z"/><path d="M375.434 286.86s15.08 7.068 18.386 11.284c3.248 4.216 1.972 4.216 1.972 4.216l33.466 1.426c0-2.108 5.916-2.108 7.25-7.068 1.334-4.898 1.334-6.324 1.334-6.324l-10.498 3.534.58-6.324h-9.164l-1.334 6.324-19.72-.682 1.334-16.926-3.944.682-.58 16.12c-.696 0-18.444-4.898-19.14-6.262h.058z" stroke="#000" stroke-width=".6" fill="#B74D00"/><path d="M345.09 185.906s21.866-6.944 53.418-6.448c31.552.496 53.418 7.936 52.954 7.936-.464 0-6.032-11.408-6.032-11.408s-22.272-6.51-47.386-7.006c-25.056-.496-46.922 4.96-46.4 5.456l-6.554 11.47z" stroke="#FEDE00" stroke-width=".6" fill="#FEDE00"/><path d="M386 169.8l13.6-.2.2 7.9-13.6.3-.2-8zm-31.2 4.3L350 182l16.2-2-1.3-7.7-10.1 2v-.2zm13.7-3l13.6-1.1.6 7.8-13.5 1.2-.7-7.9zm48.9-.7l-13.5-1-.5 8 13.5.8.5-7.8zm29.2 5l4.9 9.6-14.6-3.6 1.6-7.7 8 1.6.1.1zm-11.8-3l-13.4-1.7-1 7.8 13.5 1.8.9-7.9z" fill="#38A9F9"/><path stroke="#000" stroke-width=".6" fill="#FFDF00" d="M398.508 190.37l-1.45-8.37-4.408 7.13 1.624-8.37-6.554 4.774 4.408-7.006-7.772 1.736 6.67-4.712-7.83-1.55 7.83-1.612-6.67-4.712 7.772 1.736-4.466-7.006 6.612 4.774-1.624-8.37 4.408 7.13 1.45-8.37 1.508 8.37 4.35-7.13-1.566 8.37 6.554-4.774-4.466 7.006 7.83-1.736-6.67 4.712 7.83 1.612-7.83 1.55 6.67 4.712-7.83-1.736 4.466 7.006-6.554-4.774 1.624 8.37-4.408-7.13z"/><path d="M410.09 168.75c0 4.65-3.762 8.4-8.436 8.4-4.674 0-8.436-3.75-8.436-8.4s3.762-8.45 8.436-8.45c4.674 0 8.436 3.8 8.436 8.5v-.05z" stroke="#000" stroke-width=".536" fill="#FFDF00"/><path d="M400.7 170.6c0 .5-1.3 1-2.8 1-1.5 0-2.8-.5-2.8-1s1.2-1 2.8-1c1.6 0 2.8.4 2.8 1zm6 0c0 .5-.9 1-2 1s-2.2-.5-2.2-1c0-.6 1-1 2.1-1s2.1.4 2.1 1z" fill="#000" fill-rule="nonzero"/><path d="M400.385 173.986l.59.35c-1.418-.892-.772-.558 1.454 1.66 1.27-.69 1.512-1.342 2.302-2.217" stroke="#000" stroke-width=".606"/><path d="M394.824 178.466l.464.496c-1.102-1.24-.58-.62 1.856.992 2.32.31 4.698-.744 6.09-2.48" stroke="#000" stroke-width=".6"/><path d="M361.4 194.8s1 8-5.1 18c-6 9.9-5.1 6.4-5.1 6.4s2.8 5.5 2.3 5.5-4.7-5-4.7-5l-5 5.5s4.6-8.5 4.1-8.5-1.4-3-1.4-3l3.7-1.5s5.6-10.4 5.6-9.9-16.7 11.4-16.7 11.4l22.3-18.8v-.1zm3.7 3c-.5 0 2.3 8 4.7 12 2.3 4 2.3 8.9 2.3 8.9l7.9 4-10.2-15.4 6.5 2.4-11.2-11.9zm0 20.9s5.6 6 6 8c.4 2 .5 6.4.5 6.4l-2.3-5-3.3 4.5s2.4-7 1.9-7.5-3.7 2.5-3.7 2.5 1.4-4 1.4-4.4c0-.4 0-3-.5-4.5zm-27.9 13.9c1.9-1.5 5.6-2.5 5.6-2.5s-2.3 4-2.8 4-1.8 0-2.8-1.5zm64.1-21.8s12.1 7.4 12.1 7.9-7.9-3.5-7.9-3.5l-4.2-4.4zm-21.8-15.5c1 .5 17.7 14.4 17.2 14.4s-7.4-4-7.4-3.4v3.4l-3.8-7.9-.9 3-5-9.5h-.1zm4.2 22.4l4.6 9.4 4.7-1s-8.8-8.4-9.3-8.4zm14.4-6l.5 9s2.7 2.5 2.7 2-2.7-10.5-3.2-11z" fill="#B7E1FF"/><path d="M262.6 89.5s21-11.6 44.9-20.2a303.8 303.8 0 0 1 54.2-14.4c7 0 19.2 17.8 21.2 17.8s10.1-5 20.3-5c10.2 0 16.1 8 18.2 8h18.2c2 0-6.1-19.8 0-18.8 3 .5 28.8 4.5 52.8 12.2 24 7.8 58 21.6 58 21.6S494.9 98 480 95.9c-2 1 0 13-3 7.7-4.6-1-21.7-3.7-24.7-3.7s-8.7 3.4-16.8 5.4c-8 2-18.2 5-18.2 5l13.2 20.7-16.2 8s-10.1-23.8-14.2-23.8-6 16.8-11.1 15.8c-5-1-7-15.8-11.1-19.8-4-3.9-25.4-5.4-33.5-7.3-8-2-21.1-3.5-28.2-5.5-7-2-14.2 5-17.2 5s4-6 1-7-5 3-7 3-23.3-4-25.3-5 5-4.9 3-4.9h-8.1z" fill="#984000"/><path d="M413.46 79.6c0 5.512-4.532 9.984-10.098 9.984-5.566 0-10.076-4.472-10.076-9.984s4.51-9.958 10.076-9.958c5.566 0 10.098 4.472 10.098 9.958z" stroke="#772600" stroke-width=".891" fill="gray"/><path d="M362.269 81.5c1.809-2.112 4.05-5.312 9.909-5.312 1.35-.544 1.35-3.744 4.482-3.744 3.159 0 2.241 3.2 4.509 4.288 2.241 1.056 20.682-1.088 20.682-1.088s1.782 1.6 1.782 3.744-1.35 3.712-1.782 3.712c-.432 0-18.441-1.6-19.791-1.056-1.35.544-2.241 1.056-5.4 1.056-3.132 0-4.05-3.712-6.291-3.712-2.241 0-4.482-.544-8.1 2.144V81.5z" stroke="#772600" stroke-width="1.569" fill="#984000"/><path d="M417.133 80.388h7.182c2.592.032 3.483.96 5.859 1.056h6.291c2.295-.096 3.51-.736 5.832-1.056 3.915-.064 2.592-.416 1.809-3.2-.702-2.08-.81-3.072-1.809-4.256-.378-2.56-1.242-3.456-1.35-6.4-.405-2.24-1.161-3.744-.432-6.4 1.026 1.824 1.431 2.56 4.05 2.688 2.7 0 3.753-.096 5.4 1.056 1.242 1.568 2.916 1.056 5.4 1.056 2.052.448 2.403 1.696 4.023 2.656 1.917 1.28 3.159 1.6 5.832 1.6 2.16.48 4.05.832 5.4 1.6 1.161 1.632 2.97 2.048 5.4 2.144 1.35 0 2.43-.16 3.591-.544 2.079.128 4.185 0 6.75 0 1.674 2.304 2.052 3.168 4.941 3.2 1.998 1.664 3.672 1.92 5.4 2.656h6.75c2.43.224 3.186 1.408 5.4 2.144a49.398 49.398 0 0 0 5.832 2.656 24.72 24.72 0 0 0 5.859.544c1.647 1.024 3.672 1.088 4.941 2.112 1.863.48 4.401 1.056 5.832 1.6 2.376.384 3.294 1.28 5.4 1.6 1.809.64-.594 1.152-1.809 1.6-2.646-.096-2.835-1.28-5.4-1.6-1.35-.928-3.402-.8-5.4-1.6h-.432c1.782 1.28 3.51 2.08 2.7 4.288-2.295 0-4.158-.352-6.291-.544-2.268-.512-3.294-1.056-5.832-1.056 2.538-.736 3.186.064 4.941 1.056.648 2.56-.756 1.6-3.159 1.6-2.052-.864-3.294-1.92-5.832-2.144h-5.4c2.673.128 3.24 1.312 4.941 2.688.135.832-.027.768-1.35 1.056-1.404-1.44-3.213-1.92-5.4-2.656-2.133-.096-4.374-.32-6.291-1.088-1.323-.096-1.107-1.952 1.809 1.088 1.755 1.216 2.376 2.24 2.241 3.2-2.322-.704-3.456-1.792-4.941-2.688a14.182 14.182 0 0 0-6.291-1.056c-2.322-.736.243-1.152 1.782 1.6 3.348 2.816-.432 1.6-1.782 1.056-2.025-.672-4.131-1.664-5.859-2.112-1.35-.48-2.538-.928-4.05-1.088 2.349.256 3.132 1.248 4.05 3.2 2.376 1.92-.108.992-2.241.544-1.35-1.408-3.105-2.144-4.05-3.744-2.241-1.312-2.322-2.88-.891.544.351 1.088.27 3.456.432 3.744-1.647-2.144-1.296-2.688-3.132-2.688-1.269-1.024-3.105-1.824-4.05-3.2-1.728-.192-1.836-.928-3.591-1.6 1.431 2.016 3.348 4 4.482 5.888 2.052 1.344 2.619 2.56 4.05 3.712.567 1.184 2.16 2.144.459.544-1.944-2.24-3.375-2.784-6.291-4.256-1.674-1.6-2.268-2.24-4.05-3.744-2.43-.928-1.485-1.44 0 1.6 1.701 1.856 2.997 3.904 4.482 5.344a19.75 19.75 0 0 0 4.05 4.256c.405.704 1.62.832 0 1.056-1.35-1.472-3.348-2.4-4.941-3.744-2.241-.736-3.294-2.112-4.941-3.712-1.08-1.888-2.808-3.328-4.05-4.8-2.592-1.216.513 1.152 1.35 2.656.567 1.952 1.296 3.52 1.782 5.344.756 1.76-2.268-.416-3.132-1.056-1.776-1.364-3.77-2.279-5.859-2.688a68.99 68.99 0 0 0-5.4-1.056c-2.025-.64 1.107 1.536 2.268 3.744 2.268 2.528-2.241.448-3.591 0a28.585 28.585 0 0 0-6.75-.544c-2.889.192-.81.64 0 2.112.891.832 1.512 2.56 1.35 3.2-1.89-.32-3.51-.96-5.859-1.056-1.89.736-4.131.544-6.291.544-.081 1.344.405.192 1.35 1.6 1.566.736 2.592 1.632 2.268 2.656h-13.041c-1.431.448.297.224 1.35 2.144-.594 1.728-1.35 1.056-3.159 1.056-1.215-.576-3.672-.832-4.941-1.6-1.269 0-1.161-.384-2.241-.544 3.78 3.2 1.89 2.4 4.05 4.8.351.16 1.215.544.432.544m-29.673 17.056c-.27 0-.864-1.728-1.782-3.2-.648-1.92-1.458-.832-2.268-3.744.108-3.008.189-3.52 0-6.4-1.836-1.536-2.619-1.984-4.05-4.8-2.268-2.24.351-6.08.783-8.896-1.998-.512-2.97 3.68-6.021 5.184-2.214 1.76-.27-3.648-1.35-6.784-.729-4.448-2.916 2.24-3.726 4.128-1.485 1.184-1.944 2.72-4.05.512 0-1.632 1.323-6.24.756-7.136-2.106 1.248-4.86 4.96-7.047 5.536-2.214-.544.459-4.736.459-7.84-.81-.32-3.969 8.256-5.265 8.32-1.296.064-.729-8.32-1.35-8.128-.945 1.6-2.862 4.928-4.185 6.08-2.565-.416.378-5.6.756-7.52.432-2.304-2.403 4.416-3.915 4.832-1.107 1.152-3.294 1.92-4.05 2.144.864-1.984 5.13-5.984 4.86-7.136-2.511.096-6.318 4-8.451 4.48-1.404 0-3.348.544-3.591.512.108-2.56 5.238-4.672 6.048-6.24-2.511.48-7.344 3.104-8.748 5.184-1.674.416-3.78.96-5.4 0 .243-2.4 4.023-7.04 4.86-8.576-2.295 1.184-3.429 2.112-5.859 2.656-.459.544-1.755 1.696-1.35.544.729-2.24 1.809-3.2 2.7-4.8-2.025.448-2.781 1.824-4.941 3.2-1.377.064-5.319 4.768-6.642 4.832-2.24 2.092-4.853 3.548-7.641 4.256-2.052.448-3.051.96-4.05 2.144 1.026-2.144 2.592-4.16 4.05-5.312.89-1.942 2.321-3.458 4.05-4.288.513-.736 1.917-.928.432-1.056-1.269 1.344-3.429 2.88-4.482 3.744-1.377 1.024-2.97 2.048-3.618 1.6.729-2.304 2.025-2.88 3.159-4.8 2.376-1.792 0-.64-1.809 0-1.161 1.216-3.24 2.144-4.941 3.2-1.89.576-3.159 1.92-5.4 2.656 0 .768.648-1.376.918-2.144 1.836-2.368 2.322-3.04 4.482-3.712.54-.928 1.188-.544-.432-.544-1.242 1.28-2.916 1.984-4.509 3.2-1.593.416-3.672.544-5.832.544-2.808.384-2.565.64 0-1.088 1.431-1.6 2.619-1.184 2.7-3.2-1.701 1.472-3.78 2.56-5.859 3.744-1.728.064-2.187.544-4.05.544.891-1.088 1.431-2.464 2.7-3.2 1.89-2.464-1.188-.48-1.809 0h-6.75c-1.188 1.792-.054 0 .918-1.088 1.161-.704 2.376-1.632 2.241-2.112-1.35 1.376-2.889 2.016-4.05 3.2-1.242.448-2.7.64-2.7 1.056.999-1.696 2.592-2.752 3.618-4.256 1.512-.384 2.808-.96 3.132-1.6h-6.291 4.482c2.295 0 4.239-.256 6.318-.544 3.564-.704-.324-1.056-2.268-1.056-.351-.832 1.134-1.28 2.7-1.6 1.35-.768 3.051-1.44 4.509-2.144a11.57 11.57 0 0 0 3.591-2.112c-1.35.064-1.35.448-2.7.512 2.025-.16 3.456-.512 5.859-.512a58.763 58.763 0 0 0 5.832-2.656c.81-1.152 1.134-1.088-.891-1.088 1.809-.672 4.374-1.024 5.832-1.6a22.724 22.724 0 0 0 5.4-2.112c1.323-1.056 2.079-2.304 3.591-3.2 1.755 1.408 1.782 1.6 4.941 1.6 2.538-.032 4.104-.768 5.4-2.144 1.944-.64 2.295-1.728 4.509-2.112 2.08.387 4.185.559 6.291.512 2.16-.672 4.239-1.92 5.832-3.2 1.377-.8 3.024-1.952 4.509-2.656 1.62.992 2.916 1.792 4.941 2.144 2.079-.384 3.186-1.6 4.941-2.144 1.082-1.365 2.499-2.294 4.05-2.656 2.619-1.536 2.43.48 3.591 2.112 1.35 1.664 3.078.864 4.941 1.6 1.053 1.92 1.809 3.2 3.159 4.256 1.053 1.536 2.295 1.92 4.509 2.144.81 1.28.162 2.176 1.782 2.656.648.832 1.755 1.152 2.7 1.6" stroke="#772600" stroke-width="1.036"/><path d="M411.949 114.756v.256c0-.736 0-.32.459 1.088.162 1.152-.216 1.024-.675 1.856-.081 1.184-.216 2.048-.216 3.456-.162 1.152-.702 2.24-1.134 3.2-.432.992-2.295 1.568-2.241 2.944-1.08.352-1.107-.48-1.134-1.888-.648-.864-.864-2.048-1.35-3.2-.27-1.088-.918-1.92-1.35-3.2-.648-1.184-1.215-1.536-1.782-2.912-.243-.64-.189-1.472-.675-1.856-.729-1.12-1.215-1.28-2.484-1.344-.972.256-1.35.768-2.241 1.056-.702.288-2.052.192-2.916.544-.216.416.432.64.675 1.6-.594.576-.81 1.568-1.134 2.4-.54.8-.891 1.184-1.134 2.4.378.736.054 1.728-.432 2.4-.162 1.216-.675 1.888-.918 2.912-.702.608-.972 1.152-1.566 2.144-.513.864-.972.8-2.241.8-.999-.32-1.134-.96-2.025-1.344-.081-.32-.162-.416-.459-.512" stroke="#782600" stroke-width=".918"/><path d="M387.6 125.5s-.4 5-3.6 8.3c-3.2 3.3-9.8 7.1-9.8 7.1s8.9-4.2 9.8-3.3c1 1-5.7 8.3-5.7 8.3s8.7-7.7 9.8-7.7c1.1 0 3.6 7.5 4.6 7.3.9-.2-2-9.5-1.6-11 .4-1.4 0-9.3 0-9.3l-3.4.3h-.1zm20.5-.6s-.4 5.3-3.6 8.8c-3.2 3.5-9.8 7.6-9.8 7.6s8.9-4.5 9.8-3.5c1 1-5.7 8.8-5.7 8.8s8.7-8.2 9.8-8.2c1.1 0 3.6 8 4.6 7.8.9-.2-2-10.2-1.6-11.7.4-1.6 0-10 0-10l-3.5.4zm-28.7-48c0 .9-1 1.7-2.1 1.7s-2.2-.8-2.2-1.8 1-1.8 2.2-1.8c1.2 0 2.1.8 2.1 1.8v.1z" fill="#812E00"/></g></svg>