<svg width="800" height="480" xmlns="http://www.w3.org/2000/svg"><g fill="none" fill-rule="evenodd"><path fill="#000" d="M0 0h800v239.641H0z"/><path fill="#107B00" d="M0 239.641h800v239.642H0z"/><path fill="#FFF" d="M0 158.482h800v164.847H0z"/><path fill="#FF1800" d="M492.114 275.4l-24.252-17.692-24.44 17.786 9.4-28.55-24.44-17.6h30.08l9.306-28.55 9.212 28.457h30.174l-24.346 17.598"/><path d="M466.642 295.433c-18.685 7.37-39.812 5.15-56.54-5.943-16.73-11.094-26.933-29.65-27.308-49.661-.219-20.37 9.812-39.497 26.724-50.957s38.46-13.731 57.406-6.052c-27.477 4.295-47.822 27.721-48.128 55.417-.31 28.209 20.015 52.458 47.94 57.196h-.094zM0 0l327.684 240.203L0 479.283z" fill="red" fill-rule="nonzero"/></g></svg>