<svg width="800" height="480" xmlns="http://www.w3.org/2000/svg"><g fill="none" fill-rule="evenodd"><path fill="#FFC621" d="M0 0h800v480H0z"/><path fill="#EF2118" d="M0 320h800v160H0z"/><path fill="#298C08" d="M0 0h800v160H0z"/><circle fill="#006BC6" cx="400.268" cy="240.368" r="101.368"/><path d="M354.654 168.818l-6.11 4.23 22.09 31.02 5.922-3.76-21.996-31.49h.094zm27.636 73.32l-9.118-6.392 3.76-11.938-45.214.658-13.16-10.058 61.758-.658 11.468-34.686 6.204 14.1-15.698 48.88v.094zm71.91-66.458l-5.922-4.512-22.842 30.456 5.264 4.418 23.5-30.362zm-61.476 48.41l3.29-10.528h12.502l-14.288-43.052 5.64-15.51 19.27 58.656 36.472.47-11.468 10.058-51.418-.188v.094zm85.164 48.128l2.538-6.956-36.002-12.502-2.632 6.58 36.096 12.878zm-64.954-43.616l10.998-.094 3.854 11.844 36.472-26.79 16.544.564-49.914 36.378 10.81 34.968-13.16-7.896-15.604-48.974zm-18.612 95.88l7.426.188.282-38.07-6.956-.47-.752 38.446v-.094zM415.002 249l3.572 10.434-10.058 7.52 37.036 26.038 4.7 15.792-50.384-35.72-29.61 21.338 3.29-15.04L414.908 249h.094zM317.9 261.22l2.162 7.05 36.378-11.468-1.88-6.768-36.66 11.186zm78.208-3.76l-8.836 6.674-10.152-7.238-13.348 43.24-13.536 9.4 18.33-58.938-29.516-21.62 15.322-1.504 41.736 29.986z" fill="#FFC621" fill-rule="nonzero"/></g></svg>