<svg width="800" height="480" xmlns="http://www.w3.org/2000/svg"><g fill="none" fill-rule="evenodd"><path fill="#039" d="M0 0h800v480H0z"/><g fill="#FC0"><path d="M399.63 73.704l-7.112 23.703 11.852 2.37z"/><path d="M399.63 73.704l7.11 23.703-11.851 2.37z"/><path d="M422.173 90.083l-24.74.561 1.407 12.005z"/><path d="M422.173 90.083l-20.346 14.087-5.917-10.539z"/><path d="M413.562 116.584l-8.18-23.356-10.981 5.048z"/><path d="M413.562 116.584l-19.685-14.997 8.195-8.884z"/><path d="M377.086 90.083l24.741.561-1.408 12.005z"/><path d="M377.086 90.083l20.346 14.087 5.917-10.539z"/><path d="M385.697 116.584l8.18-23.356 10.981 5.048z"/><path d="M385.697 116.584l19.686-14.997-8.195-8.884zm13.933 241.564l-7.112 23.704 11.852 2.37z"/><path d="M399.63 358.148l7.11 23.704-11.851 2.37z"/><path d="M422.173 374.527l-24.74.562 1.407 12.004z"/><path d="M422.173 374.527l-20.346 14.088-5.917-10.54z"/><path d="M413.562 401.028l-8.18-23.356-10.981 5.049z"/><path d="M413.562 401.028l-19.685-14.996 8.195-8.884z"/><path d="M377.086 374.527l24.741.562-1.408 12.004z"/><path d="M377.086 374.527l20.346 14.088 5.917-10.54z"/><path d="M385.697 401.028l8.18-23.356 10.981 5.049z"/><path d="M385.697 401.028l19.686-14.996-8.195-8.884zm-128.29-185.102l-7.11 23.704 11.851 2.37z"/><path d="M257.407 215.926l7.112 23.704-11.852 2.37z"/><path d="M279.951 232.305l-24.741.562 1.408 12.004z"/><path d="M279.951 232.305l-20.346 14.088-5.917-10.54z"/><path d="M271.34 258.806l-8.18-23.356-10.981 5.048z"/><path d="M271.34 258.806l-19.686-14.997 8.195-8.884z"/><path d="M234.864 232.305l24.74.562-1.407 12.004z"/><path d="M234.864 232.305l20.346 14.088 5.917-10.54z"/><path d="M243.475 258.806l8.18-23.356 10.981 5.048z"/><path d="M243.475 258.806l19.685-14.997-8.195-8.884zm72.855-122.094l19.686-14.997-8.195-8.884z"/><path d="M316.33 136.712l8.18-23.356 10.982 5.048z"/><path d="M307.72 110.21l20.346 14.089 5.917-10.54z"/><path d="M307.72 110.21l24.74.563-1.407 12.004z"/><path d="M330.263 93.832l-7.11 23.704 11.851 2.37z"/><path d="M330.263 93.832l7.111 23.704-11.851 2.37z"/><path d="M344.196 136.712l-19.686-14.997 8.195-8.884z"/><path d="M344.196 136.712l-8.18-23.356-10.981 5.048z"/><path d="M352.807 110.21L332.46 124.3l-5.917-10.54z"/><path d="M352.807 110.21l-24.741.563 1.408 12.004zm-61.339 79.23l-8.18-23.356-10.981 5.048z"/><path d="M291.468 189.44l-19.685-14.997 8.195-8.884z"/><path d="M263.603 189.44l19.686-14.997-8.195-8.884z"/><path d="M263.603 189.44l8.18-23.356 10.981 5.048z"/><path d="M254.992 162.938l20.346 14.088 5.917-10.539z"/><path d="M254.992 162.938l24.741.562-1.408 12.005z"/><path d="M300.08 162.938l-20.347 14.088-5.917-10.539z"/><path d="M300.08 162.938l-24.742.562 1.408 12.005z"/><path d="M277.536 146.56l7.11 23.703-11.851 2.37z"/><path d="M277.536 146.56l-7.112 23.703 11.852 2.37zM300.105 305.502l-24.74.562 1.407 12.004z"/><path d="M300.105 305.502L279.76 319.59l-5.916-10.54z"/><path d="M291.495 332.003l-8.18-23.356-10.982 5.048z"/><path d="M291.495 332.003l-19.686-14.997 8.195-8.884z"/><path d="M263.63 332.003l19.685-14.997-8.195-8.884z"/><path d="M263.63 332.003l8.179-23.356 10.981 5.048z"/><path d="M277.562 289.123l7.111 23.704-11.852 2.37z"/><path d="M277.562 289.123l-7.111 23.704 11.852 2.37z"/><path d="M255.018 305.502l24.741.562-1.408 12.004z"/><path d="M255.018 305.502l20.346 14.088 5.917-10.54z"/><g><path d="M351.55 353.212l-24.74.562 1.408 12.004z"/><path d="M351.55 353.212L331.206 367.3l-5.917-10.54z"/><path d="M342.94 379.714l-8.18-23.357-10.981 5.049z"/><path d="M342.94 379.714l-19.686-14.997 8.195-8.884z"/><path d="M315.074 379.714l19.686-14.997-8.195-8.884z"/><path d="M315.074 379.714l8.18-23.357 10.982 5.049z"/><path d="M329.007 336.833l7.111 23.704-11.852 2.37z"/><path d="M329.007 336.833l-7.111 23.704 11.852 2.37z"/><path d="M306.464 353.212l24.74.562-1.408 12.004z"/><path d="M306.464 353.212L326.81 367.3l5.916-10.54z"/></g><g><path d="M541.852 215.926l7.11 23.704-11.85 2.37z"/><path d="M541.852 215.926l-7.111 23.704 11.852 2.37z"/><path d="M519.308 232.305l24.741.562-1.408 12.004z"/><path d="M519.308 232.305l20.346 14.088 5.917-10.54z"/><path d="M527.92 258.806l8.179-23.356 10.981 5.048z"/><path d="M527.92 258.806l19.685-14.997-8.195-8.884z"/><path d="M564.395 232.305l-24.74.562 1.407 12.004z"/><path d="M564.395 232.305l-20.346 14.088-5.917-10.54z"/><path d="M555.784 258.806l-8.18-23.356-10.98 5.048z"/><path d="M555.784 258.806L536.1 243.81l8.195-8.884zm-72.855-122.094l-19.686-14.997 8.195-8.884z"/><path d="M482.929 136.712l-8.18-23.356-10.982 5.048z"/><path d="M491.54 110.21l-20.348 14.09-5.916-10.54z"/><path d="M491.54 110.21l-24.742.563 1.408 12.004z"/><path d="M468.996 93.832l7.111 23.704-11.852 2.37z"/><path d="M468.996 93.832l-7.111 23.704 11.852 2.37z"/><path d="M455.063 136.712l19.686-14.997-8.195-8.884z"/><path d="M455.063 136.712l8.18-23.356 10.981 5.048z"/><path d="M446.452 110.21l20.346 14.089 5.917-10.54z"/><path d="M446.452 110.21l24.741.563-1.408 12.004zm61.338 79.23l8.18-23.356 10.982 5.048z"/><path d="M507.79 189.44l19.687-14.997-8.195-8.884z"/><path d="M535.656 189.44l-19.685-14.997 8.195-8.884z"/><path d="M535.656 189.44l-8.18-23.356-10.981 5.048z"/><path d="M544.267 162.938l-20.346 14.088-5.917-10.539z"/><path d="M544.267 162.938l-24.74.562 1.407 12.005z"/><path d="M499.18 162.938l20.346 14.088 5.917-10.539z"/><path d="M499.18 162.938l24.741.562-1.408 12.005z"/><path d="M521.724 146.56l-7.112 23.703 11.852 2.37z"/><path d="M521.724 146.56l7.11 23.703-11.851 2.37zM499.154 305.502l24.74.562-1.407 12.004z"/><path d="M499.154 305.502L519.5 319.59l5.917-10.54z"/><path d="M507.765 332.003l8.18-23.356 10.98 5.048z"/><path d="M507.765 332.003l19.685-14.997-8.195-8.884z"/><path d="M535.63 332.003l-19.686-14.997 8.195-8.884z"/><path d="M535.63 332.003l-8.18-23.356-10.981 5.048z"/><path d="M521.697 289.123l-7.11 23.704 11.851 2.37z"/><path d="M521.697 289.123l7.111 23.704-11.851 2.37z"/><path d="M544.24 305.502l-24.74.562 1.408 12.004z"/><path d="M544.24 305.502l-20.345 14.088-5.917-10.54z"/><g><path d="M447.709 353.212l24.74.562-1.408 12.004z"/><path d="M447.709 353.212l20.346 14.088 5.916-10.54z"/><path d="M456.32 379.714l8.18-23.357 10.98 5.049z"/><path d="M456.32 379.714l19.685-14.997-8.195-8.884z"/><path d="M484.185 379.714l-19.686-14.997 8.195-8.884z"/><path d="M484.185 379.714l-8.18-23.357-10.982 5.049z"/><path d="M470.252 336.833l-7.111 23.704 11.852 2.37z"/><path d="M470.252 336.833l7.111 23.704-11.852 2.37z"/><path d="M492.796 353.212l-24.741.562 1.408 12.004z"/><path d="M492.796 353.212L472.45 367.3l-5.917-10.54z"/></g></g></g></g></svg>