<svg width="800" height="480" xmlns="http://www.w3.org/2000/svg"><g fill="none" fill-rule="evenodd"><path fill="#68BFE5" d="M0 0v480h800V0z"/><path d="M519.9 136.2v136.4c0 44.6 80.6 71 80.6 71s80.5-26.4 80.5-71V136.2H519.9z" fill="#FFF"/><path fill="#D21034" d="M589.3 184.2v61.4h-69.4v22.3h69.4v71.5l11.2 4.3 11.1-4.3V268H681v-22.4h-69.4v-61.4z"/><path fill="#D21034" d="M519.9 136.2H681V189H519.8z"/><g transform="translate(523.35 160.175)" fill="#FFF" stroke="#000" stroke-width=".532"><ellipse cx="9.441" cy="8.111" rx="9.042" ry="7.313"/><ellipse cx="9.441" cy="4.322" rx="8.045" ry="4.056"/><ellipse cx="9.441" cy="12.499" rx="8.045" ry="4.056"/><ellipse cx="9.441" cy="8.111" rx="8.045" ry="4.056"/></g><path d="M677 178.4l-1.3-3.6s-3.6-1.5-3.9-3.4c-.6-5.1-2.4-7-5.2-7.8a6 6 0 0 0-4.5.5c-.8 1.2-5 1.2-7.2 1.3-2.3 0-2.4-1-2.4-1-1.7 0-2.5-1.3-2.5-1.3-1.1-2.3-2-3.2-2.6-3.5 3 0 5.2-1.3 8.6-4.8 3.6-3.8 6.2-2.4 6.2-2.4-1.8 3.6.6 3.3.6 3.3 4.8-2.5.6-8.7-.8-8.4-1.5.3-1.9-.7-1.9-.7 0 1.1-1.6 1.6-1.6 1.6 1.2-7.1-3-9-3-9-.6.6-1 1.9-1 1.9-1.2 4.3-5.1 3.6-9.5 1.5-4.4-2-16 2.2-19.7 3.7-3.7 1.5-10.4 3.7-16.4.4-6-3.4-7.5-2.8-9.9-2.1-2.3.6-6.5 1.6-8 .8a8.5 8.5 0 0 0-3.4-.9c.4-.2-.2-1.2-.2-1.2-1.9-2.5.2-4 .2-4s-3.4 1-2 6.8l.6.8s.4 1.9 1.4 2.4v.4s.9-.4 1.1.8c.3 1.2 1.6 0 2.1-1 0 0-.9 5.4 5.7 6.7 0 0-.7-.9-.5-1.4.3-.6-.8-1-.7-1.8.1-.9-1.6-1.2-.3-1.9 1.4-.6 2-1.9 5-.1 2.9 1.7 5.2 1.3 5.2 1.3s-1.8-3.6-.8-3.6 5.4 5.4 7.5 5.2c2.2-.3 6.4-2.8 8.5-1.9 0 0 .2-1 8.2-2.4 8-1.4 18-5.4 21.7-1.9 0 0 .4 2.8 2 3.5 0 0-.3 5.8-10.2 2.6l-3.6-1s-.6-1.7-19.5 3.2c0 0-1.1.4-1.9.9-.7.5-1.7-.3-5.5 1-3.7 1.5-17.7 6-26.3 4.4-1.9-.6-3.6-.3-3.7-.6 0-.3 1 .1 1 .1-.6-.7-.9-.8-.9-.8-7.2-.8-6-4-6-4l.4 1c1.2-1.6-.4-5.2-.4-5.2h-.1a3.8 3.8 0 0 0 0-.3l.5-.4c3.5-3 7.5-3.5 7.5-3.5-2.4-3-7.4-1.4-7.4-1.4.1-3.5-1.4-7.7-1.4-7.7a12 12 0 0 0-7.7 4.7c-.2-3.7-4.9-5.8-4.9-5.8 1.8 2.1.7 7.2.7 7.2h.2-.5l-.1 1.1h-.2s-1.7.6-3.7 5.2c0 0-.2 1-1 2v-.4s-2.3 3-7.4 0c0 0-7-4.1-9.6-4-2.4.2-4 1.3-3.9 2 0 0-5.7-.4-7.6 2.8 0 0-4.3 1.6-.6 5 0 0 .5 1.6 1.5 2.4 0 0-.1-3.2.7-2.3l.5.6c.1.4.5 1.6 1.2 2.3l.6-.2c0-.8.2-1.8.4-2.2h.2l1 1.6 1-.6c.6 0 1.3.5 1.3.5l1.3-1.1c1.3.2 1.7-2.4 1.7-2.4a4 4 0 0 0 3.1-.5c.6 2 5.2 4.3 5.2 4.3h.2l-.6.4c2.1 1.5 6 1.1 6 1.1-1.6.6-1.4 3.7-1.4 3.7-1 .4-1 1.3-1 1.3 3.2 1.3 5.3.2 5.3.2.2 1 0 1.2 0 1.2-1.3 2.7-1.9 5.4-1.9 5.4h.1v.2s-5.7 2-8.1 4.7c0 0-.3-.8-1-.8s-2.8-1.8-3.8-2.1c-1-.3-2.5.3-3-.2-.3-.4-.1-3.6-.8-4l-.7-2c-.4 1-2.4.8-2.4.8l-.8.6-.8-.1c-.2 0-.4.5-.5 1l-.3.3v-.6c-.3.3-1.1-.1-1.4-.1-.2 0-.4.4-.5.9l-1.9.1c-.3.2 0 2.6 0 2.6-2.3 1.2-1.2 3.1-1.2 3.1 1.2 6 11.5 3.3 12.3 4.1.8.8 2.6 1 3.5 1 1 0 2.1 2.2 3.4 2.4 1.3.2 0-1.8 6.1-3.2 6.1-1.5 8.2-4 8.2-4 1.9-.4 2.4-2.7 2.5-3.6l.2 1.4c.3 2.1-1.2 3-1.2 3l5.3-1.7c2.1-.5 1.8-2.4 1.8-2.4 2 5.8 5.7 6.2 5.7 6.2.7-2.2.6-2.9.6-2.9h1.7c0-1.3-1-2.2-1.7-2.6l2.6 1.5 1-.1c0 .9 1.3 1.7 1.3 1.7l.2-1.2c1.2 1.6 3.4 1 3.4 1a7.3 7.3 0 0 0-.2-.8c4.7 2.9 12.2-.8 12.2-.8 2 .4 2.3-.8 2.3-.8 2.2.3 2.8-1.3 2.8-1.3 5.3-.4 9.1-4.2 9.1-4.2 2.7-.2 2.8-2.1 2.8-2.1s2.6.5 5.2-2.7c6-8.5 14.8-4 14.8-4l-5.1.3c-13.5-.1-7.9 9-7.9 9h.8c1.3.2 5.7 3.7 4 6.2v.2c-2.8 3.7-7.8.2-9.3-3-1.4-3.2-4.4-2.5-4.4-2.5s-7.5 1.3-4.4 7.3c.1 1.5 1 3.2 3.8 4.8 1.5 2.2 6.5 2.4 10.1 1.6C623 187 632 183 632 183c.7-2 3-1.5 5-4.4 2-2.8-2.9-3.8-4-5.4-1-1.5.3-1.2.3-1.2 4.4 2.3 4.8-5.2 4.8-5.2a6.6 6.6 0 0 0 4.3 5.5c2.3-2.3.6-7.2.6-7.2 5.7 10.2 9.1 8.5 9.1 8.5-3-1.8-1.5-4.4-1.5-4.4 2.7 10.8 14 1.4 14 1.4-.6 1.6 0 2.5 1 3.5s2.2 1.4 1.6 3.3c-.5 1.8-5.8 1.4-5.8 1.4s-5-.2-4.6 4c.3 1 3.6 1.4 5 1.1 0 0-.6.2 1.3.4h2.2c2.1 0 4.5-.4 4.5-.4 2.9-.6 2.4-1.6 2.4-1.6 4.5-.8 5-3.8 5-3.8l-.2-.1z" stroke="#000" stroke-width=".8" fill="#FFD100"/><path d="M528.6 159.7s.3-.5.7-.6c.4 0 .8.2 1.2.8l.3-.2s-1.2-1.8-.8-3c.3-.6.8-1 1.6-1.1v-.3c-1 .2-1.6.6-1.8 1.3a2 2 0 0 0-.2.7c0 .6.2 1.2.5 1.7a1.1 1.1 0 0 0-.8-.2 1 1 0 0 0-.8.6l.1.3zm141 24c-3 .5-7.5.7-7.9-.2 0-.2 0-.8 2.4-2.4l-.2-.5c-2.1 1.4-3 2.3-2.7 3 .7 1.8 7.2.8 8.5.6l-.1-.5zm-58.4 1.7c-.7-1-.3-2.5 1-4.3l-.5-.3c-1.4 2-1.7 3.6-1 5l.5-.4z" fill="#000" fill-rule="nonzero"/><path d="M607.1 180.8c0 1.9 1.4 3.6 3.9 5.1l.3-.5c-2.4-1.4-3.6-3-3.6-4.6-.2-2.5 2.5-4.5 2.6-4.5l-.3-.4c-.2 0-3 2.1-2.9 5v-.1zm52 .7c-.8 1.3-.5 2.8-.5 2.8h.5c0-.1-.2-1.4.5-2.5a3 3 0 0 1 2-1.2v-.5c-1.1.2-2 .7-2.4 1.4h-.1zM540 158.1h-.2v.2s-.2 1.6-1 2a.8.8 0 0 1-.6 0l-1.3-.7c-.2-.2-.4-.3-.8-.2a1.8 1.8 0 0 1-.4-1.4c.1-.7.6-1.4 1.6-2l-.2-.3c-1 .7-1.6 1.5-1.7 2.3 0 1 .5 1.6.5 1.6v.1h.2c.3-.1.3 0 .6.2l1.4.8h1c.7-.5 1-1.9 1-2.2 3.2.7 5.8-3.3 6-3.4l-.3-.2s-2.7 4-5.8 3.2z" fill="#000" fill-rule="nonzero"/><path d="M532.1 157.5a3 3 0 0 0 .4 2c.3.5.7.8 1 .9.5 0 .8-.3 1.2-.6.2-.2.4-.4.6-.4l.3.2.2-.2-.5-.3c-.3 0-.6.2-.8.5-.2.3-.6.5-1 .5-.2 0-.5-.3-.8-.8a2.2 2.2 0 0 1-.3-1.7c.4-1.4 2.1-2.5 2.1-2.5l-.1-.3c-.1 0-1.9 1.2-2.3 2.7zm-4.4 20.7c.1-.6.6-1 1.3-1.4-.2 0 .6.6 1.3.6l.5-.3c.2.2 1.4 1.3 1.4 2.7 0 .3 0 .6-.2.9l.3.1c.9-2.1-1.4-4-1.4-4h-.2l-.4.3c-.6 0-1.3-.6-1.3-.6-1 .4-1.4 1-1.6 1.6l.3.1zm10.3-5.4c-.7.1-2.5.4-3.1 1.4-.2.4-.3.8-.1 1.2l.2.6c.6 1.6 1.2 3.2 1.9 3.6l.1-.3c-.6-.3-1.2-2-1.7-3.4l-.2-.6a1 1 0 0 1 0-1c.5-.7 2.2-1 3-1.1.4 0 .5 1.5.6 2.4h.3c-.1-1.4-.3-2.8-1-2.8z" fill="#000" fill-rule="nonzero"/><path d="M532.9 174.4c-.4.3-.3.8-.3.9 0 .1.2 4 2 4.8l.1-.3c-1.6-.7-1.8-4.5-1.8-4.6 0 0 0-.4.2-.6.3-.2.8-.3 1.6 0l.1-.3c-.9-.3-1.5-.2-1.9 0v.1z" fill="#000"/><path d="M531.4 174.7c-.8.6-.7 2.2-.7 2.3h.3s0-1.6.6-2c.3-.2.6-.2 1 0l.1-.4c-.5-.2-1-.2-1.3 0v.1z" fill="#000"/><g transform="translate(547.285 145.548)" fill="#000"><path d="M28.124 7.646s.864 1.994.864 3.524c0 .266-.133.465-.2.665l-.332-.865-.2.665s-.398.93.2 1.928c.798 1.33 2.792 2.128 5.984 2.46v.067a.532.532 0 0 0-.266.066l-.133.133v.266c.133.332.465.332 1.197.332l.465.067.399.133-.067-.067c.665 0 1.53.2 2.394.532l-.665.133.731.333c.067 0 5.785 2.327 8.112 4.188-.665.599-3.524 2.66-8.444 1.463l-.798-.2.532.665s3.258 3.724 3.923 5.984c-1.13 0-5.452 0-6.981-1.33l-.333.333s1.995 3.058 2.527 5.385c-.665.133-1.995.2-2.86-.93l-.398-.466-.2 1.33c-.398-.333-.93-.732-.93-1.263v-.266l-1.197.199-2.527-1.53a5.319 5.319 0 0 0-.399-.265l-.265.465.398.2c.532.399 1.463 1.13 1.53 2.194h-1.596v.332c0 .2 0 .931-.598 2.46-.732-.133-3.524-1.13-5.186-5.85l-.532.132v.133c0 .466-.133 1.53-1.596 1.928l-4.321 1.33c.378-.544.565-1.2.531-1.861v-.532a13.497 13.497 0 0 1-.133-1.729c0-.997.2-1.596.931-1.995l-.266-.531c-.066 0-6.382 2.593-9.507 1.529.133-.665.665-2.793 1.728-5.053l-.133.133c.2-.133.4-.4.2-1.463v-.332l-.332.133s-1.995.93-4.92-.133c0-.266.199-.665.797-.931l.2-.067v-.531c0-.798.066-2.66 1.197-3.059l-.133-.532s-3.391.266-5.452-.864a7.313 7.313 0 0 1 2.992-1.263h.2v-.266a3.99 3.99 0 0 0-.333-1.53c.798.267 1.728.466 2.06.2l.134-.066-.133-2.061h-.532l.066 1.728-1.994-.465-.798-.266.532.665a2.66 2.66 0 0 1 .465 1.595A8.444 8.444 0 0 0 .4 16.622l-.333.265.333.2c1.596 1.064 4.056 1.197 5.319 1.13a5.585 5.585 0 0 0-.865 2.992v.266c-.535.313-.901.85-.997 1.463v.2l.133.066a7.313 7.313 0 0 0 5.253.332v.598c-1.33 2.793-1.995 5.519-1.995 5.519v.266h.2c2.592 1.063 7.113-.333 9.175-1.064-.266.465-.466.997-.466 1.662.008.758.075 1.513.2 2.26 0 1.53-.998 2.128-1.064 2.128l.2.532 5.318-1.596c1.197-.332 1.662-1.063 1.862-1.662 2.06 4.92 5.319 5.32 5.518 5.386h.2l.066-.2a9.308 9.308 0 0 0 .665-2.66c.532-.02 1.064-.042 1.596-.066v-.332c0-.466-.067-.865-.266-1.197l.93.532.865-.133c.2.864 1.263 1.596 1.396 1.662l.332.2.2-1.13c1.33 1.13 3.125.797 3.258.797l.2-.066v-.266c-.267-1.795-1.464-3.923-2.195-5.053 2.327 1.064 6.582.997 6.782.997h.266v-.332a19.946 19.946 0 0 0-3.724-5.984c5.452.997 8.378-1.862 8.51-1.995l.2-.2-.266-.132a35.77 35.77 0 0 0-7.712-4.189l.598-.133-.665-.332a8.51 8.51 0 0 0-3.856-.931c-.665-.798-.997-.864-1.064-.93-3.723-.4-5.053-1.397-5.585-2.195v-.2l.133-.199c.333-.465.466-1.063.466-1.728 0-1.729-.865-3.657-.865-3.724l-.531.2z"/><path d="M11.17 6.582s-.4 1.995-2.128 2.992c-1.33.665-2.992.665-5.053-.2l-.266-.066v.266c.149.856.626 1.62 1.33 2.128.864.664 2.194.93 3.923.797-.599.665-2.394 2.926-2.394 5.186v.333c.266.133 3.058.93 4.388-.732 0 .665.266 2.992 1.13 3.857.532.531.665 1.196.665 1.795 0 .532-.133.93-.133.93l-.133.4.333-.267c.133-.066 2.726-1.994 3.524-4.454 0 0 .465-.665 1.263-.864v.332c0 .997.399 2.726 3.191 3.79l.2.066v-.2a4.72 4.72 0 0 1 0-.465c0-.731 0-1.994.73-2.66a1.862 1.862 0 0 0 .4-2.193c.598.133 1.928.598 2.46 1.596.798 1.462 3.524.265 3.657.265l-.067-.332s-1.197.266-1.928-.2a1.396 1.396 0 0 1-.532-.997l-.133-1.595c0-.665-.133-1.13-.465-1.463.332 0 1.063 0 1.33.665.531 1.064 2.193 1.13 2.26 1.13l.598.067-.465-.333s-1.463-.93-1.197-2.194l.2-.93c.399-1.663 1.063-4.389.465-6.117l-.266.133c.133.398.2.93.2 1.462 0 1.463-.466 3.325-.665 4.455l-.266.93c-.01.111-.01.222 0 .333 0 .864.465 1.463.864 1.795-.465-.066-1.13-.332-1.33-.864-.465-.931-1.529-.931-1.994-.865l-.4.067.267.266c.465.266.532.665.532 1.53l.133 1.528c.066.532.332.931.665 1.197.398.266.797.266 1.13.332-.798.2-1.928.333-2.327-.398-.732-1.463-2.86-1.796-2.926-1.862h-.332l.133.266s.266.399.266.93c0 .333-.133.799-.466 1.13-.73.732-.864 2.128-.864 2.86v.266c-2.393-.998-2.792-2.46-2.792-3.325v-.664l.133-.2h-.266c-.71.12-1.323.563-1.662 1.197a9.973 9.973 0 0 1-3.125 4.122c.038-.22.06-.442.066-.665 0-.598-.133-1.33-.665-1.928-.997-.93-1.13-3.99-1.13-3.99v-.531l-.266.465c-1.064 1.862-4.122.931-4.188.931-.133-2.327 2.659-5.385 2.659-5.452l.266-.266h-.399c-1.795.266-3.191 0-4.122-.664a3.058 3.058 0 0 1-1.064-1.663c1.995.732 3.723.798 5.053.067a4.92 4.92 0 0 0 2.26-3.191c1.995-4.388 3.657-5.12 3.657-5.12l-.066-.266c-.133 0-1.862.665-3.856 5.32z"/><path d="M15.624 0h-.133l-1.595 2.194h.465a20.61 20.61 0 0 1 13.098 6.117l.2.2 1.528-1.663-.133-.2C24.733-.132 15.691 0 15.558 0h.066zm.133.598c1.064 0 8.776.2 12.765 6.184l-.864.93a21.94 21.94 0 0 0-12.832-5.917l.931-1.197z" fill-rule="nonzero"/><path d="M14.361 4.521a7.313 7.313 0 0 0-1.396 3.191l.066.266a4.853 4.853 0 0 0-1.33 3.657c0 .864.134 1.729.4 2.527l.199.465c.798 2.26 1.53 4.255 5.186 3.058 3.457-1.063 3.59-1.33 4.454-2.792l.266-.333c.466-.797.998-.93 1.53-1.13.664-.2 1.33-.399 1.994-1.595l.532-.865c.665-.864 1.463-1.994 1.53-3.324h-.267a6.516 6.516 0 0 1-1.462 3.125l-.665.93a2.393 2.393 0 0 1-1.729 1.463 2.593 2.593 0 0 0-1.729 1.197l-.266.399c-.797 1.396-.93 1.596-4.321 2.66-3.324 1.063-3.99-.599-4.787-2.926l-.2-.465c-.93-2.527-.2-5.053 1.064-5.984l.4-.333-.6.067v-.067c0-.465.466-1.728 1.33-2.991.798-1.064 2.66-2.062 2.66-2.128l-.133-.266c-.133.066-1.928 1.13-2.726 2.194z"/><path d="M12.765 13.763c.599.399 1.397.332 2.46 0 0 .332 0 1.13.665 1.662.798.665 1.995.798 3.657.399v-.333c-1.596.4-2.793.266-3.457-.332a1.995 1.995 0 0 1-.599-1.596v-.266l-.2.133c-.997.4-1.794.466-2.393 0-.997-.665-.93-2.46-.93-2.46h-.266s-.133 1.995 1.063 2.793z"/><path d="M14.627 11.303a.75.75 0 0 0-.532.731v.2c.133.797.997 1.33 1.729 1.529.798.2 1.728.266 2.06-.2.134-.2.267-.532 0-1.13a2.46 2.46 0 0 0-3.19-1.13h-.067zm1.33 2.194c-.665-.2-1.463-.665-1.53-1.33 0 0-.066-.465.333-.598a2.194 2.194 0 0 1 2.792 1.063c.2.266.2.532.067.665-.2.333-.931.4-1.662.2zm-.266 1.795c-.2 1.662 0 1.728.066 1.728h.133l.133-.066.93-1.33-1.196-.532v.2h-.066zm.332.266l.466.2-.532.73v-.93h.066zm-2.792-1.596l-.067 1.53 1.33-1.596-1.33-.133v.2h.067zm.266.133h.399l-.4.532v-.532z" fill-rule="nonzero"/><path d="M12.3 13.43s.997 1.928 1.197 2.66c.066.399.665.93 1.33 1.13.664.266 1.33.266 1.795-.067l.864-.731c.266-.332.399-.399.665-.332v-.333c-.4 0-.599.133-.865.4l-.864.664c-.532.399-1.13.266-1.463.133-.665-.2-1.13-.665-1.196-.997-.2-.665-1.13-2.593-1.197-2.66l-.266.133zm1.33-5.718a3.324 3.324 0 0 0-1.596 1.862l.266.066s.465-1.196 1.396-1.662a1.928 1.928 0 0 1 1.596 0l.066-.266c-.665-.266-1.196-.266-1.795 0h.067zm7.18 3.458c.133 0 2.128 1.595.997 3.457l.2.2c1.33-2.195-.997-3.923-.997-3.99l-.2.333zm-6.117.266s-.332 1.13 1.33 1.529c0 0-1.53 0-1.662-.4-.067-.398 0-1.262.332-1.13zm4.987 1.33c0 .132-.133.199-.2.199a.2.2 0 0 1-.2-.133c0-.133.067-.2.2-.2.067 0 .2.067.2.2v-.067zm.133.797c0 .067 0 .133-.133.133a.2.2 0 0 1-.2-.133c0-.11.09-.2.2-.2.066 0 .133.067.133.2z" fill-rule="nonzero"/><circle cx="18.616" cy="13.164" r="1"/><path d="M19.148 14.228a.2.2 0 0 1-.399 0c0-.066.067-.133.2-.133l.199.133zm-4.72-4.853a.2.2 0 0 1-.4 0 .2.2 0 0 1 .333 0h.066z" fill-rule="nonzero"/><circle cx="14.361" cy="10.106" r="1"/><circle cx="13.364" cy="9.773" r="1"/><path d="M13.83 10.837a.2.2 0 0 1-.134.2.2.2 0 0 1 0-.4.2.2 0 0 1 .133.2zm3.19-6.382s2.327 1.462.067 4.188c0 0 1.13-.864 1.197-2.26.133-1.397-.798-2.527-1.33-1.928h.066zm8.976 3.922c-.798.4-1.862-.332-2.393-.997-.532-.665-1.663-.864-2.394.399-.665 1.197-1.662 1.662-1.662 1.662s.997-.532 1.994-1.662c.998-1.064 1.596-.2 2.593.332.931.532 1.13.665 1.796.333v-.067h.066z" fill-rule="nonzero"/><path d="M25.797 8.577a1.13 1.13 0 0 1-1.463-.067c-.665-.532-1.13-1.197-1.862-.798-.798.4-2.194 1.463-2.194 1.463s2.327-1.596 2.793-1.197c.399.333 1.462 1.197 2.06.931l.666-.332z"/><path d="M24.001 9.507c-.73-.531-1.462.665-2.06.532-.665-.133-1.13-1.196-1.13-1.196s.531 1.063 1.329.864c.864-.266 1.396-.798 1.928-.399.465.399-.067.2-.067.2z"/><path d="M22.871 9.707a1.33 1.33 0 0 1-1.595-1.263s.465 1.196 1.728.997l-.133.266z"/><path d="M22.805 8.776c.066.333.066.532-.333.532s-.665-.133-.665-.532c0-.332.931-.266.998 0zm-5.186-1.994a.465.465 0 0 1-.466.398c-.266 0-.332-.132-.332-.398s0-.466.332-.466c.333 0 .466.2.466.466z" fill-rule="nonzero"/><path d="M15.957 5.12s2.526 0 1.33 3.124c0 0 .93-1.529.332-2.66-.665-1.063-1.53-.797-1.53-.797s-.265.2-.132.332z"/><path d="M15.957 6.383c0 .665.399 1.263 1.196 1.928l.2-.266c-.732-.599-1.13-1.13-1.13-1.662s.399-.865.399-.865l-.2-.2s-.465.4-.532 1.065h.067z"/><path d="M16.489 6.915c.066.332.398.664.797.797l.133-.266c-.332-.133-.598-.398-.665-.664-.133-.532.266-1.13.266-1.13l-.266-.2s-.465.798-.265 1.463zm3.39 1.728s.466.997-.2 2.061l-.664 1.064s.798-1.53.465-2.128c-.266-.664.4-.997.4-.997zm9.707 10.505c2.527.465 8.311 4.986 8.311 4.986l.332-.398c-.199-.2-5.917-4.655-8.576-5.12l-.133.532h.066zm2.26 6.316c.134 2.327 2.66 3.723 2.66 3.79l.333-.466s-2.327-1.33-2.46-3.324h-.532zm-6.182.532c0 2.526 2.393 5.585 2.526 5.718l.399-.333s-2.394-3.058-2.394-5.385h-.531zm-8.045.266c.399.864.399 1.263.266 1.463-.133.266-.4.266-.4.266l.067.531c.2 0 .599-.132.798-.531.266-.466.2-1.13-.266-1.995l-.465.266z" fill-rule="nonzero"/></g><g fill="#FFF" fill-rule="nonzero" stroke="#000" stroke-width=".2"><path d="M528.6 159.3s.1 1.7 1.4 2.7c0 0-.1-1.8.3-2.6 0 0-.7-.8-1.7-.1zm2.6 1s.3 1.6 1.2 2.3l.6-.1s.2-2 .5-2.2c.3-.2-1.3.7-2.3 0z"/><path d="M533.5 160.3l1 1.6 1.2-.7-.2-1.8s-.7-.2-2 .9zm4.7.3l-1.3 1.1s-.7-.5-1.2-.5l.2-1.7s1-.7 2.3 1.1zm-9.3 16s-.2-2.4 0-2.5c0 0 1 .3 1.4 0 0 0 .5 1.8.4 2.6-.2.8-1.1.5-1.8 0v-.1zm6-2.4s-.1-2 .2-2.3c0 0 2 .3 2.4-.8l.7 2s-2.1-.3-3.4 1l.1.1z"/><path d="M532.8 174.6s.3-2.1.7-2.2c0 0 1 .3 1.3-.1v2.6s0-1.1-2-.3zm-2.3.3s.5-1.9.8-1.9c.3 0 1 .5 1.4.2v1.4s-1.6-.4-1.9 1.9l-.3-1.6z"/></g><path d="M560.7 213.4s5.2 4.9 3.9 9.2c0 0 3.3-7.3-.3-9.5-3.6-2-3.7-.5-3.6.3z" stroke="#000" stroke-width=".5" fill="#00A651"/><path d="M554 218.1s-1.3 2 .2 3.3c0 0-1.7 2.4-.4 4.4 0 0-1 2.1-.8 4.4 0 0-.8 3.5 1 5.1 0 0 2 1 3 .1 0 0 1.7-2.6.6-5.3 0 0 1.2-2.3-.2-5.2 0 0 .4-1.6-.7-3.5 0 0 .7-1.2.1-2.2 0 0-2.5-2.7-2.8-1v-.1z" stroke="#000" stroke-width=".5" fill="#964B36"/><path d="M555.5 212s-6.2-12-10.6-12.5c-4.4-.5-4.6-4.8-4.6-4.8s.5 2 4 2 10.2 5 11 8.7c.7 3.7 1.5 3.2 1.5 3.2l-1.3 3.4z" stroke="#000" stroke-width=".5" fill="#00A651"/><path d="M555.5 211.1s2.3-15.1 12.2-15.4c9.9-.2 6.6.8 9-.8 0 0-6.6 3.4-10.7 4-4.2.4-7.6 8.5-7.4 10 0 1.5-2.3 4.4-3.4 3.4-1.2-1 .3-1.2.3-1.2z" stroke="#000" stroke-width=".5" fill="#00A651"/><path d="M557.8 216.8s2.3-6 6.1-4c0 0-3-5.8-8.4-.8 0 0 2.4 3.3 2.3 4.8zm-7.5-6s3.2 13.4-1.8 17.5c0 0 .2-6.9-2.9-11-3-4.2 3-8.7 4.7-6.5z" stroke="#000" stroke-width=".5" fill="#00A651" fill-rule="nonzero"/><path d="M550.7 213.1s5.9 5.7 6.2 7.6c.4 1.8 1.8-5.7-1-7.8-2.8-2.1-5.7-2.5-5.7-2.5l.5 2.8v-.1z" stroke="#000" stroke-width=".5" fill="#00A651"/><path d="M539.8 228s.5 2.3 2 2.8c0 0 0 1.7 1.4 2.2 0 0-.7 1.5.4 2.4 0 0-.2 3 .8 3.5 0 0 2.7-.1 3.6-.9 0 0 .5-1.9-1-3.8 0 0 .3-1.8-1.2-2.8 0 0 .5-2.5-1.4-3.4 0 0-.3-2-1.4-3 0 0-2.2 3.1-3.2 3z" stroke="#000" stroke-width=".5" fill="#964B36"/><path d="M542.7 225s-7.7-2.8-12 1.2c0 0 6.6 1 7.4 2.3.8 1.3 4.9-2.2 4.6-3.5z" stroke="#000" stroke-width=".5" fill="#00A651"/><path d="M540.3 229.8l-1.4-1c-.7-.6-7.2-2.3-8.1 4 0 0-2.4-6.3 1-7 3.5-1 6.2 1 8.5 4zm-5-12.8s2.3 5.2 3.2 5.4c.9.3 1.5-.6 1.5-.6s-3.1-4.6-4.8-4.8h.1zm-1.8-7.9s-2-6.6-4.4-4.8c-2.4 1.7-1.8 6.5-1.8 6.5s-4.7-5-2-8.8c2.8-3.9 8.2.4 8.2 7.1z" stroke="#000" stroke-width=".5" fill="#00A651" fill-rule="nonzero"/><path d="M538.9 222.8s0 1.3.9 1.6c.8.4 2.5 1 2.5.3s-1.3-3.7-1.8-3.3c-.5.4-1.4.4-1.6 1.4z" stroke="#000" stroke-width=".5" fill="#964B36"/><path d="M537.4 215s-.3-5.7 3.5-7.9c0 0 .7.2 1.1-1 0 0-3 7.3-2.1 11l-.1.4" stroke="#000" stroke-width=".5" fill="#00A651"/><path d="M538.1 208s6.8-14 15-9.1c0 0-8.6 1.7-11.7 7.9l-3.1 4.6-.2-3.4z" stroke="#000" stroke-width=".5" fill="#00A651"/><path d="M534.5 213.1s-2-9.4-3.3-10.6c-1.2-1.3-3.3-2.6-5.9-.5 0 0 4.4-3.9 9-.6 4.7 3.2 3.7 8.4 3.7 8.4l-.5 6.5-3.1-2.9" stroke="#000" stroke-width=".5" fill="#00A651"/><path d="M541.8 224.3s-8.3-15.7-13.7-4.5c0 0-1 2.9.1 4 0 0-3-2.3-1.6-7.8s10.5-3 13.2 1.5c2.6 4.5 3.3 6.8 3 7-.4.3-1-.2-1-.2zm23.3 4.5s6-12.4 9.5-6.8c0 0 1 2.8-.5 4 0 0-2.4-3-4.5.6-2.2 3.5-1.3 3.2-1.3 3.2s-2.2.6-3.2-1z" stroke="#000" stroke-width=".5" fill="#00A651" fill-rule="nonzero"/><path d="M574 226s3.3 1.7 2.2 5.2c0 0 4.4-8.4-1.6-9.2 0 0 1.1 2.7-.5 4h-.1zm.5-8.6s7.9 2.3 8.1 5.7c0 0 1.4-6.6-3.1-8.6 0 0-5.4 1-5 3v-.1z" stroke="#000" stroke-width=".5" fill="#00A651" fill-rule="nonzero"/><path d="M578 207c3.4-6.6 7.6 2.1 7.6 2.1s1.5-6.9-2.7-8.1c-4.3-1.3-7 14.7-7 14.7l-5 1s1.3-13.8 8.8-15h1" stroke="#000" stroke-width=".5" fill="#00A651"/><path d="M572 211s-4.8-9.8-8-10.8 1.7-2.5 3.7-.6 5.8 4.3 5.4 9.3L572 211zm-5 13.4s1.4-6.6 5.2-8.6c3.8-2 7.3-1.3 7.3-1.3s-4.5 1-5.3 3.3c-.7 2.2-2 2.4-2 2.4l-5.1 4.2h-.1z" stroke="#000" stroke-width=".5" fill="#00A651" fill-rule="nonzero"/><path d="M565 228.8s-2 4-1.6 4.6c0 0-2.2 3.3-1.3 5 0 0 2.2 1.7 3.2 1 0 0 2.6-3.7 1.9-5.7 0 0 1.8-2.4 1.1-3.9 0 0-2.6.1-3.2-1h-.1z" stroke="#000" stroke-width=".5" fill="#964B36"/><path d="M554 221.6c.2.1 1.5.7 2.3.4l.6-.5-.5-.2c-.3.6-1.7.1-2.1-.1l-.2.4h-.1zm-.1 4l-.2.5c.1 0 2.7.5 3.9-.6l-.4-.4c-1 .9-3.3.4-3.4.4l.1.1zm-.7 4.4l-.3.4s3 2.1 4.9-.2l-.5-.3c-1.5 1.9-4 .2-4.1 0v.1zm-11.5.6l.1.3c.1 0 2.6-1 2.8-2.9h-.3c-.1 1.6-2.5 2.6-2.6 2.6zm1.4 2.3v.3c.2 0 2.5-.2 2.9-1.8h-.3c-.4 1.3-2.5 1.5-2.6 1.5zm.5 2.4v.3c.1 0 2.7.1 3.6-1.3l-.3-.2c-.8 1.3-3.3 1.2-3.3 1.2zm19.7-1.7s1.1 1.2 2.4 1.1a2.3 2.3 0 0 0 1.7-.8l-.4-.4c-.4.5-.8.7-1.3.7-1 0-2-1-2-1l-.4.4z" fill="#000" fill-rule="nonzero"/><g fill="#964B36" fill-rule="nonzero" stroke="#000" stroke-width=".3"><path d="M641 242.8a1.1 1.1 0 0 0-.3.3l.4-.3h-.1zm9.3-2.3c-.1-.2-.2-.1-.3-.2l-.4-.8h-.3l-.7-1.4a.4.4 0 0 0 0-.3 7.6 7.6 0 0 0 0-.4s-.2 0-.3-.2v-1.6l-.1-.5a2 2 0 0 1-.3-1.1v-1c.1-.4-.1-.6-.1-1l.1-.9v-5.4l-.1-1-.1-.4v-1.6 2.6l-.2-4.3-3.4-1.6s-.3 6.2-.2 7c0 .9.4 6.7.2 7.4l-.5 4.3s-1.6 1.2-2.2 2.4c-.7 1.3-.5 1.7-.7 1.7l1.5-.2-1.1.8a.7.7 0 0 1 .7.1l.2.2.2-.2c.3 0 .5.4.7.3l.4-.2.2-.4c.1-.1.3 0 .4 0h.7c.3 0 .6-.5.9-.7.2-.2.4-.3.7-.3.3 0 .6.3 1 .3.2 0 .3 0 .5-.2l.4-.6.8-.1.4.1h.6l.3.2.2-.4-.1-.4z"/><path d="M643.5 242.7h.6v.2a.2.2 0 0 0 .2 0l.3.2h.3l.4.1c.2.1.4 0 .6-.1.2-.2.3 0 .6.2.1.1.1.1.2 0l.1-.1.3-.1.3-.1.4-.2.4.2a.8.8 0 0 1 .2 0l.7-.5c.3-.2.5 0 .7 0h.3c.1-.1.2 0 .4 0 0-.1 0-.2.2-.3l.7.4c.1.1.7.2.6-.2 0-.4-.4-.1-.5-.4v-.6a.7.7 0 0 0-.3-.4c-.2 0-.2.1-.4 0l-.2-.6-.3.2c-.2 0-.2-.1-.3-.3-.3-.3-.4.2-.7.1-.2 0-.4-.5-.5-.7-.1-.1-.3-.5-.5-.4-.2.1 0 .5 0 .7h-.5c-.2 0-.2 0-.3.2-.2.4-.3.7-.7.6-.1 0-.3-.1-.4 0l-.5.2a1 1 0 0 1-.4 0l-.4-.4a.1.1 0 1 0-.2 0 8.7 8.7 0 0 0-.1-.2c-.2 0-.2 0-.3.3l-.1.5-.3.4-.4.1c-.2 0-.4.3-.4 0-.2-.4.3-1.1-.2-1-.1 0-.2 0-.3.2v.7c-.1.3-.7.8-.6 1 0 .3.4 0 .4 0l.2.4c.2.3.7-.4.7 0m-2.1-2.7v-.2l-.4-.1c-.2 0-.4.3-.5.4-.2.4-.2 1-.6 1h-.5v1s-.2 0-.2.2c-.1.4.2.2.4.2h1l.5-.1c.2 0 .4 0 .5-.2a2.2 2.2 0 0 0 .2-.4v-.4c0-.2.3-.1.3-.4.1-.7-.6-.2-.5-.9"/></g><g fill="#000" stroke="#000" stroke-width=".5"><path d="M649.8 220.9c0 .9-.6 1.6-1.4 1.6-.7 0-1.4-.7-1.4-1.6 0-.9.7-1.6 1.4-1.6.8 0 1.4.7 1.4 1.6zm-4.5-2c0 .9-.6 1.6-1.4 1.6-.8 0-1.4-.7-1.4-1.6 0-1 .7-1.6 1.4-1.6s1.4.7 1.4 1.6z" fill-rule="nonzero"/><path d="M647.7 219.5c0 1-.6 1.6-1.4 1.6-.8 0-1.4-.7-1.4-1.6 0-.9.6-1.6 1.4-1.6.8 0 1.4.7 1.4 1.6z"/><path d="M645.4 221c0 .9-.6 1.6-1.4 1.6-.8 0-1.4-.7-1.4-1.6 0-.9.6-1.6 1.4-1.6.8 0 1.4.7 1.4 1.6z"/><path d="M647.5 222.3c0 .8-.6 1.6-1.4 1.6-.7 0-1.4-.7-1.4-1.6 0-1 .7-1.7 1.4-1.7.8 0 1.4.7 1.4 1.6v.1z"/></g><path d="M648.2 204.5s13.9-19.4 28.8.7c0 0 .1 2-1.3 4.2l-.3-1.7-1 .3-.2-1-1.6-.1.5-2.2-1.7 1.4.2-1.5-2 2 .3-4.3-2.2 3.7.3-2.5-.8 1.1-.4-1.5-.7 1.5-1-.7v1l-1.8-1.5-.6 2-.9-2.2-.2 1.5-.9-1.7-.1 1.9-2.9-1.3.6 1.8-1.3-1 .2 1-1.9-.4.2 1.1-2-.4.3 1-2.7-.3 1 1-.3.6s15-5 16 13.8l-2.7 1.3.8-1.5-.8-.5-2.3-1.7.7-2.4-.8.3-.1-1.4-.4.2-.9-1.3-.2.5-.6-1.7-.7 1.2-.3-2.8-1 1.8-.2-1-.3.6-1.3-1.5-.4 1-.5-.8-.3 1-1.4-1.4v1l-1-.7-.3.5-2.1-1.1-.1 1-1.2-1-.3 1s13.6 7.8 9.4 20.4l-.8 1.6-.2-4.2-1.3 2.2.9-4.9-.9 1-.1-2-1.1 2-.4-2.2-.5.6-.8-3.2-.6 1.3-1-3.6-.8 1.5-.5-3.1-.5 1.9-1.5-2.8-.2 1.1-.9-2.2-.5.7s-2.5-.1-3.3-.7c-.7-.7-2.8 3.7-2.8 3.7l.2-2.6-.9 1.8v-1.8l-1.6 5.3-.4-3.8-.8 3.3-.4-1-.3 1.3-.5-.5-.4 1.5-.8-.6v2l-.8-1-.6 3-.4-1.2v1.3l-.6-.7-.6 3-1-1.3v2.2l.3 1.6-1-.5.4 2.6s-3.9-7.2.8-14.2c4.6-7 10.9-9 10.9-9l-.7-.6v-.6l-3.8 1.9v-1.1l-1 .8-.2-1.2-.6 1.1-.1-.5-1 1.4-.4-2-.6 2.4-.6-1.7-1.3 3.5V213l-1 2.8-.4-3-.7 3.4v-3l-1.2 3-.7-3-.5 3-.8-2.3-.7 3.4-1.2-3-.6 4.5-.7-1.8-.2 3.3-.8-2 .8 4.2-1-1.6.3 2.6-1.6-2.9v3.4l-.8-1.1-.4 1.3s-.3-13 8.6-15.6c8.9-2.5 14.6.8 14.6.8l-3.4-2.8.4-.9h-1.2l.5-1-2.7.1.8-1-2 .3v-.6l-1.3 1 .5-1.2-1.7 1.2-.1-1.7-1 1.4-.4-1.5-4 4 1-4.1-.7.9-.1-1-1.1 1.8-.3-1.2-.5 1.5-.4-1.8-.8 1.8-1-1.6-.3 2.1-.6-1.1-.8 1.6-1-1v1l-2-.9.4 1.5-1.5-1.2-.4 2-.8-1-.7 2.5-.6-2.4-.6 1.9s7.8-20.2 27.6-7c0 0 2.2 2.1 2.7 3.6s.1.2.1.2l-.4-13.9.8 6 .5-2-.1 3 2-4.3s-2.4 7.2-1.5 9.9c0 0 .9-8.4 3.9-9.4l-2.8 6 .9-.1-.6 1.2h.7l-.9 2-.5 1 .5 1 .8-.7z" stroke="#000" stroke-width=".5" fill="#00A651"/><path d="M646.1 212.6l.4.4s1.3-1.4 3.4.4l.3-.4c-2.5-2.1-4-.4-4-.4h-.1zm-.6-6.8v.5l.9-.4-.7 1.2 1.5-.5-1.8 2.3.4.3 2.9-3.7-1.8.6.8-1.3-1.6.6.3-1.9h-.5l-.4 2.3z" fill="#000" fill-rule="nonzero"/><path d="M642.9 206l.6 1.3-1-.4 2.9 5.2.4-.5-.6 1.5.5.2 1.2-3.2-.4-.3-1 1.3-1.8-3.1.8.3-.8-1.7 1.1.6v-1.9h-.5v1l-1.8-1.1.4.8zm-1.9 6.4l.2.5c.8-.3 1.5-.4 2-.2.5.3.7.9.7 1l.5-.2s-.2-.9-1-1.2c-.6-.3-1.4-.3-2.4.1zm2.3 5.4l-.5-2.8h.6l.4 2.7-.5.1zm3.8-.4l-.7-2.2.5-.1.7 2-.5.3zm1.4 1.5l-.5-2.1.5-.1.6 2.1-.6.1z" fill="#000" fill-rule="nonzero"/><path d="M541.6 283.2s-2.4-1-3.5-.2c-1 .7-.9 1.9-1.8 1.8 0 0 3.6.8 4.3-.1l1-1.2v-.3zm.4 1s-1.6 2-1 3.3c.5 1.2 1.7 1.3 1.4 2.2 0 0 1.5-3.3.8-4.3s-1-1.1-1-1.1l-.2-.1zm-2.6-5.7s-2.5.8-2.8 2c-.2 1.4.6 2.1-.1 2.7 0 0 3.2-1.8 3.1-3v-1.5l-.2-.2zm1.4.9s1.2-2.3.5-3.4c-.8-1.2-2-1-1.8-2 0 0-1 3.5 0 4.4l1.1 1h.2zm-2.4-.9s0-2.6-1-3.2c-1.2-.7-2.2-.1-2.5-1 0 0 .7 3.6 1.8 4l1.5.3.2-.1zm4.2 4.3s2.7-1 3 2c.2 3-.2 2-.2 2s-1.4-3.2-3-3.7l.2-.3z" stroke="#000" stroke-width=".5" fill="#00A651" fill-rule="nonzero"/><path fill="#000" d="M542 284.3l.2 2.2h.4l-.3-2.2 1-4.9h-.4l-1 4.9z"/><path d="M539.5 283.6l-.1.3c1.3.5 3-1 3.1-1l-.2-.3s-1.7 1.3-2.8 1zm3.4-2.9l-6-3 .2-.5 6 3-.2.5z" fill="#000" fill-rule="nonzero"/><path d="M538.5 280l-.4-.4 1.2-1.2.4.4-1.2 1.2zm2.1-.6l-1.3-2.8.5-.2 1.3 2.8-.5.2zm1.8 3.4v.6c1.7-.1 2 1 2 1l.6-.2c0-.3-.7-1.5-2.6-1.4z" fill="#000" fill-rule="nonzero"/><path d="M570.2 284c2-1 2.4-5 2.4-5-.5 1.4-4.2 2.9-4.2 2.9 2.7-1.7 6-9.4 6-9.4-.8 2.7-8 5-12.6 7.6-4.6 2.6-2.2 10-2.2 10-1.3-.9-3.8-4.8-4.3-8.3-.5-3.5-1.8-4.9-5-5.3-3.1-.4-5 3.2-5 3.2l-4.7 2.4 4.8.2s3.4 1.1 3.4 3.8c0 2.6-3 13.3 2 19.3 3.3 4.1 16 6.5 16 6.5" stroke="#000" stroke-width=".7" fill="#FFF"/><path d="M560.9 292.3s1-4.8 4.1-4.6c3.1.2 4-3.6 5.9-4.1 1.9-.6 11.5-3.2 12.5-7.8 0 0-.9 7.6-9.7 11.4 0 0 7.1-2.3 8-3.9 0 0-3.2 6.8-10.9 7.9 0 0 7.2-.6 8.2-2.5 0 0-3.2 4.2-8.5 4.8 0 0 5 2 6.2.3 0 0-2.7 3.2-6 3.4l1 .2s-3.2 3.8-6.7 1.3-3.6.6-3.6.6" stroke="#000" stroke-width=".7" fill="#FFF"/><path d="M568 299.5s4.1 6.8 4.5 10.4c0 0 7.8 8.5 10.7 9 0 0-1.4.6-4-1.5 0 0 2.2 2.2 2.6 2.3.4 0-1.7-.2-2-.8a6 6 0 0 0 1.4 1.5l-.5-.2s-1-.1-1.6-.5c-.5-.4-.1 1-.1 1s-1.2-.3-1.6-.7c-.4-.4.1.9.1.9l-1-.3-.8.5s0 .5-.5 0c-.5-.3-1.4 0-1.4 0s-.6.6-1 .2c-.3-.4-1.5 1.6-1.5 1.6l-5-12.3" stroke="#000" stroke-width=".7" fill="#FFF"/><path d="M572.9 321.7l-6.4-12.2.6-.4 6.4 12.3-.6.3zm5.6-.8l-11-12.3.6-.5 11 12.3-.6.5zm2.5-1L568.5 308l.5-.5 12.5 11.7-.5.7z" fill="#000" fill-rule="nonzero"/><g transform="translate(544.626 279.185)" fill="#000"><path d="M4.92 1.197S4.122-.266 3.39.332c-.664.532-1.063.665-1.196.599 0 0 .665 0 1.13-.333.4-.399 1.064-.2 1.596.665v-.066zM.532.532l.465.93-.532 1.53.4.133.465-1.662L.864.399.532.532z" fill-rule="nonzero"/><path d="M4.787.997s-.665.665-1.463.532l-.864-.2h1.197c.465 0 1.064-.199 1.13-.332z"/><path d="M4.588 1.13S3.79.332 3.258.598c0 0 .93-.332 1.463.466l-.133.066z"/><path d="M4.455.997s-.865.599-1.796 0L2.593.864h.133s1.13.466 1.729.133z"/><circle cx="3.723" cy=".864" r="1"/></g><path d="M549 302.6s-.7 1.2-.3 2c.3.7 2 1 2.1 2 .2 1 .8 1 1.5 1l.9-.3s-3.1-1.6-4-4.3l-.2-.4z" fill="#000"/><g fill="#964B36" stroke="#000"><path d="M648.4 277.8s5.6-7.4 10.6-5.5c5 2 8.1 3 8.1 3s.1 4.9-2.5 4.9-5.2-5-7.6-3.5a13 13 0 0 0-4.5 4.2c-.1.7-6.3.8-4.1-3.1z" stroke-width=".3"/><path d="M627.2 313.4s-1.6 1.6-.9 2c.7.4 2.1 0 2.1-.6s-1-1.6-1.2-1.4z" stroke-width=".5"/><path d="M626 315s-3-1.7-5.2 2.2c-2.3 3.8-4.1 10.1-5.4 11-1.3.8 12.8-6.2 13-9.2 0 0 .9-3.8-.6-3.7-1.5 0-1.6.2-1.9-.4l.1.1z" stroke-width=".5"/><path d="M626.3 315.4s-3 .7-3.6 4.9c-.6 4.2-4.7 6.3-5 6.5m49.4-51.6s-4.4 1.6-3.7 4.7" stroke-width=".3" fill-rule="nonzero"/></g><path d="M632.7 284.3s.2-10.6 8.9-10.2c1.6.2.8 2.1.8 2.1s2-1.3 2.8.8c0 0 2.7-1.2 3 1.5 0 0 3-.4 2.6 2 0 0 2-.5 2 1.2 0 0 2.3-.9 2 1.5 0 0 2.6-1.7 2.3 1.4 0 0 2.6-1.9 3.5 1.2 1 3.2-2.6 9.8-6.1 11.5" stroke="#000" stroke-width=".3" fill="#FFF200"/><path d="M656.9 285s1.1 8.2-3.5 11.3l.1.2c4.9-3 3.7-11.5 3.7-11.6h-.3v.1zm-5.7 9l.2.2c3-2.9 3.7-10.6 3.7-11h-.3s-.7 8-3.6 10.8zm-2.7-1.9h.3a26 26 0 0 1 4.1-10.3l-.2-.1s-3.8 5.5-4.2 10.4zm-2.2-1.4h.3c.5-5.7 4.4-10 4.4-10.1l-.2-.2s-4 4.5-4.5 10.3zm-3-2h.3c.3-6.7 4.8-10 4.8-10l-.2-.3s-4.6 3.4-5 10.4l.1-.1zm-2.8-1.6h.3c-.2-6.2 4.5-10 4.6-10l-.2-.2s-5 3.8-4.7 10.2zm-5-2.3h.3a10.2 10.2 0 0 1 6.8-8.4v-.3a10.5 10.5 0 0 0-7.1 8.7z" fill="#000" fill-rule="nonzero"/><path d="M627.6 297.2s-1.5-9.9 4.4-13c0 0 1.1-.2 1.7 1.2 0 0 3.1-1.3 3.2 1.3 0 0 1.6-1.2 2 .5 0 0 3.3-.7 2.7 1.8 0 0 2.8-.8 2.5 1.6 0 0 2.8-1 2.4 1 0 0 3-.6 2.2 1.8 0 0 3.7-.4 2.6 2.1 0 0 2.7-.7 2 1.4 0 0 3.6.7 2 3a24.1 24.1 0 0 1-9.8 7" stroke="#000" stroke-width=".3" fill="#00A651"/><path d="M624.4 307.1s-2.4-8.2 2.2-10.3c0 0 .9-.2 1 .6 0 0 1-1.3 1.8-.1 0 0 2.3-1.1 2.9.6 0 0 1.5-1.3 2.3.6 0 0 1.5-.6 1.5 1 0 0 2-1 2 1 0 0 2-.8 1.5 1.2 0 0 3 .5 2.1 1.9 0 0 2.7.7 1.7 1.8 0 0 2.8-.3 1.3 1.6 0 0 2.2-.7 1 1.7-1.3 2.4-5.2 5-8 5.4" stroke="#000" stroke-width=".3" fill="#00A651"/><path d="M627.3 313.6s-5.1-5-2.7-6.4c0 0 1 .3 1.5 1.4 0 0 1.2-1.8 2 0 0 0 1.8-.6 1.8.7l1.4 1s1.7-.1 1.4 1c0 0 1.9-.3 1.8.7 0 0 1.6.1 1.5 1.2 0 0 2.8.5 1.5 1.9 0 0-4.8 1-8.3-.4 0 0-1.7-.6-1.9-1.1z" stroke="#000" stroke-width=".3" fill="#00A651"/><path d="M644.9 305.4v.3a36 36 0 0 0 8.6-8.7l-.3-.2c0 .1-5.4 7.5-8.3 8.6zm-1.8-1.3l.2.3c2.6-1.5 7.9-8.5 8-8.8l-.1-.2c-.1.1-5.5 7.2-8 8.7h-.1zm-1.5-.6l.2.2a48 48 0 0 0 7-10.3l-.2-.1s-4.2 7.9-7 10.2zm-1.3-1.8h.3c.5-3.8 6-9.9 6-10l-.3-.1c-.2.2-5.5 6.2-6 10.1zm-10.9-4.7h.3c-.4-5.5 4.1-11.5 4.2-11.5l-.3-.2s-4.7 6.2-4.2 11.7zm2.9.5h.3c-.8-4.4 4.4-10.6 4.4-10.7l-.2-.2c-.2.3-5.3 6.4-4.5 10.9zm4.4 1.6h.3c-.2-5 4.6-10 4.7-10l-.2-.3c0 .1-5 5.2-4.8 10.3zm-10.5 9h.3c-1.8-4.7 1.2-10.6 1.3-10.6l-.3-.2s-3.1 6.1-1.3 10.9v-.1zm2 .4l.3-.1c-1.6-4.7 1-11 1-11l-.2-.2s-2.7 6.5-1.1 11.3zm8.3 4.7v.2c5-1.7 8.3-6.3 8.3-6.3l-.3-.2s-3.2 4.5-8 6.3zm-1-1.1v.3c4-1.8 7.7-6.8 7.7-6.8l-.2-.2s-3.7 5-7.5 6.7zm-1-.4l.2.3c3-2.3 7-8 7-8l-.2-.2s-4 5.7-7 7.9zm-5-2.9h.4a21 21 0 0 1 2.5-10.9l-.3-.1s-3.2 6-2.5 11h-.1zm2.2 1.4l.2.2c3.2-2.9 4.3-10.6 4.3-11h-.3s-1 8-4.2 10.8zm2.2.8l.2.3a17 17 0 0 0 5.7-9.5h-.3s-1.2 6-5.6 9.3v-.1zm.5-13.4v.9l-3.4 11 .3.1 3.4-11c-.5-5.4 4.2-11.3 4.3-11.3l-.3-.2s-4.3 5.3-4.3 10.5z" fill="#000" fill-rule="nonzero"/><path d="M638 300.3c0 .2-1.1 7.7-5.2 10.5l.2.3c4.2-2.9 5.2-10.3 5.2-10.7 1.8-2.1 6-9.7 6-9.7l-.2-.2s-4.2 7.6-6 9.8zm-12 8.3c0 .1.6 4 1.4 5.2l.3-.1c-.8-1.3-1.5-5.1-1.5-5.2l-.3.1h.1zm1.9 0l-.1 5.3h.3v-5.3h-.2z" fill="#000" fill-rule="nonzero"/><path d="M628 314l.3.1c1.3-2.8 1.7-4.8 1.7-4.8h-.3s-.4 1.9-1.7 4.7zm.3.1l.2.3a6.6 6.6 0 0 0 3-4h-.3s-.6 2.4-2.9 3.7zm.5.2v.3c2.4-.2 4-3.1 4-3.3h-.2s-1.6 2.8-3.8 3z" fill="#000" fill-rule="nonzero"/><path d="M629 314.5v.3c3.9-.3 5.6-2.6 5.6-2.7l-.2-.1s-1.7 2.2-5.4 2.5z" fill="#000"/><path d="M629.3 314.5v.3c.1 0 5 1.1 6.7-1.4l-.3-.2c-1.5 2.4-6.4 1.4-6.4 1.3z" fill="#000"/><path d="M519.9 136.2v136.4c0 44.6 80.6 71 80.6 71s80.5-26.4 80.5-71V136.2H519.9z" stroke="#000" stroke-width="2.8"/><path fill="#002868" d="M0 0v239.303h398.886V0z"/><path fill="#FFF" d="M0 0v26.788l154.875 92.913L0 212.614v26.689h44.568l154.875-92.913 154.875 92.913h44.568v-26.689L244.01 119.701l154.875-92.913V0h-44.568L199.443 92.913 44.568 0z"/><path fill="#CE1126" d="M0 0v17.88l169.704 101.755L0 221.511v17.88h29.7l169.804-101.877L369.208 239.39h29.7v-18L229.206 119.756 398.91 17.999V0h-29.7L199.503 101.876 29.701 0z"/><path fill="#FFF" d="M166.24 0v79.768H0v79.767h166.24v79.768h66.518v-79.668h166.128V79.668h-166.24V0z"/><path fill="#CE1126" d="M179.499 0v95.701H0v47.9h179.499v95.702h40v-95.701h179.387V95.8H219.499V0h-40.112z"/></g></svg>