<svg width="800" height="480" xmlns="http://www.w3.org/2000/svg"><defs><linearGradient x1="-88.031%" y1="335.139%" x2="-76.061%" y2="316.442%" id="a"><stop stop-color="#A43907" offset="0%"/><stop stop-color="#FFF" offset="100%"/></linearGradient><linearGradient x1="-4.511%" y1="87.525%" x2="95.113%" y2="30.442%" id="b"><stop stop-color="#A43907" offset="0%"/><stop stop-color="#FFF" offset="100%"/></linearGradient><linearGradient x1="-4.459%" y1="51.937%" x2="109.475%" y2="34.248%" id="c"><stop stop-color="#A43907" offset="0%"/><stop stop-color="#FFF" offset="100%"/></linearGradient><linearGradient x1="100.752%" y1="36.49%" x2="-1.128%" y2="42.161%" id="d"><stop stop-color="#A43907" offset="0%"/><stop stop-color="#FFF" offset="100%"/></linearGradient><linearGradient x1="104.903%" y1="35.89%" x2="-7.751%" y2="43.913%" id="e"><stop stop-color="#A43907" offset="0%"/><stop stop-color="#FFF" offset="100%"/></linearGradient><linearGradient x1="100.033%" y1="49.92%" x2="-.032%" y2="49.92%" id="f"><stop stop-color="#A43907" offset="0%"/><stop stop-color="#FFF" offset="100%"/></linearGradient><linearGradient x1="-1547.843%" y1="52.86%" x2="947.655%" y2="66.288%" id="g"><stop stop-color="#A43907" offset="0%"/><stop stop-color="#FFF" offset="100%"/></linearGradient><linearGradient x1="112.815%" y1="36.55%" x2="6.648%" y2="40.998%" id="h"><stop stop-color="#A43907" offset="0%"/><stop stop-color="#FFF" offset="100%"/></linearGradient><linearGradient x1="118.414%" y1="93.144%" x2="-75.94%" y2="112.447%" id="i"><stop stop-color="#A43907" offset="0%"/><stop stop-color="#FFF" offset="100%"/></linearGradient><linearGradient x1="-15.509%" y1="94.367%" x2="158.975%" y2="32.103%" id="j"><stop stop-color="#A43907" offset="0%"/><stop stop-color="#FFF" offset="100%"/></linearGradient></defs><g fill="none" fill-rule="evenodd"><path fill="#006" d="M0 0h800v480H0z"/><g fill-rule="nonzero"><path d="M0 0v26.83l354.302 212.75h44.692v-26.724L44.581 0H0zm398.883 0v26.83L44.693 239.58H0v-26.724L354.302 0h44.692-.111z" fill="#FFF"/><path d="M166.257 0v239.58h66.48V0h-66.48zM0 79.86v79.86h398.883V79.86H0z" fill="#FFF"/><path d="M0 95.895v47.895h398.883V95.895H0zM179.553 0v239.58h39.888V0h-39.888zM0 239.58l132.96-79.86h29.722L29.72 239.58H0zM0 0l132.96 79.86h-29.72L0 17.817V0zm236.201 79.86L369.162 0h29.832L265.922 79.86h-29.833.112zm162.793 159.72l-132.96-79.86h29.72l103.24 62.044v17.817z" fill="#C00"/></g><path d="M39.87 265.272c-.782-.02-1.564.019-2.34.117-3.978.702-10.296 13.689-13.689 21.294-5.499 6.552-8.307 11.7-10.53 15.444-.936 1.521-2.34 3.159-1.872 5.148-8.19 1.989-8.658 9.009-8.658 11.7 0 3.042.936 4.446.936 4.446l4.914 9.126v.117c5.265 10.881 12.87 25.389 17.316 26.559 6.084 1.755 21.996-4.095 33.93-14.274a191.88 191.88 0 0 0 72.54 14.742c27.846 0 52.884-6.669 72.423-14.742 11.934 10.179 27.729 16.029 33.93 14.274 4.329-1.17 12.051-15.795 17.316-26.559l4.797-9.243s.936-1.404.936-4.329c0-2.691-.468-9.828-8.658-11.7.468-1.989-.819-3.744-1.755-5.265-2.34-3.861-5.148-9.009-10.53-15.678-3.51-7.605-9.828-20.358-13.689-21.06-5.616-.936-17.55 1.872-17.55 2.925v.585l-24.219 22.581c0 .585 1.17 16.965 5.85 31.59a171.99 171.99 0 0 1-59.085 9.945c-23.166 0-42.939-4.095-58.968-10.062a159.12 159.12 0 0 0 5.85-31.59L55.08 268.899v-.585c0-.819-9.243-3.042-15.21-3.042zm6.084 28.08c3.042 0 6.201 2.574 8.892 5.265l-.234 1.638a92.079 92.079 0 0 1-3.744 12.402 100.386 100.386 0 0 1-16.731-12.051c2.574-2.808 6.786-6.552 11.232-7.137h.585v-.117zm172.692 0h.585c4.446.702 8.658 4.446 11.349 7.254a100.152 100.152 0 0 1-16.848 12.051 91.611 91.611 0 0 1-3.744-12.402 19.89 19.89 0 0 1-.234-1.638c2.574-2.808 5.85-5.265 8.892-5.265zM24.426 325.41c3.159 2.457 7.371 5.265 12.402 8.19a14.391 14.391 0 0 1-4.446 1.989c-2.106.468-4.212.351-6.435-.117a20.475 20.475 0 0 1-1.404-6.669 82.25 82.25 0 0 1-.117-3.393zm215.865 0l-.234 3.393a20.592 20.592 0 0 1-1.404 6.669 14.04 14.04 0 0 1-10.881-1.872c5.148-2.925 9.36-5.733 12.519-8.19z" stroke="#FFF" stroke-width="11.7" fill="url(#a)" transform="translate(469 60)"/><path d="M18.744 302.67s8.436-13.552 15.244-12.474c6.956.924 13.468 9.548 13.912 10.01a62.276 62.276 0 0 0 10.212-11.55c-.444-.462-10.656-25.41-16.28-26.488-5.624-1.078-17.464 1.848-17.464 2.772l-5.624 37.73z" stroke="#000" stroke-width="1.812" fill="url(#b)" transform="matrix(-1 0 0 1 545.856 60)"/><path d="M.836 288.194c0 .924 2.96 36.652 14.8 49.126 11.84 12.474 31.524 20.174 38.48 18.326 6.808-2.002 22.644-38.038 22.644-38.038s-16.724 17.248-29.156 14.322c-12.432-2.772-19.832-24.486-22.2-35.112-2.368-10.472-.444-31.262-.444-31.262L.688 288.194h.148z" stroke="#000" stroke-width="1.812" fill="url(#c)" transform="matrix(-1 0 0 1 546.448 60)"/><path d="M203.688 302.67s8.436-13.552 15.244-12.474c6.956.924 13.468 9.548 13.912 10.01a62.276 62.276 0 0 0 10.212-11.55c-.444-.462-10.656-25.41-16.28-26.488-5.624-1.078-17.464 1.848-17.464 2.772l-5.624 37.73z" stroke="#000" stroke-width="1.812" fill="url(#d)" transform="translate(469 60)"/><path d="M185.188 288.194c0 .924 2.96 36.652 14.8 49.126 11.84 12.474 31.524 20.174 38.48 18.326 6.808-2.002 22.644-38.038 22.644-38.038s-16.724 17.248-29.156 14.322c-12.432-2.772-19.832-24.486-22.2-35.112-2.368-10.472-.444-31.262-.444-31.262l-24.272 22.638h.148z" stroke="#000" stroke-width="1.812" fill="url(#e)" transform="translate(469 60)"/><path d="M23.988 286.362c-5.499 6.669-8.424 11.934-10.764 15.795-2.34 3.861-.936 9.36 4.329 16.965 5.85 8.19 53.118 40.599 114.777 40.599s108.927-32.292 114.66-40.599c5.382-7.722 6.786-13.104 4.446-16.965-2.34-3.861-5.265-9.126-10.764-15.795 0 10.062-39.195 46.8-108.342 46.8-69.147 0-108.342-36.738-108.342-46.8z" stroke="#000" stroke-width="1.755" fill="url(#f)" transform="translate(469 60)"/><path d="M237.544 350.27l10.656-18.326-5.328-3.85c-1.48 4.62-7.548 6.16-8.584 12.012-1.036 5.852 4.144 11.55 3.256 10.164z" stroke="#000" stroke-width="1.812" fill="url(#g)" transform="translate(469 60)"/><path d="M247.2 345.02s1.924-8.162-4.144-9.24c-5.92-.924-9.176 4.62-8.288 2.464.888-2.464 4.44-4.774 5.032-12.936.444-8.162-.444-12.628-.444-12.628s2.368-10.472 11.988-9.086c9.768 1.54 10.212 9.24 10.212 12.012 0 2.772-.888 4.312-.888 4.312L247.2 345.02z" stroke="#000" stroke-width="1.812" fill="url(#h)" transform="translate(469 60)"/><path d="M681.3 377.3l2 3.5 1.3-.8-.9-2.3.2-.5 2.3-1.4 6 10.6v.5l-1.3.9.6 1 5.7-3.7-.5-1-1.3.8-.5-.1-6-10.6 2.2-1.5h.5l1.5 2 1.3-.9-2-3.4-11.1 7v-.1zm-14.3 8.2l.5 1 1.2-.5.5.1 5.2 10.8-.1.5-1.1.7.4 1 5.7-3-.5-1-1.2.5-.5-.1-2.5-5.1 5.8-3 2.5 5-.1.5-1.2.8.5 1 5.7-3-.5-1-1.2.5-.5-.2-5.2-10.7.1-.5 1.1-.7-.4-1-5.7 3 .5 1 1.2-.6.5.2 2.1 4.4-5.7 3-2.2-4.4.2-.5 1.1-.7-.5-1-5.7 3zm-3.3 9.2l.3 1 1.6-.4.5.2 1.2 4.5-1.1.4c-3.3 1-6-.6-7.2-4.5-1-3.8.3-6.7 3.5-7.7a4.8 4.8 0 0 1 1.9-.2l.4.3 1.1 2.1 1.6-.5-1-3.6c-1.8 0-3.4.2-4.8.6-4.8 1.6-7 5.5-5.8 10 1.3 4.5 5.3 6.6 9.8 5.2a15.4 15.4 0 0 0 4.6-2.4l-1.5-5 .3-.4 1.2-.5-.3-1.1-6.3 2zm-13.3 12.5l6.4-2-.3-1.1-1.5.3-.4-.2-3.5-11.6.2-.4 1.4-.6-.3-1-6.4 2 .3 1 1.5-.3.4.2 3.5 11.6-.3.4-1.4.6.4 1v.1zm-34.8 5.7l11.3-1-.4-4.1-1.4.1-.2 2.4-.2.4-4.9.5-.5-6 2.8-.2.3.3.3 1.6h1.3l-.5-5.3h-1.2v1.7l-.4.4-2.7.2-.5-5.4 4.2-.3.3.2.5 2 1.5-.1-.3-3.6-10.6 1v1h1.4l.3.4 1 12-.2.4-1.3.2v1.2h.1zm-16.9-15v1.1l1.3.1.3.4.2 12-.3.4-1.2.2v1h6V412l-1.3-.1-.4-.4v-5.7l6-.1.1 5.7-.3.4-1.2.1v1.1h6v-1.2h-1.3l-.3-.4-.2-12.1.3-.4 1.2-.1v-1.1h-6v1.2l1.3.1.3.3.1 5-6 .1-.2-5 .4-.3 1.2-.1v-1.1h-6zm-12.8-.4v4h1.4l.4-2.4.3-.3h2.5v12.4l-.4.4h-1.4v1.2h6.3v-1l-1.4-.2-.3-.4.1-12.3h2.5l.3.3.4 2.5h1.4v-4l-12.1-.2zm-19.5 12.9l11 .5.2-4-1.4-.1-.4 2.4-.3.3-4.8-.2.3-6 2.6.2.3.3.2 1.7h1.2l.2-5.2h-1.2l-.3 1.5-.3.3H571l.3-5.5 4 .2.3.3.2 2 1.5.1.1-3.6-10.3-.5v1.1l1.2.2.3.4-.6 12-.3.4h-1.3v1.2zm-25.4-6.6l6 2 .2-1-1.2-.6-.2-.5 3.5-11.5.4-.2 1.3.3.4-1-5.9-2-.3 1 1.2.6.3.4-3.6 11.5-.4.3-1.3-.4-.4 1.1zm-10.4-4a11.4 11.4 0 0 0 3.6 2c3.2 1 5.8-.2 6.5-2.7a4.2 4.2 0 0 0-.7-3.9c-1-1.2-1.9-1.9-2.4-2.5-.8-1-1.1-1.9-.8-2.9.3-1.1 1.5-1.7 3-1.2.5.2 1 .4 1.3.8l.1.4-.3 2.3 1.4.5 1-3.5a11 11 0 0 0-3.4-2c-2.8-1-5.2.3-6 2.7a4.3 4.3 0 0 0 .5 3.4c.6 1.1 1.5 1.8 2.1 2.5 1.2 1.2 1.6 2.3 1.3 3.4-.4 1.2-1.6 1.8-3.2 1.2a5.5 5.5 0 0 1-1.6-.9l-.2-.4.5-2.7-1.5-.5-1.2 4zm-13.3-5.6l10 5 1.7-3.7-1.3-.6-1.3 2-.4.2-4.3-2.2 2.5-5.3 2.4 1.2.1.4-.5 1.6 1.1.6 2.2-4.8-1.1-.5-.9 1.3-.4.2-2.4-1.2 2.2-4.9 3.7 1.9.2.4-.6 1.9 1.3.6 1.5-3.2-9.4-4.7-.5 1 1.1.7.2.5-5 10.9-.4.1-1.2-.4-.5 1zm-1.6-18.2l-5-3.5-.7 1 1 .8.1.5-6.3 10-.5.1-1-.6-.7 1 5 3.4c1.8 1.2 3.3 1.8 4.9 1.6 2.1-.2 4-1.4 5.4-3.7 2.5-4 1.8-7.9-2.2-10.6zm-2.1 0l1 .8c2.7 1.8 3 4.5.7 8s-4.7 4.4-7.4 2.5l-1-.6 6.7-10.6v-.1zm40 15.8l-.2 1 1.2.4.2.4-2.4 11.8-.4.3-1.2-.1-.2 1 5.7 1.3.2-1-1.2-.5-.3-.4 1-5 .4.1c2 .5 2.4 1.5 2.5 3.8.1 1.1.1 2.1 1 3.3.4.5 1 1 2 1.1a13.8 13.8 0 0 0 2 .3l.2-1-.2-.1c-1.4-.3-2-.8-2.1-2.1-.2-1.2 0-2.4-.5-3.6a3.5 3.5 0 0 0-1.8-1.8c2.3 0 3.8-1 4.2-3 .5-2.5-.8-4.2-4-4.9l-6-1.3h-.1zm4 2.1l.8.2c2 .5 2.8 1.7 2.4 3.5-.4 2.1-1.6 2.8-3.8 2.3-.2 0-.4 0-.7-.2l1.2-5.8h.1zm74 1.3l.2 1.1h1.3l.4.2 1.9 12-.3.3-1.3.4.2 1 6.2-1-.1-1.1-1.4.1-.4-.3-.8-5h.4c2.2-.5 3 .4 4 2.4.5 1 .8 2 2.1 2.7.6.3 1.5.5 2.5.3a16.5 16.5 0 0 0 2.2-.6l-.2-1h-.3c-1.5.3-2.2 0-2.9-1.1-.6-1-1-2.2-1.8-3.1-.6-.6-1.4-1-2.5-1 2.4-.9 3.5-2.4 3.2-4.5-.4-2.5-2.4-3.5-5.8-3l-6.8 1.2zm4.8.5l1-.1c2.1-.4 3.4.4 3.7 2.3.3 2-.6 3.2-3 3.6h-.8l-1-5.8h.1z" fill="#000" fill-rule="nonzero"/><path d="M17.094 350.27l10.656-18.326-5.328-3.85c-1.48 4.62-7.548 6.16-8.584 12.012-1.036 5.852 4.144 11.55 3.256 10.164z" stroke="#000" stroke-width="1.812" fill="url(#i)" transform="matrix(-1 0 0 1 510.45 60)"/><path d="M12.82 345.02s1.925-8.162-4.143-9.24c-5.92-.924-9.176 4.62-8.288 2.464.888-2.464 4.44-4.774 5.032-12.936.444-8.162-.444-12.628-.444-12.628s2.368-10.472 11.988-9.086c9.768 1.54 10.212 9.24 10.212 12.012 0 2.772-.888 4.312-.888 4.312L12.82 345.02z" stroke="#000" stroke-width="1.812" fill="url(#j)" transform="matrix(-1 0 0 1 496.42 60)"/><path d="M601.112 382.74s-111.74-32.956-111-157.388l.74-164.78h220.372l.74 163.856c.74 124.432-111 158.158-111 158.158l.148.154z" stroke="#FFF" stroke-width="5.89" fill="#0072C4"/><path d="M505.3 100c.2 0 1.5-1.3 2.8-2.4 1.7-1 3.3-2.1 5-3 1.4-.7 4-1.3 5.1-1.9a12.5 12.5 0 0 0 4.2-3.4c.2-2.1.5-3.7.5-6.2 1.8-1 3.4-1.8 5-2.4 2.3-.7 2.8-1.6 5.1-2 1.5-.5 3.9-.5 6-.5 2.3 0 3.7 1.7 5.8 2 2.5 1 3.6 1.7 5.6 3.4 1 1.4 1.7 2.6 3.6 3.6 1.5.8 2.9 2 4.6 2.4 2 1.1 3.6 1.8 5.1 3.4 1.4 1 2 2.4 3.2 3.4a36.1 36.1 0 0 0 4.7 3.4c2 1.3 4 2.3 7.1 2 1.7 0 3.5-.3 5.5 0 2.3 0 4.5 0 6.5.6 2.4 0 4.3.3 6.5.5 2 .3 4.1.4 6.4.4 2 .6 4.2.5 6.5.5h13c2.3 0 4.7.1 6.4.5a51 51 0 0 0 6.5-.5c2.5 0 4.4-.4 6.9-.5h7.8c2 .6 4.6 1 6 2 1.9.5 2.8 1.4 4.6 1.9 1.5.7 3.6 1.9 4.7 3.4a24.7 24.7 0 0 1 3.7 5.3c1.2 1.8 1.7 4 2.7 6.3.6 2.2 1 4.3 1 6.7.5 2.1.4 4.4.4 6.8-.5 2.2-.6 4.6-1.4 6.7 0 2.4-.5 4.5-.9 6.3-.4 2-.9 3.3-1 5.8v6.8c0 2.2-.6 3.8-.8 6.2a71 71 0 0 0-3.3 7.3 14.7 14.7 0 0 0-3.7 3.8c-1 .6-1.5 1.6-1.3 2 1.8.6 1.3 1.9 1.3 4.3.3 1.9.5 4.2 1 6.3.1 2.3.6 3.7 1.3 5.3.8 1 1 .5-.9.5-1.3 1-2.7.5-3.2-1.5a12 12 0 0 1-1.9-5.3c-.2-2.2-.6-4.4-1.3-5.8-.3-2.7-1-2.7-3.7-2.9-1.3-1.1-3-1.4-5.6-1.4-2.5 0-2.7-.3-2.7 2.4v6.8c-.5 2-1.4 3.5-1.9 5.3-1.4 1-2 2.7-3.7 3.8-.8 2.2-1.9 2.6-4.1 3l-2.8-3.4c1.3-2.2 2.4-2.5 3.2-4.9 1-1.9 1.6-3.1 2.3-4.8-1-1.5-1.8-2.2-2.7-4.3a26.3 26.3 0 0 1-2.3-5.3c-1.6-.6-4-.7-5.1-1.5-2.3-.5-2.9 2-5.6 2h-6.4c-2.9 0-3.6 1.5-6 1.4-.7.2-2.5-.1-5.1 0-2 .7-4.3.5-6.5.5-2.3 0-4.2-.6-6-1-2.1-.6-4.2-1.2-6.4-1.4-2.7 0-3.8.2-5.6 1.4-1.4.9-3.5 2.8-5 3.9-.7 1.6-1 4.3-2 6.2-.4 2-1.2 3.1-1.7 4.9a18.4 18.4 0 0 0-1.4 5.8c-.2 3.2-.9 2.8-2.8 1.9-.8-1.4-2-2.8-2.8-4.4.4-2.4 1-3.6 1-6.2-.5-2-1.5-1.8-2.8-.5 0 2.5 0 4.5-1 5.8a6 6 0 0 1-2.7 3.8c-.7 1.8-2.2 2.7-3.7 3.4-.2 0 0-.6 0-2-1.1-2.1 0-4 0-6.7 0-2.4-.2-4 .5-6.2 0-2.4-1-4.6-1.4-6.3-.9-1.8-1.4-2.7-3.7-3.4-1.7-.7-4-1.5-5.1-3a9.6 9.6 0 0 0-4.2-3.3c-2-.7-3.1-1.5-4.6-2.4-1.4-1.6-2.6-2.2-3.2-4.3-1-1.5-1.1-4.3-1.8-6.3a21.7 21.7 0 0 0-1.4-5.8 24.3 24.3 0 0 0-1.4-5.8c-.3-2-.8-4-1.4-6.3 0-2.3 0-4.6-.5-6.7v-6.8c-.3-2-.4-4.8-.9-6.3 0-2.6-.3-4-1-5.8-1-1.7-1-2.4-2.7-2.9-1.2 1.5-3.1 2.2-5.5 2.5-1.7-.4-4.1-.7-6-1.5-1.9-.4-3.1-1.2-4.6-2a43.2 43.2 0 0 0-2.8-3.8c-.3-2.5-.8-3.8-1-6.3 0-1.8.1-.8 2-3.3h-.1z" fill="#BCBCBC"/><path d="M532.6 117.4l.4-.4c-.8.8-.5.4 1.3-.3 1-.6 2.9-1.7 3.6-2.4.8-.4 2.2-1 3-1.7.8-1 1.7-1.8 2.9-2.7 1.2-1.1 2.4-1.5 3.9-2.4 1.8-.2 2.5-1 4.2-.4 1.6.4 2.3.4 3.6-1 1.3-.8 2.8-1.7 3.3-3V101c0 2.2-.5 3-2 3.7-1 1.3-2.4 2.6-3 3.8-1 1.5-1.2 2.3-2.2 3-.9 1.1-2.3 1.7-2.6 3.5.4.8 0 1.2 1 1.3.9.8 1.9.5 3.2 0a14.2 14.2 0 0 0 2.6-4c1.1-1.6 1.7-2.3 2.3-3.5 1.2-.8 1.9-1.4 2.3-2.7 1.3-.8 2.4-1.6 3.3-2.4 1-.6 1.5-1.1 2.9-1.4a6 6 0 0 1-1 3.8c-.3 1.9-.2 2.8.4 4 .9.7.7 1.2 1.3 2.5.5-1.2.8-3.4 1-4.8v-.3c0 1.4 0 3.4-.4 4.4 0 2 .5 2.9 1 4.4.5.8 1 1.3 1.6 1.7 0-2 .6-3.2.7-5 .4 1.3.3 3.2.6 4.7.1 1.6.7 2.8 1.3 4.1.8.4 1 1.8 1.3.7.8-2.4.8-5 1.3-7.5.1-1.3.2-3.2.7-4.1l-.7 4c.1-1.2.2-3 .7-4v-.4a39 39 0 0 1 .7 5.5c0 1.5-.1 3 .3 4.4 1-.5 1.7-1.7 2.3-3a18.2 18.2 0 0 1 2.6-3.8l-2.6 3.7a18.2 18.2 0 0 1 2.6-3.7v-.3a40.3 40.3 0 0 0-.3 4.7c0 1.6 0 3.4.3 4.5.4 1.8.9 2.1 1 4 0 1-.2 2 .3 2.5 1.4.3 1.4-.5 1.6-2.4 0-2.2.6-3.7.7-5.8 0-2.6.3.3.6 1.3a13 13 0 0 1 1 4.5c0 1-.1 1.9.3 2.4 1.3-.6 1.8-2 2.6-2.8.7-1.6 1.4-2.3 2-3.4 1.7-.3 1.6-1 1.6-3 0-1.7-.1-3.4.4-4.8a41 41 0 0 0 1.3-4.5c.6-.3 1.2.6 1.6 1.4.7 1.1.6 2.7.6 4.4.4 1.5 1 2.7 1.7 4.1a15 15 0 0 0 2.3 3.4c.3 1.1.3 3 .3 4.5 1.3-1.5 1.5-3.6 1.6-5.8-.2-1.5-.2-3.4-.6-4.8 0-1.5-.4-3-.7-4.1-1-.5-1.3-1-.3-2.4 1-.9 2.2-.5 3.9-.3.9.9 1.2 1.4 1.3 3.4 0 1.8 0 3.2.7 4.4.6 1 1.2 1.7 1.6 3.4.5.5.9 1.2 1.6.4.4-1 .7-3 1-4.1.3-1.3.9-2 1.6-2.4 0 1.9 0 3 .7 4.4.6 1.5 1 2.1 1.6 3.8.7.5.8 1.5 1.7 2 .2-1.6.3-3.4.3-5.4V116c.1-1.6.5-2.5 1-3.8 1 1.4 1 1.9 1 3.8 1-.4 1.2-1.2 1.6-2.4.7-.7 1-1 1.3.7.2 1.8.6 3.4 1 5.1.6.8 1.4 2.7 2.2 3.4a16.4 16.4 0 0 0 2 2.8c.5 1 .6 1.7 2 2 0-2.3 0-4.6-.4-6.8 0-2-.4-2.7-.6-4.5-.6-1.1-.9-2.9-.7-3.4a11 11 0 0 1 3 4.1c.7 1.7 1.4 2.8 2 4.5a20 20 0 0 1 2.5 3.4c1.2 1 1.8 2.1 3 3 .6.6 2 1 2.3.7-.1-2-.4-3.7-1-5.4a9 9 0 0 0-1-4.1c-1.3-1.1-2.3-1.9-3-3.4-.4-.5-.5-.8-.6-1.7a26.3 26.3 0 0 1 4.6 4.7 7 7 0 0 0 2.6 2.4c.6.8 2.5 1.7 3.9 2a5.6 5.6 0 0 0 3.3 2.1l-3.3-2a5.6 5.6 0 0 0 3.3 2v.4a13 13 0 0 0-2-5.5 8.8 8.8 0 0 0-3-3.8 9.3 9.3 0 0 0-3.2-3c-.9-1-2.2-2.8-3-3.4 1.5-1 3.1.6 4.6 1.3 1.3 1.4 2.5 3.2 3.3 4.1a18 18 0 0 0 3 4.5c1.4.8 2.3 1.6 3.5 2.7 2 .5 1.2-.2.7-1.7-.7-2 0-2 1.3-.7.9.7 2 1.7 3.3 2.4.5.7 1.4 1.2 2.2.7.4-.5.4-.5.4-1-.7-2.2-1.3-3.8-3-4.5-.7-1-2-2-3-3-.6-1-1.3-1.6-1.9-2.8l2 2.7c-.7-1-1.4-1.5-2-2.7h-.3c2 0 2.7.6 4.2 1.4a6.8 6.8 0 0 1 3 2.4c.6.8 1.6 1.7 2.3 2.7l3.2 2.4c1.1 1.4 1.3 2.3 1.3 4.4.7 1 .8 3 1 4.1-.2 1.9-.9.4-1-.7-.2-1.5-.8-1.4-2-1 0 2 .3 2.6 1 4.1a8 8 0 0 1-1.2 3.4c-.8.5-1-1-1.7-1.7 0-2-.6-2.3-2-3.4v1.4c.8 1.4 1.6 2.7 1.7 4.7a12 12 0 0 1 .7 4.5c0 1.7 0 3.3-.4 4.8 0 1.8-.3 2.6-.3 4.4v9.6a23.3 23.3 0 0 0-.3 4.4l.3-4.4c-.3 1.2-.3 2.7-.3 4.4v.3c-.6-1.7-1.3-3.2-1.7-5a10.3 10.3 0 0 1-2.2-3.5c-.3-1.5-.4-3.2-.7-4.4-.5-1.2-1-2.5-2-1.7-.4 2.5.1 4 1 6.4.5 1.6.5 3 1 4.5.8 1.8 1.4 2 0 4-.7 1.2-1 1.5-1.3 2.8-1.2.6-1.5 1-1.6 2.4-.4-1.3-1.4-2.9-2-4.4-.6-1.7-1.3-3.4-1.6-4.8-.8-1.2-1.8-3-2.6-3.8-.9-1-2-3-2.6-4-1.3-1.5-1.6-2.4-2.7-3.1-.2-.7-.6-1.6-1.3-1 0 1.6 0 3.3.4 4.7.3 2 .9 3.1 1 5.1v3.8c-.8-2-1.7-3.6-2.3-5.5-.8-1-1.5-3-2.3-3.7-.6-1.4-1-2.5-1.7-3.4-.1-1-.6-1-1-1.7 0 1.9.7 2.6 1 4 .7 1.4.9 3.5.7 4.2-.8-2.4-1.6-5-2.6-7.2-1-1.4-2-3.2-2.6-4.5-1-1.1-2-1.2-3-2a5.9 5.9 0 0 1-2.3-1.7c.3 1.8 1 3 1.3 4.4.3 1.7 1 3.1 1.3 4.5-.3 2.3-.8-.7-1.3-1.7-.3-2-1-3-1.6-4.1-.9-.7-1.7-1.8-2.6-2.4-1-.4-.6 0-.6 1.3 0 2.1 0 3.5.6 4.8.7 1 .7 2.3.7 4.1-.1 1.7-.4 3-.4 4.8v2.7c-.7-1.4-1.4-2.3-2-4.1-1-1.6-1.4-2.7-2.2-4.4-.7-.3-2-.6-2.6 0 .1 1.7.9 2.4 1 4.4-1.3 1.3-1.1 1.7-2-.3-.7-1.6-1.6-1.5-2.6-2.4-1.7-.2-1.1-1.3-1.6-2.8 0-1.3 0-2.6-.4-3.7-1.8 0-2.8 0-3.9 1-.5 1-.3 3 0 4.5v4.7c-.4 1.2-1 1.3-1.3 2.8-.6 1.4-.8 3-1.3 4-1.2 1.1-.7 1.2-1.3-.6v-11c0-1.8.3-2.7.3-4.4-.7-1.4-.8-1.7-3-1.7-.4.9-.2 2.5 0 3.4 0 1.7.2 3.3.4 4.5 0 1.8.2 2.9.3 4.4 0 1.8-.4 3.2-1.3 4-1.1.4-.1 1.2-1.3 1.5a15 15 0 0 1-3.6-2.4c-1.2-.4-2.4-.7-4.2-.7-2.2 0-2.2-.3-3-2a31.4 31.4 0 0 1-1.3-5.5c-.7-1.6-.8-2.7-1.3-4.5a6.2 6.2 0 0 0-2-2.4c-.4 1.8-.8 3.2-.9 5.2-.4.8-.5 2.8-.7 3.7-.6-1-.9-3-1.3-4.4-.6-2-1.1-3.4-3.2-2.7-2.2 0-2.3 0-2.3 2.4l2.6 4v4.8c0 2 .1 2.6-1.3 3-.5-2-1.7-4-3-5.7-.1-1.4-.5-1-1.9-1-.9 0-1.8-.2-2.3.3v3c-.8.2-1 0-1.6-.6-.6 1-.2 2.4 0 3.7-.4 1.6-1 3-1.6 3.8-.2-.5-.5-.3 0-.3-2.3-.9-4-1.4-6-2-1 0-1.9 1.1-2.5 2-1.7.5-2.4 1-4.3 1-1.8 0-2.6.3-4.2.3-1.2.3-2.7.4-4.3.4-.8-.3-2.4-.3-2.9-.7.7-1 1.4-1.5 2-3a20 20 0 0 0 2.6-2.5c.8-.6 1.8-1.9 2.6-2.7.5-1.7 1.2-2 2.3-2.7 2 0 2.3.7 4.2 1 1.9.7 3 1 4-.4 1.5-.6 2.8-1.7 4.5-2l3.3-2c1.4-.9 2-1.8 3.2-2.8.4-1.4 1.4-2.5 1-4-1.8-.5-2.9-.4-4 .6-1.3 1.2-1.6 1.7-3.2 2.7-1.3.4-2 1-3.6 1.4-1.3.5-3 .3-4.5.3s-3.4-.1-4.3.4c1.5-1 3.2-2 4.6-2.4 1.3-.9 1.8-1.3 3.6-1.4.8-1 1.6-1 2-2.7.5-2-1.3-1.4-2.7-.7-1.3.3-2.8 1.2-3.9 1.7a14.3 14.3 0 0 1-4.2.7c-.4-.6.3-1.1.6-2 1.5-.6 1.8-.8 2-2.4-1.8.2-2.4.8-4 1-1.6.4-3.3.6-5.2.7h-4.5c-1.6 0-2.5-.4-4.3-.4-1.3-.7-1.3-1-1.3-3 1-1.2 2-1 4-1l3.5-1.8c1.2-.2 2-.7 1.7-1.3h-4.6c-1.8-.8 0-1.1 1-1.7 1.5 0 3.2 0 4.2.6 2 0 2.7-.7 4.2-2 1.3-1 2-1.7 3.3-2.4 1-1.1 2-1.7 2.6-2.7 1.4-1.3 2.3-2 3-3.1.8-.5 1.4-1 1-1.7-2.1.2-3 1-4.3 2a10 10 0 0 1-2.6 2 8.2 8.2 0 0 1-4.3 1.5c-1.6 0-3-.3-4.5-.4-1.8-.2-.2-.6.3-1.4.7-.4 1.2-1.5.6-2.3-1.3-.5-3-.4-4.5-.4h-4.6c-1.7 0-2.4-.4-3.6-1-.3-1 0-.7 1.3-.7a18 18 0 0 0 4.3-.7c1.5-.4 1.7-1 2-2.7-1.6 0-3.3 0-4.3-.3h-3zm-28.2-7.8c-.3-2.5-.9-3.8-1-6.3 0-1.8.1-.8 1.9-3.3.2 0 1.5-1.3 2.8-2.4 1.7-1 3.3-2.1 5-3 1.3-.7 4-1.3 5.1-1.9a12.5 12.5 0 0 0 4.2-3.4c.1-2.1.4-3.7.4-6.2 1.9-1 3.5-1.8 5.1-2.4 2.3-.7 2.8-1.6 5.1-2 1.5-.5 3.9-.5 6-.5 2.3 0 3.7 1.7 5.8 2 2.5 1 3.6 1.7 5.5 3.4 1.1 1.4 1.8 2.6 3.7 3.6 1.5.8 2.9 2 4.6 2.4 0 1.8.4 1.5-.8 1.5-.2 1.8-.6 1.6-2.3 1.7a8 8 0 0 1-3-2.8c.7-1.7.3 1.5 0 2.1-.8.7-1.3 1.4-2.2.7-.6-1.7-1-2.8-1-4.8-.3-2.1-.9-.6-1.3.3-.5 1.8-.3 2.4.3 3.8-1.7 0-3-.2-4.2-.4-1.2-.3-2.6.1-4 .7-1.7 1.1-1.1 1.1-.3 2.4 1.5.5 2.6 1.3 4 2 1.4-.2 3-.6 4.5-1 1.6-.5 3-.2 4.6 0 .8.5 1.8.5 2.3 1 0 1.1 0 2.2-.4 2.8-.6.5-1.3 1.7-2.3 2a16.1 16.1 0 0 1-4.5 1.8c-2 0-2.8.5-4.3 1.3-.2 1.8-.7 2.2-2.3 2.8a10.3 10.3 0 0 1-4.5 1c-1 0-1.9.1-2.3-.4a12.8 12.8 0 0 0 2.6-4c.3-.8.9-1.2.3-1.8-1.9.1-2.4.1-2.6 2-.2 1.9-.9 2.2-2.3 2.8.4-1.7.5-3 1-4.4a25 25 0 0 1-4.2.3c-1 .6-1.4.9-1 2-1.3.5-3 .2-4.6 0-1.4 0-.6-.6-1.6-1.3-.7-1.3-1.4-1.6-3-1.7-.7 1-2 1.3-2.9 2-1.4.5-2.3.1-3.6-.6-1.6 0-1.4.5-1 1.7.7.4 0 .9 1 1 1 .8 1.8 1 3.6 1 1.4-.4 3-.3 4.6-.3 1.6 0 1.3.4 1.3 2-1 .8-2.6.7-4.3.7a16.6 16.6 0 0 1-3.9-1c-1.5-.1-2.7-.4-3.9 0-.5.6-2 .8-.3 1 .7.7 4.5.3 4.7 1.5 1 1 .7 2.3-.8 2.3a2.2 2.2 0 0 0-2.3 0c-1 .2-2.4 0-4.3.2 2.5.2-1.8-2.7-2.7-3.9z" fill="#FEFEFE" fill-rule="nonzero"/><path d="M514.7 98.3l-2 1.3c-1.4.8-3 2-3.9 2.7-.7.6-.7 1-1.6 1 1.5-.2 2.2-.6 3.6-1.3 1.7-.2 3.3-.6 4.2-1.4.9-.3 0-1.6-.3-2.4v.1zm15-16.1c.2 0 .6 1 1.3 1.7.5 1.3 1 2.2 1 3.8.4-1.7 1-3 1.3-4.8-.5-1-.5-1.3-2-1.4 0 1 .2.3-1.6.7z" fill="#BCBCBC" fill-rule="nonzero"/><path d="M520.612 94.258c-.74 0 1.184-.77 1.924-.924.592-1.232.888-2.002 1.924-2.772 1.628 0 2.516.616 3.256 1.694 1.48.462 1.924 1.078 3.552 1.386.74.616 1.48.616 0 1.078-.888.462-2.22.616-3.848.616-1.336.104-2.642.47-3.848 1.078-2.22 0-1.924 0-2.96-2.156z" stroke="#000" stroke-width="1.359" fill="#C4C4C2"/><path d="M535.6 82.5v.4c0-1 0-.5.3 1.4a9 9 0 0 1 .7 4 6.7 6.7 0 0 0 2-3c0-2.7-.5-2.6-3-2.8zm12 39.3h.4c-1 0-.4 0 1.3-1 1.1-.8 2-2 3.6-2.4a13 13 0 0 1 4.2-2.4c.8-.4 1.5-1 2.3-.3-.2 1.6-.5 2.3-2 3-.7 1-1.8 1.6-2.9 2-1 .6-2.2.6-2.6 1.8-1.8.8-2 .6-4.2-.7h-.1zm6.3 9.9c.5-.5 2.6-2.6 3.6-3.4a15 15 0 0 1 3.2-3.4c1-1.5 2.2-2.5 3-3.8l2.6-3.4c0 1.5-.2 3.5.3 4.4a7 7 0 0 1-1 4.1c-.7 1.2-1.3 2-3 2.8-1.4.8-2.3 1-3.5 2a26 26 0 0 1-3 1.7c-.9.4-.5.3-2.2-1zm-10.2 7.8h.4c-1 0-.5.1 1.3-1 1.4-1.4 2.5-2 4.2-2.7a10.3 10.3 0 0 0 4-1c.7-.2 1.3-.7 1.9 0 1 1.4 1.3 1.8-.3 2.7a9.4 9.4 0 0 1-3.3 1.7c-.8.7-2.4.7-4 1-1.2 0-2 .2-2.5-.7l2.6.7c-1.3 0-2 .2-4.3-.7zm14 0v-.3c0 1 0 .5.7-1.4 1.3-1.9 1.7-3 3.3-3.4.7-1 2-1.2 3.6-1.7.6 1 .1 2.2 0 3.4-.4 1.3-1.6 2.2-2.3 3.1-1 .7-1.4 1.4-3 1.7-1.2 0-.5 0-2.2-1.4h-.1z" fill="#BCBCBC" fill-rule="nonzero"/><path d="M525.8 95.2c0 .9-.7 1.7-1.6 1.7-1 0-1.7-.8-1.7-1.7 0-.9.8-1.7 1.7-1.7.9 0 1.6.7 1.6 1.7z" fill="#000"/><g fill="#005120" stroke="#002B0D" stroke-width="1.51"><path d="M530.664 188.184h1.332c-4.144 0-1.628-.308 5.18 5.39 2.96-2.464 2.96-2.772 5.18 1.54 1.48 2.31 1.776-.308 3.996-2.772 1.036 4.928 1.628 10.01 5.18 5.39 4.144 0 8.288-.308 10.508 1.386 2.664 5.082 1.776-.924 3.848 1.386 5.92.616 5.772-5.236 11.988-6.776 3.848 5.082 5.624 1.232 10.36-1.232 3.7.924 7.104 6.622 7.844 1.078 2.96-4.928 3.108-4.62 5.18 0 2.96 2.772 4.144-1.232 6.512-2.618 4.44 2.618 9.324 3.08 15.688 1.386 1.184 4.466 3.848 2.464 6.66 1.232 5.772 2.618 7.696 3.388 14.356 0 3.256-4.004 1.48.154 3.848 2.772 4.884-1.54 3.552-1.848 9.176-1.386 5.772 0 6.216 0 7.844-4.004 2.96 2.926 3.848 5.082 7.844 1.386 6.216 0 4.292.77 7.844-1.54 2.812 6.16 3.404 1.848 6.66 4.158-1.83 4.55-5.057 8.34-9.176 10.78-2.516 4.62-4.144 9.24-9.176 11.088-3.7 3.85-7.696 6.16-11.84 9.548-5.624 1.54-11.84 1.232-18.204 1.232H584.24c-3.848 2.156-10.36 3.08-15.688 4.158-5.92 0-12.876 0-17.02-1.386-2.812-2.926-7.696-6.16-10.36-9.548-2.96-2.31-2.96-6.776-5.328-9.548-2.072-3.85-2.96-10.01-5.18-13.552v-9.548z"/><path d="M657.5 200.504v1.232c0-3.696.148-1.694-2.664 5.544-.444 1.694-1.776 2.156-3.848 2.772l6.512-9.548zm-11.692 5.39h1.332c-4.884 4.62-8.14 6.93-9.176 12.32l9.176-12.32c-4.884 4.62-8.14 6.93-9.176 12.32l7.844-12.32zm-18.352-6.776s-.148 4.774-1.332 6.776l1.332-6.776zm-5.18 9.548v1.232-1.232zm-10.508-8.162h1.332-1.48c.592 0 1.036 0 0 0h.148zm-73.26 0c.592 0 3.256 4.312 6.512 6.776-.74 4.004-2.072 8.624 0 12.32l-6.512-19.096zm10.508 8.162c.592 0 3.108 4.312 6.512 6.776l-6.512-6.776c.592 0 3.108 4.312 6.512 6.776v1.386c0-4.312-.296-8.624 1.332-10.934 1.48 2.618 3.256 6.622 3.848 2.772 7.4-.308 10.952-2.464 15.688-4.158 0 2.002-.296 1.078 1.48 2.772l-28.86 1.386zm117.66-6.93h1.332c-2.516 2.156-4.44 6.622-6.512 9.548l5.18-9.548zm-53.576-4.004h10.36-10.36z"/></g><path d="M526.6 210.3c-15.7 0-20.9 16.4-36.6 16.4h-.9v1c0 11.4.8 22 2.5 31.9 14.5-1 19.8-16.4 35-16.4 15.7 0 21 16.4 36.7 16.4 15.7 0 20.9-16.4 36.6-16.4 15.7 0 21 16.4 36.7 16.4 15.7 0 20.9-16.4 36.6-16.4 15.1 0 20.5 15.2 35 16.3a189.8 189.8 0 0 0 2.5-32.7h-.9c-15.7 0-20.9-16.4-36.6-16.4-15.7 0-21 16.4-36.6 16.4-15.6 0-21-16.4-36.7-16.4-15.7 0-21 16.4-36.6 16.4-15.6 0-21-16.4-36.7-16.4v-.1zm0 64.1c-12.2 0-18 10-27.5 14.3a151.4 151.4 0 0 0 11.7 24.9c4.5-3.4 9.2-6.3 15.8-6.3 15.7 0 21 16.4 36.6 16.4 15.8 0 21-16.4 36.7-16.4 15.7 0 21 16.4 36.6 16.4 15.6 0 21-16.4 36.7-16.4a25 25 0 0 1 15.5 6 152.8 152.8 0 0 0 11.7-24.7c-9.2-4.5-15.1-14.2-27.2-14.2-15.7 0-21 16.4-36.7 16.4-15.7 0-20.9-16.4-36.6-16.4-15.7 0-21 16.4-36.6 16.4-15.6 0-21-16.4-36.7-16.4zm73.3 64c-15.7 0-21 16.5-36.6 16.5-14.9 0-20.4-14.7-34.2-16.3 18.5 20.6 39.4 33 53.7 40 4.9-3.8 9.9 4.5 17 4.5 7.3 0 12.2-8.4 17-4.7a176.2 176.2 0 0 0 53.3-39.7c-13.4 2-19 16.2-33.6 16.2-15.7 0-20.9-16.4-36.6-16.4v-.1z" fill="#FFF"/><g stroke="#512007"><path d="M502.53 275.908a157.46 157.46 0 0 1 15.487-4.602l24.042 24.083-19.765 4.142-19.765-23.623z" stroke-width=".752"/><path d="M549.955 315.213c.375-5.59 11.007-37.677 11.007-37.677m-7.38 38.042l8.38-37.799m-5.503 37.92l7.005-37.92m-13.134 32.816c1.876-.972 7.255-2.43 7.255-2.43m-4.628-3.161c1.75 0 5.378-1.458 5.378-1.458m-4.378-2.796a30.711 30.711 0 0 1 5.504-1.458m-4.753-3.89l5.879-.972m-3.252-3.646c0 .364 4.002.364 4.002.364m-3.002-4.497l4.003.608" stroke-width=".74"/><path d="M618.612 338.613c-.443-9.553-12.98-64.381-12.98-64.381m8.703 62.512l-9.883-62.304m5.457 57.527c-.295-3.53-7.227-57.32-7.227-57.32m15.487 56.074c-2.212-1.661-8.555-4.154-8.555-4.154m5.458-5.4c-2.065 0-6.343-2.491-6.343-2.491m5.163-4.777a27.793 27.793 0 0 0-6.49-2.492m5.605-6.646l-6.933-1.661m3.835-6.23c0 .622-4.72.622-4.72.622m3.54-7.684l-4.72 1.038" stroke-width=".72"/><path d="M655.074 318.954c-.443-7.056-12.98-47.554-12.98-47.554m8.702 46.173l-9.882-46.02m5.457 42.492c-.295-2.608-7.227-42.338-7.227-42.338m15.487 41.418c-2.212-1.227-8.555-3.068-8.555-3.068m5.458-3.989c-2.065 0-6.343-1.84-6.343-1.84m5.163-3.529a34.333 34.333 0 0 0-6.49-1.84m5.605-4.91l-6.933-1.226m3.835-4.602c0 .46-4.72.46-4.72.46m3.54-5.676l-4.72.767" stroke-width=".752"/><path d="M595.16 323.155l1.327-111.982s3.835-.46 3.835 0-.442 111.522-.885 111.982c-.443.46-4.72.767-4.278 0zm42.037-107.073l-.885 94.034-2.95 3.681.885-97.715h2.95z" stroke-width=".752" fill="#DD8B59"/><path d="M547.517 304.747s4.425 46.02 53.69 44.64c49.265-1.381 62.983-46.328 62.983-46.328l-21.388-.92c-.442 0-17.11 21.476-38.645 21.016-21.535-.46-28.32-5.83-33.04-10.278-4.72-4.602-8.85-11.198-8.85-11.198L537.192 291.4l1.475 9.818 8.85 3.528zm133.192-4.602l-1.474-6.136v-5.216l2.36-5.522s-37.318 5.676-37.318 6.136l-.147 10.431 36.58.153v.154z" stroke-width=".752" fill="#DD8B59"/><path d="M673.63 288.793l-.886 9.204h6.048l-.442-9.204h-4.72zm-6.343.46l-.443 9.818 3.835-.46.443-9.358h-3.835zm-6.49 9.818v-7.67l3.835-1.38.443 7.67-4.278 1.38zm-7.375-.46l.885-6.75 4.425.46.295 7.21-5.605-.92zm-8.113 0l.443-5.83 4.425-.46v6.75l-4.867-.46zm-99.414 5.676c1.327 0 11.21 2.3 11.21 2.3l10.325 14.267-21.535-16.567z" stroke-width=".752"/><path d="M553.122 306.127c.443.46 8.998 30.374 50.15 30.374s51.035-33.902 51.035-33.902" stroke-width=".752"/><path d="M660.797 303.52s-19.765 44.486-57.525 41.418c-37.612-3.068-43.66-17.795-46.61-25.465-2.95-7.67-4.72-13.806-4.72-13.806" stroke-width=".752"/><path d="M562.562 301.679c.443-2.608.443-83.45.443-83.45l-2.508-.307-.443 82.376 2.508 1.534v-.153zm-61.212-26.232l32.45 16.414-.738 2.301s-31.27-15.34-31.27-15.8c0-.46.295-2.301-.442-3.068v.153z" stroke-width=".752" fill="#DD8B59"/><path d="M516.247 270.539c0 1.227 4.72 28.532 4.72 28.532s2.95.46 2.95 0l-5.015-28.072-2.655-.46zm30.09.767c1.622 0 30.975-4.91 30.975-4.91l-.59 4.91-28.763 3.068-1.622-3.068z" stroke-width=".752" fill="#DD8B59"/><path d="M550.467 234.336c1.032 0 10.325 4.909 14.308 3.682 3.982-1.227 1.327-4.602 2.065-4.602.884 0 3.834 2.3 5.604.46 1.77-1.687 2.95-7.056 2.213-6.596-.885.46-23.6 8.897-24.043 7.056h-.147z" stroke-width=".752" fill="#FECF3E"/><path d="M546.78 245.534c1.622.46 35.105-9.357 35.105-9.357s0 3.068-.443 3.068l-34.663 9.357v-3.068z" stroke-width=".752" fill="#DD8B59"/><path d="M624.217 231.728s2.212 5.37 4.425 4.449c2.212-.92 4.277-2.761 4.277-2.761s1.77 4.602 4.72 3.681c2.95-.92 4.72-5.829 4.72-5.829s2.95.92 4.278.46c1.328-.46 2.95-7.67 2.95-7.67l-25.222 7.67h-.148zm-2.508 43.26c-.442.92 2.213 3.067 4.425 3.067 2.213 0 2.95-3.068 3.393-2.147.442.767.442 4.908 5.9 3.528 5.457-1.38 5.605-5.37 5.605-5.37s-1.623 1.381 2.212 1.842c3.835.46 7.67-5.83 7.375-5.83-.59 0-28.025 5.37-28.91 4.91z" stroke-width=".752" fill="#FECF3E"/><path d="M548.107 232.495a7.96 7.96 0 0 0 .295 4.142l28.025-9.817s1.18-2.301 0-2.301-28.763 8.897-28.468 8.13l.148-.154zm36.875-6.136c.737 0 28.615-9.357 28.615-9.357s.442 3.988 0 3.988l-26.108 7.977-2.655-2.608h.148z" stroke-width=".752" fill="#DD8B59"/><path d="M621.71 245.995s-4.278 4.908-2.95 11.505c1.327 6.75 2.95 12.578 3.392 12.578.442 0 5.162-8.897 10.325-9.357 5.162-.46 14.602 4.909 14.602 4.909s-1.327-10.738-.885-15.647c.443-4.909 7.67-13.346 7.67-13.346l-32.155 9.204v.154z" stroke-width=".752" fill="#FECF3E"/><path d="M582.77 237.864s-.885 4.142-.443 4.142l36.432-9.817v-2.915l-35.99 8.437v.153z" stroke-width=".752" fill="#DD8B59"/><path d="M536.455 291.861s-8.555-1.227-8.113.92c.443 2.302 4.278 4.45 4.72 5.83.443 1.38-1.327 6.136 1.328 5.829 2.507-.46 5.015-2.301 5.015-3.682l-.443-7.67-2.507-1.227z" stroke-width=".752" fill="#B6B6B4"/><path stroke-width=".752" fill="#DD8B59" d="M584.097 269.618v3.068l30.828-4.448-.885-2.301-29.943 3.681z"/><path d="M547.517 274.987c.59 0 0 3.989 3.54 3.068 3.392-.92 4.277-3.068 4.277-3.068s.886 4.909 5.606 4.449c4.72-.46 7.375-5.83 7.375-5.83s.295 3.989 3.245 2.608c2.95-1.38 3.835-4.448 3.835-4.448l-26.993 3.988-.737-.767h-.148zm0-26.385s-3.835 1.381-2.508 9.358c1.328 7.977 4.425 12.579 4.72 12.579.443 0 3.835-7.67 8.998-8.898 5.163-1.534 14.16 3.989 14.16 3.989s-.885-7.21.443-13.806c1.327-6.75 5.604-11.659 5.604-11.659s-30.09 8.437-31.27 8.437h-.147z" stroke-width=".752" fill="#FECF3E"/><path d="M619.644 271.766l.443 2.761s30.975-3.988 30.975-4.602c0-.307 0-3.068-.59-3.068-.442 0-30.385 5.369-30.975 4.909h.147zm-.442-28.533l.442 3.068 36.433-10.124s.885-2.761.442-2.761c-.442 0-36.432 11.198-37.317 9.817z" stroke-width=".752" fill="#DD8B59"/><path d="M623.037 228.967s-.442 2.761 0 2.761 26.992-6.75 26.992-7.21c0-.46 2.655-3.067.443-2.607-2.065.46-26.55 8.437-27.435 7.056zm57.082 51.696l-26.55-43.566 26.55 43.566zm-30.09-13.346c.443-1.227 1.77-28.072 1.77-28.072l-1.77 28.072z" stroke-width=".752"/><path d="M585.867 227.74c1.475.307 4.573 4.909 6.343 3.988 1.77-.92 4.277-3.681 4.277-3.681s-.442 5.369 2.95 4.602c3.54-.92 3.983-4.602 3.983-4.602s2.507 1.534 4.72 0c2.065-1.227 4.13-7.977 3.392-7.977-.737 0-24.928 7.977-25.813 7.67h.148zm-.885 12.886c0 .92-4.425 7.976-2.95 14.726 1.475 6.75 3.687 12.886 4.13 12.886.442 0 6.932-7.057 12.537-8.437 5.458-1.381 13.718 4.448 13.275 4.448-.442 0-2.212-6.75-2.212-11.658 0-4.909 6.49-19.942 6.49-19.942l-31.27 7.977zm0 32.214c0 .306 1.18 3.374 4.277 3.374 2.95 0 3.393-3.068 3.393-3.068s-.442 5.37 4.278 4.91c4.72-.461 6.342-5.37 6.342-5.37s.442 2.761 4.425 1.38c3.835-1.38 8.85-5.828 8.555-5.828-.442 0-30.975 5.829-31.418 4.602h.148z" stroke-width=".752" fill="#FECF3E"/><path d="M588.522 255.765c1.263.047 2.247 1.16 2.197 2.484-.05 1.325-1.113 2.361-2.376 2.314-1.263-.047-2.247-1.16-2.198-2.485.05-1.324 1.114-2.36 2.377-2.313zm15.576-4.13c1.263.047 2.247 1.16 2.197 2.484-.05 1.325-1.113 2.361-2.376 2.314-1.263-.047-2.247-1.16-2.198-2.485.05-1.324 1.114-2.36 2.377-2.313zm-7.788 8.496c1.263.047 2.247 1.16 2.197 2.484-.05 1.325-1.113 2.361-2.376 2.314-1.263-.047-2.247-1.16-2.198-2.485.05-1.324 1.114-2.36 2.377-2.313zm0-12.98c1.263.047 2.247 1.16 2.197 2.484-.05 1.325-1.113 2.361-2.376 2.314-1.263-.047-2.247-1.16-2.198-2.485.05-1.324 1.114-2.36 2.377-2.313z" fill="#BE0F17" stroke-width=".741"/><path d="M599.437 212.4c0-.307 13.275 5.83 13.275 6.29 0 .46 47.2 65.655 47.643 65.655m-23.6-65.656l12.095 5.37 3.834 9.817m-90.564-15.954c-.443 0 13.275 10.738 13.275 10.738l1.77 8.744m-61.655 45.56c5.9-2.608 47.495-40.498 47.495-40.498M504.3 275.754l46.757-40.958m31.27 6.136l44.25 76.394m-5.31-44.793s5.162 17.948 10.325 20.709c5.163 2.761 11.21 7.056 11.21 7.056" stroke-width=".752"/><path d="M620.677 272.993s3.688 21.17 8.85 25.158c5.162 3.988 10.325 8.437 10.325 8.437m-54.693-33.772s5.015 29.453 15.34 36.202a1395.15 1395.15 0 0 1 18.88 12.426" stroke-width=".752"/><path d="M584.716 272.356s11.063 23.317 20.65 30.373c9.293 7.21 22.125 13.806 22.125 13.806m-78.764-42.185c2.95 5.369 2.507 15.647 5.9 19.175a100.936 100.936 0 0 1 8.555 11.658m-13.718-30.526c1.77 2.608 6.49 15.953 9.44 19.942 2.212 3.681 24.042 26.385 24.042 26.385" stroke-width=".752"/><path d="M575.719 322.057c0 1.206-.618 2.32-1.622 2.923a3.137 3.137 0 0 1-3.246 0c-1.004-.603-1.622-1.717-1.622-2.923 0-1.863 1.453-3.374 3.245-3.374s3.245 1.51 3.245 3.374zm15.782 7.21c0 1.61-1.254 2.915-2.802 2.915s-2.802-1.305-2.802-2.915 1.254-2.914 2.802-2.914 2.803 1.305 2.803 2.914zm20.208 1.841c0 1.61-1.255 2.915-2.802 2.915-1.548 0-2.803-1.305-2.803-2.915s1.255-2.915 2.802-2.915c1.548 0 2.803 1.305 2.803 2.915zm17.553-6.903c0 1.534-1.033 2.608-2.36 2.608-1.328 0-2.36-1.227-2.36-2.608 0-1.38 1.032-2.761 2.36-2.761 1.327 0 2.36 1.227 2.36 2.761zm14.16-8.744c0 1.38-1.328 2.455-2.803 2.455-1.475 0-2.803-1.074-2.803-2.455 0-1.38 1.328-2.454 2.803-2.454 1.475 0 2.802 1.074 2.802 2.454z" stroke-width=".752" fill="#000" fill-rule="nonzero"/><path d="M560.231 219.74c-1.327.92-22.715 6.289-19.765 5.829 2.95-.46 20.208 4.602 19.765 3.068-.442-1.534 0-7.977 0-8.897zm36.433-6.597c-.885 0-13.275 4.91-12.832 4.91.442 0 14.16 3.988 13.717 3.067-.442-.92-.442-6.75-.885-7.977zm37.317 4.449c-.885.46-15.487 3.988-12.832 4.449 2.655.46 12.39 3.988 12.39 3.068 0-.767 0-7.057.442-7.67v.153z" stroke-width=".752" fill="red"/><path d="M618.494 321.904c.442-7.056 12.98-47.554 12.98-47.554m-8.703 46.173l9.883-46.02m-5.457 42.492c.295-2.608 7.227-42.338 7.227-42.338m-15.487 41.418c2.212-1.227 8.555-3.068 8.555-3.068m-5.458-3.989c2.065 0 6.343-1.84 6.343-1.84m-5.163-3.529a34.333 34.333 0 0 1 6.49-1.84m-5.605-4.91l6.933-1.226m-3.835-4.602c0 .46 4.72.46 4.72.46m-3.54-5.676l4.72.767" stroke-width=".752"/><path d="M581.914 327.049c.443-7.382 12.98-49.749 12.98-49.749m-8.703 50.23l9.883-49.909m-6.49 50.07l8.26-50.07m-15.487 43.33c2.212-1.284 8.555-3.21 8.555-3.21m-5.458-4.173c2.065 0 6.343-1.925 6.343-1.925m-5.163-3.691a33.171 33.171 0 0 1 6.49-1.926m-5.605-5.135l6.933-1.284m-3.835-4.815c0 .482 4.72.482 4.72.482m-3.54-5.938l4.72.802" stroke-width=".771"/><path d="M581.796 323.816c-.443-7.165-12.98-48.286-12.98-48.286m8.702 46.884l-9.882-46.728m5.457 43.145c-.295-2.648-7.227-42.99-7.227-42.99m15.487 42.056c-2.212-1.246-8.555-3.115-8.555-3.115m5.458-4.05c-2.065 0-6.343-1.87-6.343-1.87m5.163-3.582a33.932 33.932 0 0 0-6.49-1.869m5.605-4.984l-6.933-1.246m3.835-4.673c0 .467-4.72.467-4.72.467m3.54-5.763l-4.72.779" stroke-width=".758"/><path d="M641.032 302.139l40.71.92.442-3.068-42.037-.46.885 2.608zm1.77-11.198c4.72 0 40.267-7.057 40.267-7.057s1.328-4.602 0-4.602c-1.327 0-40.267 8.59-40.267 8.59v3.069z" stroke-width=".752" fill="#DD8B59"/><path d="M596.31 253.641c1.263.047 2.247 1.16 2.197 2.484-.05 1.325-1.113 2.361-2.376 2.314-1.263-.047-2.247-1.16-2.198-2.485.05-1.324 1.114-2.36 2.377-2.313z" fill="#BE0F17" stroke-width=".741"/></g></g></svg>