<svg width="800" height="480" xmlns="http://www.w3.org/2000/svg"><g fill="none" fill-rule="evenodd"><path fill="#6797D6" d="M0 0h800v480H0z"/><path d="M400.177 115.212l-30.33 20.781 11.608-33.606-30.423-20.781h37.538L400.177 48l11.608 33.7h37.444l-30.33 20.687 11.608 33.606m-30.33 229.158l-30.33-20.782 11.608 33.7-30.423 20.688h37.538l11.607 33.605 11.608-33.7 37.444.095-30.33-20.782 11.608-33.606m-176.361-86.495l-22.935 28.644 1.311-35.572-35.104-10.952 35.946-10.952 1.217-35.572 20.875 28.832 35.947-11.046-23.028 28.738 20.968 28.738m256.679-10.952l23.028 28.738-1.31-35.572 35.103-10.952-35.946-10.952-1.217-35.572-20.875 28.832-35.946-11.046 23.028 28.738-20.969 28.738" fill="#FFF" fill-rule="nonzero"/></g></svg>