<svg width="800" height="480" xmlns="http://www.w3.org/2000/svg"><g fill="none" fill-rule="evenodd"><path fill="#012169" d="M.3 0h799.634v479.283H.299z"/><path d="M.3 0v53.545l710.22 425.738h89.413v-53.545L89.71 0H.3zm799.634 0v53.545L89.71 479.283H.3v-53.545L710.521 0h89.413z" fill="#FFF" fill-rule="nonzero"/><path d="M333.506 0v479.283h133.22V0h-133.22zM.3 159.792v159.699h799.635V159.792H.299z" fill="#FFF" fill-rule="nonzero"/><path d="M.3 191.713v95.857h799.634v-95.857H.299zM360.134 0v479.283h79.963V0h-79.963zM.299 479.283l266.519-159.792h59.66L59.881 479.283H.3zM.3 0l266.519 159.792h-59.582L.299 35.76V0zm473.534 159.792L740.35 0h59.583l-266.52 159.792h-59.581zm326.1 319.491L533.416 319.491h59.582l206.937 124.033v35.759z" fill="#C8102E" fill-rule="nonzero"/></g></svg>