<svg width="800" height="480" xmlns="http://www.w3.org/2000/svg" xmlns:xlink="http://www.w3.org/1999/xlink"><defs><path id="a" d="M0 0h800v480H0z"/></defs><g fill="none" fill-rule="evenodd"><mask id="b" fill="#fff"><use xlink:href="#a"/></mask><use fill="#CE1126" xlink:href="#a"/><g mask="url(#b)"><g transform="translate(83 -27)"><path fill="#007A5E" d="M.967 94.2H632.72v345.6H.967z"/><path fill="#FCD116" d="M.967 94.3H632.72L.967 439.9H632.72z"/><circle fill="#CE1126" cx="320.6" cy="268.6" r="57.6"/><g fill="#FCD116"><path d="M320.4 215.8l-16.316 50.216 25.108 8.158"/><path d="M320.4 215.8l16.316 50.216-25.108 8.158"/><path d="M370.616 252.284h-52.8v26.4"/><path d="M370.616 252.284L327.9 283.319l-15.518-21.358"/><path d="M351.435 311.316L335.12 261.1l-25.108 8.158"/><path d="M351.435 311.316l-42.716-31.035 15.517-21.358"/><path d="M289.365 311.316l42.716-31.035-15.517-21.358"/><path d="M289.365 311.316L305.68 261.1l25.108 8.158"/><path d="M270.184 252.284l42.716 31.035 15.518-21.358"/><path d="M270.184 252.284h52.8v26.4"/></g><g fill="#FCD116"><path d="M190 31.4l-9.641 29.673 14.836 4.82"/><path d="M190 31.4l9.641 29.673-14.836 4.82"/><path d="M219.673 52.959h-31.2v15.6"/><path d="M219.673 52.959l-25.241 18.339-9.17-12.621"/><path d="M208.339 87.841l-9.641-29.673-14.837 4.821"/><path d="M208.339 87.841l-25.241-18.339 9.169-12.62"/><path d="M171.661 87.841l25.241-18.339-9.169-12.62"/><path d="M171.661 87.841l9.641-29.673 14.837 4.821"/><path d="M160.327 52.959l25.241 18.339 9.17-12.621"/><path d="M160.327 52.959h31.2v15.6"/></g><g fill="#FCD116"><path d="M320.6 31.2l-9.641 29.673 14.836 4.82"/><path d="M320.6 31.2l9.641 29.673-14.836 4.82"/><path d="M350.273 52.759h-31.2v15.6"/><path d="M350.273 52.759l-25.241 18.339-9.17-12.621"/><path d="M338.939 87.641l-9.641-29.673-14.837 4.821"/><path d="M338.939 87.641l-25.241-18.339 9.169-12.62"/><path d="M302.261 87.641l25.241-18.339-9.169-12.62"/><path d="M302.261 87.641l9.641-29.673 14.837 4.821"/><path d="M290.927 52.759l25.241 18.339 9.17-12.621"/><path d="M290.927 52.759h31.2v15.6"/></g><g fill="#FCD116"><path d="M451 31.4l-9.641 29.673 14.836 4.82"/><path d="M451 31.4l9.641 29.673-14.836 4.82"/><path d="M480.673 52.959h-31.2v15.6"/><path d="M480.673 52.959l-25.241 18.339-9.17-12.621"/><path d="M469.339 87.841l-9.641-29.673-14.837 4.821"/><path d="M469.339 87.841l-25.241-18.339 9.169-12.62"/><path d="M432.661 87.841l25.241-18.339-9.169-12.62"/><path d="M432.661 87.841l9.641-29.673 14.837 4.821"/><path d="M421.327 52.959l25.241 18.339 9.17-12.621"/><path d="M421.327 52.959h31.2v15.6"/></g><path d="M103 269.8a80.4 80.4 0 0 0 33.5 33.2 111 111 0 0 0-11.3-45L103 269.8z" fill="#CE1126"/><path d="M90.832 224c10.4 21.7-27.1 73.7 35.5 85.9a63.2 63.2 0 0 1-10.9-41.9 70 70 0 0 1 32.5 30.8c16.4-59.5-42-55.8-57.1-74.8z" fill="#FCD116"/><g fill="#FCD116"><path d="M190 445.4l-9.641 29.673 14.836 4.82"/><path d="M190 445.4l9.641 29.673-14.836 4.82"/><path d="M219.673 466.959h-31.2v15.6"/><path d="M219.673 466.959l-25.241 18.339-9.17-12.621"/><path d="M208.339 501.841l-9.641-29.673-14.837 4.821"/><path d="M208.339 501.841l-25.241-18.339 9.169-12.62"/><path d="M171.661 501.841l25.241-18.339-9.169-12.62"/><path d="M171.661 501.841l9.641-29.673 14.837 4.821"/><path d="M160.327 466.959l25.241 18.339 9.17-12.621"/><path d="M160.327 466.959h31.2v15.6"/></g><g fill="#FCD116"><path d="M320.6 446.2l-9.641 29.673 14.836 4.82"/><path d="M320.6 446.2l9.641 29.673-14.836 4.82"/><path d="M350.273 467.759h-31.2v15.6"/><path d="M350.273 467.759l-25.241 18.339-9.17-12.621"/><path d="M338.939 502.641l-9.641-29.673-14.837 4.821"/><path d="M338.939 502.641l-25.241-18.339 9.169-12.62"/><path d="M302.261 502.641l25.241-18.339-9.169-12.62"/><path d="M302.261 502.641l9.641-29.673 14.837 4.821"/><path d="M290.927 467.759l25.241 18.339 9.17-12.621"/><path d="M290.927 467.759h31.2v15.6"/></g><g fill="#FCD116"><path d="M451 445.4l-9.641 29.673 14.836 4.82"/><path d="M451 445.4l9.641 29.673-14.836 4.82"/><path d="M480.673 466.959h-31.2v15.6"/><path d="M480.673 466.959l-25.241 18.339-9.17-12.621"/><path d="M469.339 501.841l-9.641-29.673-14.837 4.821"/><path d="M469.339 501.841l-25.241-18.339 9.169-12.62"/><path d="M432.661 501.841l25.241-18.339-9.169-12.62"/><path d="M432.661 501.841l9.641-29.673 14.837 4.821"/><path d="M421.327 466.959l25.241 18.339 9.17-12.621"/><path d="M421.327 466.959h31.2v15.6"/></g></g></g></g></svg>