<svg width="800" height="480" xmlns="http://www.w3.org/2000/svg"><g fill="none" fill-rule="evenodd"><path fill="#0D5EAF" d="M0 0h800v53.3H0z"/><path fill="#FFF" d="M0 53.3h800v53.3H0z"/><path fill="#0D5EAF" d="M0 106.6h800v53.3H0z"/><path fill="#FFF" d="M0 159.9h800v53.3H0z"/><path fill="#0D5EAF" d="M0 213.2h800v53.3H0z"/><path fill="#FFF" d="M0 266.5h800v53.3H0z"/><path fill="#0D5EAF" d="M0 319.8h800v53.3H0z"/><path fill="#FFF" d="M0 373.1h800v53.3H0z"/><path d="M0 426.4h800v53.3H0v-53.3zM0 0h266.5v266.5H0V0z" fill="#0D5EAF" fill-rule="nonzero"/><g fill="#FFF"><path d="M106.6 0h53.3v266.5h-53.3z"/><path d="M0 106.6h266.5v53.3H0z"/></g></g></svg>