<svg width="800" height="480" xmlns="http://www.w3.org/2000/svg"><defs><linearGradient x1="104.431%" y1="71.004%" x2="107.424%" y2="-14.979%" id="a"><stop stop-color="#474747" offset="0%"/><stop stop-color="#F50" offset="100%"/></linearGradient><linearGradient x1="219.855%" y1="-10.09%" x2="220.436%" y2="99.98%" id="b"><stop stop-color="#B50000" offset="0%"/><stop stop-color="#FFC500" offset="100%"/></linearGradient><linearGradient x1="60.146%" y1="29.732%" x2="117.272%" y2="27.385%" id="c"><stop stop-color="#D5DFFF" offset="0%"/><stop stop-color="#FFF" offset="100%"/></linearGradient><linearGradient x1="451.109%" y1="43.417%" x2="564.836%" y2="43.417%" id="d"><stop stop-color="#474747" offset="0%"/><stop stop-color="#F50" offset="100%"/></linearGradient><linearGradient x1="133.333%" y1="70.695%" x2="37.514%" y2="-25.002%" id="e"><stop stop-color="#D5DFFF" offset="0%"/><stop stop-color="#FFF" offset="100%"/></linearGradient><linearGradient x1="240.73%" y1="80.326%" x2="205.27%" y2="9.349%" id="f"><stop stop-color="#D5DFFF" offset="0%"/><stop stop-color="#FFF" offset="100%"/></linearGradient></defs><g fill="none" fill-rule="evenodd"><path fill="#00247D" d="M0 0h800v480H0z"/><g fill-rule="nonzero"><path d="M0 0v26.833L355.278 240h44.72v-26.832L44.72 0H0zm399.998 0v26.832L44.72 239.999H0v-26.832L355.278 0h44.72z" fill="#FFF"/><path d="M166.666 0v239.999h66.666V0h-66.666zM0 80v80h399.998V80H0z" fill="#FFF"/><path d="M0 96v48h399.998V96H0zM180 0v239.999h39.999V0h-40zM0 239.999l133.333-80h29.813L29.813 240H0zM0 0l133.333 80h-29.814L0 17.889V0zm236.852 80L370.185 0h29.813L266.665 80h-29.813zm163.146 159.999l-133.333-80h29.813l103.52 62.112v17.888z" fill="#CF142B"/></g><path d="M591.26 347.83s-2.663 7.027-4.182 7.027c-1.518 0-7.026-3.037-7.026-3.037s-3.99 6.463-6.081 6.836c-2.09.382-7.6-.946-7.6-.946s-5.317 0-5.508-.763c-.19-.755.19-2.273.19-2.273s-7.597 6.073-9.306 5.691c-1.71-.373-7.409-7.591-7.409-7.591l-.95 3.8-10.827-.382-9.498-6.08s-5.318 8.735-5.508 8.544c-.19-.19-9.307 2.09-9.307 2.09l-.57-1.708-6.079-3.61s4.749-6.644 4.749-6.835c0-.19-2.28-.954-2.28-.954l-3.419 2.854-7.028 4.554-7.028-3.227 3.04-5.7.38-4.18 5.508-8.354 67.433-65.538 33.242 61.357-4.937 18.425z" stroke="#000" stroke-width=".621" fill="#6A4C2D"/><path d="M639.167 351.804l17.55-.636-7.471-3.688 66.881-2.52-9.451-3.6-8.37-11.343-34.657-2.608s-2.607-1.979-6.844-.993c-.175-2.695-3.418-6.208-3.418-6.208l-21.334-1.622-13.323 9.094 8.998 23.043 11.439 1.081z" stroke="#000" stroke-width=".621" fill="#FFF"/><path d="M90.87 118.246l1.765-6.009s3.092-5.214 3.092-7.52c0-2.297 2.306-5.031 2.306-5.031s7.066-2.035 8.568 2.297c7.607-11.494 16.534-.532 16.534-.532l2.472-2.918 5.04-6.184s7.161 6.717 7.249 7.862c.087 1.152 1.232.357 1.232.357l7.782-.62s3.688 2.894 2.917 8.394c2.742 1.622 5.214 11.136 5.214 11.136l-64.17-1.232z" stroke="#000" stroke-width=".621" fill="url(#a)" transform="translate(480 37)"/><path d="M639.175 226.754c1.343-.819 5.572-2.162 5.055-8.346-.517-6.185-5.874-6.908-8.863-6.701-2.996.206-5.675 2.782-5.675 2.782l-9.896-6.288s4.952-31.239 10.206-33.194c4.992-3.6 5.874-5.159 5.874-5.977 0-.827-1.852-2.894-1.852-2.894l-32.272-3.815-30.516 3.609s-2.368 3.608-2.058 5.055c.31 1.439.413 2.989 5.874 7.217 6.049 4.65 10.206 31.343 10.206 31.343s-8.553 4.22-9.07 3.704c-.516-.509-3.092-1.026-4.435-.819-1.335.207-5.77 2.472-5.77 8.346 0 5.882 4.435 9.284 4.435 9.284s29.172-3.402 33.504 4.635c4.229-9.69 31.954-6.288 35.253-7.941z" stroke="#000" stroke-width=".621" fill="#656263"/><path d="M670.604 194.283s.326-3.394 2.743-5.008c2.424-1.613 18.568-2.424 22.447 0 3.871 2.425 5.326 14.372 5.326 14.372s2.424 4.197 2.583 7.265c.16 3.068.485 5.167.485 5.167s12.917 16.795 13.076 31.97c1.454 10.333 1.128 37.94-2.902 48.432-.167 13.083-5.651 21.636-5.651 21.636s1.288 2.258 1.129 4.682c-.167 2.424-1.455 4.682-1.455 4.682l18.886 9.364-6.939-2.584s7.106 5.978 6.94 5.819c-.16-.167-7.91-3.72-7.91-3.72l4.682 4.682c-.159-.16-11.462-5.167-11.462-5.167s5.326 5.008 5.008 4.849c-.326-.16-8.561-4.038-8.561-4.038s5.166 5.492 5.008 5.166c-.16-.326-7.425-3.227-7.425-3.227l.318 2.743s-5.81-.326-5.81-4.682c-2.91-1.614-4.841-3.88-4.841-3.88l-13.402-2.257-15.182-45.372 3.553-76.69.97-3.87-1.614-10.334z" stroke-opacity=".979" stroke="#000" stroke-width=".776" fill="#000" stroke-linejoin="round"/><path d="M660.462 439.368s-7.774-16.35-11.645-16.58c-3.498-6.67 12.153-61.175 42.43-64.283 16.645 1.367 1.368 19.189-9.578 13.704 1.367 4.793 6.836 11.653 6.836 11.653s-21.66 9.363-28.043 55.506z" stroke="#000" stroke-width=".617" fill="#FB0"/><path d="M556.237 441.753s6.438-18.616 10.341-18.847c3.911-.23-10.341-62.04-41.359-62.501-16.775 1.383-1.379 19.3 9.65 13.783-1.378 4.833-6.892 11.725-6.892 11.725s21.83 9.419 28.26 55.84z" stroke="#000" stroke-width=".621" fill="#FB0"/><path d="M584.694 325.486c-.08-.151-7.703 2.392-2.767 10.69.374-3.21 3.808-5.158 3.808-5.158s-5.23 6.208.302 11.438c.676-4.936 3.815-6.502 3.815-6.502s-3.887 11.439.072 13.752c.453-4.563 3.362-6.574 3.362-6.574s-3.513 10.238-.373 12.551c.373-3.879 2.988-5.604 2.988-5.604s-1.565 10.62 2.544 11.367c.08-3.744 3.068-7.4 3.068-7.4s-1.351 8.664 5.08 9.046c.08-3.291 1.271-7.027 1.271-7.027s2.918 9.189 7.178 7.694c-.071-2.686.072-7.774 0-7.774-.08 0 2.687 8.744 7.774 7.107-.747-2.473.294-5.39.294-5.39s2.695 5.461 7.552 3.665c.826-1.646-.223-4.857-.223-4.857s7.098 7.329 9.268 2.917c2.17-4.411-5.683-5.906-5.683-5.906h5.31s-1.717-4.483-8.895-5.46c2.464-1.121 5.008-.295 5.008-.295s-1.495-5.612-8.823-6.208c2.845-.97 5.985-.294 5.985-.294s-.978-5.31-9.046-6.804c1.272-1.423 4.706-.97 4.706-.97s-3.211-5.008-6.876-4.713c-3.664.302-36.779-3.363-36.7-3.291z" stroke="#000" stroke-width=".621" fill="#00713D"/><path d="M617.355 352.472s2.917 1.423 2.846 2.695m-1.121-5.008s3.736 2.615 3.665 4.555m-.382-5.906s2.997 1.868 3.14 4.785m1.867-3.585s1.503 3.211.978 3.807m2.019-2.09c.223 2.543-.23 2.766-.23 2.766m-36.628-18.839s3.513 2.242 3.22 5.382m-3.443-2.687s1.646 1.566 1.272 2.615m3.068-5.23s2.313 3.211 1.566 5.453m2.393-3.363s1.05 2.02.08 3.14m1.788-2.17s1.272 2.02.15 2.695m-1.565 3.958s3.283.747 3.736 3.212m-1.797-5.453s3.442.222 3.816 3.887m.747-5.159c.072 0 2.313 3.966 1.94 5.23m2.472-4.857s.89 3.816.222 5.008m2.616-3.513c0 .08.07 4.411.07 4.411m-4.403-10.389s2.162.82 2.011 2.918m0-4.865s2.766 1.574 2.472 4.562m.748-5.826s2.392 2.838 1.494 5.978m2.687-5.31s-.89 3.513-.525 4.936m3.068-2.544s-1.566 1.2-.747 2.695m-12.853 10.985s.517 2.695 0 3.14m-3.442-4.706s1.717 2.989 1.12 4.483m-4.784-4.634s1.947 2.242 1.868 4.038m-4.857-3.592s1.796 1.724 1.645 2.694m-3.211-.079s1.717 1.796 1.637 2.17" stroke-linecap="round" stroke="#3EC26D" stroke-width=".776"/><path d="M560.966 229.981c8.243-.151 16.486-.294 24.73-.445 0 0 16.334 0 18.099 5.302 3.092-7.067 17.217-6.622 17.217-6.622l25.603-.882c.15 20.603.294 41.207.445 61.81-5 23.981-22.368 40.912-41.5 48.122-22.814-7.36-37.233-26.637-41.939-48.567-.89-19.57-1.772-39.148-2.655-58.718z" stroke="#000" stroke-width=".621" fill="#FFF"/><path d="M569.774 229.75l36.016 95.974 32.534-98.064c-10.095.652-31.747-1.59-34.434 7.615-4.165-8.235-26.946-4.912-34.116-5.525z" stroke="#000" stroke-width=".621" fill="#006B00"/><path d="M594.288 281.712c1.39.723 1.351-26.048 3.171-26.875.517-2.218.78-3.188 1.431-5.54-1.566-2.775-8.577-2.64-11.176-.279 1.169 3.736 1.685 4.984 1.685 4.984 3.514 5.684 2.814 28.314 4.889 27.71z" stroke="#006B00" stroke-width=".5" fill="#FFC900" stroke-linecap="round"/><path d="M584.638 74.795s2.552-2.892 2.663-3.585c.12-.694 11.565-1.157 18.385-13.877 3.816-6.707 0-2.776 0-2.776l-.23-3.238s4.745-4.51 3.013-6.939c-1.741-2.428-1.161 3.124-3.935 3.007-2.774-.116-1.272-6.013-1.272-6.013s-.23-.694-1.041-1.04c-1.16.115-.811 2.197-1.852 2.428-1.042.231-1.964-4.857-1.964-4.857s-1.733-2.313-3.243 4.973c.811 7.748 5.787 6.244 5.787 11.333 0 5.088-4.396 9.02-5.668 9.135-1.271.116-.81-4.278-.81-4.278s-.692-2.082-1.153-2.082c-.46 0 2.544-.463 2.083-6.245-1.042-6.938-1.852 1.62-3.704 1.272-1.853-.347-.461-6.36.23-7.054.692-.694-.81-3.585-4.857 3.817-.35 3.584-.81-.926-1.621-.694-1.383 2.89-1.153 4.972.81 7.632 2.894 2.66 4.746 5.32 4.627 6.707-.112 1.388-1.622 4.51-3.696 4.51-2.083 0 .11-3.816 0-5.088-.12-1.272-3.585-5.898-3.585-5.898s-2.433-3.932-2.202-4.047c.23-.116-.23-.694-1.383 3.353-1.16 4.048-2.552-2.66-2.552-2.66s-1.613 4.973 1.852 7.98c-2.655-.347-2.885.694-2.885.694 0 1.388 3.585 1.965 4.046 4.394.46 2.429-3.704 3.816-3.704 3.816s1.74 2.428 6.59-2.312c.118 3.006-1.845 5.088-1.845 5.088 1.614.732 2.885.655 3.116 2.544h0z" stroke="#000" stroke-width=".776" fill="#CDAD56" stroke-linejoin="round"/><path d="M568.772 74.795s-2.162-3.209-2.257-3.84c-.104-.632-10.636.797-15.618-12.05-3.242-6.103 0-2.525 0-2.525l.196-2.947s-3.449-4.219-1.976-6.429c1.473-2.21.867 2.841 2.762 2.852 2.355-.105 1.08-5.472 1.08-5.472s.195-.631.884-.947c.98.105 1.384 3.27 2.267 3.482.882.21 2.71-3.726 3.283-4.536.81-.115.779-3.26 2.058 3.369-.683 7.05-6.526 5.682-6.526 10.312 0 4.63 3.728 8.208 4.81 8.313 1.08.105.691-3.893.691-3.893s.588-1.894.978-1.894c.397 0-3.434.735-3.037-4.526.883-4.926 2.838.317 4.412 0 1.574-.315-.183-5.208.27-5.956.103-.747 2.416-3.956 3.315 3.126.294 3.262 2.074-2.808 2.758-2.597 1.184 2.63-.517 6.144-2.186 8.564-2.456 2.42-3.569 5.071-3.466 6.334.096 1.263.676 2.832 2.449 2.832 1.764 0 .596-2.2.691-3.358.096-1.157 3.045-4.904 3.045-4.904.58-.925.095-2.653.707-3.452.962.01 1.36-1.325 2.337 2.358.986 3.683 2.162-2.42 2.162-2.42s1.375 4.525-1.574 7.26c2.258-.315 2.456.632 2.456.632 0 1.263-1.073 1.789-1.47 3.998a3.738 3.738 0 0 0 1.176 3.473s-1.47 2.21-5.596-2.105c-.103 2.736 1.574 4.63 1.574 4.63-1.383.667-2.456.597-2.655 2.316z" stroke="#000" stroke-width=".682" fill="#CDAD56" stroke-linejoin="round"/><path d="M632.315 244.066c-2.154-1.955-2.409-.246-3.466-.683-.524-.215-.93-.7-1.383-1.145-.39-.405-.858-.572-1.375-.787-.199.58-.39 1.153-.588 1.733-.199.58.548 1.542.532 2.408-.15 1.288-.675 2.361-2.297 2.798.461-.914.723-.953.58-2.074-.063-.557-1.63-1.55-1.438-2.075.286-.85.779-1.828.413-2.679-.66.453-1.534.215-2.194.493-.564.247-.596 1.288-1.375 1.717-.795.374-2.552.19-4.022-.644.898-.675 1.637-.222 2.536-.898.445-.342.429-1.796.874-2.138.453-.342 1.526-.7 1.971-1.041-.405-.461-.381-1.185-.787-1.646-.397-.46-2.186-.365-2.591-.819-.81-.922-.652-2.13-1.463-3.044 2.091.747 1.789 1.765 2.314 1.685.985-.477 1.97-.564 2.488-.35.524.223 1.51 1.51 2.026 1.725.2-.58.485-1.311.676-1.891.199-.58-.874-1.582-.683-2.163.397-1.152 1.367-2.178 1.756-3.338.143 1.12.326 2.059.47 3.172.07.556 1.168.85 1.24 1.406.07.565-.573 1.853-.51 2.417.605-.12 1.471-.04 2.067-.16.604-.118 1.002-1.51 1.598-1.629 1.2-.238 2.067-.167 3.283.064-.899.835-1.59.779-2.154 1.542-.446.342.174 1.463-1.121 2.25-.485.286-1.765-.056-2.218.286.405.46.81.914 1.216 1.375.398.46 2.21.676 2.615 1.137.803.914 1.232 2.01 1.01 2.996zm-55.379.946c2.154-1.955 2.408-.246 3.473-.683.517-.223.922-.708 1.375-1.145.39-.405.859-.572 1.376-.795.198.58.397 1.16.588 1.74.198.581-.54 1.535-.525 2.401.143 1.296.668 2.361 2.29 2.806-.462-.914-.724-.962-.58-2.074.07-.557 1.629-1.55 1.438-2.083-.286-.843-.78-1.828-.413-2.679.667.461 1.534.223 2.201.493.557.255.596 1.296 1.368 1.725.802.374 2.559.19 4.022-.644-.899-.683-1.638-.222-2.536-.906-.445-.334-.421-1.796-.874-2.13-.446-.342-1.519-.708-1.972-1.05.406-.453.382-1.184.787-1.645.406-.453 2.194-.358 2.592-.819.81-.914.66-2.122 1.462-3.044-2.09.747-1.78 1.765-2.305 1.693-.994-.477-1.98-.572-2.496-.35-.517.215-1.51 1.503-2.027 1.725-.199-.58-.477-1.311-.676-1.892-.198-.58.883-1.581.684-2.162-.39-1.16-1.367-2.178-1.757-3.338-.143 1.113-.326 2.05-.469 3.171-.071.557-1.168.85-1.24 1.407-.063.557.58 1.852.51 2.409-.605-.12-1.471-.04-2.068-.151-.596-.127-.993-1.518-1.597-1.638-1.2-.238-2.06-.167-3.283.064.898.843 1.59.779 2.154 1.55.445.342-.175 1.463 1.12 2.25.486.286 1.773-.056 2.218.286-.405.453-.81.914-1.208 1.375-.405.46-2.217.675-2.615 1.129-.81.922-1.24 2.018-1.017 3.004z" fill="#FFC900"/><path d="M630.383 250.25c-1.955 1.519-14.554 4.706-14.689 15.652-.127 10.945 2.21 13.441-.127 13.72-4.547 0-5.199-12.194-5.072-17.6.136-5.405.263-4.57.263-4.57s3.116.827 2.861 3.466c-.262 2.63 3.116-6.518 1.948-9.006 2.074 2.074 4.809 1.248 4.809 1.105 0-.136-1.558-1.797-2.21-3.045-.652-1.248 2.337.692 2.337.692s.127-2.083-2.472-1.94c-3.378 0 .525-1.113.525-1.113s1.947 1.805 3.25-.135c-1.43-1.526-3.513-2.36-3.513-2.36s-1.82-3.458-4.284-4.15c-2.862-.7-2.472 1.24-5.723.97-.644 1.24-.644 1.383.651 1.796-2.21 1.527-1.04 4.57-1.04 4.57s3.513-1.517 3.377.97c-.127 2.497-2.074 2.083-3.378.557-1.168-.691-1.558.692-1.558.692l1.82 1.94s-3.505-.136-4.419 2.217c1.947-.135 2.989.421 2.989.421s-4.03 1.797-4.42 2.766c-.39.97-.516-1.105-.644-1.105-.135 0-3.903-1.39-3.903-1.39l-1.303 5.993s2.607 2.6 4.03 1.764c1.43-.826 4.03-3.322 5.588-2.63-4.547 3.465-9.094 8.449-11.566 9.148-.643-.556-2.853-2.774-3.767-1.669-.906 1.113-.255 2.496.914 2.361 1.168-.143-3.768 1.105-2.735 3.187 1.042 2.075.915 1.94 1.82 1.384.915-.557-.778-.692 2.6-1.662s3.251-1.94 3.251-1.94-.652 1.519-2.472 1.94c-1.82.414-3.243.414-2.854.97.39.549 1.169 1.518.906 2.075-.262.556 3.768-2.91 4.81-.135 2.726-.144 4.546-3.466 3.25-5.406.128 2.075 1.431 2.774.644 3.744-.779.97 6.113-3.187 2.735-5.683.906 2.074 1.041 3.744 1.041 3.744s1.558-.143 1.948-.7c.389-.548-.78 1.526-.263 1.94.517.421 2.989 2.774 1.948 4.435-.644-.97-.78-2.496-1.558-2.353-.78.135-4.03 2.496-5.978 2.631-1.947.136 2.337 7.21 2.337 7.21s-2.989-.421-3.378-.143c-.39.278-2.337-2.496-2.727-.827-.651 2.075.652 1.24.652 1.24s-1.693-.826-2.599.143c-.914.97-1.82 1.94-1.168 2.353.643.413 3.505.413 3.894.278.39-.135-3.25.279-3.505.692-.262.413-.779 1.94 0 2.496s2.726-.278 2.854-.692c.135-.421.262 1.518.262 1.518s3.378.279 3.378-3.179c0-3.466.263 2.488.263 2.488s3.378.556 3.505-2.91c.135-3.457.39 2.361.39 2.361s2.21-.699 2.21-1.247c0-.557-.128 6.923-1.686 9.006-2.472-1.67-4.03 1.104-4.03 1.104s.127 4.015-.135 4.984c-.254.97 1.693-.548 1.82-.97.135-.413 2.472-1.518 2.6-1.796.135-.278.778-1.661.778-1.661s-.516 1.94-1.422 2.218c-.915.27-1.82 1.24-1.431 2.074.39.835 1.82 1.383 2.337 2.218.516.827 2.337-4.849 2.337-4.849l.135 1.248s2.337-.556 2.6-1.661c.253-1.113-2.473-2.083-.263-3.88 2.21-1.804 0 1.662 0 1.662s.779 2.631 1.295 2.631c.525 0 1.82-4.992.525-6.232-1.304-1.248 1.947 1.518 1.947 1.518s1.82-5.127-.127-5.818a81.775 81.775 0 0 0-2.861-.97s1.041-1.383.516-1.518c-.516-.143 2.735 3.044 3.251 2.21.525-.827 1.304-3.323-2.464-4.706-3.775-1.383-.135-5.27-.135-5.27s2.345 2.774 4.03 1.248c1.685-1.518-.127-1.518-.127-1.518s4.801-3.053 4.936-4.579c-.914-.135-2.472.143-2.472.143s2.735-1.804 2.083-4.713c-1.042 1.526-2.472 1.526-2.472 1.526s2.345-2.353 1.947-4.57c-1.423 1.104-1.295 1.939-2.21 1.66-.906-.278-2.464-9.005 1.177-9.562 3.632-.548 1.685 4.3 1.812 4.3.135 0 5.461-2.217 0-5.818 1.304-.421 4.03 2.075 4.03 2.075s-1.168-6.097-7.019-2.353c1.431-1.526 2.345-2.496 3.514-2.218 1.168.278 5.325-.143 5.325-1.383-1.033-.835-3.243.413-4.42 0-1.168-.421 8.323-1.113 7.544-5.819z" stroke="#006B00" stroke-width=".5" fill="#FFC900" stroke-linecap="round" stroke-linejoin="round"/><path d="M589.185 253.845s5.199-2.91 7.797.697m2.079 5.538c-.131 0-1.82 1.802-2.211 1.802m5.721 4.018s4.805.416 7.925-4.71" stroke="#006B00" stroke-width=".5" stroke-linecap="round"/><path d="M607.767 264.375s.39 2.774 1.171 2.774c.777 0-1.299.692-2.08.136.909 1.249 1.43 3.466 0 4.294" stroke="#006B00" stroke-width=".5" stroke-linecap="round"/><path d="M605.296 299.29s-1.689 1.937-3.769 2.078" stroke="#006B00" stroke-width=".5" fill="#E80000" stroke-linecap="round"/><path d="M607.249 290.422s-1.04-5.54-.39-6.928c.39-1.801 2.08-2.494 3.378-4.847m-3.51 7.756s-1.3 3.326-7.016 2.218m8.578-10.531s.386 4.435-4.81 2.775m-1.561-22.721s-2.08 1.937-1.299 4.57" stroke="#006B00" stroke-width=".5" stroke-linecap="round"/><path d="M609.715 253.293s2.729-1.108 3.251-1.665c.518-.552 1.43-1.66 1.69-2.493.258-.829-1.822-2.077-.782-3.878.65-.831 1.558-.97 3.12 0 1.558.968-1.43-3.048-2.988-3.186-1.562-.139-2.602 1.108-2.988.83-.39-.276.127 1.11-.522 1.11-.65 0 1.299 1.108 1.171 1.802-.131.693 2.076 3.046 1.948 3.602-.131.552-3.25 3.738-3.9 3.878z" fill="#006B00"/><path d="M611.667 244.149c1.184-.288 1.375.032 1.167 1.108-.556-.299-.76-.55-1.167-1.108z" stroke="#FFC900" stroke-width=".5" fill="#FFC900" stroke-linecap="round" stroke-linejoin="round"/><path d="M603.365 305.875s-.437 2.9.633 3.14c-.056-1.122.229-1.887.492-2.185-.23-.114-1.074-.937-1.125-.955zm-2.411-3.571c-.984-.149-2.644.72-2.169 1.77.803-.733 1.541.059 2.101-.688.17-.208.123-.82.068-1.082zm-.008-2.072s-1.55-.263-1.766.882c1.07-.144 1.388-.267 1.745-.027.101-.244.004-.796.02-.855zm-6.566-16.34s.93.37 1.192 1.385c.739-.49 1.091-2.639-1.192-1.385zm-2.3 2.466c.037-.018 1.947-1.253 2.143-.072-.404.43-.582.71-.896.805-.246 0-.738-.805-1.248-.733zm-.192 4.005c.034-.018 1.227-1.14 1.685-.394.454.751-.369.71-.369.71s-.42-.203-1.316-.316zm-1.685-22.3c-.017 0-1.528-.62-2.16.502 1.001.132 1.354.507 1.808.883-.123-.47-.331-1.181.352-1.385zm-2.928 8.399s.067-1.887.908-2.657c.475.281.615.729.934 1.29-.633.15-1.477.19-1.842 1.367zm4.032-1.349s-1.664.824-1.12 1.724c.542-.62 1.141-.43 1.141-.448 0-.018 0-1.253-.021-1.276z" stroke="#006B00" stroke-width=".5" fill="#E80000" stroke-linejoin="round"/><path d="M588.904 257.04c-.598.715.739 2.267 2.14 2.04.352-1.683-1.787-2.56-2.14-2.04z" stroke="#006B00" stroke-width=".5" fill="#FFC900" stroke-linejoin="round"/><path d="M588.887 253.786c-.292.792.87 1.905 1.545 1.593.272-.814-1.239-2.222-1.545-1.593z"/><path d="M590.45 255.75s.263 1.33 1.472.973c-.19-1.027-1.035-1.796-1.035-1.796-.051.303.174.769-.438.823zm.806 3.856s.666.764 1.982-.806c-.594.186-1.647-.375-1.647-.375s0 1.086-.335 1.18z" stroke="#006B00" stroke-width=".5" fill="#E80000" stroke-linejoin="round"/><path d="M588.828 253.99c-.594.71.25 1.701 1.651 1.48.352-1.684-1.299-2-1.651-1.48z" stroke="#006B00" stroke-width=".5" fill="#FFC900" stroke-linejoin="round"/><path d="M109.391 210.341s5.596-1.598 8.57.803c2.964 2.393 2.964.223 2.964.223s4.34 1.597 5.596 1.255c1.256-.341-.914.12.795-.914 1.717-1.025-3.426.23-3.88-1.94-.802-1.366.112-3.083-1.708-2.511-1.256-1.598.795-2.734.342-4.451-1.256.914-1.948-.342-2.973 1.94-2.393-.454-.342-3.769-2.965-4.11 0 2.4-1.94 2.511-2.059 3.887-1.136.795-6.16 3.767-4.682 5.818z" fill="url(#b)" transform="translate(480 37)"/><path d="M525.01 429.337c3.629-.874 23.294 4.348 30.877 12.472-1.613-14.475-5.621-25.564-5.621-25.564s-11.72-3.346-13.328-1.733c-2.36 2.48-9.446 9.928-11.929 14.825zm-5.996-66.865c-1.378.23-2.757 1.152-4.135 3.45-1.61 3.902-2.758 13.783-5.056 16.08-2.298 2.297-4.366 2.527-4.366 4.602 0 2.067.23 6.892 6.434 8.728 6.204.23 16.086-9.88 16.086-9.88s5.055-5.517 7.122-11.486c-11.948 4.133-20.45-6.9-16.085-11.494z" stroke="#000" stroke-width=".621" fill="#C01500"/><path d="M691.828 427.032c-3.601-.867-23.49 4.324-31.017 12.4 1.598-14.387 5.58-25.42 5.58-25.42 1.391-.374 11.502-3.323 13.1-1.717 2.337 2.464 9.872 9.872 12.337 14.737zm5.572-66.476c1.367.23 1.852 2.027 2.973 4.316 1.59 3.88 3.235 9.539 5.516 11.82 2.281 2.29 4.332 5.667 4.332 7.726s-.477 4.833-6.637 6.661c-6.153.23-15.079-7.678-15.079-7.678s-5.016-5.477-7.067-11.423c11.86 4.118 19.539-6.47 15.962-11.422z" stroke="#000" stroke-width=".617" fill="#C01500"/><path d="M512.121 416.706s12.408 8.497 12.639 12.408c33.321-49.41 118.341-64.806 166.821-3.45 6.439-8.505 13.1-11.255 13.1-11.255-51.008-66.643-152.577-58.368-192.56 2.297z" stroke="#000" stroke-width=".621" fill="#FB0"/><g fill="#1E5AA6" stroke="#000"><path d="M638.53 227.676l4.858-.12-8.673 10.986 10.405 12.146-20.468 25.786 19.316 23.242c-2.122 5.206-4.587 9.944-7.87 14.228l-11.096-12.265 20.118-25.086-16.533-18.736 9.944-30.181zm-69.384 2.194l-5.207.119 9.714 10.516-10.286 12.838 21.39 23.25-17.694 23.703c2.123 5.207 5.167 10.985 8.442 15.262l10.524-13.299-21.62-24.053 15.841-20.118-11.104-28.218z" stroke-width=".621"/><path d="M593.199 292.315l-7.631 10.175 27.288 31.573c4.817-2.433 8.6-5.207 12.726-8.553l-14.228-16.423 5.787-17.002 8.322 9.594-26.016 33.194c-4.356-1.852-9.173-4.745-13.53-8.33l13.76-17.456-6.478-16.772zm-8.442-15.841l4.976 6.247-3.243-8.441-1.733 2.194z" stroke-width=".621"/><path d="M620.376 281.998c.103-.12 4.014-5.326 4.014-5.326l-1.518-2.074-2.496 7.4z" stroke-width=".601"/></g><g fill="#000" font-family="Helvetica" font-size="8"><text transform="rotate(-49.557 707.547 -352.284)"><tspan x="0" y="8">L</tspan></text><text transform="rotate(-45.392 749.971 -417.707)"><tspan x=".056" y="8.052">E</tspan></text><text transform="rotate(-36.462 875.478 -596.05)"><tspan x=".136" y="8.096">O</tspan></text><text transform="rotate(-34.061 912.07 -675.792)"><tspan x=".276" y="8.186">T</tspan></text><text transform="rotate(-33.549 917.992 -696.933)"><tspan x="1.668" y="9.465">E</tspan></text><text transform="rotate(-23.988 1183.84 -1093.626)"><tspan x=".513" y="8.212">R</tspan></text><text transform="rotate(-21.911 1264.696 -1239.595)"><tspan x=".639" y="8.243">R</tspan></text><text transform="rotate(-4.763 4757.796 -6924.83)"><tspan x=".151" y="8.098">R</tspan></text><text transform="rotate(.856 -24347.175 41224.18)"><tspan x=".464" y="9.283">R</tspan></text><text transform="rotate(29.645 -387.807 1430.219)"><tspan x=".812" y="8.115">R</tspan></text><text transform="rotate(39.802 -201.123 1131.365)"><tspan x=".845" y="8.839">E</tspan></text><text transform="rotate(9.306 -2027.745 4256.894)"><tspan x=".052" y="8.866">O</tspan></text><text transform="rotate(-7.975 2958.006 -4110.734)"><tspan x=".19" y="8.183">O</tspan></text><text transform="rotate(-20.292 1339.559 -1377.052)"><tspan x=".754" y="8.274">A</tspan></text><text transform="rotate(45.196 -136.4 1030.155)"><tspan x=".805" y="8.474">A</tspan></text><text transform="rotate(11.356 -1543.796 3339.005)"><tspan x=".624" y="8.906">A</tspan></text><text transform="rotate(-10.645 2302.243 -2861.727)"><tspan x=".929" y="8.173">M</tspan></text><text transform="rotate(-5.94 3880.661 -5428.682)"><tspan x="1.204" y="8.114">P</tspan></text><text transform="rotate(-1.463 14796.185 -23583.004)"><tspan x=".34" y="8.031">P</tspan></text><text transform="rotate(23.499 -578.105 1748.725)"><tspan x="1.825" y="8.835">P</tspan></text><text transform="rotate(6.585 -2894.225 5591.842)"><tspan x=".581" y="9.079">I</tspan></text><text transform="rotate(46.586 -124.542 1011.352)"><tspan x=".827" y="8.367">T</tspan></text><text transform="rotate(36.816 -245.236 1201.96)"><tspan x=".851" y="9.003">T</tspan></text><text transform="rotate(16.412 -971.665 2388.538)"><tspan x=".703" y="8.706">M</tspan></text><text transform="rotate(47.66 -105.178 971.589)"><tspan x=".64" y="8.499">G</tspan></text></g><path d="M677.877 195.133s4.802-4.11 8.22-4.228m-7.528 3.656c.111-.111 28.655-4.11 29.562-5.024m-29.451 5.255c.112-.12 31.962-2.743 31.962-2.743m-32.073 2.854s33.902-1.598 35.96.12m-36.079-.231s33.226.23 33.798 1.025m-33.679-1.025l31.962 2.623m-32.304-2.393c.111 0 32.535 2.854 35.73 6.963m1.709 5.819c-.111-.111-11.073-13.132-37.558-12.901m.119.23s18.378 1.256 24.196 7.647m-23.854-7.877s11.868-2.281 24.315 12.678" stroke-linecap="round" stroke="#FFF700" stroke-width=".621"/><path d="M191.09 171.487s16.47.652 16.47 2.266c0 1.613-12.274 4.682-12.433 11.462-.159 6.78 9.364 7.265 10.008 15.818.644 8.561-7.424 9.849-9.038 12.114-1.622 1.129-5.493 13.235-5.008 20.341.485 7.106 2.584 31.16 6.296 36.008 2.909 2.258 7.265 9.523 11.947 7.265 4.681-2.265 1.454-10.492.97-12.758-.485-2.257 1.939-5.97 1.939-9.363 0-3.394-1.78-6.137-1.614-6.94.16-.81 13.076 3.069 12.265 15.819-.803 12.757-5.97 8.878-5.97 8.878s1.614 15.668-2.424 17.766c-7.265 3.871-12.59-.81-12.59-.81l.683 3.187-5.524-2.862s-7.107-10.174-8.72-14.697c-1.614-4.515-3.553-24.697-2.91-29.061.644-4.356 1.13-29.872.811-31.16-.326-1.295-1.613-22.606-.81-25.833.81-3.227 5.81-17.44 5.651-17.44z" stroke="#000" stroke-width=".621" fill="url(#c)" transform="translate(480 37)"/><path d="M653.332 204.29s11.462-11.136 18.083-9.848c3.386 0 .159 2.424.159 2.424s5.81.485 6.621 3.069c.16 1.128-2.75 1.454-2.75 1.454s2.424.485 2.583 2.583c.167 2.099-24.537.477-24.696.318z" stroke="#000" stroke-width=".621" fill="#FF7000"/><path d="M653.975 203.806s12.273-1.614 17.44-6.78m-5.008 3.394s9.038-.327 9.038.97" stroke="#000" stroke-width=".621"/><path d="M698.536 332.489s7.75-1.78 9.849-4.523c1.296-.97 8.076 10.174-9.849 4.523z" stroke="#000" stroke-width=".776" fill="#FFF" stroke-linejoin="round"/><path d="M696.438 268.39s.97 5.977-1.773 10.007c-1.454 1.614-5.818 4.364-5.818 6.304 0 1.931 1.613 4.514 1.295 6.78-.325 2.257-2.742 4.523-2.583 6.454 0 1.94 2.742 12.273 2.417 12.432m-7.743-61.349s-6.136 2.099-7.432 8.235" stroke="#FFF" stroke-width=".776" stroke-linecap="round"/><path d="M679.642 200.42s2.106 5.81 8.887.317c-4.364-5.97-8.887-.159-8.887-.318z" stroke="#000" stroke-width=".621" fill="#C75B00"/><path d="M684.653 200.175c0 .312-.326.565-.727.565-.401 0-.726-.253-.726-.565 0-.312.325-.565.726-.565.401 0 .727.253.727.565z" fill="#000"/><path d="M624.2 186.93s12.86 13.919 21.183 13.768c1.51 4.085-3.784 7.885-5.898 9.697-4.237-1.36-8.068.247-17.901-11.852.612-7.718 2.766-11.31 2.615-11.613zm17.4-32.375c1.66-5.143 4.99-9.229 7.86-9.682-.755-3.934 6.057-21.326 25.874-27.988 1.208 8.927-8.474 17.702-8.474 17.702s29.196-4.991 35.094-12.408c-.604 3.33-6.502 24.053-37.669 23.902 11.804 11.2-3.776 20.127-10.437 17.4 12.257-9.38-3.473-14.975-12.249-8.926z" stroke="#000" stroke-width=".621" fill="#FFF"/><path d="M651.583 147.298c5.898-3.784 8.012-3.784 12.861-3.029-3.482.453-3.482.604-3.482.604s-.302.453 1.813 2.425c-2.417-.613-4.54-1.972-11.192 0z" stroke="#CCC" stroke-width=".621" fill="#CCCCCD"/><path d="M649.31 144.873s11.652-6.2 18.154-10.437" stroke="#000" stroke-width=".621"/><path d="M639.326 210.38s16.04 4.387 17.853-18.609c-3.482-9.984-8.323-31.47-.906-37.67-6.813-4.69-14.22.152-14.22.152-.454 1.057-6.51 9.681 1.66 24.808-19.363-5.143-11.493 13.163-11.493 13.163.755-2.877 11.04-5.596 13.616 9.078 1.057 3.632-6.963 9.228-6.51 9.077z" stroke="#000" stroke-width=".621" fill="#00F"/><path d="M657.33 191.922s16.947-9.077 16.486-30.404c-14.372.302-19.515 18.902-19.515 18.902l3.029 11.502z" stroke="#000" stroke-width=".621" fill="#00F"/><path d="M581.387 190.865s-12.551 10.89-19.665 7.408c-5.294 3.18-11.496-2.416-11.496-2.416s7.259 26.771 33.283 7.408c-.453-5.898-1.82-11.947-2.122-12.4z" stroke="#000" stroke-width=".621" fill="#FFF"/><path d="M561.57 197.82c1.058-5.596 5.446-8.322 8.927-3.028 4.69.914 9.38-18.299-7.265-15.127 4.69-25.11-9.376-34.49-9.376-34.49s-4.992 27.837-2.723 32.98c2.27 5.143-3.327-9.53-21.33-13.617-.303 21.033 20.12 30.866 20.12 30.866s5.75 5.294 11.648 2.416z" stroke="#000" stroke-width=".621" fill="#00F"/><path d="M563.232 179.514s-7.861 6.661-6.05 15.739m-5.897-16.645s-1.816 6.502 2.117 15.73m-3.328 2.122s3.631-5.897 11.497 1.662" stroke="#000" stroke-width=".621"/><path d="M551.587 155.612c0-.151-11.95 0-4.84 12.106-5.296 1.661-17.095-6.049-8.926-16.343-26.776-.604-37.668-13.457-37.668-25.261 7.867 8.171 26.625 4.84 33.281 9.833-8.169-7.56-6.505-18.004-6.505-18.004s22.843 6.812 26.927 27.081c-1.361 3.935-1.966 10.89-2.27 10.588z" stroke="#000" stroke-width=".621" fill="#FFF"/><path d="M533.21 135.422c4.41 4.483 15.736 5.827 21.485 10.818" stroke="#000" stroke-width=".621"/><path d="M538.426 148.657s9.377-1.208 12.095 2.114c-3.67 0-4.893-.906-10.192 1.065 1.494-.763 1.087-2.122 1.902-2.122.816 0-3.397-1.057-3.805-1.057z" stroke="#CCC" stroke-width=".589" fill="#CCCCCD"/><path d="M585.17 75.286s5.143-4.539 10.74-.454c-2.528 7.557-11.646 4.69-11.646 4.69s.302 3.782-.604 5.597c1.82 1.373 3.323 5.9 3.323 5.9s9.38-2.27 11.35 1.816c3.594-.496 6.2 0 6.2 0s7.266-1.816 9.834-1.816c2.575 0 10.738 2.118 11.493 3.63.764 1.513 3.482 11.65 5.302 11.498 1.813-.151-4.387 2.42-6.057-.151-1.661-2.573-1.208 3.328-1.208 3.328s5.143 5.445 5.747 6.655c.604 1.208-3.171 11.041-.302 17.853-2.52.23-2.718 2.87-2.718 2.87-.144 2.996-3.935 3.783-3.935 3.783l-.906-4.085-2.576 1.518 1.058-3.18s3.481-8.473 3.783-11.191c.302-2.727-3.18-7.568-5.898-7.568-2.726 0-4.69 8.625-4.69 8.625s-1.359 6.502-.906 7.106c.453.604-1.82-2.114-1.82-2.114s-1.208 3.934-2.114 5.142c-.907 1.209-2.878 1.662-2.878 1.662s-1.36-3.935-.906-5.445c.453-1.51 7.416-7.408 6.812-11.645-.612-4.237 0-3.18-.159-3.33-.151-.152-3.625-3.177-3.776-4.84-.15-1.665-4.538 2.117-10.285.906-1.765 3.075-1.972 10.737-1.972 10.737s-.604 9.229.604 10.294c1.217 1.057-3.02 3.323-3.02 3.323l-3.029 4.085s-1.057-2.567-1.057-2.416c0 .151-2.122 1.51-2.122 1.51l1.216-3.028c-.08-2.29 2.941-8.545 2.941-13.84 0-5.293.382-10.967.382-10.967s-5.596-.303-5.445 5.443c.15 5.755-1.36 6.057-1.057 7.719.302 1.661 1.812 6.35 1.359 7.718-.453 1.36-2.266 1.812-2.266 1.812l-.453.756s-5.596 2.575-5.445 3.632c.151 1.057-.15-3.028-.15-3.028l-.31-4.388s3.33-2.114 3.33-7.408c0-5.294-.763-6.05-.612-7.258.15-1.216.914-5.604.763-6.057-.151-.454-3.172 1.21-4.086 1.21-.906 0 1.67-3.176 1.972-5.446.302-2.269-3.029 2.118-5.747-.453 1.263-2.794 3.171-3.631 3.473-5.749.302-2.118-2.114 1.816-4.237.303.175-2.03 2.274-3.782 2.274-3.782s-1.725-.212-2.425 0c-1.359-.454 1.519-2.572 1.67-5.598.15-3.025-1.67-4.236-1.67-4.387 0-.15-3.02-2.723-3.473-3.782-.453-1.058-.453-2.27-.453-2.27s-5 3.632-10.898-4.083c5.405-4.613 11.2-1.21 11.2-1.21s1.51-4.237 8.465-3.934c6.963.303 8.323 4.236 8.02 3.782z" stroke="#000" stroke-width=".621" fill="#923F00"/><path d="M623.23 153.537c.119 0 12.845.382 12.972 7.186.127 6.796-3.903 5.04-4.03 5.04-.127 0-9.324-1.137-9.324-1.137l.381-11.089z" stroke="#000" stroke-width=".621" fill="#00F"/><path d="M610.877 151.646s15.874-.12 14.991 6.804c-.882 6.931-4.912 5.548-4.912 5.548l-7.686-.636-2.393-11.716z" stroke="#000" stroke-width=".621" fill="#FFFEFF"/><path d="M601.935 150.89l9.196.756s5.54.755 5.294 6.049c-.254 5.293-5.675 5.42-5.675 5.42l-8.943-.508.128-11.717z" stroke="#000" stroke-width=".621" fill="#00F"/><path d="M580.393 153.537c-.127 0-12.853.382-12.98 7.186-.12 6.796 3.91 5.04 4.038 5.04.127 0 9.324-1.137 9.324-1.137l-.382-11.089z" stroke="#000" stroke-width=".621" fill="#FFF"/><path d="M592.738 151.646s-15.874-.12-14.992 6.804c.883 6.931 4.913 5.548 4.913 5.548l7.686-.636 2.393-11.716z" stroke="#000" stroke-width=".621" fill="#00F"/><path d="M601.688 150.89l-9.197.756s-5.548.755-5.293 6.049c.254 5.293 5.667 5.42 5.667 5.42l8.942-.508-.119-11.717z" stroke="#000" stroke-width=".621" fill="#FFF"/><path d="M626.314 227.382s6.613-9.746 9.403-8.704c2.432.81.58 8.354-.58 9.053l-8.823-.35zm-45.332 1.74c-2.083-2.9-5.104-10.905-7.886-8.703-2.44.81-.58 8.354.58 9.053l7.306-.35z" stroke="#000" stroke-width=".621" fill="#5E0043"/><path d="M585.361 209.847s12.885 7.94 17.114 8.147c4.229.207 17.63-10.31 17.63-10.31" stroke="#000" stroke-width=".621"/><path stroke="#000" stroke-width=".621" fill="#5E0043" d="M586.601 178.72l2.472-3.093 12.377 6.288 12.575-5.573 2.472 2.584-14.022 9.896-15.874-10.103z"/><path d="M576.777 178.552c1.001 1.264 8.998 10.985 10.444 19.03 1.44 8.044-.826-11.033-.826-11.033s9.896 4.848 10.206 7.94c.31 3.093 4.73-.206 4.944-.739l-28.655-18.608 3.887 3.41zm48.893-.556s-10.413 13.711-9.173 28.655c-2.146-7.154-.414-18.966-.414-18.966l-2.265 1.447s-2.369 10.103-5.365 11.645c-.501-1.2-.406-1.645-.406-1.645s-3.195 4.117-3.815 4.53c-.62.414.206 13.919.206 13.919s1.074 9.793 2.306 9.69c-1.407.683-3.132 1.756-3.132 1.756l-1.28-26.136 2.925-2.94s3.919-4.738 4.229-9.38c-1.701 1.446-3.609 1.86-3.609 1.86s-.516 6.597-2.059 7.52c-1.55.93-1.59 2.654-1.59 2.654l-.365-8.624 23.807-15.985z" stroke="#474747" stroke-width=".776" fill="#474747" stroke-linejoin="round"/><path d="M601.855 193.87l2.02 41.23" stroke="#000" stroke-width=".776" stroke-linecap="round"/><path d="M576.498 213.559s4.738 2.79 6.495 11.24c15.46-1.137 20.309 4.331 20.309 4.331s12.678-6.08 18.56-4.952c2.059-4.324 7.933-9.896 7.933-9.896" stroke="#000" stroke-width=".621"/><path d="M570.028 173.147l31.827 20.826 28.663-19.276s5.978-3.299 5.461-5.667c-.508-2.377-2.575-1.447-3.608-1.034-1.026.414-30 20.93-30 20.93l-30.825-19.491s-2.265-.715-2.678.723c-.414 1.447.85 2.266 1.16 2.989z" stroke="#000" stroke-width=".621" fill="#B4B6B9"/><path d="M626.95 167.742s-8.148-3.458-8.148-.461c0 2.989.23 3.299 1.542 5.222 1.304 1.916-1.002 3.148-1.002 3.148s-.31-.843-.77-2.154c-.462-1.304-4.841-2.226-5.223-3.76-.381-1.542.922-3.998-1.693-4.3-2.607-.31-5.143 1.073-5.683 4.07-.54 2.996-3.92 9.983-3.92 9.983l.462-15.897c5.739.405 16.39 1.66 24.585 2.607-2.456-.382.923.159.851 1.001-.23.692-1.081.763-1.002.54zm-28.815-3.998c-1.455 0-8.76.842-10.604 1.923-1.844 1.073 2.997 2.758 2.385 4.221-.612 1.463-.692 4.38-2.997 3.768-2.305-.62-10.063-4.46-10.293-5.763-.23-1.304-1.845-1.383-1.845-1.383s22.281-2.997 23.354-2.766z" stroke="#474747" stroke-width=".776" fill="#474747" stroke-linejoin="round"/><path d="M601.648 161.915l-.055 19.539m-14.992-42.558s-8.926 14.49-9.101 14.935" stroke="#000" stroke-width=".621"/><path d="M123.047 101.538s3.887 5.302 3.442 6.804c1.59 1.24 3.363 6.192 3.363 6.192" stroke="#000" stroke-width=".621" fill="url(#d)" transform="translate(480 37)"/><path d="M618.07 137.656s-8.393 11.843-8.131 12.726" stroke="#000" stroke-width=".621"/><path d="M575.07 81.305c-.19.662-1.266.933-2.401.606-1.135-.328-1.9-1.13-1.71-1.792.191-.662 1.266-.933 2.402-.606 1.135.328 1.9 1.13 1.71 1.792zm3.373-.233c.191.662 1.266.933 2.402.605 1.135-.327 1.9-1.13 1.71-1.792-.192-.662-1.267-.933-2.402-.605-1.135.327-1.9 1.13-1.71 1.792z" fill="#000"/><path d="M676.725 326.44s-3.116.588-3.013.874c.096.294-9.053.588-9.244.294-.199-.294-1.367 1.558-1.367 1.558l1.462-.874s2.234 2.329 2.917 2.138c.684-.19-.294.874-.095 1.073.19.19.874-.39.874-.39l15.119-.254-6.653-4.42z" stroke="#000" stroke-width=".621" fill="#FF7000" stroke-linejoin="round"/><path d="M682.36 331.145l-12.352.358s-3.108 2.822-3.307 3.498c-.19.683 2.043.874 2.043.874l.684 2.337 1.558-.58s10.5 1.558 20.142-.589c4.865-1.7 5.715-3.744 2.305-4.984-3.402-1.24-10.977-.866-11.072-.914z" stroke="#000" stroke-width=".776" fill="#FF7000" stroke-linejoin="round"/><path d="M160.065 319.486l22.233-.993-4.142-3.514 60.133-2.424-2.075-4.777-67.326 2.702 8.1 3.784-18.187.54.54 1.892-4.769-.183s5.31 2.067 5.493 2.973z" stroke="#000" stroke-width=".621" fill="url(#e)" transform="translate(480 37)"/><path d="M184.992 196.67c-1.772-.883-9.538-1.94-18.194 3.711l.357 19.96s12.71-6.892 18.895-5.302c-.358-6.184-.358-14.125-1.058-18.37z" stroke="#000" stroke-width=".621" fill="url(#f)" transform="translate(480 37)"/><path d="M542.06 294.263l-52.428 52.049m75.794-51.668l-42.552 56.04m40.652-70.665l-56.798 68.765m-1.71-.954l5.509-6.455m63.825-26.787l-22.035 30.396m-.95 3.991l.57 11.58m32.478-35.332l-23.361 29.26m19.188-2.281l9.5-15.58m-5.891-3.036l-11.399 12.916m7.981-25.07l-7.79 9.49m-2.281-23.361s-23.744 34.76-23.364 37.614m20.892-42.168c-.564.373-20.512 26.78-20.512 26.78m-1.14 8.353l-3.61 4.372m-4.558 6.653l-5.509 7.218" stroke="#000" stroke-width=".621"/><path d="M539.466 214.258s-1.61 5.056 0 7.583c1.608 2.528 11.719 22.98 11.719 22.98s6.896-8.505 9.424-8.735c2.527-.223 1.375 22.066 1.375 22.066s-4.133 3.902-6.661 3.672c-2.53-.23 6.2 8.736 5.97 16.319-.231 7.583-11.487 45.268-15.623 45.952-4.136.691 1.838-6.892 1.609-8.959-.23-2.066-1.38-.691-2.298-2.988-.92-2.297 1.379-5.747.919-8.044-.46-2.298-2.528-1.837-2.758-3.442-.23-1.614 1.38-2.067 1.15-3.911-.23-1.836-2.758-1.375-2.528-2.989.23-1.606.46-.914.23-3.903-.23-2.988-.69 2.067-3.217 2.297-2.528.231-4.596 5.978-4.596 5.978s-5.056 7.122-10.111 3.903c2.987 6.438.69 9.197-.46 9.42-1.148.23.92 5.055-1.838 5.285-2.758.23 2.068 10.803-1.149 11.725 3.447 1.605.69 3.672.69 3.672s-7.965.668-6.205 11.033c-23.438-8.275-34.928-22.52-34.698-36.994.23-14.483 4.826-27.574 16.085-32.4 3.217-11.954 8.732-24.823 8.732-24.823s-.919-5.286-.23-8.728c.69-3.45 3.907-6.892 3.907-6.892s-.46-8.274-.23-12.408c.23-4.141 1.838-5.977 2.068-8.274.23-2.298-.69-14.022 1.609-16.089 2.298-2.066 6.663-1.836 8.961-3.211 2.298-1.383 5.285-3.91 8.273-3.68 2.987.23 5.514 2.297 5.514 2.297s11.26 0 11.95 4.364c.69 4.372-2.298 5.977-2.298 5.977s1.609 6.208-5.285 11.947z" stroke="#2B2B2B" stroke-width=".621" fill="#8A9396"/><path d="M529.469 198.338c.36.666-.461 1.809-1.835 2.553-1.374.743-2.78.806-3.14.14-.361-.666.46-1.809 1.834-2.553 1.374-.743 2.78-.806 3.14-.14z" stroke="#2B2B2B" stroke-width=".621" fill="#CECFCF"/><path d="M527.561 199.499c0 .42-.382.76-.854.76-.471 0-.854-.34-.854-.76s.383-.76.854-.76c.472 0 .854.34.854.76z" fill="#000"/><path d="M544.362 207.104s2.791 12.464-.546 21.065m1.404-26.518s5.446 7.202 4.743 16.16m-4.215-17.741c.175 0 4.566 3.863 4.39 6.494m-3.336-8.076s2.986 2.106 3.688 4.213" stroke="#2B2B2B" stroke-width=".5"/><path d="M545.396 197.256s-10.714 17.392-9.308 28.282" stroke="#000" stroke-width=".621"/><path d="M546.099 196.731s-14.228 8.434-16.862 36.008" stroke="#2B2B2B" stroke-width=".5"/><path d="M544.518 201.826l-5.62 4.213" stroke="#000" stroke-width=".621"/><path d="M523.968 234.321s7.903-32.844 21.955-37.59" stroke="#2B2B2B" stroke-width=".5"/><path d="M551.368 245.386s7.556-9.483 9.312-9.133c1.757.35 1.224 21.954 1.224 21.954s-5.62 4.213-6.843 4.038c-1.233-.175 6.319 10.19 6.144 14.054-.175 3.863-.35 3.863-.35 3.863s0-2.282-1.756-5.97c-1.757-3.688-.708-7.909-12.122-17.217-2.81-5.795 5.621 3.513 7.376 2.107 1.757-1.4-3.16-13.521-2.985-13.696z" stroke="#2B2B2B" stroke-width=".621" fill="#2B2B2B"/><path d="M537.941 191.97s-3.175.866-3.608 2.162c-.433 1.303-2.309 2.6-3.32 2.162-1.01-.43-2.886-2.019-2.886-2.019" stroke="#2B2B2B" stroke-width=".621"/><path d="M519.9 203.082s-4.763 4.762-2.453 5.342c2.309.572 4.763-3.752 4.763-3.752s0 7.36 2.02 6.2c2.02-1.153 7.938-5.334 7.938-5.334s2.02-.15 2.454 0c.433.143 5.484 4.468 8.804 2.886-1.876 4.904-4.041 5.484-4.041 5.484s-3.464 4.476-7.938 3.458c-4.474-1.01-5.63-2.885-5.63-2.885s-3.752.294-4.907-1.439c-1.154-1.733-1.587-2.742-1.587-2.742s-2.165 2.162-2.743 1.152c-.577-1.01 0-6.931 3.32-8.37z" stroke="#2B2B2B" stroke-width=".776" fill="#2B2B2B" stroke-linejoin="round"/><path d="M546.89 196.445s-8.804-2.6-11.835 1.733c-3.03 4.324-2.31 6.78-.722 7.21" stroke="#2B2B2B" stroke-width=".621"/><path d="M548.248 196.199c0 1.038-.743 1.88-1.66 1.88-.916 0-1.66-.842-1.66-1.88 0-1.038.744-1.88 1.66-1.88.917 0 1.66.842 1.66 1.88z" fill="#000"/><path d="M522.625 218.662s3.59 5.524 7.87 7.043c4.281 1.518-2.968 2.83-7.249-.064-3.106-4.213-2.278-7.25-2.278-7.25s.828-.834 1.657.27zm30.723 32.59s-10.08-14.014-12.98-14.777c-2.9-.755 2.209-1.375 5.316 1.59 3.107 2.965-.828-4.833-.828-4.833l8.492 18.02z" stroke="#2B2B2B" stroke-width=".621" fill="#2B2B2B"/><path d="M521.659 332.234c3.865-1.033 20.711 9.666 24.508 12.36 3.798 2.687 11.74.963 11.74.963s-3.665 2.21-5.94 2.766c-2.278.548 6.766.548 6.766.548s-21.54 5.938-43.426-5.588c-2.002-8.974 4.695-10.977 6.352-11.049z" stroke="#2B2B2B" stroke-width=".776" fill="#2B2B2B" stroke-linejoin="round"/><path d="M546.306 254.702s-2.83-.549-4.28-2.21c-1.45-1.653-3.522-5.731-5.662-7.456-2.14-1.725-12.841-7.591-16.707-7.178-3.867.414-5.04-.413-5.524-.898-.483-.485-2.07.207-1.795 2.21.277 2.003-2.969 6.422-1.795 8.49 1.174 2.074 6.697 10.492 7.802 10.77 1.104.278.414 4.904.414 4.904s4.901 4.968 6.145 5.246c1.242.279 2.484 1.177 2.347 2.345-.138 1.177-5.385 7.6-5.385 7.6s-5.662 2.964-5.73 4.625c-.07 1.654 1.38 5.104 5.868 6.209 4.487 1.104 16.57.206 17.19-.827.622-1.034 1.588-7.25 1.174-7.87-.414-.62-3.383-2.487-4.902-2.21-1.518.279-2.899 1.519-2.761 1.797.138.278-2.14 1.447-2.14.342s4.487-6.073 4.9-5.66c.416.414 6.767 1.034 7.941 4.213 1.173 3.172 1.173 5.453 4.487 5.111 3.314-.35 7.939-3.386 8.352-9.737.413-6.351-3.726-10.635-4.761-11.255-1.036-.62-4.488-2.695-4.764-3.657-.277-.97-.967-4.141-.414-4.904z" stroke="#2B2B2B" stroke-width=".621" fill="#2B2B2B"/><path d="M486.586 282.737s10.702-2.766 13.463-2.694c2.762.063 13.187 4.896 16.225 7.869 3.037 2.965 9.25 10.007 13.324 9.387 4.073-.62 5.247-1.446 5.247-1.446l-1.588 3.036s-3.314.898-4.97.485c-1.658-.413-4.902-1.455-8.147-4.626-3.245-3.18-13.256-11.74-21.747-11.12-8.493.627-13.394 8.982-13.394 8.982s.07-4.078.414-4.976c.345-.899-1.795 1.931-1.795 1.931l2.968-6.828z" stroke="#2B2B2B" stroke-width=".621" fill="#2B2B2B"/><path d="M526.008 291.02c.069.063 2.693.755 7.11.755 4.42 0 6.767-1.932 6.767-1.932l-.276-1.725.69-2.416s3.383 3.45 3.314 4.141c-.07.692-1.381.97-1.381.97l-.483-1.661-1.174 1.454s-6.42 5.104-9.941 4.348c-3.521-.763-6.766-3.036-5.869-3.592.898-.549 1.381-.342 1.243-.342zm-15.603 9.046s-3.866-.072-5.592.755c-1.726.826-2.347 1.868-3.521 1.725-1.174-.136-2.071-1.654-1.726-2.274.483-.97 2.761-2.21 7.111-1.868 4.35.35 3.728 1.662 3.728 1.662zm13.532 10.492c0-.207-.277-5.66-2.416-7.87-2.141-2.21-4.764-2.21-5.938-1.939-1.173.278 4.35 2.695 4.902 4.285.552 1.59 2.347 6.009 1.864 7.114-.483 1.097-1.38-3.108-4.764-4.285-3.383-1.176-8.077-.548-7.11.97.966 1.518 4.763.135 6.696 3.378 1.933 3.243 3.383 6.701 3.383 6.701l.622-2.353 1.725-.477.207-4.49.829-1.034z" stroke="#2B2B2B" stroke-width=".621" fill="#2B2B2B"/><path d="M521.176 328.228l-3.522-7.043s-1.105-4.483-4.073-5.73c-2.969-1.24-6.904-1.034-6.973.484-.07 1.519 6.352 3.45 6.766 4.285.414.826.207 2.21-.345 2.273-.553.072-3.383-1.033-4.833-.691-1.45.35-2.278 2.21-4.419 1.66-2.14-.556-3.935-7.384-3.106-8.075.828-.692-1.588 1.24-2.072-.557-.483-1.796.691-7.384-.138-8.076-.828-.691-4.832-3.108-4.901-3.592-.07-.477.207-27.471 22.783-5.104-9.666-11.462-13.463-10.222-15.258-10.285-1.312 0-10.08.755-12.289 11.939-2.21 11.184-4.833 4.213-4.833 4.213s-.483 4.833 1.864 6.216c2.348 1.375-1.105 5.381-1.105 5.381s-4.21-10.286-3.59-14.777c-.828 3.593-.759 12.496 4.557 22.233 6.214 6.558 12.082 12.639 27.685 19.467 8.216-12.56 7.802-14.078 7.802-14.22z" stroke="#2B2B2B" stroke-width=".776" fill="#2B2B2B" stroke-linejoin="round"/><path d="M506.401 328.3s4.556.548 5.799 2.901c1.243 2.345 1.795 5.938 1.795 5.938.76-1.518 1.105-2.83 2.624-3.935 1.519-1.105 2.623-1.248 2.554-2.075-.069-.826-4.833-5.866-7.249-6.144-2.416-.278-6.628 2.623-6.628 2.623s-.759 1.105 1.105.692z" stroke="#2B2B2B" stroke-width=".776" fill="#8A9396" stroke-linejoin="round"/><g stroke-width=".621"><path d="M516.809 340.175s11.808 5.382 31.257 5.731" stroke="#8A9396"/><path d="M556.229 285.36s-1.01 9.912-8.633 29.466m7.114-23.369s-2.288 7.114-8.639 12.448" stroke="#2B2B2B"/></g></g></svg>