<svg width="800" height="480" xmlns="http://www.w3.org/2000/svg"><defs><radialGradient cx="16.16%" cy="47.837%" fx="16.16%" fy="47.837%" r="87.701%" gradientTransform="matrix(.89623 0 0 1 .017 0)" id="a"><stop stop-color="#F9F0AA" offset="20%"/><stop stop-color="#B07E09" offset="100%"/></radialGradient><radialGradient cx="30.34%" cy="77.403%" fx="30.34%" fy="77.403%" r="101.649%" gradientTransform="matrix(.93372 0 0 1 .02 0)" id="b"><stop stop-color="#F9F0AA" offset="20%"/><stop stop-color="#B07E09" offset="100%"/></radialGradient><radialGradient cx="35.922%" cy="77.049%" fx="35.922%" fy="77.049%" r="160.656%" gradientTransform="matrix(.59223 0 0 1 .146 0)" id="c"><stop stop-color="#F9F0AA" offset="20%"/><stop stop-color="#B07E09" offset="100%"/></radialGradient><radialGradient cx="51.977%" cy="49.697%" fx="51.977%" fy="49.697%" r="105.455%" gradientTransform="matrix(.9322 0 0 1 .035 0)" id="d"><stop stop-color="#F9F0AA" offset="20%"/><stop stop-color="#B07E09" offset="100%"/></radialGradient><linearGradient x1="49.783%" y1="57.349%" x2="47.561%" y2="-24.928%" id="e"><stop stop-color="#B07E09" stop-opacity="0" offset="20%"/><stop stop-color="#B07E09" offset="100%"/></linearGradient><linearGradient x1="48.439%" y1="35.736%" x2="52.201%" y2="125.526%" id="f"><stop stop-color="#B07E09" stop-opacity="0" offset="20%"/><stop stop-color="#B07E09" offset="100%"/></linearGradient><radialGradient cx="23.918%" cy="75.2%" fx="23.918%" fy="75.2%" r="104%" gradientTransform="matrix(.93237 0 0 1 .016 0)" id="g"><stop stop-color="#F9F0AA" offset="20%"/><stop stop-color="#B07E09" offset="100%"/></radialGradient><linearGradient x1="41.837%" y1="68.421%" x2="81.633%" y2="-25.263%" id="h"><stop stop-color="#F9F0AA" offset="20%"/><stop stop-color="#B07E09" offset="100%"/></linearGradient><linearGradient x1="47.992%" y1="-12.953%" x2="52.809%" y2="192.473%" id="i"><stop stop-color="#F9F0AA" offset="20%"/><stop stop-color="#B07E09" offset="100%"/></linearGradient><radialGradient cx="25.395%" cy="-20.558%" fx="25.395%" fy="-20.558%" r="1.504%" gradientTransform="matrix(.82205 0 0 1 .045 0)" id="j"><stop stop-color="#A50A0A" offset="30%"/><stop stop-color="#4C0505" offset="100%"/></radialGradient><radialGradient cx="47.489%" cy="38.94%" fx="47.489%" fy="38.94%" r="48.853%" id="k"><stop stop-color="#FFF" offset="0%"/><stop stop-color="#FFF" stop-opacity="0" offset="100%"/></radialGradient></defs><g fill="none" fill-rule="evenodd"><path fill="#4997D0" d="M0 0h800v480H0z"/><path fill="#FFF" d="M266.687 0H533.5v480H266.687z"/><g transform="translate(330 180)"><g stroke-width=".5"><path d="M52.067 111.67c1.8-.267 2.8-.8 4-1.2m1.533-2.668a8.667 8.667 0 0 1 2 3.067m-5.4-3.4c.82.814 1.496 1.761 2 2.8m-33-91.067c-.667 1.067-2.067 1.8-3.2 2.267m-.2-.134c0-.933-.2-2 0-2.933m-1.333 3.333l.466 1.334m1.334.666l-1.334.2m-2.666-.6c0 1.734.266 3.734.4 5.267m-1.2-.667a4 4 0 0 0 1.066 1.267m-3.066 4.267c.333.666.666 1.466.866 2.666M16.8 33.07l-1.333 1m1.133 2.933c-.667.6-1.467 1-2.333 1.4m-2.534 26.934A10.667 10.667 0 0 0 14.4 68.47m.4 1.133a5.333 5.333 0 0 1-2-.666m2.933 5.666l1.134.667m-.267 2.267c.8.533 1.667 1.533 2.467 2.6m-.934 1.866c.934.2 1.667.467 2.134.667m-.667 1.667h1.333m.867-3.534l-.333 2.8m.666 1.067l.267-1.067m3.133 4l-.066 2.134M51.6 108.403l-.8 1m-1.6-2.667l-.466-1.134" stroke="#24420E"/><g stroke="#24420E"><path d="M74.734 116.67c-.534-.867-1.334-1.4-2.2-1.8-5.134-2.667-10.267-3.934-16-4.867-1.4-.2-2.734-1.467-4.134-2.134-3.333-1.533-7-2.133-10.2-3.8a5.2 5.2 0 0 1-1.333-1c-1.333-1.467-3.667-1.933-5.067-3.333-5.6-5.2-11.467-10-14.533-17-3.734-8.467-8.334-17.2-7.734-26.867.4-6-.466-12.2 1-18 2.267-8.6 5.067-17.067 10.267-24.2l-.867.533a69.067 69.067 0 0 0-10.266 24.2c-1.534 5.8-.667 12-1 18-.667 9.667 4 18.4 7.666 26.867 3.067 6.933 9 11.8 14.534 17.067 1.467 1.333 3.733 1.8 5.067 3.333.4.388.848.724 1.333 1 3.267 1.6 6.933 2.2 10.267 3.8 1.333.667 2.666 1.867 4 2.067a50.934 50.934 0 0 1 16.133 4.867c.875.371 1.634.97 2.2 1.733l.867-.533" fill="#406325"/><g fill="#67923D" fill-rule="nonzero"><path d="M21.533 81.069a31.267 31.267 0 0 1-.133-15.667c4.467 8.667 3 15.8.133 15.667zm30.6 30.267c-4.733.267-13.733 6.2-14.6 7.6 10.067.067 16-4.867 14.6-7.6zm5-2.867A40 40 0 0 1 47.8 90.802c10 7.2 12.6 16.2 9.334 17.667z"/><path d="M53.734 108.536a36.734 36.734 0 0 1-10.667-15.2c10.2 5.466 13.533 13.466 10.667 15.2zm-10.4-4.534c.666-5.2-3.734-16.133-5-17.333-2 11 2 18.4 5.066 17.333h-.066zm-18.2-16.2a28 28 0 0 1 .333-14c3.666 7.8 2.2 14.134-.334 14zM16 36.67a34 34 0 0 1 14-10.667C25.533 35.735 18 39.27 16 36.67z"/><path d="M16.467 32.869a34.467 34.467 0 0 1 11.6-13.334c-2.467 10.467-9.134 15.467-11.6 13.334zm18.6 66.133c-3.334-4.133-5.334-15.933-4.867-17.6 7.467 8.334 8 16.8 4.8 17.6h.067zM15.933 74.67c-4.666.733-14.266-3.067-15.333-4.2 9.733-2.133 16.267 1.333 15.333 4.2zm-1.466-6.467C15 64.536 20.2 57.67 21.333 57.136c-.666 8-4.933 12.4-6.866 11.066zm34.2 39.134a38.067 38.067 0 0 0-17.4 9.067c12 .066 19.133-5.8 17.4-9.067z"/></g><g fill="#406325"><path d="M21.6 81.002c2.8.134 4.267-6.933-.2-15.6.84 5.162.908 10.42.2 15.6zm7.467 13.334A32.533 32.533 0 0 0 14.6 86.869c5.933 8.067 13.267 10.067 14.467 7.467zM12.8 59.002a38 38 0 0 0-9.867-16c1 11.467 7.067 17.8 9.867 16zm5.6 22.867c-3.333-2.467-12.667-3.6-14-3.133 6.8 5.466 13.467 5.6 14 3.133zm-6.267-16.6A28 28 0 0 0 .867 56.136c3.666 8.266 9.733 11.333 11.266 9.133zm1.8-31.667c.667-5.067-3.666-15.6-4.866-16.8-1.934 10.667 1.933 17.8 4.866 16.8zm3-10a32 32 0 0 0-.333-16.2c-4.267 9-2.533 16.4.333 16.267v-.067z" fill-rule="nonzero"/><path d="M20.267 18.535A26.8 26.8 0 0 0 22.6 5.602c-4.8 6.467-4.667 12.6-2.333 12.933zm4-4.066a25.933 25.933 0 0 0 6-11.6c-6.467 4.666-8.134 10.533-6 11.6zM13.6 43.269c0 .6-.667-5.467-6.733-12.2.266 9.866 4.133 13.6 6.666 12.2h.067zm21.667 57.2a35.4 35.4 0 0 0-17.2-4c8.4 6.933 16.6 7.067 17.2 4zm8 3.467c-3 1.066-6.933-6.267-5-17.267a66 66 0 0 0 5 17.333v-.066zm8.933 7.467c1.334 2.666-4.533 7.6-14.533 7.533 8-3.333 14.133-6.6 14.467-7.533h.066zm4.867-3c3.333-1.534.733-10.334-9.333-17.6 5.733 8.8 9.666 16.4 9.333 17.6z" fill-rule="nonzero"/><path d="M53.734 108.47c2.8-1.8-.467-9.668-10.667-15.134 6.333 7.466 10.8 14 10.667 15.133zM25.2 87.801c2.467.134 4-6.2.333-14 .467 7.334.267 13.334-.333 14zm-9.2-51.2c2 2.667 9.333-.867 13.933-10.6A60.4 60.4 0 0 1 16 36.67v-.067z" fill-rule="nonzero"/><path d="M16.6 32.869c2.4 2.133 9-2.867 11.467-13.334-5.334 7.534-10.4 13.2-11.467 13.334zm18.467 66.067c3.133-.734 2.667-9.2-4.867-17.534 3.334 9 5.334 16.534 4.867 17.534zM15.8 74.669c.933-2.867-5.533-6.267-15.2-4.2 8.2 1.467 14.667 3.333 15.2 4.2zm-1.333-6.467c2 1.334 6.2-3.066 6.933-11.066a45.867 45.867 0 0 1-6.867 11.066h-.066zm34.2 39.134c1.733 3.333-5.333 9.133-17.334 9 9.467-3.867 16.867-7.8 17.334-9z" fill-rule="nonzero"/><path d="M16.933 77.536A30.067 30.067 0 0 0 5.6 67.002c3.333 9.067 9.467 12.734 11.333 10.534z"/></g><g fill="#67923D" fill-rule="nonzero"><path d="M12.267 42.669c2.666-3.134 11.666-6.134 13.066-6-5.333 7-12 8.4-13.066 6zm16.666 51.667c-1.133 2.666-8.4.666-14.4-7.4A56.534 56.534 0 0 0 29 94.336h-.067zm-16.2-35.334c-2.8 1.8-8.733-4.533-9.8-16 4.4 8.867 8.667 15.667 9.8 16zm5.6 22.867c-.466 2.467-7.133 2.4-13.866-3.133a49.734 49.734 0 0 0 13.866 3.133zm-6.266-16.667c-1.6 2.2-7.534-.8-11.2-9.066 5.466 5.333 10.333 9.133 11.2 9.066zm1.8-31.667c-2.934 1.067-6.734-6-4.867-16.666 1.8 9 4 16.133 4.867 16.666zm3-9.933c-2.867.2-4.6-7.2-.334-16.2-.533 8.533-.333 15.467.334 16.2zm3.333-5.067c-2.267-.4-2.467-6.466 2.4-12.933a44.134 44.134 0 0 0-2.4 12.933zm4-4.066c-2.067-1.134-.467-6.934 6-11.6a44.134 44.134 0 0 0-6 11.6z"/><path d="M13.533 43.269c-2.6 1.4-6.4-2.334-6.666-12.2 3.333 7.8 5.733 11.867 6.666 12.2zm21.667 57.2c-.6 3.067-8.733 2.933-17.133-3.933 8.8 2.866 16.2 4.466 17.133 3.933zm-5.467-6.333a27.333 27.333 0 0 1-4.4-12.8c6 5.8 6.8 12.066 4.534 12.8h-.134zm-11.2-16.667a29.533 29.533 0 0 1-2-15.333c5.534 7.933 4.867 15.133 2 15.333zm-1.8.067c-1.8 2.2-7.933-1.4-11.2-10.534a51.867 51.867 0 0 0 11.2 10.534z"/></g><g fill="#406325"><path d="M12.267 42.669c1.066 2.4 7.6 1 13-5.934-8 4.534-11.134 6.534-13 5.934zm6.2 34.667c2.866-.2 3.533-7.334-2-15.2a48.534 48.534 0 0 1 2 15.266v-.066zm11.333 16.8c2.267-.667 1.467-7-4.467-12.8 2.934 6.466 4.8 12 4.467 12.8z" fill-rule="nonzero"/><path d="M13.467 54.536A27.333 27.333 0 0 0 10.6 37.469c-3.133 10.267-.133 17.733 2.867 17.067z"/></g><path d="M13.333 55.869c-4 .867-5.8-8-2.733-18.067.667 9 1.867 17.4 2.667 18l.066.067z" fill="#67923D"/><path d="M12.467 55.802a35.334 35.334 0 0 1 6-16.467c1.333 10.534-3 17.534-6 16.467z" fill="#67923D"/><path d="M12.533 55.736c2.934 1.066 7.267-5.867 5.934-16.4-2.334 8.866-5 15.866-5.934 16.4z" fill="#406325"/><path d="M13.4 62.202a33.333 33.333 0 0 1 7.067-15.8c.533 10.8-4.2 17.267-7.067 15.8z" fill="#67923D"/><path d="M13.467 62.269c2.8 1.467 7.533-4.867 7-15.667-2.934 8.534-6 15.267-7 15.667z" fill="#406325"/></g><g transform="translate(11.333 20.002)" fill="#BA1F3E" stroke="#511124"><circle cx="3.867" cy="7.533" r="1"/><circle cx="9.467" cy="3.4" r="1"/><circle cx="7.067" cy="1.133" r="1"/><circle cx="1" cy="48.734" r="1"/><circle cx="2.667" cy="38.067" r="1"/><circle cx="11.467" cy="63" r="1"/><circle cx="7.6" cy="64.267" r="1"/><circle cx="37.134" cy="85.067" r="1"/><circle cx="39.067" cy="89.8" r="1"/></g></g><g stroke-width=".5"><path d="M124.734 32.669c.467.4.8.533 1.533 1.266m-4.4-12.666c0-.867-.4-2.4-.6-3.334m2.334 2c0 1.334-.2 2.534-.734 3.667m-2.8-.333c1.2 1.066 2.334 2 3.534 2.6m2.533.8a11.749 11.749 0 0 1-.467 4m.267 1l.867-1.534m-1.267 8.134c.933.2 1.867 1.333 2.333 2.333m.334-.867l1.066-1.466m1.134 20.533c-.467.8-1.002 1.56-1.6 2.267m-2.667 0c.533.933 1.067 2 1.733 2.667m1.667 3.933a8.8 8.8 0 0 1-3 2.667m.133 3c-.733.533-1.666 2-2.466 3.133m5.6-13.467l-1.4.6m-.934-5l.867.734m-6.2 24.933h-1.467m-1.333-1.2l.467 1.067m-5.2 3.4c-.134 1.266 0 2.466.133 3.733m2.867-6l.666 1.467m2.6-.134l-1.666.334m-20.6 16.8l-.667 1.2m8-2.667c-1 .133-1.867 0-2.733-.133m-3.667 4a18.2 18.2 0 0 0-2-.667m-9.734 1.8c-.666.467-1.333 1.6-2.066 2.667m-.4-3c-1.6.866-2.067 2.467-2.934 3.867m1.867 1.933a34.934 34.934 0 0 1-3.533-1.333m11.133-.534c-1.533-.8-3.133-.666-4.733-.933m7.2-.267c-2.467-.466-4.667-.4-6.867-.066m5.2-1.734l-.933-.4M88 111.136l-1.533-.867m38.667-32.8c-.867.533-1.733 1.533-2.533 2.6m1.2-53.067l-1.4-.533" stroke="#24420E"/><g stroke="#24420E"><path d="M66.934 116.603a5.333 5.333 0 0 1 2.2-1.8c5.133-2.667 10.266-3.867 16-4.8 1.4-.267 2.733-1.534 4.133-2.134 3.333-1.6 7-2.2 10.2-3.8.5-.28.95-.64 1.334-1.067 1.333-1.466 3.666-1.933 5.066-3.333 5.6-5.2 11.467-10 14.534-17 3.733-8.467 8.333-17.2 7.733-26.8-.4-6.133.467-12.267-1-18a69.867 69.867 0 0 0-10.267-24.267l.867.533A69.2 69.2 0 0 1 128 38.335c1.533 5.8.666 12 1 18.067.666 9.6-4 18.334-7.667 26.867-3.067 6.933-9 11.733-14.533 17-1.467 1.333-3.734 1.8-5.067 3.333a6.666 6.666 0 0 1-1.333 1c-3.267 1.667-6.934 2.267-10.267 3.8-1.334.667-2.667 1.867-4 2.134a50.934 50.934 0 0 0-16.134 4.8 5.333 5.333 0 0 0-2.2 1.8l-.866-.6" fill="#406325"/><g fill="#406325"><path d="M119.734 83.069c1.867-4.933 0-16.533-.933-18-4.467 10.267-2.267 18.4.933 18z"/><path d="M115 87.736c1.534-3.734.4-12.867-.266-14-3.733 7.8-2.2 14.2.267 14zm11.2-49.4a31.333 31.333 0 0 0-12.8-9.734c4.134 8.867 11 12.133 12.8 9.733z" fill-rule="nonzero"/><path d="M125.2 33.002a28.867 28.867 0 0 0-9.666-11.133c2 8.666 7.6 12.866 9.667 11.133zm3.134 10c-2.333-2.733-10.133-5.333-11.333-5.2 4.666 6 10.4 7.267 11.333 5.134v.066zm-1.867 30.867a26.667 26.667 0 0 0 13.534-3.8c-8.6-1.867-14.334 1.267-13.534 3.8zm-.066-3.8c0-3.733-4.267-11.2-5.334-12-.4 8 3.2 13 5.334 12z" fill-rule="nonzero"/><path d="M126.667 60.936a33.333 33.333 0 0 0-7.066-15.734c-.534 10.8 4.2 17.2 7.066 15.734zm-35.333 50.2a31.8 31.8 0 0 0 14.8 7.333c-5.867-8.2-13.4-10.066-14.734-7.333h-.066z" fill-rule="nonzero"/></g><g fill="#67923D" fill-rule="nonzero"><path d="M119.734 82.936c-3.267.4-5.4-7.6-.933-17.867-.334 9.467.133 17.133.933 17.867zm-35.6 29.133a32 32 0 0 1 14.533 7.6c-10 .067-16-4.866-14.533-7.6zm0-5.333c1.333-5.334 10-14.134 11.666-14.734-2.4 11.4-9.133 17-11.666 14.8v-.066zm14.2-2.8c-.667-5.2 3.733-16.134 5-17.334 2 11-2 18.4-5 17.334zm14.267-9.667a32.533 32.533 0 0 1 14.466-7.467c-5.933 8.067-13.266 10.067-14.466 7.467zm17.2-35.533c.666-4.2 6.466-11.934 7.733-12.6-.8 9.066-5.533 14-7.733 12.666v-.066z"/><path d="M122 84.136a33.6 33.6 0 0 1 16.267-3.667c-7.866 6.467-15.666 6.533-16.266 3.667zm6.867-16.334a29.333 29.333 0 0 1 11.8-9.6c-3.866 8.667-10.2 11.867-11.8 9.6zm-1-30.4c0-5.067 5.334-15.133 6.667-16.133.733 10.733-3.8 17.466-6.667 16.133zm-4.666-17.333a27.067 27.067 0 0 1 0-13.334c3.666 7.334 2.466 13.467 0 13.334zm-2.734-1.4a33.2 33.2 0 0 1-7-14.734c7.867 6.2 9.6 13.6 6.934 14.734h.066z"/><path d="M128.2 41.669c-.2.6 2-5.134 9.467-10.2-2.666 9.533-7.333 12.2-9.466 10.2zm-22.733 60c4.667-3.467 17.667-5.133 19.467-4.533-9.467 7.866-18.8 8-19.467 4.466v.067zm9.534-13.933c-2.467.133-4-6.2-.334-14-.466 7.333-.266 13.333.334 14zm11.266-49.334c-1.8 2.333-8.666-.867-12.8-9.8a52.534 52.534 0 0 0 12.8 9.733v.067zm-1.133-5.4c-2.067 1.733-7.533-2.4-9.6-11.133 4.467 6.266 8.667 11 9.6 11.133zm3.2 10c-.933 2.134-6.6.867-11.267-5.133 6.934 3.933 9.667 5.667 11.334 5.133h-.067zm-1.733 30.8c-.867-2.466 4.866-5.533 13.466-3.666a46 46 0 0 0-13.466 3.666zm-.267-3.733c-2.133 1-5.667-3.933-5.333-11.933a45.667 45.667 0 0 0 5.333 12v-.067z"/><path d="M126.6 61.069c-2.8 1.467-7.533-4.933-7-15.667 2.934 8.534 6 15.267 7 15.667zm-35.133 50c1.333-2.666 8.734-.866 14.667 7.334a53.534 53.534 0 0 0-14.667-7.334z"/></g><g fill="#406325"><path d="M98.334 103.87c3.067 1.066 7-6.268 5.067-17.268-1.867 9.334-4.134 16.734-5.067 17.334v-.067z"/><path d="M105.2 100.402a36.667 36.667 0 0 0 3.067-18c-6.666 9.067-6.266 17.534-3.066 18zm-21.133 11.6c-1.333 2.734 4.467 7.667 14.533 7.534a53.467 53.467 0 0 1-14.533-7.533zm.133-5.333c2.534 2.2 9.2-3.333 11.6-14.733-5.4 8.266-10.466 14.533-11.6 14.666v.067zm28.467-12.467c1.2 2.667 8.467.667 14.467-7.4a56.334 56.334 0 0 1-14.467 7.4zm17.2-35.533c2.2 1.4 6.867-3.533 7.667-12.533a49.734 49.734 0 0 1-7.667 12.533zm-7.866 25.467c.6 2.933 8.266 2.8 16.2-3.667-8.334 2.667-15.334 4.133-16.2 3.667zm6.866-16.4c1.667 2.266 7.934-.934 11.8-9.6a50.067 50.067 0 0 1-11.8 9.6zm-.866-30.4c2.866 1.333 7.333-5.334 6.666-16-2.8 8.666-5.666 15.533-6.666 16zm-4.667-17.267c2.4.066 3.667-6 0-13.334.6 7 .533 12.734 0 13.334zm-2.8-1.467c2.667-1.133.933-8.467-6.933-14.667a54.534 54.534 0 0 1 6.933 14.667zm7.733 23.134c2.134 2 6.8-.667 9.467-10.267-5.2 6.733-8.467 10.133-9.467 10.267zm-22.666 59.933c.666 3.467 9.933 3.333 19.333-4.467-9.933 3.2-18.267 5.067-19.333 4.467z" fill-rule="nonzero"/><path d="M110.067 96.536a27.333 27.333 0 0 0 2.4-13.4c-5 6.666-4.8 13-2.4 13.333v.067zm13.067-19.134a29.533 29.533 0 0 0 2-15.333c-5.533 7.933-4.867 15.133-2 15.333z" fill-rule="nonzero"/></g><path d="M105.2 100.336c-3.2-.4-3.533-8.867 3-17.867-2.4 9.2-3.6 16.933-3 17.867zm23.467-45.534c-.666-5.133 2.667-13.4 4.4-15 1.667 9.6-1.8 16-4.466 15h.066zM110.001 96.47c-2.4-.333-2.6-6.667 2.333-13.333A45 45 0 0 0 110 96.469zm15.6-69.467c-1.467-4 0-13.333.8-14.533 3.533 8.133 1.733 14.733-.8 14.533zM86.867 107.07c1.667-5.333 10.8-14 12.533-14.6-2.866 11.6-10 17-12.533 14.667v-.067zm36.334-27.733a30.067 30.067 0 0 1 11.333-10.534c-3.333 9.067-9.533 12.734-11.333 10.534zm-.067-2c-2.867-.267-3.533-7.334 2-15.267a48.534 48.534 0 0 0-2 15.267z" fill="#67923D" fill-rule="nonzero"/><path d="M128.667 56.002c3.467 1.267 6-6.533 4.4-15.933a65.467 65.467 0 0 1-4.4 16v-.067z" fill="#406325"/><path d="M129.2 55.736c.334-5-4.666-15.334-6-16.467-1.333 10.533 3 17.533 6 16.467zm-3.466-28.8c2.533.266 4.267-6.267.733-14.467a48.667 48.667 0 0 1-.8 14.466h.067zM87 107.001c2.534 2.4 9.6-2.933 12.467-14.533-5.867 8.2-11.333 14.4-12.467 14.533zm36.4-27.666c1.867 2.2 8-1.4 11.334-10.534a51.867 51.867 0 0 1-11.333 10.534z" fill="#406325" fill-rule="nonzero"/><path d="M129.134 55.669c-3 1.133-7.267-5.8-5.933-16.334 2.333 8.8 5 15.8 5.933 16.334z" fill="#67923D"/></g><g transform="translate(87.334 25.335)" fill="#BA1F3E" stroke="#511124"><circle cx="39.734" cy="4.6" r="1"/><circle cx="42.267" cy="12.533" r="1"/><circle cx="43.2" cy="37.534" r="1"/><circle cx="39.734" cy="32.867" r="1"/><circle cx="29.933" cy="59.467" r="1"/><circle cx="34.134" cy="61.267" r="1"/><circle cx="5.867" cy="82.867" r="1"/><circle cx="1.2" cy="86.2" r="1"/><circle cx="34.667" cy=".867" r="1"/></g></g><g transform="translate(18.667 6.669)"><path d="M21.533 77.534c-.133.666.534 1.533 1.334 1.333.333 0 .466-.333.133-.333-.267.066-.6 0-.8-.2A1.133 1.133 0 0 1 21.933 77l-.4.534z" stroke="#485654" stroke-width=".5" fill="#8C959D"/><path d="M23.467 78.867c-.667.8-1.667 1.133-2.267.6-.4-.4-.533-.8-.333-1.333L20.2 79c.237.492.607.907 1.067 1.2.8.334 2-.2 2.666-1.066.534-.667 1.067-1.6.667-2.4a2.667 2.667 0 0 0-1.333-1.134l-.667.667c.333-.133.8 0 1.133.267.867.666.334 1.666-.266 2.333z" fill="#8C959D"/><path d="M23.467 78.867c-.2.266-.45.492-.734.667-.333.133-.666.266-1 .2a1 1 0 0 1-.466-.2 1.6 1.6 0 0 1-.334-.4 1.067 1.067 0 0 1-.2-.467c0-.2 0-.333.134-.533l.066.066-.733.8c.2.267.4.6.667.8l.466.334c.172.058.353.08.534.066a2 2 0 0 0 1.066-.333 3.4 3.4 0 0 0 .867-.667l.667-.933c.133-.333.2-.667.2-1.067a1.2 1.2 0 0 0-.134-.533 2 2 0 0 0-.333-.4 2.8 2.8 0 0 0-.933-.667h.066l-.666.734H22.6c.133-.134.333-.134.533-.134.506.081.92.444 1.067.934.067.333 0 .666-.133.933a3.4 3.4 0 0 1-.6.8zm0 0c.266-.2.4-.467.533-.8.133-.267.2-.667.133-.933a1.333 1.333 0 0 0-.6-.667c-.266-.2-.666-.267-.866-.133H22.6l.667-.8A2.8 2.8 0 0 1 24.6 76.6c.133.2.2.4.2.667 0 .333-.067.667-.267 1.067-.179.34-.403.653-.666.933-.2.333-.534.533-.867.733-.333.2-.667.334-1.133.334a1.49 1.49 0 0 1-.534-.067 1.8 1.8 0 0 1-.533-.333c-.274-.27-.5-.586-.667-.934l.667-.866h.133l-.066.533c0 .133 0 .333.133.467l.333.333.4.2c.334.067.667 0 1-.2.279-.155.527-.358.734-.6z" fill="#485654" fill-rule="nonzero"/><path d="M75.467 19.533L48.734 45.867 21.334 72l-3.067 3.6c-1.334 1.534-2.934 3.534-4.8 5.334-.267.4-.734.266-1.134.533A15.6 15.6 0 0 0 9 84.334l-8.2 9c-.467.6-.667.933-.267 1.333l4.4 5.867c.8.8 1.734 1.2 2.134.533 2.066-3.667 7.333-9.2 9.333-13.533 1.133-2.667 2.6-7.4 3.667-8.534 1.333-1.466 4.733-5.2 7.866-8.466l.667-.667.6-.667c15.667-16 33.8-35.4 47-49.067l-.666-.666-.067.066z" stroke="#351710" stroke-width=".5" fill="#6C301E" stroke-linejoin="round"/><path d="M19.933 72.067c-.8 0-1.333-.467-1.933-.933.8.266 1.6.533 2.333.266l-.4.667z" stroke="#485654" stroke-width=".5" fill="#8C959D"/><path d="M103.334.067l-21.2 17.466c-.2.267-.4.2-.6 0l-1.934-1.6v-.4l.934-.933c.133-.133 0-.2-.067-.4l-.4-.4c-.2-.067-.333 0-.467.133l-.933 1c-.467 0-.867.4-.933.934-12.8 12.466-23.867 23.6-36.6 35.867l-15.067 14.4c-.534.666-2.867 1.933-4.4 2.933a3.733 3.733 0 0 0-1.2 1l-1.2 3.667-1.667 2.8c1.533 1.6 1.467 1.466 2.533 2.466l7.467-7.933.533-.667a8.8 8.8 0 0 0-.933-1.066c-.261-.229-.528-.45-.8-.667l-.4-.4c-.133-.133.133-.333.267-.467 17.667-17 36.667-35.8 52.2-51.067a.933.933 0 0 0 .667 0L81 18.867c.4.4.8.4 1.134.266L103.4.067h-.067z" stroke="#485654" stroke-width=".5" fill="#B2B6BA"/><path d="M19.333 73.6h.334a1 1 0 0 0 .4-.066c.312-1.074.645-2.14 1-3.2a1 1 0 0 0-.467-.267c.2 0 .333.133.467.267l-.467 1.6-.467 1.6a.933.933 0 0 1-.4.133 1.933 1.933 0 0 1-.466-.067h.066z" fill="#485654"/><circle stroke="#485654" stroke-width=".5" cx="24.133" cy="72.067" r="1"/><circle stroke="#485654" stroke-width=".5" cx="21.6" cy="74.6" r="1"/><path d="M26 68.267l-.667-.533a7.733 7.733 0 0 1-.533-.534 7.6 7.6 0 0 1 1.2 1.067z" fill="#485654"/><path stroke="#485654" stroke-width=".5" fill="#8C959D" d="M66.8 26l2.334 2.333.4-.4-2.334-2.266-.4.4z"/></g><g fill-rule="nonzero" stroke="#24420E" stroke-width=".5"><path d="M40 103.602a37.267 37.267 0 0 0-19.533.6c10.866 5.334 19.667 3.067 19.467-.666l.066.066zm59.334 2.2a36.667 36.667 0 0 1 19.467.667c-10.867 5.267-19.734 3-19.534-.667h.067z" fill="#67923D"/><path d="M39.867 103.67c.2 3.666-8.534 5.933-19.4.6 10.2.666 18.533.266 19.333-.668l.067.067zm59.533 2.2c-.2 3.666 8.534 5.933 19.334.6-10.133.666-18.467.266-19.334-.668v.067z" fill="#406325"/></g><path d="M89.667 100.002A158.334 158.334 0 0 0 38.934 54.67c2.4-.133 7.666 2.6 9.8 4 15.933 10.267 29.533 23.8 43.733 39.867a23.4 23.4 0 0 1-2.267 2l-.533-.534z" stroke="#485654" stroke-width=".5" fill="#B2B6BA"/><path d="M91.067 99.87l-1.067.8C74.667 80.935 53.267 62.068 38.867 54.601c20.067 9.267 36.933 27.867 52 45.134H91l.067.133z" fill="#8C959D"/><path d="M91.067 99.87l-1.067.8a201.534 201.534 0 0 0-11.266-13.134 224.001 224.001 0 0 0-12.2-12.2 189.468 189.468 0 0 0-13.2-11.2 130.6 130.6 0 0 0-7.067-5.067c-2.4-1.533-4.867-3.067-7.4-4.4v-.133a90.667 90.667 0 0 1 15 8.866A140.6 140.6 0 0 1 67.2 74.47a240.001 240.001 0 0 1 12.2 12.333c4 4.267 7.734 8.667 11.6 12.934l.067.133zm0 0A599.536 599.536 0 0 0 79.4 86.935a240.135 240.135 0 0 0-12.2-12.334 141.334 141.334 0 0 0-13.333-11.066 89.8 89.8 0 0 0-14.933-8.8v-.134A133.934 133.934 0 0 1 53.4 64.136a189.893 189.893 0 0 1 13.267 11.2 224.001 224.001 0 0 1 12.2 12.2 201.534 201.534 0 0 1 11.2 13.2l1-.934v.067z" fill="#485654" fill-rule="nonzero"/><g fill="#FAB81C" stroke="#6C301E" stroke-width=".5"><path d="M95.667 96.67a12.2 12.2 0 0 0-3.533 1.532c-.134.934-1.334 2-2.4 2.2l-.334-.533a.067.067 0 1 0-.133 0 4.8 4.8 0 0 0-.4.2c-.4 0-.867.133-1.067.667-.266.666.267 1.533.8 2.066.667.467.934.667 1.6.667.734-.2 1.134-.867 1.334-1.067 2.466 3 4.333 4.667 7.466 7.067 1.4 0 2.134-.866 1.667-1.867-.133-.333-.533-.533-.867-.4v-.333c1.6-1.467 2.334-3.333.6-6.6-1.466-2.667-3.133-3.533-4.666-3.533l-.067-.067zm4.2 3.066l.667 1.333c1 2 .133 4.4-1.6 5.2H98.8c.267-.467-.533-1.467-.933-1.133.2-.467-.467-1.334-1-1.134.267-.466-.333-1.266-.933-1 .266-.466-.2-1.2-.867-1.066.2-.6-.267-1.2-.867-1.067 0-.533-.133-.8-.333-1 .667-.533 1.533-1.4 2.267-1.8 1.8-.8 2.933.667 3.666 1.667h.067z" fill-rule="nonzero"/><path d="M100.6 101.87c-.333-.2-.533-.534-.4-.734.134-.267.467-.334.8-.134.334.134.534.467.4.667-.066.267-.466.333-.8.2z"/><path d="M100.4 101.202c-.333-.2-.533-.533-.4-.8.134-.2.467-.266.8-.066.334.133.534.466.4.666-.066.267-.466.334-.8.2z"/><path d="M100 100.402c-.333-.133-.533-.466-.4-.666.134-.267.467-.334.8-.2.334.2.534.533.4.733-.066.267-.466.333-.8.133z"/><path d="M99.467 99.736c-.333-.2-.533-.534-.4-.734.133-.2.467-.266.8-.133.334.2.534.533.467.733-.133.2-.534.334-.867.134z"/><path d="M98.8 99.07c-.4-.134-.533-.534-.4-.668v-.133c.134.067.467.133.4-.067 0-.133-.066-.2 0-.133l.4.133c.334.2.534.534.4.734-.133.266-.466.333-.8.133z"/></g><path d="M91.534 102.402c.4-1.2 1.333-2.266 2.333-2.533m-2.2 2.667c.867.2 2.2-.8 2.533-1.667m-1.733 2.667c1.067.266 2.2-.8 2.667-1.6m-1.667 2.666c1.333 0 2.067-.866 2.467-1.6m-1.467 2.667c1.067 0 2.133-.933 2.4-1.667m-1.467 2.534a2.667 2.667 0 0 0 2.467-1.334m-1.333 2.267c1.066.067 2-.6 2.266-1.2m-1.066 2.2c1.066 0 1.8-.667 2.066-1.333" fill="#FAB81C" fill-rule="nonzero"/><path d="M91.534 102.402c.19-.56.484-1.08.866-1.533l.667-.667.8-.333a2.667 2.667 0 0 0-.8.4l-.667.667a6.2 6.2 0 0 0-.866 1.466zm.133.2c.267 0 .533 0 .8-.133a3.25 3.25 0 0 0 .667-.4l.666-.533.4-.667c-.064.257-.203.49-.4.667-.194.229-.418.43-.666.6-.208.138-.432.25-.667.333a1.4 1.4 0 0 1-.8.133zm.8.934h.8l.667-.4c.454-.32.84-.728 1.133-1.2a3.133 3.133 0 0 1-.467.666 3.467 3.467 0 0 1-.6.6 2.467 2.467 0 0 1-.666.334h-.867zm1 1.066a2.8 2.8 0 0 0 .733-.133 2.51 2.51 0 0 0 .667-.333c.246-.147.47-.326.667-.534l.4-.666a3 3 0 0 1-1 1.266 2.26 2.26 0 0 1-1.467.4zm1 1a2.733 2.733 0 0 0 1.4-.533 3.4 3.4 0 0 0 1-1.067c-.067.2-.2.467-.4.667l-.533.467a2.8 2.8 0 0 1-.667.333c-.267.133-.533.133-.8.133zm1 .934c.225-.028.448-.073.667-.134.232-.062.455-.151.666-.266a2.4 2.4 0 0 0 1.067-1l-.4.666c-.2.134-.4.334-.667.4a3 3 0 0 1-1.333.334zm1.067.933h.666c.237-.08.462-.191.667-.333l.533-.334c.2-.2.334-.333.4-.533a1.662 1.662 0 0 1-.333.533 2.4 2.4 0 0 1-.6.4c-.41.213-.873.305-1.333.267zm1.2 1c.224.006.448-.016.666-.066a2.2 2.2 0 0 0 1.067-.667 2.61 2.61 0 0 0 .333-.534 2 2 0 0 1-.8 1 2 2 0 0 1-.666.2 2 2 0 0 1-.667 0l.067.067z" fill="#6C301E" fill-rule="nonzero"/><g fill-rule="nonzero" stroke="#24420E" stroke-width=".5"><path d="M23.467 20.002a34.934 34.934 0 0 0 13-11.933c-10.4 2.8-15.134 9.6-13 12v-.067zm97.2 3.133a33.333 33.333 0 0 0-10.4-13.266c1.867 10.133 8 15.2 10.4 13.333v-.067z" fill="#406325"/><path d="M23.467 20.002C21.267 17.67 26 10.935 36.4 8.135c-7.333 5.6-12.8 10.8-12.933 11.867zm97.2 3.133c-2.466 2-8.466-3.066-10.333-13.133 4.8 7.333 9.333 13 10.333 13.133z" fill="#67923D"/></g><path d="M8.133 52.734S4 53.2 2.867 47.534c-1.2-6.067 3.533-6.667 3.533-6.667s5.4-.6 8.8-.667l1.467 12-8.534.534z" stroke="#999270" stroke-width=".5" fill="url(#a)" transform="translate(44 19.335)"/><path d="M8.667 50.934S6 51.4 5.467 47.2c-.4-3 1.466-3.4 1.466-3.4l6.134 1.067v5.467l-4.4.6z" stroke="#999270" stroke-width=".5" fill="url(#b)" transform="translate(44 19.335)"/><path d="M6.933 43.8s3.934-.266 6-.533l.867 3.8-4.733.267s-.334-3.4-2.134-3.534z" stroke="#999270" stroke-width=".5" fill="url(#c)" transform="translate(44 19.335)"/><path d="M6.133 40.934s5-1.267 5.667 4.333c.133 1.4-.667 4.733-3.133 5.667l9.266-1-.866-10L14 40.2s-6.667.2-7.867.667v.067z" stroke="#999270" stroke-width=".5" fill="url(#d)" transform="translate(44 19.335)"/><path d="M52.134 72.069s34.6-2.333 38.133-2.2c10.534-5.733 0-28.333-8.867-41 1-2.867-19.933-9.267-29.333-8.667-1.267 0-2.4.133-3.467.2-5.133.533-5.2 7.133-3.133 11.333 2 4 20.2 36.667 7.467 40.2l-.8.134z" stroke="#999270" stroke-width=".5" fill="#F9F0AA"/><path d="M45.2 22.867a98.867 98.867 0 0 0-7.8-13.334C38.4 6.667 17.467.267 8.067.867c-1.267 0-2.4.133-3.467.2C-.533 1.6-.6 8.2 1.467 12.4c.666 1.2 2.866 5.333 5.266 10.467" stroke="#999270" stroke-width=".5" fill="url(#e)" transform="translate(44 19.335)"/><path d="M10 30.667c3.733 9.733 5.8 20-1.067 21.867l-.8.2s34.667-2.334 38.134-2.2c5.733-3.134 5.2-11.2 2.133-20" stroke="#999270" stroke-width=".5" fill="url(#f)" transform="translate(44 19.335)"/><path d="M4.933 3C2.467 3 1.8 5.4 1.867 6.867c.066 4 3.066 4.133 3.066 4.133l4-.2L10.8 2.667 4.933 3z" stroke="#999270" stroke-width=".5" fill="url(#g)" transform="translate(44 19.335)"/><path d="M4.933 3l5.867-.333.667 6.066-5.2.267s1.666-4.867-1.334-6z" stroke="#999270" stroke-width=".5" fill="url(#h)" transform="translate(44 19.335)"/><path d="M37.4 9.533c4.467-.666 4.4-6.666 1.334-9.133C28.4.067 14.8.333 5 1.067c1.133 0 4.2.266 4.6 4.333a5.467 5.467 0 0 1-2 4.667C6.267 11 4.933 11 4.933 11h2.4l2-.267c14-1.8 28-1.2 28-1.2h.067z" stroke="#999270" stroke-width=".5" fill="url(#i)" transform="translate(44 19.335)"/><path d="M56.334 38.269c-.134-.2-.2-.467-.534-.534-.133 0-.4 0-.333-.266H56l1.067-.134c.267.067.2.4 0 .334-.333 0-.133.333-.067.533l.867 2c.067.267.267.467.467.467l.733-.067c.2-.133.133-.4.133-.667-.066-.2.334-.133.334 0l.266.934c0 .133-.133.066-.266.066l-2 .134c-.2 0-.534.2-.667 0 0-.267.4-.134.4-.334l-.2-.666-.733-1.8zm3.2-.2c-.067-.2-.2-.467-.467-.534-.133 0-.4 0-.4-.266h.467l1.133-.134c.2 0 .267.334 0 .267-.2 0-.2.267-.133.467l1 2.266c0 .134.133.334.333.4.2 0 .467 0 .467.2 0 .134-.267.067-.4.067a4.4 4.4 0 0 0-1.067.133c-.133 0-.333 0-.333-.2s.333 0 .4-.266c0-.2-.134-.4-.267-.667l-.733-1.733zm3 .466c0 .134.266 0 .333 0 .2 0 .4-.066.4-.266a1.133 1.133 0 0 0-.467-.8c-.2-.2-.533-.134-.733-.134l.067.334.4.866zm.4 1.067c.133.2.2.467.4.667.133.133.4.066.533 0 .2 0 .333-.2.267-.334-.067-.466-.334-.866-.8-1a1.6 1.6 0 0 0-.667 0l.133.334.134.333zm-1.334-1.6c-.133-.2-.2-.467-.466-.667-.134 0-.4.067-.467-.133 0-.2.4-.067.533-.133.6 0 1.134-.2 1.734 0 .466.133.933.533 1 1.066 0 .267-.2.467-.4.534l.333.066c.4.134.733.4.933.734.134.266.2.666 0 .933-.266.267-.666.267-.933.267-.533 0-1 0-1.533.133-.134 0-.267-.333 0-.333.2 0 .2-.267.133-.4l-.867-2v-.067zm4.934-1.267c.2 0 .266.2.333.334l.2.6c-.2.133-.333-.134-.4-.267s-.267-.333-.467-.267a5.533 5.533 0 0 0-.8 0c-.133.134 0 .267.067.4l.4.867c.133 0 .4 0 .533-.133 0-.134-.2-.467.134-.4.2.133.133.4.266.6l.334.733c-.2.2-.334-.067-.4-.267-.134-.2-.467-.2-.667-.2-.133 0 0 .134 0 .2l.4 1c.133.2.467.2.667.2.266 0 .533 0 .666-.266.134-.134-.2-.467 0-.534.267 0 .267.267.334.4 0 .2.133.4.2.534 0 .133-.2.133-.267.133l-2 .133c-.267 0-.6.134-.667-.133 0-.2.4-.067.4-.4l-.266-.667-.734-1.733c-.133-.2-.266-.4-.533-.467-.133 0-.4 0-.267-.266h.667l1.867-.134zm1.533.867c-.067-.2-.2-.467-.467-.6-.133 0-.466 0-.466-.267.2-.133.466 0 .666 0 .534 0 1.067-.2 1.6 0 .534.134 1 .6 1.067 1.2 0 .267-.2.467-.467.534-.2 0 .134.066.2.133.467.2.667.6.934 1 .066.133.333.467.4.133 0-.333.466 0 .333.2 0 .267-.2.4-.467.4-.266 0-.6-.133-.733-.4-.267-.4-.467-.866-.867-1.133-.133-.133-.333-.2-.533-.067v.267l.4.8c.133.2.4.2.667.2.2.067.133.4-.134.333h-1.133c-.2.134-.6 0-.467-.2.2 0 .467-.133.334-.333l-.667-1.733-.2-.467zm.933.667c.134.2.4 0 .6 0 .2 0 .2-.334.134-.467-.067-.333-.267-.667-.6-.8-.134 0-.534-.133-.6.067L69 38.135v.134zm4.8 1.066c.134.2.2.4.4.467.134 0 .4 0 .467.2 0 .2-.267.067-.4.133a4.667 4.667 0 0 0-1.067 0c-.2.067-.4 0-.4-.2.134-.133.467 0 .467-.266l-.333-.734-.734-1.933c-.066-.2-.333-.2-.466-.2-.2 0-.467 0-.467.267 0 .2.133.466 0 .533-.2 0-.267-.2-.333-.333l-.2-.667c0-.133.2-.067.266-.067l2.8-.133c.2 0 .334.133.334.333s.2.4.266.667c-.066.2-.333 0-.333-.2-.133-.2-.4-.4-.667-.467-.133 0-.4 0-.533.134l.133.466.8 2zm2.534-.6c-.134 0-.067.2-.067.267v.533c.067.2.333.2.533.267.134 0 .067.333-.133.267h-.8c-.2.066-.467-.067-.333-.267a.367.367 0 0 0 .333-.2V36.27c.133-.2.4 0 .4.066l2.4 3.067c.133.133.333.267.533.267s.267.333 0 .266h-1c-.133 0-.333.134-.466 0-.134-.066 0-.266.133-.266.2 0 0-.267-.067-.4l-.4-.534h-1.066zm.733-.333c.133 0 0-.067 0-.133l-.867-1.134v1.334h.867v-.067zm2.067-1.2c-.067-.267-.2-.667-.534-.667-.2 0-.466-.133-.333-.333H79.4c.467 0 .934 0 1.334.133a2.867 2.867 0 0 1 2 2.267c0 .4-.067.867-.4 1.067-.534.333-1.134.266-1.667.2l-.933.066c-.2 0-.267-.333 0-.266.266 0 .266-.334.133-.467l-.733-2zm1.333 1.667c.067.2.133.466.333.666h.667c.333 0 .467-.333.467-.6a2.867 2.867 0 0 0-.4-1.4 1.8 1.8 0 0 0-1.2-.933h-.667c-.067 0 0 .133 0 .267l.8 2zM66.4 47.136c0 .2.267.4.534.4.133 0 .466 0 .466.266-.133.134-.333 0-.533 0a5.71 5.71 0 0 0-1 .134h-.6c-.133 0-.133-.267.067-.267s.4-.067.466-.267c0-.2-.133-.4-.2-.533l-.8-1.867c0-.2-.266-.2-.466-.2-.134 0-.4.067-.467-.133 0-.2.333-.133.467-.267l.666-.2c.134 0 .2.067.267.2L66.4 47.07v.067zm.467-3H68.2c.267 0 .134-.334.267-.334.267 0 .267.334.267.467a.333.333 0 0 1-.4.4h-1l.333.8.4-.133c.738-.019 1.417.4 1.733 1.066.134.267.2.667 0 1-.266.334-.666.4-1.066.4-.334 0-.667-.066-.934-.4-.066-.133-.066-.466.134-.4.266 0 .466.134.466.4.067.134.334.067.467.067.2 0 .4-.133.4-.4s-.133-.667-.333-.867c-.134-.266-.467-.466-.8-.466l-.6.066c-.2 0-.2-.2-.267-.333-.173-.416-.33-.838-.467-1.267 0 0 .067-.133.134-.066h-.067zm4.6.666c-.133-.266-.267-.6-.6-.666-.133 0-.467-.134-.267-.267h1.067a2 2 0 0 1 1.4.067 2.867 2.867 0 0 1 2 2.266c0 .4-.067.8-.467 1-.466.334-1.066.267-1.6.267l-.866.133c-.2 0-.267-.333 0-.333.266 0 .2-.267.133-.467l-.8-2zm1.333 1.6c.134.267.2.534.4.667s.4.067.667 0c.267 0 .4-.333.4-.6a2.667 2.667 0 0 0-.467-1.4 1.733 1.733 0 0 0-1.2-.867 2 2 0 0 0-.666 0v.2l.866 2zm4.267-2.8c.2 0 .267.2.333.334 0 .2.134.333.2.533-.133.2-.333 0-.4-.2-.066-.133-.2-.333-.4-.333a6.467 6.467 0 0 0-.866 0c-.134.133 0 .333 0 .4l.4.933c.2 0 .4 0 .533-.133.133-.134-.133-.467.133-.4.267 0 .2.333.267.533l.333.733c-.066.267-.333 0-.4-.2-.066-.2-.333-.2-.533-.2-.133 0-.267 0-.133.134l.4 1c.133.266.466.2.666.2.267 0 .534 0 .667-.2.133-.134-.133-.4 0-.534.267 0 .333.2.333.334l.2.666c0 .067-.2 0-.266 0l-2.067.134c-.2 0-.467.133-.6 0-.133-.334.333-.2.4-.4l-.2-.6-.733-1.934c-.134-.2-.267-.4-.534-.466-.133 0-.4 0-.266-.267h.666l1.867-.067zm-18.133 9.534c.066.333.4.466.666.533.534.133 1.134.333 1.467.733.2.267.333.6.333.934 0 .333-.333.6-.666.666a1.667 1.667 0 0 1-1.134-.066c-.133-.067-.066.266-.266.133-.2-.067-.134-.333-.267-.533a6 6 0 0 0-.2-.667c0-.2.267 0 .333.133.2.4.6.667 1.067.734.267 0 .533-.134.533-.4 0-.334-.266-.667-.533-.8-.467-.2-.933-.267-1.333-.534a1.333 1.333 0 0 1-.667-1.066c0-.267.267-.534.533-.6.347-.113.72-.113 1.067 0 .133 0 .2-.2.4-.067 0 .133 0 .267.133.4l.2.6c-.133.133-.333 0-.333-.133-.2-.267-.4-.534-.667-.534-.266 0-.533 0-.666.2v.334zm4.4-1.134c.266 0 .266.2.333.334 0 .2.133.4.2.533-.133.2-.333 0-.4-.133-.067-.134-.2-.334-.467-.334h-.8c-.133.134 0 .267 0 .4l.334.934c.2 0 .4 0 .533-.134.133-.133-.133-.4.067-.466.266 0 .266.266.333.466 0 .267.2.534.333.867-.133.2-.4 0-.4-.2-.066-.2-.333-.267-.533-.2-.133 0-.267 0-.2.133l.4 1c.067.2.267.2.467.2.266 0 .6 0 .8-.2.133-.133 0-.4 0-.533.2-.133.4 0 .4.2l.133.667c0 .133-.2.133-.267.133l-2 .133c-.266 0-.533.2-.666 0 0-.266.333-.2.4-.4 0-.2 0-.333-.134-.533l-.666-2c0-.2-.2-.4-.467-.4-.133 0-.4-.133-.267-.267h.667l1.867-.2zm2.8 2.8c.066.2.2.4.4.467.2 0 .466-.067.533.133 0 .267-.333.134-.467.134a4.2 4.2 0 0 0-1.066.066c-.134 0-.334.134-.4-.066 0-.267.333-.134.4-.267l-.067-.533-.667-2c-.133-.2-.2-.467-.466-.467-.134 0-.4 0-.334-.267.067-.133.334 0 .467 0 .467 0 .933-.2 1.467-.133.497.034.935.342 1.133.8.133.267.133.667 0 .867-.333.266-.733.333-1.133.4-.134 0 0 .133 0 .2l.2.666zm-.334-1.2h.4c.2-.066.334-.266.267-.466a1.467 1.467 0 0 0-.333-.8c-.2-.2-.534-.2-.734-.134-.133.067 0 .2 0 .334l.334 1.066h.066zm4.067 1c0 .134.133.4.333.4.134 0 .467 0 .467.2s-.333.134-.467.134a4.667 4.667 0 0 0-1.066.066c-.134 0-.334 0-.334-.2.134-.133.467 0 .467-.266l-.2-.8-.667-1.934c0-.2-.266-.2-.466-.133-.134 0-.4 0-.467.2v.533c-.133.134-.267 0-.267-.2a4.4 4.4 0 0 0-.266-.666c0-.2.2-.2.333-.2L70 51.602c.2 0 .334.134.334.334l.266.666c-.066.134-.333 0-.333-.133-.133-.2-.333-.467-.667-.533-.133 0-.333 0-.533.133l.133.4.667 2.133zm1.4-2.2c-.067-.2-.133-.466-.4-.533-.133 0-.4 0-.4-.267.067-.133.267 0 .4 0l1.2-.133c.2-.067.333.267.133.267s-.4.133-.333.333l.333 1.067.467 1.466c0 .134.2.267.333.267.2 0 .467 0 .4.267h-.466l-1.067.133c-.133 0-.333-.133-.267-.267.134-.066.4 0 .4-.266l-.2-.8-.533-1.534zm3.867-1.066c.2 0 .2.2.266.333l.134.533c-.067.2-.334 0-.334-.133-.066-.2-.2-.4-.466-.4a6.467 6.467 0 0 0-.8 0c-.134.133 0 .333 0 .4l.333.933c.133 0 .333 0 .533-.133.134-.133-.133-.4.067-.467.267 0 .267.334.267.467l.333.867c-.067.2-.333 0-.333-.134-.067-.2-.334-.266-.534-.266-.066 0-.333 0-.2.133l.334 1c.066.2.266.267.466.2.267 0 .6 0 .8-.133.134-.134 0-.4.067-.6.2-.134.333.066.333.266a6.2 6.2 0 0 0 .2.667c0 .133-.2.133-.333.133l-2 .067c-.2 0-.467.133-.667 0-.066-.267.334-.2.4-.333a.667.667 0 0 0-.066-.534l-.667-2c0-.2-.2-.466-.467-.466-.133 0-.4-.134-.266-.267h.666l1.934-.133zm1.333.666c-.067-.266-.267-.466-.533-.466-.2.066-.334-.4 0-.267h1l.466.6 1.4 1.933v-.2l.267-2.4c.133-.133.467 0 .667-.133.2 0 .666 0 .533.267-.267 0-.533.133-.4.4l.8 2.4c0 .266.267.4.533.333.2 0 .2.4 0 .333H80c-.2.067-.533.067-.4-.2.2 0 .534-.133.334-.4l-.667-2.133c.067.067 0 .2 0 .267l-.133 2-.067.533c-.2.067-.267-.067-.333-.2L76.8 52.202l.134.2c.2.667.333 1.334.6 1.934 0 .266.333.333.533.333.267.133.067.333-.133.267h-1c-.2 0-.2-.267 0-.267.333 0 .266-.333.133-.533l-.667-2.2.067.066zm5.8.534c0 .133.267 0 .333 0 .2 0 .467 0 .467-.267 0-.333-.133-.667-.333-.8-.267-.2-.534-.133-.8-.133l.066.333.267.867zm.333 1.066l.267.667c.2.133.4.067.6.067.133 0 .333-.134.267-.334 0-.4-.2-.866-.6-1a1.6 1.6 0 0 0-.667 0v.2l.133.4zm-1.266-1.6c-.067-.266-.134-.533-.4-.666-.134 0-.4 0-.4-.2s.333 0 .466-.067c.667 0 1.2-.2 1.8 0 .467.133.867.6.867 1.067 0 .266-.2.466-.467.6 0-.134.267 0 .334 0 .333.133.666.4.8.733.133.333.2.667 0 .933-.267.267-.667.267-1 .267l-1.534.067c-.2 0-.266-.334 0-.267.2 0 .267-.267.134-.467l-.6-2zm3.333-.133c0-.2-.133-.533-.4-.667-.133 0-.4 0-.4-.2.133-.2.4 0 .667-.066h1.333c.533 0 1 .4 1.133.933.134.267 0 .667-.2.8l-.333.133c.4.134.733.467.933.8l.334.534c.2.133.2-.067.2-.2.266-.134.4.2.266.4-.066.266-.466.333-.666.266-.267 0-.4-.2-.534-.4l-.666-1.133a.6.6 0 0 0-.6-.133v.333l.333.733c.067.267.333.267.533.334.267 0 .267.333 0 .266h-1.2c-.133 0-.4.134-.466 0-.134-.333.266-.2.4-.4l-.134-.533-.533-1.8zm.867.667c.066.133.4 0 .533 0 .2 0 .333-.2.267-.334 0-.333-.134-.666-.334-.866-.2-.134-.466-.134-.666-.067-.134 0-.067.2 0 .333l.2.867v.067zm4.666-1.734c.134 0 .2.2.2.334 0 .2.134.333.2.533-.133.2-.333 0-.333-.133-.133-.134-.2-.4-.467-.4a6.333 6.333 0 0 0-.866 0c-.134.066 0 .266 0 .4l.266.866h.534c.2-.133-.067-.466.133-.533.267 0 .267.267.267.467 0 .266.2.6.266.866-.066.2-.333 0-.333-.133 0-.2-.267-.333-.467-.267-.066 0-.333-.133-.266 0l.333 1.134c0 .2.267.2.467.2.266 0 .6 0 .8-.134.2-.133 0-.4.066-.533.2-.133.4 0 .334.2l.133.667c0 .133-.2.133-.267.133h-2.066c-.2 0-.4.133-.534 0-.2-.267.2-.2.267-.333.133-.134 0-.334 0-.467l-.6-2.067c0-.2-.2-.466-.4-.466s-.4-.067-.333-.267h.666l2-.067zm-21.933 8.734c-.067-.267-.133-.534-.4-.667-.2 0-.467 0-.333-.2.2-.133.4 0 .666-.067.534 0 1.067-.133 1.6 0a2.333 2.333 0 0 1 1.734 1.534c.133.533.2 1.066-.134 1.533-.333.4-.933.533-1.466.533-.467 0-.867 0-1.267.134-.133.066-.4-.067-.267-.267.2 0 .467-.133.4-.333l-.266-1-.267-1.2zm1.067 1.666c.066.2.133.467.266.6.2.134.467.067.667 0 .267 0 .533-.266.6-.6a2.667 2.667 0 0 0-.267-1.466 1.333 1.333 0 0 0-1-.8 2 2 0 0 0-.733 0c-.067 0 0 .133 0 .266l.467 2zm4.733-3c.2 0 .2.2.267.334l.133.6c-.067.133-.333 0-.333-.134-.067-.2-.2-.4-.4-.4a6.2 6.2 0 0 0-.867 0c-.133.067 0 .267 0 .4 0 .334.133.667.2.934.2 0 .4 0 .533-.134.134-.133-.066-.4.134-.466.266 0 .2.333.266.466 0 .267.2.534.2.867 0 .2-.333 0-.333-.133 0-.267-.267-.334-.467-.267-.066 0-.333-.067-.2.067 0 .333.134.666.267 1.066 0 .2.267.2.467.2.266 0 .6 0 .8-.2.133-.133 0-.4.133-.533.2-.133.267.067.267.267s0 .4.133.666l-.333.067-2 .133c-.2 0-.4.134-.6 0-.134-.133.066-.266.266-.266.2-.067.134-.334.134-.467l-.534-2.133c-.066-.2-.2-.467-.4-.467s-.4-.067-.333-.267l.667-.066 1.933-.134zm4.333 2.734c0 .2.2.4.4.4.134.066.4 0 .467.2s-.267.133-.4.133l-1.133.067c-.2 0-.4.066-.534 0-.2 0-.133-.267.067-.267s.4-.067.467-.267l-.067-.533-.467-1.867c0-.2-.266-.2-.4-.2-.133 0-.4.134-.466-.066 0-.267.333-.2.466-.267l.734-.267c.133 0 .2.067.2.2l.666 2.734zm2.467-2.2c0-.267-.2-.534-.467-.534-.2 0-.466 0-.533.2a.667.667 0 0 0 .267.667l.6.333.133-.4a.933.933 0 0 0 0-.266zm.533 2c0-.4-.333-.6-.666-.667-.134 0-.267-.2-.334-.133a.667.667 0 0 0-.266.666c.133.4.333.667.666.667.267.067.534 0 .667-.267a.667.667 0 0 0 0-.333l-.067.067zm.667-.2a.8.8 0 0 1-.4.866 1.6 1.6 0 0 1-1.333.134 1.133 1.133 0 0 1-.8-.867c0-.267.066-.667.4-.867 0 0 .266-.066.066-.133-.333-.133-.666-.4-.666-.8-.134-.333 0-.667.333-.867a1.333 1.333 0 0 1 1.733.467c.134.267.134.6 0 .8l-.4.333c.334 0 .667.267.8.534.134.066.2.266.2.4h.067zm2.133.333c.134 0 .334 0 .334-.267.066-.066 0-.4.2-.333.2 0 .133.2.2.4 0 .267 0 .533-.267.733-.133.134-.333.067-.533.067H83c-.133 0-.333.133-.466 0-.134-.133 0-.333 0-.467.133-.466.4-.8.666-1.066.267-.2.534-.4.6-.734.02-.28-.05-.56-.2-.8a.667.667 0 0 0-.933-.2c-.2.067-.267.334-.2.467.133.133.4 0 .467.267.133.133 0 .4-.2.4-.267 0-.534-.2-.667-.467a.8.8 0 0 1 .4-.933c.333-.2.733-.2 1.133-.134.334.134.667.4.8.8.067.267.067.6-.066.867-.267.467-.734.667-1.134 1.133-.066.067-.133.2-.066.4 0-.2.266-.133.333-.133h.733zm2.667-.267c0 .2.133.4.333.467.134 0 .4 0 .467.133.067.2-.2.2-.333.2h-1.8c-.134-.066 0-.333.133-.266.2 0 .4-.067.467-.267v-.533l-.467-1.867c0-.2-.2-.2-.333-.2-.2 0-.4.133-.467 0-.133-.333.2-.267.333-.333l.8-.267c.134 0 .2.067.267.2l.533 2.733h.067z" fill="#B07E09" fill-rule="nonzero"/><g stroke-width=".5"><path d="M5.2 6.267L2.667 9.333c-.8 3.467 1.2 6.134 5.133 8.4 3.133 2 9 2.467 10.867.867L9.533 9.933 5.2 6.333v-.066z" stroke="#4C0505" fill="url(#j)" transform="translate(62.667 .002)"/><path d="M86.4 96.202c-.441-.557-.886-1.113-1.333-1.666a67 67 0 0 1-21.8 19.067c10.067-2.867 16.667-10.134 23.133-17.4zm-10.4 23.8A306.668 306.668 0 0 1 88.134 98.47c-.463-.603-.93-1.203-1.4-1.8-4.867 8.133-10.667 17.8-10.667 23.334H76zm28-76.333a41.334 41.334 0 0 0-2.866-8.667 84.334 84.334 0 0 0-29.2-29.333v-.2h.2L72 5.402h.334l-.134-.2h.267l-.2-.267h.267l-.2-.2h.333l-.2-.266h.267l-.267-.2.4-.067-.333-.2.333-.067-.267-.2.4-.133-.333-.2.4-.2-.4-.267.467-.133-.467-.2.4-.267h-.533l.333-.466H72.4l.2-.334h-.4l.2-.333-.466.067.2-.4-.4.266.133-.466-.467.266.067-.466-.333.333V.335L70.8.67V.202l-.333.4V.135l-.267.4-.133-.466-.2.4-.133-.467-.2.533L69.4.002l-.2.533-.133-.466-.133.4-.067-.334-.2.467-.133-.467L68.4.67l-.2-.467-.133.533-.2-.466v.533l-.267-.4v.533l-.333-.4v.467L67 .802l.134.467-.334-.2.134.466-.267-.2.067.4h-.267l.133.267h-.2l.134.267a6 6 0 0 0-.267 2.333c0 .133.4.267.467.4.2.267.133.4.133.4-1.067 1.733-2 3.067-2.067 5.067.8-1.067 1.734-2.4 2.934-2.4-.6 1-.867 4.066-.2 4.6l.533-.934c0 .667.067 1.2.267 1.534L69 12.135c0 1 .134 1.8.4 2.2a4 4 0 0 1 1.067-1.066c-.133.6-.333 1.133-.267 1.8l1.334-1.667c-.267 1.067 0 1.867.266 3 .267-1.333.4-1.533 1-2.067.067 1.267-.133 2.4.134 3.134.533-1.134.933-1 1.333-1.734-.133 1.067-.333 2.2 0 3.134a3 3 0 0 1 1.267-1.734c0 1.467.333 1.2-.534 2.467.4.133 1.667-.267 2.4-.6-.333.8-.266 1.4-.6 2 .667-.4 1.334-1 1.934-1.6-.267.933-1 1.867-.667 2.733.2-.866.867-1.533 1.533-1.666-.133.466-.2 1.466-.866 1.933 1.6.133 2.266-.933 3.066-1.8-.066.933 0 1.6 1.067 2.867-.2-1.6.133-1.267.867-2.2.4 1.4.8 2.933 2.266 4-.666-1.534-.666-2.334-.4-3.267.2 1 1.134 2.2 1.334 3.133.2-1.066.333-2.066.666-2.733a13.44 13.44 0 0 1 .934 3.733c.333-.666.6-1.333.733-2.066 13.2 13.733 16.134 31.2 1.733 49.667 5.134-3.467 6.467-9 9.334-13.734-2.8 6.2-4 13.134-9 18.267 4.8-4.133 5.8-7.933 8.666-11.933-3 8.333-7.333 17.466-13.2 25.866 1.073 1.15 2.14 2.306 3.2 3.467l2.667-4.6c6.267-10.267 16.467-25 11.334-47.4z" stroke="#34541F" fill="#448127" fill-rule="nonzero"/></g><path d="M66.134 3.535c-.667.134-.934.4-1.4.934.6.133 1.066.2 1.666.2.134 0 .2-.2.2-.4l-.133-.667c0-.133-.4-.067-.533 0l.2-.067z" stroke="#A08307" stroke-width=".5" fill="#EAC102"/><path d="M64.667 4.469a6.6 6.6 0 0 1 .667-.2c.263-.061.53-.106.8-.134a6.533 6.533 0 0 1-.667.2c-.264.061-.53.105-.8.134z" fill="#A08307"/><circle stroke="#000" stroke-width=".5" fill="#000" cx="69.134" cy="3.602" r="1"/><circle fill="url(#k)" cx="69.267" cy="3.535" r="1"/><g fill="#34541F"><path d="M76.134 119.803a55.6 55.6 0 0 1 1-2.934c.375-.987.776-1.965 1.2-2.933.8-1.933 1.8-3.8 2.733-5.6a133.067 133.067 0 0 1 3.133-5.467c.528-.892 1.061-1.781 1.6-2.667l1.667-2.666-1.6 2.666c-.539.908-1.072 1.82-1.6 2.734l-3.067 5.467a89.134 89.134 0 0 0-2.8 5.6 65.4 65.4 0 0 0-1.2 2.866 55.134 55.134 0 0 0-1.066 2.934zm-12.6-6.334c1.129-.47 2.24-.982 3.333-1.533a48.2 48.2 0 0 0 3.067-1.8 48 48 0 0 0 5.866-4.334 56.467 56.467 0 0 0 5.134-5 75.734 75.734 0 0 0 2.4-2.733l2.266-2.867c-.716.969-1.45 1.925-2.2 2.867a74.6 74.6 0 0 1-2.4 2.8 54.6 54.6 0 0 1-5.133 5.067A46.667 46.667 0 0 1 70 110.203a47.534 47.534 0 0 1-3.133 1.733 51.334 51.334 0 0 1-3.333 1.533zM88.4 93.936a92.467 92.467 0 0 0 2.867-4.467l2.667-4.533c.84-1.546 1.662-3.102 2.466-4.667l2.467-4.667-1.133 2.334-1.2 2.4a170.668 170.668 0 0 1-2.467 4.666 107 107 0 0 1-2.667 4.534 62.334 62.334 0 0 1-3 4.4zm4-16.734a38.934 38.934 0 0 0 3.067-4.266A40.134 40.134 0 0 0 98 68.269a48.4 48.4 0 0 0 3.334-10l.267-1.333c.221-1.325.377-2.66.466-4a34.667 34.667 0 0 0 0-5.267 33.733 33.733 0 0 0-.866-5.2 35.6 35.6 0 0 0-1.6-5.067 35.667 35.667 0 0 1 1.666 5c.428 1.73.718 3.491.867 5.267a35.603 35.603 0 0 1 0 5.333 40.867 40.867 0 0 1-.4 4 60.2 60.2 0 0 1-.267 1.267 48.467 48.467 0 0 1-3.333 10 39.934 39.934 0 0 1-2.667 4.667 38.8 38.8 0 0 1-3.133 4.266h.066z" fill-rule="nonzero"/><path d="M91.267 73.336a24 24 0 0 0 3.267-3.867 34.667 34.667 0 0 0 2.533-4.4 64 64 0 0 0 2-4.667c.267-.8.667-1.6.867-2.4l.267-.6.2-.6.4-1.2c.333-1.666.466-3.4.533-5.133a30.533 30.533 0 0 0-.4-5.133c-.267-1.667-.667-3.334-1.134-5a53.467 53.467 0 0 0-1.733-4.867 53.534 53.534 0 0 1 1.8 4.866c.49 1.64.868 3.31 1.134 5 .277 1.697.41 3.415.4 5.134a27.6 27.6 0 0 1-.467 5.133l-.4 1.267-.2.6-.267.6-.867 2.4a64 64 0 0 1-2.066 4.667 34.4 34.4 0 0 1-2.534 4.4 24 24 0 0 1-3.333 3.866v-.066z"/><path d="M87.334 92.802c.866-1.066 1.6-2.2 2.4-3.333l1.2-1.667 1.133-1.666c.72-1.17 1.388-2.37 2-3.6l1.733-3.667c1.2-2.467 2.334-4.933 3.334-7.533a50.2 50.2 0 0 0 2.333-7.8c.534-2.667.934-5.334 1.267-8.067a42.125 42.125 0 0 0 0-8.2 34.934 34.934 0 0 0-1.8-8 48.534 48.534 0 0 0-3.4-7.4 48.534 48.534 0 0 1 3.467 7.4 34.934 34.934 0 0 1 1.8 8c.333 2.667.266 5.467 0 8.2a84.103 84.103 0 0 1-1.2 8.067 50.334 50.334 0 0 1-2.334 7.866 96.734 96.734 0 0 1-3.333 7.467l-1.8 3.667a44.867 44.867 0 0 1-2 3.6c-.334.666-.734 1.133-1.134 1.733l-1.2 1.667-2.4 3.333-.066-.067z"/><path d="M89.2 94.87l4.667-7.734a133.667 133.667 0 0 0 4.267-7.934 54.667 54.667 0 0 0 3.333-8.333c.467-1.467.8-2.867 1.134-4.333.155-.752.288-1.508.4-2.267.557-3.709.869-7.45.933-11.2 0-3-.267-6-.8-8.933a38.334 38.334 0 0 0-2.667-8.6 38.4 38.4 0 0 1 2.734 8.6c.54 2.947.807 5.937.8 8.933 0 3-.2 6-.6 9-.08.757-.169 1.512-.267 2.267a39.2 39.2 0 0 1-.4 2.2 49.534 49.534 0 0 1-1.133 4.333 54.667 54.667 0 0 1-3.334 8.4c-1.333 2.667-2.867 5.333-4.333 7.867a295.002 295.002 0 0 1-4.667 7.666l-.067.067zM70.667 7.201h.933c.942.183 1.859.474 2.734.867 1.133.533 2.266 1.2 3.266 2 1.02.745 1.978 1.57 2.867 2.466a30.2 30.2 0 0 1 1.2 1.4l1.2 1.534a40.6 40.6 0 0 0-1.2-1.467 28 28 0 0 0-1.333-1.333 25.2 25.2 0 0 0-2.8-2.534 17.867 17.867 0 0 0-3.267-2 12 12 0 0 0-3.6-.933z" fill-rule="nonzero"/></g><path d="M81.6 14.402s2 1.2 3.134 2.933c0 0-3.134-.6-5.334-3.066" fill="#448127"/><path d="M81.6 14.402a9.4 9.4 0 0 1 1.734 1.267 8.667 8.667 0 0 1 1.466 1.6l.067.2h-.133a9.667 9.667 0 0 1-1.534-.534c-.482-.187-.95-.41-1.4-.666a10.166 10.166 0 0 1-2.466-2c.742.75 1.597 1.38 2.533 1.866.43.25.876.472 1.333.667a9.6 9.6 0 0 0 1.534.467v.133a7.467 7.467 0 0 0-.667-.867l-.8-.8a11.8 11.8 0 0 0-.8-.666 12.4 12.4 0 0 0-.867-.667z" fill="#34541F"/><path d="M77.067 13.802s4.8 3.067 5.467 3.333c0 0-1.067-2.333-3.334-3.333" fill="#448127"/><path d="M77.067 13.802l2.733 1.667c.684.409 1.373.809 2.067 1.2l.667.4v.066a7.133 7.133 0 0 0-.667-1l-.733-.933c-.288-.293-.6-.56-.934-.8l-1-.6a5.6 5.6 0 0 1 1.067.6 7.4 7.4 0 0 1 2.333 2.667l.134.2-.2-.067-1.4-.8-1.334-.867a99.817 99.817 0 0 1-2.733-1.733z" fill="#34541F"/><path d="M79 12.269s2.467 1.066 3.067 2.866c0 0-4.533-1.866-5.333-2.866" fill="#448127"/><path d="M79 12.269a7.147 7.147 0 0 1 1.867 1.066 4.8 4.8 0 0 1 .733.8l.534 1v.134H82a53.067 53.067 0 0 1-1.333-.667 33.2 33.2 0 0 1-1.4-.667c-.452-.23-.897-.474-1.333-.733l-.667-.4-.533-.533.6.466.666.4 1.334.667c.899.47 1.81.914 2.733 1.333H82a3.2 3.2 0 0 0-.533-.866 5.2 5.2 0 0 0-.667-.8 8.333 8.333 0 0 0-1.866-1.2H79z" fill="#34541F"/><path d="M75.2 14.202s4.4 3.133 5.734 3.133c0 0-1.334-2.2-3.6-3.133" fill="#448127"/><path d="M75.2 14.202c.9.595 1.812 1.173 2.734 1.733a23.19 23.19 0 0 0 2.2 1.134l.8.2-.067.133a10.333 10.333 0 0 0-1.533-1.867l-.934-.733a7.333 7.333 0 0 0-1.066-.667c.733.334 1.466.8 2 1.334A8.533 8.533 0 0 1 81 17.335v.067h-.066a2.467 2.467 0 0 1-.867-.2c-.25-.1-.494-.211-.733-.333a22.2 22.2 0 0 1-1.4-.8 42.6 42.6 0 0 1-1.4-.934 37.534 37.534 0 0 1-1.334-.933z" fill="#34541F"/><path d="M75.2 15.135s2.267 2 3.6 2c0 0-1.333-2.2-3.6-3.2" fill="#448127"/><path d="M75.2 15.135a20.8 20.8 0 0 0 1.667 1.2l.933.467a3.55 3.55 0 0 0 1 .267l-.066.066a8.867 8.867 0 0 0-2.467-2.6 7.333 7.333 0 0 0-1.067-.6c.734.334 1.467.734 2 1.334a8.6 8.6 0 0 1 1.667 1.8v.133H78.8c-.4 0-.666-.133-1.066-.267a7.6 7.6 0 0 1-.934-.533l-.8-.6c-.276-.21-.543-.433-.8-.667z" fill="#34541F"/><path d="M74 10.802s4.8 3.4 5.334 5.267c0 0-4.267-2-5.067-3" fill="#448127"/><path d="M74 10.802a34.4 34.4 0 0 1 1.534 1.133 34 34 0 0 1 1.466 1.2c.469.42.914.865 1.334 1.334l.666.666.467.934v.133l-.133-.067A51.334 51.334 0 0 1 78 15.47a35.239 35.239 0 0 1-1.333-.667 23.2 23.2 0 0 1-1.267-.8c-.228-.147-.45-.302-.666-.467a2.667 2.667 0 0 1-.467-.466l.533.466c.649.41 1.316.787 2 1.134a58.2 58.2 0 0 0 2.667 1.333l-.133.067a3.067 3.067 0 0 0-.467-.8 8.133 8.133 0 0 0-.6-.734l-1.333-1.333a34.067 34.067 0 0 0-1.4-1.267A47.467 47.467 0 0 0 74 10.802z" fill="#34541F"/><g fill-rule="nonzero" stroke="#24420E" stroke-width=".5"><path d="M47.334 106.87a28.133 28.133 0 0 1-13.6 3.2c6.666-5.468 13.133-5.6 13.6-3.2zm46.533 3c3.467 3.133 14 5.333 15.667 4.933-7.067-7.134-14.734-7.867-15.667-4.934z" fill="#406325"/><path d="M47.334 106.87c-.467-2.468-7-2.334-13.6 3.2a46.267 46.267 0 0 1 13.6-3.2zm46.6 2.933c.933-2.934 8.533-2.2 15.6 5a56 56 0 0 0-15.6-5z" fill="#67923D"/></g></g></g></svg>