<svg width="800" height="480" xmlns="http://www.w3.org/2000/svg"><g fill="none" fill-rule="evenodd"><path fill="#CE1126" d="M0 0h275v480H0z"/><path fill="#FCD116" d="M275 0h525v240H275z"/><path fill="#009E49" d="M275 240h525v240H275z"/><g fill="#000"><path d="M138 152l-24.721 76.085 38.042 12.36"/><path d="M138 152l24.721 76.085-38.042 12.36"/><path d="M214.085 207.279h-80v40"/><path d="M214.085 207.279L149.363 254.3l-23.511-32.36"/><path d="M185.023 296.721L160.3 220.637l-38.042 12.36"/><path d="M185.023 296.721L120.3 249.7l23.512-32.361"/><path d="M90.977 296.721L155.7 249.7l-23.512-32.361"/><path d="M90.977 296.721l24.722-76.084 38.042 12.36"/><path d="M61.915 207.279l64.722 47.022 23.511-32.36"/><path d="M61.915 207.279h80v40"/></g></g></svg>