<svg width="800" height="480" xmlns="http://www.w3.org/2000/svg"><g fill="none" fill-rule="evenodd"><path fill="#BA0000" d="M800 480H0V0h800z"/><path d="M389.886 243.932s-48.504-20.868-41.548-75.012c6.674-26.038 18.612-43.804 40.138-53.486 10.152-3.102 20.492-4.512 31.02-5.358-2.82 2.632-5.076 5.264-6.298 8.46-2.256 6.016-.564 11.656 2.538 17.39 3.854 6.58 6.204 13.348 6.956 22.184a34.404 34.404 0 0 1-13.724 31.678c-6.204 4.794-13.536 6.486-19.552 11.938-4.7 4.512-7.52 9.118-8.46 17.014-.188 15.134 3.854 17.296 8.93 25.192z" fill="#FFF"/><path d="M380.58 165.63v-.282" stroke="#000" stroke-width="1.974" fill="#BA0000"/><path d="M383.682 238.292c-18.8-16.638-17.202-58.656-2.82-72.662" stroke="#BA0000" stroke-width="1.974"/><path fill="#BA0000" d="M392.424 156.23l3.102 5.17-5.64-2.35-4.418 4.7.752-6.11-5.64-2.35 6.11-1.41.752-6.016 3.102 5.17 6.204-1.41"/><path d="M394.022 240.36s5.64-52.546 59.502-61.758c26.884-1.128 47.376 4.982 62.98 22.842 5.922 8.742 10.246 18.236 14.1 28.012-3.29-1.88-6.392-3.29-9.964-3.478-6.298-.47-11.28 2.82-15.792 7.426a50.008 50.008 0 0 1-19.176 13.16 34.404 34.404 0 0 1-34.31-3.76c-6.392-4.606-10.152-11.092-17.108-15.228a26.508 26.508 0 0 0-18.8-3.196c-14.57 4.324-15.322 8.836-21.432 15.98z" fill="#FFF"/><path d="M466.12 208.588h.282" stroke="#000" stroke-width="1.974" fill="#BA0000"/><path d="M397.5 232.84c10.528-22.936 51.136-33.652 68.714-24.064" stroke="#BA0000" stroke-width="1.974"/><path fill="#BA0000" d="M478.622 217.142l-4.042 4.418.564-6.11-5.64-2.82 5.922-.94.564-6.298 3.196 5.64 6.016-1.128-4.042 4.418 3.102 5.64"/><path d="M397.594 244.12s51.7-11.28 77.456 36.942c9.682 25.098 10.34 46.436-1.598 66.834-6.392 8.46-14.1 15.51-22.09 22.372.752-3.76 1.034-7.144.094-10.528-1.504-6.204-6.204-9.87-12.032-12.69a49.914 49.914 0 0 1-18.612-14.1 34.404 34.404 0 0 1-7.238-33.652c2.256-7.52 7.238-13.16 8.93-21.056a26.32 26.32 0 0 0-2.914-18.8c-8.742-12.408-13.254-11.75-21.996-15.322z" fill="#FFF"/><path d="M450.61 302.494l.188.188" stroke="#000" stroke-width="1.974" fill="#BA0000"/><path d="M405.96 245.06c25.004 2.726 48.034 37.788 44.556 57.622" stroke="#BA0000" stroke-width="1.974"/><path fill="#BA0000" d="M446.474 317.064l-5.546-2.444 6.11-1.41.752-6.298 2.914 5.358 6.11-1.41-4.23 4.7 2.82 5.358-5.452-2.444-4.23 4.794"/><path d="M396.466 249.478s25.286 46.436-13.63 84.6c-21.432 16.356-41.736 23.03-64.672 17.296-9.87-3.76-18.8-9.118-27.73-14.946 3.76-.282 7.238-.94 10.246-2.82 5.452-3.196 7.614-8.742 8.742-15.04a49.82 49.82 0 0 1 8.272-21.902 34.404 34.404 0 0 1 30.268-16.45c7.896.094 14.664 3.384 22.748 2.82 6.486-.846 11.562-2.632 17.296-8.272 9.4-11.75 7.52-15.98 8.46-25.38v.094z" fill="#FFF"/><path d="M355.294 316.782l-.094.188" stroke="#000" stroke-width="1.974" fill="#BA0000"/><path d="M397.782 257.656c4.606 24.816-22.654 56.87-42.676 58.938" stroke="#BA0000" stroke-width="1.974"/><path fill="#BA0000" d="M340.16 316.876l.846-6.016 3.102 5.358 6.204-.94-4.324 4.324 3.102 5.358-5.734-2.726-4.324 4.324.752-6.016-5.734-2.726"/><path d="M390.732 248.444s-35.344 39.292-84.412 15.416c-22.56-14.758-35.532-31.772-37.694-55.272.282-10.622 2.256-20.774 4.794-31.02 1.598 3.384 3.384 6.392 6.11 8.648 4.794 4.042 10.81 4.23 17.202 3.196a48.88 48.88 0 0 1 23.218.564 34.404 34.404 0 0 1 25.662 23.124c2.538 7.426 1.692 14.946 4.982 22.372 2.82 5.828 6.204 9.964 13.442 13.536 14.288 4.982 17.578 1.786 26.696-.47v-.094z" fill="#FFF"/><path d="M313.558 232.088l-.188-.094" stroke="#000" stroke-width="1.974" fill="#BA0000"/><path d="M383.4 252.486c-21.808 12.502-61.1-2.538-69.748-20.68" stroke="#BA0000" stroke-width="1.974"/><path fill="#BA0000" d="M308.482 217.8l5.922-1.222-4.042 4.7 2.914 5.546-5.452-2.632-4.042 4.7.658-6.392-5.546-2.632 5.922-1.222.658-6.392"/></g></svg>