<svg width="800" height="480" xmlns="http://www.w3.org/2000/svg"><g fill="none" fill-rule="evenodd"><path fill="#006" d="M0 0h800v480H0z"/><g fill-rule="nonzero"><path d="M0 0v26.803L354.857 239.65h44.667v-26.803L44.667 0H0zm399.524 0v26.803L44.667 239.65H0v-26.803L354.857 0h44.667z" fill="#FFF"/><path d="M166.476 0v239.65h66.572V0H166.38h.095zM0 79.883v79.883h399.524V79.883H0z" fill="#FFF"/><path d="M0 95.825v48h399.524v-48H0zM179.81 0v239.65h40V0h-40zM0 239.65l133.143-79.884h29.81L29.81 239.65H0zM0 0l133.143 79.883h-29.714L0 17.87V0zm236.571 79.883L369.714 0h29.81L266.286 79.883H236.57zM399.43 239.65l-133.05-79.884h29.714l103.429 62.015v17.869h-.095z" fill="#C00"/></g><path fill="#FFF" d="M184.5 374.1l-27.5-2.5 23.8-14-15.3-23 25.8 9.7 8.4-26.3 8.5 26.3 25.8-9.7-15.3 23 23.7 14-27.5 2.5 3.8 27.3-19-20-19 20m414.7-7l-19.4-1.7 16.7-10-10.7-16 18.1 6.8 6-18.5 6 18.5 18-6.9-10.7 16.2 16.8 9.9-19.3 1.7 2.7 19.2-13.4-14-13.4 14m2.6-307.2l-19.4-1.7 16.7-9.9L582 78.6l18.1 7 6-18.6 6 18.5 18-6.9-10.7 16.2 16.7 10-19.3 1.6 2.7 19.2-13.4-14-13.4 14m-105.3 97.8l-19.4-1.7 16.7-9.9-10.8-16.1 18.2 6.8 6-18.5 5.9 18.5 18.2-6.8-10.8 16.1 16.7 10-19.3 1.6 2.6 19.3-13.4-14.1-13.4 14m206.8-48.3l-19.4-1.6 16.8-10-10.8-16.1 18.2 6.9 5.9-18.5 6 18.5 18-7-10.6 16.2 16.7 10-19.4 1.6 2.7 19.3-13.4-14.1-13.4 14m-22.5 40.9l-9.5 8 3 12-10.6-6.5-10.5 6.6 3-12-9.6-8.1 12.4-1 4.7-11.4 4.7 11.5"/></g></svg>