<svg width="800" height="480" xmlns="http://www.w3.org/2000/svg"><g fill="none" fill-rule="evenodd"><path fill="#0073CF" d="M0 0h800v480H0z"/><path fill="#FFF" d="M0 160h800v160H0z"/><g fill="#0073CF"><path d="M392.333 240.333L405.667 243l-5.334-29.333z"/><path d="M408.333 240.333L395 243l5.333-29.333z"/><path d="M397.861 232.725l1.584 13.505 26.25-14.137z"/><path d="M402.805 247.942l-6.656-11.857 29.546-3.992z"/><path d="M397.861 247.942l6.657-11.857-29.546-3.992z"/><path d="M402.805 232.725l-1.584 13.505-26.25-14.137z"/><path d="M406.805 235.631l-12.354 5.68 21.557 20.596z"/><path d="M393.861 245.036l9.22-9.995 12.927 26.866z"/><path d="M406.805 245.036l-9.219-9.995-12.927 26.866z"/><path d="M393.861 235.631l12.354 5.68-21.556 20.596z"/></g><g fill="#0073CF"><path d="M526 197l13.333 2.667L534 170.333z"/><path d="M542 197l-13.333 2.667L534 170.333z"/><path d="M531.528 189.392l1.584 13.504 26.25-14.136z"/><path d="M536.472 204.608l-6.656-11.856 29.545-3.992z"/><path d="M531.528 204.608l6.656-11.856-29.545-3.992z"/><path d="M536.472 189.392l-1.584 13.504-26.25-14.136z"/><path d="M540.472 192.298l-12.354 5.68 21.556 20.596z"/><path d="M527.528 201.702l9.22-9.994 12.926 26.866z"/><path d="M540.472 201.702l-9.22-9.994-12.926 26.866z"/><path d="M527.528 192.298l12.354 5.68-21.556 20.596z"/></g><g fill="#0073CF"><path d="M526 277l13.333 2.667L534 250.333z"/><path d="M542 277l-13.333 2.667L534 250.333z"/><path d="M531.528 269.392l1.584 13.504 26.25-14.136z"/><path d="M536.472 284.608l-6.656-11.856 29.545-3.992z"/><path d="M531.528 284.608l6.656-11.856-29.545-3.992z"/><path d="M536.472 269.392l-1.584 13.504-26.25-14.136z"/><path d="M540.472 272.298l-12.354 5.68 21.556 20.596z"/><path d="M527.528 281.702l9.22-9.994 12.926 26.866z"/><path d="M540.472 281.702l-9.22-9.994-12.926 26.866z"/><path d="M527.528 272.298l12.354 5.68-21.556 20.596z"/></g><g fill="#0073CF"><path d="M259 197l13.333 2.667L267 170.333z"/><path d="M275 197l-13.333 2.667L267 170.333z"/><path d="M264.528 189.392l1.584 13.504 26.25-14.136z"/><path d="M269.472 204.608l-6.656-11.856 29.545-3.992z"/><path d="M264.528 204.608l6.656-11.856-29.545-3.992z"/><path d="M269.472 189.392l-1.584 13.504-26.25-14.136z"/><path d="M273.472 192.298l-12.354 5.68 21.556 20.596z"/><path d="M260.528 201.702l9.22-9.994 12.926 26.866z"/><path d="M273.472 201.702l-9.22-9.994-12.926 26.866z"/><path d="M260.528 192.298l12.354 5.68-21.556 20.596z"/></g><g fill="#0073CF"><path d="M259 277l13.333 2.667L267 250.333z"/><path d="M275 277l-13.333 2.667L267 250.333z"/><path d="M264.528 269.392l1.584 13.504 26.25-14.136z"/><path d="M269.472 284.608l-6.656-11.856 29.545-3.992z"/><path d="M264.528 284.608l6.656-11.856-29.545-3.992z"/><path d="M269.472 269.392l-1.584 13.504-26.25-14.136z"/><path d="M273.472 272.298l-12.354 5.68 21.556 20.596z"/><path d="M260.528 281.702l9.22-9.994 12.926 26.866z"/><path d="M273.472 281.702l-9.22-9.994-12.926 26.866z"/><path d="M260.528 272.298l12.354 5.68-21.556 20.596z"/></g></g></svg>