<svg width="800" height="480" xmlns="http://www.w3.org/2000/svg"><g fill="none" fill-rule="evenodd"><path fill="#171796" d="M0 0h800v480H0z"/><path fill="#FFF" d="M0 0h800v320H0z"/><path fill="red" fill-rule="nonzero" d="M0 0h800v160H0zm400 364.1c51.3 0 93.3-42 93.3-93.3V160H306.7v110.8c0 51.4 42 93.4 93.3 93.4v-.1z"/><path d="M400 362.6c50.505-.11 91.435-40.995 91.6-91.5V161.8H308.5V271c.165 50.466 41.034 91.335 91.5 91.5v.1z" fill="#FFF"/><g fill="red" fill-rule="nonzero"><path d="M347.1 165.2H312v38.7h35.2l-.1-38.7zm0 77.4h35.3v-38.7H347l.1 38.7zM312 270.9c0 3.5.2 7 .6 10.4h34.6v-38.7H312v28.3zm105.7-28.3h-35.2v38.7h35.2v-38.7zm0 77.4h35.2v-38.7h-35.2V320zm35.2 21.2A89.2 89.2 0 0 0 473 320h-20v21.2h-.1zM347.1 320h35.3v-38.7H347l.1 38.7zm-20.1 0a89.2 89.2 0 0 0 20.1 21.2V320H327zm79.1 38.7c4-.3 7.7-.8 11.5-1.6V320h-35.2v37.1a87 87 0 0 0 11.4 1.6c4.1.3 8.2.2 12.3 0z"/><path d="M487.4 281.3c.4-3.4.6-6.9.6-10.4v-28.3h-35.2v38.7h34.6zm-69.8-38.7h35.2v-38.7h-35.2v38.7zm0-77.4h-35.2v38.7h35.2v-38.7zm70.4 38.7v-38.7h-35.2v38.7H488z"/></g><path d="M490 158.8l21.8-49.5-16.6-26.8-27.6 10.2-19.4-22.2-25.4 14.7L400 66.5l-22.7 18.6-25.5-14.6-19.4 22.2-27.6-10.3-16.6 27 21.8 49.4a217.8 217.8 0 0 1 90-19.3c32 0 62.5 6.9 90 19.3z" fill="#FFF"/><path d="M333 94.8l-27.4-10-15.3 24.7 5.9 13.3 14.8 33.7a219.7 219.7 0 0 1 34.6-12L333 94.8z" fill="#0093DD"/><path d="M331.4 119.3a13.3 13.3 0 0 1 1.6 6.2c0 7.3-6 13.3-13.4 13.3a13.4 13.4 0 0 1-13.1-10.8 13.4 13.4 0 0 0 11.7 6.9 13.4 13.4 0 0 0 13.2-15.6z" stroke="#000" stroke-width=".3" fill="#FFF"/><path fill="#000" d="M307.6 114l1-4.9-3.8-3.2-.1-.1.2-.1 4.6-1.6 1-4.8v-.2l.2.1 3.7 3.2 4.6-1.6h.2v.2l-1 4.8 3.7 3.2.2.2h-.3l-4.6 1.6-1 4.8v.2l-.1-.1-3.7-3.2-4.6 1.6h-.3z"/><path d="M313.6 107.6l3.5 3 4.3-1.5-7.8-1.5zm0-.2l7.8 1.6-3.4-3-4.4 1.4zm-8.3-1.6l7.8 1.5-3.5-3-4.3 1.5zm7.8 1.7l-7.8-1.5 3.4 3 4.4-1.5zm.4-.3l5.2-6-4.3 1.5-.9 4.5zm-5.6 6.4l5.2-6-4.3 1.5-.9 4.5zm5.3-5.9l-5.2 6 4.3-1.5.9-4.5zm5.6-6.4l-5.2 6 4.3-1.5.9-4.5zm-5.6 6l-2.6-7.6-.9 4.5 3.5 3.1zm2.7 8l-2.5-7.5-.9 4.5 3.4 3zm-2.4-7.6l2.6 7.5.9-4.5-3.5-3zm-2.7-8l2.5 7.5 1-4.5-3.5-3z" fill="#F7DB17" fill-rule="nonzero"/><path d="M377.5 87.4L352.1 73 333 94.9l12.6 49.6a219.8 219.8 0 0 1 36.1-6l-4.2-51.1z" fill="#171796"/><path d="M342.5 132.2a232.3 232.3 0 0 1 38.2-6.4l-1-12.9a245.6 245.6 0 0 0-40.4 6.7l3.2 12.6zm-6.3-25a258 258 0 0 1 42.4-7l-1.1-12.7a270.7 270.7 0 0 0-44.5 7.4l3.2 12.3z" fill="red" fill-rule="nonzero"/><path d="M422.689 87.43l-.055.03-22.555-18.472-22.508 18.434 4.238 51.097a221.902 221.902 0 0 1 18.27-.763c6.181 0 12.3.268 18.353.77l4.254-51.097h.003z" fill="#0093DD"/><path d="M400.032 110.406c-.043-.004-.105.024-.164.107-.44.593-.85 1.112-1.292 1.707-.462.144-.573.426-.395.824-.619-.061-.69.458-.716 1.024-.593-.898-1.237-1.142-1.93-.727-.025-.546-.442-.802-1.04-.93a1.964 1.964 0 0 1-1.033-.343c-.142-.1-.26-.152-.403-.251-.299-.209-.536-.012-.408.175l1.901 3.086c-.033.19.014.358.209.483.111.315.22.628.332.941l-.076.268c-.524-.249-1.05-.28-1.574-.315-.403-.02-.68-.119-.856-.325-.128-.15-.215-.062-.218.194-.007 1.266.384 2.404 1.42 3.536-.547.01-1.095.026-1.645.05-.187.014-.225.093-.173.247.299.72.804 1.372 1.948 1.815a1.549 1.549 0 0 0-.846 1.232c-.021.531-.177.906-.502 1.079-.142.076-.192.154-.057.251.6.438 1.34.457 2.121.265-.372.64-.535 1.311-.47 2.015.494.133.977.036 1.456-.123-.069.144-.104.414-.123.732a1.906 1.906 0 0 1-.247.813c-.075.078-.154.199.01.242a3.51 3.51 0 0 0 2.168-.112c0 .576.005 1.154.18 1.723.043.138.166.242.297.062.367-.507.763-.939 1.249-1.225.073.213.177.398.37.51.227.13.348.402.362.812 0 .071-.005.142.083.213.353.017 1.218-.9 1.396-1.415.488.287.673.584 1.04 1.093.13.18.235.069.304-.06.147-.575.159-1.14.156-1.715a3.51 3.51 0 0 0 2.169.111c.163-.045.085-.166.01-.241a2.244 2.244 0 0 1-.269-.865c-.02-.316-.033-.536-.102-.68.48.16.96.255 1.456.123.068-.704-.126-1.373-.5-2.015.782.19 1.552.173 2.152-.265.135-.098.082-.176-.057-.252-.323-.173-.481-.547-.503-1.078-.07-.557-.353-.97-.846-1.232 1.145-.444 1.65-1.098 1.948-1.816.052-.156.014-.234-.173-.246-.547-.024-1.137-.057-1.685-.064 1.036-1.133 1.436-2.278 1.432-3.543-.003-.256-.09-.346-.218-.195-.176.206-.425.325-.825.346-.526.036-1.031.057-1.555.304l-.076-.268c.11-.313.252-.616.363-.932.194-.125.242-.291.208-.483.633-1.029 1.216-2.057 1.851-3.086.128-.187-.109-.384-.405-.175-.142.1-.26.152-.403.251-.277.19-.609.318-1.035.344-.595.128-.989.396-1.015.94-.694-.414-1.336-.172-1.929.728-.026-.566-.097-1.083-.716-1.024.178-.398.04-.69-.422-.834-.44-.592-1.085-1.114-1.526-1.706-.073-.083-.12-.112-.163-.107v.002z" fill="#000"/><g fill="#F7DB17"><path d="M406.028 113.708c-.121-.062-.294.04-.384.225-.09.185-.078.403.045.465.095.047.199-.015.282-.133l.052-.086c.005-.007.01-.014.012-.02.09-.186.116-.387-.005-.446l-.002-.005zm-11.87 0c.124-.062.295.04.385.225.09.185.092.391-.031.453-.123.061-.244-.057-.334-.242-.09-.185-.142-.375-.022-.436h.003zm10.758 2.145a.142.142 0 0 0-.14.14.14.14 0 0 0 .28 0 .14.14 0 0 0-.14-.14zm-9.556 0a.14.14 0 1 0 0 .28.14.14 0 0 0 0-.28zm10.177-.72a44.611 44.611 0 0 0-5.356-.316c-1.787 0-3.576.097-5.378.273-.061.019-.05.213.034.203a55.584 55.584 0 0 1 5.346-.267c1.761 0 3.52.094 5.28.305.093.01.129-.19.077-.199h-.003z" fill-rule="nonzero"/><path d="M394.756 114.933a55.036 55.036 0 0 1 5.425-.275c1.787 0 3.572.1 5.359.315l.263-.436a.276.276 0 0 1-.214-.011c-.18-.09-.218-.382-.085-.65.133-.27.389-.415.569-.327.092.045.147.147.16.27l1.058-1.751c-.484.308-.777.507-1.377.597-.666.097-.97.33-.872.728.09.37-.135.315-.477.128-.744-.406-1.282.168-1.545.836-.173.441-.377.43-.398-.03-.01-.166 0-.311-.017-.475-.05-.528-.21-.677-.511-.53-.382.184-.415.059-.325-.138.066-.142.204-.303.156-.524-.021-.158-.156-.218-.358-.232-.43-.578-1.106-1.145-1.538-1.723-.431.578-.886 1.145-1.317 1.723-.204.012-.337.071-.36.232-.048.22.123.372.189.515.09.194.054.32-.325.135-.3-.145-.44-.007-.49.521-.017.164-.024.33-.031.495-.021.46-.225.472-.398.031-.263-.668-.835-1.242-1.581-.836-.344.187-.481.241-.431-.128.054-.408-.254-.63-.92-.728-.6-.088-.894-.29-1.377-.597l.993 1.616a.28.28 0 0 1 .126-.135c.18-.09.436.057.568.327.133.268.095.562-.085.65a.282.282 0 0 1-.076.023l.237.387.005-.003zm10.402 2.16c-.017.006-.017.009-.057.025-.109.045-.19.157-.317.294a4.184 4.184 0 0 1-.5.446c-.029.023-.06.045-.105-.014-.045-.06-.016-.083.014-.105.19-.147.354-.294.484-.431.07-.076.133-.15.182-.218a34.2 34.2 0 0 0-.673-.071c-.187.057-.372.13-.526.225a.943.943 0 0 0-.325.296c-.019.033-.037.064-.104.026-.064-.038-.045-.07-.026-.104.083-.138.216-.254.375-.348a2.08 2.08 0 0 1 .25-.128 41.073 41.073 0 0 0-.76-.06.811.811 0 0 0-.145.112.982.982 0 0 0-.132.159c-.022.03-.043.061-.105.018-.061-.042-.042-.073-.019-.104.045-.069.098-.128.152-.182l.021-.022-.57-.033a.807.807 0 0 0-.24.315c-.014.036-.029.07-.097.043-.069-.028-.055-.062-.04-.097a.974.974 0 0 1 .106-.192c.02-.026.043-.052.064-.078a47.66 47.66 0 0 0-.815-.029.115.115 0 0 1-.033.026.807.807 0 0 0-.157.121.692.692 0 0 0-.114.15c-.018.033-.037.066-.101.028-.067-.038-.048-.069-.029-.102a.796.796 0 0 1 .19-.227c-.29-.005-.579-.01-.865-.01-.285 0-.57.002-.854.007a.956.956 0 0 1 .192.23c.02.033.038.064-.028.102-.066.038-.083.005-.104-.028a.692.692 0 0 0-.114-.15.807.807 0 0 0-.156-.12.086.086 0 0 1-.036-.03c-.273.006-.545.015-.818.027a.845.845 0 0 1 .175.275c.015.035.03.069-.04.097-.068.028-.083-.007-.097-.043a.801.801 0 0 0-.22-.299.112.112 0 0 1-.024-.023l-.576.03.031.03a.999.999 0 0 1 .152.182c.021.03.042.061-.02.104-.06.043-.082.012-.104-.019a.888.888 0 0 0-.284-.275l-.012-.007c-.26.017-.521.033-.782.055.102.042.202.09.29.144.158.095.293.211.374.349.019.033.038.064-.026.104-.064.038-.083.007-.105-.026a.922.922 0 0 0-.324-.296 2.414 2.414 0 0 0-.583-.242h-.005c-.213.016-.424.035-.635.057.052.078.12.16.204.25.13.138.293.285.483.432.03.022.06.045.014.105-.045.059-.076.035-.104.014a4.204 4.204 0 0 1-.5-.446c-.088-.09-.235-.263-.32-.332-.465-.213-.839-.3-1.363-.348-.362-.033-.753-.021-1.085-.187a2.4 2.4 0 0 0 .298.542.961.961 0 0 0 .496.349c.019.005.05.038.052.06.066.371.199.677.4.914.124.142.27.26.446.353a2.36 2.36 0 0 1-.408-.595 1.896 1.896 0 0 1-.182-.995c.002-.038.007-.076.08-.069.076.007.072.045.07.083-.027.292.02.607.17.917.133.28.377.562.69.82.056.045 0 .15-.07.13-.364-.104-.687-.29-.907-.547-.21-.246-.353-.562-.427-.94a1.104 1.104 0 0 1-.526-.39 2.32 2.32 0 0 1-.28-.485c.067 1.014.432 1.898 1.081 2.694.145.178.391.432.605.512.218.083.225.237-.048.24-.08.002-.163.002-.249.002.2.074.39.156.553.249.3.173.514.384.53.647.003.038.005.076-.068.08-.076.005-.078-.033-.08-.068-.015-.204-.195-.38-.456-.529-.268-.154-.614-.277-.953-.379-.365 0-.739-.002-1.087.007.092.067.19.135.31.2.194.104.446.203.813.288.21.05.393.124.552.216.168.1.308.22.42.356.023.028.047.059-.012.106-.06.048-.08.02-.107-.012a1.35 1.35 0 0 0-.377-.32 1.86 1.86 0 0 0-.512-.199 3.341 3.341 0 0 1-.848-.303 2.959 2.959 0 0 1-.436-.292c.426.932 1.066 1.358 1.979 1.633l.144.045c.008.003.015.003.022.005.204.05.414.095.63.13.218.036.394.067.619.088.038.003.076.007.068.08-.007.077-.045.072-.08.07a7.204 7.204 0 0 1-.63-.09 9.727 9.727 0 0 1-.406-.079 1.856 1.856 0 0 1-.253.029c-.55.033-.996.533-1.031 1.17 0 .012 0 .027-.003.038.209-.19.425-.372.647-.502.278-.161.567-.244.863-.164.036.01.073.02.052.093-.019.073-.054.064-.092.052-.252-.066-.503.007-.75.15-.255.149-.504.374-.746.599-.057.348-.194.675-.486.893.145.081.247.154.387.107.203-.092.407-.185.618-.256a2.47 2.47 0 0 1 .669-.135c.038-.002.075-.002.078.073.002.076-.033.076-.074.079a2.24 2.24 0 0 0-.625.125 6.288 6.288 0 0 0-.526.216c.523.111 1.09-.002 1.58-.187.142-.052.25-.1.316-.097.12-.072.265-.126.407-.188a1.83 1.83 0 0 1 .431-.135c.038-.005.076-.01.083.067.01.075-.028.078-.066.083-.265.03-.3.05-.526.187 0 .05-.156.135-.299.227a2.095 2.095 0 0 0-.206.16c-.225.203-.341.428-.445.68a2.882 2.882 0 0 0-.162.53c.13-.256.287-.5.477-.718.223-.256.493-.476.817-.628.034-.017.07-.03.1.036.03.068-.002.082-.036.1a2.236 2.236 0 0 0-.767.592 3.513 3.513 0 0 0-.52.817c-.073.152-.018.003-.099.204.26-.29.502-.53.765-.728.313-.237.671-.372.991-.315.036.007.074.014.062.088-.012.073-.05.066-.088.062-.275-.05-.592.075-.874.286-.287.218-.579.529-.868.856.436.062.868-.062 1.285-.202.215-.07.433-.32.566-.36a3.144 3.144 0 0 1 .377-.396c.028-.023.057-.047.107.01.05.057.019.08-.01.107a2.51 2.51 0 0 0-.227.222 3.564 3.564 0 0 0-.218.268c-.015.02-.031.04-.057.038-.143.166-.358.384-.408.569-.135.498-.06.877-.29 1.365.17-.09.304-.192.416-.318.125-.142.222-.32.303-.545.088-.246.225-.462.396-.64.178-.182.39-.322.618-.407.036-.012.071-.026.098.045.026.07-.01.083-.046.097a1.53 1.53 0 0 0-.564.372 1.608 1.608 0 0 0-.362.585 1.76 1.76 0 0 1-.334.593 1.49 1.49 0 0 1-.37.3c.123-.006.185-.023.287-.016.187-.014.5-.156.66-.282a1.21 1.21 0 0 0 .366-.488c.014-.035.03-.069.1-.038.068.031.054.064.037.1-.1.227-.234.412-.41.547a1.223 1.223 0 0 1-.464.22 3.425 3.425 0 0 0 1.107-.236c.154-.057.206-.399.3-.493.076-.138.157-.266.25-.375a.997.997 0 0 1 .388-.3c.036-.015.069-.03.097.042.029.069-.007.083-.04.097a.884.884 0 0 0-.33.256c-.085.1-.16.22-.232.348.024.173-.12.54-.125.723-.017.486-.005.97.125 1.45a5.03 5.03 0 0 1 .384-.454c0-.012 0-.024.003-.036.042-.251.078-.519.094-.787a4.263 4.263 0 0 0-.014-.78c-.005-.037-.01-.075.064-.082.076-.01.08.028.083.066.033.263.033.536.017.806a7.183 7.183 0 0 1-.071.637c.128-.12.125-.12.182-.244.088-.19.14-.377.159-.562.021-.19.012-.372-.03-.545-.01-.035-.017-.073.056-.09.073-.016.083.02.09.057.045.19.06.391.033.597a2.076 2.076 0 0 1-.116.472c.133-.1.27-.194.422-.29a6.804 6.804 0 0 1-.007-.537 2.85 2.85 0 0 1 .043-.45c.009-.048.016-.095.11-.079.096.017.089.064.08.114a2.958 2.958 0 0 0-.039.42c-.005.184 0 .384.01.576.012.194.116.438.296.545.244.147.374.386.44.649.039-.344.041-.664.008-.948a2.248 2.248 0 0 0-.27-.872c-.02-.033-.038-.064.028-.104.064-.038.083-.005.102.028.15.26.247.571.29.931.04.346.03.735-.032 1.157.242-.194.903-.611.835-1.408a.835.835 0 0 0-.067-.178c-.016-.033-.033-.066.033-.1.067-.032.083 0 .1.034.04.078.071.164.092.26.012.058.02.117.026.18.031-.016.107-.101.121-.092.057.038.138.09.19.128a2.012 2.012 0 0 1-.1-.421 1.728 1.728 0 0 1 .034-.598c.009-.035.016-.073.09-.057.073.017.064.055.057.09a1.548 1.548 0 0 0-.031.546c.021.182.073.372.158.561.01.02.02.038.012.06.057.05.112.1.166.154a7.36 7.36 0 0 1-.066-.605 4.172 4.172 0 0 1 .016-.808c.005-.038.01-.076.083-.066.074.01.07.047.064.083-.03.25-.03.514-.014.78.017.267.052.533.095.786.002.005.002.012.002.017.128.14.226.284.36.464.13-.48.174-.964.157-1.45-.005-.18-.164-.538-.154-.716a2.18 2.18 0 0 0-.237-.358.86.86 0 0 0-.33-.256c-.035-.014-.068-.028-.042-.097.028-.069.064-.057.097-.042.147.061.277.168.389.3.09.107.17.233.244.365.135.017.185.425.339.503a3.42 3.42 0 0 0 1.073.237 1.23 1.23 0 0 1-.462-.22 1.364 1.364 0 0 1-.41-.548c-.014-.035-.03-.069.038-.1.069-.03.083.005.1.038.09.204.208.37.365.489.201.156.685.294.948.3a1.566 1.566 0 0 1-.372-.303 1.802 1.802 0 0 1-.335-.592 1.628 1.628 0 0 0-.362-.586 1.522 1.522 0 0 0-.564-.372c-.036-.014-.069-.026-.045-.097.026-.069.061-.057.097-.045a1.747 1.747 0 0 1 1.014 1.048c.08.225.178.4.304.545.111.128.248.232.42.32-.233-.49-.157-.87-.29-1.368-.083-.306-.55-.656-.457-.758.106-.121.315.208.587.3.415.14.846.264 1.28.202-.29-.327-.578-.637-.867-.855-.282-.214-.562-.332-.835-.285-.038.007-.073.014-.087-.061-.012-.074.023-.08.061-.088.32-.057.638.076.95.313.264.199.477.415.738.706-.043-.111 0-.033-.071-.182a3.654 3.654 0 0 0-.522-.818 2.375 2.375 0 0 0-.768-.593c-.033-.016-.066-.03-.035-.1.03-.065.066-.051.1-.035.324.154.594.372.817.628.192.22.348.47.481.728a2.684 2.684 0 0 0-.161-.538c-.104-.251-.22-.476-.446-.68-.147-.133-.495-.332-.493-.424-.068-.036-.078-.027-.149-.057a1.705 1.705 0 0 0-.389-.124c-.037-.004-.075-.009-.066-.083.01-.075.045-.07.083-.066.119.014.273.066.431.133.079.033.157.102.233.142.125.01.33.111.493.175.488.185 1.057.3 1.578.188a6.022 6.022 0 0 0-.528-.216 2.224 2.224 0 0 0-.626-.126c-.038-.002-.076-.002-.074-.078.003-.076.04-.073.079-.073.232.01.452.061.668.135.21.07.415.163.619.256.14.064.239-.017.386-.107-.292-.218-.43-.545-.486-.891l-.005-.005c-.242-.225-.49-.45-.746-.6-.247-.142-.498-.215-.75-.149-.035.01-.073.02-.092-.052-.019-.073.017-.083.052-.092.297-.078.586.002.863.163.223.13.441.313.65.505 0-.014-.003-.026-.003-.04-.035-.64-.481-1.138-1.03-1.171-.186-.012-.449.05-.442-.076.01-.14.23-.104.555-.204.912-.275 1.552-.701 1.981-1.635-.128.097-.26.197-.44.294-.204.111-.47.216-.849.303a1.845 1.845 0 0 0-.512.2c-.152.09-.277.198-.377.32-.023.028-.047.059-.106.011-.06-.047-.034-.076-.012-.106.111-.136.251-.256.42-.356.158-.092.343-.166.551-.216.368-.085.619-.184.813-.289.121-.064.218-.13.31-.199-.35-.01-.722-.007-1.087-.007-.339.104-.685.228-.953.38-.26.149-.44.322-.455.528-.002.038-.005.076-.08.068-.076-.004-.074-.042-.07-.08.02-.263.23-.474.532-.647.163-.093.353-.175.552-.249-.083 0-.166 0-.246-.002-.275-.005-.266-.157-.048-.24.213-.08.45-.334.595-.512.642-.791.976-1.692 1.08-2.678-.077.17-.163.332-.272.47a1.13 1.13 0 0 1-.526.388c-.073.38-.216.695-.427.941a1.779 1.779 0 0 1-.874.545c-.069.02-.123-.083-.069-.13.313-.258.524-.536.659-.815a1.77 1.77 0 0 0 .17-.918c-.002-.038-.006-.075.07-.083.073-.007.078.031.08.07.028.317-.024.658-.185.995a2.36 2.36 0 0 1-.408.594c.173-.092.323-.21.444-.353.201-.237.334-.542.403-.915.002-.018.033-.052.052-.059a.985.985 0 0 0 .495-.348 2.36 2.36 0 0 0 .299-.54c-.332.163-.72.151-1.083.184a3.75 3.75 0 0 0-1.313.36l.002-.002z" fill-rule="nonzero"/><path d="M405.018 116.677c-1.611-.208-3.22-.267-4.837-.27-1.621 0-3.245.095-4.878.266-.047.014-.035.078-.033.109.005.066.088.083.287.064a49.186 49.186 0 0 1 4.579-.22c1.597 0 3.202.05 4.83.241.078.021.182-.201.052-.192v.002z"/><path d="M395.35 116.51a46.695 46.695 0 0 1 4.831-.261c1.6 0 3.197.094 4.8.3l.073-.3a.292.292 0 1 1 .13-.37l.142-.403c-1.716-.2-3.427-.29-5.145-.29-1.728 0-3.458.09-5.197.254l.137.389a.292.292 0 0 1 .24-.128.292.292 0 1 1-.086.569l.078.223-.004.016h.002zm7.27-.987a.292.292 0 1 0 0 .583.292.292 0 0 0 0-.583zm0 .152a.14.14 0 0 0 0 .28c.076 0 .14-.064.14-.14a.14.14 0 0 0-.14-.14zm-2.565-.216a.292.292 0 1 0 0 .583.292.292 0 0 0 0-.583zm0 .152a.14.14 0 1 0 0 .28.14.14 0 0 0 0-.28zm-2.521-.095a.292.292 0 1 0-.024.583.292.292 0 0 0 .024-.583zm0 .152a.139.139 0 0 0-.14.14c0 .078.061.14.14.14a.14.14 0 0 0 0-.28z" fill-rule="nonzero"/></g><path d="M400.164 113.698a.765.765 0 0 0-.237-.414.822.822 0 0 0-.443-.209c-.078-.01-.092-.137-.016-.161a.744.744 0 0 0 .372-.315c.106-.164.187-.372.225-.607.012-.08.152-.083.163-.002.036.199.121.362.23.493.13.156.296.265.458.327.073.028.059.149-.02.16a.527.527 0 0 0-.333.207 1.382 1.382 0 0 0-.237.524c-.02.078-.147.073-.164-.005l.002.002zm.079-.28a1.31 1.31 0 0 1 .192-.345.756.756 0 0 1 .234-.2 1.354 1.354 0 0 1-.339-.284 1.288 1.288 0 0 1-.173-.275c-.045.14-.106.266-.177.375a1.057 1.057 0 0 1-.256.275c.118.045.225.111.317.194.08.073.15.161.202.26zm1.893 12.123l-1.22.488c-.04.017-.083.034-.114-.05-.033-.08.01-.096.05-.113l1.22-.488c.04-.017.083-.033.114.05.033.08-.01.097-.05.113zm.14-.772l-1.431.777c-.038.021-.079.043-.121-.036-.043-.078-.003-.1.035-.12l1.432-.778c.038-.021.078-.042.12.036.043.078.003.1-.035.12zm-4.328-.154l1.432.777c.038.021.078.043.035.12-.042.079-.08.058-.12.036l-1.432-.777c-.038-.021-.078-.043-.035-.12.042-.08.08-.058.12-.036zm.121.763l1.22.488c.044.017.084.033.05.114-.033.083-.073.066-.116.05l-1.22-.489c-.04-.016-.08-.033-.05-.113.033-.083.074-.067.114-.05h.002zm.531 1.028c.325.079.619.114.849.074.208-.038.367-.142.452-.346v-1.169a2.753 2.753 0 0 1-.718-.097.68.68 0 0 1-.476-.422c-.097-.253-.064-.557-.01-.78.012-.042.022-.085.107-.063.085.02.076.064.064.106-.047.195-.078.46.002.673a.508.508 0 0 0 .36.316c.216.059.47.09.728.09.254 0 .507-.031.72-.095a.916.916 0 0 0 .456-.292.552.552 0 0 0 .135-.417.274.274 0 0 0-.116-.19.584.584 0 0 0-.304-.087 1.443 1.443 0 0 0-.336.038c-.06.012-.119.021-.183.03-.045.005-.087.012-.1-.075-.011-.088.034-.095.077-.1.054-.007.113-.019.173-.028a1.67 1.67 0 0 1 .376-.043.743.743 0 0 1 .399.121c.1.069.17.17.19.31a.723.723 0 0 1-.174.553 1.07 1.07 0 0 1-.543.348 2.8 2.8 0 0 1-.649.1v1.144a.053.053 0 0 1 .005.038.567.567 0 0 0 .445.334c.23.043.524.005.849-.073.042-.012.085-.021.106.064.02.088-.02.097-.066.107-.346.083-.661.12-.92.075a.744.744 0 0 1-.509-.312c-.116.175-.294.272-.51.312-.258.048-.573.01-.92-.075-.042-.01-.087-.02-.065-.107.018-.085.064-.076.106-.064v.002zm.844.498l.953-.021c.045 0 .09-.003.09.087.002.09-.043.09-.088.09l-.953.022c-.045 0-.087.002-.09-.088-.002-.09.043-.09.088-.09zm1.405-7.304a6.388 6.388 0 0 1 1.003-.704c.315-.17.602-.263.85-.251.046.002.088.002.086.092-.002.088-.047.088-.092.085-.219-.01-.474.076-.764.23a5.987 5.987 0 0 0-.971.685c-.033.029-.069.057-.126-.012-.057-.068-.021-.097.012-.125h.002zm-1.434.132a4.777 4.777 0 0 0-1.054-.744c-.33-.168-.635-.256-.86-.237-.046.005-.088.01-.095-.08-.01-.088.035-.093.08-.095.261-.024.598.073.958.253.36.183.746.453 1.092.77.034.031.067.06.005.126-.06.064-.092.036-.126.005v.002zm-.504 2.38c.087-.197.196-.367.322-.52a3.15 3.15 0 0 1 .412-.402c.034-.028.07-.057.124.012.056.069.02.097-.012.125-.14.114-.27.24-.389.38-.116.14-.216.296-.296.476-.02.04-.036.08-.116.045-.08-.036-.064-.076-.045-.116zm.879-4.11c.116.157.208.33.27.529.062.194.095.415.093.661.011.19.014.391-.017.59-.03.204-.1.403-.23.583a.677.677 0 0 1-.78.251c.069.237.121.493.015.73-.02.043-.079.064-.121.043a7.058 7.058 0 0 0-.304-.147 3.606 3.606 0 0 0-.3-.12l-.003-.003a3.457 3.457 0 0 1-.56-.266 1.305 1.305 0 0 1-.355-.293l.002.004a.926.926 0 0 1-.208-.403 1.944 1.944 0 0 1-.052-.412 5.48 5.48 0 0 1-.46-.275 2.424 2.424 0 0 1-.382-.31c-.03-.034-.061-.064.003-.126s.095-.028.125.002c.093.095.211.19.356.287.142.095.303.192.483.287.294.03.586.12.877.258.252.119.5.273.752.455.03.017.045.038.064.048.019.014.037.03.059.045.12.052.246.066.36.038a.49.49 0 0 0 .29-.2c.113-.156.17-.329.198-.507.029-.182.026-.372.015-.554v-.005a2.009 2.009 0 0 0-.083-.611 1.583 1.583 0 0 0-.242-.477c-.026-.035-.052-.07.016-.123.07-.052.098-.017.124.017l-.005.004zm-.889 2.482a4.398 4.398 0 0 0-.737-.45 2.67 2.67 0 0 0-.744-.233c.005.114.019.22.043.32.03.123.083.235.168.327l.002.003c.071.087.173.17.308.253.143.085.318.168.534.251l-.003-.002a4.823 4.823 0 0 1 .535.232c.046-.196-.023-.424-.087-.633-.005-.019-.012-.035-.021-.068h.002zm1.84-2.377a1.53 1.53 0 0 0-.242.476c-.057.18-.086.382-.083.611v.005a2.55 2.55 0 0 0 .014.555c.028.177.088.35.199.507.076.107.178.17.289.199.114.028.24.014.36-.038l.06-.045c.014-.01.03-.028.064-.047.248-.183.5-.34.75-.455.292-.138.584-.226.878-.259.177-.095.341-.19.483-.286.142-.098.263-.192.353-.287.031-.031.062-.064.126-.003.064.062.033.093 0 .126-.102.104-.23.209-.382.31-.135.09-.289.183-.46.275a1.925 1.925 0 0 1-.052.413.939.939 0 0 1-.208.403l.002-.005a1.305 1.305 0 0 1-.355.294 3.6 3.6 0 0 1-.562.265l-.002.003a3.624 3.624 0 0 0-.301.12 5.92 5.92 0 0 0-.304.147.093.093 0 0 1-.12-.042c-.107-.237-.055-.493.014-.73a.703.703 0 0 1-.389.016.666.666 0 0 1-.391-.267c-.13-.18-.2-.38-.23-.583a2.866 2.866 0 0 1-.017-.59 2.127 2.127 0 0 1 .093-.662c.062-.199.154-.374.27-.528.026-.036.052-.071.123-.017.071.052.045.088.017.123l.002-.004zm2.227 1.694a2.647 2.647 0 0 0-.744.232c-.247.117-.49.268-.737.45l-.02.07c-.063.208-.132.436-.087.632l.22-.104c.105-.047.207-.09.316-.128l-.003.002c.216-.083.391-.166.534-.25.137-.081.237-.167.31-.254l.003-.003a.784.784 0 0 0 .168-.327c.026-.1.038-.206.045-.32h-.005z" fill="#000" fill-rule="nonzero"/><path d="M402.198 119.927a.513.513 0 1 0 0 1.026.513.513 0 0 0 0-1.026zm0 .163a.349.349 0 1 0 .001.698.349.349 0 0 0-.001-.698zm0 .142a.206.206 0 1 0 0 .413.206.206 0 0 0 0-.413zm-4.022-.293c.282 0 .514.23.514.512 0 .282-.23.514-.514.514a.513.513 0 0 1 0-1.026zm0 .163a.349.349 0 1 1-.001.698.349.349 0 0 1 0-.698zm0 .142a.206.206 0 1 1 0 .413.206.206 0 0 1 0-.413z" fill="#000" fill-rule="nonzero"/><path d="M389.601 87.118c-.043-.003-.103.028-.16.113-.417.61-.807 1.144-1.224 1.755-.457.162-.557.448-.364.84-.62-.039-.672.483-.676 1.05-.627-.875-1.28-1.094-1.956-.653-.047-.544-.473-.784-1.075-.889a1.964 1.964 0 0 1-1.046-.303c-.146-.094-.266-.142-.412-.236-.306-.197-.536.009-.4.191.671 1.004 1.345 2.007 2.017 3.01-.026.191.028.358.227.476.124.31.244.619.368.927l-.066.27c-.533-.228-1.06-.238-1.584-.254-.404-.003-.685-.092-.868-.292-.133-.144-.218-.053-.21.203.041 1.265.476 2.387 1.554 3.479-.547.03-1.093.068-1.641.113-.187.021-.222.1-.164.253.326.708.856 1.34 2.016 1.74a1.549 1.549 0 0 0-.798 1.263c0 .531-.143.912-.46 1.097-.14.081-.186.161-.048.253.616.415 1.356.406 2.13.184-.347.654-.485 1.33-.391 2.031.497.114.977-.002 1.449-.179-.063.147-.088.418-.095.736a1.906 1.906 0 0 1-.215.822c-.073.081-.146.205.019.241a3.51 3.51 0 0 0 2.162-.194c.022.575.05 1.153.246 1.715.048.135.176.235.299.05.347-.521.726-.967 1.2-1.272.083.21.194.39.39.495.232.121.364.389.393.798.003.071.001.142.092.21.353.003 1.182-.947 1.34-1.468.499.268.695.557 1.082 1.052.137.175.237.06.3-.07.125-.582.116-1.146.091-1.721a3.51 3.51 0 0 0 2.171.028c.162-.051.08-.17 0-.242a2.244 2.244 0 0 1-.3-.854c-.034-.314-.054-.534-.128-.676.484.143.969.219 1.459.067.041-.706-.179-1.366-.578-1.993.79.159 1.558.113 2.14-.348.132-.103.077-.179-.066-.25-.329-.16-.502-.528-.543-1.057-.093-.554-.39-.956-.893-1.2 1.127-.486 1.606-1.16 1.877-1.888.046-.159.005-.235-.182-.24-.548-.003-1.14-.013-1.687 0 .992-1.171 1.348-2.33 1.295-3.595-.012-.255-.104-.342-.226-.186-.167.213-.411.341-.81.378-.525.056-1.028.096-1.542.363l-.086-.265c.096-.317.227-.625.326-.945.19-.133.23-.3.19-.49.593-1.053 1.136-2.103 1.731-3.155.12-.192-.124-.38-.412-.16-.138.105-.254.162-.393.266-.27.2-.596.341-1.021.384-.59.15-.973.433-.978.979-.71-.388-1.342-.122-1.9.8-.047-.564-.138-1.078-.754-.995.162-.404.014-.69-.454-.817-.463-.575-1.127-1.072-1.59-1.647-.077-.08-.125-.106-.168-.1v.002z" fill="#000"/><g fill="#F7DB17"><path d="M395.72 90.187c-.123-.057-.292.052-.375.24-.083.188-.063.406.062.462.097.044.199-.022.277-.143l.049-.087c.004-.008.009-.015.011-.022.083-.188.101-.39-.022-.445l-.002-.005zm-11.86.456c.12-.067.295.029.392.21.097.181.107.387-.014.454-.12.066-.246-.048-.343-.23-.097-.18-.156-.368-.038-.434h.002zm10.831 1.73a.142.142 0 0 0-.134.145.14.14 0 0 0 .28-.01.14.14 0 0 0-.146-.135zm-9.549.367a.14.14 0 1 0 .012.28.14.14 0 0 0-.012-.28zm10.142-1.11a44.611 44.611 0 0 0-5.364-.11c-1.786.069-3.57.234-5.363.479-.061.021-.042.215.04.202a55.584 55.584 0 0 1 5.333-.473c1.76-.067 3.52-.04 5.288.103.093.006.12-.194.068-.202h-.002z" fill-rule="nonzero"/><path d="M384.503 91.844a55.036 55.036 0 0 1 5.41-.483 44.65 44.65 0 0 1 5.367.11l.247-.446a.276.276 0 0 1-.214-.004c-.184-.083-.233-.373-.11-.646.122-.275.372-.429.556-.348.094.041.152.141.171.264l.989-1.791c-.471.326-.757.537-1.353.65-.662.122-.956.366-.844.76.105.366-.123.32-.47.146-.76-.376-1.276.218-1.513.896-.156.447-.36.443-.399-.016-.016-.165-.012-.31-.035-.473-.07-.526-.236-.67-.531-.51-.375.199-.413.074-.33-.126.06-.144.192-.31.136-.53-.027-.157-.165-.211-.367-.217-.453-.562-1.15-1.102-1.603-1.663-.408.594-.841 1.178-1.25 1.772-.203.02-.334.084-.351.246-.04.222.137.367.209.507.097.19.067.317-.32.147-.306-.133-.44.01-.47.54-.01.164-.01.33-.011.496-.004.46-.207.48-.397.046-.289-.658-.881-1.209-1.612-.775-.336.2-.471.26-.436-.111.04-.41-.277-.62-.947-.692-.602-.065-.903-.255-1.398-.544l1.054 1.577a.28.28 0 0 1 .12-.14c.177-.097.438.04.581.305.143.263.116.558-.06.652a.282.282 0 0 1-.075.027l.252.377.004-.003zm10.477 1.758c-.016.008-.016.01-.055.029-.108.049-.184.163-.306.306a4.26 4.26 0 0 1-.483.464c-.028.025-.058.047-.105-.01-.047-.058-.02-.083.01-.105.184-.154.342-.307.467-.45.068-.078.127-.154.174-.224a34.2 34.2 0 0 0-.675-.046 2.286 2.286 0 0 0-.517.246.943.943 0 0 0-.314.308c-.017.034-.035.065-.103.03-.065-.035-.047-.07-.03-.103.078-.14.206-.262.361-.363.076-.05.16-.096.246-.137a41.073 41.073 0 0 0-.762-.03.811.811 0 0 0-.14.117.982.982 0 0 0-.127.163c-.02.032-.04.064-.104.023-.063-.04-.045-.071-.023-.103.043-.07.093-.132.145-.188l.02-.022c-.19-.005-.382-.01-.571-.012a.807.807 0 0 0-.227.324c-.013.037-.026.07-.096.047-.07-.026-.057-.06-.044-.096.026-.07.059-.132.1-.196.017-.026.04-.053.06-.08-.273-.002-.545 0-.816.003a.115.115 0 0 1-.032.027.807.807 0 0 0-.151.127.692.692 0 0 0-.108.153c-.018.034-.036.068-.101.033-.068-.036-.05-.067-.032-.101a.796.796 0 0 1 .18-.235c-.289.007-.578.013-.865.024-.284.011-.568.024-.852.04l.054.045a.956.956 0 0 1 .147.177c.02.033.04.063-.025.103-.065.04-.082.008-.105-.024a.692.692 0 0 0-.12-.145.807.807 0 0 0-.16-.115.086.086 0 0 1-.037-.027c-.272.015-.544.035-.816.058a.845.845 0 0 1 .186.268c.015.035.03.067-.037.098s-.083-.004-.098-.039a.801.801 0 0 0-.232-.29.112.112 0 0 1-.025-.022 46.85 46.85 0 0 0-.574.052l.032.028c.059.052.11.11.158.176.023.03.045.06-.015.105s-.082.015-.104-.015a.888.888 0 0 0-.295-.264l-.012-.006c-.26.026-.52.053-.78.084.104.039.205.083.295.134.162.088.301.2.387.333.02.033.04.063-.022.106-.062.04-.082.01-.105-.022a.922.922 0 0 0-.336-.284 2.414 2.414 0 0 0-.592-.22l-.004.001c-.213.025-.423.052-.633.081.055.076.127.157.213.243.136.133.305.273.5.413.032.02.061.043.018.104-.042.06-.074.038-.103.018a4.204 4.204 0 0 1-.517-.426c-.091-.087-.245-.254-.333-.32-.472-.195-.85-.268-1.375-.295-.363-.02-.754.007-1.092-.146.093.198.193.382.32.531a.961.961 0 0 0 .508.33c.02.003.051.035.054.056.08.37.225.67.436.9.128.137.28.25.458.335a2.36 2.36 0 0 1-.43-.579 1.897 1.897 0 0 1-.22-.988c0-.038.004-.076.078-.071.076.004.072.042.071.08-.014.292.045.605.206.91.144.274.398.547.72.793.06.043.007.15-.063.133-.369-.09-.698-.265-.928-.512-.22-.239-.374-.548-.462-.924a1.104 1.104 0 0 1-.541-.368 2.32 2.32 0 0 1-.298-.475c.105 1.01.504 1.88 1.183 2.651.152.172.408.416.624.488.22.075.234.228-.038.241-.08.006-.164.009-.249.012.202.066.395.142.561.228.308.161.53.364.556.626.004.038.007.075-.066.083-.075.008-.08-.03-.083-.066-.022-.203-.209-.371-.475-.51-.273-.144-.624-.254-.967-.343-.364.014-.739.026-1.086.05.095.062.194.127.318.186.198.097.453.187.823.258.213.042.398.108.56.194.172.093.316.209.433.34.025.027.05.057-.008.107-.057.05-.08.022-.107-.008a1.35 1.35 0 0 0-.389-.305 1.86 1.86 0 0 0-.519-.18 3.341 3.341 0 0 1-.86-.27 2.959 2.959 0 0 1-.446-.275c.462.914 1.118 1.316 2.04 1.556.055.014.103.027.146.04l.022.003c.205.042.418.079.635.106.219.027.395.052.621.064.038.001.076.004.072.078-.004.076-.043.073-.078.072a7.204 7.204 0 0 1-.634-.066c-.138-.018-.274-.04-.408-.063-.06.017-.15.028-.252.039-.548.054-.974.57-.985 1.21l-.001.037c.201-.197.41-.388.627-.527.271-.172.557-.266.856-.196.036.008.074.016.056.09-.016.074-.052.066-.09.056-.254-.057-.502.026-.743.178-.25.159-.49.393-.723.627-.044.35-.169.683-.451.912.147.075.252.144.39.092.2-.1.4-.2.608-.28.213-.082.431-.14.663-.16.037-.004.075-.006.08.07.006.076-.03.077-.07.08a2.24 2.24 0 0 0-.62.15 6.339 6.339 0 0 0-.518.236c.528.091 1.09-.044 1.573-.248.14-.057.245-.109.311-.109.118-.076.26-.136.4-.203a1.79 1.79 0 0 1 .426-.151c.038-.006.075-.013.085.063.013.075-.025.08-.063.085-.264.041-.299.062-.518.208.002.05-.151.14-.29.239-.083.06-.161.129-.2.166-.217.212-.324.442-.419.697-.062.168-.11.348-.14.537.12-.261.267-.511.448-.736a2.48 2.48 0 0 1 .793-.66c.032-.017.067-.033.1.032.034.068.001.083-.031.101-.3.154-.546.37-.745.622-.204.252-.36.54-.487.837-.068.154-.019.003-.092.207.25-.299.482-.55.737-.756.304-.249.656-.398.978-.353.036.006.074.011.065.085-.009.074-.047.068-.085.065-.277-.04-.59.099-.863.32-.278.229-.558.55-.834.888.438.045.864-.094 1.276-.25.213-.08.421-.337.552-.382a3.144 3.144 0 0 1 .361-.41c.028-.025.055-.05.107.005s.022.08-.005.107a2.51 2.51 0 0 0-.219.232c-.072.086-.14.178-.207.276-.014.02-.03.041-.056.04-.135.171-.343.397-.385.584-.116.502-.026.878-.237 1.375.165-.096.296-.203.402-.333.12-.147.21-.328.283-.557.078-.25.207-.47.37-.654.171-.19.379-.337.603-.431.035-.013.07-.029.099.041.029.07-.006.083-.041.099a1.53 1.53 0 0 0-.55.393c-.15.167-.268.369-.34.6a1.76 1.76 0 0 1-.31.604 1.49 1.49 0 0 1-.359.315c.123-.012.184-.03.286-.028.187-.02.494-.175.65-.307.152-.127.264-.294.346-.502.013-.036.028-.07.098-.041.07.028.057.062.042.098-.09.23-.219.42-.389.562a1.22 1.22 0 0 1-.456.239 3.433 3.433 0 0 0 1.097-.28c.152-.063.191-.406.282-.504.07-.14.146-.271.234-.384.107-.137.23-.248.377-.315.035-.016.068-.031.099.039.031.067-.004.083-.036.098a.884.884 0 0 0-.32.269 2.12 2.12 0 0 0-.219.357c.03.172-.1.544-.097.727.002.486.032.969.18 1.444a5.03 5.03 0 0 1 .367-.47l.001-.035c.033-.252.058-.521.065-.79a4.263 4.263 0 0 0-.045-.778c-.006-.038-.012-.076.061-.086.076-.012.082.026.086.064.043.261.053.534.047.804a7.183 7.183 0 0 1-.046.64c.123-.126.12-.126.173-.251.08-.193.125-.382.137-.567a1.544 1.544 0 0 0-.052-.544c-.01-.035-.02-.073.053-.092.073-.02.084.016.093.053.052.188.074.389.056.596a2.076 2.076 0 0 1-.098.476 5.96 5.96 0 0 1 .41-.306 6.804 6.804 0 0 1-.028-.537 2.85 2.85 0 0 1 .026-.451c.007-.048.013-.096.108-.083.095.013.09.06.083.11-.017.12-.024.265-.022.421.002.185.014.384.031.576.02.193.133.433.317.533.25.137.39.372.466.632a4.244 4.244 0 0 0-.03-.948 2.248 2.248 0 0 0-.303-.86c-.02-.033-.04-.063.024-.106.063-.04.083-.008.103.024.16.255.269.562.325.92.054.344.059.733.014 1.157.234-.204.878-.646.78-1.439a.835.835 0 0 0-.074-.175c-.018-.033-.036-.065.03-.1.064-.036.082-.004.1.029.043.076.077.16.102.257.014.056.024.115.033.179.03-.018.103-.106.118-.097.058.035.14.084.194.12a2.012 2.012 0 0 1-.116-.418 1.728 1.728 0 0 1 .01-.598c.009-.036.014-.074.088-.06.074.014.066.052.06.088-.035.174-.038.36-.01.546.03.181.089.369.181.555.01.019.02.037.014.059.059.047.115.095.172.147a7.36 7.36 0 0 1-.09-.601 4.172 4.172 0 0 1-.014-.808c.003-.038.006-.076.08-.07.074.007.07.045.067.08-.02.253-.01.516.016.78a7.595 7.595 0 0 0 .128.8c.133.134.236.275.378.45.112-.486.136-.97.1-1.456-.011-.18-.184-.53-.18-.709a2.18 2.18 0 0 0-.251-.348.86.86 0 0 0-.34-.244c-.036-.012-.07-.025-.046-.095.026-.07.062-.06.096-.046.149.056.283.157.4.286.094.103.179.225.257.355.136.011.202.417.358.489.37.12.715.195 1.082.196a1.23 1.23 0 0 1-.47-.203 1.364 1.364 0 0 1-.43-.531c-.016-.035-.034-.068.033-.101.068-.034.084.001.101.034.098.2.223.361.384.474.207.148.696.267.959.264a1.566 1.566 0 0 1-.384-.289 1.802 1.802 0 0 1-.356-.579 1.628 1.628 0 0 0-.385-.571 1.522 1.522 0 0 0-.578-.35c-.036-.013-.07-.024-.049-.096.023-.07.06-.059.095-.048.231.076.45.205.634.383.177.169.323.382.42.624.09.222.193.394.324.534.117.123.258.222.432.303-.251-.481-.19-.863-.342-1.355-.094-.303-.574-.635-.486-.74.102-.125.323.196.6.278.419.124.855.23 1.286.152-.302-.316-.603-.615-.9-.822-.29-.202-.574-.31-.845-.252-.037.009-.072.017-.09-.058-.014-.073.021-.082.059-.09.317-.07.64.051.961.276.27.189.492.396.764.677-.047-.11-.001-.033-.078-.18a3.654 3.654 0 0 0-.552-.796 2.375 2.375 0 0 0-.79-.563c-.034-.015-.068-.028-.04-.098.028-.067.064-.055.098-.04.33.142.609.35.841.597.2.213.367.455.51.709a2.684 2.684 0 0 0-.183-.532c-.113-.247-.238-.467-.47-.662-.153-.127-.509-.313-.51-.405-.07-.033-.079-.023-.151-.052a1.705 1.705 0 0 0-.393-.108c-.038-.003-.076-.006-.07-.08.007-.076.042-.073.08-.07.12.01.275.056.437.116.08.03.16.096.237.134.126.004.334.098.5.156.494.166 1.067.258 1.584.126a6.022 6.022 0 0 0-.536-.195c-.204-.06-.412-.1-.63-.101-.038-.001-.076 0-.077-.076 0-.075.038-.075.075-.076.233 0 .455.044.673.11.214.062.421.147.628.231.143.059.239-.025.382-.121-.3-.207-.45-.528-.52-.872l-.004-.004c-.25-.216-.508-.432-.77-.57-.251-.134-.505-.197-.753-.121-.036.01-.073.021-.095-.049-.022-.073.014-.083.049-.094.293-.09.585-.02.868.13.228.122.453.296.668.48 0-.015-.003-.026-.004-.04-.06-.639-.524-1.119-1.075-1.131-.185-.005-.445.067-.443-.059.004-.14.226-.113.546-.225.902-.31 1.525-.76 1.917-1.71a3.228 3.228 0 0 1-.429.31c-.2.12-.46.234-.836.336-.192.053-.36.128-.504.219-.148.096-.27.21-.364.334-.023.03-.045.061-.106.016s-.036-.075-.016-.106c.106-.14.241-.266.405-.371.155-.099.337-.18.544-.237.364-.1.61-.209.801-.32a2.46 2.46 0 0 0 .303-.211c-.351.004-.723.02-1.088.035-.334.117-.675.253-.937.415-.255.16-.428.339-.435.546 0 .038-.001.076-.077.071-.076-.001-.076-.04-.072-.078.009-.263.211-.482.505-.666.16-.1.347-.19.543-.27-.083.003-.166.006-.247.007-.275.006-.271-.146-.056-.238.21-.088.437-.35.575-.534.61-.816.91-1.728.977-2.718a2.283 2.283 0 0 1-.255.48 1.135 1.135 0 0 1-.51.408c-.06.382-.19.703-.39.957a1.779 1.779 0 0 1-.854.578c-.068.022-.126-.078-.073-.127.302-.27.502-.556.627-.84a1.77 1.77 0 0 0 .135-.923c-.004-.038-.01-.076.066-.086.073-.01.079.028.083.066.04.316.001.659-.147 1.001a2.36 2.36 0 0 1-.384.61c.169-.099.314-.223.429-.37.192-.244.313-.555.367-.929.002-.019.032-.053.05-.061a.985.985 0 0 0 .482-.367c.115-.159.2-.347.278-.552-.326.176-.715.18-1.076.227a3.75 3.75 0 0 0-1.298.41l.002-.003z" fill-rule="nonzero"/><path d="M394.825 93.193c-1.619-.146-3.229-.144-4.844-.084-1.62.062-3.239.22-4.864.453-.047.016-.032.08-.029.11.007.066.091.08.29.053 1.517-.2 3.034-.337 4.566-.396 1.596-.062 3.202-.074 4.836.056.079.018.175-.208.045-.194v.002z"/><path d="M385.158 93.396a46.695 46.695 0 0 1 4.817-.446 37.52 37.52 0 0 1 4.807.117l.062-.304a.292.292 0 1 1 .116-.374l.127-.408a44.544 44.544 0 0 0-5.153-.092 55.485 55.485 0 0 0-5.184.453l.152.383a.292.292 0 0 1 .235-.137.292.292 0 1 1-.064.572l.087.22-.004.016h.002zm7.226-1.264a.292.292 0 1 0 .022.583.292.292 0 0 0-.022-.583zm.006.152a.14.14 0 0 0 .01.28.142.142 0 0 0 .135-.146.14.14 0 0 0-.145-.134zm-2.571-.117a.292.292 0 1 0 .022.582.292.292 0 0 0-.022-.582zm.006.151a.14.14 0 1 0 .01.28.14.14 0 0 0-.01-.28zm-2.524.002a.292.292 0 1 0-.001.583.292.292 0 0 0 .001-.583zm.006.152a.139.139 0 0 0-.134.145.139.139 0 0 0 .145.134.14.14 0 0 0-.01-.28z" fill-rule="nonzero"/></g><path d="M389.86 90.403a.765.765 0 0 0-.253-.406.822.822 0 0 0-.45-.191c-.079-.006-.098-.134-.023-.16a.744.744 0 0 0 .36-.33c.1-.167.172-.379.201-.615.009-.08.149-.088.164-.008.043.197.134.358.248.484.136.15.306.253.47.309.074.025.065.147-.013.162a.527.527 0 0 0-.326.218 1.382 1.382 0 0 0-.217.533c-.016.079-.144.079-.163.002l.002.002zm.068-.283a1.33 1.33 0 0 1 .178-.353.756.756 0 0 1 .227-.208 1.354 1.354 0 0 1-.35-.27 1.288 1.288 0 0 1-.183-.269c-.04.141-.096.27-.163.381-.07.114-.151.21-.245.285a.986.986 0 0 1 .536.434zm2.357 12.041l-1.2.535c-.04.018-.082.036-.116-.045-.036-.08.005-.098.045-.116l1.201-.535c.04-.018.082-.036.116.046.036.079-.006.097-.046.115zm.11-.777l-1.4.832c-.037.022-.077.045-.122-.031-.046-.077-.007-.1.03-.122l1.401-.832c.037-.023.077-.046.122.03.046.077.006.1-.03.123zm-4.33.012l1.46.722c.039.02.08.04.04.12-.04.08-.078.06-.119.04l-1.46-.722c-.039-.02-.08-.04-.04-.12.04-.08.078-.06.119-.04zm.15.758l1.238.441c.044.015.085.03.055.112-.03.084-.071.069-.115.054l-1.238-.441c-.04-.015-.082-.03-.054-.112.03-.084.07-.069.112-.054h.002zm.57 1.007c.327.066.623.09.85.041.208-.046.362-.156.44-.363l-.045-1.167a2.753 2.753 0 0 1-.721-.07.68.68 0 0 1-.493-.403c-.106-.25-.085-.554-.04-.779.011-.043.019-.086.105-.068.086.018.078.061.068.104-.04.196-.06.462.028.673.06.14.174.254.372.3.218.052.473.073.73.063.254-.01.507-.05.717-.123a.916.916 0 0 0 .444-.308.552.552 0 0 0 .119-.422.274.274 0 0 0-.124-.185.584.584 0 0 0-.306-.076c-.112 0-.222.025-.335.05a3.652 3.652 0 0 1-.181.038c-.045.007-.087.015-.103-.072-.015-.087.03-.096.072-.102.055-.01.113-.023.172-.035a1.67 1.67 0 0 1 .375-.057.743.743 0 0 1 .403.105.436.436 0 0 1 .201.303.723.723 0 0 1-.152.559c-.12.158-.3.293-.529.369a2.8 2.8 0 0 1-.645.124l.044 1.144a.053.053 0 0 1 .006.038.57.57 0 0 0 .459.316c.23.034.523-.015.845-.106.042-.013.084-.024.109.06.022.087-.018.098-.063.11-.342.096-.656.146-.916.11a.744.744 0 0 1-.52-.293c-.11.18-.284.284-.498.333-.256.057-.573.031-.922-.04-.043-.009-.088-.016-.07-.105.015-.086.06-.078.104-.068v.002zm.862.465l.951-.058c.045-.001.09-.005.094.085.006.09-.04.091-.084.093l-.952.058c-.045.002-.087.006-.093-.084-.006-.09.04-.092.084-.094zm1.124-7.353a6.29 6.29 0 0 1 .975-.741c.308-.183.591-.286.84-.284.046 0 .088-.001.09.089 0 .088-.045.09-.09.089-.218-.001-.47.094-.754.259-.29.17-.607.417-.944.722-.032.03-.067.059-.126-.007-.06-.067-.025-.097.007-.126h.002zm-1.427.188a4.777 4.777 0 0 0-1.083-.703c-.336-.156-.644-.231-.869-.204-.045.007-.087.013-.098-.077-.012-.087.032-.093.077-.098.26-.033.6.05.967.217.367.169.763.424 1.121.728.035.03.069.057.01.125-.057.066-.091.04-.126.01v.002zm-.414 2.397c.08-.2.183-.374.303-.53a3.15 3.15 0 0 1 .396-.42c.032-.029.067-.059.124.008.06.066.025.096-.007.126-.136.119-.261.25-.374.394a2.08 2.08 0 0 0-.278.487c-.017.041-.032.082-.114.05-.082-.033-.067-.074-.05-.115zm.721-4.14c.122.152.221.321.29.518.07.191.111.41.118.657.02.189.03.39.006.59a1.311 1.311 0 0 1-.207.592.677.677 0 0 1-.77.28c.078.235.14.489.043.73a.093.093 0 0 1-.12.047 7.058 7.058 0 0 0-.308-.135 3.624 3.624 0 0 0-.306-.11l-.002-.002a3.457 3.457 0 0 1-.57-.244 1.305 1.305 0 0 1-.366-.28l.003.005a.926.926 0 0 1-.224-.395 1.944 1.944 0 0 1-.068-.41 5.48 5.48 0 0 1-.47-.257 2.424 2.424 0 0 1-.393-.295c-.032-.032-.064-.062-.003-.126.062-.064.094-.032.126-.003.096.092.218.182.366.273.146.09.31.18.494.268.295.02.59.099.887.225.255.109.51.253.768.426.031.015.046.036.066.045.019.013.039.029.06.042a.565.565 0 0 0 .362.024c.11-.03.21-.1.281-.21a1.15 1.15 0 0 0 .18-.514 2.555 2.555 0 0 0-.007-.555V95.9a2.009 2.009 0 0 0-.107-.607 1.583 1.583 0 0 0-.26-.467c-.027-.035-.055-.07.012-.124.067-.055.097-.02.124.012l-.005.005zm-.793 2.514a4.398 4.398 0 0 0-.753-.422 2.67 2.67 0 0 0-.753-.204c.01.114.027.22.055.318a.732.732 0 0 0 .18.32l.003.003c.075.085.18.164.318.242.145.08.324.156.542.23l-.002-.002a5.75 5.75 0 0 1 .544.211c.037-.198-.04-.423-.112-.628-.005-.02-.013-.036-.024-.068h.002zm1.747-2.446a1.53 1.53 0 0 0-.223.485c-.05.182-.07.384-.06.614v.005c-.004.183 0 .375.036.553.035.177.101.348.218.5.08.103.185.163.297.187.115.025.24.006.358-.051l.058-.048c.014-.01.03-.03.062-.05.242-.191.487-.357.733-.483.286-.148.574-.247.867-.292.174-.101.333-.202.472-.305.138-.102.255-.202.342-.3.03-.032.059-.066.125-.007.066.059.037.091.005.125a2.424 2.424 0 0 1-.37.325 5.893 5.893 0 0 1-.448.293c0 .144-.009.282-.037.414a.939.939 0 0 1-.193.41l.003-.004a1.305 1.305 0 0 1-.344.307 3.6 3.6 0 0 1-.551.287l-.003.002c-.1.04-.198.084-.296.132a5.92 5.92 0 0 0-.297.159.093.093 0 0 1-.123-.038c-.115-.233-.073-.49-.014-.73a.703.703 0 0 1-.387.031.666.666 0 0 1-.401-.252 1.311 1.311 0 0 1-.253-.574 2.823 2.823 0 0 1-.039-.589 2.124 2.124 0 0 1 .067-.664c.054-.202.14-.38.25-.539.025-.036.05-.073.122-.021.073.05.049.086.022.122l.002-.004zm2.291 1.607c-.247.045-.49.135-.735.261-.241.126-.48.287-.719.478l-.016.07c-.056.21-.116.44-.063.635.072-.038.144-.076.216-.112.102-.052.202-.098.31-.14l-.002.002c.212-.09.384-.18.523-.271a1.16 1.16 0 0 0 .3-.266l.003-.002a.784.784 0 0 0 .155-.333c.022-.1.03-.208.033-.322h-.005z" fill="#000" fill-rule="nonzero"/><path d="M392.131 96.548a.513.513 0 1 0 .04 1.026.513.513 0 0 0-.04-1.026zm.007.164a.349.349 0 1 0 .027.697.349.349 0 0 0-.027-.697zm.005.142a.206.206 0 1 0 .016.412.206.206 0 0 0-.016-.412zm-4.03-.14c.282-.01.523.21.533.493a.515.515 0 0 1-.494.533.513.513 0 0 1-.04-1.025zm.006.164a.349.349 0 1 1 .026.698.349.349 0 0 1-.026-.698zm.006.142a.206.206 0 1 1 .015.413.206.206 0 0 1-.015-.413z" fill="#000" fill-rule="nonzero"/><path d="M410.46 87.187c-.042-.006-.104.02-.167.1-.463.576-.893 1.079-1.356 1.656-.467.127-.59.404-.427.81-.616-.086-.707.43-.755.995-.557-.92-1.192-1.19-1.9-.801-.005-.546-.412-.818-1.003-.969a1.964 1.964 0 0 1-1.02-.383c-.138-.105-.255-.161-.393-.266-.29-.22-.535-.033-.414.16l1.781 3.156c-.04.188 0 .358.19.49.1.32.196.637.295.954-.03.089-.056.176-.086.264-.514-.268-1.038-.32-1.56-.375-.402-.034-.675-.144-.843-.357-.122-.154-.213-.07-.225.186-.056 1.264.291 2.416 1.283 3.588a63.827 63.827 0 0 0-1.646-.014c-.187.007-.228.084-.182.24.27.731.75 1.402 1.877 1.889-.503.246-.8.645-.893 1.199-.041.53-.212.898-.543 1.058-.145.07-.198.147-.067.249.583.461 1.32.508 2.11.346-.397.626-.586 1.29-.547 1.995.488.152.975.074 1.46-.067-.075.142-.12.41-.152.727a1.906 1.906 0 0 1-.277.803c-.08.075-.162.193 0 .242a3.51 3.51 0 0 0 2.171-.028c-.022.575-.04 1.153.114 1.729.037.139.156.248.293.073.387-.493.8-.909 1.296-1.177.065.216.162.405.35.523.222.14.332.416.33.827-.002.07-.01.142.075.216.353.03 1.252-.853 1.45-1.36.476.305.65.608.997 1.131.124.185.232.078.306-.047.169-.57.202-1.133.222-1.709a3.51 3.51 0 0 0 2.162.195c.166-.039.092-.163.02-.241a2.244 2.244 0 0 1-.235-.875c-.01-.316-.013-.537-.076-.684.472.18.95.293 1.45.18.095-.701-.073-1.377-.423-2.033.774.22 1.545.233 2.16-.182.14-.092.09-.173-.047-.254-.315-.185-.46-.565-.46-1.097-.05-.559-.316-.982-.798-1.263 1.16-.4 1.69-1.034 2.016-1.74.058-.154.023-.234-.163-.253-.547-.044-1.135-.1-1.682-.128 1.079-1.093 1.523-2.221 1.567-3.486.007-.256-.077-.35-.21-.203-.184.2-.437.309-.838.315-.527.015-1.033.017-1.565.243l-.066-.27c.121-.309.275-.607.398-.917.2-.118.253-.282.227-.475.672-1.004 1.294-2.01 1.968-3.013.135-.182-.094-.388-.398-.19-.146.093-.266.14-.412.235a1.997 1.997 0 0 1-1.048.304c-.6.105-1.003.357-1.05.9-.678-.44-1.33-.223-1.956.654-.004-.567-.055-1.086-.676-1.05.193-.392.067-.688-.39-.85-.417-.61-1.041-1.155-1.459-1.764-.07-.086-.116-.116-.16-.113v.002z" fill="#000"/><g fill="#F7DB17"><path d="M416.326 90.716c-.119-.066-.296.03-.393.21-.097.182-.093.4.028.467.092.05.199-.007.286-.122l.056-.083c.005-.007.01-.014.012-.021.098-.182.131-.382.013-.446l-.002-.005zm-11.86-.455c.125-.057.292.051.374.24.083.188.078.394-.048.45-.125.058-.241-.066-.324-.254-.083-.188-.128-.38-.005-.436h.002zm10.667 2.556a.142.142 0 0 0-.145.134.14.14 0 0 0 .279.011.14.14 0 0 0-.134-.145zm-9.55-.367a.14.14 0 1 0-.01.28.14.14 0 0 0 .01-.28zm10.198-.33a44.611 44.611 0 0 0-5.34-.52 55.434 55.434 0 0 0-5.384.066c-.063.017-.058.211.025.205 1.797-.104 3.58-.13 5.353-.062 1.76.067 3.513.23 5.265.508.092.013.135-.185.083-.196h-.002z" fill-rule="nonzero"/><path d="M405.015 91.508a55.036 55.036 0 0 1 5.432-.066 44.65 44.65 0 0 1 5.342.52l.28-.425a.276.276 0 0 1-.213-.02c-.176-.097-.203-.39-.06-.653.143-.264.404-.4.58-.305.091.049.142.153.151.277l1.124-1.71c-.495.29-.796.477-1.399.544-.67.072-.981.292-.9.694.076.372-.147.31-.48.11-.728-.434-1.288.118-1.577.776-.19.434-.393.414-.396-.046-.003-.166.012-.31.001-.475-.03-.53-.184-.685-.49-.55-.39.17-.418.044-.32-.15.072-.139.215-.295.176-.517-.015-.16-.147-.224-.348-.246-.41-.594-1.062-1.186-1.471-1.78-.453.56-.93 1.11-1.383 1.67-.204.005-.339.059-.369.219-.056.218.109.377.17.521.082.198.042.322-.33.123-.295-.156-.44-.024-.51.502-.023.163-.036.328-.05.494-.039.458-.243.462-.399.015-.237-.678-.786-1.273-1.547-.897-.351.174-.49.224-.427-.144.07-.405-.229-.64-.89-.762-.596-.111-.882-.324-1.353-.65l.93 1.653a.28.28 0 0 1 .13-.13c.184-.083.434.074.556.349.123.272.073.565-.11.645a.282.282 0 0 1-.077.021l.222.395.005-.002zm10.312 2.557c-.017.006-.017.009-.058.024-.11.04-.196.149-.329.281a4.04 4.04 0 0 1-.517.426c-.029.023-.06.043-.103-.018-.043-.06-.014-.083.018-.104.195-.14.364-.28.5-.412.074-.073.138-.144.19-.211a34.2 34.2 0 0 0-.67-.097c-.189.05-.376.116-.534.205a.943.943 0 0 0-.336.284c-.02.032-.04.062-.105.022-.062-.04-.042-.073-.022-.106.088-.134.225-.245.388-.333a2.08 2.08 0 0 1 .255-.119 41.073 41.073 0 0 0-.757-.088.811.811 0 0 0-.15.106.982.982 0 0 0-.138.153c-.022.03-.045.06-.105.015s-.04-.075-.015-.105c.048-.067.102-.124.159-.176l.022-.02c-.19-.02-.38-.04-.57-.056a.807.807 0 0 0-.251.306c-.015.035-.03.068-.099.039-.067-.031-.052-.064-.036-.099a.982.982 0 0 1 .114-.188c.02-.025.044-.05.067-.075a47.66 47.66 0 0 0-.814-.06.115.115 0 0 1-.034.025.807.807 0 0 0-.16.115.692.692 0 0 0-.12.144c-.02.033-.04.065-.103.025-.065-.04-.045-.07-.025-.103a.796.796 0 0 1 .198-.22 51.198 51.198 0 0 0-1.717-.068.956.956 0 0 1 .183.237c.018.034.036.065-.032.1-.068.036-.083.002-.103-.032a.692.692 0 0 0-.108-.154.807.807 0 0 0-.152-.126.086.086 0 0 1-.034-.03 31.392 31.392 0 0 0-.818-.005.845.845 0 0 1 .165.281c.013.036.025.07-.044.096-.07.025-.083-.01-.096-.047a.801.801 0 0 0-.209-.307.112.112 0 0 1-.022-.024 46.85 46.85 0 0 0-.577.008l.03.03c.054.057.102.118.144.188.02.032.04.063-.023.104-.063.04-.083.008-.103-.023a.888.888 0 0 0-.285-.293c-.261.006-.523.013-.784.024.1.047.198.098.283.156.155.1.286.222.361.362.018.034.036.065-.03.103-.065.036-.083.004-.103-.03a.922.922 0 0 0-.313-.308 2.414 2.414 0 0 0-.573-.264h-.005a26.62 26.62 0 0 0-.637.032c.05.08.115.166.194.259.125.142.283.295.467.45.03.022.057.047.01.104-.047.058-.077.033-.105.01a4.204 4.204 0 0 1-.483-.464c-.084-.093-.224-.272-.307-.344-.456-.23-.826-.333-1.348-.4-.361-.047-.752-.05-1.077-.229.077.205.162.395.277.554.12.166.273.297.482.367.019.005.048.04.05.061.052.375.173.685.365.93.117.146.26.27.431.37a2.36 2.36 0 0 1-.384-.61 1.896 1.896 0 0 1-.144-1.002c.004-.038.01-.076.083-.066.075.01.07.048.065.086-.037.29-.002.607.136.923.122.284.355.576.657.846.055.047-.005.149-.073.127-.361-.118-.676-.317-.886-.582-.202-.254-.332-.574-.39-.956a1.104 1.104 0 0 1-.511-.409 2.32 2.32 0 0 1-.261-.496c.027 1.016.358 1.914.976 2.734.138.183.375.446.585.535.214.091.215.245-.057.237-.08 0-.163-.004-.249-.007.196.081.383.171.543.27.294.185.499.403.505.667.001.038.002.076-.072.078-.076.002-.076-.036-.077-.072-.007-.204-.18-.386-.435-.545-.262-.165-.603-.301-.937-.416-.365-.014-.74-.03-1.088-.035.09.07.185.143.303.211.19.112.437.221.801.32.209.058.389.139.544.237.164.106.3.232.405.371.023.03.045.061-.016.107-.06.045-.081.015-.106-.016a1.35 1.35 0 0 0-.364-.335 1.86 1.86 0 0 0-.504-.218 3.341 3.341 0 0 1-.836-.336 2.959 2.959 0 0 1-.425-.308c.39.947 1.014 1.398 1.915 1.708l.143.05c.007.003.014.003.02.006.203.057.412.11.626.154.216.044.39.082.615.112.037.004.075.01.065.083-.01.075-.048.07-.083.065a7.204 7.204 0 0 1-.626-.114c-.137-.029-.27-.06-.402-.093a1.856 1.856 0 0 1-.255.018c-.55.012-1.015.495-1.075 1.13a.158.158 0 0 1-.004.038c.216-.181.438-.355.666-.477.283-.15.575-.222.868-.13.035.01.073.022.049.094-.022.073-.057.062-.095.049-.248-.076-.502-.012-.754.12-.261.14-.518.355-.769.57-.07.347-.22.668-.52.875.142.086.24.163.382.121.208-.084.415-.169.628-.232.219-.065.44-.106.673-.11.038 0 .076.001.076.077s-.036.075-.077.076a2.24 2.24 0 0 0-.63.101c-.18.055-.358.124-.534.195.52.132 1.09.04 1.587-.126.144-.047.253-.09.319-.085.123-.066.27-.115.414-.171.16-.06.318-.11.437-.119.038-.003.076-.006.08.07.006.076-.032.077-.07.08-.266.02-.302.038-.533.167-.001.05-.161.129-.307.216-.087.053-.17.117-.212.15-.233.196-.357.416-.471.663a2.882 2.882 0 0 0-.182.524c.14-.25.306-.488.504-.699.232-.247.51-.457.841-.596.034-.015.07-.028.098.04.028.07-.005.082-.04.097a2.28 2.28 0 0 0-.79.563 3.513 3.513 0 0 0-.55.797c-.078.149-.018.002-.106.2a5.42 5.42 0 0 1 .792-.698c.322-.224.685-.346 1.002-.277.036.009.073.017.059.09-.015.073-.053.065-.09.059-.273-.06-.595.053-.885.253-.295.206-.598.505-.9.821.434.079.87-.028 1.291-.152.219-.063.446-.303.58-.338a3.144 3.144 0 0 1 .392-.381c.03-.023.059-.045.106.014.048.058.016.08-.013.106a2.51 2.51 0 0 0-.236.214c-.08.08-.154.167-.228.259-.015.018-.033.039-.059.036-.148.16-.372.37-.429.552-.154.492-.093.874-.341 1.353.171-.083.31-.18.426-.301.131-.137.235-.311.325-.533.097-.243.242-.453.42-.624.184-.176.403-.307.633-.384.036-.01.072-.023.096.049.023.072-.013.082-.049.095a1.53 1.53 0 0 0-.578.35 1.608 1.608 0 0 0-.385.571 1.76 1.76 0 0 1-.356.58 1.49 1.49 0 0 1-.381.286c.123-.002.185-.016.287-.005.187-.007.505-.138.671-.257.161-.115.286-.274.384-.474.015-.035.033-.067.1-.034.068.034.053.066.035.101-.108.224-.25.403-.43.531a1.223 1.223 0 0 1-.474.203 3.43 3.43 0 0 0 1.115-.194c.157-.051.222-.39.32-.482a2.31 2.31 0 0 1 .263-.364c.117-.129.249-.23.4-.286.036-.013.07-.026.096.046.025.07-.01.083-.044.096a.884.884 0 0 0-.34.243 2.12 2.12 0 0 0-.245.34c.017.173-.141.535-.153.717-.035.485-.042.968.07 1.454a5.03 5.03 0 0 1 .4-.44c.001-.012.002-.024.005-.035.052-.25.098-.516.125-.783.026-.265.036-.528.015-.78-.003-.038-.006-.076.067-.08.077-.007.08.031.08.07.024.263.013.536-.014.805a7.183 7.183 0 0 1-.095.634c.132-.115.13-.116.192-.236.094-.187.154-.372.18-.556a1.544 1.544 0 0 0-.01-.546c-.008-.035-.014-.074.06-.087.074-.014.082.022.088.06.038.191.044.393.01.598-.025.153-.069.31-.134.467a5.96 5.96 0 0 1 .433-.273 6.804 6.804 0 0 1 .013-.538c.011-.16.03-.316.06-.448.012-.047.02-.094.115-.074.094.02.085.067.073.117a2.958 2.958 0 0 0-.054.417 7.844 7.844 0 0 0-.012.576c.004.195.099.443.275.556.238.157.36.4.415.666.051-.342.066-.661.044-.947a2.248 2.248 0 0 0-.237-.882c-.017-.034-.035-.065.033-.103.065-.035.083-.001.1.032.14.267.225.58.254.942a4.51 4.51 0 0 1-.075 1.155c.249-.185.925-.577.887-1.375a.835.835 0 0 0-.06-.18c-.015-.034-.03-.068.038-.098.067-.03.083.003.098.037.037.08.065.166.082.264.01.057.015.117.02.18.03-.015.11-.097.124-.087.055.04.134.095.184.135a2.012 2.012 0 0 1-.083-.425 1.728 1.728 0 0 1 .056-.596c.01-.035.02-.072.092-.053.073.02.062.057.054.092-.05.171-.066.356-.052.544.014.183.059.374.137.567.009.02.018.039.01.06.055.052.107.103.16.16a7.36 7.36 0 0 1-.044-.606 4.172 4.172 0 0 1 .048-.807c.006-.038.012-.076.085-.064.073.013.067.05.061.086-.04.25-.05.513-.044.778a7.595 7.595 0 0 0 .066.807c.123.145.214.293.342.478.15-.476.21-.957.212-1.443.003-.18-.142-.544-.126-.722a2.18 2.18 0 0 0-.223-.366.86.86 0 0 0-.32-.269c-.035-.015-.067-.03-.038-.098.03-.068.066-.055.098-.04.145.068.27.18.377.316.086.11.162.24.23.375.134.021.168.43.32.515.359.149.697.25 1.063.278a1.23 1.23 0 0 1-.453-.238 1.364 1.364 0 0 1-.389-.563c-.013-.036-.028-.07.042-.098.07-.028.083.008.098.042.082.207.194.377.346.501.195.164.673.32.936.338a1.566 1.566 0 0 1-.36-.318 1.802 1.802 0 0 1-.312-.605 1.628 1.628 0 0 0-.34-.599 1.522 1.522 0 0 0-.549-.393c-.035-.016-.068-.029-.041-.099.028-.068.063-.054.099-.041.224.094.431.24.602.43.164.183.293.406.37.656.073.228.163.407.283.556.107.132.24.242.407.336-.213-.5-.123-.875-.236-1.378-.072-.309-.525-.677-.428-.775.11-.117.307.22.575.323.41.156.836.295 1.272.25-.277-.337-.554-.659-.834-.888-.274-.224-.549-.353-.823-.316-.038.006-.074.011-.085-.065-.01-.074.026-.08.065-.085.321-.045.634.1.937.349.255.209.46.433.71.734-.039-.113 0-.033-.064-.185a3.654 3.654 0 0 0-.49-.837 2.375 2.375 0 0 0-.745-.622c-.032-.018-.065-.033-.031-.1.033-.066.068-.05.1-.032.32.166.58.394.793.659.184.227.33.482.453.745a2.684 2.684 0 0 0-.14-.544c-.095-.255-.202-.484-.42-.696-.14-.139-.481-.35-.476-.443-.067-.038-.077-.03-.147-.063a1.705 1.705 0 0 0-.383-.138c-.038-.006-.076-.012-.063-.085.012-.076.047-.07.085-.063.118.018.27.076.426.149.077.036.152.108.227.15.125.015.325.125.486.195.48.203 1.044.339 1.57.248a6.022 6.022 0 0 0-.52-.236 2.224 2.224 0 0 0-.62-.15c-.038-.004-.076-.005-.071-.08.005-.076.043-.073.08-.071.233.018.45.079.664.16.208.08.408.18.608.28.137.07.24-.007.39-.092-.283-.229-.408-.56-.451-.909l-.005-.005c-.233-.234-.473-.468-.723-.628-.24-.151-.489-.234-.742-.177-.036.008-.075.016-.09-.056-.017-.074.019-.082.055-.09.299-.067.585.024.856.196.217.139.428.33.63.53l-.002-.04c-.01-.642-.437-1.156-.985-1.21-.184-.02-.45.032-.438-.093.015-.14.234-.096.562-.183.923-.24 1.579-.64 2.043-1.558a3.228 3.228 0 0 1-.452.277 3.285 3.285 0 0 1-.86.27c-.195.038-.368.1-.518.18a1.433 1.433 0 0 0-.39.305c-.024.028-.049.058-.106.008-.058-.05-.03-.077-.008-.107.117-.13.26-.246.433-.34a2.05 2.05 0 0 1 .56-.193c.37-.072.625-.161.823-.258.124-.06.223-.122.318-.187-.35-.023-.722-.035-1.086-.049-.343.091-.694.201-.967.342-.266.14-.453.305-.475.511-.004.038-.008.076-.083.066-.076-.008-.072-.046-.066-.084.03-.262.248-.464.555-.626.167-.086.36-.161.562-.227a9.432 9.432 0 0 1-.246-.012c-.275-.015-.26-.167-.039-.241.217-.072.463-.317.615-.489.672-.766 1.04-1.653 1.182-2.634a2.274 2.274 0 0 1-.29.458 1.135 1.135 0 0 1-.54.368c-.089.376-.243.686-.463.924a1.779 1.779 0 0 1-.895.511c-.07.016-.12-.087-.064-.133.323-.246.544-.515.69-.79a1.77 1.77 0 0 0 .206-.91c-.001-.037-.004-.075.072-.08.073-.004.077.034.077.072a1.89 1.89 0 0 1-.222.988 2.36 2.36 0 0 1-.43.579c.176-.086.33-.199.456-.336.21-.23.355-.53.438-.899.003-.019.035-.05.054-.057a.985.985 0 0 0 .508-.33c.127-.148.226-.33.32-.528-.338.151-.726.124-1.09.144a3.75 3.75 0 0 0-1.326.31l.003-.003z" fill-rule="nonzero"/><path d="M415.203 93.645c-1.603-.27-3.208-.391-4.823-.456a46.886 46.886 0 0 0-4.884.078c-.048.013-.039.077-.038.108.002.067.085.086.284.075a49.186 49.186 0 0 1 4.584-.044c1.596.06 3.198.172 4.817.427.078.024.19-.195.06-.19v.002z"/><path d="M405.55 93.106a46.695 46.695 0 0 1 4.836-.075 37.52 37.52 0 0 1 4.784.485l.085-.298a.292.292 0 1 1 .144-.364l.158-.398a44.544 44.544 0 0 0-5.13-.486 55.485 55.485 0 0 0-5.204.054l.123.393a.292.292 0 0 1 .244-.118.292.292 0 1 1-.107.565l.07.225-.006.017h.002zm7.3-.706a.292.292 0 1 0-.022.582.292.292 0 0 0 .022-.582zm-.005.151a.14.14 0 0 0-.011.28.142.142 0 0 0 .145-.135.14.14 0 0 0-.134-.145zm-2.555-.314a.292.292 0 1 0-.022.583.292.292 0 0 0 .022-.583zm-.005.152a.14.14 0 1 0-.01.28.14.14 0 0 0 .01-.28zm-2.517-.192a.292.292 0 1 0-.046.581.292.292 0 0 0 .046-.58zm-.005.152a.139.139 0 0 0-.145.134.139.139 0 0 0 .134.145.14.14 0 0 0 .01-.28z" fill-rule="nonzero"/></g><path d="M410.467 90.482a.765.765 0 0 0-.22-.424.822.822 0 0 0-.436-.225c-.078-.013-.087-.141-.01-.162a.744.744 0 0 0 .384-.3c.113-.16.201-.365.248-.598.015-.08.155-.077.164.004.027.2.106.367.21.501.125.162.286.277.445.345.072.03.053.151-.025.16a.527.527 0 0 0-.342.193 1.382 1.382 0 0 0-.257.514c-.022.078-.15.068-.163-.01l.002.002zm.089-.277c.052-.12.12-.24.205-.338a.756.756 0 0 1 .242-.19 1.354 1.354 0 0 1-.328-.297 1.288 1.288 0 0 1-.162-.281c-.05.138-.117.26-.192.367a1.057 1.057 0 0 1-.266.265c.116.05.22.12.31.206a.948.948 0 0 1 .19.268zm1.427 12.187l-1.239.44c-.04.016-.084.03-.111-.053-.03-.082.013-.097.054-.112l1.238-.441c.041-.015.084-.03.112.054.03.082-.013.097-.054.112zm.17-.767l-1.461.722c-.039.02-.08.04-.12-.04-.04-.08.002-.1.04-.12l1.46-.722c.04-.02.08-.04.12.04.04.08-.001.1-.04.12zm-4.32-.32l1.401.832c.037.022.077.045.031.122-.046.076-.083.054-.122.03l-1.4-.831c-.038-.023-.077-.046-.032-.122.046-.077.083-.054.123-.031zm.092.767l1.201.535c.042.018.082.036.045.115-.036.082-.076.064-.118.046l-1.2-.535c-.04-.018-.08-.036-.046-.116.036-.081.076-.063.116-.045h.002zm.491 1.048c.322.091.614.138.845.106.21-.03.373-.128.466-.328l.045-1.168a2.753 2.753 0 0 1-.714-.124.68.68 0 0 1-.46-.44c-.087-.257-.043-.56.02-.78.014-.042.025-.084.11-.06.084.025.073.067.06.11-.056.192-.097.456-.024.672a.506.506 0 0 0 .348.33c.213.067.465.107.723.117.254.01.508-.011.724-.067a.916.916 0 0 0 .466-.274.552.552 0 0 0 .15-.412.274.274 0 0 0-.108-.193.584.584 0 0 0-.3-.1c-.11-.009-.223.008-.338.025a3.25 3.25 0 0 1-.183.024c-.045.003-.088.009-.097-.08-.008-.088.037-.093.08-.096.055-.005.114-.015.174-.022a1.67 1.67 0 0 1 .378-.028c.142.01.285.054.393.136a.436.436 0 0 1 .178.318.723.723 0 0 1-.194.545c-.132.149-.321.27-.556.327a2.8 2.8 0 0 1-.653.075l-.044 1.143a.053.053 0 0 1 .004.038c.08.198.23.306.432.351.228.052.523.025.85-.04.044-.01.087-.018.105.068.015.088-.025.096-.07.104-.35.07-.666.095-.922.04a.744.744 0 0 1-.497-.332c-.123.17-.305.261-.522.293-.26.038-.573-.012-.916-.111-.042-.011-.087-.022-.062-.11.022-.084.067-.072.11-.059v.002zm.824.53l.953.015c.045.002.09.001.087.091-.002.09-.047.089-.091.087l-.953-.015c-.045-.002-.088-.001-.087-.091.001-.09.046-.089.091-.087zm1.685-7.245c.369-.282.714-.51 1.029-.665.321-.158.611-.24.86-.218.044.004.087.006.081.095-.006.088-.05.086-.095.082-.218-.018-.477.058-.772.2-.302.148-.638.37-.997.648-.034.027-.071.054-.125-.017-.054-.07-.018-.098.017-.125h.002zm-1.438.078a4.777 4.777 0 0 0-1.025-.784c-.323-.181-.625-.28-.85-.27-.046.003-.089.006-.093-.084-.006-.088.04-.091.085-.092.261-.014.594.096.947.29a5.03 5.03 0 0 1 1.062.812c.032.032.064.061 0 .125-.062.062-.094.032-.126 0v.003zm-.596 2.358c.095-.193.21-.36.342-.506a3.15 3.15 0 0 1 .428-.387c.034-.027.07-.054.122.017.055.07.018.097-.016.125-.144.108-.28.228-.403.364a2.047 2.047 0 0 0-.314.464c-.021.04-.04.08-.118.04-.08-.038-.061-.077-.04-.117zm1.037-4.073c.11.161.195.337.25.539.053.196.078.418.066.664.005.19 0 .391-.039.59a1.311 1.311 0 0 1-.252.573.677.677 0 0 1-.789.22c.06.24.102.498-.014.73a.093.093 0 0 1-.122.039c-.1-.056-.2-.11-.298-.159a3.624 3.624 0 0 0-.296-.132l-.002-.002a3.457 3.457 0 0 1-.549-.287c-.15-.098-.265-.2-.344-.307l.003.004a.926.926 0 0 1-.193-.41 1.944 1.944 0 0 1-.037-.414 5.48 5.48 0 0 1-.449-.293 2.424 2.424 0 0 1-.369-.325c-.03-.034-.06-.066.007-.125.067-.06.096-.025.126.007.088.099.203.198.344.3.138.1.296.204.472.306.292.042.58.143.866.291.247.128.49.292.734.484.03.018.043.04.062.05.018.015.036.032.057.047a.565.565 0 0 0 .359.052.49.49 0 0 0 .296-.188 1.15 1.15 0 0 0 .219-.5c.035-.18.04-.37.035-.553v-.005a2.009 2.009 0 0 0-.059-.614 1.583 1.583 0 0 0-.223-.485c-.025-.037-.05-.073.021-.123.07-.05.098-.012.123.022l-.005.004zm-.984 2.446a4.398 4.398 0 0 0-.719-.479 2.67 2.67 0 0 0-.735-.26c0 .114.01.22.03.321a.732.732 0 0 0 .156.333l.002.003c.068.09.167.177.299.265.138.09.31.18.523.272l-.002-.003a5.654 5.654 0 0 1 .526.253c.052-.195-.008-.425-.063-.636-.004-.02-.01-.036-.02-.07h.003zm1.93-2.305a1.53 1.53 0 0 0-.26.467 1.95 1.95 0 0 0-.107.607v.005a2.55 2.55 0 0 0-.007.555c.021.179.074.354.18.514.07.11.17.178.28.21a.565.565 0 0 0 .362-.024l.06-.042c.015-.01.033-.028.067-.045a4.36 4.36 0 0 1 .768-.426c.296-.126.591-.203.886-.225.181-.088.348-.176.494-.268.146-.091.27-.181.364-.273.032-.03.064-.061.126.003.061.064.03.093-.005.125-.106.1-.238.2-.393.296a5.893 5.893 0 0 1-.47.257 1.92 1.92 0 0 1-.068.41.939.939 0 0 1-.224.395l.002-.005a1.305 1.305 0 0 1-.366.28 3.6 3.6 0 0 1-.572.244l-.002.002a3.624 3.624 0 0 0-.305.11 5.92 5.92 0 0 0-.31.134.093.093 0 0 1-.118-.047c-.098-.24-.036-.495.042-.729a.703.703 0 0 1-.39.002.666.666 0 0 1-.38-.283 1.311 1.311 0 0 1-.207-.591 2.753 2.753 0 0 1 .006-.59 2.13 2.13 0 0 1 .118-.658c.069-.196.168-.368.29-.517.027-.035.055-.07.124-.012.069.055.041.09.012.124l.002-.005zm2.16 1.779c-.25.026-.5.097-.752.203-.25.107-.5.249-.754.422l-.022.068c-.072.206-.149.43-.112.629.075-.033.15-.066.225-.096.106-.043.21-.082.32-.116l-.003.003a3.48 3.48 0 0 0 .543-.231c.14-.075.243-.157.32-.241l.002-.003a.784.784 0 0 0 .18-.32 1.68 1.68 0 0 0 .058-.318h-.005z" fill="#000" fill-rule="nonzero"/><path d="M412.26 96.784a.513.513 0 1 0-.04 1.025.513.513 0 0 0 .04-1.025zm-.006.163a.349.349 0 1 0-.026.698.349.349 0 0 0 .026-.698zm-.006.142a.206.206 0 1 0-.015.413.206.206 0 0 0 .015-.413zm-4.008-.448c.282.011.506.25.495.531a.515.515 0 0 1-.534.495.513.513 0 0 1 .04-1.026zm-.006.164a.349.349 0 1 1-.028.697.349.349 0 0 1 .028-.697zm-.005.142a.206.206 0 1 1-.016.412.206.206 0 0 1 .016-.412z" fill="#000" fill-rule="nonzero"/><path d="M467.2 94.9l-19.3-22-25.2 14.5-4.3 51.1a219.7 219.7 0 0 1 36.2 6L467.2 95v-.1z" fill="#171796"/><path d="M427.7 98c.8-.2 1.7-.2 2.6.3.3.1.6.3.8.6.4-.3.7-.6 1.2-.8a4 4 0 0 1 1.8-1c.9-.5 1.8-.8 2.7-.9h2.8c.8 0 1.6.2 2.3.6l2 1c.8.4 1.5.8 2.2 1a9.1 9.1 0 0 0 4.5.5c.4-.2.7.1.2.4-3.3 2-5.9.2-8.1-.6a16.2 16.2 0 0 1 2.1 1.7c.8.8 1.8 1.6 3.5 2.4a8.4 8.4 0 0 0 5 .7l.4.1-.1.5a4.8 4.8 0 0 1-2.6.7 10 10 0 0 1-5.2-1.3c-1.4-.7-2.3-1.6-3.3-2.4a7.5 7.5 0 0 0-3-1.4 6 6 0 0 0-2.9 0c.3.1.5.2.6.4.5.3 1 .4 2 .5.4 0 .2.3-.5.7a2 2 0 0 1-1.6.8c-1 .6-1.3.2-1.7-.2 0 .3 0 .5-.2.8a.6.6 0 0 1 0 .4l.2.7c0 .2 0 .3.2.4.2.2.3.4.3.7 0 .2.1.3.3.4l.6.6c.6.2.8.7 1 1.2.4.2.6.5.7.9.2 0 .4.2.6.4l2.6.1c.8.1 1.4.6 2 1.2h1.2a4 4 0 0 1 1.3-.3h2.3c.5.2.9.4 1.2.8.5.5 1.2.4 1.8.2a2.7 2.7 0 0 1 2.4 0 2.3 2.3 0 0 1 1-.2c.4-.3.7-.4 1-.4.6 0 1 0 .9.8 0 .2-.2.4-.3.4-.3.6-.7.7-1.3.7-.1.4-.3.7-.5.8.3.9 0 1.3-.7 1.2 0 .3-.3.4-.6.4a1.4 1.4 0 0 1-1 .5l.4.6c.4.7-.2 1-.8 1v1.2c.7.4.8.8.2 1.2.4.7.3 1.3-.5 1.6 0 .4 0 .8-.3 1-.2.2-.5.3-.3.6.3.5.2 1.1-.2 1.2l-.2.1-.2.2a9.6 9.6 0 0 0-1.5 1c-.1 0-.2.1-.2 0a9.6 9.6 0 0 1-1.8 2.4c0 .5-.4 1-1 1.1a.4.4 0 0 1-.3.4c.3.3.5.6.2 1a3 3 0 0 1-1.3.8c-1 .3-1.7.2-2-.2-.4-.3-.3-.6 0-.7-.7 0-.8-.2-.8-.7 0-.2.1-.2.3-.1.4 0 .7-.2 1-.3l.5-.6c0-.7.5-1 1.1-1.3.5-.2 1-.6 1.4-1.2l.9-1.5a1.2 1.2 0 0 1-.3-.7 1.5 1.5 0 0 1-.5-.6c-.5 0-.7-.2-.7-.5a1.1 1.1 0 0 1-.3 0c-.3.1-.5.3-.7.2a6.9 6.9 0 0 1-1.1 1c-.2.3-.4.5-.7.5-1 .1-1.5 1.2-2 1.7-.2.1-.3.4-.4.7 0 .6-.1 1-.4 1h-.4a1.2 1.2 0 0 0-.4 0c.3.3.3.6 0 .9-.1.3-.4.4-.8.4a3.6 3.6 0 0 1-1.6-.2c-.4-.2-.5-.5-.5-.7-.3-.2-.4-.3-.3-.5 0-.2.2-.3.4-.2l.6-.2a5.2 5.2 0 0 1 1.8-1.4 3 3 0 0 1 .7-.7c0-.5.5-1 1-1.4l.1-.6v-.3c-.2-.3-.3-.7-.1-1a1.3 1.3 0 0 1 0-.6c-1.1.6-1.5.4-1.6-.1-.4.3-.8.5-1 0-.4.1-.8.3-1.2.1l-.8.2-.4.7c0 .5-.2 1-.5 1.5a9.3 9.3 0 0 1-.7 1.5 1 1 0 0 1-.1.5c0 .6-.2.9-.5 1a2.4 2.4 0 0 1-.4.8v.2c.1.3.1.7-.2 1l-1 .6h-1c-.4-.3-.4-.4-.3-.6a.6.6 0 0 1-.5 0l-.4-.3c-.1-.2-.1-.4.1-.5l.9-.6c0-.2.2-.3.4-.4.2-.4.4-.6.6-.7l.7-1.5c.1-.1.2-.3.1-.4l.1-.3s.2-.1 0-.2a1.4 1.4 0 0 1 .2-1.2c.3-.4.6-1.4.3-2v-.8h-.3c-.2-.2-.4 0-.6.2l-.4.6c-.1.8-.5 1.5-1 1.6v1.2c0 .4 0 .7-.2.7s-.4.2-.5.5a1 1 0 0 0-.1.3c.3.3.2.7-.1 1-.6.6-1.4.5-2.2.3-.6-.3-.8-.5-.7-.8-.8 0-.7-.7 0-.9.8-.2 1.4-.7 1.9-1.4 0-.8.2-1.3.7-1.4 0-.5.2-1 .4-1.4.2-.4.3-.8.2-1.3-.4-.3-.4-.6 0-1 .1 0 .1 0 0-.2-.3 0-.3-.3-.3-.5s0-.2-.2-.2c-.6-.1-.5-.4-.2-.7.1 0 .2-.3 0-.4l-.1-.4c-.4-.3-.2-.6 0-.9l-.4-.8c-.7 0-1-.4-.6-.9a3.4 3.4 0 0 1 .7-.6c.1-.3.3-.6.2-.8-.2-.6.5-1 1-1.4a.9.9 0 0 1-.1-.4c-.3-.3-.2-.6.1-.8a1 1 0 0 1-.1-.5c-.8.2-.8-.3-.4-1-.5-.3-.4-.8.5-1.5a1 1 0 0 1 0-.4 2 2 0 0 0-1 .3c-.3.3-.6.2-.9.1a1.5 1.5 0 0 0-.4-.4.6.6 0 0 1-.2-.6c-1 0-1.1-.7-.6-1 .3-.3.6-.6.7-.9.2-.6.7-1 1.3-1.5v-.5a1.6 1.6 0 0 0-.7-.3 1.2 1.2 0 0 0-.6-.7c-.1 0-.2-.2 0-.4-.6-.4-.5-.7-.3-1z" fill="#000"/><g fill="#F7DB17"><path d="M444.5 122a1.4 1.4 0 0 1-.2 0 8.4 8.4 0 0 1-.8.7c-.2-.3-.5 0-.2.1l-.2.2c0 .3-.2.4-.5.4h-.1a3 3 0 0 1 0-.3 3.5 3.5 0 0 1 0-.4 3.9 3.9 0 0 0-.1.4 2.8 2.8 0 0 0 0 .4c-.8.3-1.3 1.1-1.9 1.7l-.4.8c0 .2 0 .9-.3.9h-.2c0-.1-.2-.1-.4 0h-1c-.2.2.4.2.7.3.1.1.2.3.1.5-.2.7-1.8.5-2.3.2-.2-.1-.2-.3-.2-.5h.3c.2 0 .4 0 .5-.2 0 0 .1 0 0-.1 0-.1 0-.1 0 0a1.3 1.3 0 0 1-.5 0 2.6 2.6 0 0 1-.5 0h-.2c0-.1.2 0 .2 0l.7-.3a5.3 5.3 0 0 1 1.9-1.4l.8-.7c0-.7.4-1 .8-1.5l.3-.7v-.3c-.2-.4-.3-.7-.1-1a1.5 1.5 0 0 1 0-.8.3.3 0 0 0 0-.1 6.2 6.2 0 0 1 .8-.6v.8a1.3 1.3 0 0 0-.2.3.5.5 0 0 0 0 .2v.1a.4.4 0 0 1 0-.3l.3-.2.7-.4.7-.6v1l-.6.7v.1h.1a2.3 2.3 0 0 1 .5-.7 3.2 3.2 0 0 1 1-.6v1a1.5 1.5 0 0 0 .5.9z"/><path d="M429 113l.2-.2.4-.6a4 4 0 0 1 .5-.6 4 4 0 0 0-.4.7 5.8 5.8 0 0 0-.4.5v.2c.1.3.1.5.3.7l.3-.4a1.6 1.6 0 0 1 .4-.4 1.8 1.8 0 0 0 .5-.6h.1l-.2.4a2 2 0 0 1-.3.3l-.4.3a1.3 1.3 0 0 0-.2.4v.3c-.2.3-.5.5 0 .7a.6.6 0 0 0 .1.5l-.1.7c-.3.2 0 .2.1.2l.4-.4a4.3 4.3 0 0 1 .3-.4l.4-.5.1-.5h.1a1.4 1.4 0 0 1-.1.6 2 2 0 0 1-.5.5 3.8 3.8 0 0 0-.2.4 2.6 2.6 0 0 0-.3.4c.2.1.2.4.2.7h.1l.2-.2.2-.4h.1l-.2.4-.2.3c.2.1.2.3 0 .5-.4.3-.3.4 0 .7v1.2l.1.3h-.1v-.3c-.4.7-.6 1.1-.7 1.8-.6.1-.5.8-.6 1.3a3.9 3.9 0 0 1-1.9 1.5c-.1 0-.5.1-.5.3 0 .1.2.3.4.2.4-.5.7-.2.2.2v.3c.5.4 1.6.5 2.2.2.3-.3.5-.5.2-.9 0-.5.2-1 .8-1.2v-.4l.1-1.3.2-.1c.2 0 .6-.7.7-1.3v-.4c.1-.2.2-.2.3 0 0-.2 0-.3.2-.4.2-.3.5-.6.8-.4a3 3 0 0 1-.1-.8 2.7 2.7 0 0 1 0-1l.2-.2.3-.7.3-.7h.1l-.3.7-.3.8v.1a2.5 2.5 0 0 0-.1 1l.2.9.2.4v.6c.4.6 0 1.7-.3 2.2a1 1 0 0 0-.1.8c.2.2 0 .4-.1.6v.1c0 .2 0 .4-.2.5l-.7 1.6c-.4.1-.5.3-.6.7-.3.1-.3.2-.4.4a2.7 2.7 0 0 1-.9.6c-.3.1 0 .2.2.4.2.1.4-.2.6-.4.2-.3.3-.2.2 0a2 2 0 0 0-.2.7l.7.3c.4 0 .9-.4 1.2-.6.3-.2.2-.5.1-.8a2 2 0 0 1-.5 0 3.4 3.4 0 0 1-.5-.3 2.8 2.8 0 0 0 1 .2v-.3a2.7 2.7 0 0 0 .5-.8c.4-.2.4-.4.4-.9l.1-.5a10 10 0 0 0 .7-1.6c.4-.4.5-.9.5-1.4 0-.2.1-.3.3-.3a3.8 3.8 0 0 0 .3-.5l.1-.4a.8.8 0 0 1 .2-.2 1 1 0 0 0 0-.5 1.1 1.1 0 0 0-.1-.4.5.5 0 0 1-.1-.2v-.2h.1c.1 0 0 0 0 0v.1a.5.5 0 0 0 0 .2c.2.2.2.3.2.5a1 1 0 0 1 0 .5.7.7 0 0 0-.2.2 1.7 1.7 0 0 0 0 .3l.6-.1.4-.5.2-.6c.1 0 0 0 0 0a2 2 0 0 1-.1.7l-.3.3c.4.2.7 0 1 0V119l.4-.7c.1 0 .1 0 0 0l-.2.8v1c.1.4.2.5.5.3l.4-.2v-.1a18.2 18.2 0 0 1 1.8-1.6c.1.1 0 .1 0 .1a6.5 6.5 0 0 0-.8.7l-.8.7v.3c0 .3.1.5.6.3l.6-.2a1.3 1.3 0 0 1 .3-.2 8 8 0 0 1 .5-.3l.5-.3a3 3 0 0 1 .1-.6l.7-1.3a2.3 2.3 0 0 0 1.1-1.1h.1l-.4.7a2.5 2.5 0 0 1-.7.5l-.7 1.2a2.7 2.7 0 0 0-.1.5v.1a2.8 2.8 0 0 0 0 .8c.2 0 .4 0 .7-.3l.7-.7a1.7 1.7 0 0 1 .2-.5 1 1 0 0 1 .4-.4h.1v.1a.9.9 0 0 0-.4.3 1.7 1.7 0 0 0-.2.5v1.1l1-.5v1c0 .3.2.6.4.8a2.8 2.8 0 0 1 .5-.6l.3-.3.2-.2.3-.2-.2.3-.2.2-.3.2v.5h.6c0 .5 0 .6.5.6a3.2 3.2 0 0 1 0-.5l.1-.5h.1a1.9 1.9 0 0 0-.1.5 3.1 3.1 0 0 0 0 .5c.2.3.3.4.7.6l.2-.5a1.4 1.4 0 0 0 0-.4h.1v.5l-.3.5v.5a3 3 0 0 1 .2-.3l.3-.4c.1 0 .1 0 0 0 0 .2 0 .3-.2.4a4 4 0 0 0-.2.4l.2.2c-.6 1-1.3 2.5-2.5 3-.6.2-.9.5-1 1.2a1 1 0 0 0-.5.6l-1.2.3c0 .3 0 .4.3.4l.7-.3c.1 0 0 .5-.5.8v.1c.4.6 1.4.4 1.9.2.4 0 1-.5 1.2-.9.1-.2 0-.4-.2-.6-.8.1-.6-.6 0-.3.2 0 .3 0 .3-.3.6-.2.9-.5 1-1 .6-.7 1.2-1.4 1.6-2.1.1-.2.2-.4.1-.5a1 1 0 0 0 .2-.5l.1-.4h.1v.5a4.5 4.5 0 0 1-.2.3c0 .1 0 .2.2.2l1.5-1c0-.3.2-.4.4-.4l.2-.1c.1-.4 0-.6-.2-.8-.1-.4.1-.5.4-.7.2-.2.2-.7.2-1v-.2a2.6 2.6 0 0 0 0-.3l.1.3v.1c.3-.1.6-.3.7-.6 0-.3-.1-.6-.3-.8a9.6 9.6 0 0 1-.6.2 10.2 10.2 0 0 0 .7-.4 1.3 1.3 0 0 0 .3-.2c.2-.3-.3-.5-.5-.6l-.7-.7v-.1l.7.6v-1.1l-.2-.4a1.1 1.1 0 0 1-.5-.4 1 1 0 0 1-.1-.5l.2.4.4.4h1c.3-.3-.2-.7-.3-.9l-.1-.5h.1a1 1 0 0 0-.2-.2.6.6 0 0 0-.1 0v-.2a.7.7 0 0 1 .2.1l.2.2a.9.9 0 0 0 .1 0c.3 0 .5-.2.7-.5a3.6 3.6 0 0 0-.3-.4 10 10 0 0 0-.5-.3v-.1h.1a4 4 0 0 1 .8.8c.4 0 .4 0 .6-.3a1.5 1.5 0 0 0-.2-.4 2.5 2.5 0 0 0-.3-.4c0-.1 0 0 0 0 .2 0 .3.2.4.3l.2.5.4-.1c.3-.2 0-.8 0-1a2.8 2.8 0 0 0-.1 0l-.2-.2c0-.1 0 0 0 0h.2l.2.1.4-.6c0-.4 0-.2.5-.3.4 0 .6 0 .9-.6.1 0 .2 0 .2-.3s0-.4-.3-.4c-.5 0-.8 0-1 .3v.3c0 .1 0 0 0 0l-.2-.2c-.4 0-.7 0-1.1.2h-.2l.2.3.1.4a1 1 0 0 0-.2-.4 1.8 1.8 0 0 0-.3-.4 2.6 2.6 0 0 0-1-.2l.2.1.2.2v.1a7.7 7.7 0 0 1-.2-.2 6.5 6.5 0 0 1-.2-.2 2.7 2.7 0 0 0-.9.2l-.6.2.4.5.2.6a2.1 2.1 0 0 0-.3-.6 1.9 1.9 0 0 0-.4-.4 1.8 1.8 0 0 1-.5 0l.2.3-.3-.4a1.4 1.4 0 0 1-.5-.2 8.3 8.3 0 0 1 .2 1.5 7.8 7.8 0 0 0-.2-.9 4.7 4.7 0 0 0-.1-.7 1.7 1.7 0 0 1-.2-.2 2.1 2.1 0 0 0-.6-.4 1 1 0 0 1-.2.7c-.1 0 0 0 0 0a.8.8 0 0 0 .1-.8 3.1 3.1 0 0 0-1-.2 5.3 5.3 0 0 1 .5.8l.3.5v.5a2 2 0 0 0-.1-.5.7.7 0 0 0-.3-.4 5.6 5.6 0 0 0-.3-.5 4.6 4.6 0 0 0-.3-.4h-.4.1a.6.6 0 0 1 0 .3.5.5 0 0 0 0-.2.7.7 0 0 0-.2-.1h-.8a5 5 0 0 1 1 2.3 4.8 4.8 0 0 0-.4-1.2 5.1 5.1 0 0 0-.7-1h-.6c.155.11.29.245.4.4 0 .1 0 .1 0 0a1.6 1.6 0 0 0-.3-.1 2.4 2.4 0 0 0-.3-.2 5 5 0 0 0-.3 0l-.1.1a4.7 4.7 0 0 1 1 1.1c0 .1 0 0 0 0a3.8 3.8 0 0 0-.6-.6 4.7 4.7 0 0 0-.6-.4h-.6a5 5 0 0 1 .5 1.7h-.1a3.5 3.5 0 0 0-.2-.8 6.2 6.2 0 0 0-.3-.9 8 8 0 0 1-.4 0 9.1 9.1 0 0 1 .3 1.6v.1a9.3 9.3 0 0 0-.2-1 9.3 9.3 0 0 0-.3-.8 3.9 3.9 0 0 0-1.3-1 1.7 1.7 0 0 1 .4 1.1v.1a1.6 1.6 0 0 0-.2-.7 1.7 1.7 0 0 0-.4-.6 2 2 0 0 0-.3 0 15.6 15.6 0 0 0-1 0c.2.1.4.4.4.6 0-.2-.3-.5-.6-.7h-.6l.3.3.2.5.2.6.4.4s.1 0 0 0c0 .1 0 .1 0 0a1.1 1.1 0 0 1-.5-.3 1.5 1.5 0 0 1-.2-.7 1.3 1.3 0 0 0-.2-.4 2.7 2.7 0 0 0-.3-.4h-.7l.2.8.1 1h-.1a7.1 7.1 0 0 0 0-1 4.5 4.5 0 0 0-.3-.8 1 1 0 0 0-.6-.5.6.6 0 0 1 0 .3h-.1a.5.5 0 0 0 0-.3c-.2-.5-.3-.7-.6-.8v.4l-.2.4h-.1l.1-.5v-.4c0-.6-.2-1-.8-1.2v.2l-.1.5h-.1v-.5a1.9 1.9 0 0 0 0-.3l-.5-.5a2.3 2.3 0 0 1 0 .7 3 3 0 0 1-.4.8h-.1a3 3 0 0 0 .3-.8 2.2 2.2 0 0 0 .1-.8 1 1 0 0 1-.2-.3v.2h-.1v-.2l.1-.1v-.1a.7.7 0 0 0-.3-.5 1.5 1.5 0 0 1-.2.5h-.1c-.1 0 0 0 0 0l.1-.3.1-.3a1 1 0 0 1-.1-.2.8.8 0 0 1-.1.2 1.2 1.2 0 0 1-.2.2c-.1-.1 0-.1 0-.1l.1-.2a.7.7 0 0 0 .1-.2v-.2c0-.3 0-.4-.2-.7a.9.9 0 0 0-.3 0 2.8 2.8 0 0 0-.5.4v-.1a3.2 3.2 0 0 1 .4-.3.9.9 0 0 1 .4-.1.4.4 0 0 0 0-.2l-1 .3a1.6 1.6 0 0 1-.9-.2h.8c.3 0 .7 0 1.1-.2l.2-.6a1.7 1.7 0 0 1-.5 0l.6-.1v-.2c0-.2.3-.2.4 0 .2 0 .3.2.4.3.3.2.6 0 .9-.2h-.2v-.1h.3c.6 0 1 0 1.4-.5a7 7 0 0 1-1 0c-.2 0-.4 0-.6-.2l.7.1h1l.5-.3a5.4 5.4 0 0 1-2-.6 1.4 1.4 0 0 0-.6-.3c-.5 0-1 0-1.4.3l-.3-.3-.4-.2h-.6s-.1 0 0 0h1.2a4.5 4.5 0 0 1 1.7-.3 5.7 5.7 0 0 1 1.7-.2v-.2c.3-.3.4-.6.3-.9-.1-.2-.4-.5-.8-.7h-1.3a4 4 0 0 0-.8.1l.6.4.4 1v.1h-.2a2 2 0 0 0-.4-1c-.1-.2-.6-.3-.7-.4l-1.3.2-.7.4c.3-.1.6 0 .8 0 .3.2.5.4.6.8v.1h-.2a1 1 0 0 0-.5-.7c-.4-.2-1.2 0-1.6.3a4.2 4.2 0 0 0-.6.6h-.2v-.2l.7-.6.7-.4a2 2 0 0 1 1-.5l1.3-.2a1 1 0 0 0-.5-.5 1.4 1.4 0 0 0-.8 0c-.5.1-1 .4-1.5.7h.5l.1.2h-.5a1.4 1.4 0 0 0-.4 0l-1.5 1.2c-.5 0-.8 0-1 .2l-.1.6-.2.7c-.5.5-1 .9-1.3 1.5a1.4 1.4 0 0 1-.3.5.5.5 0 0 1 .3.1v-.2l.2-.4h.1a1.2 1.2 0 0 0-.1.4v.5h-.2a.3.3 0 0 0-.1-.2.5.5 0 0 0-.3 0l-.3.2-.2.3c0 .3.2.3.5.3.6 0 .1.4.4.7l.5.4h.5c0-.4 0-.6.2-.6a.8.8 0 0 1 .2-.4.8.8 0 0 0 0 .2.8.8 0 0 0-.1.2v.4a2.4 2.4 0 0 1 1-.2c.7-.8 1-.6.4 0l-.1.2a1.4 1.4 0 0 0-.2.6c-.2.1-1 .8-.7 1 .2 0 .4 0 .3.2-.1.2-.4.6-.3.9h.3a6.2 6.2 0 0 0 .7-.6 3.8 3.8 0 0 0 .5-.8h.1a9 9 0 0 1 .3-.8c0-.2.1-.5.3-.7l.3.3a.4.4 0 0 0 .2 0 .4.4 0 0 0 .3 0l.2-.3h.1a1.2 1.2 0 0 1-.3.4.5.5 0 0 1-.3 0 .5.5 0 0 1-.2 0 1.1 1.1 0 0 1-.3-.3 12 12 0 0 0-.5 1.4v.1a5.6 5.6 0 0 1-1.2 1.4l.2.5 1-1 .8-1a6 6 0 0 1-.3.6v1.1h-.1v-.9l-.3.3a11.6 11.6 0 0 1-1 1c-.3.3-.6.3-.2.7l.3-.3.4-.3h.1v.1l-.4.3-.4.3a.6.6 0 0 0 .1.3.5.5 0 0 1 .1 0l.8-.6c.1 0 0 .1 0 .1l-.7.6a.7.7 0 0 1-.1 0c-.3.3-1.2.8-1 1.2l.6-.2.6-.5c.1 0 0 0 0 .1a2.5 2.5 0 0 1-.6.5v.2-.1a3.6 3.6 0 0 1-.7.1c.1.4 0 .7-.3 1 0 .1-1 .9-.6 1a1 1 0 0 0 .3.2z"/><path d="M429.4 100.1a2.2 2.2 0 0 0-.6-.3 1.4 1.4 0 0 0-.5-.5c-.2-.2-.2-.1-.1-.3l.2-.1a.9.9 0 0 1 .3 0 .4.4 0 0 1 .2.2h.1c.1 0 0 0 0 0a.5.5 0 0 0-.2-.2 1 1 0 0 0-.4-.1.7.7 0 0 0-.4 0l-.2-.5.4.1.2.1a.7.7 0 0 0-.2-.2 2 2 0 0 0-.2 0 2.9 2.9 0 0 1 2.1.2c.4.1.6.3.8.6l-.2.2c-.5 0-.8 0-1 .2-.2.1-.2.4-.2.6h-.1z"/></g><path d="M445 121.8l-.4.2c0-.3.2-.4.3-.6v.2l.1.2zm2 4.2a2.3 2.3 0 0 1-.4.4 4 4 0 0 1-.5.4v-.1l.4-.4.4-.4.1.1zm1.3-1.6l-.2.3h-.1l.2-.3h.1zm-.7 0a1.1 1.1 0 0 1-.2.3 1 1 0 0 1-.5.4v-.1a1 1 0 0 0 .4-.3 1 1 0 0 0 .1-.4h.1l.1.1zm1.2-1.6a1 1 0 0 0-.1.2 1.1 1.1 0 0 0-.1.2h-.1a1.1 1.1 0 0 1 .3-.5v.1zm1 0v.5l-.3.5c-.1 0 0 0 0 0l.1-.5.2-.5zm-.4-6c.3.5.4 1 .4 1.5a7.3 7.3 0 0 1 .1-.6 1.4 1.4 0 0 0 .3-1.1c0-.1.1 0 .1 0v.6a1.7 1.7 0 0 1-.3.6l-.2 1h-.1v-.1c0-.6 0-1.2-.4-1.8v-.1h.1zm-.8 1v.3h-.1v-.4h.1v.1zm-.2 1.4a6.2 6.2 0 0 1 .2 1.4 1 1 0 0 1 .1-.1l.3-.3h.1a1 1 0 0 0-.3.3.7.7 0 0 0-.2.4 5 5 0 0 0-.1-.9 5.9 5.9 0 0 0-.2-.8h.1zm1 .5c.1.392.134.797.1 1.2v-.6a3.6 3.6 0 0 0-.1-.6zm1-.2v.6a1.5 1.5 0 0 1 0 .5 1.2 1.2 0 0 0 0 .6l.1.6a2.5 2.5 0 0 1-.3-.6 1.3 1.3 0 0 1 0-.6 1.4 1.4 0 0 0 .2-.5 2.3 2.3 0 0 0 0-.6zm.5-1.5l-.1.3v.2h-.1v-.6h.1l.1.1zm-.5-2.6v.2c.1 0 .1 0 0 0 0 .1 0 0 0 0v-.2s-.1 0 0 0c0-.1 0 0 0 0zm.2-2v.8a.8.8 0 0 0-.2.3 1.4 1.4 0 0 0 0 .6h-.1a1.4 1.4 0 0 1 0-.6.9.9 0 0 1 .3-.4v-.7zm-2-.7c.4.2.6.4.8.7.2.2.3.5.3.9l-.6-.2v1.8c-.2.5-.5.8-1 1a3.8 3.8 0 0 0 0-1.8h.1a3.6 3.6 0 0 1 0 1.6 1.5 1.5 0 0 0 .7-.8 3.7 3.7 0 0 0 .1-1.9l.6.2c0-.3-.1-.5-.3-.8a2.5 2.5 0 0 0-.7-.6v-.1zm5.2-1v.2h-.1v-.2s0-.1 0 0h.1zm-1.2 0l.3.1a.8.8 0 0 1 .1.2v.1a.8.8 0 0 0-.2-.2.6.6 0 0 0-.2-.2zm-1.8.5l.3.5v.6c-.1 0-.1 0 0 0l-.1-.6a1 1 0 0 0-.3-.5h.1zm-6 .5v.4l-.1.1v-.5h.1zm1-.6l.2.4v.1h-.1v-.1l-.1-.3v-.1zm2.4 1.6v.1a.6.6 0 0 0-.1 0v-.1h.1zm.8-1.8v.2a.2.2 0 0 1 0 .2.1.1 0 0 0 0-.2c-.1-.1-.1-.1 0-.1v-.1zm-5.5.3a1 1 0 0 0 .2.7c.2.1.2.3.3.4v.4h-.1v-.4a.9.9 0 0 0-.2-.3 1 1 0 0 1-.2-.4 1.1 1.1 0 0 1-.1-.4h.1zm2.2 1.5l.2.7v.7c0 .3 0 .6.2.8l.6.7a2.9 2.9 0 0 1-.1-1l.3-1c.2 0 .2-.2.3-.3v-.4h.1v.4a1.5 1.5 0 0 1-.3.5 1.6 1.6 0 0 0-.3.9c0 .3 0 .6.2 1h-.1c-.4-.2-.6-.5-.8-.8a1.3 1.3 0 0 1-.2-.8v-.7a1.8 1.8 0 0 0-.2-.6c0-.1.1 0 .1 0v-.1zm-.9 1.4c0 .2 0 .5-.2.7a3.4 3.4 0 0 1-.4.6h.3a2.2 2.2 0 0 0 .7-.6l.3-.3c.1 0 0 0 0 0a3.6 3.6 0 0 1-.2.4 2.5 2.5 0 0 1-.3.2v.4-.2a1.5 1.5 0 0 0-.1-.1 2.2 2.2 0 0 1-.4.2l-.4.2v-.1l.4-.7.2-.7h.1zm-1 0v.1h-.1c-.1 0 0 0 0 0v-.2l.1.1z" fill="#000" fill-rule="nonzero"/><path d="M443 113.7c.2.3.2.6.2 1a1.9 1.9 0 0 1-.4.8 1.9 1.9 0 0 0-.5.6 2.6 2.6 0 0 0-.2.6l.2-.3.5-.3a4.6 4.6 0 0 0 1.1-.9h.1c.1 0 0 0 0 0a4 4 0 0 1-1.2 1 1 1 0 0 0-.4.3 2.3 2.3 0 0 0-.4.5c0-.4 0-.7.2-1l.5-.6.4-.8c0-.3 0-.6-.2-.9h.1zm2.3 3.5l.1.4.1.1c.2.3.3.5.3.8l-.1 1h-.1a1.8 1.8 0 0 0-.4-1 3.4 3.4 0 0 0-.8-.6v-.1c.4.2.7.4.9.7l.3.6a3.4 3.4 0 0 0 0-.6 1.3 1.3 0 0 0-.1-.7l-.1-.2c-.2-.2-.3-.3-.2-.4h.1zm1 0l.1.2c0 .1 0 0 0 0h-.1l-.2-.2h.2zm1 .3l-.2.7-.2.7.2-.7.2-.7zm.7 4v.1a.3.3 0 0 1 0-.2v.1zm-.7-1.2v.3l-.2.4v-.4l.1-.4h.1v.1zm-1 0h.1v.1h-.1v-.1zm-1.1-.6a7.3 7.3 0 0 1-.1.2v.2h-.1a5.002 5.002 0 0 1 0-.2 5.002 5.002 0 0 1 0-.2h.1c.1 0 0 0 0 0h.1zm-1.7 1.8a.7.7 0 0 0-.1.2 1.3 1.3 0 0 0 0 .2s-.1.1-.2 0v-.2a.8.8 0 0 1 .2-.3h.1v.1zm-4.8 4.6a.7.7 0 0 1 0 .2 1.1 1.1 0 0 1-.2.1c-.1 0-.1 0 0 0a.8.8 0 0 0 .1-.3h.1zm.8-.4a.3.3 0 0 1-.1.2.6.6 0 0 1-.2 0 .4.4 0 0 0 .1-.1.3.3 0 0 0 0-.1h.2zm1-.6a.5.5 0 0 1 0 .1.5.5 0 0 1-.2.1.4.4 0 0 0 0-.2h.2zm1.5-3.8l-.1.4a1.4 1.4 0 0 0 0 .4h-.1a1.4 1.4 0 0 1 0-.4v-.5h.1l.1.1zm1-10.3a.9.9 0 0 1-.1.3 1.4 1.4 0 0 1-.2.3h-.1l.2-.3a.8.8 0 0 0 0-.3l.1-.1.1.1zm-1-1a1.9 1.9 0 0 1 .1 1 1.8 1.8 0 0 0 0-.5 1.5 1.5 0 0 0-.2-.4c0-.1 0 0 0 0l.1-.1zm-1.4 1.7a1.5 1.5 0 0 1-.4-.4.7.7 0 0 1-.1-.4l.2.4.3.4zm1.5 2.6v.2h-.1v-.2h.1zm-2-2l.6 1 .1.8c.2 0 .3-.1.4-.3v-.9a1.9 1.9 0 0 0 .3-.6 3.5 3.5 0 0 0 .1-.5h.1l.4.8.3.9h-.1a2.9 2.9 0 0 0-.3-.9 3.9 3.9 0 0 0-.3-.6 2.9 2.9 0 0 1 0 .4 2 2 0 0 1-.3.5l-.1 1-.4.3v.4h-.1c0-.4 0-.8-.2-1.2a2 2 0 0 0-.5-1v-.1zm1.2 5v.3l-.1.4h-.1v-.8h.1c.1 0 .1 0 0 0l.1.1zm-2.2.9v.3l-.1-.3c0-.1.1 0 .1 0zm1.9-2.5a2.3 2.3 0 0 1-.2.6l-.3.5a1.1 1.1 0 0 0-.3.6 1.8 1.8 0 0 0 0 .7c0 .1 0 0 0 0a1.9 1.9 0 0 1-.1-.7c0-.2.1-.5.3-.7a2.1 2.1 0 0 0 .3-.5 2.1 2.1 0 0 0 .2-.6c.1 0 0 0 0 0l.1.1zm-.5-.8v.6a2.2 2.2 0 0 1-.5.6 1.8 1.8 0 0 0-.4.5l-.2.5h-.1l.2-.6.5-.5a2 2 0 0 0 .3-.5 1 1 0 0 0 .1-.6h.1zm-2.4 1.2c0 .4 0 .7-.2 1-.1.3-.3.6-.6.8h-.1v-.1c.3-.2.5-.5.6-.8.2-.2.2-.6.2-1l.1.1zm-3 1.7v.2l.1.1v.1h-.1l-.1-.2v-.2s-.1 0 0 0h.1zm-1.3 0a2.7 2.7 0 0 0 0 .7l.4.6.1.5v.4l.4-.5a1.4 1.4 0 0 0 .2-.6 1.6 1.6 0 0 1 0 .6l-.5.6h-.1a3.3 3.3 0 0 0 0-.5 1.8 1.8 0 0 0-.2-.4 2 2 0 0 1-.3-.7 2.7 2.7 0 0 1-.1-.7h.1zm.2 4.2a2.6 2.6 0 0 1 .1-.8h.1a2.5 2.5 0 0 0-.1.8h-.1zm-.2 1.1v-.4s0-.1.1 0v.4h-.1zm-.8 2l.2-.3.2-.3h.1a4 4 0 0 1-.2.4l-.2.2c-.1 0-.1 0 0 0h-.1zm-1.1-6.6v.2h-.1v-.2h.1zm-2 4.5v-.3h.1v.3h-.1zm5-8l-.3 1c0 .3.1.6.3.7.3.2.4.4.5.7v-.4c.1-.1.1-.3 0-.4h.1a2.7 2.7 0 0 1 0 1h-.1a6.001 6.001 0 0 1 0-.2l-.5-.6c-.3-.2-.4-.4-.4-.8l.2-1h.2zm-.4-1.3a2.5 2.5 0 0 1 0 .8 4 4 0 0 1-.3.7 2.4 2.4 0 0 0-.2 1c0 .4.1.7.3 1v.1a2.5 2.5 0 0 1-.2-2.1 3.8 3.8 0 0 0 .2-.7c0-.3.1-.5 0-.8h.1c.1 0 0 0 0 0h.1zm-2.3 3.3a.8.8 0 0 0 0 .4l.1.5c0 .1 0 0 0 0a1.5 1.5 0 0 1-.3-.5.9.9 0 0 1 .1-.5h.1v.1zm-1-.4v.3a.9.9 0 0 1 0 .3.4.4 0 0 0-.1.3l.1.2v.1a.8.8 0 0 1-.2-.3.5.5 0 0 1 0-.4.8.8 0 0 0 .1-.2v-.3h.1zm5.8-8.6a2.3 2.3 0 0 0 .3 1.5 2.6 2.6 0 0 1-.4-.7 2.3 2.3 0 0 1 0-.8h.1zm-.7.7a4 4 0 0 1 .5 1.7h-.1a3.8 3.8 0 0 0-.5-1.6v-.1h.1zm-3.6.1c-.4.5-.5 1-.6 1.3l.2.9.2.8a2.6 2.6 0 0 1-.2.8c-.1 0 0 0 0 0v-.8a2.3 2.3 0 0 0 0-.8 1.7 1.7 0 0 1-.3-1c0-.3.2-.7.6-1.2.1 0 0 0 0 0h.1zm3.3-1.4v.5l-.4.4a.8.8 0 0 0-.3.4v.7c0 .1 0 0 0 0a1.9 1.9 0 0 1 0-.7 1 1 0 0 1 .3-.5 1 1 0 0 0 .3-.4.6.6 0 0 0 0-.4h.1zm-3.5.3v.7c0 .2-.2.4-.4.6a1.2 1.2 0 0 0-.4.6 2.9 2.9 0 0 0-.1.7h-.1a3 3 0 0 1 .1-.8c0-.2.2-.4.4-.6l.4-.6a1 1 0 0 0 0-.6h.1zm2 .1a.8.8 0 0 0 0 .2.5.5 0 0 0 .1.3.6.6 0 0 1-.2-.2.8.8 0 0 1 0-.3h.1zm0-.5a.8.8 0 0 0-.5.4l-.2.7.2.5v.7a2.4 2.4 0 0 0 0-.7l-.3-.4a2 2 0 0 0-.5 1.2c0 .5.1 1 .5 1.5h-.1a2.7 2.7 0 0 1-.5-1.5c0-.5.2-.9.6-1.3 0-.3 0-.6.2-.8a1 1 0 0 1 .5-.4l.1.1zm-.7-.8v.1c0 .3 0 .6-.2.7a.8.8 0 0 0-.2.3 1.6 1.6 0 0 0-.1.4h-.1a1.7 1.7 0 0 1 0-.4 1 1 0 0 1 .3-.4c.2-.1.2-.4.2-.6v-.1h.1zm5.7 6l.1.5v.4a1.4 1.4 0 0 0 0-.4 1.9 1.9 0 0 0-.2-.4h.1v-.1zm0 2v.6l-.2.6-.3.6.2-.6a2.1 2.1 0 0 0 .2-.6 1.6 1.6 0 0 0 0-.7h.1v.1zm-1.2-1.8a2.5 2.5 0 0 1 .7 2.5h-.1a2.4 2.4 0 0 0-.6-2.4v-.1c0-.1 0 0 0 0zm0 2a5.3 5.3 0 0 1-1 1.4 2.5 2.5 0 0 0-.5 1 1.4 1.4 0 0 0-.1-.6 1.9 1.9 0 0 0-.2-.4 1.4 1.4 0 0 1-.3-.9l.3-.8.3-.6a2.4 2.4 0 0 0 0-.6h.1c.1 0 0 0 0 0a2.6 2.6 0 0 1-.3 1.3 1 1 0 0 0-.3.7c0 .3 0 .6.2.8a2 2 0 0 1 .3.8 2.6 2.6 0 0 1 .5-.8 5 5 0 0 0 .5-.6l.3-.7h.2zm-3.2-1a2.8 2.8 0 0 0 .4 1.4v.1h-.1a2.3 2.3 0 0 1-.3-.7 3 3 0 0 1 0-.7v-.1zm-1.7 1v.3h-.1v-.3h.1zm.6-1.6l-.1.5a1.4 1.4 0 0 1-.3.5c-.1 0 0 0 0 0l.2-.5a1.4 1.4 0 0 0 0-.5h.2zm-1.6 3.1a3.3 3.3 0 0 1-.3-1.7c0-.5.3-.8.6-1l.4-.7c.1-.2.2-.5.1-1s.1 0 .1 0v1l-.6.7a1.9 1.9 0 0 0-.5 1c0 .5 0 1 .3 1.7h-.1zm-1-1.1a.7.7 0 0 0 0 .3l.1.4a1 1 0 0 1-.2-.4.8.8 0 0 1 0-.4h.1v.1zm4.6-3.2c.1.2.3.5.3.8 0 .3 0 .6-.2.9h-.1c-.1 0 0 0 0 0l.2-.9a1.5 1.5 0 0 0-.3-.8h.1zm1.4-1.1a2.4 2.4 0 0 1 0 1.7 1.8 1.8 0 0 0-.2-.8 1.5 1.5 0 0 0-.5-.5c0-.1 0-.1.1 0a1.6 1.6 0 0 1 .6 1v-.6a2.3 2.3 0 0 0-.1-.8h.1zm.8-1.2l.4.8v1a3.5 3.5 0 0 0-.1-1 1.5 1.5 0 0 0-.4-.7c0-.1 0 0 .1 0v-.1zm-2.2-.2a1 1 0 0 0-.3.5v.7a2 2 0 0 1 0-.7c0-.2 0-.4.2-.5.1 0 .1 0 0 0h.1zm-4.4 3a2 2 0 0 1-.3 1 2.5 2.5 0 0 1-.8.7c-.1 0 0 0 0 0l.7-.7c.2-.3.3-.6.3-1l.1-.1v.1zm0-1.6v.5a2.2 2.2 0 0 1-.3.5l.1-.5v-.5h.2zm2.9-.2v1h-.1v-1h.1zm.7-1.3c-.2.3-.3.5-.3.8l.2.7.3 1.2c0 .4-.2.7-.4 1.1l.3-1.1a1.9 1.9 0 0 0-.3-1.2l-.2-.7c0-.3 0-.6.3-.8.1 0 0 0 0 0h.1zm-4.6-8.1a2 2 0 0 1 1-.5c.4 0 .8 0 1.2.3h.8-.8c-.4.5-.8.7-1.1.7a1 1 0 0 1-.9-.2c0-.1 0-.1 0 0a1 1 0 0 0 .9 0c.2 0 .6-.1 1-.5a1.9 1.9 0 0 0-1-.1 2 2 0 0 0-1 .4c-.1 0 0 0 0-.1h-.1z" fill="#000" fill-rule="nonzero"/><path d="M431.6 101a.3.3 0 0 1 .3.3.3.3 0 0 1-.3.2.3.3 0 0 1-.2-.2.3.3 0 0 1 .2-.3zm1.8 1.6a2.2 2.2 0 0 0 .8-.7c.1 0 0 0 0 .1a2.3 2.3 0 0 1-.2.3l-.5.4c-.1-.1 0-.1 0-.1h-.1zm3.7-1.6a.5.5 0 0 1 .3 0 .8.8 0 0 1 .3.2.7.7 0 0 0-.3 0 .5.5 0 0 0-.2 0l-.1-.1v-.1zm-2 .1a.8.8 0 0 1 .3-.4l.7-.1v.1a1 1 0 0 0-.7 0 .7.7 0 0 0-.3.5c-.1 0-.1 0 0 0v-.1zm.2.4a.4.4 0 0 1 0-.3.6.6 0 0 1 .3-.1h.1a.5.5 0 0 0-.3.2.3.3 0 0 0 0 .2h-.1zm-3.6 1.1l-.1.3a.8.8 0 0 0 0 .3l-.1.1a1 1 0 0 1 0-.4c0-.1 0-.2.2-.3zm1 .5v.2-.2zm-.6-1.1a1 1 0 0 0 .3 0h.3a1.4 1.4 0 0 1-.3.1 1 1 0 0 1-.3 0s-.1 0 0-.1zm.6-2a.3.3 0 0 0-.2.1.4.4 0 0 0-.1.2h-.1a.5.5 0 0 1 .2-.3.4.4 0 0 1 .2 0h.1-.1zm-1 .2a.8.8 0 0 0-.2 0 .3.3 0 0 0 0 .2h-.1c-.1 0 0 0 0 0a.4.4 0 0 1 0-.2.9.9 0 0 1 .3-.1v.1zm-.7 0a.8.8 0 0 0-.1.1.7.7 0 0 0-.1.2h-.1a.7.7 0 0 1 .1-.2.9.9 0 0 1 .2-.2v.1zm-.8.7a1.7 1.7 0 0 0-.4.4v-.1a2 2 0 0 1 .4-.4v.1zm0 .9v.1l-.2.2c-.1 0-.1 0 0 0v-.2l.2-.2c.1 0 .1 0 0 0v.1zm-.7.2v.3l-.1.1c-.1 0 0 0 0 0v-.4h.1zm1 1.4v.6h-.1v-.6h.1zm-.6-.4v.3h-.1v-.3h.1zm-.6-4.5a.7.7 0 0 1 .5.4v.1h-.1a.7.7 0 0 0-.2-.3.7.7 0 0 0-.2-.1v-.1zm5.2 6.7a1.6 1.6 0 0 1 0 1.4h-.1a1.6 1.6 0 0 0 0-1.3v-.1h.1zm-1.7 2c0-.3.2-.5.3-.7l.4-.6c.2-.2.3-.4.3-.7a1.8 1.8 0 0 0 0-.7h.1a2 2 0 0 1-.3 1.5 6.3 6.3 0 0 0-.4.5l-.3.7h-.1zm-2.2-.6a.7.7 0 0 1 .2-.3.9.9 0 0 1 .3-.1.8.8 0 0 0-.2.2.6.6 0 0 0-.2.2h-.1zm-.4-.2l.3-.3.3-.2v.1a1 1 0 0 0-.3.2 2 2 0 0 0-.2.3c-.1 0-.1 0 0 0l-.1-.1zm2.3-2.2h.2a.8.8 0 0 0 .3 0v.1a.8.8 0 0 1-.6 0c0-.1 0-.1 0 0l.1-.1zm-1.2-.1l.1-.1c.1 0 .1 0 0 0v.1c-.1 0 0 0 0 0h-.1zm24.2 7c.083.088.15.19.2.3h-.1a.8.8 0 0 0 0-.1.8.8 0 0 0-.2-.2c0-.1 0 0 0 0h.1zm-26.8 12.5l.3.3a1 1 0 0 0 .5 0v.1a1 1 0 0 1-.5 0 1.7 1.7 0 0 1-.4-.3c0-.1 0-.1 0 0l.1-.1z" fill="#000" fill-rule="nonzero"/><g fill="red"><path d="M448.9 99.6a8.2 8.2 0 0 0 1.7 0c-.6.3-1.2.6-2 .7a.8.8 0 0 0 .3-.4.4.4 0 0 0 0-.3zm-1.4-.1h1.2v.4s0 .2-.2.3c0 0-.1 0 0 .1a5.6 5.6 0 0 1-1.3 0 1 1 0 0 0 .3-.5.6.6 0 0 0 0-.4v.1zm-10.5-3c.7-.2 1.3-.2 2-.2a1 1 0 0 1 .5.4c.1.2.2.5.1.8l.1.1h.1l-.1-1a1 1 0 0 0-.3-.2h.2a5 5 0 0 1 2.1.6c.2.2.3.3.2.5l-.3.5v.2h.2l.3-.7a.7.7 0 0 0 0-.3l1.7.8a.5.5 0 0 1 0 .5 1 1 0 0 1-.5.3v.1l.1.1c.3 0 .5-.2.6-.4a.6.6 0 0 0 0-.4l1.2.6v.3c0 .2-.1.3-.3.4 0 0-.1 0 0 .1 0 .1 0 0 0 0 .3 0 .5-.2.6-.4a.5.5 0 0 0 0-.3l.4.1a8.1 8.1 0 0 0 1.3.4.5.5 0 0 1 .1.4.7.7 0 0 1-.2.3v.2c-1.4-.1-2.7-.9-4.1-1.4l-.5-.2-1.6-.6-.1-.1a8.5 8.5 0 0 0-1.5-.4 6.1 6.1 0 0 0-1.6 0h-.1l-.1-.8a1.3 1.3 0 0 0-.5-.4v.1z" fill-rule="nonzero"/><path d="M434.6 97a8.7 8.7 0 0 1 2-.5c.4.1.6.3.7.5v.6a4.2 4.2 0 0 0-1.7.2 1.2 1.2 0 0 0-.7-.6 1.2 1.2 0 0 0-.3-.1V97zm7.4 3.9a9.4 9.4 0 0 0-.5-.4 7 7 0 0 0-3-.8c.3-.4.4-.8.3-1.1a1.7 1.7 0 0 0-.7-.8h1a8 8 0 0 1 2 .6c0 .3.1.6 0 .8 0 .3-.2.5-.5.7 0 0-.1 0 0 .1 0 .1 0 .1 0 0 .4-.1.6-.4.7-.7v-.8l1 .6 1 .8c0 .4 0 .6-.3.8h-.9v.2h-.1z" fill-rule="nonzero"/><path d="M444 102.4l-1.8-1.4c.4 0 .7 0 1-.2.1-.1.3-.4.3-.8l1.1 1 .6.5v.4a.5.5 0 0 1 0 .2.6.6 0 0 1-.4.2h-.7l-.1.1z"/><path d="M446.2 103.8a11.8 11.8 0 0 1-2-1.3h.7a.8.8 0 0 0 .4-.2l.1-.4a1 1 0 0 0 0-.2 10.5 10.5 0 0 0 2.1 1.4c0 .3 0 .4-.3.5a3 3 0 0 1-1 .1v.1z"/><path d="M448.4 104.7a11.9 11.9 0 0 1-2-.8c.4 0 .7 0 1-.2.2 0 .3-.2.3-.5.42.229.854.429 1.3.6v.4l-.5.4s-.1 0 0 0l-.1.1z"/><path d="M453.2 104.2s.4-.1.2 0c-1.4 1-3.1 1-4.8.5.3-.1.5-.2.6-.4a.6.6 0 0 0 0-.5l1.7.4a.4.4 0 0 1-.1.3l-.5.3s-.1 0 0 .1c0 .1 0 0 0 0 .3 0 .5-.2.6-.3a.6.6 0 0 0 .2-.4 9 9 0 0 0 2 0h.1zm-9.7 24l-.2.4-1.2.3c0 .3 0 .4.3.4l.7-.3c.1 0 0 .5-.5.8v.1c.4.6 1.4.4 1.9.3a3 3 0 0 0 1.3-1l-.3-.6c-.4.1-.6 0-.5-.2a3.9 3.9 0 0 0-1.5-.2zm-15.1-4.8c-.3.3-.7.5-1 .6-.2 0-.6.1-.6.3 0 .1.2.3.4.2.4-.5.7-.2.2.2v.3c.5.4 1.6.5 2.2.2.3-.2.6-.5.2-.9a1.7 1.7 0 0 1 0-.2h-.6l-.4-.3-.4-.4zm10 3.5h-.1c-.2.2.3.2.6.3.2.1.2.3.2.5-.3.7-1.9.5-2.4.2-.2-.1-.2-.3-.2-.5h.3c.2 0 .4 0 .6-.2v-.2h-.2a1.3 1.3 0 0 1-.4.2 2.6 2.6 0 0 1-.5 0l-.2-.2h.2l.7-.2.1-.1c.5 0 1 0 1.3.2zm-7.2-.4l-.2.3a2.7 2.7 0 0 1-.9.6c-.2.1 0 .2.2.4.2.1.5-.2.6-.4.2-.3.3-.2.2 0l-.2.7.7.3c.4 0 1-.4 1.2-.6.3-.2.2-.5.1-.8a2 2 0 0 1-.5 0 3.4 3.4 0 0 1-.5-.3l-.7-.2zm2.8-26.4h.3l.6.1a4.5 4.5 0 0 1 1.7-.3 5.7 5.7 0 0 1 1.7-.2v-.2c.3-.3.4-.6.3-.9-.1-.2-.4-.5-.8-.7h-1.3a4 4 0 0 0-.8.1l.6.4.4 1c-.2.1-.2 0-.2 0 0-.4-.2-.6-.3-.9l-.8-.4a9 9 0 0 0-1.3.2c-.3 0-.5.2-.7.3l.8.1c.3.1.5.4.6.8-.1.1-.1 0-.1 0a1 1 0 0 0-.5-.6c-.4-.2-1.3 0-1.7.2a4.2 4.2 0 0 0-.6.6l2 .4h.1zm-2.3-.4v-.1l.7-.6.7-.4a2 2 0 0 1 1-.5l1.3-.2a1 1 0 0 0-.5-.5l-.8-.1-1.5.8h.5l.1.2h-.4a1.4 1.4 0 0 0-.4 0h-.1l-1.3 1c.3.1.6.2.7.4z" fill-rule="nonzero"/></g><path d="M489 156.5l20.8-47-15.3-24.7-27.3 10-12.7 49.8a219.4 219.4 0 0 1 34.5 11.9z" fill="#0093DD"/><path d="M462.6 113a251.7 251.7 0 0 1 39.6 13.7l-8 18.2a232 232 0 0 0-36.5-12.7l4.9-19.2z" fill="#FFF"/><path d="M495.4 142l5.4-12.2a248.6 248.6 0 0 0-39-13.5l-3.2 12.4a235.9 235.9 0 0 1 37 12.8l-.1.4-.1.1z" fill="red"/><path d="M465.6 125.8c.3-.3.7-.2 1.1-.1.3-.2.7-.2 1-.2l.6-.2c.2 0 .2-.2 0-.3a.6.6 0 0 1 0-.3c-.7-.4-1-1-1.2-1.5-.3 0-.5-.2-.5-.3h-.5c-.8 0-1-.3-1.3-.5a1 1 0 0 1-.6-.4l-.3-.3c-.2-.3-.1-.7.2-.7h.7a2 2 0 0 1 .9-.1c.3 0 .5-.3.9-.6v-.4s0-.2.2-.1a1 1 0 0 1 .8.5c.5 0 1 .3 1.2.7.7 0 1.1.3 1.2.5 0 .2-.2.4-.5.6v.2l.4.4 1 .7c1-.1 2.6.6 4.8 2a18.6 18.6 0 0 1 4.1 1.2h.9c2.4-.4 4.7 0 6.8 1.5.8.1 1.5.4 2.2.7.5.2 1 .3 1.6.3a8 8 0 0 1 2.6.7c1 .2 1.9.6 2.4 1.2.4.5.3 1-.2 1.2-.3.6-.9.6-1.8.3-.6.1-1.3-.4-2-.9-.8-.2-1.6-.8-2.4-1.3l-1.3-.6h-.8v.2c.2.2.4.4.4.8v1c0 .4.3.6.7.9l1 .4c.2 0 .3.1.3.3l.4 1.7.4.3c.6.5.2 1-.3 1a3.1 3.1 0 0 1-1.3.8c-.4.2-.6 0-.7-.2a.5.5 0 0 1-.4-.2c-.5-.4-.1-1 1-.7l.2-.2a1.5 1.5 0 0 1 0-.9l-.3-.2a2.8 2.8 0 0 1-1-.6c-.6-.5-1.5-1-2.4-1.4-.7 0-1.2-.4-1.8-.7h-.8c-.2 0-.4 0-.5.2-.2.3-.5.2-.8.2h-1.6c-.4 0-.7 0-1 .3-.2.2-.4.2-.7 0a1 1 0 0 1-.3-.2c-.3 0-.5 0-.5-.2-.5-.1-.6-.2-.6-.4-.6-.1-.3-.6 0-.6l1.4.1c.4.1 1 0 1.2-.2l.5-.5a4 4 0 0 1-1.8-.5c-1.1-.7-2-.9-2.8-.3-.2.2-.3.2-.6.1a1 1 0 0 0-.5 0c-.5.1-.9 0-1.3-.1a4 4 0 0 1-1.8 0c-.6.3-1 .4-1.2.2a8.6 8.6 0 0 1-.6-.4c-.4-.1-.5-.2-.5-.3-.4 0-.5-.2-.5-.4-.2-.2 0-.3 0-.4.4-.2.7-.2 1 0 .3 0 .5.2.6.3h.6c.1-.2.5-.2 1-.2l.7-.2v-.2c-.4 0-.6-.4-.9-.7a3 3 0 0 1-1.5-.5c-.4 0-.7-.1-1-.3h-.7a2.5 2.5 0 0 1-1.4 0h-.8a1 1 0 0 1-1 .2 1.5 1.5 0 0 0-.8-.5c-.3-.1-.4-.2-.4-.4-.4-.2-.3-.4 0-.5.3-.1.5-.2 1 0l.5.2z" fill="#000"/><path d="M481.2 130.5s0-.2-.3 0c-.8 0-1.6 0-2.2-.4-.7-.4-1.3-.8-2-.8l.7-.4h1.5c.7 0 1.4.2 2 .4.4.2.8.5 1 .8a3.4 3.4 0 0 1 .8.7 2.5 2.5 0 0 1-.7 0 2.9 2.9 0 0 1-.8-.3z" fill="#FFF"/><path fill="#000" d="M483 94.7v.2l.9 4.9-3.7 3.2-.2.1.2.1 4.7 1.6 1 4.9v.2l.2-.1 3.7-3.3 4.6 1.6h.3v-.1l-1-4.9 3.7-3.2.2-.2h-.3l-4.6-1.6-1-4.9V93l-.2.1-3.7 3.3-4.7-1.6z"/><path d="M480.6 103l3.5-3 4.4 1.4-7.9 1.6zm8.5-1.7l3.4-3 4.4 1.5-7.8 1.5zm7.8-1.3l-3.4 3-4.4-1.5 7.8-1.5zm-8.4 1.6l-3.5 3-4.3-1.5 7.8-1.5zm-5-6.4l4.3 1.4.8 4.6-5.1-6zm5.5 6.4l4.4 1.5.9 4.5-5.3-6zm5.1 6.1l-4.3-1.5-.9-4.5 5.2 6zm-5.6-6.4l-4.3-1.5-.9-4.5 5.2 6zm3-7.7l1 4.6-3.5 3 2.5-7.6zm-2.7 8.1l.8 4.6-3.4 3 2.6-7.6zm-2.8 7.5l-.9-4.5 3.5-3-2.6 7.5zm2.8-8l-.9-4.6 3.5-3-2.6 7.6z" fill="#F7DB17" fill-rule="nonzero"/></g></svg>