<svg width="800" height="480" xmlns="http://www.w3.org/2000/svg"><g fill="none" fill-rule="evenodd"><path fill="#D21034" d="M0 0h800v480H0z"/><path fill="#00209F" d="M0 0h800v240H0z"/><path fill="#FFF" d="M324.3 179.7h151.4v120.5H324.3z"/><path d="M430.5 266.8l-31 1-30.7.3s-15.8 5.8-22.3 7.1c-6.4 1.3-5.6 3.4-10.5 4.6-4 .9-4.5 1.1-6.8 1.3-1.5 0-3.2 1.2-5 2.4v16.7h151.5v-15.9c-1.6-.9-3.2-1.5-4.8-2-2.2-.8-3.7-1.6-7.7-2.5-5-1.1-4.2-3.3-10.6-4.6-6.5-1.3-22.1-8.4-22.1-8.4z" stroke="#016A16" stroke-width=".3" fill="#016A16"/><g stroke-width=".5"><path stroke="#000" fill="#F1B517" d="M391.2 229.6h2.24l4.16 17.12-.96 5.44-5.44-22.4z"/><path stroke="#000" fill="#FFF" d="M388.8 218.08l1.6 13.28h1.6l-3.2-13.12z"/><path stroke="#000" fill="#F1B517" d="M393.12 247.36l-6.88-18.4 2.56-.16 8 22.4-3.68-3.84z"/><path stroke="#000" fill="#FFF" d="M383.04 218.4l2.88 12.8h2.24l-5.12-12.8z"/><path stroke="#000" fill="#F1B517" d="M387.04 240.96l-4-8.8 1.6-.32 7.52 14.4z"/><path stroke="#000" fill="#FFF" d="M377.6 222.08l4.64 12.16h2.24l-6.72-12.16z"/><path d="M387.68 242.24l-18.4-20c-5.76 4.48-4.64 12.8-4.64 12.8l20.8 16.32 2.08-9.12h.16z" stroke="#000" fill="#0A328C"/><path d="M398.24 253.12l-13.6-13.76c-5.76.32-1.28 8.8-.96 9.92l14.4 12.32v-8.48h.16z" stroke="#000" fill="#D20014"/><path d="M396.96 250.88l-28-30.08-1.12.8 29.76 32.96-.64-3.68zm-29.6-32l-.64-.8v-1.44l-5.76-3.68 2.56 5.92 2.08.32.48.64 1.28-.96z" stroke="#000" fill="#F1B517" fill-rule="nonzero"/><path d="M364.32 220.96a13.44 13.44 0 0 1 4.32-3.52l1.6 2.4-3.52 2.88-2.4-1.6v-.16z" stroke="#000" fill="#F1B517"/><path d="M361.28 226.08l.96 1.6c.64-.16 6.4-5.6 6.4-5.6h4.32l1.12-1.44c-3.2-3.2-5.92.48-5.92.48l-6.88 4.8v.16z" stroke="#0A328C" fill="#0A328C"/><path d="M364.8 228.8c0-1.6 2.88-5.12 3.2-5.28 2.08.64 4 1.92 6.24-2.88-1.92 2.24-5.6 0-5.6 0l-1.6 1.28v.64l-4.8 4.48 2.4 1.76h.16z" stroke="#D20014" fill="#D20014"/><path d="M379.68 247.52l-23.04-18.24c-4 4-.64 16.32-.64 16.32l22.4 12.16 1.12-10.24h.16z" stroke="#000" fill="#0A328C"/><path d="M398.72 262.4l-19.04-15.36c-6.4.96-1.28 10.4-.96 11.52l20 10.88v-7.2.16z" stroke="#000" fill="#D20014"/><path d="M397.92 259.2l-40.96-30.72-.8.96 42.88 33.6-1.12-3.84zm-42.88-32.32l-.64-.64-.32-1.28-6.4-2.72 3.68 5.28h2.08l.64.64.96-1.28z" stroke="#000" fill="#F1B517" fill-rule="nonzero"/><path d="M352.48 229.44a13.12 13.12 0 0 1 3.68-4.16l1.92 2.08-2.88 3.36-2.72-1.28z" stroke="#000" fill="#F1B517"/><path d="M350.4 234.56v1.76c.64-.32 5.92-5.92 5.92-5.92l4-.8.96-1.28c-2.88-3.36-5.92 1.12-5.92 1.12l-5.12 5.12h.16z" stroke="#0A328C" fill="#0A328C"/><path d="M353.6 237.6c-.32-1.6 1.92-6.08 2.24-6.4 2.56.8 4.8 1.92 5.6-3.2-1.6 2.56-5.6.64-5.6.64l-1.28 1.6v.8l-4 5.28 3.04 1.28z" stroke="#D20014" fill="#D20014"/><path d="M377.92 258.72a4453.28 4453.28 0 0 1-29.6-16.8c-2.08 3.68-.16 8.8.8 9.6 0 2.4-.96 3.68 1.12 8.8.64 3.2 2.08 6.24 4.32 8 2.56 10.24 13.12 11.04 17.12 2.56l6.4-12.16h-.16z" stroke="#000" fill="#0A328C"/><path d="M397.28 269.6l-20-11.68c-6.4.8 0 12.8.48 13.92l19.52 6.88v-9.12z" stroke="#000" fill="#D20014"/><path d="M393.92 265.28l-45.28-24-.8.96 48 26.72-1.92-3.68zM346.4 240l-.8-.48-.48-1.28-6.56-1.6 4.32 4.64 1.92-.32.96.48.64-1.44z" stroke="#000" fill="#F1B517" fill-rule="nonzero"/><path d="M344.32 242.88c.64-1.6 1.28-3.04 2.88-4.8l2.24 1.76-2.24 3.84-2.88-.8z" stroke="#000" fill="#F1B517"/><path d="M342.56 248.32l.96 1.92 4.8-7.36 4-1.44.8-1.6c-3.2-2.88-5.6 2.24-5.6 2.24l-4.96 6.24z" stroke="#0A328C" fill="#0A328C"/><path d="M346.88 250.88c-.32-1.6.8-6.72 1.12-6.88 2.4.8 4.48.96 5.12-4.16-1.6 2.4-5.28 1.6-5.28 1.6l-1.12 1.6.16.64-3.2 6.4 3.2.8z" stroke="#D20014" fill="#D20014"/><path stroke="#000" fill="#F1B517" d="M408.64 229.6h-2.24l-4.16 17.12.96 5.44 5.44-22.4z"/><path stroke="#000" fill="#FFF" d="M411.04 218.08l-1.6 13.28h-1.6l3.2-13.12z"/><path stroke="#000" fill="#F1B517" d="M406.72 247.36l6.88-18.4-2.56-.16-8 22.4 3.68-3.84z"/><path stroke="#000" fill="#FFF" d="M416.8 218.4l-2.88 12.8h-2.24l5.12-12.8z"/><path stroke="#000" fill="#F1B517" d="M412.8 240.96l4-8.8-1.6-.32-7.52 14.4z"/><path stroke="#000" fill="#FFF" d="M422.24 222.08l-4.64 12.16h-2.24l6.72-12.16z"/><path d="M412.16 242.24l18.4-20c5.76 4.48 4.64 12.8 4.64 12.8l-20.8 16.32-2.08-9.12h-.16z" stroke="#000" fill="#0A328C"/><path d="M401.6 253.12l13.6-13.76c5.76.32 1.28 8.8.96 9.92l-14.4 12.32v-8.48h-.16z" stroke="#000" fill="#D20014"/><path d="M402.88 250.88l28-30.08 1.12.8-29.76 32.96.64-3.68zm29.6-32l.64-.8v-1.44l5.76-3.68-2.56 5.92-2.08.32-.48.64-1.28-.96z" stroke="#000" fill="#F1B517" fill-rule="nonzero"/><path d="M435.52 220.96a13.44 13.44 0 0 0-4.32-3.52l-1.6 2.4 3.52 2.88 2.4-1.6v-.16z" stroke="#000" fill="#F1B517"/><path d="M438.56 226.08l-.96 1.6c-.64-.16-6.4-5.6-6.4-5.6h-4.32l-1.12-1.44c3.2-3.2 5.92.48 5.92.48l6.88 4.8v.16z" stroke="#0A328C" fill="#0A328C"/><path d="M435.04 228.8c0-1.6-2.88-5.12-3.2-5.28-2.08.64-4 1.92-6.24-2.88 1.92 2.24 5.6 0 5.6 0l1.6 1.28v.64l4.8 4.48-2.4 1.76h-.16z" stroke="#D20014" fill="#D20014"/><path d="M420.16 247.52l23.04-18.24c4 4 .64 16.32.64 16.32l-22.4 12.16-1.12-10.24h-.16z" stroke="#000" fill="#0A328C"/><path d="M401.12 262.4l19.04-15.36c6.4.96 1.28 10.4.96 11.52l-20 10.88v-7.2.16z" stroke="#000" fill="#D20014"/><path d="M401.92 259.2l40.96-30.72.8.96-42.88 33.6 1.12-3.84zm42.88-32.32l.64-.64.32-1.28 6.4-2.72-3.68 5.28h-2.08l-.64.64-.96-1.28z" stroke="#000" fill="#F1B517" fill-rule="nonzero"/><path d="M447.36 229.44a13.12 13.12 0 0 0-3.68-4.16l-1.92 2.08 2.88 3.36 2.72-1.28z" stroke="#000" fill="#F1B517"/><path d="M449.44 234.56v1.76c-.64-.32-5.92-5.92-5.92-5.92l-4-.8-.96-1.28c2.88-3.36 5.92 1.12 5.92 1.12l5.12 5.12h-.16z" stroke="#0A328C" fill="#0A328C"/><path d="M446.24 237.6c.32-1.6-1.92-6.08-2.24-6.4-2.56.8-4.8 1.92-5.6-3.2 1.6 2.56 5.6.64 5.6.64l1.28 1.6v.8l4 5.28-3.04 1.28z" stroke="#D20014" fill="#D20014"/><path d="M421.92 258.72a4453.28 4453.28 0 0 0 29.6-16.8c2.08 3.68.16 8.8-.8 9.6 0 2.4.96 3.68-1.12 8.8-.64 3.2-2.08 6.24-4.32 8-2.56 10.24-13.12 11.04-17.12 2.56l-6.4-12.16h.16z" stroke="#000" fill="#0A328C"/><path d="M402.56 269.6l20-11.68c6.4.8 0 12.8-.48 13.92l-19.52 6.88v-9.12z" stroke="#000" fill="#D20014"/><path d="M405.92 265.28l45.28-24 .8.96-48 26.72 1.92-3.68zM453.44 240l.8-.48.48-1.28 6.56-1.6-4.32 4.64-1.92-.32-.96.48-.64-1.44z" stroke="#000" fill="#F1B517" fill-rule="nonzero"/><path d="M455.52 242.88c-.64-1.6-1.28-3.04-2.88-4.8l-2.24 1.76 2.24 3.84 2.88-.8z" stroke="#000" fill="#F1B517"/><path d="M457.28 248.32l-.96 1.92-4.8-7.36-4-1.44-.8-1.6c3.2-2.88 5.6 2.24 5.6 2.24l4.96 6.24z" stroke="#0A328C" fill="#0A328C"/><path d="M452.96 250.88c.32-1.6-.8-6.72-1.12-6.88-2.4.8-4.48.96-5.12-4.16 1.6 2.4 5.28 1.6 5.28 1.6l1.12 1.6-.16.64 3.2 6.4-3.2.8z" stroke="#D20014" fill="#D20014"/></g><g stroke-width=".5"><path stroke="#016A16" fill="#016A16" d="M398.08 200.96l-.8 14.4h4.64l-.64-14.4 4.8-.48-.48-5.76-12 .48v5.12l4.48.64z"/><g fill="#016A16" stroke="#000"><path d="M399.68 195.04c-12.48-12.48-22.24-6.4-24.48-4.64 1.6.32 2.88-.64 3.68-.8l-1.6 1.92s4-1.6 4.48-1.6c-.64.48-1.28 1.6-1.28 1.6.32 0 2.56-1.76 2.88-1.76-.64.64-.8 2.4-.8 2.4l1.92-.8c.48.32-.16.96.16.96 3.2-.32 7.52 2.72 8 3.68"/><path d="M396.64 197.28c-1.28-2.88-24.96-8-29.76.48 1.92.48 3.68-1.6 3.68-1.6v1.92l3.04-2.56-1.12 2.56 2.4-2.08v2.08l3.2-3.2-.48 1.76 2.72-1.12-.32 1.6"/><path d="M395.52 197.76c-6.08-4-15.36-1.28-15.36-1.28-6.08 3.2-9.28 2.72-9.92 8.96.48-.16 2.08-2.24 2.08-2.24l1.28 2.4.32-3.36.96 2.72 1.6-4.48.32 3.04 2.24-3.04.96.96.96-2.4.96 1.6s1.6-.96 2.4-.48l1.6-1.92.48 1.44 1.6-1.6.48 1.12 1.44-1.28v.96h4.8"/><path d="M394.24 198.4c-4.32 0-16.48 4.64-19.52 9.28a21.28 21.28 0 0 1 2.08-.96l.48 1.92.8-1.92.16 1.6c.48-1.28.96-1.28 1.92-.16l.32-1.76.48 1.6.8-1.76s.48 1.92.8 1.92c0 0 1.28-3.52 1.92-3.68l.16 2.24.8-2.24.8 1.6v-2.24l.96 1.6s.32-1.6.96-1.92l1.28 1.12 5.44-4"/><path d="M395.04 199.52c-5.6 2.08-10.72 9.92-10.24 13.12 2.4-3.2 1.92-2.72 3.04.96 0 0 .32-3.2.8-3.52l.8 2.24.16-3.04h.8l-.16-1.76 1.12.8c-.32-1.12-.48-1.44.64-2.4 0 0-1.6.16-.32-2.4l1.12.96s-.32-1.12 0-1.6l4.16-1.28"/><path d="M395.52 200l-2.08 4.16 1.12.32-2.56 1.76 2.08-.16s-3.2 1.12-3.52 4.32l3.2-1.6s-2.72 2.88-3.2 4.64l2.08-1.6s-1.92 1.92-1.6 4.8l1.44-1.6c-.32 3.68-.32 4 1.28 6.72 0 0-.32-4.16 0-4.8l3.68 3.84-1.92-5.28s2.24 3.2 3.52 3.04l-2.88-4.32 2.88 2.24-3.2-4.8 2.88.96s-2.08-2.72-1.92-4.48l2.08 2.24s-.8-2.4-.64-3.2l1.12.16-2.08-2.24 1.44-.32-.16-1.6.96-.16v-1.76m-1.76 0c-3.52 4.8-1.76 12-3.84 15.84" fill-rule="nonzero"/></g><g fill="#016A16" stroke="#000"><path d="M400.16 195.04c12.48-12.48 22.24-6.4 24.48-4.64-1.6.32-2.88-.64-3.68-.8l1.6 1.92s-4-1.6-4.48-1.6c.64.48 1.28 1.6 1.28 1.6-.32 0-2.56-1.76-2.88-1.76.64.64.8 2.4.8 2.4l-1.92-.8c-.48.32.16.96-.16.96-3.2-.32-7.52 2.72-8 3.68"/><path d="M403.2 197.28c1.28-2.88 24.96-8 29.76.48-1.92.48-3.68-1.6-3.68-1.6v1.92l-3.04-2.56 1.12 2.56-2.4-2.08v2.08l-3.2-3.2.48 1.76-2.72-1.12.32 1.6"/><path d="M404.32 197.76c6.08-4 15.36-1.28 15.36-1.28 6.08 3.2 9.28 2.72 9.92 8.96-.48-.16-2.08-2.24-2.08-2.24l-1.28 2.4-.32-3.36-.96 2.72-1.6-4.48-.32 3.04-2.24-3.04-.96.96-.96-2.4-.96 1.6s-1.6-.96-2.4-.48l-1.6-1.92-.48 1.44-1.6-1.6-.48 1.12-1.44-1.28v.96h-4.8"/><path d="M405.6 198.4c4.32 0 16.48 4.64 19.52 9.28a21.28 21.28 0 0 0-2.08-.96l-.48 1.92-.8-1.92-.16 1.6c-.48-1.28-.96-1.28-1.92-.16l-.32-1.76-.48 1.6-.8-1.76s-.48 1.92-.8 1.92c0 0-1.28-3.52-1.92-3.68l-.16 2.24-.8-2.24-.8 1.6v-2.24l-.96 1.6s-.32-1.6-.96-1.92l-1.28 1.12-5.44-4"/><path d="M404.8 199.52c5.6 2.08 10.72 9.92 10.24 13.12-2.4-3.2-1.92-2.72-3.04.96 0 0-.32-3.2-.8-3.52l-.8 2.24-.16-3.04h-.8l.16-1.76-1.12.8c.32-1.12.48-1.44-.64-2.4 0 0 1.6.16.32-2.4l-1.12.96s.32-1.12 0-1.6l-4.16-1.28"/><path d="M404.32 200l2.08 4.16-1.12.32 2.56 1.76-2.08-.16s3.2 1.12 3.52 4.32l-3.2-1.6s2.72 2.88 3.2 4.64l-2.08-1.6s1.92 1.92 1.6 4.8l-1.44-1.6c.32 3.68.32 4-1.28 6.72 0 0 .32-4.16 0-4.8l-3.68 3.84 1.92-5.28s-2.24 3.2-3.52 3.04l2.88-4.32-2.88 2.24 3.2-4.8-2.88.96s2.08-2.72 1.92-4.48l-2.08 2.24s.8-2.4.64-3.2l-1.12.16 2.08-2.24-1.44-.32.16-1.6-.96-.16v-1.76m1.76 0c3.52 4.8 1.76 12 3.84 15.84" fill-rule="nonzero"/></g><path d="M401.6 266.4s1.76-16 1.76-22.72c0-5.44-1.28-17.28-1.28-17.28h-5.28s-.8 11.84-.64 17.28c0 6.72 1.76 22.72 1.76 22.72h3.68z" stroke="#000" fill="#F1B517"/><path stroke="#000" fill="#F1B517" d="M396.32 227.2h6.4l-.8-4.32h-4.64l-.96 4.16z"/><path stroke="#000" fill="#F1B517" d="M396.8 223.68h5.6l-1.12-4.32h-3.52l-1.12 4.32z"/><path stroke="#000" fill="#F1B517" d="M397.12 220.32h4.8l-.96-4.32h-3.04z"/><path d="M401.12 215.52h-3.2l-.48 1.6h4l-.32-1.6zm.64 47.52h-4.16 4.16zm.32-3.2h-4.8 4.8zm.64-3.2h-6.08 6.08zm.32-3.36h-6.4 6.4zm0-3.52h-6.56 6.56zm.16-3.2h-7.04 7.04zm0-2.72h-7.36 7.36zm0-3.52h-7.36 7.36zm-.16-3.36h-7.2 7.2zm-.32-3.52h-6.56 6.56zm-.32-3.2h-5.92 5.92z" stroke="#000" fill="#F1B517" fill-rule="nonzero"/><path d="M400 190.4c-1.28-.48-3.68-2.08-3.04-3.04l1.12-1.92c1.6-3.52 0-2.24 0-3.2-.32-1.28 6.08-.32 6.08 2.08 0 .8-.48.32-.32 4.16l-1.28 2.4a5.6 5.6 0 0 1-2.72-.32l.16-.16z" stroke="#0A328C" fill="#0A328C"/><path stroke="#000" fill="#F1B517" d="M400.64 200l-1.6-1.44.48-11.36 1.6.48-.48 12.16z"/><path d="M402.72 190.88c.96-.64 1.6-2.4.96-3.36-1.6-2.08-2.72-1.28-5.44-2.24-.48.64-1.6 1.6-1.44 2.56 3.68 1.6 2.24.32 3.52.48.64 0 .96.8 2.4 2.4v.16z" stroke="#D20014" fill="#D20014"/></g><g transform="translate(324.8 249.6)"><path d="M56.8 6.88c-.32-.8-1.6-1.44-3.2-1.44s-2.72.64-3.2 1.44a1.28 1.28 0 0 1 0-.64c0-1.12 1.44-1.92 3.2-1.92 1.92 0 3.36.8 3.36 1.92.054.21.054.43 0 .64h-.16zm-.16 2.4c0 1.92-1.44 3.68-3.04 3.68s-2.88-1.6-2.88-3.84V7.2h5.92v2.08z" fill="#016A16" stroke="#FFF" stroke-linecap="round" stroke-width=".5"/><ellipse fill="#FFF" cx="53.6" cy="6.56" rx="2.88" ry="1.44"/><path stroke="#F1B517" stroke-width=".5" fill="#016A16" d="M52.96 8l-.48-5.12h2.24l-.32 5.28h-1.44z"/><path d="M56.8 6.56c-.32.8-1.6 1.44-3.2 1.44s-2.72-.64-3.2-1.44a1.28 1.28 0 0 0 0 .64c0 1.12 1.44 1.92 3.2 1.92 1.92 0 3.36-.8 3.36-1.92a1.28 1.28 0 0 0 0-.64h-.16z" stroke="#FFF" stroke-width=".5" fill="#016A16" stroke-linecap="round"/><g stroke-width=".5"><path stroke="#000" fill="#F1B517" d="M68.8 26.88l-11.2-3.52-4.96-8.48-17.44-.8.64 6.4 14.88 2.72L52 25.76l17.12 4.8-.32-3.68z"/><path stroke="#000" fill="#503200" d="M57.12 29.28L39.2 2.88l-.8.8L56 29.92z"/><path d="M40.96 4L39.04.8c-.48-.64-.96-.8-1.76-.32-.8.32-.64 1.12-.32 1.76l1.6 3.04L40.96 4z" stroke="#000" fill="#FFF"/><path stroke="#000" fill="#F1B517" d="M59.2 12.96l-36-3.68-.96 5.28 35.84 3.68z"/><path d="M22.4 8l-.8 7.2h1.6l.96-6.56-1.6-.64h-.16zm6.08 1.12l-.32 6.56h.96l.8-5.6-1.28-.96h-.16zM52.96 12L52 18.08h1.76l.8-6.08h-1.6zm5.28.16l-1.12 7.04 1.92.32.64-3.68c0 .8.8 1.28 1.6 1.28.96 0 1.6-.8 1.6-1.6 0-.96-.64-1.6-1.6-1.6a1.6 1.6 0 0 0-1.6.96l.48-2.56-1.92-.16zm-12.8 1.12l-5.12 5.6.64.64 6.4-4.32-2.08-1.92h.16zM33.6 27.2l4.96-5.6-.48-.64-6.4 4.32 1.92 1.92zm12.96-1.44l-5.92-4.64-.64.48 4.8 6.08 1.76-1.92zM31.68 15.04l6.24 4.48.64-.48-4.8-6.08-2.08 2.08zm6.72-3.68l.64 7.36h.8l1.92-7.2-3.36-.16zm1.92 17.6l-.48-7.2h-.96l-1.12 7.36h2.56v-.16zm8.16-9.6L40.8 20v.8l7.68.96V19.2v.16zm-18.24 2.4l7.52-1.12V20l-7.68-.8v2.56h.16z" stroke="#000" fill="#F1B517" fill-rule="nonzero"/><ellipse stroke="#000" fill="#F1B517" cx="39.52" cy="20.16" rx="2.08" ry="1.92"/><path d="M50.24 20.16c0 5.6-4.8 10.4-10.72 10.4a10.56 10.56 0 0 1-10.72-10.4c0-5.76 4.8-10.4 10.72-10.4a10.56 10.56 0 0 1 10.72 10.4zm-2.08 0a8.48 8.48 0 0 1-8.64 8.32A8.48 8.48 0 0 1 30.88 20a8.48 8.48 0 0 1 8.64-8.16 8.48 8.48 0 0 1 8.64 8.32z" stroke="#000" fill="#F1B517" fill-rule="nonzero" stroke-linecap="round"/><path d="M32.8 14.88l-1.6-1.28 1.6 1.28zm12-1.28l1.6-1.6-1.6 1.6zM48 26.72l-1.76-1.44L48 26.72zm-15.2 1.6l1.6-1.6-1.6 1.6zM69.12 9.76l1.76 9.6-1.44.64-1.6-10.08h1.28v-.16z" stroke="#000" fill="#F1B517" fill-rule="nonzero"/><path d="M68.16 8.64c-.8-.48-1.92.16-3.84-2.08-3.04 2.72 0 3.2.32 5.92.8.32 1.44-2.24 3.68-2.4L72 9.76l-.8-1.12H68h.16z" stroke="#000" fill="#FFF"/><path d="M69.44 10.4l-.32-2.72c-.48-1.12-1.6-.16-1.6.32l.32 2.72 1.6-.32z" stroke="#000" fill="#FFF"/><path d="M60.48 18.24v2.56c-.96.32-.8.96-.8 1.92v7.52c-.16.64-1.12.64-1.6.96-.48.48-.32 1.28 1.6 1.6l1.6.16c2.4-.48 2.88-1.28 1.6-1.6-.48-.32-1.44-.64-1.6-.96v-1.92h1.6c.32 0 1.12-.96 1.12-1.76v-4c0-2.24-1.6-2.56-2.24-2.4v-2.08h-1.28zm2.56 4.32c0-.64-.96-1.28-1.28-1.28-.32 0-1.12.8-1.12 1.44v1.6c0 .64.48 2.56 1.44 2.72.32 0 .96-.64.96-1.28v-3.2z" stroke="#000" fill="#F1B517" fill-rule="nonzero"/><path d="M50.08 26.08c-1.12-.32-1.12 1.92-1.12 1.92h1.6c.8.32 1.28 1.28.96 1.92-.48.32-3.52-.8-3.68 0 .48 3.04 4.64 4.16 6.08 2.88 1.44-1.44 1.76-4.8-2.88-5.92l-.96-.8zm.96.96l-.48.96.48-.96z" stroke="#000" fill="#FFF" fill-rule="nonzero"/><path d="M19.2 27.2l-1.6-6.4m3.36 6.08l-2.4-4.96m6.4 3.68l-5.28-2.88m7.68 2.24l-9.92-4.32" stroke="#000" fill="#F1B517" fill-rule="nonzero"/><path d="M11.52 16l-4.16.16c-.32.16.8 1.44.64 1.76-.96 1.76-7.04 1.6-7.52 1.28-.8-.8 5.6-1.28 5.76-1.6 0-.64-.96-1.92-.8-2.72 0-1.12 2.72-1.6 2.72-1.6L11.52 16z" stroke="#D20014" fill="#D20014"/><path d="M16.32 19.2l-8-6.72s-.48-.32-.8 0c-.32.32 0 .64 0 .64l8.64 7.04.16-.8v-.16z" stroke="#000" fill="#503200"/><path d="M24.32 25.92l-6.72-5.76-.48-1.6-1.28.96c-.48.32-.96 1.28-.96 1.28h1.76l5.76 5.44 1.76-.32h.16z" stroke="#000" fill="#F1B517"/><circle stroke="#000" fill="#F1B517" cx="47.2" cy="33.76" r="1.12"/><circle stroke="#000" fill="#F1B517" cx="44.16" cy="31.52" r="1.12"/><circle stroke="#000" fill="#F1B517" cx="40.16" cy="32.96" r="1.12"/><circle stroke="#000" fill="#F1B517" cx="33.92" cy="34.24" r="1.12"/><circle stroke="#000" fill="#F1B517" cx="31.2" cy="34.56" r="1.12"/><circle stroke="#000" fill="#F1B517" cx="28.48" cy="34.56" r="1.12"/><circle stroke="#000" fill="#F1B517" cx="25.92" cy="34.56" r="1.12"/><circle stroke="#000" fill="#F1B517" cx="27.2" cy="32.48" r="1.12"/><circle stroke="#000" fill="#F1B517" cx="29.76" cy="32.64" r="1.12"/><circle stroke="#000" fill="#F1B517" cx="32.16" cy="32.32" r="1.12"/><circle stroke="#000" fill="#F1B517" cx="31.04" cy="30.4" r="1.12"/><circle stroke="#000" fill="#F1B517" cx="28.48" cy="30.24" r="1.12"/><path d="M53.6 35.2c0-.48-1.28-.32-1.28-.96 0-.64 1.92 0 2.08.48 1.12-.96 1.6-.32 2.24 0 .96-1.28 2.08-1.28 3.2-.32.64-.64 2.24-.48 2.72.32 1.12-.96 2.08-.8 2.72 0 .32-.48.8-.48 1.12 0 .48-1.12 1.92-.8 2.56 0 .48-.64 1.12-.16 1.76.16.48-.32 1.28-.32 1.28 0 0 .64-.96.48-.96.96 0 .32.64 0 .64.64 0 .48-.96.64-1.12 0-.48.64-1.76.32-1.92-.32a1.28 1.28 0 0 1-1.92 0c-.48.32-1.12.32-1.28 0-.8.8-2.24.64-2.72-.32h-.48a1.6 1.6 0 0 1-2.4 0c-1.44.96-2.24.64-3.04 0-.8 1.12-2.24 1.12-2.4 0-.64.48-1.92.64-1.92 0 0-.32 1.12-.16 1.12-.64zm2.56.16c0 .32-.32.48-.64.48s-.64-.16-.64-.48c0-.32.16-.32.64-.32s.64.16.64.32zm3.04-.32c0 .32-.48.48-.96.48s-.8-.16-.8-.48c0-.16.32-.48.8-.48.48 0 .8.32.8.48h.16zm5.6.32c0 .32-.32.48-.8.48-.48 0-.64-.16-.64-.48 0-.16.32-.48.64-.48s.8.16.8.48zm-3.04 0c0 .32-.32.48-.8.48-.48 0-.64-.16-.64-.64 0-.32.32-.64.64-.64s.8.32.8.64v.16zm6.4 0c0 .16-.16.48-.48.48-.48 0-.8-.32-.8-.64s.32-.48.8-.48c.32 0 .64.16.64.48l-.16.16zm-1.92 0c0 .32 0 .48-.32.48s-.48-.16-.48-.48c0-.32.16-.32.48-.32l.32.32zm3.84.16c0 .32 0 .64-.48.64-.16 0-.48-.32-.48-.64s.32-.48.48-.48c.32 0 .48.16.48.48z" stroke="#000" fill="#F1B517" fill-rule="nonzero"/></g><g transform="matrix(-1 0 0 1 150.24 0)" stroke-width=".5"><path stroke="#000" fill="#F1B517" d="M68.8 26.88l-11.2-3.52-4.96-8.48-17.44-.8.64 6.4 14.88 2.72L52 25.76l17.12 4.8-.32-3.68z"/><path stroke="#000" fill="#503200" d="M57.12 29.28L39.2 2.88l-.8.8L56 29.92z"/><path d="M40.96 4L39.04.8c-.48-.64-.96-.8-1.76-.32-.8.32-.64 1.12-.32 1.76l1.6 3.04L40.96 4z" stroke="#000" fill="#FFF"/><path stroke="#000" fill="#F1B517" d="M59.2 12.96l-36-3.68-.96 5.28 35.84 3.68z"/><path d="M22.4 8l-.8 7.2h1.6l.96-6.56-1.6-.64h-.16zm6.08 1.12l-.32 6.56h.96l.8-5.6-1.28-.96h-.16zM52.96 12L52 18.08h1.76l.8-6.08h-1.6zm5.28.16l-1.12 7.04 1.92.32.64-3.68c0 .8.8 1.28 1.6 1.28.96 0 1.6-.8 1.6-1.6 0-.96-.64-1.6-1.6-1.6a1.6 1.6 0 0 0-1.6.96l.48-2.56-1.92-.16zm-12.8 1.12l-5.12 5.6.64.64 6.4-4.32-2.08-1.92h.16zM33.6 27.2l4.96-5.6-.48-.64-6.4 4.32 1.92 1.92zm12.96-1.44l-5.92-4.64-.64.48 4.8 6.08 1.76-1.92zM31.68 15.04l6.24 4.48.64-.48-4.8-6.08-2.08 2.08zm6.72-3.68l.64 7.36h.8l1.92-7.2-3.36-.16zm1.92 17.6l-.48-7.2h-.96l-1.12 7.36h2.56v-.16zm8.16-9.6L40.8 20v.8l7.68.96V19.2v.16zm-18.24 2.4l7.52-1.12V20l-7.68-.8v2.56h.16z" stroke="#000" fill="#F1B517" fill-rule="nonzero"/><ellipse stroke="#000" fill="#F1B517" cx="39.52" cy="20.16" rx="2.08" ry="1.92"/><path d="M50.24 20.16c0 5.6-4.8 10.4-10.72 10.4a10.56 10.56 0 0 1-10.72-10.4c0-5.76 4.8-10.4 10.72-10.4a10.56 10.56 0 0 1 10.72 10.4zm-2.08 0a8.48 8.48 0 0 1-8.64 8.32A8.48 8.48 0 0 1 30.88 20a8.48 8.48 0 0 1 8.64-8.16 8.48 8.48 0 0 1 8.64 8.32z" stroke="#000" fill="#F1B517" fill-rule="nonzero" stroke-linecap="round"/><path d="M32.8 14.88l-1.6-1.28 1.6 1.28zm12-1.28l1.6-1.6-1.6 1.6zM48 26.72l-1.76-1.44L48 26.72zm-15.2 1.6l1.6-1.6-1.6 1.6zM69.12 9.76l1.76 9.6-1.44.64-1.6-10.08h1.28v-.16z" stroke="#000" fill="#F1B517" fill-rule="nonzero"/><path d="M68.16 8.64c-.8-.48-1.92.16-3.84-2.08-3.04 2.72 0 3.2.32 5.92.8.32 1.44-2.24 3.68-2.4L72 9.76l-.8-1.12H68h.16z" stroke="#000" fill="#FFF"/><path d="M69.44 10.4l-.32-2.72c-.48-1.12-1.6-.16-1.6.32l.32 2.72 1.6-.32z" stroke="#000" fill="#FFF"/><path d="M60.48 18.24v2.56c-.96.32-.8.96-.8 1.92v7.52c-.16.64-1.12.64-1.6.96-.48.48-.32 1.28 1.6 1.6l1.6.16c2.4-.48 2.88-1.28 1.6-1.6-.48-.32-1.44-.64-1.6-.96v-1.92h1.6c.32 0 1.12-.96 1.12-1.76v-4c0-2.24-1.6-2.56-2.24-2.4v-2.08h-1.28zm2.56 4.32c0-.64-.96-1.28-1.28-1.28-.32 0-1.12.8-1.12 1.44v1.6c0 .64.48 2.56 1.44 2.72.32 0 .96-.64.96-1.28v-3.2z" stroke="#000" fill="#F1B517" fill-rule="nonzero"/><path d="M50.08 26.08c-1.12-.32-1.12 1.92-1.12 1.92h1.6c.8.32 1.28 1.28.96 1.92-.48.32-3.52-.8-3.68 0 .48 3.04 4.64 4.16 6.08 2.88 1.44-1.44 1.76-4.8-2.88-5.92l-.96-.8zm.96.96l-.48.96.48-.96z" stroke="#000" fill="#FFF" fill-rule="nonzero"/><path d="M19.2 27.2l-1.6-6.4m3.36 6.08l-2.4-4.96m6.4 3.68l-5.28-2.88m7.68 2.24l-9.92-4.32" stroke="#000" fill="#F1B517" fill-rule="nonzero"/><path d="M11.52 16l-4.16.16c-.32.16.8 1.44.64 1.76-.96 1.76-7.04 1.6-7.52 1.28-.8-.8 5.6-1.28 5.76-1.6 0-.64-.96-1.92-.8-2.72 0-1.12 2.72-1.6 2.72-1.6L11.52 16z" stroke="#D20014" fill="#D20014"/><path d="M16.32 19.2l-8-6.72s-.48-.32-.8 0c-.32.32 0 .64 0 .64l8.64 7.04.16-.8v-.16z" stroke="#000" fill="#503200"/><path d="M24.32 25.92l-6.72-5.76-.48-1.6-1.28.96c-.48.32-.96 1.28-.96 1.28h1.76l5.76 5.44 1.76-.32h.16z" stroke="#000" fill="#F1B517"/><circle stroke="#000" fill="#F1B517" cx="47.2" cy="33.76" r="1.12"/><circle stroke="#000" fill="#F1B517" cx="44.16" cy="31.52" r="1.12"/><circle stroke="#000" fill="#F1B517" cx="40.16" cy="32.96" r="1.12"/><circle stroke="#000" fill="#F1B517" cx="33.92" cy="34.24" r="1.12"/><circle stroke="#000" fill="#F1B517" cx="31.2" cy="34.56" r="1.12"/><circle stroke="#000" fill="#F1B517" cx="28.48" cy="34.56" r="1.12"/><circle stroke="#000" fill="#F1B517" cx="25.92" cy="34.56" r="1.12"/><circle stroke="#000" fill="#F1B517" cx="27.2" cy="32.48" r="1.12"/><circle stroke="#000" fill="#F1B517" cx="29.76" cy="32.64" r="1.12"/><circle stroke="#000" fill="#F1B517" cx="32.16" cy="32.32" r="1.12"/><circle stroke="#000" fill="#F1B517" cx="31.04" cy="30.4" r="1.12"/><circle stroke="#000" fill="#F1B517" cx="28.48" cy="30.24" r="1.12"/><path d="M53.6 35.2c0-.48-1.28-.32-1.28-.96 0-.64 1.92 0 2.08.48 1.12-.96 1.6-.32 2.24 0 .96-1.28 2.08-1.28 3.2-.32.64-.64 2.24-.48 2.72.32 1.12-.96 2.08-.8 2.72 0 .32-.48.8-.48 1.12 0 .48-1.12 1.92-.8 2.56 0 .48-.64 1.12-.16 1.76.16.48-.32 1.28-.32 1.28 0 0 .64-.96.48-.96.96 0 .32.64 0 .64.64 0 .48-.96.64-1.12 0-.48.64-1.76.32-1.92-.32a1.28 1.28 0 0 1-1.92 0c-.48.32-1.12.32-1.28 0-.8.8-2.24.64-2.72-.32h-.48a1.6 1.6 0 0 1-2.4 0c-1.44.96-2.24.64-3.04 0-.8 1.12-2.24 1.12-2.4 0-.64.48-1.92.64-1.92 0 0-.32 1.12-.16 1.12-.64zm2.56.16c0 .32-.32.48-.64.48s-.64-.16-.64-.48c0-.32.16-.32.64-.32s.64.16.64.32zm3.04-.32c0 .32-.48.48-.96.48s-.8-.16-.8-.48c0-.16.32-.48.8-.48.48 0 .8.32.8.48h.16zm5.6.32c0 .32-.32.48-.8.48-.48 0-.64-.16-.64-.48 0-.16.32-.48.64-.48s.8.16.8.48zm-3.04 0c0 .32-.32.48-.8.48-.48 0-.64-.16-.64-.64 0-.32.32-.64.64-.64s.8.32.8.64v.16zm6.4 0c0 .16-.16.48-.48.48-.48 0-.8-.32-.8-.64s.32-.48.8-.48c.32 0 .64.16.64.48l-.16.16zm-1.92 0c0 .32 0 .48-.32.48s-.48-.16-.48-.48c0-.32.16-.32.48-.32l.32.32zm3.84.16c0 .32 0 .64-.48.64-.16 0-.48-.32-.48-.64s.32-.48.48-.48c.32 0 .48.16.48.48z" stroke="#000" fill="#F1B517" fill-rule="nonzero"/></g><path d="M74.88 15.52c-4 0-7.2 1.6-7.2 3.36 0 .32 0 .64.32.96.8.96 3.68 1.6 7.04 1.6 3.2 0 5.76-.48 6.72-1.44.32-.32.48-.64.48-1.12 0-1.76-3.2-3.2-7.36-3.2v-.16z" stroke="#0A328C" stroke-width=".5" fill="#0A328C"/><path d="M82.24 19.2v11.2c0 1.44-3.2 2.4-7.2 2.4s-7.36-.96-7.36-2.4V19.2c0 1.28 3.2 2.4 7.2 2.4 4.16 0 7.36-1.12 7.36-2.4z" stroke="#000" stroke-width=".5" fill="#F1B517"/><path d="M67.68 19.2v1.6L71.2 32l2.88-8.64 3.2 8.8 2.08-8.32 2.88 5.6V26.4l-2.56-5.44a13.28 13.28 0 0 1-.96.32l-1.6 6.08-2.4-5.76a23.2 23.2 0 0 1-1.12 0l-2.4 5.76-2.56-7.04c-.64-.32-.96-.8-.96-1.12z" stroke="#D20014" stroke-width=".5" fill="#D20014"/><path d="M82.24 28.32v2.08c0 1.44-3.2 2.4-7.2 2.4s-7.36-.96-7.36-2.4v-2.08c0 1.44 3.2 2.4 7.2 2.4 4.16 0 7.36-.96 7.36-2.4z" stroke="#0A328C" stroke-width=".5" fill="#0A328C"/><path d="M77.92 30.4l-1.76.32v2.08l1.92-.16v-2.08l-.16-.16zm-7.68-.16v2.08l1.76.32v-2.08a14.24 14.24 0 0 1-1.76-.32zm-2.56-1.92v2.08c0 .48.32.8.8 1.12v-2.08c-.48-.32-.8-.64-.8-1.12zm14.56.32c0 .32-.64.8-1.28 1.12v2.08c.8-.32 1.28-.8 1.28-1.44v-1.76z" stroke="#000" stroke-width=".5" fill="#F1B517" fill-rule="nonzero"/><path d="M82.24 19.2v11.2c0 1.44-3.2 2.4-7.2 2.4s-7.36-.96-7.36-2.4V19.2" stroke="#000" stroke-width=".5"/><path d="M80.64 18.4c0 .8-2.56 1.6-5.6 1.6-3.2 0-5.76-.8-5.76-1.6s2.56-1.44 5.6-1.44c3.2 0 5.76.64 5.76 1.6v-.16z" stroke="#FFF" stroke-width=".5" fill="#FFF"/><path d="M73.12 19.52l.32 1.92h1.6l.16-1.92h-2.08zm6.56-.48l-1.6.32.16 1.92 1.6-.32V19.2l-.16-.16zm-8.64-3.2l-1.12.48.16 1.6.96-.32v-1.76zm3.84-.48h-.48l.32 1.92h.96l.32-1.92a15.52 15.52 0 0 0-1.12 0zm4.32.64l-.16 1.6 1.12.48v-1.6a8.48 8.48 0 0 0-.96-.48zm-10.4 4.48l.32-2.08-1.6-.8V20l1.28.48zM82.24 20v-2.08l-1.28.48 1.28 1.6zM97.12 6.4c1.28 0 3.2 1.6 3.36 4 0 1.6-2.72 1.6-2.72 1.6 0 .8-1.6 1.44-2.88 1.6-1.28 0 .32-2.4.32-2.4-.8-2.08.32-4.32.32-4.32l1.6-.48z" stroke="#000" stroke-width=".5" fill="#F1B517" fill-rule="nonzero"/><path d="M95.2 11.2h1.28s0 .48.32.48.48-.64.48-.64h1.92" stroke="#000" stroke-width=".5" fill="#F1B517"/><path d="M97.76 7.84c1.12-.8.16-2.4-.64-2.4h-1.6c-.96 0-2.24.96-2.08 1.6 0 .8.64 1.12 1.28.96.32 0 .96-.96 1.28-.96.48 0 1.6.96 1.76.8z" stroke="#F1B517" stroke-width=".5" fill="#D20014"/><path d="M17.92 30.08c-.96.16-1.12 1.28-.8 2.4-4.16 1.12-8 2.72-11.84 3.84-.16-.8 1.92-2.88 1.92-2.88.48.16.96 1.44.96 1.44 0-2.56 2.56-4.16 2.56-4.16-1.6-.32-5.92 1.6-6.4 2.24 0 0 1.6-.32 1.92 0 0 0-3.52 3.68-3.68 4.8.64 1.12 6.4 2.08 6.4 2.08 0 .32-1.6 1.6-1.6 1.6 2.4.32 5.92-1.28 6.88-2.24 0 0-2.72-.32-4.8-2.08 0 0 .32 1.12 0 1.6 0 0-3.2-.96-3.68-1.6 0 0 8-1.92 11.84-3.2.16.8.96 2.08 1.92 1.76.48-.16.32-1.28 0-2.24.262.234.61.35.96.32.64 0 1.12-.48 1.12-1.12 0-.64-.48-1.12-1.12-1.12a1.28 1.28 0 0 0-1.12.8c-.16-.8-.64-2.24-1.28-2.08l-.16-.16zm3.2 2.56c0 .32-.32.48-.64.48a.48.48 0 0 1-.64-.48c0-.32.32-.64.64-.64s.48.32.48.64h.16z" stroke="#000" stroke-width=".5" fill="#F1B517" fill-rule="nonzero"/><path d="M144 35.04c.32-.64 0-3.52 0-3.52-.8 0-1.6 1.12-1.6 1.12.8-2.56-1.28-6.4-1.28-6.4 1.44.16 6.24 4.8 6.4 5.76 0 0-2.08-.8-2.4-.64.48 2.4 2.08 3.52 2.72 4.8 0 0-2.72.48-2.56 2.88h-1.76c-.64-.8.16-2.08.16-2.08l-12.32-5.12c-.8-.32-2.56-1.28-2.24-2.24.16-.8 3.2.48 3.84.8l11.2 4.64H144z" stroke="#000" stroke-width=".5" fill="#F1B517"/><path d="M132.16 32.8l1.6-2.56c.48-.8-.64-1.6-1.44-.64l-1.6 2.4c-.64 1.44.8 1.76 1.6.8h-.16z" stroke="#000" stroke-width=".5" fill="#F1B517"/></g><g fill="#FFF" stroke="#000" stroke-width=".3"><path d="M370.2 288.6l-.1-3-3.5.3-.2 3.1 3.8-.4z"/><path d="M344.4 292.7l-4.7-2.7c19.4 1.8 23.4-5 28.1-5.3 3-.3 3.3 3.2-2.3 1.5l1.5 3.6s-13.8 7.8-27.4 4.6l4.8-1.7zm84.8-4.1l.1-3 4.3.2.2 3.1-4.6-.3z" fill-rule="nonzero"/><path d="M455.9 292l4.5-2.5c-22.4.7-17.3-3.6-28.4-4.8-3-.4-5 3.4 2.2 1.5l-1.4 3.6h3.5c7.6 5 17.8 5.5 24.6 3.9l-5-1.7z"/><path d="M365.5 286.3v5s12.3 4.6 34.4 4.6c22.2 0 34.4-4.6 34.4-4.6v-5s-9.3 4.3-34.4 4.3c-25 0-34.4-4.3-34.4-4.3z"/></g><path d="M367.3 291.3l1.1-3.7.5.2-1 3.2 2 .5-.2.5-2.4-.7zm3.6-1.6v-.7l.2-.7.6.2-.2.6-.3.7-.3-.1zm5.3-.3l.5.2-.4 2.1-.4 1a1.2 1.2 0 0 1-.5.4h-1a2 2 0 0 1-.9-.4 1 1 0 0 1-.4-.6l.1-1 .5-2.2.5.1-.5 2.2a2.1 2.1 0 0 0 0 .8.7.7 0 0 0 .2.4l.5.2h1l.4-1 .4-2.2zm.6 4l.6-3.7h.6l1.5 3.4.5-3h.5l-.6 3.9-.5-.1-1.6-3.3-.5 3-.5-.1v-.1zm4 .7l.6-3.8h.5l-.5 3.8h-.6zm1.6-1.7c0-.6.3-1.1.7-1.4a2 2 0 0 1 1.4-.4c.4 0 .7.1 1 .3l.5.8c.2.3.2.7.1 1a2.2 2.2 0 0 1-.3 1 1.7 1.7 0 0 1-.8.7 2 2 0 0 1-1 .1 2 2 0 0 1-1-.3 1.7 1.7 0 0 1-.5-.8 2.1 2.1 0 0 1-.1-1zm.5 0c0 .5 0 1 .3 1.2.2.3.5.5.9.5s.7 0 1-.3c.3-.2.4-.6.5-1a1.9 1.9 0 0 0 0-1 1.2 1.2 0 0 0-.5-.5 1.3 1.3 0 0 0-.7-.3c-.3 0-.7 0-1 .3-.2.2-.4.6-.5 1.2v-.1zm3.7 2.3l.3-3.8h.6l1.8 3.2.2-3h.5l-.3 3.9h-.5l-1.9-3.2-.2 3h-.5v-.1zm5.6.4l.1-3.8 2.7.1v.5l-2.1-.1-.1 1.1 1.9.1v.5l-2-.1v1.8h-.5v-.1zm3 .1l1.5-3.8h.6l1.5 4h-.6l-.4-1.3h-1.7l-.4 1.2h-.6l.1-.1zm1-1.5h1.4l-.4-1a9.8 9.8 0 0 1-.2-.9l-.2.8-.5 1.1h-.1zm3.1 1.6v-3.8h.6v3.8h-.6zm2.5 0V292h-1.3v-.4h3.1v.4h-1.3v3.4h-.5v-.1zm4 0l-.3-4h.6l.1 3.4h2v.4l-2.5.1.1.1zm2.6-.2l1.2-4h.6l2 3.7h-.7l-.5-1h-1.7l-.3 1.3h-.6zm1-1.7h1.4l-.5-1-.4-.9a4.8 4.8 0 0 1-.1.8l-.4 1.1zm4.7 1.2l-.4-3.8 2.6-.3.1.5-2.1.2v1.2l2-.2v.5l-1.9.2.2 1.7h-.5zm3-2.1a2 2 0 0 1 .2-1.6 2 2 0 0 1 1.3-.7l1 .1c.4.1.6.3.8.6l.4 1-.1 1a1.6 1.6 0 0 1-.6.8 2 2 0 0 1-.9.4 2 2 0 0 1-1-.1 1.7 1.7 0 0 1-.8-.6 2.1 2.1 0 0 1-.4-1l.1.1zm.5-.1c0 .4.2.8.5 1 .3.3.6.3 1 .3s.7-.2 1-.5c.2-.3.2-.7.2-1.2a2 2 0 0 0-.3-.8 1.3 1.3 0 0 0-.6-.5 1.4 1.4 0 0 0-.7 0c-.4 0-.7.1-1 .4-.1.3-.2.7-.1 1.3zm4.1 1.3l-.6-3.8 1.7-.3h.8c.2 0 .4 0 .5.2l.3.6c0 .3 0 .5-.2.7-.1.2-.4.4-.7.5a1.4 1.4 0 0 1 .3.1l.5.5 1 .9h-.7l-.7-.6a7.4 7.4 0 0 0-.5-.5 1.2 1.2 0 0 0-.3-.2.8.8 0 0 0-.3 0h-.3l-.6.1.4 1.7h-.6v.1zm.2-2.2l1-.2a1.7 1.7 0 0 0 .6-.2.6.6 0 0 0 .3-.6.6.6 0 0 0-.2-.4h-.7l-1.3.1.3 1.3zm6.3-.4h.5c0 .4-.1.8-.3 1a2 2 0 0 1-1 .6 2 2 0 0 1-1 0 1.6 1.6 0 0 1-.8-.6 2.6 2.6 0 0 1-.5-1 2.2 2.2 0 0 1 0-1c0-.4.3-.7.5-.9l.9-.4h1c.4.2.6.4.8.8l-.5.2a1.2 1.2 0 0 0-.5-.5 1.1 1.1 0 0 0-.7 0 1 1 0 0 0-.7.3 1.1 1.1 0 0 0-.3.7v.7c.08.29.216.562.4.8.1.2.3.4.6.4h.7a1.1 1.1 0 0 0 .6-.3c.2-.2.3-.5.3-.8zm1.4 1l-1-3.7 2.7-.7.2.4-2.3.6.3 1.1 2.1-.5.2.4-2.2.6.4 1.2 2.4-.6v.4l-2.8.8z" fill="#000" fill-rule="nonzero"/></g></svg>