<svg width="800" height="480" xmlns="http://www.w3.org/2000/svg"><g fill="none" fill-rule="evenodd"><path fill="#FFF" d="M800 480H0V0h800z"/><path fill="#00C" fill-rule="nonzero" d="M800 108.288H0V45.12h800zm0 329.47H0V374.59h800zM295 180l103.494 180.104 105.75-179.258L295 180.094z"/><path fill="#00C" d="M295 302.104L398.588 122l105.656 179.352z"/><path d="M379.57 298.998l19.646 33.37 20.116-33.182-39.856-.188h.094zm0-118.628L399.216 147l20.116 33.276-39.856.094h.094zm-41.172 74.73L318 288.94l38.54-.094-18.142-33.84v.094zm-20.022-62.51l38.728.282-18.612 34.122-20.116-34.404zm142.128 62.98l19.646 33.37-39.198-.47 19.552-32.9zm19.27-62.98l-38.728.282 18.612 34.122 20.116-34.404zm-107.442 0l-26.696 48.316 27.072 47.282 49.632 1.128 30.08-48.41-27.824-48.88-52.264.47v.094z" fill="#FFF" fill-rule="nonzero"/></g></svg>