<svg width="800" height="480" xmlns="http://www.w3.org/2000/svg"><g fill="none" fill-rule="evenodd"><path fill="#BA0000" d="M800 480H0V0h800z"/><path d="M419.02 341.44c.188-.564.564-6.392.376-6.392-.188 0-8.836-10.246-8.648-10.246.188 0 11.092 2.444 11.092 2.068 0-.376 4.418-10.81 4.418-10.998l5.264 12.69 10.81 4.7-7.52 6.298 1.598 12.22c0 .282-7.52-7.144-7.52-7.144l-8.366.94s-1.128-3.76-1.504-4.136z" stroke="#000" stroke-width="2.068" fill="#FFEF00"/><path d="M360.458 182.486c-7.238 3.76-34.78 35.25-38.54 40.138a72.662 72.662 0 0 1-15.792 21.996c-6.862 5.17-10.622 12.22-9.682 18.8 0 8.46 4.606 14.1 8.272 19.834 2.162 2.726 5.17 4.418 8.272 4.7 6.486.752 7.05 2.82 10.34 3.948 12.596 17.296 31.584 30.08 45.12 40.138a64.296 64.296 0 0 1 16.92 11.656c3.948 7.708 3.196 15.04 2.632 18.8l-10.058 38.164c-1.786 10.34 7.332 8.084 7.802 6.016 4.042-5.358 10.152-1.598 18.8-32.242l12.032-16.074s4.606-1.88 4.606-2.35c7.05-8.46 1.692-13.16-2.35-14.758l-8.648-3.196s-10.152-10.152-10.622-10.152c-4.794-14.006-28.482-43.804-33.934-47.94-3.76-4.042-5.64-5.64-9.212-7.896-5.546-2.632-7.332-3.572-10.716-4.888-2.82-1.128-.846-4.23.94-5.64 18.8-10.246 33.558-21.526 51.512-32.994l2.82-1.88-6.486-36.848-29.892-10.528c-1.598 1.034-2.82 2.162-4.136 3.196z" stroke="#000" stroke-width="2.444" fill="#FFF"/><path d="M385.462 376.314c0-.376 18.8-3.76 18.8-3.76l-2.35 6.956-18.518 5.64 2.068-8.742v-.094z" fill="#FFEC00"/><path d="M336.864 306.19a35.626 35.626 0 0 1 20.304-19.176" stroke="#000" stroke-width="2.068"/><path d="M384.804 376.502c1.222-.282 6.58-1.88 8.084-2.162 1.692-.376 3.29-.752 4.888-1.316 1.88-.376 3.008-.752 4.888-1.034a36.66 36.66 0 0 1 4.7-1.316m-25.944 17.39a13.78 13.78 0 0 1 2.35-1.88c1.034-.376 4.7-1.88 6.11-2.162a50.76 50.76 0 0 0 4.418-1.316l4.324-1.128c1.41-.564 2.726-.94 4.136-1.316" stroke="#000" stroke-width="2.256"/><path d="M388.94 308.916h-.188c.752 0 .282 0-.846 1.316-.376 1.034-3.76 3.478-6.392 3.478a49.82 49.82 0 0 1-4.418.282l-1.222-.282M388.752 364h1.316c1.41 0 2.82.282 3.948.282 1.41 0 2.726.376 4.042.376 1.41.188 3.008.094 4.418.376 1.504 0 2.82.282 4.418.282 1.316.094 2.068.282 3.478.282l-3.478-.282c1.316.094 2.068.282 3.478.282m-30.738 31.02a12.784 12.784 0 0 1 2.162-1.88c.94-.282 4.324-1.88 5.64-2.068a43.898 43.898 0 0 0 3.948-1.41l4.042-.94c1.222-.658 2.444-1.034 3.76-1.41m5.452-38.728c-.752 2.162.282 2.726.658 3.666a11.28 11.28 0 0 0 5.358 3.196c1.128.282 1.88.564 3.196 1.128.846 0 1.222.282 1.88.47M298.794 269.53h.282c-.846 0-.282.094 1.034-.94.94-1.034 1.598-1.504 2.444-2.538m13.536 22.56c.188 0 15.604-7.708 17.202-9.4l3.478-2.726c.94-.47 1.598-1.034 2.444-1.598.658-.94 1.598-1.598 2.162-2.538.94-.846.47-1.692 1.316-2.726l1.222-3.572m19.552 11.468c.094.564-.188 2.256-.188 3.572 0 1.504-1.974 6.11-4.324 7.52" stroke="#000" stroke-width="2.068"/><path d="M335.924 277.332l6.298 1.974c4.7 1.692 14.476 7.896 15.51 8.742.94.752 2.82 1.504 3.384 2.35 1.128.94 1.88 1.974 2.726 3.008.94 1.128 1.88 2.162 2.35 3.196a106.408 106.408 0 0 1 12.596 23.03c.658.658.94 1.598 1.598 2.632.564 1.316 1.222 1.88 1.88 2.914.94.658 2.068 1.88 3.196 2.444 1.222 1.034 2.35 1.41 3.29 2.162 1.222.564 15.322 9.4 15.98 9.87 1.316 1.034 5.17 5.076 2.444 8.084-1.128.94-2.256 2.35-3.196 2.82-1.034 1.128-2.444 1.598-3.666 2.068-6.298 1.88-9.588 1.222-10.81 1.222h-1.316m-83.472-108.006c1.88.752 1.128.188 2.726.94 1.128.47 1.88.47 2.82.94 1.222.282 4.418.94 5.922 2.444 1.128.94 1.88 1.88 3.196 2.538a20.492 20.492 0 0 0 4.324 2.256c1.504.564 3.196 1.222 4.7 1.222h7.332-3.76 3.76" stroke="#000" stroke-width="2.068"/><path d="M304.34 263.702c3.948-.282 10.622.94 10.81.94l8.836-.188c4.7-.376 5.64-2.162 6.392-3.478 1.786-2.632 2.914-3.572 4.324-5.64 2.068-1.504 5.076 2.162 5.17 2.162 7.52 7.144 1.504 15.792 1.128 16.074-3.76 3.478-4.606 3.666-6.862 1.504-2.256-2.726-2.914-3.948-4.794-4.888-3.666-1.692-11.092-.376-11.28-.376l-3.854 1.504c-1.88.658-3.008 2.256-6.11 2.82-3.29.188-4.324-.094-5.922-2.726-2.162-3.29-1.128-7.332 2.162-7.708z" stroke="#000" stroke-width="2.068" fill="#FFE606"/><path d="M513.772 101.458c-.564 0-5.922 2.632-5.828 2.82.094.094-4.512 12.69-4.606 12.596-.094-.188-3.29-10.998-3.666-10.81-.282.188-11.562 1.504-11.656 1.598l8.46-10.81-1.222-11.75 9.212 3.572 9.87-7.52c.188-.094-2.538 10.152-2.538 10.152l4.888 6.768s-2.82 2.82-2.914 3.384z" stroke="#000" stroke-width="2.068" fill="#FFEF00"/><path d="M403.98 230.426c6.674 4.418 47.658 13.066 53.862 13.912a72.38 72.38 0 0 1 26.884 3.008c7.802 3.384 15.792 3.196 21.15-.94 7.332-3.948 9.964-10.716 13.16-16.92a11.28 11.28 0 0 0 0-9.4c-2.444-6.016-.94-7.52-1.504-10.904 8.836-19.552 10.716-42.3 12.784-59.126-.188-9.87.846-17.39 1.88-20.398a30.08 30.08 0 0 1 15.04-11.468l38.258-9.964c9.964-3.572 3.478-10.34 1.41-9.776-6.58-.94-6.392-8.084-37.318-.658l-19.928-2.538s-3.76-3.102-4.23-2.82c-10.81-1.974-12.314 4.982-11.75 9.212l1.504 9.212s-3.854 13.724-3.666 14.1c-9.87 11.092-24.44 46.624-25.38 53.486-.47 6.392-2.82 5.17-2.256 11.468 0 4.888-.564 1.88 1.034 11.844.47 3.008-3.29 2.82-5.358 1.88-18.048-11.28-35.156-18.706-54.05-28.67l-2.914-1.504-28.952 23.688 5.452 31.208c1.692.94 3.196 1.41 4.794 2.068h.094z" stroke="#000" stroke-width="2.444" fill="#FFF"/><path d="M560.678 113.584a352.5 352.5 0 0 1-12.502-14.476l7.144-1.41 13.912 13.442-8.554 2.444z" fill="#FFEC00"/><path d="M523.36 190.288a35.626 35.626 0 0 1-26.696-8.272" stroke="#000" stroke-width="2.068"/><path d="M561.148 114.054c-.94-.846-4.888-4.7-5.828-6.016a62.51 62.51 0 0 0-3.572-3.572c-1.222-1.41-2.162-2.256-3.384-3.76a34.874 34.874 0 0 1-3.384-3.384m27.824 14.1c-.282 0-1.88-.658-2.82-1.128-.752-.846-3.948-3.196-4.794-4.324a50.948 50.948 0 0 0-3.29-3.196c-1.128-1.222-1.974-1.88-3.102-3.29a28.482 28.482 0 0 1-3.196-2.82" stroke="#000" stroke-width="2.256"/><path d="M500.142 143.57l.094.282c-.376-.752-.188-.282 1.598 0 1.128-.188 4.888 1.598 6.11 3.854.752 1.034 1.88 2.632 2.444 3.76.188.282.188.94.376 1.222m37.6-35.908l-.188-.188-.564-.94-1.692-3.666c-.658-1.128-.94-2.538-1.598-3.666-.564-1.316-1.41-2.632-1.88-3.948-.752-1.41-1.128-2.632-1.88-4.136-.658-1.128-.752-1.88-1.504-3.102l1.504 3.102c-.658-1.128-.752-1.88-1.504-3.102m42.112 11.562a11.28 11.28 0 0 1-2.632-.94c-.752-.658-3.76-2.82-4.7-3.76a44.18 44.18 0 0 0-3.102-2.82c-.94-1.222-1.786-1.88-2.82-3.102a24.628 24.628 0 0 1-3.008-2.538m-36.566 14.1c2.35-.376 2.35-1.504 2.914-2.35.47-.94.846-3.29.188-6.204l-.564-3.29c-.376-.846-.376-1.316-.47-1.88m-20.398 145.512l-.094-.188c.376.752.188.282-1.504-.47l-3.29-.94m13.066-22.842c-.094-.188-14.382-9.776-16.638-10.34-1.316-.658-2.538-.94-4.042-1.692l-2.632-1.316c-1.222-.188-2.256-.658-3.29-.658-1.128-.376-1.786.376-3.008.188l-3.76.658m.47-22.654c.376-.376 2.068-.94 3.196-1.598 1.316-.658 6.298-1.222 8.648.094" stroke="#000" stroke-width="2.068"/><path d="M498.638 205.328l-1.41-6.58a94 94 0 0 1 0-17.672c.188-1.222 0-3.196.47-4.23.282-1.316.752-2.538 1.222-3.76.564-1.41 1.034-2.632 1.598-3.666.658-3.76 11.28-18.894 12.032-19.646a40.42 40.42 0 0 1 1.88-2.538c.282-.94.94-1.692 1.504-2.82.94-1.034 1.128-1.88 1.692-3.008.094-1.034.564-2.726.564-3.948.282-1.598 0-2.82.282-3.854-.188-1.41.658-18.048.752-18.8.282-1.692 1.88-7.05 5.828-6.11 1.41.47 3.102.752 4.136 1.41 1.316.376 2.444 1.41 3.478 2.162 4.7 4.606 5.734 7.708 6.392 8.836l.658 1.128M486.324 247.44l-.094-.188c.376.658.188.282-.282-1.034-.094-1.222-.47-2.82-.658-3.948-.282-1.222-.846-2.538-.658-3.29-.47-1.222-.188-2.162 0-3.384.282-1.504.47-2.538.47-3.948.188-1.88 0-3.008.094-4.7-.47-1.41-.564-2.538-1.222-3.948l-1.88-3.76-1.88-3.29 1.88 3.196-1.88-3.196" stroke="#000" stroke-width="2.068"/><path d="M502.21 239.544c-2.162-3.384-4.418-9.776-4.512-9.87l-4.418-7.708c-2.632-3.76-4.7-3.76-6.204-3.76-3.196-.282-4.606-.94-6.956-1.034-2.444-1.128-.658-5.546-.752-5.64 2.538-9.964 13.16-9.024 13.536-8.836 4.794 1.598 5.358 2.256 4.606 5.264-1.222 3.29-1.88 4.512-1.88 6.58.282 3.948 5.17 9.87 5.17 9.964l3.196 2.632c1.504 1.316 3.478 1.504 5.452 4.042 1.786 2.726 2.068 3.76.564 6.392-1.88 3.572-5.828 4.606-7.802 1.974z" stroke="#000" stroke-width="2.068" fill="#FFE606"/><path d="M253.768 146.578c.47.376 5.452 3.478 5.64 3.29.188-.188 13.16-3.196 12.972-3.008-.188.188-7.332 8.742-6.956 8.93.376.188 7.52 8.836 7.708 8.93l-13.63-1.128-9.212 7.332-2.068-9.588-11.562-4.136c-.188-.094 9.87-3.384 9.87-3.384l3.008-7.802s3.854.658 4.418.564h-.188z" stroke="#000" stroke-width="2.068" fill="#FFEF00"/><path d="M421.84 167.822c0-8.178-15.228-47.188-17.86-52.734a72.568 72.568 0 0 1-12.22-24.158c-1.41-8.46-5.922-15.04-12.22-17.296-7.426-3.854-14.57-2.35-21.432-1.692-3.384.658-6.298 2.538-7.896 5.17-3.76 5.358-5.734 4.888-8.366 7.238-21.15 3.29-41.172 14.194-56.4 21.62a63.92 63.92 0 0 1-18.142 9.588 30.08 30.08 0 0 1-17.86-6.204L220.21 82.752c-8.46-6.298-10.528 2.82-8.93 4.23 2.82 6.016-3.29 9.682 19.928 31.584l8.742 18.048s-.47 4.888 0 5.076c4.136 10.152 10.904 7.614 14.1 4.794l6.862-6.298s13.63-4.324 13.818-4.7c14.664 2.162 52.452-4.982 58.656-7.99 5.64-3.102 5.922-.47 10.81-4.418 4.042-2.726 1.88-.564 9.4-7.426 2.256-1.88 4.042 1.222 4.512 3.478.376 21.338 3.572 39.668 5.546 60.912l.376 3.29 35.72 11.28 23.124-21.62-.94-5.264-.094.094z" stroke="#000" stroke-width="2.444" fill="#FFF"/><path d="M238.258 100.612c.282.282-5.264 18.424-5.264 18.424l-5.076-5.17 3.572-19.082 6.768 5.828z" fill="#FFEC00"/><path d="M322.952 89.896c6.768 7.52 8.93 19.928 7.708 26.884" stroke="#000" stroke-width="2.068"/><path d="M238.54 99.954c-.282 1.222-1.41 6.768-1.88 8.178a62.792 62.792 0 0 0-1.128 4.982l-1.316 4.888a27.743 27.743 0 0 1-.94 4.7m-3.478-31.02c.094.282.47 1.88.564 2.914-.188 1.128-.47 5.076-.94 6.486a51.136 51.136 0 0 0-.846 4.512l-.94 4.324a28.764 28.764 0 0 1-.752 4.324" stroke="#000" stroke-width="2.256"/><path d="M296.538 134.922l.094-.282c-.376.752 0 .282-.752-1.316-.846-.94-1.316-4.982-.188-7.332a51.7 51.7 0 0 1 1.88-4.042c.094-.282.564-.658.752-.94m-50.572-11.75l-.094.188-.564.94c-.564 1.316-1.504 2.444-2.068 3.478-.564 1.222-1.598 2.162-2.162 3.384l-2.256 3.76c-.846 1.316-1.692 2.35-2.444 3.76l-1.88 3.008 1.88-3.008-1.88 3.008m-13.348-41.642c.188.188.658 1.786.752 2.82-.188.94-.376 4.7-.752 5.922l-.658 4.136c-.376 1.504-.47 2.538-.94 4.042a24.628 24.628 0 0 1-.47 3.948m31.772 22.936c-1.598-1.786-2.538-1.128-3.572-1.222a11.28 11.28 0 0 0-5.358 3.29 19.602 19.602 0 0 1-2.444 2.35c-.47.752-.846.94-1.316 1.41m133.01-62.792l-.094.282c.376-.752.094-.376.47 1.41.47 1.222.47 2.068.94 3.196m-26.226 1.692c0 .188-.282 17.39.47 19.646.188 1.41.564 2.538.752 4.324 0 .94.282 1.88.376 2.82.564 1.128.658 2.256 1.316 3.102.282 1.222 1.222 1.316 1.786 2.35.658.846 1.88 2.256 2.632 2.82m-19.27 12.126c-.564-.188-1.88-1.316-3.008-1.88-1.316-.752-4.606-4.606-4.7-7.332" stroke="#000" stroke-width="2.068"/><path d="M348.99 102.304l-4.7 4.7a88.642 88.642 0 0 1-14.852 9.682c-1.128.564-2.538 1.88-3.76 1.974-1.222.564-2.538.752-3.76 1.034a106.596 106.596 0 0 1-26.978 1.41 40.608 40.608 0 0 1-3.196-.188c-.94.188-1.88.094-3.102.188-1.504-.094-2.256.188-3.478.282-.94.564-2.538 1.034-3.666 1.786-1.41.564-2.35 1.41-3.384 1.88-.94.846-15.416 9.212-16.168 9.588-1.504.658-6.862 2.35-8.272-1.504-.376-1.504-.94-3.102-1.034-4.23-.47-1.316-.188-2.82-.188-4.136 1.316-6.486 3.384-9.024 3.948-10.152l.658-1.128M390.82 89.52l-.094.282c.282-.658.188-.376-.752.752-.94.752-2.068 1.88-2.914 2.82-.94.752-1.692 1.88-2.444 2.256-.752.94-1.692 1.316-2.82 1.88a18.8 18.8 0 0 0-3.572 1.786c-1.598.752-2.538 1.598-3.948 2.444-.94 1.128-1.88 1.88-2.632 3.196-.752 1.222-1.504 2.256-2.162 3.666l-1.692 3.29 1.692-3.29-1.692 3.29m10.998 68.714l.282-.47c-.47.94-.376.658.094-.846 0-1.692.47-3.854.47-5.452.282-1.692.564-3.478.564-5.17-.094-1.88-.094-3.76-.376-5.64 0-1.692-.282-3.478-.282-5.264 0-1.692-.188-3.102-.564-4.7a27.73 27.73 0 0 0-.376-4.512c.094-1.128-.188-2.256-.47-3.196l-1.128-4.794-.94-3.854c-.188-1.504-.94-3.384-1.316-4.606a12.784 12.784 0 0 1-1.034-3.196c-.47-1.034-1.128-2.256-1.222-3.384l-1.504-3.478-1.316-3.384c-.47-1.316-1.034-2.444-1.41-3.76-.47-.47-.564-.94-.752-1.316" stroke="#000" stroke-width="2.068"/><path d="M375.686 80.59a55.46 55.46 0 0 1-5.828 9.118l-3.948 7.896c-1.692 4.324-.658 6.11.094 7.332 1.598 2.82 1.88 4.324 3.008 6.392.47 2.632-4.23 3.572-4.23 3.666-9.776 3.384-14.758-6.016-14.758-6.486-1.316-4.888-1.128-5.64 1.88-6.674 3.384-.846 4.7-.94 6.392-2.068 3.29-2.444 5.546-9.682 5.64-9.776l.376-4.136c.282-1.88-.564-3.76.376-6.768 1.316-3.008 2.068-3.76 5.076-4.042 3.948-.282 7.05 2.444 5.922 5.546z" stroke="#000" stroke-width="2.068" fill="#FFE606"/><path d="M362.902 175.718c-1.504-1.41 27.636 10.528 31.678 10.622 5.452-1.974 28.106-21.056 28.106-21.056.188 1.88 1.034 6.674 3.196 7.708-8.742 7.05-16.638 13.912-25.38 20.962.564 11.28-1.41 23.218 4.23 35.72 0 0-6.768.188-6.768 0-6.016-6.016-8.178-34.968-8.178-34.968l-28.764-12.784c1.41-.94 2.444-3.666 1.88-6.298v.094z" stroke="#000" stroke-width="2.068" fill="#FFEF00"/><path d="M390.632 205.422c.47-.376-5.264 2.632-6.768 3.384-26.414 14.1-40.044 34.78-40.89 35.532l-2.068 3.196-2.162 2.82a56.964 56.964 0 0 1-3.384 4.418c-.188.564.376-.282.188.188m73.226-66.364c1.96 1.575 4 3.05 6.11 4.418 24.628 17.108 49.162 19.834 50.29 20.21.94 0 2.35.282 3.76.47 1.128 0 2.444.376 3.572.47 1.316.188 4.136.752 5.452 1.128.564-.188-.47-.282 0-.376" stroke="#000" stroke-width="2.068"/></g></svg>