<svg width="800" height="480" xmlns="http://www.w3.org/2000/svg"><g fill="none" fill-rule="evenodd"><path fill="#F93" d="M0 0h800v160H0z"/><path fill="#FFF" d="M0 160h800v160H0z"/><path fill="#128807" d="M0 320h800v160H0z"/><g transform="translate(278 87)"><circle fill="#008" cx="121.6" cy="150.4" r="64"/><circle fill="#FFF" cx="121.6" cy="150.4" r="56"/><circle fill="#008" cx="121.6" cy="150.4" r="11.2"/><g fill="#008"><g transform="translate(118.4 153.6)"><circle transform="rotate(7.5 58.72 4.13)" cx="58.72" cy="4.13" r="2.88"/><path d="M3.2 52.8l1.92-33.6-1.92-16-1.92 16z"/></g><g transform="rotate(15 -520.954 523.269)"><circle transform="rotate(7.5 58.72 4.13)" cx="58.72" cy="4.13" r="2.88"/><path d="M3.2 52.8l1.92-33.6-1.92-16-1.92 16z"/></g><g transform="rotate(30 -224.222 294.537)"><circle transform="rotate(7.5 58.72 4.13)" cx="58.72" cy="4.13" r="2.88"/><path d="M3.2 52.8l1.92-33.6-1.92-16-1.92 16z"/></g><g transform="rotate(45 -123.012 216.521)"><circle transform="rotate(7.5 58.72 4.13)" cx="58.72" cy="4.13" r="2.88"/><path d="M3.2 52.8l1.92-33.6-1.92-16-1.92 16z"/></g><g transform="rotate(60 -70.622 176.137)"><circle transform="rotate(7.5 58.72 4.13)" cx="58.72" cy="4.13" r="2.88"/><path d="M3.2 52.8l1.92-33.6-1.92-16-1.92 16z"/></g><g transform="rotate(75 -37.688 150.75)"><circle transform="rotate(7.5 58.72 4.13)" cx="58.72" cy="4.13" r="2.88"/><path d="M3.2 52.8l1.92-33.6-1.92-16-1.92 16z"/></g><g transform="rotate(90 -14.4 132.8)"><circle transform="rotate(7.5 58.72 4.13)" cx="58.72" cy="4.13" r="2.88"/><path d="M3.2 52.8l1.92-33.6-1.92-16-1.92 16z"/></g><g transform="rotate(105 3.47 119.026)"><circle transform="rotate(7.5 58.72 4.13)" cx="58.72" cy="4.13" r="2.88"/><path d="M3.2 52.8l1.92-33.6-1.92-16-1.92 16z"/></g></g><g fill="#008"><g transform="rotate(120 18.06 107.78)"><circle transform="rotate(7.5 58.72 4.13)" cx="58.72" cy="4.13" r="2.88"/><path d="M3.2 52.8l1.92-33.6-1.92-16-1.92 16z"/></g><g transform="rotate(135 30.588 98.121)"><circle transform="rotate(7.5 58.72 4.13)" cx="58.72" cy="4.13" r="2.88"/><path d="M3.2 52.8l1.92-33.6-1.92-16-1.92 16z"/></g><g transform="rotate(150 41.822 89.463)"><circle transform="rotate(7.5 58.72 4.13)" cx="58.72" cy="4.13" r="2.88"/><path d="M3.2 52.8l1.92-33.6-1.92-16-1.92 16z"/></g><g transform="rotate(165 52.29 81.394)"><circle transform="rotate(7.5 58.72 4.13)" cx="58.72" cy="4.13" r="2.88"/><path d="M3.2 52.8l1.92-33.6-1.92-16-1.92 16z"/></g><g transform="rotate(180 62.4 73.6)"><circle transform="rotate(7.5 58.72 4.13)" cx="58.72" cy="4.13" r="2.88"/><path d="M3.2 52.8l1.92-33.6-1.92-16-1.92 16z"/></g><g transform="rotate(-165 72.51 65.806)"><circle transform="rotate(7.5 58.72 4.13)" cx="58.72" cy="4.13" r="2.88"/><path d="M3.2 52.8l1.92-33.6-1.92-16-1.92 16z"/></g><g transform="rotate(-150 82.978 57.737)"><circle transform="rotate(7.5 58.72 4.13)" cx="58.72" cy="4.13" r="2.88"/><path d="M3.2 52.8l1.92-33.6-1.92-16-1.92 16z"/></g><g transform="rotate(-135 94.212 49.079)"><circle transform="rotate(7.5 58.72 4.13)" cx="58.72" cy="4.13" r="2.88"/><path d="M3.2 52.8l1.92-33.6-1.92-16-1.92 16z"/></g></g><g fill="#008"><g transform="rotate(-120 106.74 39.42)"><circle transform="rotate(7.5 58.72 4.13)" cx="58.72" cy="4.13" r="2.88"/><path d="M3.2 52.8l1.92-33.6-1.92-16-1.92 16z"/></g><g transform="rotate(-105 121.33 28.174)"><circle transform="rotate(7.5 58.72 4.13)" cx="58.72" cy="4.13" r="2.88"/><path d="M3.2 52.8l1.92-33.6-1.92-16-1.92 16z"/></g><g transform="rotate(-90 139.2 14.4)"><circle transform="rotate(7.5 58.72 4.13)" cx="58.72" cy="4.13" r="2.88"/><path d="M3.2 52.8l1.92-33.6-1.92-16-1.92 16z"/></g><g transform="rotate(-75 162.488 -3.55)"><circle transform="rotate(7.5 58.72 4.13)" cx="58.72" cy="4.13" r="2.88"/><path d="M3.2 52.8l1.92-33.6-1.92-16-1.92 16z"/></g><g transform="rotate(-60 195.422 -28.937)"><circle transform="rotate(7.5 58.72 4.13)" cx="58.72" cy="4.13" r="2.88"/><path d="M3.2 52.8l1.92-33.6-1.92-16-1.92 16z"/></g><g transform="rotate(-45 247.812 -69.321)"><circle transform="rotate(7.5 58.72 4.13)" cx="58.72" cy="4.13" r="2.88"/><path d="M3.2 52.8l1.92-33.6-1.92-16-1.92 16z"/></g><g transform="rotate(-30 349.022 -147.337)"><circle transform="rotate(7.5 58.72 4.13)" cx="58.72" cy="4.13" r="2.88"/><path d="M3.2 52.8l1.92-33.6-1.92-16-1.92 16z"/></g><g transform="rotate(-15 645.754 -376.069)"><circle transform="rotate(7.5 58.72 4.13)" cx="58.72" cy="4.13" r="2.88"/><path d="M3.2 52.8l1.92-33.6-1.92-16-1.92 16z"/></g></g></g></g></svg>