<svg width="800" height="480" xmlns="http://www.w3.org/2000/svg" xmlns:xlink="http://www.w3.org/1999/xlink"><defs><path id="a" d="M0 0h800v480H0z"/></defs><g fill="none" fill-rule="evenodd"><mask id="b" fill="#fff"><use xlink:href="#a"/></mask><g mask="url(#b)"><path fill="#FFF" d="M0 0h960v480H0z"/><path d="M960 417.375c-10.781 6.563-19.969 21.563-48.563 21.563-57.187 0-71.437-31.782-114.375-31.782-28.5 0-42.75 31.875-71.343 31.875-57.188 0-71.438-31.875-114.375-31.875-28.5 0-42.75 31.875-71.25 31.875-57.188 0-71.532-31.875-114.375-31.875-28.594 0-42.844 31.875-71.438 31.875-57.187 0-71.437-31.875-114.281-31.875-28.594 0-42.844 31.875-71.438 31.875-57.187 0-71.437-31.875-114.28-31.875-28.594 0-37.126 22.688-54.282 22.688v40.969c17.156 0 25.688-22.688 54.375-22.688 42.75 0 57.094 31.875 114.188 31.875 28.593 0 42.843-31.875 71.437-31.875 42.844 0 57.188 31.875 114.375 31.875 28.5 0 42.75-31.875 71.344-31.875C468.563 448.125 482.906 480 540 480c28.594 0 42.844-31.875 71.438-31.875 42.843 0 57.187 31.875 114.28 31.875 28.595 0 42.845-31.875 71.438-31.875C840 448.125 854.344 480 911.438 480c28.593 0 37.78-9 48.562-15.469v-47.156zm0-79.594c-10.781 6.563-19.969 21.563-48.563 21.563-57.187 0-71.437-31.875-114.375-31.875-28.5 0-42.75 31.875-71.343 31.875-57.188 0-71.438-31.875-114.375-31.875-28.5 0-42.75 31.875-71.25 31.875-57.188 0-71.532-31.875-114.375-31.875-28.594 0-42.844 31.875-71.438 31.875-57.187 0-71.437-31.875-114.281-31.875-28.594 0-42.844 31.875-71.438 31.875-57.187 0-71.437-31.875-114.28-31.875-28.594 0-37.126 22.781-54.282 22.781v40.969c17.156 0 25.688-22.688 54.375-22.688 42.75 0 57.094 31.875 114.188 31.875 28.593 0 42.843-31.875 71.437-31.875 42.844 0 57.188 31.875 114.375 31.875 28.5 0 42.75-31.875 71.344-31.875 42.844 0 57.187 31.875 114.375 31.875 28.5 0 42.75-31.875 71.343-31.875 42.844 0 57.188 31.875 114.282 31.875 28.593 0 42.843-31.875 71.437-31.875 42.844 0 57.188 31.875 114.282 31.875 28.593 0 37.78-9 48.562-15.469v-47.156zm0-79.594c-10.781 6.563-19.969 21.563-48.563 21.563-57.187 0-71.437-31.875-114.375-31.875-28.5 0-42.75 31.875-71.343 31.875-57.188 0-71.438-31.875-114.375-31.875-28.5 0-42.75 31.875-71.25 31.875-57.188 0-71.532-31.875-114.375-31.875-28.594 0-42.844 31.875-71.438 31.875-57.187 0-71.437-31.875-114.281-31.875-28.594 0-42.844 31.875-71.438 31.875-57.187 0-71.437-31.875-114.28-31.875-28.594 0-37.126 22.781-54.282 22.781v40.969c17.156 0 25.688-22.688 54.375-22.688 42.75 0 57.094 31.875 114.188 31.875 28.593 0 42.843-31.875 71.437-31.875 42.844 0 57.188 31.875 114.375 31.875 28.5 0 42.75-31.875 71.344-31.875 42.844 0 57.187 31.875 114.375 31.875 28.5 0 42.75-31.875 71.343-31.875 42.844 0 57.188 31.875 114.282 31.875 28.593 0 42.843-31.875 71.437-31.875 42.844 0 57.188 31.875 114.282 31.875 28.593 0 37.78-9.093 48.562-15.562v-47.063zm0-79.593c-10.781 6.469-19.969 21.562-48.563 21.562-57.187 0-71.437-31.875-114.375-31.875-28.5 0-42.75 31.875-71.343 31.875-57.188 0-71.438-31.875-114.375-31.875-28.5 0-42.75 31.875-71.25 31.875-57.188 0-71.532-31.875-114.375-31.875-28.594 0-42.844 31.875-71.438 31.875-57.187 0-71.437-31.875-114.281-31.875-28.594 0-42.844 31.875-71.438 31.875-57.187 0-71.437-31.875-114.28-31.875-28.594 0-37.126 22.781-54.282 22.781v40.97c17.156 0 25.688-22.688 54.375-22.688 42.75 0 57.094 31.875 114.188 31.875 28.593 0 42.843-31.875 71.437-31.875 42.844 0 57.188 31.875 114.375 31.875 28.5 0 42.75-31.875 71.344-31.875 42.844 0 57.187 31.875 114.375 31.875 28.5 0 42.75-31.875 71.343-31.875 42.844 0 57.188 31.875 114.282 31.875 28.593 0 42.843-31.875 71.437-31.875 42.844 0 57.188 31.875 114.282 31.875 28.593 0 37.78-9.094 48.562-15.563v-47.062zm0-79.688c-10.781 6.563-19.969 21.656-48.563 21.656-57.187 0-71.437-31.874-114.375-31.874-28.5 0-42.75 31.874-71.343 31.874-57.188 0-71.438-31.874-114.375-31.874-28.5 0-42.75 31.874-71.25 31.874-57.188 0-71.532-31.874-114.375-31.874-28.594 0-42.844 31.874-71.438 31.874-57.187 0-71.437-31.874-114.281-31.874-28.594 0-42.844 31.874-71.438 31.874-57.187 0-71.437-31.874-114.28-31.874C25.687 88.78 17.155 111.561 0 111.561v40.97c17.156 0 25.688-22.688 54.281-22.688 42.844 0 57.188 31.875 114.375 31.875 28.5 0 42.75-31.875 71.344-31.875 42.844 0 57.188 31.875 114.375 31.875 28.5 0 42.75-31.875 71.25-31.875 42.938 0 57.188 31.875 114.375 31.875 28.594 0 42.844-31.875 71.438-31.875 42.843 0 57.187 31.875 114.28 31.875 28.595 0 42.845-31.875 71.438-31.875 42.844 0 57.188 31.875 114.282 31.875 28.5 0 37.78-9.094 48.562-15.563v-47.25zm0-79.5c-10.781 6.469-19.969 21.563-48.563 21.563-57.187 0-71.437-31.875-114.375-31.875-28.5 0-42.75 31.875-71.343 31.875-57.188 0-71.438-31.875-114.375-31.875-28.5 0-42.75 31.875-71.25 31.875-57.188 0-71.532-31.875-114.375-31.875-28.594 0-42.844 31.875-71.438 31.875-57.187 0-71.437-31.875-114.281-31.875-28.594 0-42.844 31.875-71.438 31.875-57.187 0-71.437-31.875-114.28-31.875C25.687 9.094 17.155 31.875 0 31.875v41.063c17.156 0 25.688-22.688 54.281-22.688 42.844 0 57.188 31.875 114.375 31.875 28.5 0 42.75-31.875 71.344-31.875 42.844 0 57.188 31.875 114.375 31.875 28.5 0 42.75-31.875 71.25-31.875 42.938 0 57.188 31.875 114.375 31.875 28.594 0 42.844-31.875 71.438-31.875 42.843 0 57.187 31.875 114.28 31.875 28.595 0 42.845-31.875 71.438-31.875 42.844 0 57.188 31.875 114.282 31.875 28.5 0 37.78-9.094 48.562-15.563V19.407z" fill="#000063"/><path fill="#000063" d="M0 0h244.969v148.125H0z"/><g fill-rule="nonzero"><path d="M0 0v16.594l217.594 131.531h27.375v-16.594L27.469.094H0V0zm244.969 0v16.594l-217.5 131.531H0v-16.594L217.594.094h27.375V0z" fill="#FFF"/><path d="M102.094 0v148.125h40.781V0h-40.781zM0 49.5v49.313h244.969V49.406H0v.094z" fill="#FFF"/><path d="M0 59.25v29.625h244.969V59.25H0zM110.25 0v148.125h24.469V0H110.25zM0 148.125l81.656-49.406h18.281l-81.656 49.406H0zM0 0l81.656 49.406H63.375L0 11.063V0zm145.031 49.406L226.687.094h18.282l-81.563 49.312h-18.375zm99.938 98.719l-81.563-49.406h18.188l63.375 38.344v11.062z" fill="#C00"/></g><path d="M356.077 112.267l-3.444 325.692c0 17.142 15.5 17.142 17.144 0l-3.425-325.692h-10.274z" stroke="#FFF" stroke-width="2.433" fill="#A24300"/><path stroke="#FFF" stroke-width="1.814" fill="#006D00" d="M390.027 234.182l-10.105-11.4-2.478 13.46-4.385-18.264-4.093 10.148-.734-20.045-4.083 10.166-.734-20.044-4.093 10.147-2.34-23.337-4.083 10.166-2.34-23.337-4.092 10.147-2.34-23.337-1.174-11.678L345 141.9l5.278 1.502 8.479 8.116 16.948 16.213-10.516-3.023 16.948 16.213-10.525-3.042 16.948 16.213-10.516-3.023 15.342 12.92-10.524-3.042 15.342 12.92-10.516-3.023 11.66 14.693-12.13-6.335 2.759 14.981z"/><path d="M390.028 234.181L345.03 141.91m30.666 25.804l-24.264-12.623-4.965 26.9" stroke="#000" stroke-width=".5"/><path stroke="#000" stroke-width=".5" d="M381.802 181.092l-24.273-12.642-4.965 26.9"/><path stroke="#000" stroke-width=".5" d="M388.672 194.035l-24.273-12.64-4.965 26.899"/><path stroke="#000" stroke-width=".5" d="M393.89 203.733l-22.667-9.348-6.571 23.606"/><path stroke="#000" stroke-width=".5" d="M399.051 213.46l-22.676-9.368-6.57 23.607"/><path stroke="#000" stroke-width=".5" d="M400.465 224.964l-20.57-14.423-1.364 25.12"/><path stroke="#FFF" stroke-width="2.017" fill="#006D00" d="M269.31 73.204l16.21 8.072-4.723-14.932 14.16 17.358-1.335-12.092 11.46 20.58-1.355-12.108 11.46 20.579-1.335-12.092 14.827 23.403-1.354-12.107 14.828 23.403-1.335-12.092 14.827 23.403 7.424 11.71.667 6.046-6.085.416-12.825-5.266-25.632-10.515 12.14-.796-25.632-10.516 12.158-.78-25.632-10.515 12.139-.796-22.263-7.692 12.158-.78-22.263-7.692 12.139-.796-19.528-10.915 15.526 2.043-10.776-14.551z"/><path d="M269.31 73.205l94.39 79.133m-44.487-15.351l31.03 4.037-9.426-29.847" stroke="#000" stroke-width=".5"/><path stroke="#000" stroke-width=".5" d="M306.587 124.473l31.049 4.054-9.426-29.847"/><path stroke="#000" stroke-width=".5" d="M291.933 114.757l31.05 4.054-9.426-29.847"/><path stroke="#000" stroke-width=".5" d="M280.775 107.654l27.68 1.23-6.057-27.023"/><path stroke="#000" stroke-width=".5" d="M269.765 100.352l27.7 1.246-6.058-27.023"/><path stroke="#000" stroke-width=".5" d="M261.659 89.645l28.298 7.296-12.077-26.645"/><path stroke="#FFF" stroke-width="2.007" fill="#006D00" d="M468.265 97.93l-14.248 11.789 15.73 1.085-21.934 6.596 11.692 3.135-23.763 2.99 11.714 3.124-23.763 2.99 11.692 3.135-27.78 5.028 11.715 3.124-27.78 5.027 11.692 3.136-27.78 5.028-13.9 2.52-5.846-1.568 2.176-5.664 10.242-9.73 20.462-19.45-4.374 11.286 20.462-19.45-4.397 11.299 20.462-19.45-4.374 11.286 16.445-17.411-4.396 11.298 16.445-17.412-4.374 11.287 18.263-13.775-8.413 13.336 17.928-4.537z"/><path d="M468.265 97.93l-112.546 57.107m32.844-34.8l-16.769 26.67 31.438 2.182" stroke="#000" stroke-width=".5"/><path stroke="#000" stroke-width=".5" d="M404.318 111.304l-16.792 26.681 31.438 2.183"/><path stroke="#000" stroke-width=".5" d="M420.857 104.162l-16.792 26.681 31.438 2.183"/><path stroke="#000" stroke-width=".5" d="M433.344 98.922l-12.776 24.643 27.422 4.221"/><path stroke="#000" stroke-width=".5" d="M445.77 93.555l-12.798 24.654 27.422 4.221"/><path stroke="#000" stroke-width=".5" d="M459.933 91.71l-18.62 23.023 29.607-1.37"/><path stroke="#FFF" stroke-width="2.017" fill="#006D00" d="M463.549 216.278l-16.929-6.973 6.062 14.524-15.715-16.327 2.421 11.922-13.304-19.7 2.441 11.937-13.304-19.7 2.42 11.922-16.924-22.288 2.441 11.936-16.925-22.287 2.42 11.921-16.924-22.287-8.473-11.151-1.21-5.961 6.045-.805 13.294 4.405 26.568 8.795-12.063 1.571 26.567 8.795-12.084 1.556 26.568 8.796-12.063 1.57 22.946 6.208-12.083 1.556 22.946 6.207-12.063 1.57 20.502 9.586-15.705-1.032 12.08 13.758z"/><path d="M463.55 216.277L362.08 143.76m45.852 12.386l-31.382-2.016 12.104 29.034" stroke="#000" stroke-width=".5"/><path stroke="#000" stroke-width=".5" d="M421.594 167.905l-31.402-2.03 12.103 29.034"/><path stroke="#000" stroke-width=".5" d="M437.229 176.42l-31.403-2.03 12.104 29.033"/><path stroke="#000" stroke-width=".5" d="M449.12 182.587l-27.781.558 8.482 26.446"/><path stroke="#000" stroke-width=".5" d="M460.868 188.986l-27.802.543 8.482 26.446"/><path stroke="#000" stroke-width=".5" d="M470.004 198.978l-28.944-5.427 14.466 25.684"/><path stroke="#FFF" stroke-width="1.791" fill="#006D00" d="M278.168 217.124l8.96-13.162-13.677 2.142 16.894-10.112-10.79-.454 19.418-7.304-10.807-.439 19.42-7.304-10.791-.454 22.289-9.885-10.807-.439 22.29-9.885-10.79-.454 22.288-9.885 11.153-4.95 5.395.227-.331 5.405-6.104 10.565-12.19 21.117.691-10.778-12.19 21.117.708-10.793-12.191 21.117.692-10.778-9.32 18.536.708-10.793-9.32 18.536.692-10.778-11.843 15.698 3.579-13.374-14.038 7.515z"/><path d="M278.168 217.124l80.443-72.328m-18.608 37.042l7.111-26.733-27.338 4.27" stroke="#000" stroke-width=".5"/><path stroke="#000" stroke-width=".5" d="M328.677 192.407l7.127-26.749-27.338 4.27"/><path stroke="#000" stroke-width=".5" d="M316.943 202.445l7.127-26.749-27.338 4.27"/><path stroke="#000" stroke-width=".5" d="M308.095 209.951l4.256-24.167-24.467 1.689"/><path stroke="#000" stroke-width=".5" d="M299.278 217.494l4.273-24.182-24.468 1.689"/><path stroke="#000" stroke-width=".5" d="M287.986 222.22l9.664-23.894-24.826 7.031"/><path stroke="#FFF" stroke-width="2.088" fill="#006D00" d="M437.843 46.207L422.4 56.748l-2.519-16.741-9.102 19.556-1.658-11.129-7.42 20.61-1.026-10.762-5.782 21.635-3.296-12.154-5.795 26.672-3.283-12.174-5.794 26.672-3.296-12.154-5.794 26.673-2.904 13.346 1.648 6.078 6.209-1.158 10.738-8.442 21.464-16.862-12.374 2.344 21.464-16.862-12.386 2.364 21.463-16.862-12.373 2.344 21.452-11.824-14.644.95 23.111-10.785-14.055 1.29 16.959-14.636-14.656 5.988 9.09-14.518z"/><path stroke="#000" stroke-width=".5" d="M431.689 51.871l-22.294 21.387-43.17 68.948"/><path stroke="#000" stroke-width=".5" d="M397.257 117.486l-24.616 9.843-2.052-26.54"/><path stroke="#000" stroke-width=".5" d="M408.086 104.093l-24.98 9.587-2.065-26.52"/><path stroke="#000" stroke-width=".5" d="M418.322 90.39l-24.793 9.732-1.875-26.43"/><path stroke="#000" stroke-width=".5" d="M427.038 80.331l-23.086 5.727-2.662-21.876"/><path stroke="#000" stroke-width=".5" d="M436.802 70.591l-24.782 4.694-.957-20.81"/><path stroke="#000" stroke-width=".5" d="M440.983 60.252l-22.929 10.443 4.445-24.468"/><path stroke="#FFF" stroke-width="2.04" fill="#006D00" d="M347.214 27.116l8.157 15.953 10.493-12.662-1.813 20.436 6.96-8.424-3.794 20.518 6.23-8.417-5.723 20.598 8.89-8.505-8.213 24.77 8.888-8.528-8.213 24.77 8.89-8.505-8.213 24.77-4.106 12.396-4.445 4.252-4.809-3.867-5.121-12.013-10.242-24.001 9.565 7.737-10.242-24.002 9.566 7.76-10.242-24.002 9.566 7.737-12.732-19.83 12.225 7.649-14.687-19.75 11.546 7.655-7.44-20.05 9.735 11.82-.676-16.265z"/><path stroke="#000" stroke-width=".5" d="M349.308 34.757l8.717 28.132 3.214 77.24"/><path stroke="#000" stroke-width=".5" d="M343.961 105.28l16.46 19.676 14.95-20.983"/><path stroke="#000" stroke-width=".5" d="M342.868 88.993l16.901 19.635 14.952-20.96"/><path stroke="#000" stroke-width=".5" d="M342.445 72.722l16.668 19.667 14.742-20.974"/><path stroke="#000" stroke-width=".5" d="M341.312 60.226l17.175 15.555 13.165-16.84"/><path stroke="#000" stroke-width=".5" d="M338.894 47.54l19.158 15.496 11.157-16.757"/><path stroke="#000" stroke-width=".5" d="M341.343 36.97l14.698 19.38 8.289-22.314"/><path stroke="#FFF" stroke-width="1.886" fill="#006D00" d="M241.12 159.329l23.22-16.476-11.639-5.697 20.342 3.006-6.974-9.007 19.763 6.92-6.997-9.01 19.766 6.897-6.977-8.985 23.83 7.498-6.977-8.985 23.255 11.39-7-8.988 23.83 7.498 11.639 5.696 3.489 4.493-4.642 3.313-12.79 2.087-20.62 8.884 3.79-7.393-25.555 4.178 9.278-6.583-26.13 8.07 9.277-6.584-22.07 8.693 9.879-10.494-22.645 12.584 9.856-10.496-18.558 13.188 10.43-14.39-22.07 8.693z"/><path stroke="#000" stroke-width=".5" d="M248.455 154.938l24.005-10.833 12.786-2.065 10.666-.424 18.378.738 16.583.338 32.805 2.96"/><path stroke="#000" stroke-width=".5" d="M328.71 157.087l18.37-11.598-18.717-14.157"/><path stroke="#000" stroke-width=".5" d="M308.184 155.523l22.615-12.544-18.671-14.15"/><path d="M293.608 154.851l20.739-12.866-18.85-13.098m-29.35 29.86l19.153-17.054-15.437-8.1" stroke="#000" stroke-width=".5"/><path d="M257.691 159.802l14.865-16.295-11.85-4.11m18.252 16.987l18.933-15.402-15.197-9.885" stroke="#000" stroke-width=".5"/><path d="M319.09 333.487l-.217-27.005-7.824-12.612c-1.96-6.2-.999-9.194 2.177-9.406 3.163-.189 6.3 1.603 10.859 1.803 4.559.2 3.7-7.001 10.436-6.801 6.736.2 18.478 3.807 28.466 4.408 10.001.59 15.213-3.206 26.738-3.607 11.525-.4 14.56 4.998 15.213 4.998.653 0 3.918-2.192 7.17-2.593 3.266-.4 4.354 1.202 4.354 1.202s-.217 6.802-1.741 10.797c-1.524 4.008-6.953 10.609-7.171 10.609-.218 0-1.96 29.409-1.96 29.61 0 .2-86.5-.802-86.5-1.403z" stroke="#000" stroke-width=".5" fill="#C00"/><g stroke="#000" stroke-width=".5"><path d="M408.565 305.814s8.707-6.13 8.938-20.875c.128-8.487-4.405-14.616-15.75-14.616-15.88 0-38.557 6.259-38.557 6.259v2.086s18.145-6.259 38.57-6.259c9.065 0 13.611 6.13 13.611 12.4 0 10.444-9.092 21.017-9.092 21.017v16.702h2.28v-16.714z" fill="#FFF100"/><path d="M413.302 301.454c0 1.155 1.018 2.092 2.273 2.092 1.255 0 2.273-.937 2.273-2.092 0-1.156-1.018-2.092-2.273-2.092-1.255 0-2.273.936-2.273 2.092zm2.25-4.781c0 1.155 1.018 2.092 2.273 2.092 1.255 0 2.273-.937 2.273-2.092 0-1.156-1.018-2.092-2.273-2.092-1.255 0-2.273.936-2.273 2.092zm1.218-4.875c0 1.155 1.018 2.092 2.274 2.092 1.255 0 2.273-.937 2.273-2.092 0-1.156-1.018-2.092-2.273-2.092-1.256 0-2.273.936-2.273 2.092zm.844-5.157c0 1.156 1.018 2.093 2.273 2.093 1.256 0 2.273-.937 2.273-2.093 0-1.155-1.017-2.092-2.273-2.092-1.255 0-2.273.937-2.273 2.092zm-.187-5.625c0 1.156 1.018 2.093 2.273 2.093 1.255 0 2.273-.937 2.273-2.093 0-1.155-1.018-2.092-2.273-2.092-1.255 0-2.273.937-2.273 2.092zm-7.407 24.657c0 1.155 1.018 2.092 2.274 2.092 1.255 0 2.273-.937 2.273-2.092 0-1.156-1.018-2.092-2.273-2.092-1.256 0-2.273.936-2.273 2.092zm5.438-30c0 1.155 1.018 2.092 2.273 2.092 1.255 0 2.273-.937 2.273-2.092 0-1.156-1.018-2.092-2.273-2.092-1.255 0-2.273.936-2.273 2.092zm-4.218-4.219c0 1.155 1.017 2.092 2.272 2.092 1.256 0 2.273-.937 2.273-2.092 0-1.156-1.017-2.092-2.273-2.092-1.255 0-2.273.936-2.273 2.092zm-5.626-2.813c0 1.156 1.018 2.093 2.273 2.093 1.256 0 2.273-.937 2.273-2.093 0-1.155-1.017-2.092-2.273-2.092-1.255 0-2.273.937-2.273 2.092zm-5.624-.375c0 1.156 1.017 2.093 2.272 2.093 1.256 0 2.273-.937 2.273-2.093 0-1.155-1.017-2.092-2.273-2.092-1.255 0-2.273.937-2.273 2.092zm-6.094.188c0 1.155 1.017 2.092 2.273 2.092 1.255 0 2.273-.937 2.273-2.092 0-1.156-1.018-2.092-2.273-2.092-1.256 0-2.273.936-2.273 2.092zm-6.094.844c0 1.155 1.018 2.092 2.273 2.092 1.255 0 2.273-.937 2.273-2.092 0-1.156-1.018-2.092-2.273-2.092-1.255 0-2.273.936-2.273 2.092zm-6 .75c0 1.155 1.018 2.092 2.273 2.092 1.255 0 2.273-.937 2.273-2.092 0-1.156-1.018-2.092-2.273-2.092-1.255 0-2.273.936-2.273 2.092zm-6.562.937c0 1.156 1.017 2.092 2.272 2.092 1.256 0 2.273-.936 2.273-2.092 0-1.155-1.017-2.092-2.273-2.092-1.255 0-2.273.937-2.273 2.092zm-5.626 1.5c0 1.156 1.018 2.092 2.273 2.092 1.256 0 2.273-.936 2.273-2.092 0-1.155-1.017-2.092-2.273-2.092-1.255 0-2.273.937-2.273 2.092z" fill="#FFF"/></g><path d="M313.073 301.454c0 1.155-1.018 2.092-2.273 2.092-1.255 0-2.273-.937-2.273-2.092 0-1.156 1.018-2.092 2.273-2.092 1.255 0 2.273.936 2.273 2.092zm-2.343-4.781c0 1.155-1.018 2.092-2.274 2.092-1.255 0-2.273-.937-2.273-2.092 0-1.156 1.018-2.092 2.273-2.092 1.256 0 2.273.936 2.273 2.092zm-1.126-4.875c0 1.155-1.017 2.092-2.273 2.092-1.255 0-2.273-.937-2.273-2.092 0-1.156 1.018-2.092 2.273-2.092 1.256 0 2.273.936 2.273 2.092zm-.844-5.157c0 1.156-1.017 2.093-2.272 2.093-1.256 0-2.273-.937-2.273-2.093 0-1.155 1.017-2.092 2.273-2.092 1.255 0 2.273.937 2.273 2.092zm.188-5.625c0 1.156-1.018 2.093-2.273 2.093-1.255 0-2.273-.937-2.273-2.093 0-1.155 1.018-2.092 2.273-2.092 1.255 0 2.273.937 2.273 2.092zm1.875-5.343c0 1.155-1.018 2.092-2.273 2.092-1.255 0-2.273-.937-2.273-2.092 0-1.156 1.018-2.092 2.273-2.092 1.255 0 2.273.936 2.273 2.092zm4.125-4.219c0 1.155-1.018 2.092-2.273 2.092-1.255 0-2.273-.937-2.273-2.092 0-1.156 1.018-2.092 2.273-2.092 1.255 0 2.273.936 2.273 2.092zm5.719-2.813c0 1.156-1.018 2.093-2.273 2.093-1.255 0-2.273-.937-2.273-2.093 0-1.155 1.018-2.092 2.273-2.092 1.255 0 2.273.937 2.273 2.092zm5.625-.375c0 1.156-1.018 2.093-2.273 2.093-1.255 0-2.273-.937-2.273-2.093 0-1.155 1.018-2.092 2.273-2.092 1.255 0 2.273.937 2.273 2.092zm6.094.188c0 1.155-1.018 2.092-2.273 2.092-1.256 0-2.273-.937-2.273-2.092 0-1.156 1.017-2.092 2.273-2.092 1.255 0 2.273.936 2.273 2.092zm6.094.844c0 1.155-1.018 2.092-2.274 2.092-1.255 0-2.273-.937-2.273-2.092 0-1.156 1.018-2.092 2.273-2.092 1.256 0 2.273.936 2.273 2.092zm6.093.75c0 1.155-1.018 2.092-2.273 2.092-1.255 0-2.273-.937-2.273-2.092 0-1.156 1.018-2.092 2.273-2.092 1.255 0 2.273.936 2.273 2.092zm6.469.937c0 1.156-1.018 2.092-2.273 2.092-1.255 0-2.273-.936-2.273-2.092 0-1.155 1.018-2.092 2.273-2.092 1.255 0 2.273.937 2.273 2.092zm5.625 1.5c0 1.156-1.018 2.092-2.273 2.092-1.255 0-2.273-.936-2.273-2.092 0-1.155 1.018-2.092 2.273-2.092 1.255 0 2.273.937 2.273 2.092zm-40.407 33.188c0 1.155-1.017 2.092-2.272 2.092-1.256 0-2.273-.937-2.273-2.092 0-1.156 1.017-2.092 2.273-2.092 1.255 0 2.273.936 2.273 2.092z" stroke="#000" stroke-width=".5" fill="#FFF"/><path d="M317.81 305.814s-8.707-6.13-8.938-20.875c-.128-8.487 4.405-14.616 15.75-14.616 15.88 0 38.557 6.259 38.557 6.259v2.086s-18.145-6.259-38.57-6.259c-9.065 0-13.611 6.13-13.611 12.4 0 10.444 9.092 21.017 9.092 21.017v16.702h-2.28v-16.714z" stroke="#000" stroke-width=".5" fill="#FFF100"/><path d="M333.625 313.555s.653-1.59 3.026-1.59c1.613 0 3.022 1.59 3.022 3.18v3.184h1.515v-3.184c0-1.59 1.511-3.18 3.022-3.18 2.271 0 3.027 1.59 3.027 1.59s0-4.773-3.027-4.773c-2.266 0-3.022 1.59-3.022 1.59s.756-2.385.756-4.774c0-2.39-1.511-3.979-1.511-3.979 0 .305-1.515 1.594-1.515 3.979 0 2.384.755 4.773.755 4.773s-.755-1.59-3.022-1.59c-3.026 0-3.026 4.774-3.026 4.774zm45.375 0s.653-1.59 3.026-1.59c1.613 0 3.022 1.59 3.022 3.18v3.184h1.515v-3.184c0-1.59 1.511-3.18 3.022-3.18 2.271 0 3.027 1.59 3.027 1.59s0-4.773-3.027-4.773c-2.266 0-3.022 1.59-3.022 1.59s.756-2.385.756-4.774c0-2.39-1.511-3.979-1.511-3.979 0 .305-1.515 1.594-1.515 3.979 0 2.384.755 4.773.755 4.773s-.755-1.59-3.022-1.59c-3.026 0-3.026 4.774-3.026 4.774z" stroke="#000" stroke-width=".5" fill="#FFF100"/><path d="M317.81 335.058v-18.8s4.533 6.27 11.346 6.27c5.57 0 11.345-8.357 11.345-8.357s5.314 6.271 11.346 6.271c5.378 0 11.332-8.086 11.332-8.086s5.532 8.086 11.346 8.086c5.826 0 11.345-6.27 11.345-6.27s5.93 8.356 13.613 8.356c6.8 0 9.078-6.27 9.078-6.27v18.8h-90.75z" stroke="#000" stroke-width=".5" fill="#FFF100"/><path d="M317.814 335.058v-14.616s13.612 4.16 13.612 14.616h-13.612zm90.654 0v-14.616s-13.613 4.16-13.613 14.616h13.613z" stroke="#000" stroke-width=".5" fill="#FFF100"/><path d="M326.89 335.058c0-10.455 13.611-17.056 13.611-17.056s13.612 6.6 13.612 17.056H326.89zm45.374 0c0-10.455 13.612-17.056 13.612-17.056s13.612 6.6 13.612 17.056h-27.224z" stroke="#000" stroke-width=".5" fill="#FFF100"/><path d="M347.297 335.115c0-10.443 15.892-18.789 15.892-18.789s15.878 8.346 15.878 18.79h-31.77z" stroke="#000" stroke-width=".5" fill="#FFF100"/><path d="M410.784 335.078c-4.482-2.087-21.017-4.173-47.643-4.173s-44.313 2.086-48.808 4.173c-4.482 2.086-4.482 6.27 0 8.357 4.482 2.086 22.195 4.172 48.808 4.172s43.161-2.086 47.643-4.172c4.482-2.087 4.482-6.271 0-8.357z" stroke="#000" stroke-width=".5" fill="#FFF"/><path d="M408.563 343.406c0 4.219-37.782 4.219-45.375 4.219-8.25 0-45.375 1.125-45.375-4.219 0-4.125 37.406-4.125 45.375-4.125 7.875 0 45.375.844 45.375 4.125z" fill="gray"/><path d="M322.313 328.406c0 1.406-.938 2.531-2.25 2.531-1.313 0-2.25-1.125-2.25-2.53 0-1.407.937-2.438 2.25-2.438 1.218 0 2.25 1.125 2.25 2.437zm86.25 0c0 1.406-1.032 2.531-2.344 2.531-1.219 0-2.25-1.125-2.25-2.53 0-1.407 1.031-2.438 2.25-2.438 1.312 0 2.25 1.125 2.25 2.437h.094z" fill="#C00" fill-rule="nonzero"/><path d="M367.688 327.188c0 1.312-2.063 2.437-4.5 2.437-2.438 0-4.594-1.125-4.594-2.531 0-1.406 2.062-2.438 4.594-2.438 2.53 0 4.5 1.125 4.5 2.438v.094z" fill="#000"/><path d="M389.438 327.188c0 1.312-1.5 2.437-3.375 2.437s-3.375-1.125-3.375-2.531c0-1.406 1.5-2.438 3.375-2.438s3.375 1.125 3.375 2.438v.094zm-46.688 0c0 1.312-1.5 2.437-3.375 2.437s-3.469-1.125-3.469-2.531c0-1.406 1.5-2.438 3.469-2.438 1.875 0 3.375 1.125 3.375 2.438v.094z" fill="#006300" fill-rule="nonzero"/><path d="M354.074 312.785s2.59-3.57 5.188-3.57h2.59v2.378c0 3.584-3.885 4.783-3.885 4.783h10.368s-3.892-1.2-3.892-4.783v-2.378h2.597c2.59 0 5.18 3.584 5.18 3.584v-9.559s-2.59 3.584-5.18 3.584h-2.597v-2.391c0-3.577 3.892-4.77 3.892-4.77H357.96s3.885 1.193 3.885 4.77v2.39h-2.59c-2.598 0-5.188-3.583-5.188-3.583v9.552l.007-.007zm-36.322 7.679h2.594s-1.946-1.043-1.946-4.179v-2.08h1.295c1.299 0 2.598 3.135 2.598 3.135v-8.364s-1.299 3.136-2.598 3.136H318.4v-2.092c0-3.13 1.946-4.173 1.946-4.173h-2.594v14.617zm90.778 0h-2.595s1.947-1.043 1.947-4.179v-2.08h-1.296c-1.299 0-2.598 3.135-2.598 3.135v-8.364s1.3 3.136 2.598 3.136h1.296v-2.092c0-3.13-1.947-4.173-1.947-4.173h2.594v14.617z" stroke="#000" stroke-width=".5" fill="#FFF100"/><path d="M365.446 307.912c0 1.153-1.015 2.087-2.267 2.087-1.251 0-2.266-.934-2.266-2.087 0-1.152 1.015-2.086 2.266-2.086 1.252 0 2.267.934 2.267 2.086z" stroke="#000" stroke-width=".5" fill="#FFF"/><path d="M354.074 268.91s2.59-3.57 5.188-3.57h2.59v2.378c0 3.584-3.885 4.783-3.885 4.783h10.368s-3.892-1.2-3.892-4.783v-2.378h2.597c2.59 0 5.18 3.584 5.18 3.584v-9.559s-2.59 3.584-5.18 3.584h-2.597v-2.391c0-3.577 3.892-4.77 3.892-4.77H357.96s3.885 1.193 3.885 4.77v2.39h-2.59c-2.598 0-5.188-3.583-5.188-3.583v9.552l.007-.007z" stroke="#000" stroke-width=".5" fill="#FFF100"/><path d="M365.633 264.412c0 1.153-1.014 2.087-2.266 2.087s-2.267-.934-2.267-2.087c0-1.152 1.015-2.086 2.267-2.086s2.266.934 2.266 2.086z" stroke="#000" stroke-width=".5" fill="#FFF"/><path stroke="#000" stroke-width=".5" fill="#FFF100" d="M358.646 272.453h9.08v6.27h-9.092z"/><path stroke="#000" stroke-width=".5" fill="#FFF100" d="M358.646 275.73h9.08v23.868h-9.092z"/><path d="M365.386 295.36c0 1.156-1.018 2.092-2.273 2.092-1.256 0-2.273-.936-2.273-2.092 0-1.155 1.017-2.092 2.273-2.092 1.255 0 2.273.937 2.273 2.092zm0-5.344c0 1.156-1.018 2.093-2.273 2.093-1.256 0-2.273-.937-2.273-2.093 0-1.155 1.017-2.092 2.273-2.092 1.255 0 2.273.937 2.273 2.092zm0-4.968c0 1.155-1.018 2.092-2.273 2.092-1.256 0-2.273-.937-2.273-2.092 0-1.156 1.017-2.092 2.273-2.092 1.255 0 2.273.936 2.273 2.092zm0-5.25c0 1.155-1.018 2.092-2.273 2.092-1.256 0-2.273-.937-2.273-2.092 0-1.156 1.017-2.092 2.273-2.092 1.255 0 2.273.936 2.273 2.092z" stroke="#000" stroke-width=".5" fill="#FFF"/><path d="M367.969 335.156c0 .938-2.063 1.688-4.688 1.688-2.625 0-4.5-.75-4.5-1.688 0-.937 2.063-1.687 4.594-1.687s4.594.75 4.594 1.687zm41.812 4.125c-.281.656-2.531.75-5.062.094-2.531-.563-4.313-1.5-4.125-2.156.281-.656 2.531-.75 5.062-.094 2.531.563 4.313 1.5 4.125 2.156zm-17.531-2.812c0 .844-2.25 1.312-4.875 1.219-2.531-.188-4.594-1.032-4.5-1.875.094-.844 2.344-1.313 4.875-1.125 2.625.187 4.688.937 4.5 1.78zm-76.688 2.812c.188.656 2.438.75 4.97.094 2.53-.563 4.406-1.5 4.124-2.156-.281-.656-2.531-.75-5.062-.094-2.438.563-4.313 1.5-4.031 2.156zm18.282-3.187c.094.844 2.344 1.312 4.875 1.125 2.625-.188 4.687-.938 4.5-1.875 0-.75-2.25-1.313-4.875-1.125-2.531.187-4.594.937-4.5 1.875z" fill="#000" fill-rule="nonzero"/></g></g></svg>