<svg width="800" height="480" xmlns="http://www.w3.org/2000/svg"><g fill="none" fill-rule="evenodd"><path fill="#FFF" d="M0 160h800v160H0z"/><path fill="#CE1126" d="M0 0h800v160H0z"/><path fill="#000" d="M0 320h800v160H0z"/><g transform="translate(255 192)" fill="#007A3D"><path d="M214.598 17.869a8.76 8.76 0 0 1-2.453-1.752c-.525-.876-.175-.876 2.103-.35 4.029 1.226 6.657.7 9.284-1.402l2.278-1.927 2.627 1.226c1.577.876 3.154 1.402 3.504 1.226 1.226-.35 3.679-3.503 3.504-4.554 0-1.227 1.05-.876 1.751.525 1.052 2.803-.525 6.132-3.503 6.832-1.226.35-2.453.176-4.555-.525-2.452-.876-2.978-.876-4.204 0a9.46 9.46 0 0 1-10.336.7zm10.16-9.285a14.015 14.015 0 0 1-1.751-7.007c.175-1.051.525-1.402 1.401-1.051 1.752.525 2.102 1.751 1.752 5.255 0 3.153-.526 4.03-1.401 2.803zM106.336 5.255c-.175 2.278 4.205 8.059 6.132 9.11-1.402.525-2.978.35-4.205.876-7.007 7.007-32.233 31.533-36.788 37.489 13.664.35 28.73-.175 41.518-.7 0-9.286 8.76-9.811 14.716-13.14 2.978 4.73 10.51 4.38 11.562 11.562v30.832H22.774a16.993 16.993 0 0 1-21.548 13.14c3.504-3.505 9.46-4.906 11.562-9.986 1.752-11.212-3.503-18.044-7.007-24.526a42.044 42.044 0 0 0 12.263-6.306c-4.03 12.262 10.861 11.036 21.722 10.686.35-4.205.175-9.11-2.978-9.81 4.03-1.577 4.73-2.103 11.562-7.708V63.59l80.76-.175c0-5.256 1.4-13.84-2.804-13.84-3.854 0 0 10.862-3.153 10.862h-62.54v-10.51c2.628-2.803 2.277-2.628 20.321-20.672 1.752-1.751 14.54-13.313 25.577-24h-.176zm156.088-.525c4.38 2.452 7.883 5.606 13.138 7.007-.525 2.278-2.627 3.153-3.153 5.43v47.3c5.956 1.226 7.358-2.277 10.16-4.03.701 7.534 5.606 14.891 5.256 21.023h-25.401V4.73zm-33.987 25.4s9.285-7.883 9.285-8.233v41.168h6.657l-.175-46.073c2.627-2.803 8.058-6.657 9.284-9.46v73.576h-58.51c-.876-15.24-1.052-31.007 16.817-27.678v-6.132c-.526-1.051-1.577.175-1.752-1.226 2.803-2.803 3.679-3.504 11.387-10.16l.175 27.153h6.832V30.13zm-22.073 32.584c1.227 1.752 5.606 1.752 5.256-1.401-.526-2.628-6.132-1.752-5.256 1.401z" fill-rule="nonzero"/><circle cx="36.788" cy="90.044" r="3.504"/><path d="M147.153 4.905c4.38 2.277 7.883 5.606 13.314 7.007-.701 2.103-2.628 2.978-3.154 5.256v47.299c5.957 1.226 7.183-2.102 9.986-4.03.876 7.534 5.606 15.066 5.43 21.023h-25.576V4.905z"/></g></g></svg>