<svg width="800" height="480" xmlns="http://www.w3.org/2000/svg" xmlns:xlink="http://www.w3.org/1999/xlink"><defs><path id="a" d="M0 0h800v480H0z"/></defs><g fill="none" fill-rule="evenodd"><mask id="b" fill="#fff"><use xlink:href="#a"/></mask><g mask="url(#b)"><path fill="#FFF" d="M-14 0h840v480H-14z"/><path fill="#DA0000" d="M-14 322.313h840V480H-14z"/><g fill="#FFF"><path d="M145.75 329.063h45.938v3.093H145.75v-3.094zm6.844 15.75h3.187v3.093h-3.187v-3.094zm39.281 0v3.093h-9.188v-3.187l9.188.094zm4.875-15.75h3.188v18.75h-3.188v-18.75z" fill-rule="nonzero"/><path d="M215.125 344.719v3.187h-17.438v-3.187h17.438zm-32.438-7.406h3v10.593h-3.093l.094-10.594z" fill-rule="nonzero"/><path d="M212.5 329.063h3.188v18.75H212.5v-18.75zm-7.875 0h3.094v18.75h-3.094v-18.75zm-42 7.5v3.187H145.75v-3.188h16.875zm36.844 0v3.187h-16.875v-3.188h16.875z" fill-rule="nonzero"/><path d="M182.688 337.406h3v10.406h-3.094z"/><path d="M182.688 337.406h3v10.406h-3.094z"/><path d="M182.688 337.406h3v10.406h-3.094l.094-10.406zm-36.844 0h3.094v10.406h-3.094v-10.406zm27 0h3.187v10.406h-3.187v-10.406zm-13.406 0h3.187v10.406h-3.188v-10.406z" fill-rule="nonzero"/><path d="M175 344.719v3.187h-14.156v-3.187H175zm.938-8.156v3.187h-9v-3.188h9z" fill-rule="nonzero"/></g><g fill="#FFF"><path d="M70.188 329.063h45.937v3.093H70.187v-3.094zm6.843 15.75h3.188v3.093h-3.281l.093-3.094zm39.281 0v3.093h-9.187v-3.187l9.188.094zm4.876-15.75h3.187v18.75h-3.188v-18.75z" fill-rule="nonzero"/><path d="M139.563 344.719v3.187h-17.438v-3.187h17.438zm-32.438-7.406h3.094v10.593h-3.094v-10.594z" fill-rule="nonzero"/><path d="M136.938 329.063h3.187v18.75h-3.188v-18.75zm-7.875 0h3.093v18.75h-3.094v-18.75zm-42 7.5v3.187H70.186v-3.188h16.876zm36.843 0v3.187h-16.875v-3.188h16.875z" fill-rule="nonzero"/><path d="M107.125 337.406h3.094v10.406h-3.094z"/><path d="M107.125 337.406h3.094v10.406h-3.094z"/><path d="M107.125 337.406h3.094v10.406h-3.094v-10.406zm-36.844 0h3.094v10.406h-3.094v-10.406zm27 0h3.094v10.406h-3.094v-10.406zm-13.406 0h3.188v10.406h-3.188v-10.406z" fill-rule="nonzero"/><path d="M99.438 344.719v3.187H85.374v-3.187h14.063zm.937-8.156v3.187h-9v-3.188h9z" fill-rule="nonzero"/></g><g fill="#FFF"><path d="M220.656 329.063h45.938v3.093h-45.938v-3.094zm6.844 15.75h3.188v3.093H227.5v-3.094zm39.281 0v3.093h-9.187v-3.187l9.187.094zm4.969-15.75h3.188v18.75h-3.188v-18.75z" fill-rule="nonzero"/><path d="M290.031 344.719v3.187h-17.437v-3.187h17.437zm-32.437-7.406h3.187v10.593h-3.187v-10.594z" fill-rule="nonzero"/><path d="M287.406 329.063h3.188v18.75h-3.188v-18.75zm-7.875 0h3.188v18.75h-3.281l.093-18.75zm-42 7.5v3.187h-16.875v-3.188h16.875zm36.844 0v3.187H257.5v-3.188h16.875z" fill-rule="nonzero"/><path d="M257.594 337.406h3.187v10.406h-3.187z"/><path d="M257.594 337.406h3.187v10.406h-3.187z"/><path d="M257.594 337.406h3.187v10.406h-3.187v-10.406zm-36.844 0h3.188v10.406h-3.188v-10.406zm27 0h3.188v10.406h-3.188v-10.406zm-13.406 0h3.187v10.406h-3.187v-10.406z" fill-rule="nonzero"/><path d="M250 344.719v3.187h-14.25v-3.187H250zm.938-8.156v3.187h-9v-3.188h9z" fill-rule="nonzero"/></g><g fill="#FFF"><path d="M749.781 329.063h45.938v3.093H749.78v-3.094zm6.844 15.75h3.188v3.093h-3.188v-3.094zm39.281 0v3.093h-9.281v-3.187l9.281.094zm4.969-15.75h3.094v18.75h-3.188l.094-18.75z" fill-rule="nonzero"/><path d="M819.156 344.719v3.187h-17.531v-3.187h17.531zm-32.437-7.406h3.187v10.593h-3.281l.094-10.594z" fill-rule="nonzero"/><path d="M816.625 329.063h3.094v18.75h-3.188l.094-18.75zm-7.969 0h3.188v18.75h-3.188v-18.75zm-42 7.5v3.187h-16.875v-3.188h16.875zm36.844 0v3.187h-16.875v-3.188H803.5z" fill-rule="nonzero"/><path d="M786.625 337.406h3.281v10.406h-3.281z"/><path d="M786.625 337.406h3.281v10.406h-3.281z"/><path d="M786.625 337.406h3.281v10.406h-3.281v-10.406zm-36.75 0h3.188v10.406h-3.188v-10.406zm27 0h3.188v10.406h-3.188v-10.406zm-13.406 0h3.187v10.406h-3.187v-10.406z" fill-rule="nonzero"/><path d="M779.125 344.719v3.187h-14.25v-3.187h14.25zm.938-8.156v3.187h-9v-3.188h9z" fill-rule="nonzero"/></g><g fill="#FFF"><path d="M296.031 329.063h46.031v3.093h-45.937l-.094-3.094zm6.938 15.75h3.094v3.093h-3.094v-3.094zm39.187 0v3.093h-9.187v-3.187l9.187.094zm4.969-15.75h3.188v18.75h-3.188v-18.75z" fill-rule="nonzero"/><path d="M365.5 344.719v3.187h-17.438v-3.187H365.5zm-32.531-7.406h3.187v10.593h-3.187v-10.594z" fill-rule="nonzero"/><path d="M362.875 329.063h3.188v18.75h-3.188v-18.75zm-7.969 0h3.188v18.75h-3.188v-18.75zm-42 7.5v3.187h-16.781v-3.188h16.781zm36.844 0v3.187h-16.781v-3.188h16.781z" fill-rule="nonzero"/><path d="M332.969 337.406h3.187v10.406h-3.187z"/><path d="M332.969 337.406h3.187v10.406h-3.187z"/><path d="M332.969 337.406h3.187v10.406h-3.187v-10.406zm-36.844 0h3.188v10.406h-3.188v-10.406zm27 0h3.188v10.406h-3.188v-10.406zm-13.313 0h3.094v10.406h-3.094v-10.406z" fill-rule="nonzero"/><path d="M325.375 344.719v3.187h-14.156v-3.187h14.156zm.938-8.156v3.187h-9v-3.188h9z" fill-rule="nonzero"/></g><g fill="#FFF"><path d="M371.781 329.063h45.938v3.093H371.78v-3.094zm6.844 15.75h3.188v3.093h-3.188v-3.094zm39.281 0v3.093h-9.187v-3.187l9.187.094zm4.969-15.75h3.094v18.75h-3.094v-18.75z" fill-rule="nonzero"/><path d="M441.156 344.719v3.187H423.72v-3.187h17.437zm-32.437-7.406h3.187v10.593h-3.187v-10.594z" fill-rule="nonzero"/><path d="M438.531 329.063h3.188v18.75h-3.188v-18.75zm-7.875 0h3.188v18.75h-3.188v-18.75zm-42 7.5v3.187h-16.875v-3.188h16.875zm36.844 0v3.187h-16.875v-3.188H425.5z" fill-rule="nonzero"/><path d="M408.719 337.406h3.187v10.406h-3.187z"/><path d="M408.719 337.406h3.187v10.406h-3.187z"/><path d="M408.719 337.406h3.187v10.406h-3.187v-10.406zm-36.844 0h3.094v10.406h-3.094v-10.406zm27 0h3.188v10.406h-3.188v-10.406zm-13.406 0h3.187v10.406h-3.281l.094-10.406z" fill-rule="nonzero"/><path d="M401.125 344.719v3.187h-14.25v-3.187h14.25zm.938-8.156v3.187h-9.188v-3.188h9.188z" fill-rule="nonzero"/></g><path fill="#239F40" d="M-14 0h840v157.688H-14z"/><g fill="#FFF"><path d="M447.906 329.063h45.938v3.093h-45.938v-3.094zm6.844 15.75h3.188v3.093h-3.188v-3.094zm39.281 0v3.093h-9.281v-3.187l9.281.094zm4.969-15.75h3.094v18.75H499v-18.75z" fill-rule="nonzero"/><path d="M517.281 344.719v3.187h-17.437v-3.187h17.437zm-32.437-7.406h3.187v10.593h-3.281l.094-10.594z" fill-rule="nonzero"/><path d="M514.75 329.063h3.094v18.75h-3.094v-18.75zm-7.969 0h3.188v18.75h-3.188v-18.75zm-42 7.5v3.187h-16.875v-3.188h16.875zm36.844 0v3.187H484.75v-3.188h16.875z" fill-rule="nonzero"/><path d="M484.75 337.406h3.281v10.406h-3.281z"/><path d="M484.75 337.406h3.281v10.406h-3.281z"/><path d="M484.75 337.406h3.281v10.406h-3.281v-10.406zm-36.75 0h3.188v10.406H448v-10.406zm27 0h3.188v10.406H475v-10.406zm-13.406 0h3.187v10.406h-3.187v-10.406z" fill-rule="nonzero"/><path d="M477.25 344.719v3.187H463v-3.187h14.25zm.938-8.156v3.187h-9v-3.188h9z" fill-rule="nonzero"/></g><g fill="#FFF"><path d="M523.563 329.063H569.5v3.093h-45.938v-3.094zm6.843 15.75h3.188v3.093h-3.188v-3.094zm39.375 0v3.093H560.5v-3.187l9.281.094zm4.875-15.75h3.188v18.75h-3.188v-18.75z" fill-rule="nonzero"/><path d="M592.938 344.719v3.187H575.5v-3.187h17.438zm-32.438-7.406h3.188v10.593H560.5v-10.594z" fill-rule="nonzero"/><path d="M590.406 329.063h3.094v18.75h-3.094v-18.75zm-7.968 0h3.187v18.75h-3.188v-18.75zm-42 7.5v3.187h-16.782v-3.188h16.782zm36.843 0v3.187H560.5v-3.188h16.781z" fill-rule="nonzero"/><path d="M560.5 337.406h3.188v10.406H560.5z"/><path d="M560.5 337.406h3.188v10.406H560.5z"/><path d="M560.5 337.406h3.188v10.406H560.5v-10.406zm-36.844 0h3.188v10.406h-3.188v-10.406zm27 0h3.188v10.406h-3.188v-10.406zm-13.406 0h3.188v10.406h-3.094l-.094-10.406z" fill-rule="nonzero"/><path d="M552.906 344.719v3.187H538.75v-3.187h14.156zm.938-8.156v3.187h-9.094v-3.188h9.094z" fill-rule="nonzero"/></g><g fill="#FFF"><path d="M599.313 329.063h45.937v3.093h-45.938v-3.094zm6.843 15.75h3.188v3.093h-3.188v-3.094zm39.282 0v3.093h-9.188v-3.187l9.188.094zm4.875-15.75h3.187v18.75h-3.188v-18.75z" fill-rule="nonzero"/><path d="M668.688 344.719v3.187H651.25v-3.187h17.438zm-32.532-7.406h3.188v10.593h-3.188v-10.594z" fill-rule="nonzero"/><path d="M666.063 329.063h3.187v18.75h-3.188v-18.75zm-7.875 0h3.093v18.75h-3.093v-18.75zm-42 7.5v3.187h-16.875v-3.188h16.875zm36.843 0v3.187h-16.875v-3.188h16.875z" fill-rule="nonzero"/><path d="M636.25 337.406h3.094v10.406h-3.094z"/><path d="M636.25 337.406h3.094v10.406h-3.094z"/><path d="M636.25 337.406h3.094v10.406h-3.094v-10.406zm-36.938 0h3.188v10.406h-3.188v-10.406zm27.094 0h3.094v10.406h-3.094v-10.406zm-13.406 0h3.188v10.406H613v-10.406z" fill-rule="nonzero"/><path d="M628.563 344.719v3.187h-14.157v-3.187h14.157zm.937-8.156v3.187h-9v-3.188h9z" fill-rule="nonzero"/></g><g fill="#FFF"><path d="M675.438 329.063h45.937v3.093h-45.938v-3.094zm6.843 15.75h3.188v3.093h-3.188v-3.094zm39.282 0v3.093h-9.188v-3.187l9.188.094zm4.875-15.75h3.187v18.75h-3.188v-18.75z" fill-rule="nonzero"/><path d="M744.813 344.719v3.187h-17.438v-3.187h17.438zm-32.438-7.406h3.094v10.593h-3.094v-10.594z" fill-rule="nonzero"/><path d="M742.188 329.063h3.187v18.75h-3.188v-18.75zm-7.875 0h3.093v18.75h-3.093v-18.75zm-42 7.5v3.187h-16.875v-3.188h16.875zm36.843 0v3.187h-16.875v-3.188h16.875z" fill-rule="nonzero"/><path d="M712.375 337.406h3.094v10.406h-3.094z"/><path d="M712.375 337.406h3.094v10.406h-3.094z"/><path d="M712.375 337.406h3.094v10.406h-3.094v-10.406zm-36.844 0h3.094v10.406h-3.094v-10.406zm27 0h3.188v10.406h-3.188v-10.406zm-13.406 0h3.188v10.406h-3.188v-10.406z" fill-rule="nonzero"/><path d="M704.688 344.719v3.187H690.53v-3.187h14.157zm.937-8.156v3.187h-9v-3.188h9z" fill-rule="nonzero"/></g><g fill="#FFF"><path d="M-6.313 329.063h45.938v3.093H-6.313v-3.094zm6.844 15.75H3.72v3.093H.53v-3.094zm39.375 0v3.093h-9.281v-3.187l9.281.094zm4.875-15.75h3.188v18.75H44.78v-18.75z" fill-rule="nonzero"/><path d="M63.063 344.719v3.187H45.624v-3.187h17.438zm-32.438-7.406h3.188v10.593h-3.188v-10.594z" fill-rule="nonzero"/><path d="M60.531 329.063h3.094v18.75h-3.094v-18.75zm-7.968 0h3.187v18.75h-3.188v-18.75zm-42 7.5v3.187H-6.22v-3.188h16.782zm36.843 0v3.187H30.625v-3.188h16.781z" fill-rule="nonzero"/><path d="M30.625 337.406h3.188v10.406h-3.188z"/><path d="M30.625 337.406h3.188v10.406h-3.188z"/><path d="M30.625 337.406h3.188v10.406h-3.188v-10.406zm-36.844 0h3.188v10.406H-6.22v-10.406zm27 0h3.188v10.406H20.78v-10.406zm-13.406 0h3.188v10.406H7.374v-10.406z" fill-rule="nonzero"/><path d="M23.031 344.719v3.187H8.781v-3.187h14.25zm.938-8.156v3.187h-9v-3.188h9z" fill-rule="nonzero"/></g><g fill="#FFF"><path d="M145.75 134.438h45.938v3.187H145.75v-3.188zm6.844 15.937h3.187v3h-3.187v-3zm39.281-.188v3.188h-9.188v-3.188h9.188zm4.875-15.75h3.188v18.938h-3.188v-18.938z" fill-rule="nonzero"/><path d="M215.125 150.188v3.187h-17.438v-3.188h17.438zm-32.438-7.407h3v10.594h-3.093l.094-10.594z" fill-rule="nonzero"/><path d="M212.5 134.438h3.188v18.937H212.5v-18.938zm-7.875 0h3.094v18.937h-3.094v-18.938zm-42 7.5v3.187H145.75v-3.094l16.875-.094zm36.844 0v3.187h-16.875v-3.094l16.875-.094z" fill-rule="nonzero"/><path d="M182.688 142.781h3v10.594h-3.094z"/><path d="M182.688 142.781h3v10.594h-3.094z"/><path d="M182.688 142.781h3v10.594h-3.094l.094-10.594zm-36.844 0h3.094v10.594h-3.094v-10.594zm27 0h3.187v10.594h-3.187v-10.594zm-13.406 0h3.187v10.594h-3.188v-10.594z" fill-rule="nonzero"/><path d="M175 150.188v3.187h-14.156v-3.188H175zm.938-8.157v3.094h-9v-3.094h9z" fill-rule="nonzero"/></g><g fill="#FFF"><path d="M70.188 134.438h45.937v3.187H70.187v-3.188zm6.843 15.937h3.188v3h-3.281l.093-3zm39.281-.188v3.188h-9.187v-3.188h9.188zm4.876-15.75h3.187v18.938h-3.188v-18.938z" fill-rule="nonzero"/><path d="M139.563 150.188v3.187h-17.438v-3.188h17.438zm-32.438-7.407h3.094v10.594h-3.094v-10.594z" fill-rule="nonzero"/><path d="M136.938 134.438h3.187v18.937h-3.188v-18.938zm-7.875 0h3.093v18.937h-3.094v-18.938zm-42 7.5v3.187H70.186v-3.094l16.876-.094zm36.843 0v3.187h-16.875v-3.094l16.875-.094z" fill-rule="nonzero"/><path d="M107.125 142.781h3.094v10.594h-3.094z"/><path d="M107.125 142.781h3.094v10.594h-3.094z"/><path d="M107.125 142.781h3.094v10.594h-3.094v-10.594zm-36.844 0h3.094v10.594h-3.094v-10.594zm27 0h3.094v10.594h-3.094v-10.594zm-13.406 0h3.188v10.594h-3.188v-10.594z" fill-rule="nonzero"/><path d="M99.438 150.188v3.187H85.374v-3.188h14.063zm.937-8.157v3.094h-9v-3.094h9z" fill-rule="nonzero"/></g><g fill="#FFF"><path d="M220.656 134.438h45.938v3.187h-45.938v-3.188zm6.844 15.937h3.188v3H227.5v-3zm39.281-.188v3.188h-9.187v-3.188h9.187zm4.969-15.75h3.188v18.938h-3.188v-18.938z" fill-rule="nonzero"/><path d="M290.031 150.188v3.187h-17.437v-3.188h17.437zm-32.437-7.407h3.187v10.594h-3.187v-10.594z" fill-rule="nonzero"/><path d="M287.406 134.438h3.188v18.937h-3.188v-18.938zm-7.875 0h3.188v18.937h-3.281l.093-18.938zm-42 7.5v3.187h-16.875v-3.094l16.875-.094zm36.844 0v3.187H257.5v-3.094l16.875-.094z" fill-rule="nonzero"/><path d="M257.594 142.781h3.187v10.594h-3.187z"/><path d="M257.594 142.781h3.187v10.594h-3.187z"/><path d="M257.594 142.781h3.187v10.594h-3.187v-10.594zm-36.844 0h3.188v10.594h-3.188v-10.594zm27 0h3.188v10.594h-3.188v-10.594zm-13.406 0h3.187v10.594h-3.187v-10.594z" fill-rule="nonzero"/><path d="M250 150.188v3.187h-14.25v-3.188H250zm.938-8.157v3.094h-9v-3.094h9z" fill-rule="nonzero"/></g><g fill="#FFF"><path d="M749.781 134.438h45.938v3.187H749.78v-3.188zm6.844 15.937h3.188v3h-3.188v-3zm39.281-.188v3.188h-9.281v-3.188h9.281zm4.969-15.75h3.094v18.938h-3.188l.094-18.938z" fill-rule="nonzero"/><path d="M819.156 150.188v3.187h-17.531v-3.188h17.531zm-32.437-7.407h3.187v10.594h-3.281l.094-10.594z" fill-rule="nonzero"/><path d="M816.625 134.438h3.094v18.937h-3.188l.094-18.938zm-7.969 0h3.188v18.937h-3.188v-18.938zm-42 7.5v3.187h-16.875v-3.094l16.875-.094zm36.844 0v3.187h-16.875v-3.094l16.875-.094z" fill-rule="nonzero"/><path d="M786.625 142.781h3.281v10.594h-3.281z"/><path d="M786.625 142.781h3.281v10.594h-3.281z"/><path d="M786.625 142.781h3.281v10.594h-3.281v-10.594zm-36.75 0h3.188v10.594h-3.188v-10.594zm27 0h3.188v10.594h-3.188v-10.594zm-13.406 0h3.187v10.594h-3.187v-10.594z" fill-rule="nonzero"/><path d="M779.125 150.188v3.187h-14.25v-3.188h14.25zm.938-8.157v3.094h-9v-3.094h9z" fill-rule="nonzero"/></g><g fill="#FFF"><path d="M296.031 134.438h46.031v3.187h-45.937l-.094-3.188zm6.938 15.937h3.094v3h-3.094v-3zm39.187-.188v3.188h-9.187v-3.188h9.187zm4.969-15.75h3.188v18.938h-3.188v-18.938z" fill-rule="nonzero"/><path d="M365.5 150.188v3.187h-17.438v-3.188H365.5zm-32.531-7.407h3.187v10.594h-3.187v-10.594z" fill-rule="nonzero"/><path d="M362.875 134.438h3.188v18.937h-3.188v-18.938zm-7.969 0h3.188v18.937h-3.188v-18.938zm-42 7.5v3.187h-16.781v-3.094l16.781-.094zm36.844 0v3.187h-16.781v-3.094l16.781-.094z" fill-rule="nonzero"/><path d="M332.969 142.781h3.187v10.594h-3.187z"/><path d="M332.969 142.781h3.187v10.594h-3.187z"/><path d="M332.969 142.781h3.187v10.594h-3.187v-10.594zm-36.844 0h3.188v10.594h-3.188v-10.594zm27 0h3.188v10.594h-3.188v-10.594zm-13.313 0h3.094v10.594h-3.094v-10.594z" fill-rule="nonzero"/><path d="M325.375 150.188v3.187h-14.156v-3.188h14.156zm.938-8.157v3.094h-9v-3.094h9z" fill-rule="nonzero"/></g><g fill="#FFF"><path d="M371.781 134.438h45.938v3.187H371.78v-3.188zm6.844 15.937h3.188v3h-3.188v-3zm39.281-.188v3.188h-9.187v-3.188h9.187zm4.969-15.75h3.094v18.938h-3.094v-18.938z" fill-rule="nonzero"/><path d="M441.156 150.188v3.187H423.72v-3.188h17.437zm-32.437-7.407h3.187v10.594h-3.187v-10.594z" fill-rule="nonzero"/><path d="M438.531 134.438h3.188v18.937h-3.188v-18.938zm-7.875 0h3.188v18.937h-3.188v-18.938zm-42 7.5v3.187h-16.875v-3.094l16.875-.094zm36.844 0v3.187h-16.875v-3.094l16.875-.094z" fill-rule="nonzero"/><path d="M408.719 142.781h3.187v10.594h-3.187z"/><path d="M408.719 142.781h3.187v10.594h-3.187z"/><path d="M408.719 142.781h3.187v10.594h-3.187v-10.594zm-36.844 0h3.094v10.594h-3.094v-10.594zm27 0h3.188v10.594h-3.188v-10.594zm-13.406 0h3.187v10.594h-3.281l.094-10.594z" fill-rule="nonzero"/><path d="M401.125 150.188v3.187h-14.25v-3.188h14.25zm.938-8.157v3.094h-9.188v-3.094h9.188z" fill-rule="nonzero"/></g><g fill="#FFF"><path d="M447.906 134.438h45.938v3.187h-45.938v-3.188zm6.844 15.937h3.188v3h-3.188v-3zm39.281-.188v3.188h-9.281v-3.188h9.281zm4.969-15.75h3.094v18.938H499v-18.938z" fill-rule="nonzero"/><path d="M517.281 150.188v3.187h-17.437v-3.188h17.437zm-32.437-7.407h3.187v10.594h-3.281l.094-10.594z" fill-rule="nonzero"/><path d="M514.75 134.438h3.094v18.937h-3.094v-18.938zm-7.969 0h3.188v18.937h-3.188v-18.938zm-42 7.5v3.187h-16.875v-3.094l16.875-.094zm36.844 0v3.187H484.75v-3.094l16.875-.094z" fill-rule="nonzero"/><path d="M484.75 142.781h3.281v10.594h-3.281z"/><path d="M484.75 142.781h3.281v10.594h-3.281z"/><path d="M484.75 142.781h3.281v10.594h-3.281v-10.594zm-36.75 0h3.188v10.594H448v-10.594zm27 0h3.188v10.594H475v-10.594zm-13.406 0h3.187v10.594h-3.187v-10.594z" fill-rule="nonzero"/><path d="M477.25 150.188v3.187H463v-3.188h14.25zm.938-8.157v3.094h-9v-3.094h9z" fill-rule="nonzero"/></g><g fill="#FFF"><path d="M523.563 134.438H569.5v3.187h-45.938v-3.188zm6.843 15.937h3.188v3h-3.188v-3zm39.375-.188v3.188H560.5v-3.188h9.281zm4.875-15.75h3.188v18.938h-3.188v-18.938z" fill-rule="nonzero"/><path d="M592.938 150.188v3.187H575.5v-3.188h17.438zM560.5 142.78h3.188v10.594H560.5V142.78z" fill-rule="nonzero"/><path d="M590.406 134.438h3.094v18.937h-3.094v-18.938zm-7.968 0h3.187v18.937h-3.188v-18.938zm-42 7.5v3.187h-16.782v-3.094l16.782-.094zm36.843 0v3.187H560.5v-3.094l16.781-.094z" fill-rule="nonzero"/><path d="M560.5 142.781h3.188v10.594H560.5z"/><path d="M560.5 142.781h3.188v10.594H560.5z"/><path d="M560.5 142.781h3.188v10.594H560.5v-10.594zm-36.844 0h3.188v10.594h-3.188v-10.594zm27 0h3.188v10.594h-3.188v-10.594zm-13.406 0h3.188v10.594h-3.094l-.094-10.594z" fill-rule="nonzero"/><path d="M552.906 150.188v3.187H538.75v-3.188h14.156zm.938-8.157v3.094h-9.094v-3.094h9.094z" fill-rule="nonzero"/></g><g fill="#FFF"><path d="M599.313 134.438h45.937v3.187h-45.938v-3.188zm6.843 15.937h3.188v3h-3.188v-3zm39.282-.188v3.188h-9.188v-3.188h9.188zm4.875-15.75h3.187v18.938h-3.188v-18.938z" fill-rule="nonzero"/><path d="M668.688 150.188v3.187H651.25v-3.188h17.438zm-32.532-7.407h3.188v10.594h-3.188v-10.594z" fill-rule="nonzero"/><path d="M666.063 134.438h3.187v18.937h-3.188v-18.938zm-7.875 0h3.093v18.937h-3.093v-18.938zm-42 7.5v3.187h-16.875v-3.094l16.875-.094zm36.843 0v3.187h-16.875v-3.094l16.875-.094z" fill-rule="nonzero"/><path d="M636.25 142.781h3.094v10.594h-3.094z"/><path d="M636.25 142.781h3.094v10.594h-3.094z"/><path d="M636.25 142.781h3.094v10.594h-3.094v-10.594zm-36.938 0h3.188v10.594h-3.188v-10.594zm27.094 0h3.094v10.594h-3.094v-10.594zm-13.406 0h3.188v10.594H613v-10.594z" fill-rule="nonzero"/><path d="M628.563 150.188v3.187h-14.157v-3.188h14.157zm.937-8.157v3.094h-9v-3.094h9z" fill-rule="nonzero"/></g><g fill="#FFF"><path d="M675.438 134.438h45.937v3.187h-45.938v-3.188zm6.843 15.937h3.188v3h-3.188v-3zm39.282-.188v3.188h-9.188v-3.188h9.188zm4.875-15.75h3.187v18.938h-3.188v-18.938z" fill-rule="nonzero"/><path d="M744.813 150.188v3.187h-17.438v-3.188h17.438zm-32.438-7.407h3.094v10.594h-3.094v-10.594z" fill-rule="nonzero"/><path d="M742.188 134.438h3.187v18.937h-3.188v-18.938zm-7.875 0h3.093v18.937h-3.093v-18.938zm-42 7.5v3.187h-16.875v-3.094l16.875-.094zm36.843 0v3.187h-16.875v-3.094l16.875-.094z" fill-rule="nonzero"/><path d="M712.375 142.781h3.094v10.594h-3.094z"/><path d="M712.375 142.781h3.094v10.594h-3.094z"/><path d="M712.375 142.781h3.094v10.594h-3.094v-10.594zm-36.844 0h3.094v10.594h-3.094v-10.594zm27 0h3.188v10.594h-3.188v-10.594zm-13.406 0h3.188v10.594h-3.188v-10.594z" fill-rule="nonzero"/><path d="M704.688 150.188v3.187H690.53v-3.188h14.157zm.937-8.157v3.094h-9v-3.094h9z" fill-rule="nonzero"/></g><g fill="#FFF"><path d="M-6.313 134.438h45.938v3.187H-6.313v-3.188zm6.844 15.937H3.72v3H.53v-3zm39.375-.188v3.188h-9.281v-3.188h9.281zm4.875-15.75h3.188v18.938H44.78v-18.938z" fill-rule="nonzero"/><path d="M63.063 150.188v3.187H45.624v-3.188h17.438zm-32.438-7.407h3.188v10.594h-3.188v-10.594z" fill-rule="nonzero"/><path d="M60.531 134.438h3.094v18.937h-3.094v-18.938zm-7.968 0h3.187v18.937h-3.188v-18.938zm-42 7.5v3.187H-6.22v-3.094l16.782-.094zm36.843 0v3.187H30.625v-3.094l16.781-.094z" fill-rule="nonzero"/><path d="M30.625 142.781h3.188v10.594h-3.188z"/><path d="M30.625 142.781h3.188v10.594h-3.188z"/><path d="M30.625 142.781h3.188v10.594h-3.188v-10.594zm-36.844 0h3.188v10.594H-6.22v-10.594zm27 0h3.188v10.594H20.78v-10.594zm-13.406 0h3.188v10.594H7.374v-10.594z" fill-rule="nonzero"/><path d="M23.031 150.188v3.187H8.781v-3.188h14.25zm.938-8.157v3.094h-9v-3.094h9z" fill-rule="nonzero"/></g><path d="M101.5 318.281h5.625v9.844H101.5v-9.844zm150.469 0h5.625v9.844h-5.625v-9.844zm-265.969 0h5.625v9.844H-14v-9.844zm76.406 0h5.625v9.844h-5.625v-9.844zm75.844 0h5.625v9.844h-5.625v-9.844zm37.5 0h5.625v9.844h-5.625v-9.844zm38.344 0h5.625v9.844h-5.625v-9.844zm75.375 0h5.625v9.844h-5.625v-9.844zm190.312 0h5.719v9.844h-5.625l-.094-9.844zm-151.969 0h5.625v9.844h-5.625v-9.844zm37.5 0h5.625v9.844h-5.625v-9.844zm37.97 0h5.624v9.844h-5.625v-9.844zm37.874 0h5.625v9.844h-5.625v-9.844zm303 0h5.625v9.844h-5.625v-9.844zm-227.531 0h5.625v9.844h-5.625v-9.844zm38.25 0h5.625v9.844h-5.625v-9.844zm38.719 0h5.625v9.844h-5.625v-9.844zm36.375 0h5.625v9.844h-5.625v-9.844zm38.718 0h5.625v9.844h-5.625v-9.844zm37.875 0h5.625v9.844h-5.625v-9.844zm112.22 0h5.624v9.844h-5.625v-9.844zm-36.376 0h5.625v9.844h-5.625v-9.844zm-758.343 0h5.625v9.844h-5.625v-9.844z" fill="#D90000" fill-rule="nonzero"/><path d="M101.5 152.438h5.625v9.843H101.5v-9.844zm150.469 0h5.625v9.843h-5.625v-9.844zm-265.969 0h5.625v9.843H-14v-9.844zm76.406 0h5.625v9.843h-5.625v-9.844zm75.844 0h5.625v9.843h-5.625v-9.844zm37.5 0h5.625v9.843h-5.625v-9.844zm38.344 0h5.625v9.843h-5.625v-9.844zm75.375 0h5.625v9.843h-5.625v-9.844zm190.312 0h5.719v9.843h-5.625l-.094-9.844zm-151.969 0h5.625v9.843h-5.625v-9.844zm37.5 0h5.625v9.843h-5.625v-9.844zm37.97 0h5.624v9.843h-5.625v-9.844zm37.874 0h5.625v9.843h-5.625v-9.844zm303 0h5.625v9.843h-5.625v-9.844zm-227.531 0h5.625v9.843h-5.625v-9.844zm38.25 0h5.625v9.843h-5.625v-9.844zm38.719 0h5.625v9.843h-5.625v-9.844zm36.375 0h5.625v9.843h-5.625v-9.844zm38.718 0h5.625v9.843h-5.625v-9.844zm37.875 0h5.625v9.843h-5.625v-9.844zm112.22 0h5.624v9.843h-5.625v-9.844zm-36.376 0h5.625v9.843h-5.625v-9.844zm-758.343 0h5.625v9.843h-5.625v-9.844z" fill="#239E3F" fill-rule="nonzero"/><g fill="#DA0000"><path d="M428.313 185.156c7.875 9.75 32.343 63.375-14.72 98.625-22.218 16.688-8.437 17.438-7.78 20.25 35.625-18.844 47.156-44.531 46.875-67.5-.188-22.875-12.375-43.125-24.375-51.375z"/><path d="M433 182.625A68.719 68.719 0 0 1 447.719 288c25.5-5.625 58.125-81-14.719-105.375zm-54 0A68.719 68.719 0 0 0 364.375 288c-25.594-5.625-58.125-81 14.625-105.375z" fill-rule="nonzero"/><path d="M383.688 185.156c-7.875 9.75-32.344 63.375 14.718 98.625 22.125 16.688 8.438 17.438 7.781 20.25-35.625-18.844-47.156-44.531-46.875-67.5.188-22.875 12.375-43.125 24.375-51.375z"/><path d="M451.188 299.156c-13.97.188-31.5-1.875-44.532-8.719 2.156 4.22 3.938 6.844 6.094 10.97 12.375 1.218 29.531 2.624 38.438-2.25zm-89.063 0c13.969.188 31.5-1.875 44.531-8.719-2.156 4.22-3.937 6.844-6.094 10.97-12.375 1.218-29.53 2.624-38.437-2.25zm25.594-130.031c2.812 7.5 10.219 8.625 18.094 4.219 5.812 3.375 14.718 3.656 17.812-3.844 2.344 18.563-17.156 14.063-17.813 10.5-7.312 7.031-20.812 3-18.093-10.875z" fill-rule="nonzero"/><path d="M406.375 310.875l7.313-8.438 1.03-112.593-8.718-7.688-8.719 7.313 1.781 113.437z"/></g></g></g></svg>