<svg width="800" height="480" xmlns="http://www.w3.org/2000/svg"><g fill="none" fill-rule="evenodd"><path fill="#FFF" fill-rule="nonzero" d="M0 0h800v480H0z"/><path fill="#DF112D" d="M0 0v32l349.7 208L1.598 448v32h51.098l348.103-208 346.507 208h51.098v-32L451.896 240 800 32V0h-52.695L399.202 208 52.695 0H1.597z"/><g stroke="#000" stroke-width=".5"><path d="M442.912 74.64c9.966 39.093 4.501 87.348-41.472 114.225-45.651-26.877-51.438-75.132-41.15-114.225 10.93-9.163 59.796-14.966 82.622 0z" fill="#E8112D"/><path d="M401.44 67.004c14.562-.357 28.969 2.907 41.794 9.468 2.112-13.325 7.51-25.988 15.753-36.955-8.038 0-11.574 3.97-11.574 7.94-1.929-5.191-9.645-4.886-12.217-2.137 8.68 5.497 1.93 15.27-5.786 13.438-3.537-.916-5.466-3.36-6.43-7.024 2.111-.394 3.564-2.246 3.356-4.28-.208-2.035-2.008-3.587-4.16-3.587s-3.952 1.552-4.16 3.587c-.208 2.034 1.245 3.886 3.356 4.28-2.093 3.204-6.093 4.797-9.966 3.97-4.18-.916-6.108-4.581-6.108-7.635 0-8.247 8.359-9.468 10.93-7.941 0-5.498-9.323-10.079-12.216-5.498 3.471-5.775 2.416-13.047-2.572-17.714-4.83 4.617-5.878 11.707-2.572 17.409-2.893-4.581-11.895 0-11.895 5.497 2.25-1.527 10.61-.305 10.61 7.941 0 3.054-1.93 6.72-5.788 7.636-3.967.872-8.084-.717-10.287-3.97a4.2 4.2 0 0 0 1.929-1.223c1.326-1.339 1.511-3.368.447-4.904-1.065-1.536-3.1-2.176-4.92-1.548-1.818.629-2.945 2.361-2.723 4.188.223 1.827 1.737 3.27 3.66 3.486-.644 3.665-2.894 6.108-6.43 7.025-3.73.903-7.59-.943-9.048-4.328-1.458-3.384-.066-7.272 3.26-9.11-2.571-3.055-10.287-3.055-12.216 2.137 0-3.97-3.536-7.94-11.574-7.94 8.357 10.938 13.866 23.603 16.075 36.955 12.825-6.562 27.232-9.826 41.794-9.468l-.322.305z" fill="#F9DD16"/><g fill="#F9DD16"><path d="M436.482 105.181c-1.286 0-1.286 1.527-1.607 1.527 2.572 0 3.858-.916 4.5-2.138v1.833c1.93-.611 2.573-2.138 1.93-3.054l2.25.61c-1.286-.916-.321-3.054-2.572-4.275.643 0 1.93.61 2.572 1.527-.321-2.138-.643-3.36-2.572-4.581h1.608c-.855-.54-1.344-1.47-1.286-2.444 0-1.221-.643-1.221-1.93-.916l-5.786.305c-3.215 0-6.43 0-9.002-1.832 4.18 1.832 9.645-1.833 9.645-4.581 0-3.054-4.5-6.109-12.86-4.276-8.358 1.832-18.646 1.222-18.646-1.527 0-2.749 7.394-3.054 11.252-2.444 3.858.611 6.43.917 13.503-1.527-1.608.611-7.395.917-11.895-.305-4.501-1.222-15.432-1.222-15.432 4.276 0 5.803 11.574 5.192 21.861 3.665 5.787-.611 9.002 0 9.002 1.527 0 1.832-5.465 2.443-9.645 2.138a33.78 33.78 0 0 0-13.18.916c-4.18 1.222-7.073 0-11.574.916-2.25 0-7.716 0-10.288-4.276-1.607 1.222-6.43 3.36-7.394 5.803-.965 1.833 0 3.97 1.286 6.109 1.929 2.443-.965 2.138-3.215 2.138-2.572 0-6.43 0-8.359-2.444-1.929-1.832-4.18-3.36-6.108-2.138-.965.917 0 1.833.643 1.527l2.572.611a3.357 3.357 0 0 0-3.215.306c-.965.61 0 1.832.964 1.527.643-.306 2.25-.611 3.215 0-.964 0-2.25 0-2.572.61-.321.611 0 1.222.965 1.222 1.929 0 2.25 1.222 4.18.916-.912.048-1.746.5-2.251 1.222 1.929-.916 3.536 1.222 5.786.61-.643.306-2.25 1.223-2.25 1.833 1.286-1.527 10.288 1.222 10.288-2.137l-.322 2.443c.965-.611 4.501-.916 5.787-3.054 0 .61 0 1.527-.643 1.832.965 0 2.572-.61 4.18-2.749.642-.916.642-1.527.642-2.137 1.608 0 2.572-.306 3.858-1.222 1.286-.916 2.572.916 4.823-.611 1.929-1.222 3.857 0 5.143-.61.965-.612 2.572 0 3.858-.612 1.286-.61 3.215.306 5.144-1.221 3.215 1.221 7.394 3.054 16.718 1.527 5.143-.916 7.072.916 7.072 3.054 0 1.832-1.286 1.832-1.929 1.832-3.214.306-4.179-.916-5.465-.61-.643.305-1.286 1.527 0 2.138-.964.305-.964 1.221-.321 1.527.643.305 1.607 0 2.572-.306-1.286.306-2.25 1.222-1.608 2.138.322.61 1.286.916 2.25 0 .965-1.222 2.572-2.138 3.858-2.138zm-59.797-24.433c-2.572-.916-3.215-.916-2.893 1.222 0 .916.964 2.138 1.607 2.748 0-.916.322-3.054 1.286-3.665v-.305z" fill-rule="nonzero"/><path d="M385.366 81.053c2.571-1.221 3.536-1.221 2.893.917 0 .916-.965 2.138-1.607 2.748 0-.916 0-3.054-1.286-3.665z"/><path d="M381.186 79.526c5.144 0 5.787 2.444 5.466 5.192 0 3.055-1.608 1.833-2.572 6.109-.322 1.221-1.608 1.527-3.215 1.527-.965 0-2.25 0-2.894-1.833-.964-3.97-2.572-3.054-2.572-6.108 0-2.443.643-4.887 5.787-4.887z"/><path d="M368.005 90.827c-1.286-.611-2.25 0-2.893 0 1.929.305 1.929 2.443 5.787 3.054-.965 0-1.286.61-2.25 0 1.607 1.221 3.214 2.749 7.072 2.749 2.25 0 .643.916-.643.305 1.286 1.527 4.18.305 6.108 3.054 0-2.138-3.215-5.192-1.607-7.33-5.466-.305-5.787-3.054-8.68-5.192-2.572-1.832-2.894-3.665-3.858-7.024-.322-1.528-2.25-2.444-3.215-2.138-.965 0-1.608.916-.643 1.527.643.61 1.929.61 1.929 2.138-.965-1.222-2.572-1.527-3.215-.917-.322.611 0 1.527.643 1.527 1.607 0 .643 1.833 2.25 3.055-1.607-1.527-2.893-1.833-3.858-.917-.321.611 0 1.527 1.286 1.527 1.608 0 3.215 3.665 5.787 4.582zm41.794 14.049c-.643 0-.322 1.527-1.608 1.527 2.572 0 4.18-.611 5.144-1.527l-.643 1.527c1.286-.916 4.822-1.222 6.43-.916 1.607.305 1.929-.306 2.572-1.222.643-1.222 0-1.833-.965-2.443-.964-.917-1.286-2.138-.964-3.97-4.5-6.11-12.86-3.055-12.86-.612 2.894 3.36 3.215 3.055 5.787 3.36 2.25.61 3.858.61 2.25 1.832-.642.611-3.214 0-4.822.306-4.18 0-6.43-2.749-7.394-1.222-.964 1.222 0 1.833 1.929 1.833-1.286 0-3.215 0-2.893 1.221.642 2.138 2.571-.305 3.536.306-.643 0-1.929.305-1.929.916 0 .61 1.607 1.527 3.215 0a5.337 5.337 0 0 1 3.215-.916z" fill-rule="nonzero"/></g><path d="M413.335 98.174c-1.286-.713-2.893-1.07-4.5-.713m-18.004 0c-1.286 2.853-.643 4.28-.322 5.706m-12.86-19.972c.644.714 1.287-.713 2.573.714-.322-.357-.965 1.07-1.93 0m6.43-.357c-.964 0-1.607-1.07-2.893.357.322-.357.965 1.07 1.93 0m-1.93 0v1.07c.322 2.496.965 3.566-.964 3.566-1.608 0-.965-1.07-.643-3.566v-1.07"/><path d="M381.186 91.438c1.286 0 1.93 0 1.93-1.833 0-.61.964-.916.32-2.138.644 1.222-2.25 1.222-2.25.61 0 .612-3.215.612-2.572-.61-.321 1.222.643 1.527.322 2.138 0 1.833.643 1.833 2.25 1.833z" fill="#FF0016"/><path d="M379.31 89.758l-2.946-1.833m2.945 1.833h-2.945m2.945.61l-2.65 1.833m5.007-2.443l2.946-1.833m-2.946 1.833h3.535m-3.535.61l2.946 1.833" fill="#000" fill-rule="nonzero"/><path d="M363.826 78.305c-.965-1.222-3.215 0-3.215 1.221.643-.916 1.929.306 2.893 0 .322 0 .965-.61.322-1.221zm-.965 2.748c-.964-1.221-3.536 0-3.536 1.222.643-.916 1.929.305 2.893 0 .322 0 .965-.916.643-1.222zm-.643 3.665c-1.286-1.221-3.536 0-3.215 1.527.643-.916 1.93 0 2.572 0 .643-.305.965-1.221.322-1.527h.321zm.965 11.3c-1.286-1.22-3.215.306-3.215 1.833.643-1.221 2.25 0 3.215-.61 0 0 .643-.917 0-1.528v.306zm0 2.139c-1.608-.306-3.215 1.832-2.25 3.054 0-1.527 1.928-.916 2.571-1.527l-.321-1.527zm1.929 2.138c-1.608-.611-3.215 1.221-2.25 2.443 0-.916 1.928-.611 2.25-1.222V99.99v.306zm37.614 3.36c-1.607-.306-3.215 1.526-2.25 3.053 0-1.527 1.928-.916 2.571-1.527l-.321-1.527zm1.929 1.832c-1.608-.306-2.893 1.832-1.929 3.054 0-1.527 1.929-1.222 2.25-1.833.322-.305.322-1.221 0-1.221h-.321zm-1.286-4.276c-1.286-.611-3.215 1.221-2.893 2.443.643-1.222 2.25-.305 2.893-.916v-1.527zm26.684 3.054c-1.286-.305-2.572 1.832-1.93 3.054 0-1.222 1.93-.916 2.573-1.527 0-.61 0-1.527-.643-1.527zm0-2.138c-1.286-.916-3.215.916-2.572 2.138.643-.916 2.25-.305 2.893-.916v-1.527l-.321.305zm1.286 3.97c-1.608 0-2.894 2.138-1.93 3.055 0-1.222 1.93-.917 2.251-1.527.322-.611 0-1.222-.321-1.528zm-50.153-15.881c.965 0 1.286.305 1.286 2.138 0 3.054 0 4.886-1.286 4.886-.964 0-.964-1.527-.964-3.97 0-1.222 0-2.138-.322-1.832 0-.917.322-1.222 1.286-1.222z" fill="#0051BA" fill-rule="nonzero"/><g fill="#F9DD16"><path d="M431.756 137.189c-1.157 0-1.157 1.374-1.446 1.374 2.314 0 3.472-.825 4.05-1.924v1.65c1.737-.55 2.315-1.925 1.737-2.75l2.025.55c-1.157-.824-.29-2.749-2.315-3.848.579 0 1.736.55 2.315 1.374-.29-1.924-.579-3.023-2.315-4.123h1.447c-.77-.486-1.21-1.323-1.157-2.199 0-1.1-.58-1.1-1.736-.824l-5.209.274c-2.893 0-5.786 0-8.101-1.649 3.761 1.65 8.68-1.649 8.68-4.123 0-2.749-4.05-5.497-11.574-3.848-7.522 1.65-16.781 1.1-16.781-1.374s6.655-2.75 10.127-2.2c3.472.55 5.786.825 12.152-1.374-1.447.55-6.655.825-10.706-.275-4.05-1.1-13.888-1.1-13.888 3.849 0 5.222 10.416 4.672 19.675 3.298 5.208-.55 8.102 0 8.102 1.374 0 1.65-4.92 2.2-8.68 1.925a30.402 30.402 0 0 0-11.863.824c-3.762 1.1-6.366 0-10.417.825-2.025 0-6.944 0-9.259-3.848-1.446 1.099-5.786 3.023-6.654 5.222-.868 1.65 0 3.573 1.157 5.498 1.736 2.199-.868 1.924-2.894 1.924-2.314 0-5.786 0-7.522-2.2-1.736-1.649-3.762-3.023-5.498-1.923-.868.824 0 1.649.579 1.374l2.315.55a3.022 3.022 0 0 0-2.894.275c-.868.55 0 1.649.868 1.374.579-.275 2.026-.55 2.894 0-.868 0-2.026 0-2.315.55-.29.55 0 1.1.868 1.1 1.736 0 2.025 1.099 3.761.824-.82.042-1.57.45-2.025 1.1 1.736-.825 3.183 1.099 5.208.55-.579.274-2.025 1.099-2.025 1.648 1.157-1.374 9.259 1.1 9.259-1.924l-.29 2.2c.868-.55 4.051-.825 5.208-2.75 0 .55 0 1.375-.578 1.65.868 0 2.314-.55 3.761-2.474.579-.825.579-1.375.579-1.924 1.446 0 2.315-.275 3.472-1.1 1.157-.824 2.315.825 4.34-.55 1.736-1.099 3.472 0 4.63-.55.867-.549 2.314 0 3.472-.549 1.157-.55 2.893.275 4.629-1.1 2.893 1.1 6.655 2.75 15.046 1.375 4.63-.825 6.365.824 6.365 2.749 0 1.649-1.157 1.649-1.736 1.649-2.893.275-3.761-.825-4.919-.55-.578.275-1.157 1.374 0 1.924-.868.275-.868 1.1-.289 1.375.579.274 1.447 0 2.315-.275-1.158.275-2.026 1.1-1.447 1.924.29.55 1.157.824 2.025 0 .868-1.1 2.315-1.924 3.472-1.924zm-53.817-21.99c-2.315-.825-2.893-.825-2.604 1.1 0 .824.868 1.923 1.447 2.473 0-.824.29-2.749 1.157-3.298v-.275z" fill-rule="nonzero"/><path d="M385.751 115.474c2.315-1.1 3.183-1.1 2.604.824 0 .825-.868 1.924-1.446 2.474 0-.824 0-2.749-1.158-3.298z"/><path d="M381.99 114.1c4.63 0 5.208 2.198 4.919 4.672 0 2.749-1.447 1.65-2.315 5.498-.29 1.1-1.447 1.374-2.893 1.374-.868 0-2.026 0-2.604-1.65-.869-3.573-2.315-2.748-2.315-5.497 0-2.199.578-4.398 5.208-4.398z"/><path d="M370.127 124.27c-1.157-.55-2.025 0-2.604 0 1.736.274 1.736 2.199 5.208 2.748-.868 0-1.157.55-2.025 0 1.446 1.1 2.893 2.474 6.365 2.474 2.026 0 .579.825-.579.275 1.158 1.374 3.762.275 5.498 2.749 0-1.924-2.893-4.673-1.447-6.597-4.919-.275-5.208-2.749-7.812-4.673-2.315-1.65-2.604-3.298-3.472-6.322-.29-1.374-2.025-2.2-2.893-1.924-.869 0-1.447.824-.58 1.374.58.55 1.737.55 1.737 1.924-.868-1.1-2.315-1.374-2.894-.824-.289.55 0 1.374.58 1.374 1.446 0 .578 1.65 2.025 2.749-1.447-1.375-2.605-1.65-3.473-.825-.289.55 0 1.375 1.158 1.375 1.447 0 2.893 3.298 5.208 4.123zm37.614 12.644c-.578 0-.29 1.374-1.446 1.374 2.314 0 3.76-.55 4.629-1.374l-.579 1.374c1.158-.824 4.34-1.1 5.787-.824 1.447.274 1.736-.275 2.315-1.1.578-1.1 0-1.65-.868-2.199-.868-.825-1.158-1.924-.868-3.573-4.051-5.498-11.574-2.749-11.574-.55 2.604 3.024 2.894 2.749 5.208 3.024 2.026.55 3.472.55 2.026 1.649-.579.55-2.894 0-4.34.275-3.762 0-5.787-2.474-6.655-1.1-.868 1.1 0 1.65 1.736 1.65-1.158 0-2.894 0-2.604 1.099.578 1.924 2.314-.275 3.182.275-.578 0-1.736.275-1.736.824 0 .55 1.447 1.375 2.894 0a4.803 4.803 0 0 1 2.893-.824z" fill-rule="nonzero"/></g><path d="M410.924 132.383c-1.157-.713-2.604-1.07-4.05-.713m-16.204 0c-1.157 2.853-.579 4.28-.29 5.706m-11.573-19.972c.579.714 1.158-.713 2.315.714-.29-.357-.868 1.07-1.736 0m5.787-.357c-.868 0-1.447-1.07-2.604.357.289-.357.868 1.07 1.736 0m-1.736 0v1.07c.289 2.496.868 3.566-.868 3.566-1.447 0-.868-1.07-.58-3.567v-1.07"/><path d="M381.99 124.82c1.157 0 1.736 0 1.736-1.65 0-.55.868-.824.29-1.924.578 1.1-2.026 1.1-2.026.55 0 .55-2.893.55-2.315-.55-.29 1.1.579 1.374.29 1.924 0 1.65.578 1.65 2.025 1.65z" fill="#FF0016"/><path d="M380.036 123.308l-2.386-1.65m2.386 1.65h-2.386m2.386.55l-2.148 1.649m4.057-2.2l2.385-1.649m-2.385 1.65h2.863m-2.863.55l2.385 1.649" fill="#000" fill-rule="nonzero"/><path d="M366.366 113c-.869-1.1-2.894 0-2.894 1.1.579-.825 1.736.274 2.604 0 .29 0 .868-.55.29-1.1zm-.869 2.474c-.868-1.1-3.182 0-3.182 1.1.578-.825 1.736.274 2.604 0 .29 0 .868-.825.578-1.1zm-.578 3.298c-1.158-1.1-3.183 0-2.894 1.375.58-.825 1.736 0 2.315 0 .579-.275.868-1.1.29-1.375h.289zm.868 10.17c-1.158-1.099-2.894.275-2.894 1.65.58-1.1 2.026 0 2.894-.55 0 0 .579-.825 0-1.374v.274zm0 1.925c-1.447-.275-2.894 1.649-2.026 2.748 0-1.374 1.736-.824 2.315-1.374l-.29-1.374zm1.736 1.924c-1.447-.55-2.894 1.1-2.026 2.199 0-.825 1.737-.55 2.026-1.1v-1.374.275zm33.853 3.023c-1.447-.275-2.894 1.375-2.026 2.749 0-1.374 1.736-.825 2.315-1.374l-.29-1.375zm1.736 1.65c-1.447-.275-2.604 1.649-1.736 2.748 0-1.374 1.736-1.1 2.025-1.649.29-.275.29-1.1 0-1.1h-.29zm-1.158-3.849c-1.157-.55-2.893 1.1-2.604 2.2.579-1.1 2.026-.276 2.604-.825v-1.375zm24.016 2.75c-1.158-.276-2.315 1.648-1.736 2.748 0-1.1 1.736-.825 2.314-1.375 0-.55 0-1.374-.578-1.374zm0-1.925c-1.158-.825-2.894.825-2.315 1.924.579-.825 2.025-.275 2.604-.825v-1.374l-.29.275zm1.157 3.573c-1.447 0-2.604 1.924-1.736 2.749 0-1.1 1.736-.825 2.025-1.374.29-.55 0-1.1-.289-1.375zM381.99 123.72c.868 0 1.157.275 1.157 1.924 0 2.749 0 4.398-1.157 4.398-.868 0-.868-1.374-.868-3.573 0-1.1 0-1.925-.29-1.65 0-.824.29-1.1 1.158-1.1z" fill="#0051BA" fill-rule="nonzero"/><g fill="#F9DD16"><path d="M423.845 164.584c-.862 0-.862 1.146-1.077 1.146 1.723 0 2.584-.687 3.015-1.604v1.375c1.293-.458 1.723-1.604 1.293-2.291l1.507.458c-.861-.687-.215-2.29-1.723-3.207.431 0 1.293.458 1.723 1.146-.215-1.604-.43-2.52-1.723-3.436h1.077c-.572-.405-.9-1.103-.861-1.833 0-.916-.431-.916-1.293-.687l-3.877.23c-2.154 0-4.308 0-6.031-1.375 2.8 1.374 6.462-1.375 6.462-3.436 0-2.29-3.016-4.581-8.616-3.207-5.6 1.374-12.493.916-12.493-1.145 0-2.062 4.954-2.291 7.539-1.833 2.585.458 4.308.687 9.046-1.145-1.077.458-4.954.687-7.97-.23-3.015-.915-10.338-.915-10.338 3.208 0 4.352 7.754 3.894 14.647 2.748 3.877-.458 6.03 0 6.03 1.146 0 1.374-3.66 1.832-6.461 1.603a20.304 20.304 0 0 0-8.831.687c-2.8.917-4.74 0-7.755.687-1.508 0-5.17 0-6.892-3.206-1.077.916-4.308 2.52-4.955 4.352-.646 1.374 0 2.978.862 4.581 1.292 1.832-.646 1.603-2.154 1.603-1.723 0-4.308 0-5.6-1.832-1.293-1.374-2.8-2.52-4.093-1.604-.646.688 0 1.375.43 1.146l1.724.458a2.047 2.047 0 0 0-2.154.229c-.646.458 0 1.374.646 1.145.431-.229 1.508-.458 2.154 0-.646 0-1.508 0-1.723.458-.215.459 0 .917.646.917 1.293 0 1.508.916 2.8.687a1.914 1.914 0 0 0-1.507.916c1.292-.687 2.369.916 3.877.458-.431.23-1.508.916-1.508 1.375.862-1.146 6.893.916 6.893-1.604l-.216 1.833c.647-.458 3.016-.688 3.878-2.291 0 .458 0 1.145-.431 1.374.646 0 1.723-.458 2.8-2.061.43-.687.43-1.145.43-1.604 1.078 0 1.724-.229 2.585-.916.862-.687 1.724.687 3.231-.458 1.293-.916 2.585 0 3.447-.458.646-.458 1.723 0 2.585-.458.861-.458 2.154.229 3.446-.916 2.154.916 4.954 2.29 11.2 1.145 3.447-.687 4.74.687 4.74 2.29 0 1.375-.862 1.375-1.293 1.375-2.154.229-2.8-.687-3.662-.458-.43.229-.861 1.145 0 1.603-.646.23-.646.916-.215 1.145.43.23 1.077 0 1.723-.229-.862.23-1.508.917-1.077 1.604.215.458.862.687 1.508 0 .646-.916 1.723-1.604 2.585-1.604zM383.78 146.26c-1.724-.687-2.154-.687-1.939.917 0 .687.646 1.603 1.077 2.061 0-.687.215-2.29.862-2.748v-.23z" fill-rule="nonzero"/><path d="M389.596 146.489c1.724-.917 2.37-.917 1.939.687 0 .687-.646 1.603-1.077 2.061 0-.687 0-2.29-.862-2.748z"/><path d="M386.796 145.343c3.447 0 3.877 1.833 3.662 3.894 0 2.29-1.077 1.375-1.723 4.582-.216.916-1.077 1.145-2.154 1.145-.646 0-1.508 0-1.939-1.375-.646-2.977-1.723-2.29-1.723-4.58 0-1.833.43-3.666 3.877-3.666z"/><path d="M377.965 153.819c-.862-.459-1.508 0-1.939 0 1.293.229 1.293 1.832 3.877 2.29-.646 0-.861.458-1.507 0 1.077.916 2.154 2.062 4.738 2.062 1.508 0 .431.687-.43.229.861 1.145 2.8.229 4.092 2.29 0-1.603-2.154-3.894-1.077-5.497-3.662-.23-3.877-2.29-5.816-3.894-1.723-1.375-1.938-2.749-2.584-5.269-.216-1.145-1.508-1.832-2.154-1.603-.647 0-1.077.687-.431 1.145.43.458 1.292.458 1.292 1.604-.646-.917-1.723-1.146-2.154-.687-.215.458 0 1.145.431 1.145 1.077 0 .43 1.374 1.508 2.29-1.077-1.145-1.939-1.374-2.585-.687-.215.458 0 1.146.862 1.146 1.077 0 2.154 2.748 3.877 3.436zm28.002 10.536c-.431 0-.216 1.146-1.077 1.146 1.723 0 2.8-.458 3.446-1.146l-.43 1.146c.86-.688 3.23-.917 4.307-.688 1.077.23 1.293-.229 1.723-.916.431-.916 0-1.374-.646-1.832-.646-.687-.861-1.604-.646-2.978-3.016-4.581-8.616-2.29-8.616-.458 1.939 2.52 2.154 2.29 3.877 2.52 1.508.458 2.585.458 1.508 1.374-.43.458-2.154 0-3.231.229-2.8 0-4.308-2.062-4.954-.916-.646.916 0 1.374 1.292 1.374-.861 0-2.154 0-1.938.916.43 1.604 1.723-.229 2.369.23-.43 0-1.292.228-1.292.687 0 .458 1.077 1.145 2.154 0a3.303 3.303 0 0 1 2.154-.688z" fill-rule="nonzero"/></g><path d="M408.336 163.08c-.862-.712-1.939-1.07-3.016-.712m-12.062 0c-.861 2.853-.43 4.28-.215 5.706m-8.616-19.972c.43.713.861-.713 1.723.713-.215-.356-.646 1.07-1.292 0m4.308-.356c-.647 0-1.077-1.07-1.939.356.215-.356.646 1.07 1.292 0m-1.292 0v1.07c.215 2.497.646 3.567-.646 3.567-1.077 0-.646-1.07-.431-3.567v-1.07"/><path d="M386.796 154.277c.862 0 1.293 0 1.293-1.375 0-.458.646-.687.215-1.603.43.916-1.508.916-1.508.458 0 .458-2.154.458-1.723-.458-.215.916.43 1.145.215 1.603 0 1.375.431 1.375 1.508 1.375z" fill="#FF0016"/><path d="M384.887 153.017l-1.322-1.375m1.322 1.375h-1.322m1.322.458l-1.19 1.374m2.248-1.832l1.323-1.375m-1.323 1.375h1.587m-1.587.458l1.323 1.374" fill="#000" fill-rule="nonzero"/><path d="M375.165 144.427c-.647-.916-2.154 0-2.154.916.43-.687 1.292.23 1.938 0 .216 0 .646-.458.216-.916zm-.647 2.062c-.646-.917-2.369 0-2.369.916.43-.687 1.293.229 1.939 0 .215 0 .646-.687.43-.916zm-.43 2.748c-.862-.916-2.37 0-2.154 1.146.43-.688 1.292 0 1.723 0 .43-.23.646-.917.215-1.146h.216zm.646 8.476c-.862-.917-2.154.229-2.154 1.374.43-.916 1.508 0 2.154-.458 0 0 .43-.687 0-1.146v.23zm0 1.603c-1.077-.23-2.154 1.374-1.508 2.29 0-1.145 1.292-.687 1.723-1.145l-.215-1.145zm1.292 1.603c-1.077-.458-2.154.917-1.508 1.833 0-.687 1.293-.458 1.508-.916v-1.146.23zm25.202 2.52c-1.077-.229-2.154 1.145-1.508 2.29 0-1.145 1.292-.686 1.723-1.145l-.215-1.145zm1.292 1.374c-1.077-.229-1.938 1.375-1.292 2.291 0-1.145 1.292-.916 1.508-1.374.215-.23.215-.917 0-.917h-.216zm-.861-3.206c-.862-.459-2.154.916-1.939 1.832.43-.916 1.508-.229 1.939-.687v-1.146zm17.878 2.29c-.862-.229-1.724 1.375-1.293 2.29 0-.915 1.293-.686 1.723-1.144 0-.459 0-1.146-.43-1.146zm0-1.603c-.862-.687-2.154.687-1.724 1.603.431-.687 1.508-.229 1.94-.687v-1.145l-.216.229zm.861 2.978c-1.077 0-1.938 1.603-1.292 2.29 0-.916 1.292-.687 1.508-1.145.215-.458 0-.916-.216-1.145zm-33.602-11.912c.646 0 .862.23.862 1.604 0 2.29 0 3.665-.862 3.665-.646 0-.646-1.146-.646-2.978 0-.916 0-1.603-.215-1.374 0-.688.215-.917.861-.917z" fill="#0051BA" fill-rule="nonzero"/></g></g></svg>