<svg width="800" height="480" xmlns="http://www.w3.org/2000/svg"><g fill="none" fill-rule="evenodd"><path fill="#FFF" d="M0 0h800v480H0z"/><path fill="#000" d="M0 0h800v144H0z"/><path fill="#060" d="M0 336h800v144H0z"/><path fill="#B00" fill-rule="nonzero" d="M0 168h800v144H0z"/><path d="M314.2 382.5l5.4 3 140.1-243c8.1-1.8 12.6-9.6 17.1-17.4 3-5.4 15-26.1 20.1-53.1a174 174 0 0 0-35.7 44.1c-4.5 7.8-9 15.6-6.9 23.7L314.2 382.5z" fill="#000" stroke="#000" stroke-width="3"/><path d="M314.2 382.5l5.4 3 140.1-243c8.1-1.8 12.6-9.6 17.1-17.4 3-5.4 15-26.1 20.1-53.1a174 174 0 0 0-35.7 44.1c-4.5 7.8-9 15.6-6.9 23.7L314.2 382.5z" fill="#FFF"/><path d="M485.8 382.5l-5.4 3-140.1-243c-8.1-1.8-12.6-9.6-17.1-17.4-3-5.4-15-26.1-20.1-53.1a174 174 0 0 1 35.7 44.1c4.5 7.8 9 15.6 6.9 23.7l140.1 242.7z" fill="#000" stroke="#000" stroke-width="3"/><path d="M485.8 382.5l-5.4 3-140.1-243c-8.1-1.8-12.6-9.6-17.1-17.4-3-5.4-15-26.1-20.1-53.1a174 174 0 0 1 35.7 44.1c4.5 7.8 9 15.6 6.9 23.7l140.1 242.7z" fill="#FFF"/><path d="M720.7 168H457.2c-9-24-39-72-57-72s-48 48-57 72H80v144h263.2c9 24 39 72 57 72s48-48 57-72h263.5V168z" fill="#B00"/><path d="M457 312c9-24 15-48 15-72s-6-48-15-72c-9 24-15 48-15 72s6 48 15 72m-114 0c-9-24-15-48-15-72s6-48 15-72c9 24 15 48 15 72s-6 48-15 72" fill="#000"/><g transform="translate(385 96)" fill="#FFF"><ellipse cx="15" cy="144" rx="12" ry="18"/><path d="M18 161.4s12 24 12 63-12 63-12 63v-126zm-6-34.8s-12-24-12-63 12-63 12-63v126zm0 34.8s-12 24-12 63 12 63 12 63v-126zm6-34.8s12-24 12-63-12-63-12-63v126z"/></g></g></svg>