<svg width="800" height="480" xmlns="http://www.w3.org/2000/svg"><g fill="none" fill-rule="evenodd"><path fill="#BE0027" d="M0 0h800v480H0z"/><path d="M258.906 244.781c12.75-15.562 39.281-.375 60.938-11.531-25.688 1.406-39.656-12.375-59.906-10.406 21-12.938 38.906 4.219 62.343-2.625-31.031-2.625-29.719-16.594-58.031-18.563 25.125-10.687 37.5 11.063 62.156 6.094-29.062-6.656-32.812-23.719-54.375-27.375 31.5-4.688 29.438 13.875 60.281 16.125C301 183.094 309.156 171.375 283 161.156c29.344-.656 27.375 19.688 57.188 24.938-25.5-16.125-22.407-30.844-43.313-42.375 24.844.469 27.188 25.875 52.594 33.75-22.594-17.906-16.688-33.094-36.188-49.125 24.75 5.812 21.094 27.75 46.875 41.812-19.125-21.187-11.812-36.375-28.406-53.719 23.813 7.594 14.719 28.5 39.375 48.376-14.063-23.344-5.344-38.25-19.313-57.844 22.125 11.344 11.438 32.719 31.875 53.906-9.656-23.906 0-38.719-9.843-59.906 18.937 14.062 7.687 36.844 22.969 58.594-5.625-30 7.312-34.875 3.28-61.125 14.344 17.624-1.687 35.25 9.376 61.218-1.406-29.531 14.344-36.375 11.625-60 14.156 21.188-7.969 39.656 1.312 62.344 2.344-27.938 20.719-35.25 21-57 11.25 19.969-13.125 34.406-9.187 60.938 7.969-29.25 27.562-32.813 30-52.5 6.656 23.062-20.063 33.75-18.469 59.437 7.969-25.969 32.438-29.063 37.5-48.188 3.094 24.376-21 28.782-27.844 55.782 12.656-22.031 34.875-23.813 44.813-41.25-.75 24.187-27.938 27.375-36.281 49.969 15.656-19.22 35.343-15.938 51-32.907-1.688 21.844-29.344 20.625-44.063 43.219 16.969-15.656 42.563-10.969 55.594-24.469-.657 19.313-34.594 17.813-50.625 35.156 19.687-10.875 44.812-4.5 59.25-14.53-2.625 16.874-38.438 12.937-55.594 26.25 23.625-6.563 41.906 3.468 60.938-3.75-9.282 16.405-41.813 6-59.063 16.687 20.625-3.469 42.375 9 61.031 4.969-6.093 14.25-41.812-.938-60.937 7.968 22.875-.187 37.781 14.531 59.062 13.5C529 274.22 497.688 256.5 479.406 259.5c22.313 4.688 39.375 23.063 56.25 24-13.968 10.594-39.843-13.594-60.937-10.594 21.75 5.813 39.937 30.469 52.312 31.031-13.406 9.188-39.843-21.093-57.937-19.968 22.031 9.937 32.062 35.156 46.594 38.719-17.907 5.718-35.532-27.375-54.75-28.594 22.312 14.062 23.53 35.625 40.687 45.187-18.094 4.406-30.938-33-49.969-36.187 18.281 13.406 21.094 42.187 33.188 51.187-18.375.938-25.031-38.156-43.875-43.781 16.125 13.5 12.281 42.75 24.844 55.313-19.125-4.032-16.688-38.063-36.657-49.594 14.344 18.187 7.031 43.969 16.406 58.5-18.656-7.5-10.593-38.063-28.312-55.313 9.656 19.313-.75 41.813 6.938 60.469-17.063-8.344-5.625-44.438-18.657-58.781 6 22.312-5.062 40.781-.562 60.75-17.438-20.156 2.625-40.5-12.469-61.031 3.938 23.53-12.563 40.03-9.938 59.718-13.78-16.125 7.5-41.906-3.28-62.25 2.25 23.156-19.032 43.5-17.532 58.125-11.25-18.75 12.469-40.875 6.094-62.156-1.313 22.125-22.875 34.125-26.906 54.281-7.22-22.219 18.375-38.25 16.125-60.094-7.313 20.72-28.125 29.063-35.438 49.22-6-22.22 24.375-33.938 25.125-57.188-9.375 21.75-34.219 26.625-42.469 43.312-3.094-22.031 31.688-31.875 33-52.781-11.25 20.063-38.437 20.906-47.812 36.844-1.406-21.938 35.25-24.656 40.969-47.625C319.28 297.28 289.467 295.125 277 309c1.969-20.344 41.625-21.563 48-39.938-14.813 14.25-42.188 8.438-57.656 19.688 8.625-20.063 45.844-15.844 54.187-30.281-16.406 8.531-45.562.187-60 8.812 13.125-18.937 42-7.594 58.406-20.625-26.625 3.844-42.656-6.75-61.125-1.875h.094z" fill="#FF0"/><path d="M493.75 240.094c0 51.388-41.659 93.047-93.047 93.047s-93.047-41.659-93.047-93.047c0-51.363 41.638-93 93-93 51.363 0 93 41.637 93 93h.094z" fill="#FF0"/><path d="M481.75 240.281c0 44.684-36.223 80.906-80.906 80.906-44.684 0-80.906-36.222-80.906-80.906 0-44.683 36.222-80.906 80.906-80.906 44.683 0 80.906 36.223 80.906 80.906z" fill="#BE0027"/><path d="M470.5 240.469a69.469 69.469 0 1 1-138.938 0c0-38.367 31.103-69.469 69.47-69.469 38.366 0 69.468 31.102 69.468 69.469z" fill="#FF0"/><path d="M341.875 195c19.219-.469 43.125 1.313 58.969 13.875a91.031 91.031 0 0 1 56.719-13.406l10.312 18.844A94.687 94.687 0 0 0 421 222a79.969 79.969 0 0 1 32.438 67.594c-2.532 3.187-6.563 6.656-9.094 9.844 3.75-26.72-10.313-56.532-30.844-72.188 16.688 24 26.531 45.563 23.813 75.375l-9.375 6c4.312-26.25-1.875-57.188-21.282-75 11.25 16.406 22.313 45.938 15.375 75.938-3 .937-7.687 3.468-10.687 4.312a90 90 0 0 0-10.125-73.781c-12.938 18.562-17.156 46.875-9.844 73.125-3.563-.938-6.281-2.063-9.938-2.906-5.343-28.125 2.063-60 14.907-76.594-13.125 7.594-25.406 40.031-21.938 73.125l-8.719-4.031c-4.218-24.657 6.938-56.813 22.97-75.375-18.188 11.437-33 39.656-30.47 69.937-2.812-2.438-5.343-3.656-8.156-6.188-3.187-26.437 12.188-53.062 30.094-69-15.094-6.843-28.125-8.156-46.875-7.875 2.906-6.093 5.625-13.218 8.625-19.406V195z" fill="#BE0027"/></g></svg>