<svg width="800" height="480" xmlns="http://www.w3.org/2000/svg"><g fill="none" fill-rule="evenodd"><path fill="#032EA1" d="M0 0h800v480H0z"/><path fill="#E00025" d="M0 120h800v240H0z"/><g stroke="#000"><g stroke-linejoin="bevel" fill="#FFF"><path stroke-width="1.2" d="M333.4 226.2h136.56v52.56H333.4z"/><path d="M463 255.12h4.2v19.8H463v-19.8zm-129.6-9.72h136.56v6H333.4v-6zm0-8.4h136.56v5.52H333.4V237z" stroke-width="1.2" fill-rule="nonzero"/><path stroke-width="1.08" d="M333.4 228.84h136.56V234H333.4z"/><path d="M369.4 255.12h4.32v19.8h-4.32v-19.8zm58.8 0h4.32v19.8h-4.32v-19.8zm-93.6 0h4.2v19.8h-4.2v-19.8zm8.4 0h4.2v19.8H343v-19.8zm9 0h4.2v19.8H352v-19.8zm9 0h4.2v19.8H361v-19.8zm75.36 0h4.32v19.8h-4.32v-19.8zm9 0h4.32v19.8h-4.32v-19.8zm9 0h4.32v19.8h-4.32v-19.8z" stroke-width="1.2" fill-rule="nonzero"/><path d="M280 281.4a11.16 11.16 0 0 0 5.28-6.36H517a11.16 11.16 0 0 0 5.28 6.36H280z" stroke-width="1.2"/></g><path d="M398.2 146.16s-.12-4.92 2.76-5.04c2.76 0 2.64 5.04 2.64 5.04h-5.4zm-15 65.4v-6.6c0-3.36-3.36-3.6-3.36-6 0 0-.48-3.6.48-5.28 1.32 4.8 3.6 3.96 3.6 1.92 0-1.68-1.2-3.36-3.96-7.56-.96-1.32-.36-5.52.84-7.08.48 3.6 1.08 5.4 2.64 5.4.96 0 1.68-.6 1.68-2.4 0-2.4-1.56-3.6-2.4-5.76a6 6 0 0 1 1.32-6.36c.6 3.6.48 5.04 2.04 5.04 3.24-1.08 0-5.76-.72-6.96-.72-1.32 1.2-4.08 1.2-4.08.96 3.24 1.2 3.48 2.4 3.12 1.44-.36 1.2-2.4-.48-4.08-1.08-1.2-.96-2.76.24-3.96 1.2 2.28 2.64 2.16 2.76.72l-.96-5.28h20.88l-1.08 5.16c-.24 1.44 1.68 1.8 2.88-.6 1.2 1.2 1.32 2.88.24 3.96-1.68 1.68-1.92 3.72-.48 4.08 1.2.36 1.44 0 2.4-3.12 0 0 1.8 1.8 1.2 4.08-.72 1.2-3.96 6-.72 6.96 1.56 0 1.44-1.44 2.04-5.04a6 6 0 0 1 1.2 6.36c-.72 2.16-2.4 3.36-2.4 5.76 0 1.8.84 2.4 1.8 2.4 1.56 0 2.16-1.68 2.64-5.4 1.2 1.56 1.8 5.76.84 7.2-2.76 4.08-4.08 5.76-4.08 7.44 0 2.04 2.4 2.88 3.6-1.92 1.08 1.68.6 5.28.6 5.28 0 2.4-3.24 2.64-3.36 6v6.6H383.2zm8.64-55.2l-.48-3.72h19.08l-.48 3.72h-18.12zm1.2-3.84l-.24-3H409l-.36 3h-15.6zm2.76-3.12l-.36-3.12h10.8l-.12 3.12H395.8zm39.6 132c-2.4-.84-6-3.48-6-6v-29.16l3.12-4.08H369.4l3 4.08v29.16c0 2.52-2.4 5.16-4.8 6h67.8z" stroke-width="1.2" fill="#FFF" fill-rule="nonzero"/><path d="M380.44 255.12h4.32v19.8h-4.32v-19.8zm36.48 0h4.32v19.8h-4.32v-19.8z" stroke-width="1.2" fill="#FFF" fill-rule="nonzero" stroke-linejoin="bevel"/><path d="M368.2 209.04v33.12H433v-33.12a5.04 5.04 0 0 0-3.12 3.36v14.16h-58.44V212.4s-.72-2.4-3.36-3.36h.12z" stroke-width="1.2" fill="#FFF"/><path d="M424.12 281.4c-2.16-.84-6.72-3.48-6.72-6v-32.64c.48-1.8 2.88-2.88 4.44-4.08H379c2.04 1.2 4.32 2.04 5.16 4.08v32.64c0 2.52-3.6 5.16-5.76 6h45.72z" stroke-width="1.2" fill="#FFF"/><path d="M429.88 239.04v-23.52H424v-2.28h-46.56v2.4h-6v23.4h58.44zM415 281.4c-2.16-.84-5.16-3.48-5.16-6v-27.84l1.68-2.52h-21.24l1.8 2.4v27.96c0 2.52-3.12 5.16-5.16 6H415z" stroke-width="1.2" fill="#FFF" fill-rule="nonzero"/><path stroke-width="1.2" fill="#FFF" d="M395.44 245.04h10.8v36.36h-10.8z"/><path d="M411.88 237c0-2.4 6.96-2.52 10.56-4.56h-43.2c3.6 2.04 10.44 2.16 10.44 4.56l1.44 4.68 18 .72 2.76-5.4z" stroke-width="1.2" fill="#FFF" stroke-linejoin="bevel"/><path d="M420.28 211.56c0-5.88.24-8.04 2.04-8.04V222c-4.44 1.68-7.56 7.2-7.56 7.2h-27.84s-3.12-5.52-7.56-7.2v-18.6c2.16 0 2.16 2.4 2.16 8.04l38.76.12zm2.04-2.4c0-6.72 5.88-7.44 5.88-7.44v6c-2.28-.12-3.36 1.92-3.36 4.8 0 3 1.8 3 1.8 3v17.04h-4.32v-23.4z" stroke-width="1.2" fill="#FFF" fill-rule="nonzero"/><path d="M379.36 209.16c0-6.72-5.88-7.44-5.88-7.44v6c2.28-.12 3.36 1.92 3.36 4.8 0 3-1.8 3-1.8 3v17.04h4.32v-23.4z" stroke-width="1.2" fill="#FFF"/><path d="M390.76 162.72h20.64m-23.04 6.48h25.2m-27.6 7.8h29.88m-32.4 9.48h35.4m-36.24 10.8h36.48" stroke-width=".96"/><path d="M371.56 232.8h58.32-58.32zm18.48 0h21.6v7.92h-21.6v-7.92z" stroke-width="1.2"/><path d="M387.4 215.04c3.6 4.32 3.12 11.64 3.12 15.96h20.88c0-4.32-.48-11.64 3.12-15.96H387.4zm11.64-49.2l-2.88-1.56v-4.2c1.2.36 2.4.48 2.64 2.4.36-2.76 1.2-2.52 2.28-3.6 1.2 1.08 1.8.84 2.28 3.6 0-1.92 1.44-2.04 2.52-2.4v4.2l-2.76 1.44-4.08.12z" stroke-width="1.2" fill="#FFF" fill-rule="nonzero"/><path d="M398.8 172.68l-4.8-3.36v-3.72c1.8.36 3.6.6 3.84 2.64.48-3 1.56-4.44 3.24-5.64 1.56 1.2 2.64 2.64 3.24 5.64.12-2.04 2.04-2.28 3.6-2.64v3.84l-4.68 3.24h-4.44z" stroke-width="1.2" fill="#FFF"/><path d="M398.44 183.36l-5.4-4.8v-5.64c1.92.48 4.08.72 4.32 3.72.6-4.2 1.8-6.48 3.6-8.16 1.92 1.68 3.12 3.96 3.84 8.16.24-3 2.4-3.24 4.32-3.72v5.64l-5.52 4.8h-5.16zm10.08 6.36l-4.8 6.84h-5.64l-4.92-6.84h15.36zm-18.24 11.4c2.4 1.32 3.36 4.08 3.6 9.12h13.92c.24-5.04 1.2-7.8 3.6-9.12h-21.12z" stroke-width="1.2" fill="#FFF" fill-rule="nonzero"/><path d="M411.64 189.6v-6.72a6.24 6.24 0 0 0-4.56 3.96c0-2.4-3-7.56-6.24-10.2-3.24 2.88-6.36 7.68-6.24 10.08-.6-1.8-2.16-3.24-4.56-3.84v6.84l21.6-.12z" stroke-width="1.2" fill="#FFF" stroke-linejoin="bevel"/><path d="M412.6 201.12v-6.72c-2.52.72-4.2 2.04-4.92 3.96 0-2.4-3.24-7.56-6.84-10.2-3.6 3-6.96 7.68-6.84 10.2-.6-1.8-2.4-3.24-4.92-3.96v6.84l23.52-.12z" stroke-width="1.2" fill="#FFF" stroke-linejoin="bevel"/><path d="M415.48 215.16v-7.92a11.52 11.52 0 0 0-6.12 4.56c0-4.2-4.8-10.8-8.52-12.84-3.84 2.16-8.52 8.88-8.52 12.84a11.64 11.64 0 0 0-6.24-4.56v7.92h29.4z" stroke-width="1.2" fill="#FFF" stroke-linejoin="bevel"/><path d="M413.8 232.8v-8.16c-2.88 1.08-3.6 3.72-4.56 5.64.36-8.28-4.56-17.04-8.4-19.32-3.84 2.28-8.88 11.28-8.4 19.2-.96-1.68-1.8-4.44-4.56-5.52v8.04l25.92.12z" stroke-width="1.2" fill="#FFF" stroke-linejoin="bevel"/><path d="M411.88 245.04v-8.16c-3 .72-3.12 1.8-4.08 3.6.36-4.92-3.12-10.56-6.96-12.72-3.84 2.16-7.2 7.8-6.96 12.72-.96-1.8-1.08-2.88-4.08-3.6v8.16h22.08z" stroke-width="1.2" fill="#FFF"/><g fill="#FFF" stroke-width="1.2"><path d="M285.4 275.04v-24.48c-.84-3.12-3.6-6-5.52-6.48v-21.6l4.44 2.4 5.16 22.68v27.6l-4.08-.12z"/><path d="M285.4 275.16v-24.6c-.84-3.12-3.6-6-5.52-6.48v-23.04c3 0 4.44 3.84 4.44 3.84l5.16 22.68v27.48l-4.08.12z"/><path d="M282.16 281.4c2.04-.84 5.04-3.48 5.04-6v-30.72l-1.44-2.4h52.44l-2.04 2.4v30.72a7.2 7.2 0 0 0 4.08 6h-58.08z"/><path d="M329.56 281.4c-2.04-.84-5.04-3.48-5.04-6v-29.16l4.32-4.08h-35.52l4.32 4.08v29.16c0 2.52-3 5.16-5.04 6h36.96z"/><path d="M324.64 281.4c-2.04-.84-5.16-3.48-5.16-6V249l2.88-3.96H299.8l2.88 3.96v26.4c0 2.52-3 5.16-5.16 6h27.12z"/><path d="M305.8 245.04h10.68v36.48h-10.8z"/><path d="M291.04 255.12h4.32v19.8h-4.32v-19.8zm36.96 0h4.2v19.8h-4.32l.12-19.8zm-40.68-33.36h5.28v20.4h-5.28v-20.4zm0-3.84h5.16v3.84h-5.16v-3.84zm42.72 8.28h7.32v15.6h-7.32v-15.6z" fill-rule="nonzero" stroke-linejoin="bevel"/><path d="M292.48 241.92v-34.8c1.44 0 1.68 5.16 5.04 5.16 1.8 0 1.68-2.16.6-3.84-.84-1.56-1.92-3.6-.48-7.56 1.08 3 3.72 3.96 3.24 2.16-.84-3.24-3.36-3.84-1.44-8.76.6 4.08 3.24 3.96 2.64 1.56-.72-2.76-2.28-3.96-.36-7.8 1.08 4.44 2.4 4.2 2.4 1.44 0-4.08 0-8.4 5.04-9.96 0 0 .36-3.6 2.28-3.6 1.8 0 2.16 3.6 2.16 3.6 5.16 1.56 5.04 6 5.04 9.96 0 2.76 1.32 3 2.4-1.44 1.92 3.84.36 5.04-.36 7.8-.6 2.4 2.04 2.52 2.64-1.56 1.92 4.92-.6 5.52-1.44 8.76-.48 1.8 2.16.84 3.24-2.16 1.44 3.96.36 6-.48 7.56-.96 1.68-1.2 3.84.6 3.84 3.36 0 3.6-5.04 5.04-5.04v34.68h-37.8zm-8.28-26.28v26.52h3v-26.52c-1.08-.6-2.04-.6-3 0z" fill-rule="nonzero"/><path d="M284.44 232.8c3.72 1.92 7.44 4.2 8.4 9.36h-8.4v-9.36zm51.84-7.92v17.28h2.4v-17.28c-.72-.36-1.8-.48-2.4 0z" fill-rule="nonzero"/><path d="M338.68 232.8c-3.72 1.8-7.44 3.96-8.4 9.24h8.4v-9.24zm-24.72-40.44l2.16-1.8v-2.4c-.72 0-1.2.36-1.8 1.2a6 6 0 0 0-3-3.6 6 6 0 0 0-3.12 3.48c-.6-.84-.96-.96-1.8-1.2v2.4l2.16 1.92h5.4z" fill-rule="nonzero"/><path d="M315.16 198.24l.96-2.28v-3c-.72 0-1.2.36-1.8 1.2a6 6 0 0 0-3-3.6 6 6 0 0 0-3.12 3.48c-.6-.84-.96-.96-1.8-1.08v3l.96 2.28h7.8z"/><path d="M315.4 206.16l3.12-3.96v-3.84c-1.2 0-1.8.6-2.64 1.92-.84-2.76-2.4-3.24-4.56-4.56-2.28 1.2-3.84 1.8-4.56 4.44-.96-1.32-1.56-1.68-2.76-1.8v3.84l3.24 3.96h8.16z"/><path d="M316.24 213.96s3.84-3.24 3.96-5.04v-4.2c-1.44.12-2.76.48-3.84 2.28-.96-3.48-2.4-4.44-5.04-6-2.76 1.56-4.2 2.52-5.04 6-1.2-1.8-2.4-2.16-3.96-2.4v4.32a18 18 0 0 0 3.96 5.04h9.96z"/><path d="M317.8 228.36s5.28-5.64 5.4-7.92v-6.48c-1.92.24-3.84 1.56-5.28 4.32-1.2-5.4-3.12-9.12-6.6-11.76-3.6 2.64-5.52 6.36-6.72 11.76-1.44-2.76-3.24-4.08-5.16-4.32v6.48c.36 2.28 5.28 7.92 5.28 7.92h13.08z"/><path d="M317.8 236.88s4.44-4.44 5.4-6.36v-6.48c-1.92.24-3.84 1.56-5.28 4.2a16.8 16.8 0 0 0-6.6-11.04c-3.6 2.64-5.52 5.64-6.72 11.04-1.44-2.64-3.24-3.96-5.16-4.2v6.48c1.2 1.92 5.28 6.36 5.28 6.36h13.08z"/><path d="M319.6 241.92c-1.2-5.64-2.4-9.84-8.52-14.04-6.24 4.2-7.32 8.4-8.64 14.04h17.16z"/><path d="M322.84 245.04v-8.16c-2.88 1.2-5.4 2.76-6.36 4.56-.96-4.56-3-6.48-5.52-9.24-2.52 2.76-4.2 4.8-5.28 9.24-.96-1.8-3.48-3.48-6.24-4.56v8.16h23.4z"/></g><g fill="#FFF" stroke-width="1.2"><path d="M516.64 275.04v-24.48c.84-3.12 3.6-6 5.52-6.48v-21.6l-4.44 2.4-5.16 22.68v27.6l4.08-.12z"/><path d="M516.64 275.16v-24.6c.84-3.12 3.6-6 5.52-6.48v-23.04c-3 0-4.44 3.84-4.44 3.84l-5.16 22.68v27.48l4.08.12z"/><path d="M519.88 281.4c-2.04-.84-5.04-3.48-5.04-6v-30.72l1.44-2.4h-52.44l2.04 2.4v30.72a7.2 7.2 0 0 1-4.08 6h58.08z"/><path d="M472.48 281.4c2.04-.84 5.04-3.48 5.04-6v-29.16l-4.32-4.08h35.52l-4.32 4.08v29.16c0 2.52 3 5.16 5.04 6h-36.96z"/><path d="M477.4 281.4c2.04-.84 5.16-3.48 5.16-6V249l-2.88-3.96h22.56l-2.88 3.96v26.4c0 2.52 3 5.16 5.16 6H477.4z"/><path d="M496.24 245.04h-10.68v36.48h10.8z"/><path d="M511 255.12h-4.32v19.8H511v-19.8zm-36.96 0h-4.2v19.8h4.32l-.12-19.8zm40.68-33.36h-5.28v20.4h5.28v-20.4zm0-3.84h-5.16v3.84h5.16v-3.84zM472 226.2h-7.32v15.6H472v-15.6z" fill-rule="nonzero" stroke-linejoin="bevel"/><path d="M509.56 241.92v-34.8c-1.44 0-1.68 5.16-5.04 5.16-1.8 0-1.68-2.16-.6-3.84.84-1.56 1.92-3.6.48-7.56-1.08 3-3.72 3.96-3.24 2.16.84-3.24 3.36-3.84 1.44-8.76-.6 4.08-3.24 3.96-2.64 1.56.72-2.76 2.28-3.96.36-7.8-1.08 4.44-2.4 4.2-2.4 1.44 0-4.08 0-8.4-5.04-9.96 0 0-.36-3.6-2.28-3.6-1.8 0-2.16 3.6-2.16 3.6-5.16 1.56-5.04 6-5.04 9.96 0 2.76-1.32 3-2.4-1.44-1.92 3.84-.36 5.04.36 7.8.6 2.4-2.04 2.52-2.64-1.56-1.92 4.92.6 5.52 1.44 8.76.48 1.8-2.16.84-3.24-2.16-1.44 3.96-.36 6 .48 7.56.96 1.68 1.2 3.84-.6 3.84-3.36 0-3.6-5.04-5.04-5.04v34.68h37.8zm8.28-26.28v26.52h-3v-26.52c1.08-.6 2.04-.6 3 0z" fill-rule="nonzero"/><path d="M517.6 232.8c-3.72 1.92-7.44 4.2-8.4 9.36h8.4v-9.36zm-51.84-7.92v17.28h-2.4v-17.28c.72-.36 1.8-.48 2.4 0z" fill-rule="nonzero"/><path d="M463.36 232.8c3.72 1.8 7.44 3.96 8.4 9.24h-8.4v-9.24zm24.72-40.44l-2.16-1.8v-2.4c.72 0 1.2.36 1.8 1.2a6 6 0 0 1 3-3.6 6 6 0 0 1 3.12 3.48c.6-.84.96-.96 1.8-1.2v2.4l-2.16 1.92h-5.4z" fill-rule="nonzero"/><path d="M486.88 198.24l-.96-2.28v-3c.72 0 1.2.36 1.8 1.2a6 6 0 0 1 3-3.6 6 6 0 0 1 3.12 3.48c.6-.84.96-.96 1.8-1.08v3l-.96 2.28h-7.8z"/><path d="M486.64 206.16l-3.12-3.96v-3.84c1.2 0 1.8.6 2.64 1.92.84-2.76 2.4-3.24 4.56-4.56 2.28 1.2 3.84 1.8 4.56 4.44.96-1.32 1.56-1.68 2.76-1.8v3.84l-3.24 3.96h-8.16z"/><path d="M485.8 213.96s-3.84-3.24-3.96-5.04v-4.2c1.44.12 2.76.48 3.84 2.28.96-3.48 2.4-4.44 5.04-6 2.76 1.56 4.2 2.52 5.04 6 1.2-1.8 2.4-2.16 3.96-2.4v4.32a18 18 0 0 1-3.96 5.04h-9.96z"/><path d="M484.24 228.36s-5.28-5.64-5.4-7.92v-6.48c1.92.24 3.84 1.56 5.28 4.32 1.2-5.4 3.12-9.12 6.6-11.76 3.6 2.64 5.52 6.36 6.72 11.76 1.44-2.76 3.24-4.08 5.16-4.32v6.48c-.36 2.28-5.28 7.92-5.28 7.92h-13.08z"/><path d="M484.24 236.88s-4.44-4.44-5.4-6.36v-6.48c1.92.24 3.84 1.56 5.28 4.2a16.8 16.8 0 0 1 6.6-11.04c3.6 2.64 5.52 5.64 6.72 11.04 1.44-2.64 3.24-3.96 5.16-4.2v6.48c-1.2 1.92-5.28 6.36-5.28 6.36h-13.08z"/><path d="M482.44 241.92c1.2-5.64 2.4-9.84 8.52-14.04 6.24 4.2 7.32 8.4 8.64 14.04h-17.16z"/><path d="M479.2 245.04v-8.16c2.88 1.2 5.4 2.76 6.36 4.56.96-4.56 3-6.48 5.52-9.24 2.52 2.76 4.2 4.8 5.28 9.24.96-1.8 3.48-3.48 6.24-4.56v8.16h-23.4z"/></g><path d="M253.84 311.16H548.2v15H253.84v-15zm-7.8 15H556v15H246.04v-15zm23.28-37.56H532.6v9.72H269.32v-9.72z" stroke-width="1.2" fill="#FFF" fill-rule="nonzero"/><path d="M261.64 298.32h278.88v12.72H261.64v-12.72zm12.24-17.16h254.4v7.44h-254.4v-7.44z" stroke-width="1.2" fill="#FFF" fill-rule="nonzero"/><path stroke-width="1.2" fill="#FFF" d="M301.48 281.16h19.2v60h-19.2z"/><path d="M305.8 281.16h10.68v60h-10.8l.12-60zm85.2 0h19.2v60H391v-60z" stroke-width="1.2" fill="#FFF" fill-rule="nonzero"/><path d="M395.44 281.16h10.8v60h-10.8v-60zm85.8 0h19.2v60h-19.2v-60z" stroke-width="1.2" fill="#FFF" fill-rule="nonzero"/><path stroke-width="1.2" fill="#FFF" d="M485.44 281.16h10.8v60h-10.8z"/><path d="M285.4 275.04H517M305.56 333.6h11.04m-11.04-7.56h11.04m-11.04-7.44h11.04m-11.04-7.56h11.04m-11.04-7.44h11.04m-11.04-7.56h11.04m-11.04-7.44h11.04m78.96 45h10.32m-10.32-7.56h10.32m-10.32-7.44h10.32m-10.32-7.56h10.32m-10.32-7.44h10.32m-10.32-7.56h10.32m-10.32-7.44h10.32m79.44 45h11.04m-11.04-7.56h11.04m-11.04-7.44h11.04m-11.04-7.56h11.04m-11.04-7.44h11.04m-11.04-7.56h11.04m-11.04-7.44h11.04" stroke-width="1.2"/></g></g></svg>