<svg width="800" height="480" xmlns="http://www.w3.org/2000/svg"><g fill="none" fill-rule="evenodd"><path fill="#E73E2D" d="M0 0h800v287.344H0z"/><path d="M351.93 264.469c-18.417-14.25-52.784-9.375-58.48-48.094 26.297 20.156 21.55-1.125 60.759 18.094l-2.279 30z" stroke="#D8AA3F" stroke-width="1.594" fill="#FEC74A"/><path d="M356.867 246.938c-13.196-19.125-47.468-24.938-40.823-63.47 18.893 27.095 20.886 5.345 52.405 35.532l-11.582 27.938z" stroke="#D8AA3F" stroke-width="1.594" fill="#FEC74A"/><path d="M362.848 234.375c-4.747-22.594-34.177-40.875-13.101-74.063 6.835 32.25 17.088 12.938 34.557 52.688l-21.456 21.375z" stroke="#D8AA3F" stroke-width="1.594" fill="#FEC74A"/><path d="M376.614 222.75c2.563-22.969-19.747-49.313 10.538-74.438-3.418 32.72 12.342 17.532 16.614 60.563l-27.152 13.875z" stroke="#D8AA3F" stroke-width="1.594" fill="#FEC74A"/><path d="M388.956 213.469c11.772-19.969 2.373-52.969 40.443-63.656-16.71 28.406 3.987 20.906-9.969 61.875l-30.474 1.78z" stroke="#D8AA3F" stroke-width="1.594" fill="#FEC74A"/><path d="M406.709 215.906c17.658-15.187 19.367-49.5 58.86-47.719-24.968 21.75-2.847 21.094-29.43 55.688l-29.43-7.969z" stroke="#D8AA3F" stroke-width="1.594" fill="#FEC74A"/><path d="M422.468 224.906c21.361-9.469 33.133-41.719 70.348-28.594-30.38 13.594-9.019 19.407-44.62 44.72l-25.728-16.126z" stroke="#D8AA3F" stroke-width="1.594" fill="#FEC74A"/><path d="M435.665 239.063c23.164-3.188 43.67-30.938 75.664-7.875-32.943 4.593-14.24 16.03-55.538 30.468l-20.126-22.687v.094z" stroke="#D8AA3F" stroke-width="1.594" fill="#FEC74A"/><path stroke="#D8AA3F" stroke-width="1.594" fill="#FEC74A" d="M518.26 243.375l-106.425 2.344 4.462 28.312z"/><path stroke="#D8AA3F" stroke-width="1.594" fill="#FEC74A" d="M502.595 204.75l-98.544 37.406 16.424 31.219 82.12-68.625z"/><path stroke="#D8AA3F" stroke-width="1.594" fill="#FEC74A" d="M424.367 263.156l50.981-91.5-78.228 71.906z"/><path stroke="#D8AA3F" stroke-width="1.594" fill="#FEC74A" d="M423.323 255.563L439.652 153l-51.076 91.125z"/><path stroke="#D8AA3F" stroke-width="1.594" fill="#FEC74A" d="M417.152 247.219l-17.089-103.313-18.987 103.781z"/><path stroke="#D8AA3F" stroke-width="1.594" fill="#FEC74A" d="M408.323 238.406l-49.652-86.25 18.987 104.813z"/><path stroke="#D8AA3F" stroke-width="1.594" fill="#FEC74A" d="M400.633 237.75l-76.994-64.219 54.684 91.875 22.31-27.656z"/><path stroke="#D8AA3F" stroke-width="1.594" fill="#FEC74A" d="M296.582 205.219l82.595 67.406 12.722-35.25z"/><path stroke="#D8AA3F" stroke-width="1.594" fill="#FEC74A" d="M378.323 244.594l-97.12-1.406 96.74 31.875.38-30.47z"/><path d="M457.12 261.75c.863 21.102-10.045 40.977-28.421 51.781-18.376 10.805-41.269 10.805-59.644 0-18.376-10.804-29.285-30.679-28.422-51.781 1.262-30.862 26.965-55.24 58.244-55.24 31.278 0 56.981 24.378 58.243 55.24z" stroke="#D8AA3F" stroke-width="1.594" fill="#FEC74A"/><path fill="#005989" d="M.095 284.438H800V480H0z"/><path d="M.38 425.625c14.822 6.75 36.105 23.719 58.907 23.719 38.005-.281 38.955-25.688 77.53-24.469 38.67.938 31.64 27.75 83.8 27.656 43.136-.187 57.008-32.531 94.252-28.687 27.554-1.406 38.765 30.656 81.045 31.125 43.896.937 59.953-34.969 87.411-31.969 29.454 0 38.955 28.875 80.095 29.063 52.447.28 61.663-30 94.347-28.125 23.373-.47 41.805 22.218 76.01 22.78 27.173.47 50.071-19.874 65.558-27.187l.665-34.5c-16.152 5.906-40.285 25.406-64.323 25.594-34.774 1.313-56.152-22.5-80.285-22.219-28.884.281-40.38 29.344-89.311 29.344-44.846 0-55.107-29.344-83.99-29.344-28.22.188-36.865 31.875-85.796 31.313-39.905-.469-55.392-30.281-83.61-30-29.93 0-60.809 28.969-94.063 27.562-45.605-1.875-55.582-27.562-85.51-27.562-22.328 0-46.556 24-73.445 24.375-26.793.469-56.912-23.906-59.667-24.375l.38 35.906zm0-68.438C15.202 364.031 36.485 381 59.287 381c38.005-.281 38.955-25.688 77.53-24.563 38.67.938 31.64 27.844 83.8 27.657 43.136 0 57.008-32.438 94.252-28.594 27.554-1.406 38.765 30.656 81.045 31.031 43.896.938 59.953-34.875 87.411-31.875 29.454 0 38.955 28.875 80.095 29.063 52.447.281 61.663-30 94.347-28.125 23.373-.469 41.805 22.219 76.01 22.781 27.173.469 50.071-19.875 65.558-27.188l.665-34.5c-16.152 5.907-40.285 25.313-64.323 25.594-34.774 1.219-56.152-22.5-80.285-22.219-28.884.282-40.38 29.344-89.311 29.344-44.846 0-55.107-29.344-83.99-29.344-28.22.188-36.865 31.875-85.796 31.313-39.905-.469-55.392-30.281-83.61-30-29.93 0-60.809 28.875-94.063 27.469-45.605-1.875-55.582-27.563-85.51-27.563-22.328 0-46.556 24.094-73.445 24.469-26.793.375-56.912-23.906-59.667-24.375l.38 35.906v-.094zm0-67.687c14.822 6.844 36.105 23.813 58.907 23.813 38.005-.282 38.955-25.688 77.53-24.563 38.67.938 31.64 27.844 83.8 27.656 43.136 0 57.008-32.437 94.252-28.594 27.554-1.406 38.765 30.657 81.045 31.032 43.896.937 59.953-34.875 87.411-31.875 29.454 0 38.955 28.875 80.095 29.062 52.447.281 61.663-30 94.347-28.125 23.373-.469 41.805 22.219 76.01 22.781 27.173.47 50.071-19.875 65.558-27.187L800 249c-16.152 5.906-40.285 25.313-64.323 25.594-34.774 1.219-56.152-22.5-80.285-22.219-28.884.281-40.38 29.344-89.311 29.344-44.846 0-55.107-29.344-83.99-29.344-28.22.188-36.865 31.875-85.796 31.313-39.905-.47-55.392-30.282-83.61-30-29.93 0-60.809 28.875-94.063 27.468-45.605-1.875-55.582-27.562-85.51-27.562-22.328 0-46.556 24.094-73.445 24.469-26.793.375-56.912-23.907-59.667-24.375l.38 35.906v-.094z" fill="#FFF"/><path d="M287.848 71.25c57.911-3.938 47.468-8.813 70.728-12.563 29.43 4.032 32.753 21.563 49.177 32.344 0 0-6.17 20.625-26.297 17.719-2.753-8.25 9.683-10.875-26.108-32.438-20.886-1.218-58.196 3.657-67.405-5.062h-.095zm179.715 31.781l-41.772 1.688v10.219c28.196.937 33.228-2.813 41.772-11.907z" stroke="#D8AA3F" stroke-width="1.688" fill="#FFC84B"/><path d="M323.924 101.25c7.31-3.656 10.918-2.156 17.279-2.344 4.272 7.781 8.354 8.438 17.848 9.375 8.524 12.475 22.644 20.093 37.88 20.438 28.385-.75 37.404-20.344 56.487-22.5h20.126c-3.322-5.625-5.98-8.906-13.29-9.281-15-.75-34.368-.376-51.267 3.374l-23.829 5.907c-7.025-3.375-24.019-21-34.936-20.625-6.361 1.687-6.361 3.844-9.494 6.281-6.171 2.625-12.342 1.313-16.804 9.375z" stroke="#D8AA3F" stroke-width="1.594" fill="#FFC84B" stroke-linejoin="round"/><path d="M352.69 92.813a2.984 2.984 0 0 1-1.32 3.033 3.07 3.07 0 0 1-3.342 0 2.984 2.984 0 0 1-1.32-3.034c.26-1.43 1.52-2.471 2.991-2.471 1.472 0 2.732 1.041 2.99 2.472z" stroke="#D8AA3F" stroke-width="1.594" fill="#FFC84B"/><path d="M372.152 101.063c42.626-50.72 79.842-44.532 128.45-48 1.613 5.906.949 14.718-22.121 22.5-31.709 4.687-88.386 37.687-88.67 37.687-10.539-.563-17.944-11.438-17.66-12.188z" stroke="#D8AA3F" stroke-width="1.688" fill="#FFC84B"/><path d="M459.778 67.969l31.425 1.406m-34.842 3.75L479.24 75" stroke="#D9A43E" stroke-width="1.688" stroke-linecap="round"/></g></svg>