<svg width="800" height="480" xmlns="http://www.w3.org/2000/svg"><g fill="none" fill-rule="evenodd"><path fill="#FF0" d="M0 0h800v120H0z"/><path fill="#FFF" d="M0 120h800v120H0z"/><path fill="#BE0027" d="M0 240h800v120H0z"/><path fill="#3B5AA3" d="M0 360h800v120H0z"/><path fill="#239E46" d="M0 0v480l358.031-239.344z"/><path d="M147.375 132.563c-79.688-4.032-116.156 59.53-116.063 108.656-.187 58.125 54.938 105.937 105.75 103.125-27.375-12.938-60.937-49.406-61.125-103.406-.28-48.844 27.657-91.407 71.532-108.375h-.094z" fill="#FFF"/><path d="M146.25 184.688l-11.25-8.72-13.688 4.313 4.876-13.5-8.25-11.625 14.25.563 8.437-11.531 4.031 13.78 13.5 4.5-11.812 7.97-.094 14.25zm-.281 48.843l-11.25-8.812-13.688 4.312L126 215.625 117.656 204l14.344.469 8.438-11.438 3.937 13.688 13.594 4.594-11.906 7.968-.094 14.25zm.187 49.313l-11.25-8.813-13.594 4.313 4.876-13.406-8.25-11.625 14.25.468 8.437-11.437 4.031 13.687 13.5 4.5-11.812 8.063-.188 14.25zm-.187 49.687l-11.25-8.719-13.781 4.313 4.968-13.5L117.562 303l14.344.563 8.438-11.532 3.937 13.781 13.594 4.5-11.906 7.97v14.25z" fill="#FFF" fill-rule="nonzero"/></g></svg>