<svg width="800" height="480" xmlns="http://www.w3.org/2000/svg"><g fill="none" fill-rule="evenodd"><path fill="#FFE900" d="M1.297.188h797.406V479.53H1.297z"/><path fill="#35A100" d="M.865.188L1.73 345.75 622.27 0z"/><path fill="#C70000" d="M799.676 479.531l-1.514-359.25-625.946 359.531z"/><path fill="#000" d="M1.19 371.813L1.73 480l135.46-.188L798.485 95.344l-.648-94.031L664 .188 1.297 371.813z"/><path d="M529.081 146.813l-10.595-39.563 36 25.313 41.082-23.063-18.811 38.719 36.108 25.312-47.784-1.406-18.703 38.719-10.702-39.563L488 169.875l41.081-23.063zM231.568 314.625l-10.703-39.656 36 25.312 41.08-23.062-18.81 38.719 36.108 25.312-47.675-1.406-18.811 38.719L238.162 339l-47.676-1.406 41.082-22.969z" fill="#FFF" fill-rule="nonzero"/></g></svg>