<svg width="802" height="482" xmlns="http://www.w3.org/2000/svg"><g fill="none" fill-rule="evenodd"><path stroke="#000" stroke-width=".938" fill="#FFF" d="M801 481H1V1h800z"/><path fill="#3E5698" d="M801 393.97H1v86.554h800z"/><path fill="#C60000" d="M801 373.945H1v-265h800z"/><path fill="#3E5698" d="M801 1H1v86.462h800z"/><path d="M381.228 241.445c0 59.419-49.697 107.61-111.209 107.61S158.81 300.863 158.81 241.444c0-59.419 49.697-107.422 111.209-107.422 61.418 0 111.209 48.097 111.209 107.516v-.094.001z" fill="#FFF"/><path fill="#C40000" d="M238.044 255.107l-53.448-38.084 66.576-.188 21.285-62.132 19.785 61.852 66.575-.375-54.291 38.553 19.972 61.851L271.05 278.5l-54.385 38.646z"/></g></svg>