<svg width="800" height="480" xmlns="http://www.w3.org/2000/svg"><g fill="none" fill-rule="evenodd"><path fill="#FFF" d="M800 480H0V0h800z"/><path d="M537.644 240.181c0 75.938-60.938 137.625-136.219 137.625-75.281 0-136.125-61.687-136.125-137.625 0-75.937 60.938-137.719 136.219-137.719 75.281 0 136.125 61.782 136.125 137.72z" fill="#C70000"/><path d="M123.3 112.119l78.375-90.656 18.656 16.03-78.468 90.75L123.3 112.12zm25.688 22.219l78.375-90.657 18.656 15.938-78.469 90.844-18.563-16.125z" fill="#000" fill-rule="nonzero"/><path fill="#000" d="M123.3 112.119l78.375-90.656 18.656 16.03-78.468 90.75z"/><path d="M123.3 112.119l78.375-90.656 18.656 16.03-78.468 90.75L123.3 112.12zm51.938 45l78.375-90.844L272.269 82.4 193.8 173.15l-18.563-16.031z" fill="#000" fill-rule="nonzero"/><path fill="#000" d="M123.3 112.119l78.375-90.656 18.656 16.03-78.468 90.75z"/><path d="M123.3 112.213l78.375-90.657 18.656 16.031-78.468 90.75-18.563-16.124zm477-90.75l77.813 91.312-18.75 15.938L581.55 37.4l18.75-15.938zm-52.219 44.53l77.813 91.313-18.75 15.938L529.33 81.93l18.75-15.937z" fill="#000" fill-rule="nonzero"/><path fill="#FFF" d="M560.487 119.025l73.5-63.563L647.77 71.4l-78.75 70.688-8.719-23.063z"/><path d="M651.206 342.431l-75.375 89.813-18.469-15.375 75.375-89.813 18.47 15.375zm-77.25-298.969l77.813 91.313-18.657 15.938-77.718-91.407 18.562-15.843zM676.8 363.712l-75.469 89.813-18.562-15.375 75.468-89.813 18.563 15.375zm-51.656-42.937l-75.375 89.813-18.469-15.376 75.375-89.812 18.469 15.375z" fill="#000" fill-rule="nonzero"/><path d="M267.09 215.56c4.312 34.687 10.593 73.312 63.937 77.25 19.969 1.219 58.875-4.688 72.187-59.25 17.625-52.313 70.313-67.313 106.22-39 20.53 13.312 26.155 34.406 27.468 50.344-1.594 50.625-30.844 94.687-68.25 114.375-43.125 25.593-102.75 26.156-154.969-12.657-23.531-22.03-56.437-62.812-46.594-131.062z" fill="#3D5897"/><path fill="#FFF" d="M577.956 341.462l73.688 63.375-13.688 15.938-81.656-67.313 21.563-12z"/><path fill="#000" d="M167.05 328.462l77.813 91.22-18.75 15.937L148.3 344.4z"/><path fill="#FFF" d="M154.3 404.119l73.688-63.657 13.78 15.938-78.75 70.781-8.718-23.156z"/><path d="M193.269 306.462l77.812 91.22-18.75 15.937L174.52 322.4l18.75-15.938zm-52.219 44.532l77.813 91.218-18.75 15.938-77.813-91.219 18.75-15.937z" fill="#000" fill-rule="nonzero"/></g></svg>