<svg width="800" height="480" xmlns="http://www.w3.org/2000/svg"><g fill="none" fill-rule="evenodd"><path fill="#6FDCFF" d="M0 0h800v480H0z"/><g fill="#FFE400"><path d="M60.2 467c3.3 3.2 2.2 8.5 11.3 7.8 13.8 0 14.2-8.4 14.2-14.3S65 446.4 64 437.7c-1-8.7 4.8-11 9.6-11 4.7 0 8 2.7 8 5.1 0 2.4-2.2 3.2-5.6 3.2-3.4 0 1.5-1.7-1.4-3s-4.8 2-4.8 4c0 2.2 7.2 2.8 12 1.3 1 4.7 1.4 5-5.3 13 4.8-3.1 5.2-3.8 10.5-2-5.3-4.6-1.3-13.8-1.2-16.1.1-2.3-1-5.1-3-6.5-3.9-3.5-12.2-3.7-17.2-1.4-7.3 3.2-7.7 12.8-5.8 16L80 460.7c1.4 2.4 2 9.2-6.6 9.5-9 .7-12.2-11.6-13.8-15.7-2.1 4.5-4.5 16.8-13.6 16.1-8.6-.3-10.2-7-8.8-9.5l20.7-21c2-3.2 1.6-12.8-5.7-16-5-2.3-13.3-2-17.1 1.4-2.2 1.4-3.4 4.1-3.2 6.5.2 2.4 4.1 11.5-1.1 16 5.2-1.7 5.7-1 10.5 2-6.7-7.9-6.2-8.2-5.3-13 4.8 1.6 12 1 12-1.1s-2-5.6-4.9-4.2c-2.8 1.4 2 3.1-1.4 3.1-3.3 0-5.7-.7-5.7-3s3.3-5.3 8.1-5.3 10.5 2.4 9.5 11.1-22 18.1-22 24c0 6 1.4 13.1 15.2 13.1 9 .7 10.1-4.6 13.4-7.8v.1z"/><path d="M59.1 343.3c3.3-3.2 6-12.6 15-12 13.8 0 19 7.7 19 13.6 0 5.9-28 54-29 62.7-1 8.7 4.8 11.1 9.5 11.1 4.8 0 8.1-2.7 8.1-5.2s-2.4-3-5.7-3c-3.3 0 1.4 1.7-1.4 3s-4.8-2-4.8-4.1c0-2.1 7.2-2.8 12-1.2.9-4.7 1.3-5-5.3-13 4.8 3 5.2 3.8 10.5 2-5.3 4.6-1.4 13.7-1.2 16 .2 2.3-1 5.2-3.1 6.6-3.8 3.5-12.2 3.6-17.2 1.4-7.2-3.3-7.6-12.8-5.7-16L87 346.6c1.5-2.4-2.3-10.4-10.9-10.7-9-.7-12.1 8.8-13.7 12.9l12.3-1s.5 2 0 3.2a110 110 0 0 0-12.3 1.6l-.5 6.2h6l-.4 2.8s-5.1-.4-5.6 0c-.5.3-1 6.2-1 6.2s-1 .4-2 .4-2-.4-2-.4-.4-5.9-.9-6.2c-.5-.4-5.6 0-5.6 0l-.5-2.8H56l-.5-6.2s-6-1.2-12.3-1.6c-.4-1.2 0-3.1 0-3.1l12.3.9c-1.6-4.1-4.7-13.6-13.7-13-8.6.4-12.4 8.4-11 10.8L58 405.2c1.9 3.1 1.5 12.7-5.7 16-5 2.2-13.4 2-17.2-1.4-2.1-1.4-3.3-4.2-3.1-6.5.2-2.3 4-11.6-1.2-16 5.3 1.7 5.8 1 10.5-2.1-6.6 8-6.2 8.3-5.2 13 4.7-1.6 11.9-1 11.9 1.2 0 2-2 5.5-4.8 4.1-2.8-1.4 2-3-1.4-3-3.3 0-5.7.6-5.7 3s3.3 5.2 8 5.2 10.5-2.4 9.6-11c-1-8.7-29-57-29-62.8 0-6 5.2-13.5 19-13.5 9-.7 12.3 8.7 15.5 11.9h-.1z"/><path d="M59.1 319.4c3.3 3.2 6 12.6 15 12 13.8 0 19-7.7 19-13.6 0-5.9-28-54-29-62.7-1-8.7 4.8-11.1 9.5-11.1 4.8 0 8.1 2.7 8.1 5.2s-2.4 3-5.7 3c-3.3 0 1.4-1.6-1.4-3s-4.8 2-4.8 4.1c0 2.1 7.2 2.8 12 1.2.9 4.7 1.3 5-5.3 13 4.8-3 5.2-3.8 10.5-2-5.3-4.6-1.4-13.7-1.2-16 .2-2.3-1-5.2-3.1-6.6-3.8-3.4-12.2-3.6-17.2-1.4-7.2 3.3-7.6 12.8-5.7 16L87 316c1.5 2.4-2.3 10.4-10.9 10.7-9 .7-12.1-8.8-13.7-12.9l12.3 1s.5-2 0-3.2a110 110 0 0 1-12.3-1.6l-.5-6.2h6l-.4-2.8s-5.1.4-5.6 0c-.5-.3-1-6.2-1-6.2s-1-.4-2-.4-2 .4-2 .4-.4 5.9-.9 6.2c-.5.4-5.6 0-5.6 0l-.5 2.8H56l-.5 6.2s-6 1.2-12.3 1.6c-.4 1.2 0 3.1 0 3.1l12.3-.9c-1.6 4.1-4.7 13.6-13.7 13-8.6-.4-12.4-8.4-11-10.8L58 257.5c1.9-3.2 1.5-12.7-5.7-16-5-2.2-13.4-2-17.2 1.4-2.1 1.4-3.3 4.2-3.1 6.5.2 2.3 4 11.5-1.2 16 5.3-1.7 5.8-1 10.5 2.1-6.6-8-6.2-8.3-5.2-13 4.7 1.6 11.9 1 11.9-1.2 0-2-2-5.5-4.8-4.1-2.8 1.4 2 3-1.4 3-3.3 0-5.7-.6-5.7-3s3.3-5.2 8-5.2 10.5 2.4 9.6 11c-1 8.7-29 57-29 62.8 0 6 5.2 13.5 19 13.5 9 .7 12.3-8.7 15.5-11.9h-.1z"/><path d="M59.1 160.6c3.3-3.2 6-12.6 15-12 13.8 0 19 7.7 19 13.6 0 5.9-28 54-29 62.8-1 8.6 4.8 11 9.5 11 4.8 0 8.1-2.7 8.1-5.1 0-2.4-2.4-3.2-5.7-3.2-3.3 0 1.4 1.8-1.4 3.2-2.8 1.4-4.8-2.1-4.8-4.2 0-2 7.2-2.8 12-1.2.9-4.7 1.3-5-5.3-13 4.8 3.1 5.2 3.8 10.5 2-5.3 4.6-1.4 13.8-1.2 16 .2 2.2-1 5.2-3.1 6.6-3.8 3.5-12.2 3.6-17.2 1.4-7.2-3.3-7.6-12.8-5.7-16L87 164c1.5-2.4-2.3-10.4-10.9-10.7-9-.7-12.1 8.8-13.7 12.9l12.3-1s.5 2 0 3.2c-6.4.4-12.3 1.6-12.3 1.6l-.5 6.2h6l-.4 2.8s-5.1-.3-5.6 0-1 6.3-1 6.3-1 .3-2 .3-2-.3-2-.3-.4-6-.9-6.3c-.5-.3-5.6 0-5.6 0l-.5-2.8H56l-.5-6.2s-6-1.2-12.3-1.6c-.4-1.2 0-3.1 0-3.1l12.3.9c-1.6-4.1-4.7-13.6-13.7-13-8.6.4-12.4 8.4-11 10.8L58 222.5c1.9 3.2 1.5 12.7-5.7 16-5 2.2-13.4 2-17.2-1.4-2.1-1.4-3.3-4.2-3.1-6.5.2-2.3 4-11.5-1.2-16 5.3 1.7 5.8 1 10.5-2.1-6.6 8-6.2 8.3-5.2 13 4.7-1.6 11.9-.9 11.9 1.2 0 2-2 5.5-4.8 4.1-2.8-1.3 2-3-1.4-3-3.3 0-5.7.6-5.7 3s3.3 5.2 8 5.2 10.5-2.4 9.6-11c-1-8.7-29-56.9-29-62.8 0-5.9 5.2-13.5 19-13.5 9-.7 12.3 8.7 15.5 12l-.1-.1z"/><path d="M59.1 136.7c3.3 3.2 6 12.7 15 12 13.8 0 19-7.7 19-13.6 0-5.9-28-54-29-62.7-1-8.7 4.8-11.1 9.5-11.1 4.8 0 8.1 2.8 8.1 5.2 0 2.4-2.4 3.1-5.7 3.1-3.3 0 1.4-1.7-1.4-3.1-2.8-1.4-4.8 2-4.8 4.1 0 2.1 7.2 2.8 12 1.2.9 4.7 1.3 5-5.3 13 4.8-3 5.2-3.8 10.5-2-5.3-4.5-1.4-13.7-1.2-16 .2-2.3-1-5.2-3.1-6.6-3.8-3.4-12.2-3.6-17.2-1.3-7.2 3.2-7.6 12.8-5.7 15.9L87 133.4c1.5 2.4-2.3 10.4-10.9 10.8-9 .6-12.1-8.8-13.7-13l12.3 1s.5-2 0-3.2a111.5 111.5 0 0 1-12.3-1.5l-.5-6.3h6l-.4-2.8s-5.1.4-5.6 0c-.5-.3-1-6.2-1-6.2s-1-.4-2-.4-2 .4-2 .4-.4 5.9-.9 6.2c-.5.4-5.6 0-5.6 0l-.5 2.8H56l-.5 6.3s-6 1.1-12.3 1.5c-.4 1.3 0 3.2 0 3.2l12.3-1c-1.6 4.2-4.7 13.6-13.7 13-8.6-.4-12.4-8.4-11-10.8L58 74.8c1.9-3.1 1.5-12.7-5.7-16-5-2.2-13.4-2-17.2 1.4-2.1 1.4-3.3 4.2-3.1 6.5.2 2.3 4 11.6-1.2 16 5.3-1.7 5.8-1 10.5 2.1-6.6-8-6.2-8.3-5.2-13 4.8 1.6 11.9 1 11.9-1.2 0-2-2-5.5-4.8-4.1-2.8 1.4 2 3.1-1.4 3.1-3.3 0-5.7-.7-5.7-3.1 0-2.4 3.3-5.2 8-5.2s10.6 2.4 9.6 11c-1 8.7-29 57-29 62.8 0 6 5.2 13.6 19 13.6 9 .7 12.3-8.8 15.5-12h-.1z"/><path d="M60.2 13c3.3-3.2 2.2-8.5 11.3-7.8 13.8 0 14.2 8.4 14.2 14.3S65 33.6 64 42.3c-1 8.7 4.8 11 9.6 11 4.7 0 8-2.7 8-5.1 0-2.4-2.2-3.2-5.6-3.2-3.4 0 1.5 1.7-1.4 3s-4.8-2-4.8-4c0-2.2 7.2-2.9 12-1.3 1-4.7 1.4-5-5.3-13 4.8 3.1 5.2 3.8 10.5 2-5.3 4.6-1.3 13.8-1.2 16.1.1 2.3-1 5.1-3 6.5-4 3.7-12.3 3.7-17.3 1.5-7.3-3.2-7.7-12.8-5.8-16L80 19.3c1.4-2.4 2-9.2-6.6-9.5-9-.7-12.2 11.6-13.8 15.7C57.5 21 55.1 8.6 46 9.3c-8.6.3-10.2 7-8.8 9.5l20.7 21c2 3.2 1.6 12.8-5.7 16-5 2.3-13.3 2.1-17.1-1.4-2.2-1.4-3.4-4.1-3.2-6.5.2-2.4 4.1-11.5-1.1-16 5.2 1.7 5.7 1 10.4-2-6.6 7.9-6.1 8.2-5.2 13 4.8-1.6 12-1 12 1.1s-2 5.6-4.9 4.2c-2.8-1.4 2-3.1-1.4-3.1-3.3 0-5.7.7-5.7 3s3.3 5.3 8.1 5.3 10.5-2.4 9.5-11.1-22-18.1-22-24c0-6 1.4-13.1 15.2-13.1 9-.7 10.1 4.6 13.4 7.8z"/></g><g transform="translate(243 68)" fill="#FFE400"><rect x="94.883" y="51.764" width="181.654" height="172.155" rx="85.1"/><path d="M181.441.427c-.854 0-4.91 28.604-6.404 35.007-1.494 14.409 19.212 13.875 15.796-.533L181.441.32v.106zm7.258 277.284c.747 0 6.937-28.283 8.965-34.58 2.455-14.195-18.25-14.942-16.01-.427l7.045 35.007zM43.973 137.255c0 .747 29.777 6.724 36.395 8.645 14.942 2.455 16.01-17.077.64-14.942l-37.035 6.404v-.107zm289.985 3.415c0-.747-30.098-5.657-36.822-7.364-15.049-1.815-15.155 17.717 0 15.049l36.822-7.685zM74.498 46.534c-.534.534 19.104 22.734 23.053 28.177 10.246 10.673 23.801-4.27 10.246-11.527l-33.3-16.543v-.107zm225.307 182.509c.533-.534-21.026-21.026-25.509-26.043-11.207-9.819-23.267 6.084-9.179 12.274l34.688 13.875v-.106zM119.43 15.583c-.64.32 8.538 27.856 10.032 34.367 5.124 13.554 23.695 4.696 14.089-6.938l-24.014-27.43h-.107zm131.385 248.04c.747-.32-6.404-28.39-7.365-34.9-4.162-13.876-23.267-6.404-14.622 5.976l22.093 28.817-.107.107zm32.339-228.829c-.64-.534-24.335 17.717-30.098 21.346-11.42 9.606 4.056 22.627 11.954 9.926l18.144-31.272zM87.839 241.53c.533.534 25.615-16.01 31.592-19.318 12.06-8.752-2.348-22.84-11.207-10.673L87.946 241.53h-.107zM50.483 87.732c-.32.64 25.615 15.69 31.272 19.638 13.341 6.938 21.133-11.206 5.87-14.088l-37.142-5.55zm270.774 105.022c.32-.64-24.548-17.397-29.884-21.666-12.808-7.898-21.88 9.713-6.83 13.555l36.714 8.111zM235.233 8.218c-.747-.213-15.583 24.975-19.532 30.418a8.325 8.325 0 0 0 14.943 5.017l4.589-35.435zM135.013 268.96c.748.32 17.397-23.908 21.667-29.138 7.79-12.38-11.1-20.278-14.622-5.977l-7.045 35.115zm-82.715-73.964c.32.64 29.884-6.404 36.822-7.471 14.515-4.056 6.403-21.987-6.404-13.662l-30.418 21.133zM321.364 85.384c-.213-.64-30.205 4.376-37.142 5.016-14.942 3.095-8.005 21.56 5.336 14.089l31.806-19.105z" fill-rule="nonzero"/><path d="M210.898 2.241c-.747-.106-10.78 27.11-13.768 33.087-4.376 13.875 16.01 17.29 15.69 2.561l-1.815-35.754-.107.106zm-51.764 273.122c.748.214 12.808-26.362 16.223-32.232 5.337-13.448-14.728-18.144-15.475-3.522l-.854 35.754h.106zM148.782 4.91c-.747.213 2.027 29.03 2.027 35.647 2.028 14.195 21.987 9.286 15.37-3.949L148.782 4.91zm72.576 268.852c.747-.106 0-29.03.534-35.647-.96-14.409-21.346-10.78-15.583 2.881l14.942 32.766h.107zM97.338 28.817c-.64.427 13.554 25.935 16.223 32.02 7.684 12.487 24.227.746 12.594-9.18l-28.817-22.84zm175.89 221.892c.641-.427-11.74-26.896-13.874-33.087-6.724-12.914-24.014-2.24-13.235 8.325l27.11 24.762zM59.769 64.679c-.426.64 22.52 19.638 27.324 24.547 11.847 8.966 22.84-7.684 8.325-12.914L59.769 64.678zM309.73 213.78c.427-.64-21.025-21.132-25.508-26.255-11.1-9.713-23.267 6.19-9.179 12.38l34.687 13.875zM43.332 109.398c-.213.747 28.07 11.527 34.26 14.622 14.303 4.803 18.892-14.302 3.31-14.728l-37.57.106zm285.396 61.69c.32-.64-27.109-13.234-33.086-16.756-13.875-5.764-19.958 13.02-4.483 14.515l37.57 2.241zm-286.356-6.724c.107.64 30.631.214 37.569.747 15.155-.747 11.527-20.065-2.989-14.835l-34.58 14.088zm288.384-48.028c0-.747-30.525-2.348-37.355-3.309-15.263-.213-13.021 19.318 1.814 14.942l35.541-11.74v.107zM68.521 221.358c.427.64 27.75-12.38 34.153-14.835 13.235-6.938 1.068-22.84-9.499-12.06l-24.654 26.895zm237.26-162.55c-.426-.64-28.496 10.566-35.22 12.594-13.769 6.084-2.775 22.734 8.538 12.701l26.682-25.295zM112.921 259.14c.64.32 20.171-21.88 25.08-26.575 9.286-11.42-8.538-21.346-13.767-7.471L112.92 259.14zm149.1-238.86c-.534-.427-21.666 20.385-26.896 24.761-10.032 10.78 7.044 21.88 13.235 8.432l13.554-33.193h.107z" fill-rule="nonzero"/><g transform="translate(.017 142.473)"><path d="M46.818 52.621c1.63 5.505 1.864 36.329 34.707 66.052 32.61 29.504 88.512 36.109 88.512 36.109s.233 4.183-3.727 4.403c-3.96.44-23.06-3.302-32.61-6.165-9.317-2.642-17.702-7.485-18.634-7.265-1.164.44-3.028 3.523-5.823 3.082-2.795-.44-16.305-13.65-22.361-17.173-12.113-9.897-22.837-21.218-31.911-33.687-6.522-9.908-8.153-16.513-10.249-16.513s-9.783 4.844-9.783 4.844-6.988-9.908-13.044-25.76c-6.289-15.853-5.59-25.1-4.193-25.76 1.631-.661 1.631 11.669 6.29 22.897 4.658 11.45 11.18 14.972 11.18 14.972s-4.193-5.944-7.454-20.696c-3.26-14.752-4.658-29.063-2.329-33.466 2.33-4.404 4.426-5.725 4.659-5.505.466.44-3.96 6.826-.932 23.779s11.18 31.265 13.044 30.604c1.863-.66-1.165-4.183-2.33-14.091-1.164-9.908 1.165-16.073 3.727-16.953 1.165-.881 3.029 11.008 3.261 16.292zM23.992 80.804c-6.29-5.505-16.072-24.66-18.169-23.78-2.33 1.102 15.84 28.623 16.305 30.825.466 2.642 4.426 10.128 1.398 9.027-3.028-1.1-24.69-22.678-22.128-18.494C3.96 82.565 20.265 101.5 19.333 102.6c-.932 1.1-13.51-10.569-13.976-9.027-.233 1.32 12.345 12.77 12.113 14.09-.233 1.322-8.153-7.265-8.153-5.504 0 1.762 8.153 10.349 8.153 11.67 0 1.32-6.988-6.165-4.659-2.202 2.096 4.403 8.152 8.146 7.92 9.467-.233 1.321-5.125-1.761-5.125-1.1 0 .66 9.084 3.742 11.18 6.164 2.33 2.422 17.237 18.715 28.418 26.861 11.18 8.147 43.324 22.458 45.654 22.458 2.096 0 5.357-4.403 4.658-6.165-.699-1.761-32.144-11.89-40.762-19.375-8.851-7.486-30.28-25.54-32.144-26.42-1.63-1.102-6.522-.661-6.522-1.762s6.289.66 5.823 0c-.233-.66-8.618-4.183-8.385-4.844.466-.66 5.823 1.321 5.823.66 0-.66-9.783-5.724-9.317-6.825.233-1.1 7.22 3.083 7.22 2.202 0-.44-9.317-6.605-9.084-7.706.233-1.101 7.221 4.844 6.988 3.523-.233-1.321-5.59-8.807-5.59-9.688 0-1.1 8.385 7.486 9.317 5.724.466-1.54-3.028-15.852-2.795-16.072.233-.22 6.289 3.082 7.22 1.1 1.165-2.201-4.192-5.063-9.316-9.026zm107.38 108.325c-4.426.66-6.523-.88-3.96-4.404 3.493 0 12.81-2.862 16.071-4.183 3.261-1.32 6.755-3.082 9.55-5.504 2.796-2.862 4.659 1.541 3.028 3.963-1.164 1.541-6.522 4.403-10.481 5.945-5.823 1.761-10.948 4.403-14.209 4.183zm29.115-11.229c-3.028-3.082-.466-5.284 3.96-7.706 6.522-3.303 4.658-7.926 13.044-11.67 3.727-2.2 55.902-22.017 72.906-32.585 17.004-10.568 64.754-44.695 77.565-68.254 12.578-23.338 6.522-25.1 8.385-25.98 1.63-1.1 3.494 3.303 3.261 8.587-.465 5.064-4.658 20.476-3.26 22.017 1.397 1.541 19.1-12.11 26.553-28.622C370.355 17.174 375.945 0 379.44 0c3.727 0-6.056 28.182-12.345 39.19-6.056 11.01-13.277 16.514-11.647 18.936 1.864 2.201 20.032-12.11 26.321-22.678 6.056-10.789 11.88-20.256 13.044-18.274-1.853 12.897-7.232 25.115-15.606 35.447-9.783 10.569-21.43 18.275-19.566 19.816 1.63 1.761 14.908 3.523 28.65-5.284 13.976-9.027 15.373-22.017 17.004-21.357 1.863.66-1.63 18.495-14.907 29.503-13.277 11.009-30.747 12.11-30.281 14.532.932 2.201 37.967-10.128 37.268-7.266-.698 2.642-47.983 20.256-48.449 22.017 0 1.321 8.153 1.762 20.964-1.1 12.578-2.643 24.69-12.11 26.32-9.908.467 3.082-9.083 10.568-23.525 14.09-14.674 3.524-21.895 8.147-22.361 9.248-.233 1.1 26.088-3.082 26.088-1.761 0 1.32-34.473 7.706-34.706 9.467-.466 1.541 32.61-6.385 32.144-4.403-.932 1.54-44.955 13.87-44.49 14.531.233.88 36.803-7.486 36.104-6.165-.931 1.541-61.493 17.614-61.958 18.715-.466.88 53.573-11.45 53.107-10.348-.466 1.1-27.951 7.486-27.951 8.146 0 .66 22.128-3.302 21.662-2.202-.233.881-55.903 14.312-57.067 16.293-1.165 2.202 28.883-5.504 28.417-1.54-.466 3.962-64.521 24.218-64.754 20.475-.466-3.743 38.899-13.21 38.666-14.311-.466-1.1-22.594 2.202-23.06.22-.233-2.202 14.675-6.605 13.51-7.486-1.165-1.1-12.345 3.083-11.413.66 1.164-2.421 22.36-11.668 21.895-12.329-.233-.66-7.687 2.202-6.988 0 .932-2.422 45.887-14.752 45.188-16.293-.699-1.32-20.73 3.083-22.594 3.523-.699-1.321 27.951-11.449 27.485-13.21-.931-1.542-15.373 5.944-16.305 3.963-.465-2.202 25.39-11.67 23.76-13.21-1.631-1.542-13.278 3.962-14.908 2.421-1.63-1.541 24.457-18.494 20.497-18.935-3.96-.22-8.85 5.284-9.317 1.762.466-4.404 20.265-11.67 15.84-15.192-6.989-1.982-30.514 1.541-40.297 7.045-9.783 5.505-42.393 36.109-50.313 40.953-7.92 4.623-34.939 15.412-40.063 17.613-7.92 2.642-9.317 6.606-17.47 10.569-14.674 3.743-14.441 7.926-21.429 10.348-2.562.66-28.883 12.55-29.116 11.669zm-36.802 15.412c-4.426 2.202-8.386 7.486-5.824 9.688 1.398 2.642 5.824-5.945 9.317-5.505l18.635.881c10.016.66 14.907-1.981 20.497-1.541 5.59.44 17.936-2.862 23.759-2.862s6.988.66 7.454-1.762c.698-2.201-18.169-.66-26.554-.88-8.386-.44-18.867 1.54-25.156 1.54-5.824-.22-15.84-1.98-22.128.441z" fill-rule="nonzero"/><rect x="143.716" y="187.367" width="7.92" height="6.605" rx="1.7"/><path d="M244.574 184.285c3.96-.66 14.674 2.862 22.128 4.404 13.51 5.064 38.666 2.642 38.666 5.064 0 2.421-1.63 5.284-7.454 5.724-5.823.44-20.497-2.202-20.031-2.202.465 0 11.646 5.064 8.385 6.385-3.261 1.321-12.811-2.862-14.442-1.761-1.63 1.1 8.852 3.082 6.988 3.743-1.397.66-8.618-.88-10.947-.66-2.33.44 1.863 2.862-.932 3.742-2.795 1.101-7.454-1.32-9.317-.66-2.096.66 4.193 4.403 1.397 4.844-2.795.44-9.317-1.762-13.044-2.202-3.726 0 3.494 3.523 1.165 3.963-2.33.22-8.851-2.862-10.482-2.862-1.63 0 0 4.403-2.329 4.403-2.33 0-5.124-3.743-6.522-3.743-1.397 0 0 4.404-2.33 4.404-2.328 0-3.26-4.624-5.124-4.404-2.329.44 0 5.945-3.26 5.505-3.029-.22-3.494-5.725-6.057-5.505-2.329.44.466 5.505-1.863 5.505-2.33 0-2.795-5.064-5.124-5.505-2.33-.22-1.398 4.844-2.796 4.844-1.397 0-2.795-4.844-3.726-4.844-.7 0 0 4.844-2.796 4.404-2.795-.44-2.795-5.284-3.493-5.064-.932.44-.932 3.963-2.796 3.963-1.863 0-2.096-3.523-2.795-3.083-.931.22-3.727 4.624-5.59 3.964-2.096-.661.466-4.184-.466-4.184s-3.26 2.422-4.658 2.202c-1.398-.22 0-3.082-.466-3.082s-3.96 1.76-5.59 1.76c-1.631 0-6.057 2.203-7.221.221-1.165-2.202 3.028-2.202 3.96-4.183.698-1.982-2.33-7.926.931-9.908 3.028-2.202 13.044 2.862 27.952-.66 27.02-6.826 47.983-14.752 50.079-14.532z"/></g></g></g></svg>