<svg width="800" height="480" xmlns="http://www.w3.org/2000/svg"><g fill="none" fill-rule="evenodd"><path d="M0 360h800v120H0V360zM0 0h800v120H0V0z" fill="red" fill-rule="nonzero"/><path fill="#FFF" d="M0 120h800v240H0z"/><path d="M392.583 121.094c-7.312 14.531-12.187 14.531-24.375 24.375-4.875 4.781-12.187 7.219-2.437 12.187-9.844 4.781-14.719 7.219-19.594 16.969l2.438 2.438s9.375-4.5 9.75-2.438c1.687 1.969-12.188 9.375-13.97 10.594l-10.312 6.562c-12.28 9.656-19.687 7.219-26.906 21.844l24.375-2.438c4.875 17.063-12.187 19.5-24.375 26.813l-19.594 12.188c4.97 17.062 19.594 7.312 31.782 2.437l2.437 2.438v4.875l-24.375 12.187s-28.875 16.5-29.344 17.063c-.187.937 0 4.875 0 4.875 9.75 2.437 24.375 4.875 34.22 0 12.187-4.875 14.624-9.75 29.25-9.75a94.312 94.312 0 0 1-48.75 19.5v9.75c14.624 0 24.374 0 36.562-2.438l31.687-9.75c7.313 0 14.719 7.313 12.188 14.625-7.22 26.813-36.563 21.938-46.313 43.875l39-14.719c9.75-4.875 19.5-9.656 31.688-7.219 14.625 4.875 14.625 14.625 34.125 19.5l-4.875-12.187c4.875 2.438 9.75 2.438 14.718 4.875 12.188 4.875 14.625 9.75 29.25 7.313-12.187-14.625-14.625-12.188-24.375-21.938-9.75-14.625-14.718-36.563 0-39l17.063 4.875c17.062 2.438 17.062-2.438 41.437 7.313 14.72 4.875 19.594 12.187 36.563 7.312-7.219-17.063-34.031-29.25-51.188-34.125 19.594-12.188 14.625 4.875 41.532-2.438v-4.875c-19.407-14.718-26.813-26.906-53.625-26.906l41.53-4.875v-4.875s-40.968-10.687-41.905-11.156c.28-1.219 1.312-3.094 4.03-4.219 7.782 5.063 31.22 4.5 32.626 4.406-.75-6-11.906-10.968-21.563-15.843 0 0-41.906-25.781-42.093-28.031.843-6.563 17.156 1.03 34.687 6.093-4.875-9.75-14.625-14.625-24.375-17.062l14.625-2.438c-9.75-21.937-34.125-19.5-48.75-29.25-9.844-7.312-9.844-12.187-24.469-19.406v.094z" fill="#007900"/><path d="M366.625 283.61c1.781-5.72 4.125-10.876-6.75-15.845-10.875-4.968 5.438 19.782 6.75 15.938v-.094zm12.844-11.532c-2.156.281-3.375 8.25 1.031 10.5 4.875.75.938-10.406-1.031-10.5zm12.656-.938c-2.25.75-2.344 12 5.625 9.938 8.063-1.969 0-10.781-5.625-9.844v-.094zm14.813-28.78c1.687-2.813-.094-14.063-6.938-9.376-6.938 4.781 4.688 10.125 6.938 9.375zm-15-9.376c2.156-.844 2.343-7.781-3.75-5.906-5.907 1.781 2.156 7.312 3.75 5.906zm-13.5 2.719s-4.22-5.813-7.5-4.594c-4.032 3.938 7.78 4.688 7.5 4.594zm-46.5 18.562c1.78.188 15-2.156 19.593-7.312 4.594-5.156-23.531 2.156-23.531 2.25 0 .094 2.625 4.594 3.938 5.062zm132.28-32.812c.657-1.219-7.03-6.656-11.624-4.5-1.219 4.031 11.625 5.344 11.625 4.5zm-26.062-13.125c1.5-2.063-3.281-10.594-12.844-5.813-9.562 4.688 10.032 9.188 12.844 5.907v-.094zm-30.094-4.969s2.344-7.687 8.063-6.187c6.563 4.968-7.781 6.468-8.063 6.187zm-5.625-5.812c-.937-2.157-6.843-.938-13.687 3.656-6.938 4.406 15.75 1.312 13.688-3.75v.094zm17.532-20.72s6.094-2.812 7.969 0c2.53 4.032-8.063 0-7.97 0zm-5.156-2.718c-1.22-2.437-7.97-2.719-7.782.938-1.125 2.812 8.813 2.25 7.781-.938zm-16.125 0c-.657-1.406-10.313 0-13.125 5.813 4.687 2.25 15.28-2.157 13.125-5.813zm-20.625 5.906s-12.563 7.782-13.407 13.407c.375 4.875 15.75-8.813 15.75-8.813s1.313-5.437-2.25-4.594h-.094zm-13.97-7.03c.376-1.595 6.282-5.25 6.75-4.97.47 1.594-4.78 5.907-6.75 4.97zm4.032 29.624c.281-2.344-15-2.156-9.281 4.875 4.875 5.906 10.312-3.844 9.281-4.875zm-14.063 10.031c-.75-1.5-1.875-5.625-3.937-6-1.781 0-10.969 1.875-11.719 3.375-.375 1.22 3.844 8.813 5.25 9 1.688.657 10.219-5.625 10.5-6.375h-.094zm82.875 51.75c.47-1.687 16.22-7.03 21.563-1.875 6.375 8.72-21.938 4.688-21.563 1.875zm43.125 10.22c3.47-5.813-10.593-12.75-16.5-6.095 2.063 7.97 13.688 10.875 16.5 6.094z" stroke="#FFF" stroke-width="3" fill="#FFF" stroke-linecap="round" stroke-linejoin="round"/></g></svg>