<svg width="800" height="480" xmlns="http://www.w3.org/2000/svg"><g fill="none" fill-rule="evenodd"><path fill="#002B7F" d="M0 0h800v240H0z"/><path fill="#CE1126" d="M0 240h800v240H0z"/><g stroke-linecap="round" stroke-linejoin="round" transform="translate(95.2 42.4)"><g transform="translate(3.2 36.8)"><path d="M74.72 18.64l-1.52 50H22.48c-6.24-12.16-11.36-22.4-11.36-36.4 0-11.68 9.2-20.96 22.4-20.96 14 0 29.44 4.72 41.2 7.36z" fill="#FFD83D"/><g stroke="#000" stroke-width="1.2"><path d="M17.2 20.96v28.8m4-31.76v38.4M25.36 16v45.76m4-46.72v35.92m4.08-36.08v36.24m4.08-37.6v37.6m4.08-37.6v37.6m4.08-37.2v37.6m4.08-37.2v37.52m4.08-35.2v37.6m4-37.2v42.32M62 17.04v37.6m4-37.6v37.6" fill="#FFD83D" fill-rule="nonzero"/><path d="M42.72 15.2c8.64 1.36 27.52 10.24 25.36 22.16C65.04 54.32 55.12 47.52 42 45.12l-9.92 3.28c-3.6 3.6-8.8 6.96-12.32 2.56h-5.92V74h65.12V18.4l-36.24-3.2z" fill="#000"/></g><circle stroke="#000" stroke-width="1.6" fill="#FFD83D" cx="71.84" cy="11.2" r="3.92"/><circle stroke="#000" stroke-width="1.6" fill="#FFD83D" cx="62.96" cy="9.04" r="3.92"/><circle stroke="#000" stroke-width="1.6" fill="#FFD83D" cx="53.92" cy="6.8" r="3.92"/><circle stroke="#000" stroke-width="1.6" fill="#FFD83D" cx="44.88" cy="5.28" r="3.92"/><circle stroke="#000" stroke-width="1.6" fill="#FFD83D" cx="35.84" cy="4.4" r="3.92"/><circle stroke="#000" stroke-width="1.6" fill="#FFD83D" cx="27.04" cy="4.88" r="3.92"/><circle stroke="#000" stroke-width="1.6" fill="#FFD83D" cx="18.56" cy="7.76" r="3.92"/><circle stroke="#000" stroke-width="1.6" fill="#FFD83D" cx="11.44" cy="13.04" r="3.92"/><circle stroke="#000" stroke-width="1.6" fill="#FFD83D" cx="6.4" cy="20.32" r="3.92"/><circle stroke="#000" stroke-width="1.6" fill="#FFD83D" cx="3.92" cy="28.96" r="3.92"/><circle stroke="#000" stroke-width="1.6" fill="#FFD83D" cx="4" cy="37.84" r="3.92"/><circle stroke="#000" stroke-width="1.6" fill="#FFD83D" cx="5.76" cy="46.56" r="3.92"/><path d="M73.6 16.4l-.4 5.2c-9.84-1.6-23.76-7.04-36.8-7.04-12 0-21.28 4.8-21.28 16.96 0 11.92 5.04 22.8 11.76 33.84l-6.96 3.2c-6.24-12-11.44-22.4-11.44-36.32 0-11.68 9.2-23.2 25.04-23.2 14 0 28.32 4.8 40.08 7.36z" stroke="#000" stroke-width="1.6" fill="#FFD83D"/></g><g transform="matrix(-1 0 0 1 161.6 36.8)"><path d="M74.72 18.64l-1.52 50H22.48c-6.24-12.16-11.36-22.4-11.36-36.4 0-11.68 9.2-20.96 22.4-20.96 14 0 29.44 4.72 41.2 7.36z" fill="#FFD83D"/><g stroke="#000" stroke-width="1.2"><path d="M17.2 20.96v28.8m4-31.76v38.4M25.36 16v45.76m4-46.72v35.92m4.08-36.08v36.24m4.08-37.6v37.6m4.08-37.6v37.6m4.08-37.2v37.6m4.08-37.2v37.52m4.08-35.2v37.6m4-37.2v42.32M62 17.04v37.6m4-37.6v37.6" fill="#FFD83D" fill-rule="nonzero"/><path d="M42.72 15.2c8.64 1.36 27.52 10.24 25.36 22.16C65.04 54.32 55.12 47.52 42 45.12l-9.92 3.28c-3.6 3.6-8.8 6.96-12.32 2.56h-5.92V74h65.12V18.4l-36.24-3.2z" fill="#000"/></g><circle stroke="#000" stroke-width="1.6" fill="#FFD83D" cx="71.84" cy="11.2" r="3.92"/><circle stroke="#000" stroke-width="1.6" fill="#FFD83D" cx="62.96" cy="9.04" r="3.92"/><circle stroke="#000" stroke-width="1.6" fill="#FFD83D" cx="53.92" cy="6.8" r="3.92"/><circle stroke="#000" stroke-width="1.6" fill="#FFD83D" cx="44.88" cy="5.28" r="3.92"/><circle stroke="#000" stroke-width="1.6" fill="#FFD83D" cx="35.84" cy="4.4" r="3.92"/><circle stroke="#000" stroke-width="1.6" fill="#FFD83D" cx="27.04" cy="4.88" r="3.92"/><circle stroke="#000" stroke-width="1.6" fill="#FFD83D" cx="18.56" cy="7.76" r="3.92"/><circle stroke="#000" stroke-width="1.6" fill="#FFD83D" cx="11.44" cy="13.04" r="3.92"/><circle stroke="#000" stroke-width="1.6" fill="#FFD83D" cx="6.4" cy="20.32" r="3.92"/><circle stroke="#000" stroke-width="1.6" fill="#FFD83D" cx="3.92" cy="28.96" r="3.92"/><circle stroke="#000" stroke-width="1.6" fill="#FFD83D" cx="4" cy="37.84" r="3.92"/><circle stroke="#000" stroke-width="1.6" fill="#FFD83D" cx="5.76" cy="46.56" r="3.92"/><path d="M73.6 16.4l-.4 5.2c-9.84-1.6-23.76-7.04-36.8-7.04-12 0-21.28 4.8-21.28 16.96 0 11.92 5.04 22.8 11.76 33.84l-6.96 3.2c-6.24-12-11.44-22.4-11.44-36.32 0-11.68 9.2-23.2 25.04-23.2 14 0 28.32 4.8 40.08 7.36z" stroke="#000" stroke-width="1.6" fill="#FFD83D"/></g><path d="M82.4.08l-4.16 7.76 4.16 7.68 4.08-7.68L82.4 0v.08zm0 19.52l-4.16 7.68 4.16 7.76 4-7.84-4.08-7.68.08.08zm-14.72-2l6.48 4.08 6.48-4.08-6.4-4.16-6.56 4.16zm16.4 0l6.48 4.08 6.56-4.08-6.56-4.16-6.4 4.16h-.08z" stroke="#000" stroke-width="1.6" fill="#FFD83D" fill-rule="nonzero"/><circle stroke="#000" stroke-width="1.6" fill="#FFD83D" cx="82.4" cy="17.68" r="3.12"/><circle stroke="#000" stroke-width="1.6" fill="#FFD83D" cx="82.4" cy="37.6" r="8.4"/><path d="M80.24 29.52v5.28a50 50 0 0 0-5.92.64m16.16 0a49.68 49.68 0 0 0-6-.64v-5.28M74.24 39.68a49.12 49.12 0 0 1 8.16-.72c2.72 0 5.44.24 8 .72" stroke="#000" stroke-width="1.2"/><path d="M74.24 51.76c-.8 13.6-2.4 27.6-7.76 37.68l8.64-3.52c3.04-11.44 3.68-26.24 4.56-33.28l-5.44-.88zm16.32 0l-5.52.88c.96 7.04 1.6 21.84 4.56 33.28l8.64 3.52c-5.28-10.08-6.88-24-7.68-37.68z" stroke="#000" stroke-width="1.6" fill="#FFD83D" fill-rule="nonzero"/><path d="M82.4 81.36c-10.4 0-18 4.8-18.4 17.28-2.56-4.48-13.2-18.4-23.2-16.56-5.92 1.12-11.2 9.36-10.24 18.72-4.96-14.08-19.28-16.4-29.84-8 9.36 7.6 13.52 30.24 21.36 40h120.56c7.84-9.76 12-32.4 21.36-40-10.48-8.4-24.88-6.08-29.76 8 .8-9.36-4.4-17.6-10.4-18.72-9.92-1.84-20.56 12.08-23.12 16.56-.4-12.4-8-17.28-18.4-17.28h.08z" stroke="#000" stroke-width="1.6" fill="#FFD83D"/><g transform="translate(7.2 45.6)"><path d="M135.28 87.2c0 4.48-26.88 9.36-60.08 9.36s-60.16-4.8-60.16-9.36c0-4.4 26.96-6.8 60.16-6.8 33.12 0 60.08 2.4 60.08 6.8z" stroke="#000" stroke-width="1.2" fill="#000"/><circle stroke="#000" stroke-width="1.2" fill="#FFD83D" cx="75.2" cy="3.52" r="2.8"/><circle stroke="#000" stroke-width="1.2" fill="#FFD83D" cx="75.2" cy="9.6" r="2.96"/><circle stroke="#000" stroke-width="1.2" fill="#FFD83D" cx="75.2" cy="16.16" r="3.28"/><circle stroke="#000" stroke-width="1.2" fill="#FFD83D" cx="75.2" cy="23.44" r="3.76"/><circle stroke="#000" stroke-width="1.2" fill="#FFD83D" cx="75.2" cy="31.52" r="4.08"/><path d="M73.6 39.36c-.48 0-.88.4-.8 1.12l.48 3.44c.16 1.2.8.8 1.04 0 .16-.96.08-1.6.16-3.28 0-.88-.48-1.28-.96-1.28h.08zm3.2 0c-.48 0-.88.4-.88 1.28 0 1.68 0 2.32.16 3.2.16.96.8 1.28 1.04 0l.4-3.36c.16-.8-.32-1.12-.72-1.12zm-6.16.48a.8.8 0 0 0-.8.8c0 .8.24 1.84.32 3.04.16 1.2 1.04.8 1.12 0 0-.64.16-1.76 0-3.12 0-.48-.16-.72-.48-.8a.64.64 0 0 0-.16 0v.08zm8.88 0c-.24 0-.48.24-.56.8a16.08 16.08 0 0 0 .16 3.04c0 .8.96 1.2 1.04 0 0-1.2.32-2.16.32-2.96 0-.48-.4-.8-.8-.88a.64.64 0 0 0-.16 0zM67.2 41.2c-.4.08-.8.56-.64 1.04.24 1.04.48 2.16.48 3.2 0 .88.72.56.8 0a47.84 47.84 0 0 0 .08-3.2c0-.8-.4-1.12-.8-1.04h.08zm15.68 0c-.24.08-.48.4-.48 1.04l.16 3.2c0 .56.8.88.8 0 0-1.04.16-2.16.4-3.2.16-.48-.24-.96-.56-1.04a.48.48 0 0 0-.24 0h-.08zm-47.2.16c-.48 0-.8.56-.48 1.2.48 1.12 1.04 1.76 1.52 2.88.4 1.04 1.12.4.88-.32l-1.12-2.96c-.24-.56-.56-.8-.8-.8zm79.04 0c-.32 0-.56.24-.8.8-.72 1.52-.96 2.24-1.2 2.96-.16.8.48 1.36.96.32l1.44-2.88c.32-.64 0-1.2-.4-1.2zm-75.84 0c-.4.16-.56.56-.4 1.04.48.96 1.04 2 1.44 3.04.32.88 1.12.64.8-.16l-.8-2.96c-.32-.8-.8-1.04-1.04-.96zm72.4 0c-.32.08-.64.4-.8.96-.56 1.6-.64 2.08-.88 2.96-.32.8.48 1.04.8.16l1.44-3.04c.16-.48 0-.88-.32-1.04a.48.48 0 0 0-.24 0zm-68.4.8c-.48.08-.8.72-.48 1.52.32.96.8 1.84 1.28 2.96.48 1.12 1.2.88 1.04.16-.24-.72-.4-1.84-.96-3.6-.24-.8-.56-1.12-.88-1.04zm64.64 0c-.32 0-.72.24-.96 1.04-.48 1.76-.8 2.88-.88 3.6-.24.8.56.96.96-.16.48-1.12.96-2 1.28-2.96.32-.8 0-1.44-.4-1.52zm-74.56.56c-.48 0-.8.8-.56 1.36.4.8.72 1.12 1.12 2.08.48.96.96.24.8-.4-.24-.64-.48-1.36-.64-2.24-.16-.64-.48-.8-.8-.8h.08zm84.48 0c-.32 0-.56.16-.8.8l-.56 2.24c-.16.64.32 1.36.8.4.4-.96.64-1.2 1.12-2.08.24-.56-.16-1.28-.56-1.36zm-53.6 2.24c-.56 0-1.04.64-.8 1.2.16.96.64 1.76.88 2.96.32 1.04 1.04.56.96-.16a22.96 22.96 0 0 0-.4-3.2c-.16-.56-.4-.8-.72-.8h.08zm22.72 0c-.24 0-.56.24-.64.8a22.96 22.96 0 0 0-.48 3.2c0 .72.72 1.2.96.16l.96-2.96c.16-.56-.32-1.2-.8-1.2zm-11.36.96c-.64 0-.72.8-.72 1.36a9.84 9.84 0 0 1-1.6 5.12c-.8.96-1.84.72-2.8.16a17.84 17.84 0 0 1-2.64-1.76c-1.12-.8-1.92-.32-.64 1.52 3.68 5.28 7.68 9.76 7.68 18.4 0 1.04.24 1.36.72 1.36s.64-.32.64-1.44c0-8.56 4-13.04 7.68-18.4 1.28-1.76.48-2.24-.56-1.44a16.8 16.8 0 0 1-2.64 1.76c-1.04.56-2.08.8-2.8-.16a9.84 9.84 0 0 1-1.6-5.12c-.08-.56-.16-1.36-.8-1.36h.08zm-28.24-1.28a.48.48 0 0 0-.16 0c-.24.08-.32.32-.24.8l.88 3.12c.24.8 1.12.56.96-.4l-.48-2.48c-.16-.64-.64-1.04-.96-1.04zm56.48 0c-.4 0-.8.4-.96 1.04-.32 1.12-.32 1.44-.48 2.4-.24 1.04.72 1.2.88.48l.96-3.2c0-.4-.08-.64-.32-.72a.48.48 0 0 0-.16 0h.08zm-73.28.32c-.48 0-.8.64-.32 1.44.48.96 1.36 2.08 1.76 2.8.4.64 1.12.16.64-.64-.48-.8-.64-1.84-1.28-3.04a.8.8 0 0 0-.8-.56zm90 0c-.24 0-.56.16-.8.56-.56 1.2-.8 2.16-1.2 3.04-.48.8.16 1.28.56.64.4-.72 1.28-1.84 1.76-2.8.48-.8.16-1.44-.32-1.44zM4.8 47.6c-.48 0-.64.96-.16 1.6a15.36 15.36 0 0 0 2.08 2.16c.64.64.8-.16.48-.8L5.76 48.4c-.4-.56-.72-.8-.96-.8zm140.72 0c-.24 0-.56.24-.88.8l-1.52 2.16c-.32.64-.16 1.44.56.8a15.2 15.2 0 0 0 2.08-2.16c.48-.64.32-1.6-.24-1.6zm-136.64.8c-.48 0-.8.32-.4 1.04L10 52.48c.4.8 1.6 1.04 1.12-.16l-1.04-3.04c-.24-.56-.8-.8-1.2-.8v-.08zm132.64 0c-.48 0-1.04.32-1.28.88l-.96 3.04c-.48 1.2.72.96 1.12.16.4-.8 1.04-2 1.44-3.04.4-.72.08-1.04-.32-1.04zm-140.48.32c-.64 0-.64.56-.08.96.72.56 1.6 1.12 2.4 1.84 1.04.8 1.36 0 .8-.64-.48-.64-.96-1.28-2.32-2-.32-.16-.56-.16-.8-.16zm148.24 0c-.16 0-.48 0-.8.16-1.28.72-1.84 1.36-2.4 2-.48.72-.08 1.44.88.64.8-.72 1.76-1.28 2.4-1.84.64-.4.56-.96 0-.96h-.08zm-87.68.56c-.4 0-.64.4-.56.96l.8 2.88c.16.88 1.2.88 1.04 0-.16-.8-.24-1.84-.56-3.12-.08-.48-.32-.72-.64-.8a.48.48 0 0 0-.08 0v.08zm27.04 0c-.24 0-.48.24-.64.8-.32 1.2-.4 2.24-.56 3.12-.16.8.88.8 1.04-.08l.8-2.88c.16-.56-.16-.96-.48-.96a.48.48 0 0 0-.16 0zm-51.2-1.6c-.24 0-.4.56-.16 1.36a20.8 20.8 0 0 1 1.28 7.2c-.24.96-.8 1.04-1.52.8a15.04 15.04 0 0 1-2.24-1.36c-.64-.4-1.36.08-.4.88 4.8 4 8.24 8.56 9.6 14.08.16 1.12.88 1.28.72 0-1.12-6.96-1.36-12.72.32-16.24.64-1.36 0-2.64-.96-.48-.72 1.44-1.76 2-2.64.8a38.32 38.32 0 0 1-3.2-6.16c-.16-.56-.4-.8-.64-.88a.24.24 0 0 0-.08 0h-.08zm75.28 0c-.24 0-.48.32-.64.8-.56 1.6-2.32 4.96-3.2 6.24-.88 1.28-1.92.64-2.56-.8-1.04-2.16-1.6-.88-1.04.48 1.68 3.52 1.44 9.28.4 16.24-.24 1.28.48 1.12.8 0a25.92 25.92 0 0 1 9.44-14.08c.96-.8.24-1.28-.4-.8a14.4 14.4 0 0 1-2.24 1.2c-.8.32-1.28.24-1.52-.8-.16-.96.16-3.12 1.36-7.2.16-.64 0-1.2-.24-1.28a.24.24 0 0 0-.16 0zm-99.6 1.92c-.4 0-.8.32-.56.96.32 1.12.96 2.24 1.2 2.88.24.72.96.4.8-.56l-.4-2.48c0-.48-.56-.8-1.04-.8zm124.08 0c-.48 0-.96.32-1.04.8l-.32 2.48c-.16.96.56 1.28.8.56.16-.64.8-1.76 1.12-2.88.24-.64-.08-.96-.56-.96zM28.16 48.24c-.48-.08-.56 1.2-.16 1.76l2.24 2.48c.64.8 1.04.08.64-.56l-2.08-3.04c-.24-.4-.48-.64-.64-.64zm94 0c-.16 0-.4.24-.64.64l-2.08 3.04c-.4.64 0 1.36.72.56l2.16-2.48c.4-.56.4-1.84-.16-1.76zm-105.6 3.2c-.32 0-.56.16-.4.8.16.96.4 1.6.64 2.48.24.8.8.72.8-.08l-.24-2.56a.88.88 0 0 0-.8-.72v.08zm117.2 0a.8.8 0 0 0-.8.64l-.24 2.56c0 .8.64.96.8.08l.72-2.4c.16-.72-.16-.96-.48-.96v.08zM27.04 52.56c-.48 0-.88.56-.32 1.28.88 1.2 1.92 2 2.32 2.4.32.48 1.2.32.64-.56l-1.84-2.8c-.16-.32-.48-.4-.8-.32zm96 0c-.16 0-.4.08-.48.32l-1.92 2.8c-.56.88.32 1.04.72.64.32-.48 1.36-1.28 2.32-2.48.56-.8.08-1.28-.4-1.28a.72.72 0 0 0-.16 0h-.08zM10.48 55.84c-.32 0-.48.32 0 1.04A13.6 13.6 0 0 1 13.12 62c.08 1.12-.4 1.12-.88 1.12-1.52 0-2.24-1.12-3.52-1.44-1.36-.24-1.6.4-.64 1.12a42.72 42.72 0 0 1 11.76 11.04c.8 1.52 1.84 2 1.28.64A18.96 18.96 0 0 1 19.2 64.4c.4-2.24.96-3.68.88-4.96 0-1.2-.8-1.12-1.04 0l-.8 2.24c-.32.4-1.44.64-2.4-.72a38.4 38.4 0 0 0-4.48-4.64c-.24-.24-.56-.4-.8-.48h-.08zm129.36 0c-.24 0-.56.16-.88.48a38.56 38.56 0 0 0-4.4 4.64c-1.04 1.36-2.16 1.12-2.4.8a9.6 9.6 0 0 1-.8-2.32c-.32-1.12-1.04-1.2-1.12 0 0 1.28.48 2.72.88 4.96.4 2.24 0 5.76-1.84 10.08-.64 1.36.48.8 1.28-.64a42.4 42.4 0 0 1 11.68-11.04c.96-.72.8-1.36-.56-1.12-1.36.32-2.08 1.44-3.52 1.44-.48 0-1.04 0-.96-1.12.08-1.04 1.44-3.52 2.64-5.12.48-.8.4-1.04 0-1.04z" fill="#000" fill-rule="nonzero"/><path d="M17.68 82.16l1.6 4.88m1.6-5.84l1.44 4.96m2.08-5.6l.96 5.12M27.6 80l1.04 5.04m3.04-5.44l.8 5.12m3.6-5.12l.88 5.04m3.44-6.48l.64 5.12m3.36-4.88l.64 5.12m3.28-5.6l.64 5.12m3.2-5.6l.4 5.2m3.84-5.2l.32 5.2m3.52-5.44l.24 5.2m3.92-5.44l.24 5.12m4.56-5.28l.24 5.2m63.2.16l-1.6 4.88m-1.6-5.84l-1.36 4.96m-2.08-5.6l-.96 5.12M122.8 80l-1.04 5.04m-3.2-5.44l-.8 5.12m-3.52-5.12l-.88 5.12M110 78.16l-.64 5.12m-3.44-4.88l-.64 5.12m-3.2-5.6l-.72 5.12m-3.2-5.6l-.4 5.2m-3.84-5.2l-.32 5.2m-3.44-5.44l-.24 5.2m-4-5.44l-.16 5.12m-4.64-5.28l-.16 5.2m-5.76-5.6v5.76" stroke="#000" stroke-width="1.2" fill="#FFD83D" fill-rule="nonzero"/></g></g></g></svg>