<svg width="800" height="480" xmlns="http://www.w3.org/2000/svg"><g fill="none" fill-rule="evenodd"><path fill="#FFB700" d="M0 0h800v480H0z"/><path fill="#FF5B00" d="M33.375 240l110-213.3h110v426.6h-110z"/><path fill="#005641" d="M33.375 26.7h110v426.6h-110z"/><path fill="#8D2029" d="M286.625 26.7H770v426.6H286.625z"/><path d="M724.125 408.6s4.5 7.3 9.5 10.4c7.5 4.4 22.5 4 29.125 9.3 7.625 6.1-.625 14.2-.625 15l.5 4.2s-5.25 0-7.5.3c-3.25.4-4.5 2.6-10.75 2.3-15.375-.8-14.75-12-15.625-21.5-.75-3.6-2.5-8.4-3.625-12-.875-3-1-8-1-8zm-391.625 0s-4.5 7.3-9.5 10.4c-7.5 4.4-22.5 4-29.125 9.3-7.625 6.1.625 14.2.625 15l-.5 4.2s5.25 0 7.5.3c3.25.4 4.5 2.6 10.75 2.3 15.375-.8 14.75-12 15.625-21.5.75-3.6 2.5-8.4 3.625-12 .875-3 1-8 1-8zM724.125 71.4s4.5-7.3 9.5-10.4c7.5-4.4 22.5-4 29.125-9.3 7.625-6.1-.625-14.2-.625-15l.5-4.2s-5.25 0-7.5-.3c-3.25-.4-4.5-2.6-10.75-2.3-15.375.8-14.75 12-15.625 21.5-.75 3.6-2.5 8.4-3.625 12-.875 3-1 8-1 8zm-391.5 0s-4.5-7.3-9.5-10.4c-7.5-4.4-22.5-4-29.125-9.3-7.625-6.1.625-14.2.625-15l-.5-4.2s5.25 0 7.5-.3c3.25-.4 4.5-2.6 10.75-2.3 15.375.8 14.75 12 15.625 21.5.75 3.6 2.5 8.4 3.625 12 .875 3 1 8 1 8z" stroke="#000" stroke-width="1.1" fill="#FFB700"/><g stroke="#000" stroke-width="5.6"><path d="M454.375 339.8l2.875-1.4 1.25 1.4c1.625 1.8 6.25 1.7 9.25 0l2.375-1.5 2 1.4c2.5 1.9 7.25 1.9 10.375 0 2.125-1.2 2.5-1.3 3.75-.3.875.6 3.375 1.2 5.5 1.5 4 .4 4 .4 6.25-2.4 2-2.3 2.25-3.2 1.875-5.5a47.66 47.66 0 0 1-.75-5.3c-.25-2.6-.125-2.6 4.5-4a73.804 73.804 0 0 0 6.75-2c1.875-.9 7.125-5.8 7.125-6.8 0-.2-2-.6-4.5-.8-10-1-11.625-5.2-5.125-13 10.375-13 16.75-25.5 16.75-33.4 0-3.6.375-4.8.875-4 2.375 3.1-1.875 16.4-8.125 26l-2.5 3.8 2.375-.4c1.25-.3 9.25-3 17.5-6 22.75-8.2 30.5-9.8 45.25-9.3 12.375.4 17.5 2.3 26.25 9.6 4.625 4 9.125 6.7 17.25 10.8 17.25 8.6 18 9.4 18.875 19.6.875 10.3.375 10.9-9.375 12.6-8.375 1.5-13.625 4.6-15 9-.75 2.2.875 2.3 5 .1l3.125-1.6 1.375 1.6c1.875 2.1 5.625 2.1 8.75 0l2.5-1.5 2.5 1.5c3.75 2.5 8.75 1.9 10.25-1.2.25-.5 1-.4 2.5.7 2.875 2 10 2.8 10.75 1.2.25-.6-.25-2-1.25-3.2-4.125-5-5.5-7.3-5.5-10 0-3.8 1.25-5.7 6.75-8.7 6.5-3.8 8.5-8.6 3.5-8.6-3 0-6.125-2.2-8.125-5.7-4-7.2-3.125-15.2 2.875-28.6 4.6-7.884 6.908-16.5 6.75-25.2 0-7.4-.25-8.6-2.25-12.7a44.063 44.063 0 0 0-5.75-8.1l-3.5-3.7 4.375-3c13.5-8.9 10.75-23.5-5.5-29.1-5-1.8-6.25-1.9-15-1.9-5 0-13.125.6-17.5 1.3a152.778 152.778 0 0 1-17.75 1.2c-8.5 0-10-.2-13.25-1.6-3.375-1.4-4-2.1-4.625-5.5-.122-.65-.636-1.211-1.375-1.5-1.25-.3-6.5 3.4-7.25 5-.5.9-.75.8-1.875-.3a12.936 12.936 0 0 1-2.5-3.6c-1.25-3.3.375-5.7 5.25-7.6l3.75-1.4-2.25-1.1c-4.5-2.3-12.25-.7-15 3-.875 1-1.75 2-2 2s-1.75-1-3.25-2.3c-5.875-4.6-3.875-11.4 4-13.4 4.125-1.1 7.875-.3 8.625 2 1.25 3.3 4.75-1.1 4.125-5.2-.375-2.7-.375-2.8 2-2.8 3.25 0 10 3.4 12.25 6 2.5 3.1 2.25 8-.5 11.6l-2.125 2.8 2.875-.4c4-.7 8-2.7 10-5.2 2.135-3.225 2.319-7.053.5-10.4-1.875-2.7-1.625-3.1 1.125-2.2 4.5 1.5 7 3.2 8.75 6.1 1.75 2.6 1.875 3.2 1 6-.599 1.705-1.526 3.324-2.75 4.8-1.5 1.6-1.625 1.9-.375 1.9 2.25 0 6.75-1.7 8.375-3 .875-.8 2.125-2.5 2.75-4l1.25-2.5 1.25 2c1.875 2.7 5.625 5.2 10.125 6.8 4.875 1.6 6.875 1.7 4.375.2-1.75-1-5-8.5-3.875-9.2 5.395 2.417 10.321 5.448 14.625 9C658 185.3 662.5 187 669 187c8.375 0 13.25-5.8 9.5-11.3-2.125-3.2-7-3.7-10-1-1.25 1.3-1.625 2.3-1.25 3.7.5 1.6.375 1.8-1.5 1.8-2.5 0-7.25-2.5-15.75-8.2-11.831-8.146-25.432-14.484-40.125-18.7A109.534 109.534 0 0 0 579.5 152c-8 1.2-17.5 4.9-22.75 8.8-9.125 7-9.25 16.3-.375 24.8l2.5 2.4-1.625 2.2c-2.5 3.224-2.303 7.34.5 10.4 1.25 1.4 2.5 2.5 2.875 2.5.25 0 .5-.9.625-2 .25-2.7 1.75-4.5 4.25-5.2 2.25-.7 3.75-.3 14 3 10.875 3.4 28.75 3.6 47.75.6a66.224 66.224 0 0 1 25 .2c9 3 11 10.7 4.5 16.5-2.875 2.6-5.5 3.6-14.625 5.6a84.327 84.327 0 0 1-24.375 1.5c-13.5-.1-18.375.1-23.75 1-6.125 1-9.75 1.1-27.25.8l-20.375-.4 2.25 1.4a27.99 27.99 0 0 0 3.875 2.3c1.625.7 1.5.8-.75 1.5-1.25.4-4.25.7-6.625.7H541l-.5 2.8a8.045 8.045 0 0 0 0 4c.5 1 .25 1.2-1 .8-.875-.3-3.25-.8-5.375-1.1a39.612 39.612 0 0 1-6.25-1.6c-2.375-1-2.625-1-3.5.3-.75 1-7.75 5.2-8.75 5.2-.452-2.594-1.378-5.121-2.75-7.5-1.25-2.1-2.375-4.5-2.75-5.2-.375-1.1-.625-1.2-1.25-.3-.375.5-.875 2-1.25 3.2-.438 1.62-1.197 3.173-2.25 4.6L503.5 238l-1.25-1.9c-1.25-2-3.25-4.2-4-4.2-.25 0-.625.6-.875 1.5-.625 1.6-5.5 6.3-6.75 6.3-.375 0-.75-1.3-.75-3 0-1.5-.375-2.9-.875-2.9s-.875.5-.875 1c0 1.2-4.125 5-5.625 5-.5 0-1.5.4-2.125 1-1.5 1.3-2.75 1.1-2.125-.4a7.311 7.311 0 0 0-.5-3.8l-1.25-3.2c-.25-.5-1.75-.3-5 .5-5 1.3-6.75 1-4.125-.6 1-.6 2.5-2.7 3.25-4.6.875-2 2.125-3.7 2.75-3.9.875-.2.875 0-.25 1.2-.724.76-1.196 1.655-1.375 2.6 0 .5-.625 1.8-1.25 2.9-.75 1-1.25 2-1.125 2.1.125.1 2.125-.5 4.375-1.3l4-1.6v1.4c0 .8.5 2.8 1.125 4.5l1.125 3 2.75-1c2.75-1 5.375-4.6 5.375-7.5 0-1.4 1-1.2 1.5.3 0 .4.75 2.1 1.25 3.7l1.25 2.8 1.875-1.8c1.125-1 2.375-3 2.875-4.3 1-2.4 2.5-3.5 2.5-1.7 0 1.2 4.25 5.8 5 5.4.5-.2 1.25-1.9 1.875-3.8 1.25-4 3.125-6.6 4.375-6 .5.2.625.6.375 1-.25.2.75 2.8 2.25 5.6a2346.74 2346.74 0 0 1 3.25 6.3c.5 1 1 1 4.125-1.3 1.875-1.4 3.75-2.9 3.875-3.4.375-.8.75-.7 2.5.2 3.685 1.558 7.723 2.51 11.875 2.8.25-.2.5-2 .5-4l.125-3.7 2.5.4c1.25.3 4.125.3 6.25 0l3.75-.4-3.375-2c-1.875-1-3.75-2.3-4.25-2.9-.375-.6-2.125-1.2-4-1.3-5.125-.4-14.25-4.4-14.25-6.4 0-.4 1.25.3 2.75 1.4 3.5 2.5 8.25 4 12.5 4h3l-1.875-2c-1.336-1.55-2.193-3.333-2.5-5.2-.25-3-.625-3.4-4.5-5.5a42.855 42.855 0 0 1-6.25-4.3l-2.125-1.9-1.125 2.3c-.625 1.3-1.25 2.3-1.625 2.3-.25 0-1.5-.8-2.5-1.7a8.703 8.703 0 0 0-2.5-1.6c-.375 0-1.25 1.2-2.25 2.7l-1.75 2.7-1.25-1.5a26.486 26.486 0 0 0-3.75-3.4c-1.5-1-2.125-1.8-1.625-1.8s2.125 1 3.75 2.3l2.75 2.3 1.25-1.7c.722-1.178.942-2.513.625-3.8-.5-1.8-.375-1.9.375-.7a18.556 18.556 0 0 0 3.75 3l2.75 1.8 1.875-2.7c1.875-2.8 1.875-2.8 2.625-1.1 1.25 2.1 9.375 7.5 16.25 10.6 1.25.5.75-1.1-1.25-5a10.525 10.525 0 0 1-1-4c0-1.8-.625-2.6-3.5-4.4-3.624-1.854-5.94-4.968-6.25-8.4-.375-1.7-1.125-3.5-1.75-4.1-.75-1-1-.4-.75 2.6.25 2.1-.125 4.7-.75 5.8l-1 2-.75-1.7c-.5-.9-2.5-2.5-4.375-3.5s-3.25-2-3-2.2c.25-.2 2.25.7 4.375 2 3.375 2.1 4 2.3 4.5 1.4.5-1 0-5.6-1-8.8-.5-1.6-.5-1.6 2 .4 1.75 1.4 2.75 3.2 3.625 6.2 1 3.8 1.5 4.5 5.875 7.6 2.625 1.9 5 3.3 5.125 3.2.25-.2.5-5 .75-10.8.5-11.1 0-13.8-3.375-17.2l-1.75-1.8 2.75-2.3c3.08-2.357 5.14-5.44 5.875-8.8l.5-2.7-3 2.3c-2.5 1.9-3.75 2.3-6.625 2.3s-4-.4-5.875-2c-2.92-2.25-6.481-3.897-10.375-4.8-1.5-.4-2-.2-2 .6 0 .6-.75 2.2-1.75 3.7l-1.75 2.6-3.75-3c-2.375-1.7-5-3.2-7.125-3.6-5.125-1-5.375-1-5.375 2.1 0 4.7-2.5 5.6-7 2.5-3.5-2.4-6.25-3-12.875-2.3l-5 .4.875 1.8c.75 1.5.625 2.2-1 3.9-2.625 2.8-6 4-11.25 4-2.5 0-5.5.4-6.75.9s-4.5 1-7.125 1.2c-2.5.2-5.375.6-6.25.8-1.25.4-1.25 0-.875-2.2.625-3.4-2.5-6-7.125-6-6.125 0-8.875 4.4-6.5 10.2a37.83 37.83 0 0 1 1.25 3.8c1.642 2.5 3.845 4.738 6.5 6.6 3.25 2.6 6.25 5.3 6.75 6 1.006 1.043 2.286 1.896 3.75 2.5l2.75 1.2-.375-2.4c-.375-2.6.25-3 2-1.1.625.6 2.25 1.7 3.5 2.3 2.125 1 2.5 1 2.5.2 0-.6.375-1.9.875-2.9l.875-1.8 1.625 2.5c.875 1.4 3.75 4.5 6.375 7 5.125 4.7 8.375 10 6.75 11.2-.75.5-2.5.5-6.25-.1-2.75-.4-6.25-.7-7.75-.5-2.875.3-3.125 0-1.25-1.8 1.875-2 1.5-2.3-2.25-2.3-4.375 0-15.25-1.7-19.5-3-4-1.3-5-1-6.25 2.1l-2.125 5.6-1.25 3 4.5-.3a56.788 56.788 0 0 0 6.875-1 9.254 9.254 0 0 1 2.75-.3c.25.1-.375 1.3-1.25 2.7l-1.75 2.4 2.75-.4c1.5-.3 3.75-.9 5-1.4 2.25-.8 2.5-.8 4.25 1.5 2.125 2.7 3.75 2.6 4.125-.3.375-3 1.625-2.6 4 1.4 2.25 3.8 4.5 5.2 5 3 .125-.8 1.25-2 2.625-2.8 2.75-1.5 4.75-1 5.875 1.3 1.25 2.5-1.5 5-9.25 8.8-14.545 6.424-24.558 17.868-27.125 31-2.375 11.8 5 24 19.5 32.9 7 4.2 18.125 8.6 17.375 7-3-7.3-2.875-21 .125-23.3.5-.4.375 1-.375 3.1-2.5 7.9-1.25 14.1 5 28.7 5.5 13.2 4.75 18.9-3.25 22.6-2.5 1.2-4.125 1.4-11 1.3-7.5 0-8.375 0-10.75 1.6-2.872 2.346-4.752 5.354-5.375 8.6 0 1.3 1.75 1.1 5-.4h.125z" fill="#FFB700"/><path d="M575.625 339.5l3.125-1.6 2.125 1.6c2.75 2.1 6.125 2 8.75-.1 1.25-1 2.25-1.6 2.375-1.5l1.125 1.6c.625.9 2 1.3 4.5 1.5 2.875.1 3.75 0 5-1.4l1.25-1.7 3.125 1.6c8.5 4.4 13-.2 9.125-9.3-1.875-4.6-.75-7.2 5.375-13 2.625-2.5 4.75-5.2 4.75-6 0-1.1-.5-1.3-4-1.2-3.25 0-4.25-.3-6-1.8-2.875-2.5-2.625-5.4.5-8.6l2.5-2.5-4.5-2.4a71.971 71.971 0 0 1-10-7.1c-5.51-5.203-13.38-8.44-21.875-9l-5.875-.5v3.6c0 4.5 2.75 8.9 10 16.3 8.25 8.4 8.75 9.7 9.125 20.7l.375 9.3-2.5 1.8c-2.125 1.6-3 1.9-10 2.2-6.625.3-8.125.6-10 2-2.194 1.28-3.71 3.17-4.25 5.3-.375 1.5-.25 1.8 1.125 1.8.875 0 3-.7 4.75-1.6zm-177.75-24c.756-.888 1.189-1.927 1.25-3 0-1 .75-1.4 4-1.8l3.875-.4-2.5-1.7c-3.125-2-3.5-3.5-.75-3.5s7.25-2.2 8-3.9c.375-.8 0-1.8-.5-2.3-1.5-1.4-4.375-1.2-4.875.4-.625 1.6-1.5 1.6-3.75 0-3.125-2.5-3.25-7.6 0-10.6 1.375-1.4 1.375-1.4-.5-2.9-2-1.6-3.5-4.6-2.5-5.4.25-.2 1.875 0 3.5.5 2.5.6 3.375.6 4.375 0 2.875-1.9-.25-4.3-5-3.7-2 .2-2.75 0-3-.8-.25-.6-1.875-1.4-3.75-1.8-3.375-.7-3.375-.7-3.375 1.2 0 2-1.5 2.4-4.25 1.1-2.25-1-4.375-.2-4.375 1.7 0 1.8 2.125 2.6 6.25 2.4 3-.1 3.125 1.7.25 4.3l-2.125 2 1.625 1.9c2.5 2.8 2.25 7.5-.375 9.9l-2.125 1.8-1.375-1.5c-2-2-4.625-1.9-5.375.3-.375 1.4 0 2 2.25 3.6 1.5 1 3.75 1.8 4.875 1.8 2.875 0 2.75 1.9-.25 3.7l-2.5 1.5 3.75.4c2 .3 3.75.7 3.75 1 0 1.3 2.5 5.2 3.25 5.2.5 0 1.5-.7 2.25-1.5v.1z" fill="#FFB700" fill-rule="nonzero"/><path d="M445.625 298.9c3.375-1 10.625-6 10.625-7.1 0-.4-2-2.2-4.5-4-5-3.6-10.625-9.9-12.125-13.5-.75-2-4.375-5.2-14.625-13.2l-13.625-10.5-3.875.8c-2.25.4-4.875.8-5.875.8-1.875 0-1.875 0 .625 1.6l2.5 1.6 3.75-1.6c3.375-1.6 3.5-1.6 3.875-.3.25.7-.25 2-1.25 2.9-.875.9-1.375 2-1.25 2.3.375.3-.5 1-1.875 1.6-2.5 1-4.375 4.3-2.375 4.3 1.875 0 5.875-4 5.375-5.3-.25-.7 0-1.4.25-1.6 1.625-.7 1.5 2.4 0 4-1 .8-1.5 1.8-1.25 2.2.25.3-.625 1-2 1.6-2.5 1-4.375 4.3-2.375 4.3s5.875-3.8 5.5-5.2c-.25-.7-.25-1.5.125-1.7 1.125-.4 1.625 2 .75 3.2a1.903 1.903 0 0 0 0 2.2c.875 1.3 0 3.7-1.625 4.5-.625.3-.25 1 1.5 2 2.5 1.4 2.5 1.6 2.5 8 0 5.4.25 6.8 1.5 7.7 1.25 1 1.5 1 1.5 0s2.5-2.4 4.375-2.4c.625 0 4.25 2.5 8.125 5.5s8 5.7 9.125 5.8l2.75.4c.375 0 2.125-.3 3.875-1v.1zM404 272.8c0-1.7-4.5-3.6-9.875-4-4.375-.5-4.375-.4-4.375 1.3 0 1.4.625 2 3.75 3 4.75 1.7 10.5 1.5 10.5-.3z" fill="#FFB700" fill-rule="nonzero"/><path d="M408.875 272.6c2.25-1.6 3.25-3.4 1.875-3.4-1.5 0-5.5 2.8-5.5 4 0 1.6.75 1.5 3.75-.6h-.125zm-4.625-5.1c.125-1-.625-1.6-2.875-2.5-5-1.7-10.75-2.6-12.125-1.7-2.625 1.7-.875 3.9 3.25 4.3 1.75.1 4 .5 5.125.9 3.25 1 6.25.5 6.625-1zm0-5.3c.25-1.3-.875-1.8-10-4.4-6.875-2-9.875-1-7.625 2.3.75 1.1 2 1.6 4.875 2 2.125.2 5 .7 6.375 1.1 3.75 1 6 .6 6.25-1h.125zm4.5-4.9c1.375-1.1 2.5-2.4 2.5-3 0-1.5-5.375 1.3-6.125 3.3-.75 2.3.625 2.2 3.75-.3h-.125zm-4.5-.3c.25-1.6-3-3-9.5-4.1-4.875-.9-7-.4-6.625 1.4.25 1 1.875 1.7 6.25 2.8 7.375 1.8 9.5 1.8 9.875-.1zm6.25-7.4c8.5-3 9.125-10.5 1.25-12.5-3.25-.8-5.25-.3-6.5 1.4-1 1.4-.375 3.8.875 3.8.5 0 .875.5.875 1 0 2.7-12.75 3.8-18 1.7-1.875-.7-2.5-2.7-1.125-2.7 1.25 0 2-2 1.375-3.3-.75-2-3.25-2.6-6.625-1.8-7.875 1.6-7.625 9 .375 12 8.85 2.599 18.537 2.74 27.5.4z" fill="#FFB700" fill-rule="nonzero"/><path d="M405.375 243.8c.5-.4.25-1-.5-1.4-1.75-1.1-1.625-2.8.25-4.7 1.5-1.4 1.625-3.6 2.125-25.1.875-37.1 4.375-65 8.875-71.8 1.875-2.6 1.625-2.6-3.125 0-6.231 3.473-11.263 8.152-14.625 13.6-7.75 11.5-10.375 27-10.375 60.2 0 18.8.125 21.3 1.5 23 1.25 1.8 1.25 2.4.5 4.2-.625 1.1-.875 2.3-.625 2.5 1.75 1.3 14.25 1 16-.5zm70.125-35.4c.375-.3-.25-2-1.25-3.6-1.5-2.6-2.125-3-4.25-3-9.995-.695-19.743-2.865-28.75-6.4-6.375-2.3-8.75-2.8-9.375-2.2-2 1.5 1.25 5 6.25 6.9 7.358 2.121 15.065 3.368 22.875 3.7 3.375 0 3.5 0 1.5 2.3l-1.25 1.6H465l6.25.6c3.75.7 3.75.7 4.25.1z" fill="#FFB700" fill-rule="nonzero"/><path d="M515 225.1c0-1-3.625-3.5-7.125-5.2-2.875-1.3-3.375-1.4-3.375-.3 0 1.6-1.75 5.7-2.5 5.7-.375 0-1-.8-1.25-1.7-.375-1-1.75-3-3.125-4.3l-2.5-2.5-1.75 2.3c-1.75 2.2-4.875 4.3-6.25 4.3-.25 0-.375-1.2 0-2.5.125-1.6 0-2.8-.625-3-.5-.3-1-.2-1 .2 0 .8-4.25 4.6-5 4.6-.5 0-1-1-1.25-2.4l-1-4.8c-.25-1.2.375-.4 1.25 2l2 4.1 2-2.5c.905-1.033 1.582-2.183 2-3.4 0-.5.375-.7.875-.5.5.2 1.125 1.9 1.375 3.7l.625 3.4 2.25-2a31.187 31.187 0 0 0 3.25-3.2c.875-1.2 1-1.2 2.875 0 1 .8 2.625 2.5 3.625 3.9s1.875 2.4 2 2.3l.75-3.2.5-3c.125-.5 6.75 3 9.25 4.7 1.5 1.1 3 1.9 3.25 1.7.25-.2.5-1.8.5-3.7 0-2.8-.375-3.6-2.5-5.1-2.5-1.8-2.5-1.8-3.5-.5-1.25 1.7-2.625 1.7-2.625 0 0-1.2-4.75-5.9-5.875-5.9-.375 0-1.375 1-2.25 2.3-.875 1.3-1.875 2.3-2.125 2.3-1.25 0-7.875-6-7.875-7 0-.8.5-.6 1.625.8a23.181 23.181 0 0 0 3.875 3.6c2.5 1.8 3.5 1.4 4.5-2.1.375-1 .875-1.8 1.25-1.8 1 0 6.75 4.9 7.5 6.5l.875 1.6.625-1.8c.75-2.2 1.625-2.2 2.875-.2.5.8 3 2.6 5.5 3.8l4.625 2.4.875-2.4c.5-1.3 1.25-2 1.5-1.6.5.5-.75 4.5-1.625 5.3 0 .1-1.625-.6-3.25-1.5l-3.125-1.8v3.2c0 1.7-.25 3.8-.5 4.6-.625 1.6-2.125 2-2.125.6H515zm-23.125-25.4c-5.5-3.6-6.25-4.4-6.25-6.2l.125-1.8.375 1.7c.25 1 1.75 2.6 3.5 3.8l3.25 2 1.875-1.8c1.125-1 2-2.2 2-2.6 0-1.2.25-1.1 4 1.5 3.25 2.3 3.375 2.3 3.75.8.375-.8.25-2.4 0-3.5-1.25-3-1-3.4.625-1.6l3 2.8c1.25 1.1 1.375 1.1 1.875-.3.375-.9.625-2.4.625-3.4v-1.9l2.875 2.7c2.875 2.6 3.125 2.7 3.875 1.4.625-.7 1-2.4 1-3.7 0-1.8.25-2.2.75-1.6 1 1.2.375 4.2-1.375 6.8l-1.25 2-1.625-2.1c-2.125-2.6-2.875-2.6-4.125.2-1.25 2.7-2.125 2.9-3.375.8-.75-1.3-1-1.1-1.5 1.7l-.625 3-3.75-2.3-3.75-2.3-1.875 1.5c-.875.9-1.625 2-1.625 2.4 0 1-1 1-2.375 0zm48.75-13.6c-1.875-1.4-3.25-2.8-3-3 .375-.3.625-.4.75-.2a77.733 77.733 0 0 0 3.75 3c4.25 3.6 3.375 3.7-1.375.2h-.125zm-65-5.4c-1.75-2-1.625-3.2.625-5.4 1.5-1.5 2.25-1.7 5-1.4 1.875.1 5.75 1.4 8.625 2.8 4.155 1.986 8.91 3.023 13.75 3l-2.125-2.8c-2.75-3.3-2.75-3.7.5-1.7 3.25 2.1 7.125 2.7 15.875 2.5l4.25-.1-2.5-2c-3.375-2.7-2.375-3 1.5-.3 3.5 2.5 3.375 2.7-4.25 3.3-3.18.257-6.39.088-9.5-.5-4.25-1-4.5-.9-3.625.2.5.7 1.25 1.2 1.625 1.2.5 0 .875.4.875.8 0 1.3-9.25.1-13.75-1.6-10-4.1-11.25-4.5-13.75-3.9-1.345.414-2.426 1.243-3 2.3-1.625 3.3 4.25 5.9 6.625 3 .75-.9.625-1.4-.625-2.5-1.75-1.4-1.5-1.6.75-1 1.625.5 1.75 3.6.25 4.8-1.625 1.3-5.625 1-7.125-.7z" fill="#000" fill-rule="nonzero"/><path d="M515.5 172.6c-1.25-1-.25-1.2 5.375-1.3 7-.1 11.25-1 16.25-3.6 4-2 5.125-1.6 1.25.5-3.375 2-8.75 3.4-14.125 3.8l-6.375.7c-1 .2-2.125.1-2.5-.1h.125z" fill="#000"/></g><path d="M454.375 339.8l2.875-1.4 1.25 1.4c1.625 1.8 6.25 1.7 9.25 0l2.375-1.5 2 1.4c2.5 1.9 7.25 1.9 10.375 0 2.125-1.2 2.5-1.3 3.75-.3.875.6 3.375 1.2 5.5 1.5 4 .4 4 .4 6.25-2.4 2-2.3 2.25-3.2 1.875-5.5a47.66 47.66 0 0 1-.75-5.3c-.25-2.6-.125-2.6 4.5-4a73.804 73.804 0 0 0 6.75-2c1.875-.9 7.125-5.8 7.125-6.8 0-.2-2-.6-4.5-.8-10-1-11.625-5.2-5.125-13 10.375-13 16.75-25.5 16.75-33.4 0-3.6.375-4.8.875-4 2.375 3.1-1.875 16.4-8.125 26l-2.5 3.8 2.375-.4c1.25-.3 9.25-3 17.5-6 22.75-8.2 30.5-9.8 45.25-9.3 12.375.4 17.5 2.3 26.25 9.6 4.625 4 9.125 6.7 17.25 10.8 17.25 8.6 18 9.4 18.875 19.6.875 10.3.375 10.9-9.375 12.6-8.375 1.5-13.625 4.6-15 9-.75 2.2.875 2.3 5 .1l3.125-1.6 1.375 1.6c1.875 2.1 5.625 2.1 8.75 0l2.5-1.5 2.5 1.5c3.75 2.5 8.75 1.9 10.25-1.2.25-.5 1-.4 2.5.7 2.875 2 10 2.8 10.75 1.2.25-.6-.25-2-1.25-3.2-4.125-5-5.5-7.3-5.5-10 0-3.8 1.25-5.7 6.75-8.7 6.5-3.8 8.5-8.6 3.5-8.6-3 0-6.125-2.2-8.125-5.7-4-7.2-3.125-15.2 2.875-28.6 4.6-7.884 6.908-16.5 6.75-25.2 0-7.4-.25-8.6-2.25-12.7a44.063 44.063 0 0 0-5.75-8.1l-3.5-3.7 4.375-3c13.5-8.9 10.75-23.5-5.5-29.1-5-1.8-6.25-1.9-15-1.9-5 0-13.125.6-17.5 1.3a152.778 152.778 0 0 1-17.75 1.2c-8.5 0-10-.2-13.25-1.6-3.375-1.4-4-2.1-4.625-5.5-.122-.65-.636-1.211-1.375-1.5-1.25-.3-6.5 3.4-7.25 5-.5.9-.75.8-1.875-.3a12.936 12.936 0 0 1-2.5-3.6c-1.25-3.3.375-5.7 5.25-7.6l3.75-1.4-2.25-1.1c-4.5-2.3-12.25-.7-15 3-.875 1-1.75 2-2 2s-1.75-1-3.25-2.3c-5.875-4.6-3.875-11.4 4-13.4 4.125-1.1 7.875-.3 8.625 2 1.25 3.3 4.75-1.1 4.125-5.2-.375-2.7-.375-2.8 2-2.8 3.25 0 10 3.4 12.25 6 2.5 3.1 2.25 8-.5 11.6l-2.125 2.8 2.875-.4c4-.7 8-2.7 10-5.2 2.135-3.225 2.319-7.053.5-10.4-1.875-2.7-1.625-3.1 1.125-2.2 4.5 1.5 7 3.2 8.75 6.1 1.75 2.6 1.875 3.2 1 6-.599 1.705-1.526 3.324-2.75 4.8-1.5 1.6-1.625 1.9-.375 1.9 2.25 0 6.75-1.7 8.375-3 .875-.8 2.125-2.5 2.75-4l1.25-2.5 1.25 2c1.875 2.7 5.625 5.2 10.125 6.8 4.875 1.6 6.875 1.7 4.375.2-1.75-1-5-8.5-3.875-9.2 5.395 2.417 10.321 5.448 14.625 9C658 185.3 662.5 187 669 187c8.375 0 13.25-5.8 9.5-11.3-2.125-3.2-7-3.7-10-1-1.25 1.3-1.625 2.3-1.25 3.7.5 1.6.375 1.8-1.5 1.8-2.5 0-7.25-2.5-15.75-8.2-11.831-8.146-25.432-14.484-40.125-18.7A109.534 109.534 0 0 0 579.5 152c-8 1.2-17.5 4.9-22.75 8.8-9.125 7-9.25 16.3-.375 24.8l2.5 2.4-1.625 2.2c-2.5 3.224-2.303 7.34.5 10.4 1.25 1.4 2.5 2.5 2.875 2.5.25 0 .5-.9.625-2 .25-2.7 1.75-4.5 4.25-5.2 2.25-.7 3.75-.3 14 3 10.875 3.4 28.75 3.6 47.75.6a66.224 66.224 0 0 1 25 .2c9 3 11 10.7 4.5 16.5-2.875 2.6-5.5 3.6-14.625 5.6a84.327 84.327 0 0 1-24.375 1.5c-13.5-.1-18.375.1-23.75 1-6.125 1-9.75 1.1-27.25.8l-20.375-.4 2.25 1.4a27.99 27.99 0 0 0 3.875 2.3c1.625.7 1.5.8-.75 1.5-1.25.4-4.25.7-6.625.7H541l-.5 2.8a8.045 8.045 0 0 0 0 4c.5 1 .25 1.2-1 .8-.875-.3-3.25-.8-5.375-1.1a39.612 39.612 0 0 1-6.25-1.6c-2.375-1-2.625-1-3.5.3-.75 1-7.75 5.2-8.75 5.2-.452-2.594-1.378-5.121-2.75-7.5-1.25-2.1-2.375-4.5-2.75-5.2-.375-1.1-.625-1.2-1.25-.3-.375.5-.875 2-1.25 3.2-.438 1.62-1.197 3.173-2.25 4.6L503.5 238l-1.25-1.9c-1.25-2-3.25-4.2-4-4.2-.25 0-.625.6-.875 1.5-.625 1.6-5.5 6.3-6.75 6.3-.375 0-.75-1.3-.75-3 0-1.5-.375-2.9-.875-2.9s-.875.5-.875 1c0 1.2-4.125 5-5.625 5-.5 0-1.5.4-2.125 1-1.5 1.3-2.75 1.1-2.125-.4a7.311 7.311 0 0 0-.5-3.8l-1.25-3.2c-.25-.5-1.75-.3-5 .5-5 1.3-6.75 1-4.125-.6 1-.6 2.5-2.7 3.25-4.6.875-2 2.125-3.7 2.75-3.9.875-.2.875 0-.25 1.2-.724.76-1.196 1.655-1.375 2.6 0 .5-.625 1.8-1.25 2.9-.75 1-1.25 2-1.125 2.1.125.1 2.125-.5 4.375-1.3l4-1.6v1.4c0 .8.5 2.8 1.125 4.5l1.125 3 2.75-1c2.75-1 5.375-4.6 5.375-7.5 0-1.4 1-1.2 1.5.3 0 .4.75 2.1 1.25 3.7l1.25 2.8 1.875-1.8c1.125-1 2.375-3 2.875-4.3 1-2.4 2.5-3.5 2.5-1.7 0 1.2 4.25 5.8 5 5.4.5-.2 1.25-1.9 1.875-3.8 1.25-4 3.125-6.6 4.375-6 .5.2.625.6.375 1-.25.2.75 2.8 2.25 5.6a2346.74 2346.74 0 0 1 3.25 6.3c.5 1 1 1 4.125-1.3 1.875-1.4 3.75-2.9 3.875-3.4.375-.8.75-.7 2.5.2 3.685 1.558 7.723 2.51 11.875 2.8.25-.2.5-2 .5-4l.125-3.7 2.5.4c1.25.3 4.125.3 6.25 0l3.75-.4-3.375-2c-1.875-1-3.75-2.3-4.25-2.9-.375-.6-2.125-1.2-4-1.3-5.125-.4-14.25-4.4-14.25-6.4 0-.4 1.25.3 2.75 1.4 3.5 2.5 8.25 4 12.5 4h3l-1.875-2c-1.336-1.55-2.193-3.333-2.5-5.2-.25-3-.625-3.4-4.5-5.5a42.855 42.855 0 0 1-6.25-4.3l-2.125-1.9-1.125 2.3c-.625 1.3-1.25 2.3-1.625 2.3-.25 0-1.5-.8-2.5-1.7a8.703 8.703 0 0 0-2.5-1.6c-.375 0-1.25 1.2-2.25 2.7l-1.75 2.7-1.25-1.5a26.486 26.486 0 0 0-3.75-3.4c-1.5-1-2.125-1.8-1.625-1.8s2.125 1 3.75 2.3l2.75 2.3 1.25-1.7c.722-1.178.942-2.513.625-3.8-.5-1.8-.375-1.9.375-.7a18.556 18.556 0 0 0 3.75 3l2.75 1.8 1.875-2.7c1.875-2.8 1.875-2.8 2.625-1.1 1.25 2.1 9.375 7.5 16.25 10.6 1.25.5.75-1.1-1.25-5a10.525 10.525 0 0 1-1-4c0-1.8-.625-2.6-3.5-4.4-3.624-1.854-5.94-4.968-6.25-8.4-.375-1.7-1.125-3.5-1.75-4.1-.75-1-1-.4-.75 2.6.25 2.1-.125 4.7-.75 5.8l-1 2-.75-1.7c-.5-.9-2.5-2.5-4.375-3.5s-3.25-2-3-2.2c.25-.2 2.25.7 4.375 2 3.375 2.1 4 2.3 4.5 1.4.5-1 0-5.6-1-8.8-.5-1.6-.5-1.6 2 .4 1.75 1.4 2.75 3.2 3.625 6.2 1 3.8 1.5 4.5 5.875 7.6 2.625 1.9 5 3.3 5.125 3.2.25-.2.5-5 .75-10.8.5-11.1 0-13.8-3.375-17.2l-1.75-1.8 2.75-2.3c3.08-2.357 5.14-5.44 5.875-8.8l.5-2.7-3 2.3c-2.5 1.9-3.75 2.3-6.625 2.3s-4-.4-5.875-2c-2.92-2.25-6.481-3.897-10.375-4.8-1.5-.4-2-.2-2 .6 0 .6-.75 2.2-1.75 3.7l-1.75 2.6-3.75-3c-2.375-1.7-5-3.2-7.125-3.6-5.125-1-5.375-1-5.375 2.1 0 4.7-2.5 5.6-7 2.5-3.5-2.4-6.25-3-12.875-2.3l-5 .4.875 1.8c.75 1.5.625 2.2-1 3.9-2.625 2.8-6 4-11.25 4-2.5 0-5.5.4-6.75.9s-4.5 1-7.125 1.2c-2.5.2-5.375.6-6.25.8-1.25.4-1.25 0-.875-2.2.625-3.4-2.5-6-7.125-6-6.125 0-8.875 4.4-6.5 10.2a37.83 37.83 0 0 1 1.25 3.8c1.642 2.5 3.845 4.738 6.5 6.6 3.25 2.6 6.25 5.3 6.75 6 1.006 1.043 2.286 1.896 3.75 2.5l2.75 1.2-.375-2.4c-.375-2.6.25-3 2-1.1.625.6 2.25 1.7 3.5 2.3 2.125 1 2.5 1 2.5.2 0-.6.375-1.9.875-2.9l.875-1.8 1.625 2.5c.875 1.4 3.75 4.5 6.375 7 5.125 4.7 8.375 10 6.75 11.2-.75.5-2.5.5-6.25-.1-2.75-.4-6.25-.7-7.75-.5-2.875.3-3.125 0-1.25-1.8 1.875-2 1.5-2.3-2.25-2.3-4.375 0-15.25-1.7-19.5-3-4-1.3-5-1-6.25 2.1l-2.125 5.6-1.25 3 4.5-.3a56.788 56.788 0 0 0 6.875-1 9.254 9.254 0 0 1 2.75-.3c.25.1-.375 1.3-1.25 2.7l-1.75 2.4 2.75-.4c1.5-.3 3.75-.9 5-1.4 2.25-.8 2.5-.8 4.25 1.5 2.125 2.7 3.75 2.6 4.125-.3.375-3 1.625-2.6 4 1.4 2.25 3.8 4.5 5.2 5 3 .125-.8 1.25-2 2.625-2.8 2.75-1.5 4.75-1 5.875 1.3 1.25 2.5-1.5 5-9.25 8.8-14.545 6.424-24.558 17.868-27.125 31-2.375 11.8 5 24 19.5 32.9 7 4.2 18.125 8.6 17.375 7-3-7.3-2.875-21 .125-23.3.5-.4.375 1-.375 3.1-2.5 7.9-1.25 14.1 5 28.7 5.5 13.2 4.75 18.9-3.25 22.6-2.5 1.2-4.125 1.4-11 1.3-7.5 0-8.375 0-10.75 1.6-2.872 2.346-4.752 5.354-5.375 8.6 0 1.3 1.75 1.1 5-.4h.125z" fill="#FFB700"/><path d="M575.625 339.5l3.125-1.6 2.125 1.6c2.75 2.1 6.125 2 8.75-.1 1.25-1 2.25-1.6 2.375-1.5l1.125 1.6c.625.9 2 1.3 4.5 1.5 2.875.1 3.75 0 5-1.4l1.25-1.7 3.125 1.6c8.5 4.4 13-.2 9.125-9.3-1.875-4.6-.75-7.2 5.375-13 2.625-2.5 4.75-5.2 4.75-6 0-1.1-.5-1.3-4-1.2-3.25 0-4.25-.3-6-1.8-2.875-2.5-2.625-5.4.5-8.6l2.5-2.5-4.5-2.4a71.971 71.971 0 0 1-10-7.1c-5.51-5.203-13.38-8.44-21.875-9l-5.875-.5v3.6c0 4.5 2.75 8.9 10 16.3 8.25 8.4 8.75 9.7 9.125 20.7l.375 9.3-2.5 1.8c-2.125 1.6-3 1.9-10 2.2-6.625.3-8.125.6-10 2-2.194 1.28-3.71 3.17-4.25 5.3-.375 1.5-.25 1.8 1.125 1.8.875 0 3-.7 4.75-1.6zm-177.75-24c.756-.888 1.189-1.927 1.25-3 0-1 .75-1.4 4-1.8l3.875-.4-2.5-1.7c-3.125-2-3.5-3.5-.75-3.5s7.25-2.2 8-3.9c.375-.8 0-1.8-.5-2.3-1.5-1.4-4.375-1.2-4.875.4-.625 1.6-1.5 1.6-3.75 0-3.125-2.5-3.25-7.6 0-10.6 1.375-1.4 1.375-1.4-.5-2.9-2-1.6-3.5-4.6-2.5-5.4.25-.2 1.875 0 3.5.5 2.5.6 3.375.6 4.375 0 2.875-1.9-.25-4.3-5-3.7-2 .2-2.75 0-3-.8-.25-.6-1.875-1.4-3.75-1.8-3.375-.7-3.375-.7-3.375 1.2 0 2-1.5 2.4-4.25 1.1-2.25-1-4.375-.2-4.375 1.7 0 1.8 2.125 2.6 6.25 2.4 3-.1 3.125 1.7.25 4.3l-2.125 2 1.625 1.9c2.5 2.8 2.25 7.5-.375 9.9l-2.125 1.8-1.375-1.5c-2-2-4.625-1.9-5.375.3-.375 1.4 0 2 2.25 3.6 1.5 1 3.75 1.8 4.875 1.8 2.875 0 2.75 1.9-.25 3.7l-2.5 1.5 3.75.4c2 .3 3.75.7 3.75 1 0 1.3 2.5 5.2 3.25 5.2.5 0 1.5-.7 2.25-1.5v.1z" fill="#FFB700" fill-rule="nonzero"/><path d="M445.625 298.9c3.375-1 10.625-6 10.625-7.1 0-.4-2-2.2-4.5-4-5-3.6-10.625-9.9-12.125-13.5-.75-2-4.375-5.2-14.625-13.2l-13.625-10.5-3.875.8c-2.25.4-4.875.8-5.875.8-1.875 0-1.875 0 .625 1.6l2.5 1.6 3.75-1.6c3.375-1.6 3.5-1.6 3.875-.3.25.7-.25 2-1.25 2.9-.875.9-1.375 2-1.25 2.3.375.3-.5 1-1.875 1.6-2.5 1-4.375 4.3-2.375 4.3 1.875 0 5.875-4 5.375-5.3-.25-.7 0-1.4.25-1.6 1.625-.7 1.5 2.4 0 4-1 .8-1.5 1.8-1.25 2.2.25.3-.625 1-2 1.6-2.5 1-4.375 4.3-2.375 4.3s5.875-3.8 5.5-5.2c-.25-.7-.25-1.5.125-1.7 1.125-.4 1.625 2 .75 3.2a1.903 1.903 0 0 0 0 2.2c.875 1.3 0 3.7-1.625 4.5-.625.3-.25 1 1.5 2 2.5 1.4 2.5 1.6 2.5 8 0 5.4.25 6.8 1.5 7.7 1.25 1 1.5 1 1.5 0s2.5-2.4 4.375-2.4c.625 0 4.25 2.5 8.125 5.5s8 5.7 9.125 5.8l2.75.4c.375 0 2.125-.3 3.875-1v.1zM404 272.8c0-1.7-4.5-3.6-9.875-4-4.375-.5-4.375-.4-4.375 1.3 0 1.4.625 2 3.75 3 4.75 1.7 10.5 1.5 10.5-.3z" fill="#FFB700" fill-rule="nonzero"/><path d="M408.875 272.6c2.25-1.6 3.25-3.4 1.875-3.4-1.5 0-5.5 2.8-5.5 4 0 1.6.75 1.5 3.75-.6h-.125zm-4.625-5.1c.125-1-.625-1.6-2.875-2.5-5-1.7-10.75-2.6-12.125-1.7-2.625 1.7-.875 3.9 3.25 4.3 1.75.1 4 .5 5.125.9 3.25 1 6.25.5 6.625-1zm0-5.3c.25-1.3-.875-1.8-10-4.4-6.875-2-9.875-1-7.625 2.3.75 1.1 2 1.6 4.875 2 2.125.2 5 .7 6.375 1.1 3.75 1 6 .6 6.25-1h.125zm4.5-4.9c1.375-1.1 2.5-2.4 2.5-3 0-1.5-5.375 1.3-6.125 3.3-.75 2.3.625 2.2 3.75-.3h-.125zm-4.5-.3c.25-1.6-3-3-9.5-4.1-4.875-.9-7-.4-6.625 1.4.25 1 1.875 1.7 6.25 2.8 7.375 1.8 9.5 1.8 9.875-.1zm6.25-7.4c8.5-3 9.125-10.5 1.25-12.5-3.25-.8-5.25-.3-6.5 1.4-1 1.4-.375 3.8.875 3.8.5 0 .875.5.875 1 0 2.7-12.75 3.8-18 1.7-1.875-.7-2.5-2.7-1.125-2.7 1.25 0 2-2 1.375-3.3-.75-2-3.25-2.6-6.625-1.8-7.875 1.6-7.625 9 .375 12 8.85 2.599 18.537 2.74 27.5.4z" fill="#FFB700" fill-rule="nonzero"/><path d="M405.375 243.8c.5-.4.25-1-.5-1.4-1.75-1.1-1.625-2.8.25-4.7 1.5-1.4 1.625-3.6 2.125-25.1.875-37.1 4.375-65 8.875-71.8 1.875-2.6 1.625-2.6-3.125 0-6.231 3.473-11.263 8.152-14.625 13.6-7.75 11.5-10.375 27-10.375 60.2 0 18.8.125 21.3 1.5 23 1.25 1.8 1.25 2.4.5 4.2-.625 1.1-.875 2.3-.625 2.5 1.75 1.3 14.25 1 16-.5zm70.125-35.4c.375-.3-.25-2-1.25-3.6-1.5-2.6-2.125-3-4.25-3-9.995-.695-19.743-2.865-28.75-6.4-6.375-2.3-8.75-2.8-9.375-2.2-2 1.5 1.25 5 6.25 6.9 7.358 2.121 15.065 3.368 22.875 3.7 3.375 0 3.5 0 1.5 2.3l-1.25 1.6H465l6.25.6c3.75.7 3.75.7 4.25.1z" fill="#FFB700" fill-rule="nonzero"/><path d="M515 225.1c0-1-3.625-3.5-7.125-5.2-2.875-1.3-3.375-1.4-3.375-.3 0 1.6-1.75 5.7-2.5 5.7-.375 0-1-.8-1.25-1.7-.375-1-1.75-3-3.125-4.3l-2.5-2.5-1.75 2.3c-1.75 2.2-4.875 4.3-6.25 4.3-.25 0-.375-1.2 0-2.5.125-1.6 0-2.8-.625-3-.5-.3-1-.2-1 .2 0 .8-4.25 4.6-5 4.6-.5 0-1-1-1.25-2.4l-1-4.8c-.25-1.2.375-.4 1.25 2l2 4.1 2-2.5c.905-1.033 1.582-2.183 2-3.4 0-.5.375-.7.875-.5.5.2 1.125 1.9 1.375 3.7l.625 3.4 2.25-2a31.187 31.187 0 0 0 3.25-3.2c.875-1.2 1-1.2 2.875 0 1 .8 2.625 2.5 3.625 3.9s1.875 2.4 2 2.3l.75-3.2.5-3c.125-.5 6.75 3 9.25 4.7 1.5 1.1 3 1.9 3.25 1.7.25-.2.5-1.8.5-3.7 0-2.8-.375-3.6-2.5-5.1-2.5-1.8-2.5-1.8-3.5-.5-1.25 1.7-2.625 1.7-2.625 0 0-1.2-4.75-5.9-5.875-5.9-.375 0-1.375 1-2.25 2.3-.875 1.3-1.875 2.3-2.125 2.3-1.25 0-7.875-6-7.875-7 0-.8.5-.6 1.625.8a23.181 23.181 0 0 0 3.875 3.6c2.5 1.8 3.5 1.4 4.5-2.1.375-1 .875-1.8 1.25-1.8 1 0 6.75 4.9 7.5 6.5l.875 1.6.625-1.8c.75-2.2 1.625-2.2 2.875-.2.5.8 3 2.6 5.5 3.8l4.625 2.4.875-2.4c.5-1.3 1.25-2 1.5-1.6.5.5-.75 4.5-1.625 5.3 0 .1-1.625-.6-3.25-1.5l-3.125-1.8v3.2c0 1.7-.25 3.8-.5 4.6-.625 1.6-2.125 2-2.125.6H515zm-23.125-25.4c-5.5-3.6-6.25-4.4-6.25-6.2l.125-1.8.375 1.7c.25 1 1.75 2.6 3.5 3.8l3.25 2 1.875-1.8c1.125-1 2-2.2 2-2.6 0-1.2.25-1.1 4 1.5 3.25 2.3 3.375 2.3 3.75.8.375-.8.25-2.4 0-3.5-1.25-3-1-3.4.625-1.6l3 2.8c1.25 1.1 1.375 1.1 1.875-.3.375-.9.625-2.4.625-3.4v-1.9l2.875 2.7c2.875 2.6 3.125 2.7 3.875 1.4.625-.7 1-2.4 1-3.7 0-1.8.25-2.2.75-1.6 1 1.2.375 4.2-1.375 6.8l-1.25 2-1.625-2.1c-2.125-2.6-2.875-2.6-4.125.2-1.25 2.7-2.125 2.9-3.375.8-.75-1.3-1-1.1-1.5 1.7l-.625 3-3.75-2.3-3.75-2.3-1.875 1.5c-.875.9-1.625 2-1.625 2.4 0 1-1 1-2.375 0zm48.75-13.6c-1.875-1.4-3.25-2.8-3-3 .375-.3.625-.4.75-.2a77.733 77.733 0 0 0 3.75 3c4.25 3.6 3.375 3.7-1.375.2h-.125zm-65-5.4c-1.75-2-1.625-3.2.625-5.4 1.5-1.5 2.25-1.7 5-1.4 1.875.1 5.75 1.4 8.625 2.8 4.155 1.986 8.91 3.023 13.75 3l-2.125-2.8c-2.75-3.3-2.75-3.7.5-1.7 3.25 2.1 7.125 2.7 15.875 2.5l4.25-.1-2.5-2c-3.375-2.7-2.375-3 1.5-.3 3.5 2.5 3.375 2.7-4.25 3.3-3.18.257-6.39.088-9.5-.5-4.25-1-4.5-.9-3.625.2.5.7 1.25 1.2 1.625 1.2.5 0 .875.4.875.8 0 1.3-9.25.1-13.75-1.6-10-4.1-11.25-4.5-13.75-3.9-1.345.414-2.426 1.243-3 2.3-1.625 3.3 4.25 5.9 6.625 3 .75-.9.625-1.4-.625-2.5-1.75-1.4-1.5-1.6.75-1 1.625.5 1.75 3.6.25 4.8-1.625 1.3-5.625 1-7.125-.7z" fill="#000" fill-rule="nonzero"/><path d="M515.5 172.6c-1.25-1-.25-1.2 5.375-1.3 7-.1 11.25-1 16.25-3.6 4-2 5.125-1.6 1.25.5-3.375 2-8.75 3.4-14.125 3.8l-6.375.7c-1 .2-2.125.1-2.5-.1h.125z" fill="#000"/></g></svg>