<svg width="800" height="480" xmlns="http://www.w3.org/2000/svg"><g fill="none" fill-rule="evenodd"><path fill="#FFF" d="M0 0h800v480H0z"/><path fill="#006" d="M0 0h218.156v218.25H0z"/><path fill="#C00" d="M0 435.844h719.906V480H0z"/><path d="M0 436.313h800V480H0v-43.688zm0-87.094h800v43.312H0V349.22zm0-87.375h800v43.781H0v-43.781zM218.156 0H800v43.594H218.156V0zm0 174.375H800v43.875H218.156v-43.875zm0-86.906H800v43.594H218.156V87.469z" fill="#C00" fill-rule="nonzero"/><path fill="#FFF" d="M155.906 166.406l-47.531-29.062-47.25 29.344 17.531-47.72L31.5 89.532l58.406-.375L108 41.625l18.563 47.438h58.406L138 118.78z"/></g></svg>