<svg width="800" height="480" xmlns="http://www.w3.org/2000/svg"><g fill="none" fill-rule="evenodd"><path fill="#239E46" d="M0 0h800v480H0z"/><path fill="#000" d="M0 0h800v360H0z"/><path fill="#E70013" d="M0 0h800v120H0z"/><path d="M417.42 197.568c-21.625-15.432-51.396-12.132-69.116 7.662-17.72 19.793-17.72 49.747 0 69.54 17.72 19.794 47.491 23.094 69.117 7.662-23.433 23.427-61.42 23.424-84.85-.007-23.428-23.431-23.428-61.419 0-84.85 23.43-23.43 61.417-23.434 84.85-.007zM404.174 240l80.736-26.208-49.92 68.64v-84.864l49.92 68.64L404.173 240z" fill="#FFF" fill-rule="nonzero"/></g></svg>