<svg width="800" height="480" xmlns="http://www.w3.org/2000/svg"><g fill="none" fill-rule="evenodd"><path fill="#00319C" d="M0 0h266.334v480H0z"/><path fill="#FFDE00" d="M266.667 0H533v480H266.667z"/><path fill="#DE2110" d="M533.333 0h266.334v480H533.333z"/><path d="M440.516 320.4l24.17 35c1.398 2 2.696 3.9.699 5.2-1.998 1.3-1.398 6.4 0 8.4 2.697 3.9 5.992 4.5 7.99 3.2l18.377-11.6c1.997-1.2 2.697-4.5 0-8.4-1.498-2-5.993-4.5-7.99-3.2-2.097 1.3-3.496-.7-4.794-2.6l-24.27-35" stroke="#000" stroke-width=".7" fill="#FF1900"/><path d="M449.764 295.44c10.58 12.494 14.26 26.883 8.23 32.002-6.03 5.119-19.606-.871-30.185-13.365-10.58-12.494-14.208-26.927-8.178-32.045 6.03-5.12 19.562.82 30.185 13.364l-.052.044z" stroke="#000" stroke-width="1.685" fill="#A77B3B"/><path d="M342.239 306.1l-21.473 36.7c-1.199 2-2.397 4-4.495 3-2.097-1.2-6.591 1.7-7.79 3.8-2.397 4-1.498 7.2.7 8.4l19.175 10.2c1.998 1.1 5.393.2 7.79-3.8 1.1-2.2 1.399-7.3-.699-8.4-2.097-1.1-.998-3.2.3-5.2l21.373-36.7" stroke="#000" stroke-width=".7" fill="#FF1900"/><path d="M411.352 280.6h-19.575c-.6.6-6.192 35.6-12.185 49-7.29 16.3-29.163 30.7-29.163 30.7s13.083 4 16.978 6.6c1-.3 21.973-4.7 24.37-30.3 2.397 25.6-14.582 37.3-14.582 37.3s24.37 7 24.37 23.3c0-16.3 24.37-23.3 24.37-23.3s-12.186-11.7-14.682-37.3c4.993 25.6 23.47 30 24.469 30.3 3.895-2.6 16.979-6.6 16.979-6.6s-21.873-14.4-29.164-30.7c-5.992-13.4-11.585-48.4-12.185-49zm-82.896-116.7l36.554 11.7c12.085 0 24.37-11.7 24.37-23.4.4-26-9.788-35-12.185-35l4.794-4.6-7.29-7s2.496-12.1 26.866-11.7c24.37.5 24.37 11.7 24.37 23.3 0 11.6-12.186 11.7-12.186 35 0 11.7 12.185 23.4 24.37 23.4l36.554-11.7v116.7H328.356V163.9h.1z" stroke="#000" stroke-width="1.7" fill="#A77B3B"/><path d="M384.469 168.57l2.43 7.017 2.449-7.016 2.43 7.016 4.88-7.016 2.38 7.39 2.498-7.39 3.597 7.39 3.713-7.39 2.431 7.016 2.448-7.016m-19.475-25.627l-4.886 25.679m7.295-25.68v25.68m4.886-25.68v25.68m4.886-25.68l2.409 25.68m2.477-25.68l2.409 25.68" stroke="#000" stroke-width=".5"/><g stroke="#000"><path d="M303.949 93.957c-24.362 11.654-24.362 35.028-24.362 46.682.826 10.601 0 233.282 0 233.282s1.583-13.169 12.18-23.308l12.113-11.655 12.18-11.654c8.947-7.77 12.182-23.374 12.182-35.028v-163.29s0-11.721-24.362-35.03h.069z" stroke-width="1.685" fill="#A77B3B"/><path d="M328.31 140.639c-.275 0-12.18-11.654-12.18-11.654l-12.181 11.654-12.181-11.654-12.181 11.654m48.723 11.622c-.275 0-12.18 11.654-12.18 11.654l-12.181-11.654-12.181 11.654-12.181-11.654m48.723 34.978c-.275 0-12.18-11.654-12.18-11.654l-12.181 11.654-12.181-11.654-12.181 11.654" stroke-width="1.685"/><path d="M315.992 128.954l.138 198.359" stroke-width="2.522"/><path d="M304.007 140.615l.138 197.876" stroke-width="2.326"/><path d="M291.822 129.007l.138 221.666" stroke-width="2.532"/></g><g stroke="#000"><path d="M499.08 93.957c24.363 11.654 24.363 35.028 24.363 46.682-.826 10.601 0 233.282 0 233.282s-1.583-13.169-12.181-23.308l-12.112-11.655-12.181-11.654c-8.947-7.77-12.181-23.374-12.181-35.028v-163.29s0-11.721 24.362-35.03h-.07z" stroke-width="1.685" fill="#A77B3B"/><path d="M474.719 140.639c.275 0 12.18-11.654 12.18-11.654l12.182 11.654 12.18-11.654 12.182 11.654m-48.724 11.622c.275 0 12.18 11.654 12.18 11.654l12.182-11.654 12.18 11.654 12.182-11.654m-48.724 34.978c.275 0 12.18-11.654 12.18-11.654l12.182 11.654 12.18-11.654 12.182 11.654" stroke-width="1.685"/><path d="M487.038 128.954l-.138 198.359" stroke-width="2.522"/><path d="M499.122 140.615l-.137 197.876" stroke-width="2.326"/><path d="M511.307 129.007l-.137 221.666" stroke-width="2.532"/></g><path d="M369.327 303.238c-6.385 14.861-17.623 24.384-24.972 21.219-7.348-3.166-8.17-17.883-1.785-32.745 6.386-14.861 17.686-24.357 25.035-21.192 7.349 3.165 8.197 17.822 1.785 32.745l-.063-.027z" stroke="#000" stroke-width="1.685" fill="#A77B3B"/><path fill="red" d="M328.356 175.6h146.317v70H328.356z"/><path d="M328.356 245.6h146.317v35c0 23.3-36.554 23.3-73.108 46.6-36.654-23.2-73.309-23.2-73.309-46.6v-35h.1z" fill="#564DFF"/><path d="M328.39 175.602H474.7v105.085c0 23.309-36.543 23.309-73.155 46.683-36.543-23.374-73.155-23.374-73.155-46.748v-105.02z" stroke="#FF0" stroke-width="1.348"/><path d="M374.689 180.261s-24.376 17.16-24.376 33.576c0 16.417 25.58 21.92 25.58 21.92s-8.527 0-8.527 21.89c0 10.975 25.58 5.503 25.58 10.975 0 5.472-.337 18.705 0 27.392 0 5.473-17.053 0-17.053 5.473 0 2.72 12.814 16.417 25.628 16.417 12.815 0 25.58-13.697 25.58-16.417 0-5.473-17.053 0-17.053-5.473v-27.392c0-5.472 25.58 0 25.58-10.976 0-21.889-8.526-21.889-8.526-21.889s25.628-5.472 25.628-21.92-24.424-33.576-24.424-33.576 13.73 22.631 13.73 33.576c0 5.472-6.408 16.448-23.461 16.448 0 0-4.336-5.503-8.527 0 0 0-4.914-5.503-8.527 0-1.252 1.855-3.468-5.503-8.575 0-2.12 1.453-3.853-5.503-8.526 0-8.527 0-25.58-5.503-25.58-16.448s15.849-33.576 15.849-33.576z" stroke="#000" stroke-width="1.013" fill="#FF0"/><path d="M375.19 278.274c-1.735 1.113 2.215 18.952 3.371 19.725 1.735 1.082 11.996 1.082 13.682 0 1.204-.773 0-17.53-1.686-18.612-1.735-1.113-14.163-1.855-15.416-1.113h.048zm52.75 0c1.734 1.113-2.216 18.952-3.372 19.725-1.734 1.082-11.995 1.082-13.681 0-1.205-.773 0-17.53 1.686-18.612 1.734-1.113 14.163-1.855 15.415-1.113h-.048z" stroke="#000" stroke-width="1.013" fill="#FF0"/><path d="M392.73 271.768c0 3.406-3.966 6.167-8.86 6.167-4.892 0-8.859-2.76-8.859-6.167 0-3.405 3.967-6.166 8.86-6.166 4.893 0 8.859 2.76 8.859 6.166zm35.26.002c0 3.407-3.966 6.168-8.86 6.168-4.892 0-8.859-2.761-8.859-6.167 0-3.406 3.967-6.167 8.86-6.167 4.893 0 8.86 2.76 8.86 6.167z" stroke="#000" stroke-width="1.194" fill="#FF0"/><path d="M416.945 307.5c0 1.5-1.997 2.7-4.294 2.7-2.397 0-4.295-1.2-4.295-2.7 0-1.5 1.998-2.7 4.295-2.7 2.297 0 4.294 1.2 4.294 2.7zm-22.272 0c0 1.5-1.897 2.7-4.194 2.7-2.397 0-4.295-1.2-4.295-2.7 0-1.5 1.898-2.7 4.295-2.7 2.297 0 4.194 1.2 4.194 2.7z" fill="#000" fill-rule="nonzero"/><path stroke="#000" stroke-width=".723" fill="#FF0" d="M401.551 220.004l-5.237-6.617-8.594 1.092 1.209-8.222-6.916-4.946 6.916-5.011-1.209-8.222 8.594 1.156 5.237-6.616 5.237 6.616 8.527-1.156-1.141 8.222 6.848 5.01-6.848 5.011 1.141 8.158-8.594-1.092z"/><path stroke="#000" stroke-width=".741" fill="#FF0" d="M438.088 245.593l14.658 7.045 14.659-7.045-14.659-6.98-14.59 6.98zm-104.869 0l14.658 7.045 14.659-7.045-14.659-6.98-14.59 6.98zm127.223 41.416c-4.413-2.812-11.848-1.22-16.015 1.232s-8.334 4.903-8.895 13.5c-4.786-8.155-1.017-15.859 5.322-19.588 6.955-3.523 15.368-1.417 19.622 4.913l-.034-.057zm-100.414-13.413c0 2.564-2.172 4.642-4.852 4.642s-4.852-2.078-4.852-4.642c0-2.563 2.172-4.642 4.852-4.642s4.852 2.079 4.852 4.642zm-4.894 16.3c0 2.564-2.172 4.642-4.852 4.642s-4.852-2.078-4.852-4.642c0-2.563 2.173-4.642 4.852-4.642 2.68 0 4.852 2.079 4.852 4.642z"/><path d="M352.737 280.596c0 2.564-2.172 4.642-4.852 4.642s-4.852-2.078-4.852-4.642c0-2.563 2.173-4.642 4.852-4.642 2.68 0 4.852 2.079 4.852 4.642zm12.185 9.3c0 2.564-2.173 4.642-4.852 4.642-2.68 0-4.852-2.078-4.852-4.642 0-2.563 2.172-4.642 4.852-4.642s4.852 2.079 4.852 4.642zm2.397-9.3c0 2.564-2.173 4.642-4.852 4.642-2.68 0-4.852-2.078-4.852-4.642 0-2.563 2.172-4.642 4.852-4.642s4.852 2.079 4.852 4.642z" stroke="#000" stroke-width=".741" fill="#FF0"/><path d="M360.028 282.896c0 2.564-2.172 4.642-4.852 4.642s-4.852-2.078-4.852-4.642c0-2.563 2.172-4.642 4.852-4.642s4.852 2.079 4.852 4.642z" stroke="#000" stroke-width=".741" fill="#FF0"/><path d="M377.994 120.4c-12.384 0-13.982 2-19.575 3.9 0-5.4 13.782-11.7 25.967-11.7 0 3.9-3.196 7.8-6.392 7.8z" fill="#DA4500"/><path d="M396.67 108c0 2.5-2.196 4.6-4.893 4.6-2.697 0-4.894-2.1-4.894-4.7s2.197-4.6 4.894-4.6 4.894 2 4.894 4.6v.1z" fill="#CAC9C7"/><path stroke="#000" stroke-width=".741" fill="#FF0" d="M345.458 91.652v6.98h12.18v34.962h7.364V98.631h12.181v-6.979h-12.18v-9.35h-7.433v9.35h-12.181z"/><path d="M384.486 112.6a78.31 78.31 0 0 0-29.263 3.9c0-7.2 8.39-15.6 22.771-15.6 3.196 0 6.492 7.8 6.492 11.7z" fill="#DA4500"/><path d="M255.408 241.55c-3.716-7.042-3.63-9.345 2.98-1.39l79.618 132.3-2.437.725-80.12-131.608-.041-.027z" stroke="#000" stroke-width=".5" fill="#008500"/><path d="M308.68 330.4c.8-10.6-18.576-22-19.375-21.3-.7.8 1.199 7 4.894 10.1-6.991-3.6-14.382-5.8-14.582-4.3-.6 2.2 10.986 7.2 11.985 9.2 0 1.4-8.59 1.2-8.39 2.6.2 1.4 24.27 13.6 25.469 3.7zm-19.375-30.8c.799-10.6-18.577-22-19.276-21.3-.799.7 1.099 6.9 4.794 10.1-6.991-3.6-14.382-5.9-14.582-4.3-.499 2.1 10.987 7.2 11.985 9.2.1 1.4-8.489 1.2-8.39 2.6.2 1.4 24.27 13.5 25.469 3.7zm-14.781-28c.799-10.6-18.577-22-19.376-21.3-.7.7 1.198 6.9 4.894 10.1-6.992-3.6-14.382-5.9-14.582-4.3-.5 2.1 10.986 7.2 11.985 9.2 0 1.4-8.49 1.2-8.39 2.6.2 1.4 24.27 13.6 25.469 3.7zm-14.582-30.4c.699-10.5-18.577-22-19.376-21.3-.799.8 1.198 7 4.794 10.2-6.991-3.7-14.382-5.9-14.482-4.3-.6 2.1 10.986 7.2 11.885 9.1.1 1.4-8.49 1.3-8.29 2.7.1 1.4 24.17 13.5 25.469 3.6z" fill="#008F00" fill-rule="nonzero"/><path d="M264.935 239.9c9.389-5.7 7.491-27.4 6.492-27.6-1.098-.1-5.193 5-5.693 9.8-1.098-7.6-3.595-14.6-4.993-13.8-2.098.8.4 12.7-.7 14.6-.998 1-5.992-5.8-6.99-4.8-1.2 1 2.796 26.7 11.984 21.8h-.1zm13.584 26.6c10.786-2.4 16.679-23.4 15.68-23.9-.999-.5-6.592 3-8.69 7.4 1.599-7.5 1.699-14.9 0-14.6-2.296.1-3.994 12.1-5.692 13.5-1.298.6-3.695-7.3-4.994-6.8-1.398.6-6.592 26.1 3.696 24.4zm16.18 27.2c9.887-4.8 9.987-26.6 8.988-26.8-.999-.3-5.493 4.5-6.492 9.2-.4-7.7-2.197-14.8-3.695-14.1-2.197.6-.8 12.6-1.998 14.4-1.198.9-5.493-6.3-6.691-5.4-1.199.8.4 26.8 9.987 22.7h-.1zm17.577 35.6c10.287-3.9 12.784-25.5 11.786-25.9-1-.3-5.993 4-7.491 8.6.4-7.7-.6-15-2.197-14.4-2.297.4-2.098 12.5-3.496 14.2-1.298.7-4.794-6.8-5.992-6-1.299.6-2.497 26.7 7.39 23.5z" fill="#008F00" fill-rule="nonzero"/><path d="M334.71 366.808c-2.574 4.508-10.718 4.755-18.285.423-7.568-4.333-11.486-11.485-8.911-15.993 2.574-4.509 10.777-4.722 18.285-.423 7.509 4.299 11.486 11.484 8.911 15.993z" stroke="#000" stroke-width=".741" fill="#FF1900"/><g fill="#FF0" stroke="#000" stroke-width=".5"><path d="M533.2 215.74l1.271-3.355 3.42 1.295 1.271-3.356 3.42 1.295-1.254 3.309 3.518 1.332-1.29 3.403-3.517-1.332-3.168 8.366-3.42-1.295 3.169-8.366-3.42-1.295zm-7.358 29.75l3.42 1.296-36.79 97.133-3.42-1.295 36.79-97.134z"/><path d="M487.784 340.247l6.937 2.627-10.151 26.8-6.937-2.627 10.151-26.8zm40.84-112.84l10.406 3.94c6.887 2.61-8.741 17.768-8.741 17.768l-6.888-2.609s-1.713-21.727 5.224-19.1zm9.565.703c-.537 1.418-2.481 1.979-4.386 1.257-1.906-.721-3.04-2.448-2.52-3.818.52-1.371 2.481-1.98 4.386-1.258 1.906.722 3.04 2.448 2.502 3.866l.018-.047z"/></g><path d="M492.824 353.82c2.909 4.32-.448 11.741-7.655 16.605-7.206 4.865-15.336 5.197-18.244.877-2.909-4.32.504-11.779 7.654-16.605 7.15-4.827 15.337-5.196 18.245-.877z" stroke="#000" stroke-width=".741" fill="#FF1900"/></g></svg>