<svg width="800" height="480" xmlns="http://www.w3.org/2000/svg"><g fill="none" fill-rule="evenodd"><path fill="#C4272F" d="M0 0h800v480H0z"/><path fill="#015197" d="M266.66 0h266.66v480H266.66z"/><circle fill="#F9CF02" cx="133" cy="189" r="35"/><circle fill="#C4272F" cx="133.2" cy="173.2" r="38.2"/><path d="M117 132c0 8.781 7.119 15.9 15.9 15.9s15.9-7.119 15.9-15.9c0-6.3-4-7.2-4-9.5 0-2.4 2.4-5.6-2.4-9.6 2.4 4-1.6 4.8-1.6 8.8 0 4 1.6 4 1.6 7.1a3.2 3.2 0 0 1-6.3 0c0-3.1 3.1-6.3 3.1-11 0-4.9-.7-6.5-3.1-10.4-2.4-4-6.4-7.2-3.2-10.4-4.8 1.6-2.4 8-2.4 12s-3.2 6.3-3.2 11 2.4 5.7 2.4 8.8a3.2 3.2 0 0 1-6.3 0c0-3.1 1.6-3.1 1.6-7.1 0-4-4-4.8-1.6-8.8-4.8 4-2.4 7.2-2.4 9.6 0 2.4-4 3.1-4 9.5z" fill="#F9CF02"/><circle fill="#F9CF02" cx="132.4" cy="179.4" r="25.4"/><path d="M63 230v152.7h31.8V230H63zm108.2 0v152.7H203V230h-31.8zm-70 25.5v12.7h63.6v-12.7h-63.6zm0 89v12.8h63.6v-12.7l-63.6-.1zm0-114.5h63.6L133 249.1 101.2 230zm0 133.7h63.6L133 382.6l-31.8-18.9z" fill="#F9CF02" fill-rule="nonzero"/><circle stroke="#C4272F" stroke-width="3.8" fill="#F9CF02" cx="132.7" cy="306.7" r="33.7"/><path d="M133.199 273c9.334 0 16.9 7.566 16.9 16.9s-7.566 16.9-16.9 16.9a16.9 16.9 0 1 0 0 33.7" stroke="#C4272F" stroke-width="3.8"/><circle fill="#C4272F" cx="132.4" cy="290.4" r="6.4"/><circle fill="#C4272F" cx="132.4" cy="323.4" r="6.4"/></g></svg>