<svg width="800" height="480" xmlns="http://www.w3.org/2000/svg"><g fill="none" fill-rule="evenodd"><path fill="#0071BC" d="M0 0h800v480H0z"/><path d="M450 365.7s15.2-16.1 29.8-13c4.4-17 21-18.4 21-18.4s-1.7-18.7 19.5-22.8c.6-12.7 13.5-23.3 13.5-23.3s-2.6-19.7 10.8-24.3c-8.2-15.6 2.8-27 2.7-27.3-.2-.3-14-24.8-1.6-31.8-13-11-8.8-23.4-8.8-23.4s-14.2-3.7-9.1-20.7c-11.7-2-14-20.9-14-20.9s-18 3.7-20.2-12c-12 1.9-13.2-9.8-13.4-9.8-.1 0-23.5 6.3-28.2-11.4-9.1 4.7-13-3.7-13-3.7s-13 6.5-20.8-6c-15.5 9.7-24.2-.4-24.2-.4s-20.3 13.4-27 3c-12 12.2-22.8 7-22.8 7s-9 16-23.7 12c-3.3 14.9-20.2 15.2-20.2 15.2s1.8 13.1-18.4 16.7c-2.6 15.5-13.2 18-13.2 18s1 15.2-8.5 20c3.4 8.5-5.4 18.9-5.4 18.9s9.4 11.7-3.4 24.9c12.3 3.2 3.4 24.4 3.4 24.4s17 7.6 6.3 21.7c12.2 4 8.4 13.6 8.5 19.3 7.8 3.5 14.6 1.8 11.3 17.4 23.8 2.7 12.6 15.8 12.6 15.8s11 .5 6.7 9.3c20.3-.5 23.3 15.2 23.3 15.2s18.8-5 21.3 2.3-8.2 56.7-8.2 56.7-16 0-27.8-12.8c-27.8-.7-21.6-19-22-19-.5 0-9.3 3.4-13.8-11.9-18.6 3.8-18-11.8-18.2-12-.1-.1-8.3-3.8-5.3-11.5-19.1 1.7-17.7-17-17.7-17-4.2-1.7-5.7-5.6-5.1-9.5-2.5-.9-19.5-1.2-10.7-23.6-16.2-9.8-6.1-21-6.1-21s-22.4-11.6-5.1-25c-13-19 1-28.5 1-28.5s-17.9-18.1.3-31c-3-27.5 13.4-34.1 13.4-34.1s-8.6-22.4 14.8-31.8c1.5-22.7 17.9-23.3 17.9-23.3s.4-18 26.2-16.2c5-16.1 22.5-12.9 22.5-12.9s5.4-19.5 29.3-10.1c12.1-23.7 30.2-11.6 30.2-11.6s11.4-7.4 17-5c7.3-12.5 22.8-.6 32.7 1.9 3.7-1.5 16.6-11.2 26.5 1 13.2-8.5 24.5 7 24.5 7s18.1-9.2 26.6 11.8c38.5-3.5 33 21.7 33 21.7s30.2-6.9 23.6 23.3c27.6 1.9 24.8 20 24.8 20s17.4 13.2 9.8 25c15.5.8 9.8 15.7 9.8 15.7s11.9 4.6 2 23c22.7 18.1 4.4 36.2 4.3 36-.2-.1 12.1 14.6 1 31.6 3.4 27-10.2 33.8-10.2 33.8s3.5 17.5-11.7 22.4c-.3 20.5-19.7 23-19.7 23s5.2 9-14 18.3c-.8 13.7-20.8 14.8-20.8 14.8s-1.9 25.2-27.4 18.4c-6.1 20.2-36 14.2-36.6 14-.5-.3-5.7-43.4-5.7-43.5h.1z" stroke="#000" stroke-width="1.9" fill="#FFF"/><path d="M265 124s6.4 5.6 5.2 14c-1.2 8.3-6 19.9-5 28.5.6 3.5.3 9.7.3 9.7s-5.7-8.2-5.8-17c-.1-8.8 6.2-17.1 6.2-23.6s-1.1-11.7-1-11.5l.1-.1zm-3.2 2.6s-8.4 8-9.5 15.7c-.8 4-1 22.7-1.2 31-.2 2.5-1.2 12.5-1.4 16.2-.3 3.6 6.1-6.2 6.5-14.3-.2-8.3-.2-25.8.6-28.5.8-3.4.6-7.1 1.8-10.5l3.2-9.6z" stroke="#000" stroke-width="1.9" fill="#217900" stroke-linejoin="round"/><g fill="#FFD200" stroke="#EF8A10"><path d="M446 100.5s10.8-5 14-14.4c3.2-9.4-9.5-9.4-11.1-6.4-1.7 3 1.4 10.3.6 12.3-.8 2-5.2 6.6-3.5 8.4v.1z" stroke-width="1.9"/><path d="M349.8 103.9s7-9.7 5.2-19.4c-1.9-9.6-12.8-3.6-12.8-.2s6.2 8.3 6.5 10.4c.3 2.1-1.3 8.4 1 9.1l.1.1zm-19.1 5.7s7-9.7 5.2-19.3c-1.8-9.7-12.8-3.7-12.8-.3 0 3.4 6.3 8.4 6.6 10.5.2 2-1.3 8.3 1 9.1zm-21.1 6.5s7-9.6 5.2-19.3c-1.9-9.7-12.8-3.7-12.8-.3 0 3.4 6.2 8.4 6.5 10.5.3 2-1.3 8.3 1 9.1h.1zm-15 14.9s7.1-9.7 5.3-19.3c-1.8-9.7-12.8-3.7-12.8-.3 0 3.4 6.3 8.4 6.5 10.5.3 2-1.3 8.3 1 9.1zM279 145.4s7-9.7 5.2-19.4c-1.8-9.7-12.8-3.6-12.8-.2s6.3 8.3 6.6 10.4c.2 2.1-1.3 8.4 1 9.2z" stroke-width="2.5"/><path d="M315 61.7s-9.4 7.4-10.2 17.2c-.8 9.8 11.3 7 12.2 3.7 1-3.3-3.7-9.7-3.4-11.8.3-2 3.5-7.7 1.4-9v-.1zm31.3-9.6s-9.3 7.4-10.2 17.2c-.8 9.8 11.3 7 12.3 3.7.9-3.3-3.8-9.8-3.5-11.9.3-2 3.5-7.7 1.4-9zm-116.7 84.5s2 11.8 10.2 17.3c8.2 5.4 11.5-6.6 9.1-9-2.4-2.4-10.3-1.4-12-2.6-1.7-1.3-5-6.8-7.3-5.7zm-15.6 40s0 12 7.3 18.7c7.2 6.6 12.4-4.7 10.4-7.4s-10-3-11.4-4.5c-1.5-1.6-4-7.5-6.3-6.7v-.1zm36 44.8s-4.2-11.2-13.3-15c-9.1-3.6-10 8.8-7.2 10.7 2.9 1.8 10.4-.7 12.3.2 2 .9 6.3 5.6 8.3 4l-.1.1zm-7.4-19.4s7.2-9.5 5.6-19.1c-1.7-9.7-12.7-4-12.8-.6 0 3.4 6 8.5 6.3 10.6.2 2.1-1.5 8.3.9 9.2v-.1zm225.6-91.9s10.8-5 14-14.3c3.2-9.3-9.5-9.4-11.1-6.5-1.7 3 1.4 10.4.6 12.3-.8 2-5.2 6.7-3.5 8.5zm32.8 16.4s6.4-10.1 3.9-19.6c-2.5-9.5-13-2.8-12.8.6.2 3.3 6.8 7.9 7.2 10 .4 2-.7 8.4 1.7 9zm89.6 93s-4.3-11.1-13.4-14.9c-9.1-3.7-10 8.8-7.2 10.6 2.9 1.9 10.5-.7 12.3.2 2 1 6.3 5.7 8.3 4.1zm-43.8 7s.2-12 7.5-18.6c7.3-6.6 12.4 4.9 10.4 7.6-2.1 2.7-10 2.8-11.6 4.3-1.4 1.5-4 7.4-6.3 6.6v.1zm-7-126.8s-11.3-4.3-20 0c-9 4.4-.2 13.4 3 12.5 3.3-1 6.4-8.3 8.4-9.1 2-.8 8.4-1 8.5-3.4h.1zM514 78.3s-11.1-4.3-20 0c-8.8 4.4-.1 13.4 3.2 12.5 3.2-1 6.4-8.3 8.3-9.1 2-.8 8.4-1 8.5-3.4zm-38-20.4s-9.5 7.3-10.4 17c-1 9.8 11.2 7.1 12.2 3.9 1-3.3-3.7-9.8-3.4-11.9.4-2 3.6-7.6 1.6-9zm-24.8-6s-4.4 11.1-.1 20c4.3 8.9 13.3.2 12.4-3-.9-3.3-8.2-6.5-9-8.4-.8-2-.9-8.5-3.3-8.6zm-70.5 43s7.7-9.2 6.6-19c-1.1-9.7-12.5-4.5-12.7-1.1-.3 3.4 5.6 8.8 5.7 10.9.1 2-1.9 8.2.4 9.1v.1z" stroke-width="1.9"/></g><path d="M422.8 114.4s18.5 1.2 19.4 11.8c.9 10.6-4.4 17.1-4.4 17.1s2.3 23-15.8 29.7c-19.4 2.3-49.9.5-49.9.5s-9 2.2-12.6-16.3a305 305 0 0 1-4.6-31.6s1.8-10.4 14.9-11c13-.7 52.8 0 53-.2z" stroke="#000" stroke-width="1.9" fill="#8C8A8C"/><path d="M437.7 143.2s-10 12.4-9 17.5" stroke="#000" stroke-width="1.9" stroke-linecap="round"/><path d="M424.3 172.3c2.5 2.1 4.8 4.4 5.3 12l1 15.4 13 116.6 11.4 84.3.8 13s-2.7 9.7-10.4 10.5c-5.5 11.6-35.7 15-38.7 14.9-2.7-.2-12.3-4.2-18.1-3.7-5.9.5-16 4.4-20.5 3.8-4.5-.7-14.8-4.2-16.6-11.6-12.7-4-14.7-13.7-14.7-13.7l13.7-97.5 13.3-123.4s1.6-16.4 8.2-18.9c6.9-.6 42.4.7 52.3-1.7z" stroke="#000" stroke-width="1.9" fill="#8C8A8C"/><path d="M354.4 341.1l-2.7 86.3m86.5-74.9l7.6 71.2" stroke="#000" stroke-width="1.9"/><path d="M216.6 296.3l-.3 1m358.7-4.1l.3 1" stroke="#000"/><path d="M207 179.8s5.6 7.9 6.7 12.4c1 4.5 2.9 13.4 5.3 17 2.5 3.7 16.6 23.9 17.4 32.3.1 5.6-5.9 15-14.7 15.2-5.6-.2-19.8-3.8-20.4-16-.6-12.3 4.3-12.5 5-20 .5-7.4.7-40.7.7-40.9z" stroke="#6B18B5" stroke-width="1.9" stroke-linejoin="round"/><path d="M304.5 72.8s-6 .4-10.4 2.9c-3.5 2.1-9.5 5.3-13.6 11-10.6 8.2-26.5 12-31.5 19-3 4.6-2.8 15.7 4.7 20.5 4.8 2.7 19 7 25.8-3.1 6.8-10.2 2.7-13 6-19.6a117.4 117.4 0 0 1 19-30.7zM447 58s-4.4-4-9.3-5.5c-4-1-10.6-.6-17.5-1.3-13.3-1.8-27-11.4-35.3-10.2-5.4 1-13.3 9-11.5 17.6 1.3 5.4 7.3 16.2 19.4 14.1 12-2.1 12-4.8 19-7 17.4-9.7 35-7.7 35.2-7.7zm141.4 137.4c1-2.3-.9-6.6-2.2-11.5-1.2-4-3.1-10-7.7-15.5-5.4-12.2-4.5-29-10-35.4-3.7-4-14.6-6.6-21-.4-3.9 4-11.4 16.6-3.2 25.7 8.2 9 11.8 5.7 17.4 10.5 13.5 9 20 25 26.7 26.6zM583.5 302c1.9-2.5 5.2-7.4 4.8-11.5-.3-3.2 1.5-13 1.7-17.3 1.2-13.3 9.5-24.2 7.2-35.7-1.3-5.4-9.2-13-17.8-10.8-5.2 1.6-17 8-14.3 20 2.7 12 6.6 11.7 9.1 18.7 7.3 14.5 2.7 31.7 9.3 36.6z" stroke="#6B18B5" stroke-linejoin="round"/><path d="M485.5 386.8s-2.3 4.4 6.8 8.2m11.3-18.4s10-2.5 16.8 0m13.2-25.4c0 .2-1.4 4.5 6.6 10.8m-.8-22s5.9 4.3 15.8 4m-75.4 8.6s.3 11.5-5.6 16.8m25.4-34.5s9.7 2.4 17.7-1.6m44.6-15.3s2.1 3 12.9 2.5m-54.9-9.3c.3.2 12.7 4.2 20.5.6m4.2-47.8s.5-.7 4.3 12.7m5.2-50.4s-.5 7.1-6.2 10.2m42.9-39.4s-8.4 6.8-6.8 9.5m-34.7-14.4s4.3 7.3-2.8 12.3M528.2 161s7.5-.3 10.8 6.1m-24.8-27.3h5.7m24-26c0 .1 1.5 1.5-1.4 4.5m-52-3.8s4 6.2 3.3 13.9m19.8-35.1c1.8-.2 7.7-2.8 7.7-2.8m-33.4-22c-.1 0-2.2 7.7 1.6 10.5m-11.1 25c0 8.4 6.6 6.3 2 14.3M462.2 97a57 57 0 0 0-10.4 9.4m-16.4-13.7s4.4 4.3 3.3 10.2m-16-13.7s-2.2 6.6-5.1 8.3m-18-10c-.1.3-3.6 7.8-6 9.1m-25.6-9c.2 0 3.5 7-.8 12m-6.5-48c.2.2.7 5.4-2.6 10m-28.7 1.9c0 .1 1.4 5.9-7.8 7.8m-9.9 45.2c.2.3 8.9 1.7 8.9 1.7M290 136.6c.2-.2 10.6-3.3 10.6-3.3m-27.4 16.3c.3 0 7.3 1.3 9 .4m-14 6s2.3 1.3.4 13m-34.2-43.5l4.2 6.2m-18.5 26c0-.2 4.2 6.2 9.8 7.4m23 25.2a49 49 0 0 0 8-2M250 213.8c.2 0-.1-4.3 5.2-7.3M243 224.7c0 .2 5 6.4 8.5 7.3m-11.5 4.7c.6-.2 6-4.9 12.2-4.5m-13.9 20.6s.2 5.4 16.2 4m-14.6 15c0-.2 4.7-10.8 14.2-14.8m-1.4 28.4s1.4-4.6 9.4-7.7m-.5 25.5s5.7-4.7 7.8-5.3m-.7 19.3s3.5 3.6 12.2-2.7m-54 5.6c1-.2 13.7-3.1 18 3.5m-13 7s13.4-1.8 15.1-.4m32.7 3.1s-1.8 3.7 14.7-2.4m5.8 9c-3 5 .7 9-3.2 11.3m-47-4.3c.5-.4 6-2.3 5.2-10.3m-.2 22.3c.7-.2 9.9-4.2 11.8-2.1m6.3 13.7s1.2-8.2 3.8-9m10 21.3s7.7-.1 11-2.6m3.8-25c.2.2 7.1 3.8 22 .2m-16.4 33s2 10.6 2 13" stroke="#000" stroke-width="1.9"/><g fill="#DE2010" stroke="#000"><path d="M573.997 225.44c-.414-3.315-2.116-6.469-4.254-7.885-2.48-1.542-5.054-1.22-6.757.844-1.702 2.065-2.757 5.396-2.342 8.71.435 3.482 2.116 6.47 4.274 8.053 2.48 1.541 5.055 1.22 6.757-.845 1.703-2.065 2.918-5.415 2.343-8.71l-.02-.166z" stroke-width="2.469"/><path d="M572.597 207.74c-.414-3.315-2.116-6.469-4.254-7.885-2.48-1.542-5.054-1.22-6.757.844-1.702 2.065-2.757 5.396-2.342 8.71.435 3.482 2.116 6.47 4.274 8.053 2.48 1.541 5.055 1.22 6.757-.845 1.703-2.065 2.918-5.415 2.343-8.71l-.02-.166z" stroke-width="2.469"/><path d="M568.876 188.78c-.704-3.267-2.676-6.26-4.93-7.482-2.606-1.318-5.142-.772-6.657 1.435-1.515 2.206-2.272 5.616-1.568 8.882.74 3.43 2.676 6.259 4.965 7.645 2.607 1.318 5.143.771 6.657-1.435 1.515-2.206 2.431-5.65 1.568-8.882l-.035-.164z" stroke-width="2.469"/><path d="M562.46 169.244c-1.514-2.978-4.183-5.37-6.675-5.977-2.856-.61-5.169.565-6.07 3.085-.903 2.52-.766 6.01.747 8.988 1.59 3.128 4.183 5.37 6.75 6.127 2.856.61 5.17-.565 6.071-3.085.903-2.52.91-6.083-.748-8.989l-.075-.149z" stroke-width="2.469"/><path d="M555.46 153.344c-1.514-2.978-4.183-5.37-6.675-5.977-2.856-.61-5.169.565-6.07 3.085-.903 2.52-.766 6.01.747 8.988 1.59 3.128 4.183 5.37 6.75 6.127 2.856.61 5.17-.565 6.071-3.085.903-2.52.91-6.083-.748-8.989l-.075-.149z" stroke-width="2.469"/><path d="M545.555 137.5c-1.76-2.84-4.623-4.996-7.157-5.391-2.897-.366-5.102 1-5.788 3.588-.686 2.587-.254 6.053 1.507 8.893 1.848 2.982 4.622 4.996 7.244 5.533 2.898.366 5.103-1.001 5.788-3.588.686-2.587.392-6.139-1.506-8.893l-.088-.142z" stroke-width="2.469"/><path d="M534.475 122.097c-2.027-2.656-5.085-4.526-7.645-4.674-2.92-.084-4.982 1.49-5.414 4.13-.432 2.642.333 6.05 2.36 8.707 2.127 2.789 5.084 4.525 7.745 4.806 2.92.084 4.982-1.49 5.414-4.13.433-2.642-.204-6.149-2.36-8.706l-.1-.133z" stroke-width="2.469"/><path d="M521.254 107.865c-2.39-2.334-5.687-3.74-8.242-3.516-2.9.34-4.713 2.196-4.758 4.872-.045 2.676 1.206 5.937 3.597 8.272 2.51 2.45 5.686 3.74 8.36 3.633 2.9-.34 4.714-2.196 4.758-4.872.045-2.676-1.092-6.054-3.596-8.272l-.12-.117z" stroke-width="2.469"/><path d="M506.467 94.782c-2.595-2.105-6.007-3.202-8.53-2.743-2.857.605-4.491 2.62-4.29 5.289.202 2.668 1.747 5.8 4.342 7.906 2.725 2.21 6.007 3.202 8.66 2.848 2.857-.605 4.49-2.62 4.29-5.289-.202-2.668-1.646-5.927-4.343-7.906l-.13-.105z" stroke-width="2.469"/><path d="M490.75 84.306c-2.909-1.645-6.455-2.16-8.867-1.29-2.717 1.072-3.994 3.33-3.353 5.928.642 2.598 2.687 5.43 5.595 7.075 3.053 1.727 6.455 2.16 9.012 1.372 2.717-1.071 3.994-3.33 3.352-5.928-.642-2.598-2.606-5.572-5.594-7.075l-.145-.082z" stroke-width="2.469"/><path d="M473.166 75.004c-3.045-1.374-6.624-1.564-8.947-.477-2.608 1.314-3.674 3.679-2.799 6.208.876 2.529 3.17 5.164 6.215 6.537 3.198 1.442 6.625 1.564 9.1.545 2.608-1.314 3.674-3.679 2.799-6.208-.876-2.529-3.103-5.311-6.215-6.537l-.153-.068z" stroke-width="2.469"/><path d="M455.917 68.044c-3.13-1.166-6.714-1.116-8.959.124-2.514 1.486-3.42 3.917-2.376 6.382 1.043 2.465 3.508 4.94 6.64 6.106 3.287 1.224 6.714 1.116 9.115-.066 2.514-1.486 3.42-3.917 2.376-6.382-1.043-2.464-3.451-5.091-6.64-6.105l-.156-.059z" stroke-width="2.469"/><path d="M438.387 62.603c-3.21-.924-6.78-.6-8.923.807-2.394 1.674-3.111 4.167-1.883 6.545 1.228 2.378 3.875 4.657 7.086 5.58 3.371.97 6.78.601 9.084-.76 2.394-1.674 3.11-4.167 1.883-6.545-1.229-2.378-3.83-4.813-7.086-5.581l-.16-.046z" stroke-width="2.469"/><path d="M419.159 59.283c-3.315-.418-6.792.451-8.693 2.172-2.107 2.022-2.432 4.596-.852 6.757 1.58 2.16 4.546 4.005 7.86 4.423 3.481.439 6.793-.45 8.86-2.151 2.106-2.023 2.43-4.596.851-6.757-1.58-2.16-4.526-4.166-7.86-4.423l-.166-.02z" stroke-width="2.469"/><path d="M400.078 58.222c-3.338-.134-6.728 1.028-8.476 2.905-1.927 2.194-2.03 4.786-.273 6.804 1.758 2.018 4.871 3.604 8.21 3.738 3.505.14 6.728-1.028 8.642-2.899 1.928-2.194 2.032-4.786.274-6.804-1.758-2.018-4.865-3.765-8.21-3.737l-.167-.007z" stroke-width="2.469"/><path d="M382.578 58.822c-3.338-.134-6.728 1.028-8.476 2.905-1.927 2.194-2.03 4.786-.273 6.804 1.758 2.018 4.871 3.604 8.21 3.738 3.505.14 6.728-1.028 8.642-2.899 1.928-2.194 2.032-4.786.274-6.804-1.758-2.018-4.865-3.765-8.21-3.737l-.167-.007z" stroke-width="2.469"/><path d="M362.179 61.237c-3.257.745-6.225 2.754-7.42 5.023-1.286 2.622-.708 5.151 1.517 6.638 2.225 1.488 5.645 2.203 8.902 1.458 3.42-.781 6.225-2.753 7.582-5.06 1.286-2.622.708-5.15-1.517-6.638-2.225-1.487-5.68-2.36-8.902-1.458l-.162.037z" stroke-width="2.469"/><path d="M343.603 65.894c-3.184 1.011-5.976 3.258-6.98 5.618-1.065 2.72-.28 5.192 2.06 6.49 2.34 1.3 5.807 1.73 8.991.72 3.344-1.062 5.977-3.258 7.14-5.669 1.065-2.72.28-5.192-2.06-6.49-2.34-1.3-5.856-1.884-8.991-.72l-.16.051z" stroke-width="2.469"/><path d="M326.651 73.213c-3.041 1.383-5.546 3.946-6.262 6.409-.733 2.827.34 5.188 2.819 6.199 2.478 1.01 5.971 1.026 9.013-.357 3.193-1.452 5.546-3.947 6.413-6.478.734-2.827-.34-5.189-2.818-6.2-2.478-1.01-6.038-1.172-9.013.358l-.152.069z" stroke-width="2.469"/><path d="M309.728 81.856c-2.912 1.638-5.189 4.405-5.692 6.92-.49 2.88.782 5.14 3.337 5.936 2.555.796 6.037.513 8.95-1.125 3.058-1.719 5.189-4.405 5.837-7.001.49-2.88-.782-5.14-3.337-5.936-2.555-.796-6.116-.654-8.95 1.125l-.145.081z" stroke-width="2.469"/><path d="M293.656 92.75c-2.717 1.943-4.68 4.942-4.907 7.496-.173 2.916 1.336 5.026 3.963 5.539 2.626.513 6.057-.147 8.774-2.09 2.853-2.042 4.68-4.944 5.042-7.595.174-2.916-1.336-5.025-3.962-5.539-2.627-.513-6.151.015-8.774 2.091l-.136.097z" stroke-width="2.469"/><path d="M278.9 103.972c-2.543 2.167-4.245 5.321-4.255 7.886.074 2.92 1.756 4.894 4.417 5.183 2.66.289 6.023-.659 8.566-2.826 2.67-2.275 4.244-5.32 4.381-7.994-.073-2.92-1.756-4.894-4.416-5.183-2.661-.289-6.128.535-8.566 2.826l-.127.108z" stroke-width="2.469"/><path d="M265.797 117.645c-2.381 2.343-3.852 5.612-3.678 8.17.283 2.907 2.102 4.756 4.777 4.853 2.674.098 5.96-1.089 8.341-3.432 2.5-2.461 3.852-5.612 3.797-8.288-.283-2.906-2.102-4.755-4.777-4.853-2.674-.098-6.074.973-8.341 3.433l-.12.117z" stroke-width="2.469"/><path d="M254.54 132.88c-2.177 2.535-3.37 5.914-2.982 8.45.525 2.872 2.493 4.562 5.166 4.436 2.674-.127 5.848-1.584 8.025-4.12 2.285-2.66 3.37-5.914 3.09-8.575-.525-2.873-2.493-4.563-5.166-4.437-2.674.127-5.971 1.479-8.025 4.12l-.109.126z" stroke-width="2.469"/><path d="M244.227 148.37c-1.894 2.753-2.72 6.24-2.063 8.72.828 2.8 2.965 4.27 5.61 3.86 2.644-.411 5.645-2.199 7.54-4.951 1.988-2.89 2.718-6.24 2.157-8.857-.828-2.8-2.965-4.271-5.61-3.86-2.644.41-5.78 2.106-7.54 4.95l-.094.138z" stroke-width="2.469"/><path d="M235.69 165.943c-1.392 3.037-1.606 6.615-.534 8.944 1.297 2.617 3.655 3.699 6.19 2.84 2.534-.86 5.184-3.136 6.577-6.173 1.462-3.189 1.607-6.614.604-9.096-1.297-2.616-3.655-3.698-6.19-2.839-2.534.86-5.331 3.068-6.576 6.173l-.07.151z" stroke-width="2.469"/><path d="M228.916 184.425c-1.112 3.15-1 6.733.278 8.956 1.53 2.488 3.976 3.351 6.422 2.266 2.446-1.085 4.879-3.593 5.99-6.743 1.168-3.309 1.001-6.733-.222-9.114-1.53-2.488-3.976-3.351-6.422-2.266-2.446 1.086-5.031 3.539-5.99 6.744l-.056.157z" stroke-width="2.469"/><path d="M223.042 219.102c-.307 2.667.672 5.482 2.448 7.038 2.083 1.727 4.656 2.023 6.755.779 2.099-1.244 3.838-3.611 4.146-6.278.323-2.8-.672-5.483-2.433-7.172-2.082-1.726-4.656-2.023-6.755-.778-2.099 1.244-3.999 3.592-4.145 6.278l-.016.133z" stroke-width="2.231"/><path d="M224.564 203.092c-.743 3.257-.22 6.803 1.305 8.864 1.805 2.296 4.334 2.873 6.64 1.513 2.305-1.359 4.433-4.13 5.176-7.387.78-3.42.22-6.803-1.269-9.027-1.804-2.296-4.334-2.872-6.64-1.513-2.304 1.36-4.59 4.093-5.175 7.387l-.037.163z" stroke-width="2.469"/></g><path d="M560 194.7c2.2-2.3 4.2-3 6.7-2.1-1-6.1-2.8-8.2-5.2-7.4-2.3.7-3.4 3.8-1.5 9.5zm3.3 18.2c2.3-2.1 4.3-2.6 6.8-1.6-.4-6-2.2-8.3-4.6-7.7-2.4.5-3.6 3.6-2.2 9.3zm-7.8-35c1.5-2.7 3.3-3.8 6-3.7-2.5-5.6-4.8-7.1-7-5.8-2 1.3-2.2 4.6 1 9.6v-.1zm-8.1-16.6c1.5-2.8 3.3-3.9 6-3.7-2.5-5.7-4.9-7.2-7-5.9-2 1.3-2.2 4.6 1 9.6zm-19.5-30.5c1-3 2.6-4.4 5.2-4.6-3.3-5.2-5.9-6.3-7.7-4.7-1.8 1.6-1.5 5 2.5 9.3zM515 117.5c1-3 2.4-4.4 5-4.8-3.4-5-6-6-7.8-4.4-1.8 1.7-1.4 5 2.8 9.2zM488.3 95c0-3.2 1-5 3.3-6.2-4.8-3.7-7.7-3.8-8.8-1.7-1.1 2.1.2 5.1 5.5 7.9zm14 10.5c.4-3.1 1.7-4.8 4.3-5.5-4.2-4.5-6.9-5.2-8.4-3.3-1.5 2-.7 5.1 4 8.8h.1zm-30-19.3c-.3-3.1.5-5 2.7-6.5-5.2-3.2-8-3-9-.8-.9 2.3.8 5.1 6.4 7.3h-.1zM456.2 79c-.8-3-.3-5 1.7-6.8-5.6-2.4-8.4-1.9-9 .5-.6 2.4 1.5 4.9 7.3 6.3zm-17.5-5.4c-1.1-3-.8-5 1.1-7-5.8-1.9-8.5-1.1-9 1.3-.3 2.4 2 4.8 7.9 5.7zm-17.3-3.4c-1.2-2.8-1-5 .7-7-6-1.5-8.6-.5-8.8 2-.3 2.4 2.2 4.6 8.1 5zm-18.2-1.4c-1.6-2.7-1.6-4.8 0-7-6.1-.9-8.7.4-8.6 2.8 0 2.5 2.7 4.4 8.6 4.2zm-35.7 2.7c-2.2-2.2-2.7-4.3-1.8-6.8-6 .6-8.2 2.4-7.6 4.8.6 2.4 3.7 3.6 9.4 2zm17.6-2.3c-1.9-2.5-2.2-4.6-.9-7-6.1-.2-8.5 1.3-8.2 3.8.3 2.4 3.2 4 9 3.2h.1zm-34.9 6c-2.4-1.9-3.3-3.8-2.7-6.4-6 1.5-7.8 3.6-6.9 5.8 1 2.3 4.2 3 9.6.6zm-33 15.2c-2.8-1.4-4-3.1-3.9-5.8-5.6 2.6-7 5-5.6 7 1.3 2 4.6 2.2 9.5-1.2zm16-8.1c-2.7-1.7-3.6-3.6-3.2-6.2-5.9 1.8-7.6 4-6.5 6.2 1.1 2.2 4.4 2.8 9.6 0h.1zm-45.6 28.8c-3-.8-4.6-2.3-5-5-5 3.8-5.8 6.4-4.1 8.1 1.8 1.7 5 1.2 9-3.1h.1zm14.1-11.6c-3-1-4.4-2.6-4.6-5.2-5.2 3.2-6.3 5.8-4.7 7.7 1.6 1.8 5 1.5 9.3-2.5zm-26.7 24c-3-.6-4.7-1.9-5.4-4.5-4.6 4.1-5.2 6.9-3.3 8.4 1.9 1.6 5 .7 8.7-4v.1zM263.7 138c-3.2-.2-5-1.3-5.8-3.8-4.2 4.5-4.6 7.2-2.6 8.6 2 1.4 5.1.2 8.4-4.8zm-9.4 15c-3.2.2-5-.7-6.4-3-3.4 5.1-3.4 8-1.2 9s5.1-.6 7.6-6zm-8.3 16c-3 .6-5 0-6.7-2.2-2.7 5.5-2.3 8.3 0 9 2.3.8 5-1.2 6.7-6.9v.1zm-6.6 16.3c-3 1.1-5 .8-7-1-1.8 5.8-1 8.5 1.5 8.9 2.4.3 4.7-2 5.5-8v.1zm-4.5 18.2c-2.8 1.3-4.9 1.2-7-.5-1.4 6-.4 8.5 2 8.7 2.5.3 4.7-2.2 5-8.2zm-1.8 15.2c-2.6 1.4-4.7 1.6-7 .5-.7 4.9.6 6.8 3 6.6 2.4-.2 4.3-2.4 4-7.1zm307-72.2c1.1-3 2.7-4.4 5.3-4.6-3.2-5.2-5.7-6.3-7.6-4.8-1.9 1.6-1.6 5 2.3 9.4zm25.2 85c2.3-2.2 4.4-2.7 6.8-1.6-.4-6.1-2.2-8.3-4.6-7.8-2.3.6-3.6 3.6-2.2 9.4z" fill="#FFE300"/><path d="M541.3 132s-7 6.9-5.7 15.2c1.2 8.3 6.5 18.6 5.5 27.3-1 8.6-2.5 14.3-2.5 14.3s8-9.1 8-18c.2-8.7-5.4-20.3-5.4-26.7 0-6.4.3-12.2.1-12v-.1zm12.7 28s-5.3 4-4.8 13c.5 9.1 10 25.8 10 25.8s6.8 14 6.5 17.7c-.2 3.7 1.3-3.5.6-11.5-.7-8-11-25.8-11-25.8s-2.2-3.6-2-9.7c.2-6 .8-9.4.8-9.5h-.1z" stroke="#000" stroke-width="1.9" fill="#217900" stroke-linejoin="round"/><path d="M393 47.4c0-1.8-2.2-3.4-4.8-3.4-2.6 0-4.7 1.6-4.7 3.4 0 1.8 2 3.4 4.7 3.4s4.7-1.5 4.7-3.4h.1zm2 8c0-1.8-2.2-3.3-5-3.3-2.6 0-4.8 1.4-4.8 3.2 0 1.8 2.2 3.3 4.9 3.3s4.8-1.5 4.8-3.3l.1.1zm6-9.4s-5.6 4.1-3.3 5.8c2.3 1.7 8.6-3.6 8.6-3.6L401 46zm163.3 95.4c0-1.2-.5-2.3-1.4-2.9a2.6 2.6 0 0 0-3 0c-.9.6-1.4 1.7-1.4 2.9s.5 2.3 1.4 2.9a2.6 2.6 0 0 0 3 0c.9-.6 1.4-1.7 1.4-2.9zm-2.1-8c0-2-1.4-3.5-3-3.5s-3.1 1.6-3.1 3.6 1.4 3.5 3 3.5 3.1-1.6 3.1-3.5v-.1zm1.5 16.2c0-1-.6-1.8-1.2-1.8s-1.2.8-1.2 1.8.5 1.9 1.2 1.9 1.2-.9 1.2-1.9zm4.9-14.4c0-1.2-.6-2.1-1.2-2.1-.7 0-1.2.9-1.2 2s.5 2.2 1.2 2.2c.6 0 1.2-1 1.2-2.1zm-13.4 1.4c0-1-.6-1.7-1.2-1.7s-1.2.8-1.2 1.7c0 .9.5 1.8 1.2 1.8s1.2-.8 1.2-1.8zm2.1 11.4c0-1.5-1.1-2.7-2.5-2.7s-2.5 1.2-2.5 2.7c0 1.6 1 2.8 2.5 2.8s2.5-1.2 2.5-2.8zm-6.6-5c0-1.3-1-2.4-2.1-2.4-1.2 0-2.2 1-2.2 2.4s1 2.4 2.2 2.4c1.1 0 2-1 2-2.4h.1zm-1-6.8a2 2 0 0 0-1-1.7 1.8 1.8 0 0 0-1.9 0 2 2 0 0 0-.9 1.7 2 2 0 0 0 1 1.8 1.8 1.8 0 0 0 1.8 0c.6-.4 1-1 1-1.8zm30.1 34.4c-2.7-3.6-7.1-5.1-9.8-3.4-2.6 1.7-2.6 6 .2 9.7 2.7 3.6 7 5.1 9.7 3.4 2.7-1.8 2.7-6 0-9.7h-.1zm7.8 66.7c.5-4.5-1.6-8.4-4.8-8.8-3.2-.3-6.2 3-6.8 7.4-.5 4.4 1.7 8.3 4.9 8.7 3.2.4 6.2-3 6.7-7.3zm1.6 38.8c1-4.4-.9-8.5-4-9.2-3.2-.6-6.5 2.4-7.4 6.8-.9 4.3 1 8.4 4 9 3.2.7 6.5-2.3 7.4-6.7v.1zm7.5-36.4c0-1.7-1.2-3.1-2.6-3.1-1.4 0-2.7 1.4-2.7 3.1 0 1.8 1.2 3.2 2.7 3.2 1.5 0 2.6-1.4 2.6-3.2zm-6.5 7.3l-5.4 6.2s-5.1.1-4.8 1.8c.2 1.6 7 6.6 7 8.6-.1 2 4.4-.5 4.4-.5l3.7-11.1s-.2-7.7-2.2-7.6c-2 .2-2.5 2.5-2.7 2.6zm-357.4-2.4a2.6 2.6 0 1 0-5.1-1.015 2.6 2.6 0 0 0 5.1 1.015zm2.5-8c0-1.4-1.2-2.6-2.6-2.6-1.4 0-2.6 1.2-2.6 2.7 0 1.5 1.2 2.7 2.6 2.7a2.7 2.7 0 0 0 2.6-2.7v-.1zM214 199.2c-1-2.2-3-3.4-4.5-2.7-1.5.7-2 3-1 5.2s3 3.4 4.5 2.7c1.6-.7 2-3 1-5.2zm6.5 23.4c-1.4-2.8-4.1-4.4-6.2-3.5-2.1.9-2.7 3.9-1.4 6.7 1.3 2.8 4 4.4 6.2 3.5 2.2-.9 2.7-3.9 1.4-6.7zm6.8 17.2c.5-3.5-1-6.8-3.2-7.2-2.3-.5-4.4 2-4.9 5.5-.4 3.5 1 6.7 3.3 7.2 2.2.5 4.4-2 4.8-5.5zm-11 2.5c1.4-3.3.9-6.8-1.1-7.8s-4.8.7-6.2 4c-1.4 3.3-.9 6.7 1.2 7.8 2.1 1.1 4.7-.7 6.1-4z" fill="#6B18B5"/><path d="M211.3 234.8c0-1.7-1.3-3-2.9-3-1.6 0-2.9 1.4-2.9 3s1.3 3 3 3 2.8-1.3 2.8-3zm-2.3-7.5c0-1.5-1.2-2.7-2.6-2.7a2.7 2.7 0 0 0-2.6 2.8c0 1.4 1.2 2.7 2.6 2.7 1.4 0 2.6-1.3 2.6-2.8zm2.4-14.3c0-2.6-1.1-4.6-2.5-4.6s-2.5 2-2.5 4.6c0 2.5 1.1 4.6 2.5 4.6s2.5-2 2.5-4.6zm7.8-1.1c.3-2.5-.5-4.7-2-5-1.3-.1-2.7 1.8-3 4.3-.4 2.5.5 4.7 1.9 4.9 1.3.2 2.7-1.7 3-4.2h.1zm55-110c1.1-3.6 0-7.2-2.3-8-2.3-.9-5 1.3-6 4.9-1 3.6 0 7.2 2.3 8 2.3.9 5-1.3 6-4.9zm-10.4 15.9c3-2.7 4.4-6.3 3-8.1-1.5-1.9-5.2-1.2-8.3 1.4-3.1 2.6-4.3 6.2-2.9 8 1.5 1.9 5.2 1.3 8.2-1.3zm-6-8.8c3-2.3 4.2-5.4 2.8-7-1.4-1.6-5-1-8 1.2-3.1 2.3-4.4 5.4-3 7 1.4 1.6 5 1 8.1-1.2h.1zm23.5-15.5c2-1.6 2.9-3.8 2-4.9-1-1-3.5-.7-5.6.9-2.1 1.6-2.9 3.7-1.9 4.8 1 1.1 3.4.7 5.5-.8z" fill="#6B18B5"/><path d="M269 108.5c1.4-2.2 1.5-4.5.2-5.2-1.3-.7-3.5.4-4.9 2.6-1.4 2.2-1.5 4.5-.2 5.2 1.3.7 3.5-.5 4.9-2.6zm17.7-9.3c2.2-1.9 3-4.3 2-5.5-1.2-1.2-4-.6-6.2 1.2-2.2 1.8-3 4.3-1.9 5.5 1.2 1.2 3.9.6 6.1-1.2zm-32 21.6c2 0 3.6-1.1 3.4-2.3 0-1.1-1.9-2-4-1.9-2 .1-3.6 1.2-3.4 2.3.1 1.2 2 2 4 2v-.1zm38.7-33.1c1.4-2.2 1.5-4.5.2-5.2-1.2-.7-3.4.4-4.8 2.6s-1.5 4.5-.2 5.2c1.3.7 3.4-.4 4.8-2.6z" fill="#6B18B5"/><path d="M526.8 153.4s6.4-10.1 4-19.7c-2.5-9.5-13-2.7-12.8.7.2 3.3 6.8 7.9 7.2 10 .4 2-.8 8.3 1.6 9z" stroke="#EF8A10" fill="#FFD200"/><path d="M404.9 69.3s23 .9 23.1 15.8c0 2.3 0 5-.8 11.7 4.6-2.5 7.6-9.3 7-13.7.1-15.1-20.5-25.5-29.3-13.8z" stroke="#000" stroke-width="2.3" fill="#217900" stroke-linejoin="round"/><path d="M390.3 68.6s18.5-3.8 18.7 11c.1 15-6 17.3-6 17.3s14.3-3 14.4-18.1c0-15.2-18.3-21.9-27.1-10.2z" stroke="#000" stroke-width="2.3" fill="#217900" stroke-linejoin="round"/><path d="M453.3 390s86.8-24.6 113-131C551 368.1 456 403 456 403l-2.8-13h.1z" stroke="#000" stroke-width="2.5" fill="#F7DF73" stroke-linejoin="round"/><path d="M462.2 396.6c2.7 0 9.3-7.4 13.1-8.2 3.8-.8 4.2-4.7-.1-4.8-4.4-.2-8.2 5-8.2 5s-3.8 3.2-7.8 3.6c-4 .4-1.4 5.4 3 4.4z" fill="#8C1800"/><path d="M512.2 359.3s-9 5.2-7.8 6.5c1.3 1.3 9.3-5 9.5-5 .1-.2 3.4-4.2-1.7-1.5z" stroke="#8C1800" stroke-width="2.5" fill="#8C1800"/><path d="M480.7 383s-2.7-1 4.2-3.6c7-2.7 6.5-5.8 8.8-7.1 2.2-1.3 7-4.7 8-2.7s-5 6-6.5 6.4c-1.4.4-8.3 6.8-10.3 7.3-2 .6-3.4.3-4.2-.3z" fill="#8C1800"/><path d="M525.6 346c-6 6.7-6 6.5-6 6.5" stroke="#8C1800" stroke-width="3" stroke-linecap="round"/><path d="M534.5 335.2l-5.7 6.9" stroke="#8C1800" stroke-width="2.8" stroke-linecap="round"/><path d="M543.4 321l-6.4 10.2" stroke="#8C1800" stroke-width="2.5" stroke-linecap="round"/><path d="M550.9 306.6l-5.3 10.5m8.6-18l-1.6 3.6" stroke="#8C1800" stroke-width="2.3" stroke-linecap="round"/><path d="M558 289l-1.4 4.4" stroke="#8C1800" stroke-width="1.4" stroke-linecap="round"/><path d="M339.459 387.734s-86.075-25-111.897-133.499C242.625 365.625 336.81 400.83 336.81 400.83l2.649-13.095z" stroke="#000" stroke-width="2.517" fill="#F7DF73" stroke-linejoin="round"/><path d="M330.7 394.4c-2.7 0-9.2-7.5-13-8.3-3.8-.9-4.2-4.8.1-5 4.4 0 8.1 5.1 8.1 5.1s3.8 3.3 7.7 3.8c4 .4 1.4 5.4-2.9 4.4z" fill="#8C1800"/><path d="M281.193 356.443s8.938 5.441 7.614 6.802c-1.159 1.19-9.104-5.102-9.27-5.272-.165-.17-3.31-4.251 1.656-1.53z" stroke="#8C1800" stroke-width="2.517" fill="#8C1800"/><path d="M312.4 380.6s2.6-1-4.2-3.7c-6.8-2.7-6.5-6-8.7-7.2-2.2-1.3-7-4.7-8-2.7s5 6 6.5 6.4c1.4.5 8.2 7 10.2 7.5 2 .6 3.3.3 4.2-.3z" fill="#8C1800"/><path d="M267.95 343.008l5.794 6.632" stroke="#8C1800" stroke-width="3.021" stroke-linecap="round"/><path d="M259.012 331.954l5.628 6.972" stroke="#8C1800" stroke-width="2.853" stroke-linecap="round"/><path d="M250.239 317.498l6.29 10.374" stroke="#8C1800" stroke-width="2.517" stroke-linecap="round"/><path d="M242.79 302.873l5.297 10.714m-8.607-18.537l1.655 3.741" stroke="#8C1800" stroke-width="2.349" stroke-linecap="round"/><path d="M235.673 284.846l1.49 4.592" stroke="#8C1800" stroke-width="1.342" stroke-linecap="round"/><path d="M570.4 239.3c.5 6.7 7 13 4.4 24.7-3.2 13.3-14.8 44.7-12.8 50.2-3.4-4.7-2.8-9-3-15.6-.4-6.5 9.4-30.9 10.3-39.1 0-7.4.7-17.5 1.1-20.2z" stroke="#000" stroke-width="2.3" fill="#217900" stroke-linejoin="round"/><path d="M570.4 239.4s10.7 13.5 10.1 24.2c-.5 10.7-6.5 23.2-4.5 28.7a21.7 21.7 0 0 1-4.6-14.2c-.3-6.5 5.3-13.8 4.1-20.9-1.1-7-5.2-17.8-5-17.8h-.1zm-349.3 3c-.4 6.7-5.4 12.7-2.8 24.3 3.2 13.3 15 30 13 49.2 3.5-4.7 4.5-10 4.8-16.5.2-6.5-13-28.5-13.8-36.8 0-7.4-.8-17.5-1.2-20.2z" stroke="#000" stroke-width="2.3" fill="#217900" stroke-linejoin="round"/><path d="M221.1 242.6s-10.4 13-9.8 23.7c.1 7.1 13.2 36.8 11.2 42.4 3.5-4.7 4.4-4.1 4.3-11.2-3.8-18.3-10.7-29.9-9.5-37 1.1-7.1 4-18 3.8-18v.1z" stroke="#000" stroke-width="2.3" fill="#217900" stroke-linejoin="round"/><path stroke="#000" stroke-width="1.981" fill="#FFF" stroke-linecap="square" stroke-linejoin="round" d="M398.516 123l25.634 79.476h83.891l-67.58 49.177 25.75 79.476-67.578-49.06-67.58 49.06 25.634-79.476-67.696-49.177h83.658z"/></g></svg>