<svg width="800" height="480" xmlns="http://www.w3.org/2000/svg"><g fill="none" fill-rule="evenodd"><path fill="#006" d="M0 0h800v480H0z"/><path d="M486.3 120.3h214.3l-.3 153.4c1.8 61.7-36.4 100-106.7 117.2-50-12.5-107.5-38.3-107.6-115.5l.3-155.2v.1z" fill="#FFF"/><path d="M490.922 124.83H695.83l-.242 147.038c1.693 59.156-34.837 95.794-101.97 112.348-47.779-11.929-102.816-36.76-102.816-110.765l.242-148.499-.12-.122z" stroke="#000" stroke-width="1.213" fill="#00A2BD"/><path d="M694.3 289.3c-7.5 56.4-50.7 81.1-100.7 94.2-44.3-12-92-31-101.1-93.9l201.8-.3z" fill="#A53D08"/><g stroke="#000"><path d="M626.156 337.232s.725 11.32-5.323 18.136c5.444 1.704 9.072-.365 10.766-2.434 1.693-2.191 2.298-4.99 2.298-4.99s1.452-.975 1.694-3.044c0-2.8-1.21-2.8-2.178-3.408l.242-6.33s-6.169-3.773-7.5 2.07z" stroke-width="1.577" fill="#FFC6B5" stroke-linejoin="round"/><path d="M625.793 353.177l-1.815-1.46" stroke-width="1.213" fill="#FF9A08" stroke-linecap="round"/></g><path d="M608.98 181.674s.241 6.816-.243 7.546c-.483.73-4.354 2.435-4.354 2.435l3.387 7.181 9.314-1.339 3.991-10.59s-2.056-3.53-1.572-7.303c-3.024-9.737-10.403 2.07-10.524 2.07z" stroke="#000" stroke-width="1.213" fill="#FFC6B5"/><path d="M596.641 344.292s5.323 5.355 11.25 4.747c13.668-1.583 17.66-13.755 21.773-13.876 4.112-.122 6.894 7.303 10.886 6.45a68.768 68.768 0 0 1-6.532-30.064c.605-9.738.605-51.122.605-51.122s-6.774-21.423-10.04-24.953a23.22 23.22 0 0 0 5.322-16.067v-13.998s1.573-1.826 1.452-6.938-8.588-12.537-9.677-12.172c-1.21.243-11.975 9.494-12.822 11.685-.967 2.191-2.177-7.912-.12-8.764 2.056-.973-4.839-1.46-9.073 3.652-4.354 5.112-3.024 151.785-3.024 151.541v-.121z" stroke="#000" stroke-width="1.577" fill="#005121" stroke-linejoin="round"/><path fill="#000" d="M545.5 152.1l40 .2-.3-18.6 14.6.2.1 18.4h39.8l.2 14.3-40 .2-.3 169.4h-14.2l-.2-169.6-39.7.2V152z"/><path d="M585.271 197.01s-2.66-.486-4.838 0c-2.177.487 3.266-23.735 3.266-25.804 1.814-.852 11.128-2.435 10.886-9.13-.726-3.894-14.273.244-14.031 5.235-.968 2.556-9.798 28.117-8.105 36.516 3.145 2.434 8.951 2.069 12.822 1.339v-8.156z" stroke="#000" stroke-width="1.213" fill="#FFC6B5"/><path d="M587.932 161.955s-.725 4.504 3.266 5.234" stroke="#000" stroke-width=".728" stroke-linecap="round"/><path d="M593.98 161.833l-5.322 3.408m4.96-1.338l-3.63 2.677m2.42-5.72l-4.113 2.434" stroke="#000" stroke-width=".5"/><path d="M553.217 296.334l36.409 37.977c12.7-13.877 3.87-66.094-12.701-75.589-1.935 6.086-5.322 13.511-8.951 15.824-7.862 5.477-27.216 11.807-20.805 15.824 1.451-1.948 5.322-3.895 7.257.608 2.057 7.303-8.104 7.669-8.104 7.669s-6.532-.73-7.62-7.304c-1.21-6.694 9.676-12.78 10.523-13.267.968-.244 15-4.017 17.418-16.676 2.903-12.293 6.048-10.468 6.532-10.711 18.386 1.826 30.482 34.934 31.087 58.304.726 23.248-9.314 38.707-11.25 39.802-1.814.974-43.787-50.27-43.787-50.27l3.992-2.191z" stroke="#000" stroke-width="1.213" fill="#FF9A08"/><path d="M579.828 260.792l.121 68.771m-4.234-67.432l.242 62.32m-4.717-53.313l.242 49.662m-3.871-46.132l.242 41.02m-4.113-39.194v34.69m-4.233-31.89v27.264m-3.63-25.317v21.057" stroke="#000" stroke-width="1.213"/><path d="M552.612 300.594l37.619 43.332m1.814-70.597s16.934 37.49 1.21 68.285m-44.998-48.932s1.21-3.286 2.783-1.947m-5.807-7.547s-6.773 6.086-3.024 9.86" stroke="#FFDF00" stroke-width="1.577" stroke-linecap="round"/><path d="M608.254 198.228s.604 5.234-.484 9.25c-1.089 4.017 4.233 15.094 2.177 17.406m.605 10.712l14.273-.122" stroke="#000" stroke-width="1.213"/><path d="M605.35 241.438c0 .244 1.694 7.547 1.21 12.537m3.387-9.98c-.363 1.582-6.29 18.5-6.048 19.11m9.677-26.779c0 .365-.484 10.833-2.056 12.294m9.313-13.024s9.314 21.666 9.193 30.308c-.12 8.642 3.145 25.926.968 33.595m-7.258-33.839s-.725 16.068-7.378 22.397c-6.653 6.33 15.967 24.222 15.967 24.222" stroke="#000" stroke-width="1.213" stroke-linecap="round"/><path d="M623.495 311.305s2.419 22.154 6.773 23.736m-27.337-60.86c.121.122-2.298 14.85-.363 17.284 1.936 2.435 18.024 24.953 17.298 48.201m-4.476-6.938s-.484 14.12-13.426 15.215m9.556-24.344s3.87 14.607-9.314 23.736" stroke="#000" stroke-width="1.577" stroke-linecap="round"/><path d="M616.6 288.179s14.878 15.58 15.483 22.396m-11.129-74.614s2.54 10.955 1.573 13.024" stroke="#000" stroke-width="1.213" stroke-linecap="round"/><path d="M574.99 258.722s-1.573-2.8-1.331-5.964c.242-3.165-.605-7.912 9.435-11.807 6.048-6.086 12.822-9.859 16.45-11.807 5.444-3.53 8.952-2.677 12.096-3.895 2.057-2.434 1.936-7.668 4.234-12.415 2.177-4.747 6.048-14.485 10.16-12.902 4.234 1.46.968 14.12-.604 18.501-1.573 4.382-3.024 9.007-5.806 11.685-2.782 2.8-15.483 7.669-17.902 8.52-2.42.853-13.91 3.652-16.814 7.547-2.903 4.017-2.66 9.981-9.918 12.537z" stroke="#000" stroke-width="1.213" fill="#FFC6B5"/><path d="M574.143 250.324c.363-.122 5.08-1.583 7.257 2.556" stroke="#000" stroke-width="1.213"/><path d="M609.463 164.39s-2.177 3.408-2.782 5.599c-.484 1.582-1.935-.122-2.661 3.286l1.21.243c-.484.974-.605 2.678-.726 3.043-.121.366-.847 2.191-.726 3.652 0 .609 1.33 3.652 12.217-.974 10.886-4.625-3.508-18.014-6.653-14.85h.121z" stroke="#000" stroke-width="1.577" fill="#FFC6B5" stroke-linejoin="round"/><path d="M608.133 164.876c1.21-.608 9.072-1.339 7.741 14.242 1.452-.244 2.42-.487 3.266 1.095.968 1.46.847 3.286 2.42 3.286 1.693 0 1.814-.365 2.297-1.582.363-1.217 6.653 1.46 8.347-4.138-.363-1.218-3.871-2.8-4.355-4.87.968-2.799-.363-11.928-11.975-12.415-5.927 0-7.137 2.435-7.741 4.382z" stroke="#000" stroke-width="1.577" fill="#C59200" stroke-linecap="round" stroke-linejoin="round"/><path d="M607.528 167.92c.12.121 3.629 1.217 3.992 2.799" stroke="#000" stroke-width="1.213" stroke-linecap="round"/><path d="M609.7 172.1c0 .5-.4 1-.9 1s-.9-.5-.9-1 .4-1 1-1 .8.5.8 1z" fill="#000"/><path d="M624.462 172.058s-1.21 6.208 4.355 8.642m-8.467-7.79s2.056 0 2.056 1.947c0 2.07-1.694 2.313-1.573 3.774 0 1.582 2.903 2.19 3.024 3.408m-12.7-20.57s9.918 1.216 9.435 3.65c-.605 2.435-2.178 1.461-2.057 3.652s3.87.73 3.87.73.243-1.703 1.936-1.582c1.694.122.847 1.948 3.145 1.948" stroke="#000" stroke-width="1.577" stroke-linecap="round" stroke-linejoin="round"/><path d="M605.109 176.927l2.419-.122" stroke="#000" stroke-width="1.577" stroke-linecap="round"/><path d="M611.157 186.908s.967 4.138-2.42 3.651" stroke="#000" stroke-width="1.213" stroke-linecap="round"/><g fill-rule="nonzero"><path d="M0 0v28.5l343.6 226H387V226L43.3 0H0zm386.9 0v28.5l-343.6 226H0V226L343.6 0H387h-.1z" fill="#FFF"/><path d="M161.2 0v254.4h64.5V.1h-64.5V0zM0 85v84.7h386.9V84.8H0v.2z" fill="#FFF"/><path d="M0 101.8v50.9h386.9v-50.9H0zM174.1.1v254.3h38.7V.1h-38.7zM0 254.4l129-84.8h28.8l-129 84.8H0zM0 .1l129 84.8h-29L0 19V0v.1zm229.1 84.8L358.1 0h28.8l-129 84.8h-28.8v.1zm157.8 169.5l-129-84.8h28.9l100.1 65.9v19-.1z" fill="#C00"/></g></g></svg>