<svg width="800" height="480" xmlns="http://www.w3.org/2000/svg"><g fill="none" fill-rule="evenodd"><path fill="#CE0000" d="M400 0h400v480H400z"/><path fill="#FFF" d="M0 0h400v480H0z"/><g transform="translate(89 51)"><path d="M103.59 91.12c0 1.439-1.44 2.398-3.198 2.398-1.918 0-3.197-.96-3.197-2.238 0-1.279 1.279-2.398 3.197-2.398 1.759 0 3.197 1.12 3.197 2.398v-.16z" fill="#F1EEEE"/><path d="M1.119 79.93v59.468h59.628c0 9.911 9.911 19.823 19.822 19.823v59.467h59.628v-59.467c9.912 0 19.823-9.912 19.823-19.823h59.468V79.93H159.86c0-9.911-9.911-19.823-19.823-19.823V.64H80.57v59.468c-10.07 0-19.982 9.912-19.982 19.823H1.119z" fill="#C00"/><path d="M3.197 81.848v55.632h59.468c0 9.91 9.911 19.822 19.823 19.822v59.468h55.471v-59.308c9.911 0 19.823-9.911 19.823-19.823h59.628V82.01h-59.468c0-9.912-9.912-19.823-19.823-19.823V2.558H82.488v59.468c-9.912 0-19.823 9.911-19.823 19.822H3.197z" fill="#FFE600"/><path d="M5.116 83.927V135.4h59.467c0 9.912 9.912 19.823 19.823 19.823v59.468h51.635v-59.468c9.911 0 19.822-9.911 19.822-19.823h59.468V83.926h-59.468c0-9.91-9.91-19.822-19.822-19.822V4.636H84.406v59.308c-9.911 0-19.823 9.911-19.823 19.823H5.116v.16z" fill="#707070"/><path d="M7.194 85.845v47.638h59.468c0 9.911 9.91 19.823 19.822 19.823v59.308h47.479v-59.468c9.911 0 19.822-9.911 19.822-19.823h59.468V85.685h-59.468c0-9.911-9.911-19.823-19.822-19.823V6.554H86.484v59.468c-9.911 0-19.822 9.911-19.822 19.823H7.034h.16z" fill="#A0A0A0"/><path d="M86.964 61.067c3.357 3.516.64 11.989-6.395 19.023-7.033 7.034-15.346 9.591-18.863 6.394-3.517-3.677-.64-12.15 6.394-19.183 7.034-7.034 15.347-9.592 18.864-6.234z" fill="#D0D0D0"/><path d="M82.648 65.223c3.517 3.517 2.557 10.071-2.079 14.867-4.636 4.796-11.19 5.595-14.707 2.078-3.517-3.517-2.557-10.071 2.079-14.707 4.635-4.636 11.19-5.595 14.707-2.238z" fill="gray"/><path d="M65.223 75.774l1.279-1.28 5.595 2.718-2.718-5.595 1.439-1.438 5.595 11.19-11.19-5.595zm8.313-8.313l1.598-1.599 8.313 8.633-1.439 1.279-8.472-8.313z" fill="#D0D0D0" fill-rule="nonzero"/><path d="M158.741 86.324c-3.517 3.517-11.99.64-18.864-6.394-6.873-7.034-9.91-15.347-6.394-18.863 3.517-3.517 11.99-.64 19.023 6.394 7.034 7.034 9.592 15.346 6.395 18.863h-.16z" fill="#D0D0D0"/><path d="M154.585 82.168c-3.517 3.517-10.072 2.558-14.708-2.078-4.635-4.636-5.595-11.19-2.238-14.707 3.517-3.517 10.231-2.558 14.867 2.078 4.636 4.636 5.596 11.19 2.079 14.707z" fill="gray"/><path d="M144.034 64.583l1.439 1.44-2.878 5.594 5.595-2.877 1.599 1.598-11.35 5.436 5.595-11.19zm8.472 8.473l1.28 1.279-8.313 8.472-1.44-1.438 8.473-8.313z" fill="#D0D0D0" fill-rule="nonzero"/><path d="M133.483 158.261c-3.517-3.517-.64-11.99 6.394-19.023 7.034-7.034 15.347-9.751 18.864-6.394 3.517 3.517.64 11.99-6.394 19.023-7.034 7.034-15.347 9.751-18.864 6.394z" fill="#D0D0D0"/><path d="M137.8 153.945c-3.518-3.517-2.558-10.071 2.077-14.707 4.636-4.636 11.19-5.595 14.708-2.078 3.517 3.517 2.557 10.071-2.079 14.707-4.636 4.636-11.19 5.595-14.867 2.078h.16z" fill="gray"/><path d="M155.224 143.394l-1.439 1.599-5.595-2.877 2.878 5.595-1.439 1.279-5.595-11.19 11.19 5.594zm-8.153 8.473l-1.598 1.439-8.313-8.473 1.439-1.439 8.472 8.473z" fill="#D0D0D0" fill-rule="nonzero"/><path d="M61.706 133.004c3.517-3.517 11.99-.64 18.863 6.234 6.874 6.874 9.752 15.506 6.395 18.864-3.517 3.516-11.99.799-19.023-6.235-7.034-7.034-9.592-15.506-6.395-18.863h.16z" fill="#D0D0D0"/><path d="M65.862 137.16c3.517-3.517 10.072-2.558 14.707 2.078 4.636 4.636 5.596 11.19 2.079 14.707-3.357 3.517-10.072 2.558-14.707-2.078-4.636-4.636-5.596-11.19-2.079-14.707z" fill="gray"/><path d="M76.413 154.744l-1.439-1.598 2.878-5.435-5.595 2.717-1.599-1.438 11.35-5.596-5.595 11.19v.16zm-8.472-8.472l-1.28-1.439 8.313-8.313 1.44 1.28-8.474 8.472z" fill="#D0D0D0" fill-rule="nonzero"/><path d="M151.99 109.7c0 22.942-18.64 41.63-41.65 41.63-23.011 0-41.595-18.632-41.595-41.63s18.639-41.631 41.65-41.631c23.01 0 41.649 18.633 41.649 41.63h-.055z" stroke="#707070" stroke-width=".799"/><path d="M141.88 109.615c0 17.48-14.2 31.72-31.732 31.72s-31.691-14.197-31.691-31.72c0-17.522 14.2-31.719 31.732-31.719s31.733 14.197 31.733 31.72h-.042z" stroke="#707070" stroke-width=".799"/><path d="M96.396 143.394a1.998 1.998 0 1 1-3.997 0 1.998 1.998 0 0 1 3.997 0zm31.652 0a1.998 1.998 0 1 1-3.997 0 1.998 1.998 0 0 1 3.997 0zm-19.183 0v2.079h-2.558c-2.718 0-2.718 2.078 0 2.078h2.558v1.918c0 2.238 2.398 2.398 2.557.16v-2.238h2.718c2.718 0 2.718-1.918 0-1.918h-2.558v-2.079c0-2.078-2.717-2.078-2.717 0z" fill="#D0D0D0"/><path d="M100.392 113.98v1.28s-.64.798-4.636 1.118c-3.996.32-4.636 0-4.636 0 .16 1.12.96 3.037.64 5.275.16 2.718-.64 5.116-.64 5.116 0 .16-.48.32-1.279.16.64-.64.64-2.238.64-4.796 0-2.238-2.398-5.915-1.919-6.874.48-.96 11.83-1.279 11.83-1.279zm15.666-4.156l10.391-.16s1.599 3.197 1.439 4.796c0 1.598-.64 3.197-1.279 2.398-.8-.8.32-.64.48-2.398 0-1.919-1.28-3.677-1.28-3.677s-2.877 1.119-7.033.96c-4.156-.32-2.238-1.92-2.718-1.92z" stroke="#707070" stroke-width=".5" fill="#D0D0D0"/><path d="M117.337 112.861c3.837-.16 6.395.32 6.395.32s1.598 3.197 1.598 4.796c-.16 1.598-.64 3.197-1.439 2.398-.639-.64.32-.48.48-2.398 0-1.759-1.279-3.677-1.279-3.677s-2.717 1.119-6.874.96c-4.156-.32-2.877-.48-3.357-.64-.48 0-.64 1.278-6.874 1.438-6.394 0-9.591-1.438-9.591-1.438s-.64.959-4.477 1.278h-4.795c.16.96.959 2.878.799 5.276 0 2.558-.8 5.115-.8 5.115h-1.118c.64-.48.48-2.238.64-4.636 0-2.397-2.559-5.914-2.08-7.033.64-.96 3.518 0 3.997-.48.48-.64-2.557-4.316-1.918-7.673.48-3.357 3.837-2.398 7.833-2.398 3.997.16 12.79 1.279 15.027 0 2.238-1.12 1.279-5.435 3.197-8.153a6.554 6.554 0 0 1 5.276-2.398c1.438 0 3.197 4.796 3.197 5.915l-.48.64h-.64v.479c-1.598.16-1.758-1.279-2.717-2.238-.32 1.599 1.28 7.034 1.28 10.55 0 2.878-1.12 4.157-1.28 3.997z" stroke="#707070" stroke-width=".5" fill="#D0D0D0"/><path d="M104.708 107.746c0 1.119-4.955 3.836-5.435 4.795-.32 1.12 1.279 1.599.8 2.238-.48.64-.96.32-1.12.48l-1.918-3.996s4.796-2.238 4.636-3.198c-.16-.959-3.517-1.598-4.156-3.836-.64-2.238-.32-6.874-.8-7.833-.48-.96-6.394-1.919-6.394-3.198 0-1.598 6.075-5.435 6.714-6.074.64-.64 1.279.64.64 1.119-.64.64-5.276 4.316-5.276 4.796 0 .639 3.837 1.278 5.116 1.278 1.438 0 2.078-.639 2.078-1.278 0-.48-1.439-.48-1.439-1.6 0-1.118.8-1.917 2.078-1.917.64 0 1.919.799 1.919 1.758 0 .96-1.12 1.12-1.28 1.759-.16.799 1.28 1.278 2.558 1.278 1.28 0 5.755 3.357 6.395 3.997.8.48 1.439.48.8 1.119-.64.64-.32 1.279-.96.64a2.398 2.398 0 0 1-.64-1.12c0-.48-4.795-2.877-5.595-2.398-.639.64 0 7.674 0 8.313 0 1.12 1.44 1.12 1.28 2.878z" stroke="#707070" stroke-width=".5" fill="#D0D0D0"/><path fill="#A7A7A7" d="M96.396 94.158h7.993v8.152h-7.993z"/><rect fill="gray" transform="rotate(57.858 108.426 104.039)" x="83.968" y="103.719" width="48.917" height="1" rx=".5"/><path d="M98.465 87.758c0 .648-.588 1.174-1.313 1.174s-1.312-.526-1.312-1.174c0-.649.587-1.174 1.312-1.174.725 0 1.313.525 1.313 1.174z" stroke="#707070" stroke-width=".799" fill="#D0D0D0"/><path d="M121.334 98.314c0 .48-3.197 1.119-6.555 1.119-3.516 0-6.554-.64-6.554-1.12 0-.479 3.038.8 6.395.8 3.676 0 6.714-1.279 6.714-.8z" fill="gray"/><path fill="#A7A7A7" d="M97.035 102.31h6.554v2.398h-6.394z"/><path d="M118.296 96.555c-.639 1.28-1.119 2.079-1.278 1.919 0 0 .32-1.28.959-2.398l1.279-1.918c.16.16-.32 1.278-.96 2.397zm1.599 3.198l-1.279.799a5.116 5.116 0 0 1 1.279-1.439c.8-.64 1.439-.959 1.439-.8l-1.28 1.28-.159.16z" fill="gray"/><path d="M119.256 98.154l.799 1.918-1.279-1.598-.8-1.919 1.28 1.599zm-.64 5.116s-1.918.32-4.476.32-4.636-.16-4.636-.32l4.636-.32c2.558 0 4.476 0 4.476.32zm-15.027-.64c0 .16-1.438.32-3.197.32-1.918 0-3.197 0-3.197-.32 0 0 1.279-.32 3.197-.32 1.759 0 3.197.16 3.197.32z" fill="gray"/><path d="M89.202 123.092s1.119 2.558 5.755 2.558c4.476 0 6.075-.8 4.316-2.078-1.758-1.28-5.435-.96-4.796.16.32 1.279-1.438 1.598-1.758.799-.48-.8-2.078-3.357.8-3.517 3.036-.16 9.271-1.119 10.87.64 1.598 1.758-1.759 3.197.799 3.676 2.398.32 2.877-.48 7.194-.64 4.316-.319 6.074.8 7.513.64 1.599 0 1.279-2.717 0-3.197-1.119-.8-3.357-.96-3.996-1.599-.48-.799-2.079 0-1.919-.959 0-.799 2.238.48 2.238.16l.32-.32h-.48l.16-.32-.32.16.16-.32s-.48.32-.48 0h-.319c.32-.319.16-.319 0-.479h-.48v-.48c-.32 0-.32 0-.48.32v-.799c0-.16.32-.32.8-.32 1.12 0 1.599 1.28 2.078 1.28.32 0 .8-1.28 2.238-.8l2.398.96c.8.479-.48.958 0 1.598.48.64 3.357 2.717 2.558 5.115-.8 2.238-3.197 2.558-3.197 3.517-.32.96 6.874.64 8.632.96a4.796 4.796 0 0 1 3.038 1.918l-3.198.16s-1.598-.8-5.595-.96c-3.996 0-5.435-1.598-7.033-1.918l-6.395.32-4.796-.48c-.959-.16-6.714 2.558-6.714 3.197h-3.836s.48-1.438 2.717-1.598c2.078-.32 4.316-1.28 4.157-1.919l.639-4.156c0-.96.96-1.599.8-1.918-.16-.64-2.718-1.12-5.116-1.12-2.398 0-4.956.16-5.435.64-.32.64 0 2.398.48 2.078.479 0-.16-1.279.319-1.438a10.87 10.87 0 0 1 3.197-.48c1.279 0 3.357 1.12 3.357 1.599 0 .16.64 1.279-.32 1.758a13.109 13.109 0 0 1-4.955.64 11.99 11.99 0 0 1-4.796-1.28c-.64-.479-1.12-1.598-1.12-1.758z" stroke="gray" stroke-width=".5" fill="#D0D0D0"/><path d="M118.296 119.096a.48.48 0 1 1-.959 0 .48.48 0 0 1 .96 0z" fill="#000"/><path d="M143.075 111.582l2.557.48 4.317-2.878-.32 1.599-2.238 1.439-1.279.64.8 1.278 1.438 2.238-.32 1.599-2.717-4.636-2.558-.48.32-1.279zm-4.317-18.863l4.796-2.238-1.279-2.878.64-.32 3.197 7.034-.48.32-1.438-3.037-4.796 2.398-.64-1.28zm-7.673-9.272l4.476-4.156.96.959v7.034l3.516-3.198.8.96-4.476 4.156-.96-.96V81.21l-3.517 3.197-.799-.96zm-19.822-7.993l.799-6.075h1.279l-.8 5.595 4.796.48v.8l-6.074-.8zm-9.752.96l-1.119-6.076 1.279-.32.96 5.436 4.795-.96v.8l-5.915 1.12zm-18.064 8.791l-.48-.48 3.198-2.557 1.598 1.599a9.112 9.112 0 0 1-1.279 1.918 9.112 9.112 0 0 1-1.438 1.599c-.675.54-1.43.971-2.239 1.278-.799.16-1.598.32-2.078 0a2.558 2.558 0 0 1-1.598-.799 2.718 2.718 0 0 1-.48-1.598c0-.64.16-1.44.64-2.079.32-.64.959-1.279 1.598-1.758a7.673 7.673 0 0 1 1.759-1.12l1.438-.319c.32 0 .8 0 1.12.32l-.64.8a2.078 2.078 0 0 0-.96-.16l-.958.16a5.116 5.116 0 0 0-1.12.798c-.479.32-.959.64-1.118 1.12-.27.278-.487.603-.64.959v.799c0 .48.16.96.48 1.279l1.119.8 1.598-.16a6.554 6.554 0 0 0 3.357-3.198l-.639-.96-2.238 1.76zm-.16 44.282l-5.115 3.676-3.837-5.435.64-.48 3.197 4.317 1.438-1.12-2.557-3.676.48-.32 2.717 3.677 2.238-1.599.8.96zm-7.513-7.993c.799-.16 1.279-.64 1.598-1.44v-2.397a4.156 4.156 0 0 0-1.439-2.078c-.48-.48-1.278-.64-1.918-.48-.506.11-.958.393-1.279.8-.16.32-.48.799-.48 1.278l.16 1.759c.32.959.64 1.598 1.28 2.238.479.48 1.278.64 2.078.32zm.48 1.278a2.718 2.718 0 0 1-2.718-.639 5.915 5.915 0 0 1-1.759-2.877c-.32-.96-.32-1.599-.32-2.558 0-.96.32-1.28.64-1.759a2.558 2.558 0 0 1 3.197-.959c.64.32 1.12.64 1.599 1.28a7.194 7.194 0 0 1 1.279 4.795 3.677 3.677 0 0 1-.64 1.758c-.32.48-.8.8-1.279.96zm.479-12.469h-6.395v-4.476l.32-1.918.64-1.119c.262-.234.609-.35.959-.32.48 0 .799.16 1.119.64.16.48.48 1.119.48 2.078a3.996 3.996 0 0 1 1.118-1.759l1.759-1.598v1.598l-1.28 1.12-.958.959a2.73 2.73 0 0 0-.48.639 2.558 2.558 0 0 0 0 .64v.639l-.16 1.599h2.878v1.278zm-3.517-1.438v-2.718c.054-.478.054-.96 0-1.439a1.599 1.599 0 0 0-.32-.64.8.8 0 0 0-.48-.319.88.88 0 0 0-.799.48l-.32 1.598v3.198h2.079l-.16-.16zM90.32 81.848v-7.193l1.279-.8 6.554 3.198-1.279.799-1.918-.96-3.357 2.079v2.238l-1.28.64zm1.119-3.676l2.877-1.6-1.598-.958a13.268 13.268 0 0 1-1.439-.8l.16 1.28v2.078zm29.734-1.919l6.714-2.717 1.119.799-.48 7.353-1.119-.959.16-2.078-3.197-2.398-2.078.8-1.12-.8zm3.837-.32l2.717 1.919v-1.919c.074-.538.181-1.072.32-1.598-.34.309-.716.577-1.12.8l-1.917.798zm16.465 22.86l6.075-1.438.959 4.316.32 1.918-.32 1.12a1.279 1.279 0 0 1-.8.639c-.479 0-.959 0-1.278-.32a4.476 4.476 0 0 1-1.12-1.918 3.95 3.95 0 0 1 0 .799l-.639 1.279-1.279 1.918-.32-1.598.96-1.599.64-.96c.216-.39.326-.831.319-1.278a5.915 5.915 0 0 0-.16-.8l-.32-1.438-2.717.64-.32-1.28zm3.677.48l.64 2.718c0 .48.319.959.479 1.279 0 .32.32.48.48.639l.639.16c.16 0 .48-.32.48-.64a3.357 3.357 0 0 0 0-1.598l-.8-3.038-1.918.48z" fill="#D0D0D0" fill-rule="nonzero"/></g></g></svg>