<svg width="800" height="480" xmlns="http://www.w3.org/2000/svg"><defs><radialGradient cx="48.647%" cy="50.047%" fx="48.647%" fy="50.047%" r="65.203%" gradientTransform="scale(1 .67442) rotate(14.253 -.48 .621)" id="a"><stop stop-color="#FFF" offset="0%"/><stop stop-color="#F15770" offset="100%"/></radialGradient><radialGradient cx="50.638%" cy="49.537%" fx="50.638%" fy="49.537%" r="60.486%" gradientTransform="matrix(-.62559 -.37184 .25059 -.9283 .699 1.144)" id="b"><stop stop-color="#FFF" offset="0%"/><stop stop-color="#F15770" offset="100%"/></radialGradient><radialGradient cx="49.034%" cy="50.919%" fx="49.034%" fy="50.919%" r="44.391%" gradientTransform="scale(1 .48889) rotate(2.143 -13.74 .775)" id="c"><stop stop-color="#FFF" offset="0%"/><stop stop-color="#F15770" offset="100%"/></radialGradient></defs><g fill="none" fill-rule="evenodd"><path fill="#CE1126" d="M533 0h266.667v480H533z"/><path fill="#FFF" d="M267 0h266.667v480H267z"/><path fill="#006847" d="M0 0h266.667v480H0z"/><g transform="translate(320 167)"><path stroke="#AA8C30" stroke-width=".3" fill="#FCCA3E" d="M115.8 122.4l.2 4.5 1.7-1.1-1.3-3.7z"/><circle stroke="#AA8C30" stroke-width=".2" fill="#FCCA3E" cx="115.6" cy="121.2" r="1.4"/><path stroke="#AA8C30" stroke-width=".3" fill="#FCCA3E" d="M121.1 129.4l-3.2-3.1-1.5 1.2 4.5 2.6z"/><path d="M120.9 131.2c-.5-.6-.3-1.5.3-2 .7-.5 1.6-.4 2 .2.5.6.3 1.5-.3 2-.7.5-1.6.4-2-.2z" stroke="#AA8C30" stroke-width=".2" fill="#FCCA3E"/><path stroke="#AA8C30" stroke-width=".3" fill="#FCCA3E" d="M146.3 82.6l3.4 3.3.4-1.7-3.1-2z"/><circle stroke="#AA8C30" stroke-width=".2" fill="#FCCA3E" cx="145.9" cy="81.7" r="1.4"/><path stroke="#AA8C30" stroke-width=".3" fill="#FCCA3E" d="M155.2 84.6L150 86l.5-1.7 4.4-.4z"/><circle stroke="#AA8C30" stroke-width=".2" fill="#FCCA3E" cx="156" cy="83.8" r="1.4"/><path stroke="#AA8C30" stroke-width=".3" fill="#FCCA3E" d="M138 109.8l-3.2-4.8.5-.3 3.5 4.2z"/><circle stroke="#AA8C30" stroke-width=".2" fill="#FCCA3E" cx="134.5" cy="103.8" r="1.4"/><path stroke="#AA8C30" stroke-width=".3" fill="#FCCA3E" d="M138.1 110l4 .7.1-.5-3.3-1.4z"/><circle stroke="#AA8C30" stroke-width=".2" fill="#FCCA3E" cx="143.3" cy="110.7" r="1.4"/><path d="M44.6 121c0 .8-.5 1.2-1 1.2s-1-.5-1-1.2.5-1.3 1-1.3 1 .7 1 1.4v-.1z" stroke="#AA8C30" stroke-width=".2" fill="#FCCA3E"/><path stroke="#AA8C30" stroke-width=".3" fill="#FCCA3E" d="M44.6 123.3l1 5-1.3-.5-.4-4.3z"/><path d="M45.7 121.6c.6.7-.4 1.9-1.4 2.2-1 .3-2.4-.2-2.4-1.2s1.6-.5 2-.6c.6-.2 1.2-1.2 1.8-.4z" stroke="#AA8C30" stroke-width=".2" fill="#FCCA3E"/><ellipse stroke="#AA8C30" stroke-width=".2" fill="#FCCA3E" cx="37" cy="129.3" rx="1.6" ry="1.1"/><path stroke="#AA8C30" stroke-width=".3" fill="#FCCA3E" d="M39.6 129l4.8-.2-.8-1-4 .4z"/><path d="M40 128.4c.5 1.3.5 3-.9 2.7-1.4-.1-1-1.4-1.2-1.8-.2-.9-1-1.7-.2-2.5s2 .4 2.3 1.6z" stroke="#AA8C30" stroke-width=".2" fill="#FCCA3E"/><ellipse stroke="#AA8C30" stroke-width=".2" fill="#FCCA3E" cx="24.4" cy="102.2" rx="1" ry="1.4"/><path stroke="#AA8C30" stroke-width=".3" fill="#FCCA3E" d="M24.4 105.4l.1 4.6-1.2-1v-3.8z"/><path d="M26.2 104c.3 1-1.3 1.6-2.4 1.4-1-.2-1.9-.7-1.7-1.7.1-1 1.5-.8 2-.5.4.3 1.8-.8 2.1.7v.1z" stroke="#AA8C30" stroke-width=".2" fill="#FCCA3E"/><ellipse stroke="#AA8C30" stroke-width=".2" fill="#FCCA3E" cx="16.2" cy="109.5" rx="1.6" ry="1"/><path stroke="#AA8C30" stroke-width=".3" fill="#FCCA3E" d="M19.1 109.5l3.6-.3 1.6 1.2-5.3-.2z"/><path d="M17.8 107.5c1 0 1.6 1.1 1.5 2.3-.2 1.1-1 2-2 2-.9-.2-.8-1-.8-1.2 0-.3.5-.7.6-1 0-.4-.3-1.3-.1-1.6 0-.4.3-.5.8-.5zm-3-28.3c-.4.6-1.2 1.1-1.6.9-.4-.3-.2-1.2.2-1.8.4-.7 1-1 1.4-.8.4.3.4 1 0 1.7z" stroke="#AA8C30" stroke-width=".2" fill="#FCCA3E" fill-rule="nonzero"/><path stroke="#AA8C30" stroke-width=".3" fill="#FCCA3E" d="M10.7 86.5l2-4.8-.2-.3-2.4 3.4z"/><path d="M12.4 81.7c-1-.7-1.2-1.5-1-2.3.4-.7 1.2-.2 1.2-.2l.8.7c.4.2 1 0 1.4.6.5.6.2 1.2-.1 1.4-.4.1-1.5.4-2.3-.2zm-8.5-.6c.7.4 1.1 1 .9 1.5-.3.5-1 .5-1.8 0-.7-.3-1-1-.8-1.5.2-.4 1-.5 1.7 0z" stroke="#AA8C30" stroke-width=".2" fill="#FCCA3E" fill-rule="nonzero"/><path stroke="#AA8C30" stroke-width=".3" fill="#FCCA3E" d="M6 83.2l3.8 2.2-.1 1.8-4.1-3.5z"/><path d="M6 83.6c-.8 1-1.6 1-2.3.7-.7-.5-.1-1.2-.1-1.2l.8-.7c.2-.4 0-1 .7-1.4.7-.4 1.2 0 1.3.3.1.4.3 1.5-.4 2.3z" stroke="#AA8C30" stroke-width=".2" fill="#FCCA3E"/><path d="M116.6 122.8l-.4.4-.3 1v-1.5l.5-.3.2.4zm.2-.9s-.3.5-1.1.5-1.2-.4-1.3-.8c-.1-.4-.1-.7.2-1.2.2-.5-.4.4-.4.4v1l.6.6.5.2h.4l.7-.2.4-.3v-.2zm4.2 7.3s-.4.2-.7.1c-1.9-.6-3.5-1.8-3.5-1.8l3.8 2.4.4-.7zm2.4 1.1s0 .7-.8 1c-.7.3-1.2.2-1.5-.1-.3-.3-.4-.6-.4-1.2l-.1.6.4.8.8.4.5-.1.5-.2.4-.5.3-.5-.1-.2zm24.3-47.6l-.1.4v.7l-.9-1 .4-.5.6.4zm-.5-1.2c0 .7-.9 1.6-1.6 1.3-.7-.3-1.2-1-.9-1.8l-.2.3.1 1.1.7.6h.9l.6-.3.4-.7v-.5zm10 1.8s-.1-.4 0 0-.6 1.7-1.4 1.6c-.7-.1-1-.8-1-1.4 0-.6-.1.2-.1.2v.8l.5.4.6.4.6-.2.7-.3.2-.6v-.9h-.1z" fill="#AA8C30" fill-rule="nonzero"/><path d="M153.8 84s0 .4-.4.7l-1.3.7 2.8-.8-.2-.7-.9.2V84zm-17.1 22.5l-.1.5v.8l-1.6-2.5.5-.3 1.2 1.5zm-.9-2.4c-.2.7-1.4 1-2 .8-.5-.4-1-1.6-.3-2l-.4.2-.1.7.2.7.6.7.5.1.8-.2.6-.4s.4-1.3.1-.6zm5.6 5.7s0 .3-.5.3h-1.6l2.6.6.2-.6-.7-.3z" fill="#AA8C30" fill-rule="nonzero"/><path d="M144.6 110.5c.3.8-.5 1.7-1.5 1.4-1-.3-1.3-1.3-1-1.8l-.2.6.2.8.6.6h1.3l.6-.7.2-.7-.1-.2h-.1zm-99 11.1c.3.3-.1 1.5-1.2 2-1.2.4-1.7 0-2-.4-.3-.4-.3-.8-.3-.8l-.2.2.2.6.5.5 1 .2.8-.1.7-.5.4-.3.3-.5v-.6l-.1-.3h-.1z" fill="#AA8C30" fill-rule="nonzero"/><path d="M44.6 124.1l-.3.4-.3.8v-1.4l.5-.3.1.5zm-3.8 4s0 .3.2.5l1 .3h-1.8l-.2-.7h.8v-.1zm-.6 1.2v.2a1.4 1.4 0 0 1-.1.5c-.2.5-.3 1-1 .9a1.2 1.2 0 0 1-1-1.1c0-.4-.2-.6-.2-.6v.6l.4 1 .7.3h.5l.5-.2.2-.6.1-.5v-.5h-.1zm-4.7-.1s.2.8 1.2.8 1.2-.2 1.2-.2v.3l-.2.2H36l-.3-.3-.3-.5v-.3h.1zm-9.4-25.4v.4c-.1.3-.7 1-1.8 1-1 0-1.5-.3-1.8-.7-.3-.3-.4-.8-.4-.8v.5l.4.7 1.1.5h1l1-.3.5-.5.1-.6-.1-.2zm-1.7 2.3s-.4 0-.6.2a4 4 0 0 0-.4.4v-1.3h1v.7zm-4.7 3.4l.5.3c.5.3 3.1.5 3.1.5h-4.1l.1-.8h.4zm-.5 0l-.2.6c-.2.5-.7 1.6-1.6 1.4-.9-.1-.7-.8-.7-.8v-.4l-.2.7.2.4.4.2.7.1.4-.2.6-.5.2-.5.2-.6v-.4zm-2.2.2s0 .2-.7.2-1.7-.3-1.7-.3l.4.4.5.2h1.3l.2-.5zm-2-29s0 .5-.3.8c-.4.3-1.3.5-1.8.2s-1.5-1.3-1.5-1.3l.4.8.7.6 1 .3 1-.2.4-.4.2-.3-.2-.4.1-.1z" fill="#AA8C30" fill-rule="nonzero"/><path d="M12 82.1v.6l-.2 1.1.9-2-.4-.2-.3.5zm-5.4 1.5l.2.5c.2.5 2.3 2.6 2.3 2.6l-3.3-2.9.4-.5.4.3zm-1 .3s-.5.3-1 .3c-.3 0-1 0-1-.4-.1-.5.1-.7.1-.7l-.3.6.1.4.5.3h.7l.6-.3.2-.2h.1zm-1.5-1.4h-.5c-.7 0-1.4-.8-1.4-.8l.5.8 1 .5.4-.5z" fill="#AA8C30" fill-rule="nonzero"/><path d="M159.9 73.2c-.3 3.8-4.1 5.8-6.1 7.2-2 1.4-3 3.2-3 3.2l-.6 2.2-.3 1.5-.1.5c.1.4.3 1 .3 2l-.1 4.3 2.7-1.9 1.9-.7.6-.1s-2.2 2.1-3 4.4c-.8 2.3-2.4 7.2-5.3 8.8-3 1.6-4.8 1-5.7 1.8-1 .8-1 1-1 1l-1.3 1.8-1 1.2-.9.7-.6.4a7.5 7.5 0 0 1-.2 1.7l-.7 2.4s.6-.4 1.3-.5h1.3s-.5.6-.7 1.3c-.2.6.1 4.6-3.6 7-3.8 2.3-13.4 2-13.4 2l-1.8.7-1.7 1.3-1.6 1.7v.4s-1.3 1.5-2.1 2l-2.8 1.9 2.2.1 3.5 1.5s-2.2 0-3.6.5c-1.5.6-8.2 4.4-11.4 4.3-3.3-.1-8-4.9-8-4.9l-2-1.4-3.5-.7-4.3-.2v-.6l.1-.7s1.5-.2 3.8.1c2 .2 2.7 1 4.4 1.1 1.7.2 3 0 3.5-.3.7-.3 5.9-4.7 5.9-4.7l5.8-2 2.3.3 1 .2.9.3-1 1a7.3 7.3 0 0 1-1.4 1.1l.7.6 3.7-.6 1.2.3.3.2c0-.3.2-.8.6-1.3.4-.6 2.5-2.3 3.4-2.9l1.4-1c.3-.3 1.5-3.3 1.5-3.3l.1-1.6 4.1-4 2.8-2.9 1.2-3.3-.2-.7s1 1 .9 3c-.2 2.2-.7 2.9-.7 2.9s2.8-2 4.3-2.6c1.2-.5 2-.5 2.4-.5.4-.2 1.5-.9 2.1-1.8.8-1.2 1-1.5 1-2l.2-2.8-.3-7 2.4-5.4 3.5-3.1.7-.4-.4 1.2v1.5s1.8-2.5 2.7-2.9l.5-.3a7 7 0 0 0 .8-2l.3-3v-3l-.5-2.3-1.7-4.3v-5.8l-1.2-1.6s1.1 0 2.5 2a13.5 13.5 0 0 1 1.9 5l3.3-10.3s.9 1.2 1.5 3.3l.8 3.3 1.4-2.8.1 1c.2 1 2.3 2.1 2 6zm-67.3 65s-.7-1.6-3.9-3.2c-3.1-1.5-5.5-1.8-5.5-1.8v1.1l5 2.2 2.4 2 2-.3z" fill="#9CA168" fill-rule="nonzero"/><path d="M115.4 128.6c.3-.4 3-2.8 4.4-3.5 1.4-.7 3.2-.8 3.2-.8 1.9-.4 2.2-.1 6.6-2.5 4.3-2.4 5.3-5.2 6.2-5.9.8-.7 2.3-.8 2.3-.8l-3.4 3.9a28.5 28.5 0 0 1-5.8 4.5 17.8 17.8 0 0 1-7.6 1.8 7.7 7.7 0 0 0-4 2c-1.3 1-2 2.2-2 2.2s-.2-.5 0-.9h.1zm12-12.7c-4 3.7-5.3 7.2-5.3 7.2l5.4-4.9c1.9-1.8 4.5-2.6 5.6-3.7 1.2-1.1 1.3-2 2-2.7l1.3-1s-1.8-1.4-9 5.1zm-8.5 8.6s1.7-.8 2.4-2.3c.5-1.2.2-1.5 1-2.8 0 0 4.2-4 5.7-5.8 2.6-3.1 1.4-5.7 1.4-5.7s.3 1.3-.8 2.7c-1 1.4-6.5 5-7.2 7.2-.6 2.2-.3 2.3-.6 3.4-.6 2.6-1.9 3.3-1.9 3.3zm-2.8 10.5s-2.1-1.4-4.5-1.3c-4.9.4-9 3.4-12.2 3.4-3.1.1-4.4-1.5-6.9-3.2-2.6-1.8-9.2-1.5-9.2-1.5v.3s4.4 0 6.4.6c3.6 1 5.6 4.8 9.7 4.6 5.5-.3 9.9-3.6 12-3.6 3.8 0 4.7.7 4.7.7zm-24-2.4s3.7.6 6.6-1.5c3-2.1 6.4-5 8.3-5.2 2 0 4 .4 4 .4s-2.5-1-4.4-1c-2 0-4 .2-5.8 1.3-1.8 1.1-2.7 3-4.6 4.3a12.8 12.8 0 0 1-4.1 1.7zm-.7 5c-.5 0-1.1.3-1.3.3-.2 0-1.3-1.2-3-2-1.6-1-4-1.4-4-1.4s-.3 0 .3.2l3.8 1.5a8.6 8.6 0 0 1 2.6 2.1c.1.3.6.9 1.5.8 1 0 1.3-.5 1.2-1 0-.3-.6-.5-1.1-.5zM94 134s1.5.8 4 .8c5.2-.2 8.6-3.8 12-5 3.4-1.4 5.2-.3 5.2-.3s.1-.2 0-.2a7 7 0 0 0-3.9-1.2c-5.7 0-11.2 3.7-13.5 4.7-2.3 1-3.8 1.2-3.8 1.2zm56-39.9c-1.8 1.9-4.5 7.7-5.6 9.3-1.2 1.6-2.7 2-3.3 2.7-.6.6-2.7 3.5-3.2 4.1-.5.7-.6.5-1 .8-.3.3-.5.3.1.2.6-.1.8-.5 1.6-1.5 1-1 .9-1.4 2.3-2.7 1.4-1.2 3.9-2.6 5.1-4.2 1.3-1.5 3.8-7.5 5.2-9 1.4-1.5 4-2.4 4-2.4s-2-.6-5.3 2.7h.1zm-9 11.1s-.1-1 1.2-2.6 1.7-1.3 2.8-3.6c1-2.3 1.5-4.5 2.3-6.9.9-2.4 2.3-4.8 2.3-4.8s-1.3.2-2.7 2a34.5 34.5 0 0 0-4.8 8.7c-1.1 3.4-1.1 7.2-1.1 7.2zm-1.7 2.2s.5-.2.5-3.2c.1-2.9-.1-7 .7-9 .9-2 5.4-7 5.4-7s-1.9.5-4.5 2.5-3.7 4.7-3.6 6.7c.2 2 1.3 4.2 1.4 6.1l.1 4v-.1zm10.5-20.1s1.1-4 1.6-5 .5-1.5 2.7-4c1.3-1.5 2.6-2.4 3.1-4.4.6-2 .6-7.7.6-7.7s-.6.5-1.1 1.5c-.5 1-.1 4.7-1 6.4-.8 1.7-2.7 5.6-3.7 6.5 0 0-.2-2.9.2-5.7.3-3 1.3-3.8 1.7-5.7.4-1.9.2-6.7.2-6.7s-1.5 1.5-2.3 3.4c-.8 1.8-1.2 5-1.2 7.5s.5 4.5.6 5.9c.1 1.4.2 2-.4 3.6l-.6 2a34.8 34.8 0 0 1-.7 2.6l.3-.2zm-3.5-21.6s1.4 1.7 1.2 3.6c-.3 2-1 4.5-.2 6.5.7 2 1.9 2.2 2.2 3.4.3 1.2.3 3.4.3 3.4s.6-4.3.2-5.5c-.5-1.1-.7-.6-1.3-1.8-.6-1.2 0-4.7-.4-6.7-.5-2-2-2.9-2-2.9z" fill="#717732" fill-rule="nonzero"/><path d="M66.7 137.8s.4-1 3.1-2.4a34 34 0 0 1 7.3-3c.3.3-.3 1.8-.3 1.8l-2.6.8-2.1 1.2-2.5 1.6h-2.9z" fill="#9CA168"/><path d="M73.6 130.7c-3.4.1-5.3 1-6 1-.2.1-.7.5-1.2.3a4.9 4.9 0 0 1-1.5-1.5l-.7-.7-.2 2.5-5-4.4-.6 3-.7 1.3-5-4.8.2 3.7-1.4.1-3.6-2.5-1 .4 1.2 2.2-4.6.3-1 .8a6.3 6.3 0 0 0-1 1v.4h1.9c.4-.2.6-.7.7-.5.2.2.3 1.2.9 1.1.6 0 2.7-1.7 4.2-1 1.7.8-2.2 2-1.8 3.1.4 1.2 3.2.7 4 .3.6-.3 2.7-3 3.6-2 1.2 1.4-2.5 2.5-1.8 3.9.6 1.3 2.7 1 3.7.4 1-.5 3.4-4.1 3.9-3.4.9 1.4-2 2.7-1.3 3.7.8 1 2.3 0 3.4-.8s1.5-2.5 3-3.3c1.4-.8 1.3-.5 1.7-.5.4 0 1.5-1.1 1.5-1.1l3.5-1.5 1.6.2.9.4 1.7.2.2-1.4s-2-1-3.3-1l-.1.1zm-27.4 0l.7-1.3-.4-.6s-1.2-.7-2.3-1.8a6.9 6.9 0 0 0-2-1.6L40 124l-.8-2.8-.5-.9-1.3.6-1.7-6.1-.3-1.1h-.7l-1.5 3.6-1.5-2.3-.4-5-1 1-1.3 1.4-2.3-4.6s-.1-.1-.3.3c0 .3-.3 1.8-.1 2.6a26.2 26.2 0 0 1-6-5.2l-1-2.5 1-2 .5-2.6-2.2.9-.4-5.7-.3-1.8-2.7 3.8-1-1.7v-3.6l-.7-.2-1 2s-1.1-2-1.6-2.5c.1-.8.2-2.9-.3-4.5-.6-2-1.3-3.1-1-4.8.2-1.6.9-1.8.8-2.5 0-.8-1.2.5-.8-.5.4-1 3.8-3.2 3.1-4.4-.7-1.1-4 1.9-3.3-.1.8-2 4-2 4.2-4.9.1-1.7-3 1.1-3.3.2-.3-.8 2-2.6 1.9-3.8 0-1 .4-1.2-.2-1.8-.6-.6-2.6 2.3-2.6 2.3l-2-.7-.8 3-.6 2.5-2.6-1.5.7 3.1.6 3-2.7-.7 1.4 2.6 1.9 2 1.1 1.5.9.4 1 1.1.5 1.7.6 1.9.1 1.8v2.4l-.1.4v1.1c-.5 0-1.4-.8-1.7-.3-.3.6 1.6 2 1.2 2.4-.3.4-3-.5-3.2.3-.2 1 .2 2.2 1.8 2.6 1.6.4 5.3 1.2 4.7 2-.6.7-4.7-2.3-4.5-.1a3.8 3.8 0 0 0 2.6 3.4c1 .4 5.1 0 4.9 1-.3.9-3.3-.4-3.6 1-.3 1.4 2.1 1.6 2.6 1.6s2.2-.1 2.9.4l4.3 4.1a75.7 75.7 0 0 0 4.6 3.4c-.8 0-2.4-.3-2.6.3-.3.7 6 3 4.2 3.8-1.8.7-3.8-2-4.3-.4-.6 1.7 1.2 3 2.2 3.6 1 .6 6.7.1 5.6 1.4-1.1 1.3-5.3-.8-5.3.7s2.7 4 4.2 3.9c1.4 0 3-2.4 3.6-1.1.7 1.2-1 1.7.3 2 1.4.4 2.3-1.4 4-1 1.5.3 4 1.3 5.4 2.5a79 79 0 0 1 2.9 2.8z" fill="#9CA168" fill-rule="nonzero"/><path d="M68.4 137.1c1 0 1 .6 1.2.6.1 0 1.8-1.5 3.3-2.3a17.5 17.5 0 0 1 4-1.4l.1.2s-2.8.7-4.2 1.7l-3 2.1c-.2.2-.8.7-1.7.7-1 0-1.4-.6-1.4-.9 0-.2.7-.7 1.7-.7zm8.5-4.3s-.9.1-1.3-.3a4.3 4.3 0 0 0-2.6-.8 7 7 0 0 0-4 1.8c0 .1-.3.6-1.4 1.3.4.1 1.1-.4 2-1a7.4 7.4 0 0 1 3.6-1.4c1-.2 1.7.4 2.2.7.5.4 1.4.3 1.4.3v-.6h.1zm-50.5-20.6v-.7a16.1 16.1 0 0 1-2.2-1.1c-1.6-1-5-3.8-5-3.8l2.8 2.7c1.4 1.3 4 2.9 4 2.9h.4zM62 137.4l1.5-2.1c.9-1.5 1.7-2 1.9-2.2.1-.2-.4-.9-.7-1.4l-.2-1.2s.4.8 1 1.3a9.5 9.5 0 0 1 1.1 1s1.4-.2 1.4-.5c0-.2 0-.4-.2-.5-.3-.1-.5.2-1.1 0-1.3-.6-1.8-2.6-2.6-2.6-.8-.1-.2 2-.6 2-1.1.2-2-4.3-5-4.5-2 0-2.3.3-2.4.7 0 .5 2.5 3.1 1.6 3.5-.8.4-3.5-4.2-5.5-4.2-1.9 0-2 .7-2 1.1.2.4 2.2.8 1.8 2.2-.5 1.4-2.5-2-4.3-1.9-1.8.2-2 .3-2 .9-.1.5.6 1.2.3 1.4-.2.2-1.4.1-2.3.7-.9.7-2.1 2.4-2.1 2.4s1.2-1.7 2.7-1.9a50 50 0 0 1 5.6 0l-1.1-.8c-.6-.5-1.1-1.6-1.1-1.6l1.7 1.5c.8.7 1.9 1.2 1.9 1.2s1.7.2 1.8.4c.1.2 0 .6-.8 1.3l-1.7 1.7 2-1.6 1.5-1.2 1.4.2c.1 0 0-.5-.8-1.7l-1.6-2.5s1 .9 2 2.3c1.1 1.3 1 2 1.4 2 .4 0 1 .2 1.4.1.4 0 .3.6-.4 1.7s-1.2 2.5-1.2 2.5.8-1.2 1.6-2c.7-.8 1.1-1.7 1.5-1.8h1.5l-.8-1.6c-.6-1-.8-2.6-.8-2.6s.6 1.4 1.4 2.5l1.3 1.9 1.4-.1.3.1c0 .5-.2.7-.7 1.8a17.7 17.7 0 0 0-1 2.1zM40.5 125c1.2.5 1.7.5 1.7.5s-1.7-1-2.1-2.4c-.5-1.4 0-4.4-.8-4.3-.7 0-1.1 2.1-1.8 1.7-.8-.4.2-4.4-.6-6-.8-1.7-2.6-2.9-3-2.3-.4.6-.3 4.2-1.5 3.5-1.1-.8.1-4-.2-5.3-.4-1.5-1.2-2.5-1.9-2.1-.6.3.3 3-.7 3s-.9-1.9-1.3-2c-.5-.2-.6.3-.9 0-.2-.4 0-1.7-.6-1.6-.6.1-.5 1.2-.3 1.7.1.6.5 1.4.7 1.8.2.4 1 .9 1 1.2-.1.3-.5.6-1 .6h-1.9s1.4.4 1.9.4 1.4-.2 1.7.2c.2.5 1.4 2 1.4 2s.3-.8.4-2.2c.2-1.5 0-2.7 0-2.7s.5 1.6.4 2.7c0 1-.4 3-.4 3s1.1.8.8 1c-.3.3-1.5.3-2.8.3-1.4 0-3.3-.5-3.3-.5a13.7 13.7 0 0 0 6.7 1.3l1.8 2s.9-1.5 1-3v-3l.4 2.8c0 1.3-.4 3.6-.6 3.8a5 5 0 0 1-1.9 1l-3.5.5s2.2.3 3.8 0c1.5-.4 1.7-.9 2.2-.6l.8.7 1.3 1c.1.1-.7.4-1 .7l-1.5.7 2.2-.7a22.3 22.3 0 0 0 1.1-.4l.5.2-.1-1.2-.3-1.8s.5.8.7 1.6l.1 1.6s.2.2 1.4.6zM9.4 89.4s.3-1.7.3-3.6A14.3 14.3 0 0 0 7.8 80l1-1.4-1.2 1-1.2-.5a3 3 0 0 1-.9-1l1.2.8c.6.2.7.1.7.1l-.5-2L5 76c-1.3-.6-2.5-1.8-2.5-1.8l2.8 1.5c1 .4 1.6.4 1.6.4l1.6-.6 1.7-1.1s-1 .6-1.8.7l-1.6.3-.3-2.4-1.1-1.1C4.5 70.7 3.8 69 3.8 69s1 1.2 1.7 1.7c.7.6 1.4 1.5 1.4 1.5l1.6-1 2.8-2-2.7 1.3-1.6.7s-.2-1 0-1.5c.3-.4.8-1.2.7-1.6 0-.5-.4-.3-.5-.7-.2-.3.4-2.6.4-2.6l.1 1.2c0 .5-.2 1 .4 1 .6 0 3.2-2.7 3.6-3.2.3-.5.8-1.8-.6-1.3-1.4.6-1 1.8-2.2 1.7-.4 0-.8-1.5-1.2-1.2-.4.4-1.4 1.3-1.6 2.4-.2 1 .2 2.6-.4 3.1-.6.5-1-1.8-2.2-1.5-1.2.3-1.5 2-1.3 2.6.2.6 2.7 3.5 2 4-.9.3-2.9-2.6-4-.6-1 1.9 3.4 4 4 4.4.5.5 0 .6.8 1.6s1.8 1.2 2.4 1.8a13 13 0 0 1 2.1 5.9l-.1 2.7zm11.7 17.1s-1-1.2-.7-3.3c.3-2 1.8-5.7 1.3-6.2s-2 2.2-2.4 1.6c-.4-.6.9-4.3.2-5.8-.6-1.5-.7-2.5-2-2.3-1.3.1-1.8 4.4-2.5 3.6-.6-.7.4-2.6 0-3.7-.5-1-.7-1.3-1.3-1.2-.7.2-1 2.2-1.4 2.1-.5 0-1.2-2.3-2.2-2-.9.3 2.3 4.5 2.3 4.5s.5-.5.8-1.2l.6-1.5s.3 1.3 0 1.9c-.2.5-.3 1.7-.3 1.7s-.8.3-2.1 0a8.8 8.8 0 0 1-2.3-.7s.8.6 2.1 1l2.7.7a44.9 44.9 0 0 0 2 2.7l.8-2.1 1.3-3.5-.6 3.9-.7 3s-1 0-2.6-.3l-3.6-.8 3.6 1.2 2.8.7 1.4 1.9 1-1.5 1-1.8s-.3 1.4-.7 2.3a27.4 27.4 0 0 1-.7 1.4l-1.8.2h-2.5a19.6 19.6 0 0 0 4.5.9s0 .5.7 1.3a4.6 4.6 0 0 0 1.3 1.3z" fill="#717732" fill-rule="nonzero"/><path d="M74.4 143.8s-.6-.6-1.4-1c-.9-.5-1.2-.4-1.2-.4l-.4-.1.8-2 5.5-5.3.9-5.3H82v7.2l1 .5 6.2 3.7v1.6l-1 .4-.7.4-2.3.2-4-3-1.8-1.7-3 4-2 .8z" fill="#FFF"/><path d="M78.8 129.7l-.1 1c0 .9 0 5.2-.2 5.8-.2.6-3.2 1.8-4.9 3.3-1.7 1.5-1.8 2.6-1.8 2.6s-.5 0-1.6.4c-1 .4-1.5 1-1.5 1s.6-2.6 3.4-5c2.7-2.6 4-2.8 4.4-3.2.3-.4 0-5 0-5.5.1-.4.5-.4.7-.4h1.6zm7 15.7l.8-1.1 1-.8-1.5-.8c-1.5-.6-2.3-.4-3.3-1.2a13.6 13.6 0 0 1-2.2-2l-1.5 1.2 1.7 2c.9.8 2.7 1.1 3.5 1.6a8.8 8.8 0 0 1 1.6 1.1h-.1z" fill="#016848" fill-rule="nonzero"/><path d="M81.5 129.6s1.7 0 1.9.2l.2.6c0 .1 0 4-.2 5.3a8 8 0 0 1-1.4 3l-4 3.7c-1.2 1.2-2.4 2.8-2.4 2.8l-.8-1c-.3-.4-.7-.6-.6-.9a10 10 0 0 1 3.3-3.4c2-1.3 3.6-2.8 4-4.9.3-2 0-5.4 0-5.4z" fill="#CD202A"/><path d="M92.5 143s-.4-.4-1.8-.4l-1.5.1s-.8-1-2-1.7c-1.2-.8-2.1-.7-3.5-1.6-1.3-.8-2-2.1-2-2.1l1-2s1.2 1.5 2.4 2.4c1.1.9 3.7 1.7 4.6 2.4l2.8 2.9z" fill="#CD202A"/><path d="M105 119.4s-3.6-1.4-3.4-2.7c.3-1.2 8.3-3.3 8.3-3.3l.1-2.1s-1.2-.1-3.2.5c-2 .7-5.2 1.6-8.6 1.6-11.46-.847-22.926-1.58-34.4-2.2-3.7-.3-6-6-6-6l-1.8.4s.5 2.7-.4 3a65 65 0 0 1-13.9-6l-.6 2.6s7.3 4 7.1 5.5c-.2 1.4-2.4 1.3-2.4 1.3l1 1.8c.3 0 12 .6 12.3 4.1 0 1.5-3 2.3-3 2.3l1 1.2v.6s6.7 0 8.5 1c1.8 1 2.7 2.6 5 3.8 2.2 1.3 17.3 1 19.6.3 2.7-.7 4.3-3.7 8.7-5 4.3-1.4 5.7-1.4 5.7-1.4l.4-1.3z" stroke="#0872A7" stroke-width=".5" fill="#30C2DC"/><circle stroke="#0872A7" fill="#FFF" cx="44.5" cy="113.7" r="2.1"/><circle stroke="#0872A7" fill="#FFF" cx="56.4" cy="103.9" r="2.1"/><circle stroke="#0872A7" fill="#FFF" cx="106.5" cy="119.6" r="2.1"/><path d="M35.1 100.8c-.7 1.6 2 4.6 4 5 1.8.2 2.8-.2 3.2-1.1a2.8 2.8 0 0 0-.4-2.5c-1.2-1.7-6-3-6.8-1.4z" fill="#F8C83C"/><path d="M41 103.2c0-1-1.6-1.9-2.6-1.9s-2 0-1.8.5c.1.6 2.7 1.3 2.8 1.6 0 .3-.8.6-.4 1 .5.4 1 .1 1.4-.2.4-.3.7-.4.7-1H41z" fill="#FFF"/><path d="M57.7 121.3c.4 1.4-.7 2-2 2.7-1.5.6-4.3.2-5-.9-.6-1.1 1-3 2.8-3.4 1.7-.4 3.8.3 4.2 1.6z" fill="#F8C83C"/><path d="M54.8 122c.5 0 .6 1 1 .8.5 0 1-.8.8-1.3-.1-.6-1-1.3-1.8-1.2-.8 0-3 2-2.8 2.5.2.5.8.5 1.2.3.4-.2 1-1 1.6-1v-.1z" fill="#FFF"/><path d="M109.2 114c1.3 1.7 3.6.2 4.2-.5.6-.6 2.4-1.7 1.7-2.8-.8-1.1-2-1-3-1-.8 0-2.6 1.4-2.9 2-.3.5-.6 1.6 0 2.4v-.1z" fill="#F8C83C"/><path d="M109.6 113s.1-1.9 1.8-2c1 0 1 .3 1.8.7.7.4 1-.5 1-.5s0 1.3-1.1 1.3c-1.2 0-.8-.5-2-.7-1-.2-1.5 1.1-1.5 1.1v.1z" fill="#FFF"/><path stroke="#953220" stroke-width=".5" fill="#F9AA51" stroke-linecap="round" stroke-linejoin="round" d="M81.9 109.4l-.9-.6h-2.8l-3.4.1 3.4 9.9 4 5.8 1.6.6 3.1-.2.6-1.6-1.2-9.5-4.4-4.5z"/><path d="M70.6 110l.2-1.1 1.8-.1a7.2 7.2 0 0 1 2.2.1s2.3 2.9 3.1 4.7c.8 1.8 1.7 4.8 2.7 6.6 1 1.9 3.2 5 3.2 5h-4l-2-.6-5.6-9-1.6-5.6z" stroke="#953220" stroke-width=".5" fill="#F9AA51" stroke-linecap="round" stroke-linejoin="round"/><path d="M68.2 108.8h2.6a14 14 0 0 1 3.9 5.4c1 2.8.5 3.2 1.8 6.2 1.4 2.9 3.2 4.9 3.2 4.9s-3.9.2-6-.2c-2.3-.4-3-.3-3.6-1a9.2 9.2 0 0 0-1.7-1.3h-2.2l.5-3.1-.6-6.9.1-3.5 2-.5zm23.4 1.8l-3.7-1.5-7-.4.6 3.6a30.2 30.2 0 0 0 2.6 7.7c1.1 2 2.2 4.4 2.8 5 .6.5 4.6-1.1 4.6-1.1l2.6-.4-.3-2.8-.4-1 .6-8-.6-1.2-1.8.1z" stroke="#953220" stroke-width=".5" fill="#F9AA51" fill-rule="nonzero" stroke-linecap="round" stroke-linejoin="round"/><path d="M67.1 110.7c0 .8 1 .9 1.2.8.2 0 1-.3 1-1.5s-.7-2.1-2.2-2.2c-1.4 0-2.5 1.7-2.5 3 0 1.2 1.2 1.8 1.2 2.3 0 0-1.2 1.1-1.1 3.1 0 2 1.6 3.6 1.6 3.6s-1.7 1.3-1.7 2.7c0 1.4 1.3 2.3 2.6 2.3 1.2 0 2.8-.8 2.8-1.8s-1-1.7-1.7-1.7c-.8 0-1.1.5-1.1.8m25.6-10.9c0 .9-.6 1-1 1s-1.2-.4-1.2-1.5c0-1 1.4-1.6 2.4-1.6.9 0 2.4 1.2 2.4 2.7 0 1.5-1 2.6-1 2.6s.6.3.6 2.2c0 2-1.2 3.3-1.2 3.3s1.6.6 1.6 2.6-1.4 2.6-2.3 2.6c-1 0-2.6-.5-2.6-1.9 0-1.3.8-1.8 1.5-1.8.6 0 1.3.7 1.3 1.5" stroke="#953220" stroke-width=".5" fill="#F9AA51" fill-rule="nonzero" stroke-linecap="round" stroke-linejoin="round"/><path d="M69.5 121.6l.4.6c.2.4.3 1 .8 1.4.8.7 7.2 1 9.2 1 2 0 7.8.2 8.9-.4 1-.7 1.2-1.8 1.9-2.3l.9-.4-.9.7v1.4l.5.8s-.1.4-.8.8c-.7.4-1.3.5-2.3.6-1 .1-13.2.1-15.2-.2-2-.4-1.8-.3-2.4-.7a4.3 4.3 0 0 1-1-1l.3-.8-.3-1.4v-.1zm20-11.8l1 .5s-.9.3-1.6 2.3c-.7 2-.1 2.5-.6 2.7-.5.2-5.8 0-5.8 0l-1-2.1 8-3.3v-.1z" fill="#953220" fill-rule="nonzero"/><path d="M106.4 109s-.9-.3-1.3-1c-.4-.8-.8-1.7-.5-2 .4-.1 1 .5 1 1.1 0 .6.8 2 .8 2v-.1zm10.4-2.8s.7 1.2 1 1.3l1.2.6s-1.5 0-2-.4a8.3 8.3 0 0 1-1-1.5h.8z" fill="#231F20" fill-rule="nonzero"/><path d="M120 107.2s-1 .5-1.6.2c-.8-.3-1.4-.7-1-1 .2-.4.4-.3.8.2.4.4 1.8.6 1.8.6zm5.3-4.5s-.8.6-1.3.6-1.5-.2-1.5-.4 1.3-.4 1.6-.3h1.2v.1zm-8-10.5s-1.1.4-1.5 1c-.4.5-.3 1.2.2 1.2s.6-.7.6-1l.7-1.2zm-5.2 2.9s-.9.5-1 1c-.3.5-.5 1.6 0 1.6s.7-.8.7-1.2c0-.5.3-1.4.3-1.4z" fill="#231F20" fill-rule="nonzero"/><path d="M102.8 101.4l-2.9 3s6.6 3.7 11.7 3.5c5-.1 10.8-4 11.2-5 .4-.7 0-4.3-.6-5.4-.7-1.1-4.2-3.8-5.5-3.7-1.3.1-3.7 1.9-5.8 4-2.2 2.1-2 3.9-5 3.7l-3.1-.1z" stroke="#04534E" stroke-width=".5" fill="#8CBEBF"/><path d="M102 102.6s7 1 9.1-.8c2-1.8 4.3-5.3 5.7-6 1.4-.9 2-.9 2-.9l1.6 1.1 1.8 1.5.6 3.4v1.8l-2.2 1.8-4 1.9-4 1.2-3.2-.1-6.7-2-1.7-1.1-.4-.4 1.4-1.4z" fill="#0C8489"/><path d="M112.8 98.5c0-.6.4-.6 1-.6s1 .2 1 .8c0 .6-.5 1.4-1 1.4-.6 0-1-1-1-1.6zm2.8 1.8c0-.6.4-.8 1-.8.7 0 1.3.7 1.3 1.2s-.5 1-1.1 1c-.7 0-1.2-.9-1.2-1.4zm-1 4.2c0-.7.5-.8 1.1-.8.6 0 1 .3 1 1a1.2 1.2 0 0 1-1.1 1.2c-.7 0-1-.7-1-1.4zm-3.7-1.3c0-.7.7-1 1.3-1 .6 0 1 .7 1 1.4s-.4 1.3-1 1.3-1.3-1-1.3-1.7zm-5.9.7a1.5 1.5 0 1 1 3 0 1.5 1.5 0 0 1-3 0z" fill="#04534E" fill-rule="nonzero"/><path d="M115.6 100.3c0-.5.7-.8 1-.8.5 0 .8.4.8.8s-.3 1-.7 1c-.4 0-1-.5-1-1h-.1zm-1 4c0-.5.6-.8 1.2-.8s1 .3 1 .8-.5 1-1 1c-.6 0-1.1-.4-1.1-1h-.1zm-3.7-1.2c0-.6 1-.9 1.5-.9.4 0 .3.4.3 1 0 .7-.3 1.2-.7 1.2-.4 0-1-.7-1-1.3h-.1zm1.8-4.7c0-.5.4-.5.8-.5s.6.1.6.7-.3 1-.6 1c-.4 0-.8-.6-.8-1.2zm-7.7 5.1c0-.6.6-1.3 1.4-1.3.8 0 1.7.3 1.7 1 0 .6-1 1.8-1.8 1.8-.9 0-1.3-.8-1.3-1.5z" fill="#8CBEBF" fill-rule="nonzero"/><path d="M107.7 102.4s-1 .1-1.5.6-.5 1-.3 1.2c.3.2.7-.3.8-.6 0-.2 1-1.2 1-1.2zm4.7-1s-1 .6-1 1.3c-.1.6 0 1 .2 1 .3 0 .5-.9.4-1.2-.1-.3.4-1.2.4-1.2v.1z" fill="#231F20" fill-rule="nonzero"/><path d="M113.2 102.3s-.6 0-1 .4c-.5.5-.9 1-.6 1 .3 0 .8-.2.8-.5 0-.2.8-.9.8-.9zm1-5.4l-.8.6c-.2.2-.5 1-.2 1 .3.2.5 0 .8-.5.2-.5.2-1.1.2-1.1zm3.5 2.3s-.9 0-1.2.5c-.3.4-.5.8 0 .8.3 0 .4-.2.6-.5.1-.4.6-.8.6-.8zm-.5 4.1s-.2.7-.8 1c-.5.3-.7.5-1 .1-.1-.4.2-.6.4-.7l1.4-.4z" fill="#231F20" fill-rule="nonzero"/><path d="M122.8 100.5s.4 2-1.3 3c-1.7.9-6.4 4.2-10.9 3.8-4.5-.4-9.6-3-9.6-3l-.7.4 1.2.5 3.4 1.4 4 1.2 2.5.1 2.1-.2 4-1.3 3.3-1.7 1.8-1.4.4-.6v-1.9l-.2-.3z" fill="#04534E"/><path d="M34.9 75.2s1 .9 1 1.6c-.2.8-.4 1.1-.7 1-.3-.2-.3-1-.3-1.3v-1.3zm7.7 7.1s-.3 1.4-.9 1.5c-.5.1-.9-.4-.8-.7.1-.2.6 0 .8-.2l.9-.6zm-16.8 1s.4.8 1 1c.8 0 1-.4 1-.6-.1-.2-.4-.2-.8-.2l-1.2-.1v-.1zm3 6s.7.6 1.5.7a1.3 1.3 0 0 0 1.3-.7c0-.2-1-.2-1.3 0-.3.3-1.5 0-1.5 0zm5.3 4.4s1.4-.2 1.6-.6c.2-.4.6-1 .3-1.3-.3-.4-.5.5-.7.9-.1.3-1.2 1-1.2 1z" fill="#231F20" fill-rule="nonzero"/><path d="M42.6 90.1s1-6-4-10.4c-5-4.3-8.1-3.2-9.8-1.6-1.7 1.6-3.2 6.7 2 11.3 5.3 4.5 11.7 3 11.7 3l.1-2.3z" stroke="#04534E" stroke-width=".5" fill="#8CBEBF"/><path d="M27.6 83.7s-.1-3.4 1.5-4.4c1.5-1 6.8-1.8 9.3 3.1 2.6 5 2.7 7.4 2 10h-2.7l-4.3-1.8-3.5-2.6-2.3-4.3z" fill="#0C8489"/><path d="M42 91s-.9 1-2.7 1c-1.7-.2-10-2.3-12-9.8v1.7l.1.5.6 1.5 1.7 2.5 2.2 1.9 2.8 1.4 2 .6 2.5.4h1.5L42 91z" fill="#04534E"/><path d="M37.7 88.9c0-.7.3-.7.8-.7s1-.2 1 .4c0 .7-.4 1.6-1 1.6-.4 0-.8-.7-.8-1.3zm.3-4c0-.4.4-.8 1-.8.5 0 .9.4.9.9 0 .4-.4.8-1 .8-.5 0-.9-.4-.9-.8v-.1zm-3.7 4.4c0-.4.4-.7 1-.7s1 .3 1 .7c0 .3-1 .8-1.5.8-.6 0-.5-.5-.5-.8zm-.4-4.6c0-.6.3-.4.8-.4s1.2.1 1.2.7-.7 1.4-1.2 1.4-.8-1.2-.8-1.7zm-3.4.7c0-.5.3-1.1.9-1.1.6 0 1.3.6 1.3 1.1 0 .5-.5 1-1.1 1-.6 0-1.1-.5-1.1-1zm.6-4c0-.6.3-.5 1-.5.6 0 1.1.2 1.1.7 0 .5-.7 1.2-1.4 1.2-.6 0-.7-1-.7-1.5v.1zm3.7-.5c0-.4.5-.3 1-.3.7 0 1.1.4 1.1 1s-.7 1-1.3 1c-.6 0-.8-1.2-.8-1.6v-.1z" fill="#04534E" fill-rule="nonzero"/><path d="M31 81.3c.2-.4.4-.7.8-.7.5 0 .9.1.9.7 0 .4-.4.9-.8.9-.5 0-1-.5-.8-1l-.1.1zm-.6 4c0-.5.2-1 .7-1 .5 0 1 0 1 .5s-.5 1.1-1 1.1-.7-.1-.7-.6zm4.4-4.3c0-.4.3-.4.8-.4s.8 0 .8.5c0 .4-.4.7-.8.7s-.8-.4-.8-.8zm-.9 3.9c0 .5.5 1 1 1s1-.5 1-1c0-.6-.6-1-1-1s-1 .4-1 1zm4.3-.6c0 .5.4.9 1 .9.5 0 .9-.4.9-.9s-.5-.9-1-.9-1 .4-1 1l.1-.1zm-4.1 5c0-.5.5-.9.9-.9s.9.3.9.7c0 .4-.8 1-1.2 1-.5 0-.6-.4-.6-.9v.1zm3.6-.7c0-.5.4-.6 1-.6.5 0 .8.1.8.6 0 .6-.5 1-1 1s-.8-.5-.8-1z" fill="#8CBEBF" fill-rule="nonzero"/><path d="M38.7 82.4s.5.7.6 1.3v1.2c-.3 0-.6-.4-.7-.9-.1-.5 0-1.6 0-1.6h.1zm-3.2-3.3s.4.5.4 1 0 1-.3 1-.3-.4-.3-.8l.2-1.2zm-3.7.5s.4.5.4 1 0 1-.3 1-.3-.4-.3-.8l.2-1.2z" fill="#231F20" fill-rule="nonzero"/><path d="M30.5 80.3l1 .4c.3.4.5.8.3 1-.1.2-.5-.1-.6-.4l-.7-1zm2.8 3.8s.7 0 1.1.5c.4.3.8.6.5.9-.2.2-.7-.2-1-.5l-.6-.9zm-3.4 0l1 .3c.3.2.4.7.2.8-.1.1-.4 0-.6-.4l-.6-.8v.1zm8.3 2.5l.2 1.4c0 .5.1 1-.2 1-.3 0-.3-.7-.3-1 0-.5.3-1.4.3-1.4z" fill="#231F20" fill-rule="nonzero"/><path d="M37.3 87.9l.8.5c.3.2.3.6.1.6l-.4-.5a9.2 9.2 0 0 1-.5-.6zm-3.7.2l.9.3c.2.2.3 1 .2 1.1 0 .1-.4 0-.6-.3l-.5-1v-.1z" fill="#231F20" fill-rule="nonzero"/><path d="M32.1 76.8s-3.2.7-3.8 2.9c-.6 2-.7 4.4-.7 4.4l-.4-2.7.6-1.7 1-1.6 1.4-1 1.3-.4.6.1zm10.2 12.5s.4-.8-.6-3.4c-1-2.5-3-6-3-6l1.6 1.8 1.2 2 .6 1.8.5 1.7v1.6l-.3.6v-.1z" fill="#04534E" fill-rule="nonzero"/><path d="M45.6 85.2s1.2.7 1.3 1.1c.1.4.2.6-.1.7-.3.1-.8-.4-1-.7a6.5 6.5 0 0 1-.2-1.1zM40.8 98s.6-1 1.3-1.3c.7-.4 1.2-.4 1.4-.1.2.2-.4.7-1 .9l-1.7.6V98zm8.1 3.1s.8-.4 1.3-1c.5-.5.6-.9.4-1-.2-.3-.8 0-1.1.5-.3.4-.6 1.5-.6 1.5zm-.9-.7s.3-1 .6-1.4c.3-.3.6-.5 1-.3.2.2 0 .6-.2.9a7.8 7.8 0 0 1-1.4.8z" fill="#231F20" fill-rule="nonzero"/><path d="M61.5 94.2s-5-7.2-12.8-7.6a7.4 7.4 0 0 0-8 7c.2 1.6 2.6 5.2 10.9 5.8 8.3.6 9.6-3.9 10-4.1.3-.2-.1-1-.1-1v-.1z" stroke="#04534E" stroke-width=".5" fill="#8CBEBF"/><path d="M55.6 89.3s2 1.5 3 2.8c.8 1.2 1 2.2.5 2.3-.5.2-5-4-8.8-4.9-3.7-.9-6.9 0-7.6 1.7-.7 1.7-.4 4.5 1.2 5.6 1.8 1 9.7 2.3 9.7 2.3l3.7-.5 2.3-1.3.5-1.3.6-1.6.2-.7-1.9-2-3.4-2.5v.1z" fill="#0C8489"/><path d="M49.2 90.3c0 .4-.5.7-1 .7s-.9-.3-.9-.7c0-.5.4-.9 1-.9s1 .4 1 .9h-.1zm-4.6 1.6c0-.5.6-.4 1-.4.6 0 1 .3 1 .8s-.8 1.1-1.3.9c-.6-.3-.7-.8-.7-1.3zm5 2.7c0-.6.4-1 1-1 .7 0 1.2.4 1.2 1s-.8 1.2-1.5 1.2-.7-.6-.7-1.2z" fill="#04534E" fill-rule="nonzero"/><path d="M45.8 95.7c0-.5.6-.6 1-.6.5 0 1 .5 1 1s-.5.9-1 .9c-.4 0-1-.8-1-1.3z" fill="#8CBEBF"/><path d="M52.5 97.5c0-.4.2-.8.7-.8.4 0 1 .3 1 .7 0 .4-.5.9-1 .9a.8.8 0 0 1-.7-.8zm3-2.3c0-.5.3-.4.8-.4s1 .2 1 .8c0 .6-.6.8-1.1.8-.5 0-.7-.6-.7-1.2z" fill="#04534E" fill-rule="nonzero"/><path d="M49 89.9c0 .4-.2.6-.7.6-.5 0-.9-.2-.9-.6 0-.5.2-.6.6-.6.4 0 1 .1 1 .6zm-2.5 1.9c0 .5-.7.7-1 .7-.5 0-.8-.2-.8-.7 0-.5.3-.6.8-.6s1 .1 1 .6zm1 3.8c0 .4 0 .7-.5.7s-1-.3-1-.7c0-.4 0-.7.5-.7s1.1.3 1.1.7h-.1zm4-1.3c0 .4-.7 1-1.2 1-.4 0-.6-.9-.6-1.3s.4-.7.8-.7 1 .6 1 1zm5.8 1.3c0 .4-.7.4-1 .4-.5 0-.8-.5-.8-1 0-.4.1-.8 1-.7.5 0 .8.8.8 1.3zm-3.4 1.7c0 .5-.3.8-.7.8a.8.8 0 0 1-.8-.8c0-.4.4-.6.8-.6s.7.2.7.6z" fill="#8CBEBF" fill-rule="nonzero"/><path d="M54.4 95s.8-.3 1.5-.3c.6 0 .6.3.6.4 0 .1-.5.3-.7.2a86.2 86.2 0 0 1-1.4-.4v.1zm-3.3 2.8s.6-.4 1.1-.5c.5-.1.9 0 .8.4 0 .3-.2.3-.6.3l-1.3-.2zm-2.2-5s1.4.6 1.7 1.1c.3.6.4.7.1.9-.3.2-.6-.2-.8-.5l-1-1.5z" fill="#231F20" fill-rule="nonzero"/><path d="M48.5 94.6l1.6-.3c.5 0 .6 0 .7.2 0 .2-.1.3-.5.3l-1.8-.2zm-3.4 0s1.2.2 1.5.5c.3.3.3.6.1.7 0 .2-.6.1-.8 0l-.8-1.2z" fill="#231F20" fill-rule="nonzero"/><path d="M45 96.3s.4-.7.8-.8c.4-.1 1-.1 1 .1.1.2-.4.5-.7.6l-1.2.1h.1zm-1-5.1l1.2.3c.4.3.5.6.4.7 0 .1-.5.2-.8 0-.5-.4-.7-1-.7-1H44zm2.6-3s1.2.4 1.6 1c.4.5.3.8.1.9l-.9-.4c-.3-.3-.8-1.4-.8-1.4v-.1z" fill="#231F20" fill-rule="nonzero"/><path d="M60 96.7s-2.3 2-7.7 1.9c-5.5-.2-10.4-2.5-11.6-5l.5 1.2 1.2 1.6 3.8 2 4.3.9 3.3.2 3.2-.6 2.5-1.1.4-.7.2-.4H60zm.8-2.5s-.9-1.2-2.2-2.3c-1.2-1.2-6.2-4.4-6.2-4.4l4 1.8 2.7 2.2 1.8 2-.1.7z" fill="#04534E" fill-rule="nonzero"/><path d="M61 89.4s1.4.5 1.6.8l.5.6s-.3 1-.6.6l-.8-.9-.7-1.1zm4-2.2s1.3.5 1.8 1.1c.5.7.4 1.2.2 1.3-.2 0-1-.7-1.2-1a47.3 47.3 0 0 0-.7-1.4H65z" fill="#231F20" fill-rule="nonzero"/><path d="M66.4 87s1.2.8 1.4 1.2c.1.4.5 1 .1 1-.3.2-.9-.4-1-.8l-.6-1.5.1.1zm6.8 1.5s1 .4 1 1.2V91l-.7-.7v-.7l-.3-1v-.1zm1.8.7s.8.7.9 1.2c0 .5.2.8-.3 1-.4 0-.6-.5-.6-1v-1.2zm-12.3 15s.6.2 1.2 0c.5-.2 1-.7.9-1-.1-.4-.4-.7-.8-.2-.4.4-.2.6-.5.8l-.7.3-.1.1zm6.8 1.8s.9-.2 1.5-.9c.6-.6.9-1 .5-1.2-.4-.2-1 0-1 .5l-1 1.6zm5.5.1l1.3-.9c.5-.4.7-.7.4-1-.3-.5-.6-.2-.8 0l-.2.7-.6 1.2H75z" fill="#231F20" fill-rule="nonzero"/><path d="M76.7 106.1s.8-.9 1-1.4c.1-.5.2-1-.1-1-.4 0-.8.5-.8.9v1.5h-.1z" fill="#231F20"/><path d="M59.9 97.1c0-2.4 3.5-8 7.5-8 1.6 0 4.9 1 7.5 2.1 2.2 1 3 2 4.4 2.4 1.5.4 3.7.1 3.7.1l5-.5-4 5.7-1.4 1.2s-1.2 2.4-4.7 3.8c-3.6 1.4-9.5.4-12.2-.3-2.7-.7-6-3.2-5.8-6.5z" stroke="#04534E" stroke-width=".5" fill="#8CBEBF"/><path d="M59.9 97.1h.2c0-.5.2-1.3.6-2.1a12.2 12.2 0 0 1 2.7-3.8c1.1-1 2.5-1.8 3.9-1.8.8 0 2 .2 3.4.6a29.4 29.4 0 0 1 4.1 1.4c1 .5 1.8 1 2.4 1.5.7.4 1.3.8 2 1a9 9 0 0 0 2 .2L83 94l4.4-.5-3.6 5.2-1.4 1.2v.1a9 9 0 0 1-4.6 3.7c-1.3.4-2.8.6-4.5.6-2.8 0-5.9-.5-7.6-1a8.4 8.4 0 0 1-3.8-2.1 5.7 5.7 0 0 1-1.8-4h-.5c0 1.7.8 3.2 2 4.4a9 9 0 0 0 4 2.3c1.7.4 4.8 1 7.7 1a14 14 0 0 0 4.7-.7 9.4 9.4 0 0 0 4.9-4h-.3l.2.1 1.4-1.3 4.3-6.2-5.6.7h-.1a14.8 14.8 0 0 1-3.4-.1 5.5 5.5 0 0 1-1.9-1c-.6-.4-1.4-1-2.5-1.4a29 29 0 0 0-4.2-1.5c-1.3-.4-2.6-.6-3.4-.6h-.1c-1 0-2 .3-3 1a11.2 11.2 0 0 0-3.3 3.5 8.3 8.3 0 0 0-1.4 3.7h.3z" fill="#04534E"/><path d="M84 97.9c-.4.3-1 .3-1.4.3-.5 0-11.6-6.7-15-6.4-3.5.3-6.8 1.7-6.9 5.3 0 3.5.8 3.5 1.5 4.5s7.5 2.5 7.5 2.5h4.1l3.3-.4 3-1.6 1.5-1.3 1.1-1.3 1.3-1.6z" fill="#0C8489"/><path d="M66.5 96c0 .8-.3 1.3-1 1.3-.6 0-1.1-.3-1.1-1s.4-1 1-1c.7 0 1 .1 1 .8l.1-.1zm1.1-3c0-.6.6-.8 1.2-.8.7 0 1.2.2 1.2.8 0 .6-.5 1-1.2 1-.6 0-1.2-.4-1.2-1zm6.7 1.8c0-.5.4-.9 1-.9.5 0 .9.4.9 1s-.4.8-1 .8a1 1 0 0 1-1-.9h.1zm1.3 4c0-.6.5-1 1-1 .6 0 1.2.2 1.2.8 0 .6-.2 1.3-.8 1.3-.6 0-1.4-.4-1.4-1v-.1zm-3.2 2.7c0-.6.5-1 1-1 .7 0 1.2.4 1.2 1 0 .5-.5.9-1 .9-.7 0-1.2-.4-1.2-1v.1zm-6-1c0-.6.3-1 .9-1a1 1 0 1 1 0 1.9 1 1 0 0 1-1-1l.1.1z" fill="#04534E" fill-rule="nonzero"/><path d="M66.4 96a1 1 0 0 1-2 0c0-.6.4-.8 1-.8s1 .2 1 .7v.1zm3.3-3.2c0 .5-.2.9-.8.9-.5 0-1.3-.4-1.3-.9s.5-1 1-1c.6 0 1 .5 1 1h.1zm6.4 1.7c0 .5-.4.9-1 .9s-.9-.4-.9-.9c0-.4.4-.8 1-.8s.9.4.9.8z" fill="#8CBEBF" fill-rule="nonzero"/><path d="M72.7 97.2c0 .7-.3 1.2-1 1.2-.6 0-1.1-.3-1.1-1s.3-1 1-1 1 .2 1 .8h.1z" fill="#04534E"/><path d="M68 100.2c0 .5-.4 1-1 1s-1-.5-1-1 .6-.8 1.2-.8.8.3.8.8zm4.5-3a1 1 0 1 1-2 0 1 1 0 0 1 2 0zm5.2 1.3c0 .6-.3 1-1 1-.6 0-1.1-.4-1.1-1s.2-.8.8-.8c.6 0 1.3.2 1.3.8zm-3.3 2.7c0 .6-.4 1-1 1s-1.1-.4-1.1-1c0-.5.5-.8 1-.8.6 0 1 .3 1 .8h.1z" fill="#8CBEBF" fill-rule="nonzero"/><path d="M74.8 98s1.6-.2 1.9 0c.3.4.3.8.1 1-.1 0-.8.1-1-.1 0-.3-1-1-1-1v.1zm-1.7-5.4s1.3.3 1.8.9c.5.5.4 1 .4 1.1-.2.1-.6.2-1-.2l-1.2-1.8zm-3.7 2.6s1.5.8 1.8 1.3c.3.4.4.8.2 1-.1.2-.8 0-1-.3 0-.3-1-2-1-2z" fill="#231F20" fill-rule="nonzero"/><path d="M68.7 96.3s1.7.2 2 .5c.5.4.8.4.8.6 0 .3-.3.4-.5.4a3.6 3.6 0 0 1-1.2-.5l-1-1h-.1zm-1.9-4.8s1.7.2 2 .5c.4.3.5 1 .1 1.2-.4.2-.8-.2-1-.5a8.2 8.2 0 0 0-1-1.2h-.1zM63.2 94s1.5.8 2 1.4c.3.4.5.7 0 1-.4 0-.9-.7-.9-1a9 9 0 0 0-1.1-1.4z" fill="#231F20" fill-rule="nonzero"/><path d="M62.8 96l1.5-.2c.5 0 1.2-.1 1.2.2 0 .4-.6.5-1 .4l-1.7-.4zm8.6 5.6s1.1-.7 1.7-.6c.5.1.7.1.7.4 0 .4-.7.3-.9.3l-1.5-.1zm-6-.9s.4-.6.9-.7c.4 0 .6 0 .7.2 0 .2-.4.6-.6.6h-1v-.1z" fill="#231F20" fill-rule="nonzero"/><path d="M82.6 99.6s-1.6 2-4 3a14 14 0 0 1-7.2 1.1 15.2 15.2 0 0 1-11.2-5.2l.4 1.1 2 2.6 2.3 1 3.5 1 3.3.3h2.5l3-.5 1.9-.7 1.3-.8 1-.8 1.2-2v-.1zm-3-5.9s-1 .3-3-.9-4.3-2.8-8.8-2.8c-4.5 0-5.9 3-6.2 3.2l2-2.6 2-1.1 1.7-.3h1.5l2 .6 1.7.6 2.1.7 1.8 1 2.2 1.1 1 .5zm6 1.4h-3.4c-.8 0-.8.2-1 .4a4 4 0 0 1-.2.4l-.8-1.7 3.5-.5 2 .7-.2.6.1.1z" fill="#04534E" fill-rule="nonzero"/><path d="M80.7 113.4c.2.5.6 1 1.1 1h1.6l3.6-.3 1.2-1.4.8-3.2 1-1.2 3.3-1.9 2.8-.8 1.9-.2 2.5-.8 1.9-1 .8-1.2.8-1.8-.8-2.5-2-2.7-3.4-1.3H95l-3 1.1-5.5 1.3s-3 1.3-4.3 3.7c-1.3 2.3-1.2 3-1.5 6-.2 3.2 0 7.2 0 7.2z" stroke="#04534E" stroke-width=".5" fill="#0C8489"/><path d="M82.2 112.2c1 0 .2-1.7 1.4-3.8 1.2-2 2.6-4.6 3-4.6.4 0 .4.4.9.3.4-.2 1.2-.8 1.2-1 0-.2 0-1.3 1-2 .8-.8 2.1-1.9 2.7-2 .6-.1 1-.3 1 0 .1.3-.3.7.1.8.4.2 1.4.1 1.6-.5l.2-1s.6-.5 1.8-.3c1.2.3 1.3.2 1.4.7.1.4-.5.5-.4.8v.6c.2.2.4 1 1.2 1 .8-.1 1.1-.6 1.1-.6l.3-.4s.2-.5-.1-.7c-.3-.2-.2-.4 0-.3.4.1 1.6 1.8 2 1.1.4-.7.5-1.7.2-2a91.2 91.2 0 0 1-1.9-2.7l-3-1-4 .3-4 2.2-3.6 2s-.2 2.9-.8 2.3c-.7-.5-1.6-2-1.9-1.5-.3.5-.9 2.7-1.3 3.8-.3 1-1.4 4.4-1.3 5.6.1 1.2.8 2.9 1.2 2.9z" fill="#8CBEBF"/><path d="M85.8 107.4c-.3 0-.7.3-.8.5-.2.2-.3.5-.2 1 0 .3.7.7.7.7h.5l1-.3.3-.8c0-.5-.3-.6-.4-.6a29 29 0 0 1-1.1-.5zm6.2-5c-.6-.3-.8.1-1 .3v.5s.2.8.4 1c.3 0 1.1.3 1.3 0 .3-.2.5-.4.5-.9s-.7-.7-.7-.7l-.5-.3v.1zm5 1.1c0-.2-.5-.3-.9-.2-.3 0-.7.4-.6 1 .2.7.8.7 1.2.6.5-.1.4-.8.4-.9l-.1-.5zm-14.4 1c0 .3.5 1 1.2.9a1.3 1.3 0 0 0 1.2-1c0-.4-.4.3-1 .5s-.7.2-1 0c-.2-.4-.4-.4-.4-.4z" fill="#8CBEBF" fill-rule="nonzero"/><path d="M87.3 108.5s0 .6-.4 1c-.5.3-.8.3-1 .3-.3 0-.6 0-.8-.3l-.3-.7s.5.8 1.3.6a2 2 0 0 0 1.2-.9zm13.3-8.3s0 .6-.5.9c-.5.3-.7.3-1 .3-.2 0-.6-.1-.7-.4-.6-1-.3-1.5-.3-1.5s.4 1.6 1.3 1.5a2 2 0 0 0 1.2-.8zm-11.9 2.9s-.4 1.2-1.2 1.2c-.9 0-.8-.2-.7-.4 0-.1.3.2.7 0 .4 0 1.2-.8 1.2-.8zm2.3-.3s0 1 .2 1.2c.3.4.7.5 1 .5.3 0 .6 0 .9-.4.3-.4.1-.8.1-.8l-.2.5c-.3.3-.5.3-.8.3-.3 0-.7 0-.8-.3l-.4-1zm4.3-4.3s.2.7-.3 1.2c-.5.6-1.5.2-1.5.2s.8.3 1.2-.2c.4-.4.6-1.2.6-1.2z" fill="#04534E" fill-rule="nonzero"/><path d="M81.7 114.1s5.3 0 5.7-.8c.4-.7-.4-3.6 2.7-5.8 3.2-2.2 5.7-2.2 7.4-2.3 1.7-.2 5.3-1.3 6-4.5.3-2-2.3-2.2-3.3-4-1-2-3.6-1.2-3.8-1.2-.1 0-3 0-4.3 1.3-.9.8-.8 1.8-1.1 2.2-.4.5-4 0-4.3.6-.4.6.1 1.7-.2 2-.2.3-1-.8-1-.8l.2-2.8 4.5-2.6 5-2.8 3.5.1 3.5 1.8 1.7 2s.3.8.5 2.3a5.3 5.3 0 0 1-.2 2c-.8 2.8-3.7 4.8-6.7 5a14 14 0 0 0-7 2.5c-1.4 1-2.1 5.3-2.1 5.9 0 .5-6.6.1-6.6.1v-.2h-.1z" fill="#04534E"/><path d="M84 103.8c-.3.3-.7.2-.8 0-.2-1 .3-2.2.3-2.2v1.6c.1.2.4.1.5.3v.3zm3.2-.6c-.2-.1-.1-1 0-1.3.2-.3 1.7-1.4 1.7-1.4l-.6 1.5c-.2.4-.7 1.3-1 1.2h-.1zm-1.2 5.3c-.3 0-.3-.4-.3-1s1-1.6 1-1.6l-.4 1.2.2 1c0 .3-.3.4-.5.4z" fill="#231F20" fill-rule="nonzero"/><path d="M88.4 107s-.5.6-1 .9c-.5.3-1.1.7-1.4.6-.4 0 .1-.8.3-.9l2.1-.6zm4.5-6.4s-.6.5-.9 1.2c-.3.7-.4 1.3-.1 1.4.3.2.7-.8.8-1.1l.2-1.5z" fill="#231F20" fill-rule="nonzero"/><path d="M94.6 102.9s-.5-.4-1.2-.6c-.8-.2-1 0-1.2.2 0 .2-.6.5-.3.7.2.2.6-.3.8-.3.2-.1.5-.3.9-.2l1 .2zm-1-4.5c.3.3.7-.2 1-.6.4-.4.7-1.2.7-1.2l-1 .7c-.4.3-.9 1-.7 1.1zm6.9-.1s-1 .4-1.2.8c-.3.4-.7.8-.4 1 .3.3.6-.2.8-.5l.8-1.3zm-2 4.6s-.3.6-.9 1c-.5.4-1.2.5-1.3.3-.1-.2.1-.6.3-.7l.8-.2a7.3 7.3 0 0 0 1.1-.4z" fill="#231F20" fill-rule="nonzero"/><ellipse fill="url(#a)" transform="rotate(8.7 53.645 87.748)" cx="53.645" cy="87.748" rx="2.9" ry="4.3"/><path stroke="#AA8C30" stroke-width=".3" fill="#FCCA3E" d="M55.4 80l-1.7 4.2 1.4-.2.7-3.8z"/><path d="M56.1 78.1c-.6 0-1.1.4-1.2 1 0 .7.4 1.3 1 1.4.6 0 1.1-.4 1.2-1 0-.7-.3-1.3-1-1.4z" stroke="#AA8C30" stroke-width=".2" fill="#FCCA3E"/><path stroke="#AA8C30" stroke-width=".3" fill="#FCCA3E" d="M129.7 88.8l-4.2 4 1.7.4 2.9-3.8z"/><path d="M131.6 87.1a1.5 1.5 0 0 0-2 .6c-.5.7-.3 1.5.4 2 .7.3 1.6 0 2-.7.4-.6.2-1.5-.4-1.9z" stroke="#AA8C30" stroke-width=".2" fill="#FCCA3E"/><path stroke="#AA8C30" stroke-width=".3" fill="#FCCA3E" d="M22.8 66l2.2 4.9 1-1.4-2.6-3.7z"/><path d="M21.9 63.9c-.6.4-.6 1.3-.1 1.9.4.6 1.3.7 1.8.2.6-.5.6-1.3.1-2a1.3 1.3 0 0 0-1.8-.1z" stroke="#AA8C30" stroke-width=".2" fill="#FCCA3E"/><path d="M56.6 78.3s.3.1 0 0c-.5 0-1.4.4-1.4 1a1 1 0 0 0 1 1c.5 0-.2.2-.2.2l-.7-.2-.2-.4-.2-.5.1-.6.4-.5.5-.2h.3l.4.2z" fill="#AA8C30"/><path d="M55.6 81.1s-.3 0-.5.3a49.4 49.4 0 0 1-.7 1.1l1-2.3.4.2-.2.7zm76.4 6.4s.3.4-.1 0c-.4-.3-1.8-.2-2.1.5-.4.8 0 1.4.6 1.7.6.2-.2 0-.2 0l-.7-.5-.1-.6v-.7l.5-.6.7-.3h.7l.3.2.4.3z" fill="#AA8C30" fill-rule="nonzero"/><path d="M129.4 90.3s-.3-.2-.8 0l-1.4.9 2.3-2.2.5.6-.6.7zm-107-26.7s.4-.1 0 .1c-.5.3-.8 1.4-.3 2 .6.5 1.3.4 1.7 0 .4-.5 0 .2 0 .2l-.7.4h-.6l-.6-.3-.4-.6v-.8l.2-.5.3-.3.3-.2h.1z" fill="#AA8C30" fill-rule="nonzero"/><path d="M24 66.8s-.3.1-.2.6l.3 1.5-1.2-2.7.7-.2.4.8z" fill="#AA8C30"/><ellipse fill="url(#b)" transform="rotate(62.9 27.828 75.18)" cx="27.828" cy="75.181" rx="4.6" ry="3.1"/><path d="M22.6 74.2s1 .2 1.5 0 .6-.7.7-.8c.1-.1.3-.6.2-1a3.8 3.8 0 0 0-1-1.4l-1-.1c-.1-.1 0-.4-.2-.5-.3 0-1.7 1.6-1.5 1.8.3.3.4 0 .5.1v1.1c0 .3.8.8.8.8z" fill="#E92736"/><path d="M24 71.1c.1.3.7 1 .9 1 .2.2.8.2 1 0 .3 0 1-.7 1-1a1.5 1.5 0 0 0-.1-.7c-.2-.3-.1-1-.4-1.1-.2 0-.3-.1-.5-.3v-.7c-.3-.3-2.6 1.1-2.4 1.4.2.2.4 0 .5.1v1.3z" fill="#E92736"/><path d="M29.2 70.6c.2-.4.1-1.5-.1-1.8-.2-.3-.6-.3-.7-.4 0-.1.3-.2.3-.5s-2.6.1-2.4.4c.2.3.6.1.6.3 0 .2-.4.4-.5.6l.3 1.1c0 .2 0 .4.2.5l.6.2h1.4c.1-.1.2-.1.3-.5v.1zm22 12.8s.3.7.8 1h1l.6-.5c.2-.2.4-1.2.3-1.4 0-.2-.5-.6-.5-.8 0-.2.3-.2.2-.4-.1-.2-2-.2-2 .2 0 .3.3.2.2.3 0 .2-.5.5-.6.7-.2.1 0 1 0 1v-.1z" fill="#E92736" fill-rule="nonzero"/><path d="M53.8 82.5c0 .2-.2 1 0 1.1 0 .2.3.7.5.8h1.2a1.2 1.2 0 0 0 .4-.6c.1-.3.6-.7.5-.9-.1-.2-.2-.2-.1-.4 0-.2.3-.2.3-.5s-2.1-1-2.2-.7c0 .3.3.2.2.4 0 .2-.7.6-.8.8z" fill="#E92736"/><path d="M57.3 85.5c.3-.2 1-.9 1-1.1 0-.4-.3-.6-.2-.7l.5-.1c.1-.2-1.6-1.6-1.7-1.3 0 .3.3.4.2.5l-.7.1c-.1.1-.5.6-.5.8 0 .2-.3.2-.2.5l.2.4c.1.2.8.9 1 .9h.4zm66 5.5s0 .8.4 1.2c.3.3.6.3.8.4h.7a3 3 0 0 0 1-1c0-.3-.3-.8-.2-1 .1-.2.3 0 .3-.2 0-.3-1.6-1.1-1.7-.8-.1.2.2.3 0 .4l-.8.2c-.2 0-.5.8-.5.8z" fill="#E92736" fill-rule="nonzero"/><path d="M126 91.5l-.8.8c0 .2 0 .7.2.8 0 .2.7.6 1 .5.1 0 .3 0 .5-.2.2-.1.8-.2.8-.4l.1-.4c.1-.1.4 0 .6-.2.2-.2-1.2-1.7-1.4-1.5-.2.2 0 .3 0 .4-.2 0-.9 0-1 .2z" fill="#E92736"/><path d="M126.4 95.2h1.4l.4-.5c.1 0 .1.2.4.2.2 0 0-2-.3-1.8-.2.1-.1.5-.2.4-.2 0-.3-.3-.5-.3a2.4 2.4 0 0 0-1 .1s-.2 0-.3.2l-.2.4v1c.1.2 0 .2.3.3z" fill="#E92736"/><path d="M24.2 72c.2.4-.1 1.2-.3 1.4-.1.2-1.3-.1-1.3-.3 0-.2-.1-.6 0-.8.2-.2.6-.7.9-.6.3 0 .6.3.7.4V72zm.3-1.3c-.2.3 0 .6.2.7.1.2 1 .4 1.2.3.2-.2.6-1.5.4-1.7-.2-.2-.6-.2-.7-.2-.2 0-1 .6-1.1.9zm2.7-1.3v.7c.2.1.7.5 1 .5.3 0 .5-1 .5-1.1 0-.2-.1-.3-.3-.4l-1.2.2v.1zm26.1 13.7c0 .4-.7.7-.9.7-.2 0-.7-1-.6-1 .1-.2.3-.5.5-.5s.7 0 .9.2l.2.7-.1-.1zm1.1-.6c-.2.1-.3.4-.3.6 0 .2.3.8.5.9.2 0 1.2-.5 1.3-.7 0-.2-.2-.5-.4-.6l-1-.2h-.1zm2.4 1c-.2 0-.4.3-.4.5 0 0 0 .6.3.8.2.2.8-.2.9-.3v-.4c0-.2-.8-.6-.8-.6zm68.6 8.2c-.2.2-.9.2-1 0-.3 0-.3-1-.1-1 .1-.1.4-.3.6-.2.2 0 .6.3.6.6l-.1.6zm1 .1c-.3 0-.5.1-.6.3-.1.1-.2.7 0 .9.1.1 1.2.2 1.3 0v-.5l-.7-.7zm1 2h-.5c-.1 0-.4.4-.4.7 0 .2.7.3.8.3l.3-.2-.1-.8h-.1z" fill="#F7E204" fill-rule="nonzero"/><ellipse fill="url(#c)" transform="rotate(47.9 123.053 96.08)" cx="123.053" cy="96.081" rx="2.2" ry="4.5"/><path d="M45.8 32.3s-3.8.3-6.5-.1-2-7.3-2.1-7.5c0-.2-1.6-1.8-1.4-3.3.3-1.5 5.2-5.5 5.8-5.8.5-.1 1.5.3 1.5.3s1.2-1.2 1.6-1.2c.4 0 .9.7.8 1-.2.3-1.9 1.3-2 2-.2.8 0 1.5-.5 2.3-.5.7-1.4 1.7-1.5 2.4-.1.6-.4 1.1 0 1.4.5.2 2.1 0 3.5-.6 1.4-.7 2-1.5 2.1-1.4.2 0-.8 1.7-2.3 2.4-1.5.6-2.5 1.3-3.3 1.2 0 0-.8 2 1.8 2.2 2.6 0 4-.6 4-.6l-1.5 5.3zm-15 16s2 .8 2 3-2.1 4.1-2 8c0 4 .6 4 5.8 8.3a5.7 5.7 0 0 1 1.6 2.5c.3 1.3 1.2 8.9 6.2 8.9s5.8-3.3 5.8-3.3L48 72.6s-1.7.5-2.7.3a3.4 3.4 0 0 1-2.3-2.1c-.6-1.2-.7-4.1-1.6-5.4-2-3.2-5.8-3.7-5.9-7 0-3.4 2.3-3.7 1.7-7.7-.7-4-5.4-5.8-5.4-5.8l-1.9-.8-.7 4 1.6.2z" fill="#A8AC71" fill-rule="nonzero"/><path d="M44.7 20.6c1.7-.4.7-4.8.7-4.8l-1.2 1s.8 1 .8 2-.3 1.8-.3 1.8z" fill="#F1A720"/><path d="M47.8 64.5l-.9-.7c-.6-.4-3.2-2.6-2.8-8.9.5-7.2 11-11 11.6-13.8.8-3.2 3.1-4.5-5.2-11l-2 2.2 3.5 2.6s.7-.4.8.6c0 1-1 1.7-1.2 2.5-.2.7-5.4 4.3-5.8 4.6l-3 2.4s-1.3 1.3-2.5 4.1c-1.3 2.8-.7 6.4-.7 6.4s0 7.6 8.2 9z" fill="#A8AC71"/><path d="M42.7 68.5l.6 2.7-1.7.6h-.7l-.5.2-1.3 1.2h-.3s-.2 0-.3-.8c0-.8-.2-1.5-.2-1.5l1.6.7h.6l.3-.1.7-1.5 1.2-1.5zm-4.8.5l-.8-1-1-.9 1.2-.6h1.2l-.2 1.5-.4 1zm2.7-4.3s.8.3 1 1l.6 1.2-2-.2-1.4-.4 1-1.4.8-.2zm-.7 11.9s-.4-.3-.7-.9l-.4-1.6 1.3-.3 1.5.7h.4l-.3.8-1.5 1.3h-.3zm5-4.1s-1-.4-1.2-1c-.2-.5-.4-.4-.4-.4l-.3 1.5-.5 1.5.2.2 1.1-.3.9-.9.3-.6h-.1zm-4.7 4.8l1.4.7c.8.5 1.2.5 1.2.5l.6-.6.7-1.3v-.1l-3 .3-.9.5zm4.4-1.2l2.7-1.6.1-1.4-.5-.4h-1.5l-.5 1.8-.3 1.6zm-1.8 2.5s1.8.8 5-.4c1.4-.5 1.7-1.2 1.7-1.2l-1.3-.5-1.2 1-4.2 1v.1zm-2.5-20.3l-.4-1.4c-.2-.8-.1-1.1-.1-1.1l.9.5 1.3 1-1 .7-.7.3zm2.2 3.7l-.9-1a12.4 12.4 0 0 1-.6-1.2l1 .2 1.1.6-.5 1.4h-.1z" fill="#78732E" fill-rule="nonzero"/><path d="M36.6 20c-.2.7-.4 1.9.5 2 .4.2 2.3 0 4.5-2.4 1-1.2 1-2.4 1-2.4l.5-1.3s-.9-.6-2.2.2c-1.3.8-4.3 4-4.3 4V20z" fill="#C6C7A6"/><circle fill="#1C242F" cx="42.5" cy="16.6" r="1"/><path d="M39.7 17a17.7 17.7 0 0 0-1.7 1.7s1.4-.4 2.6-1.5c.6-.6 2-.8 2.6-.7.4.1.2-.4 0-.5-.3-.3-1.4-.4-1.6-.3L39.7 17z" fill="#A8AC71"/><path d="M44.1 57.5v-2.2l-.9.8-.8 1.1 1.3.5.4-.2zm-4.5-2.6v-2.3c0-1 .5-3.1.5-3.1l.6 1.4 1.5 2.4.5.4-1.3 1-1.4.4-.4-.2zm4.5-.6l.3-1c.1-.6.5-1.4.5-1.4v.1a25 25 0 0 0-2 1.7l.8.7h.5l-.1-.1zm-3.6-5.9s.2-.6 1-1.5l1.3-1.8.6 2.4.4 2v.4l-.7.2c-.2 0-1.6 0-1.8-.3l-.8-1.3v-.1zm4.8 2.9l.8-.9 1-1-3.2.6.5 1 .8.3h.1zm-2-6.7s.3 0 1.2-1c.8-.8 1.3-.7 1.3-.7l.3 3.4-1.6-.5-1.2-1.2z" fill="#78732E" fill-rule="nonzero"/><path d="M47.3 49.2l2-2-3.3-1 .6 2.3.7.7zm1.4-5.2l.2-3.3s-.7.3-1.5 1l-1.2.9.4.6 1 .7h1l.1.1zm2.8-3.2V38s-.5.8-1 1.2l-.9.8.9.6h1v.2zm1.2 3.5l1.6-1.3a6.5 6.5 0 0 0 1.5-1.7l-4.2-.3.2 1.7 1 1.6h-.1zm-9.6-13.8l-.2 1.8h3.5l-.9-1.2-1-.6-1-1-.4 1zm6.6 16.2c.2 0 1.1-.8 1.6-1.2.4-.5 1.2-1 1.2-1l-3.3-.3v2.2l.5.3zm6.3-5.9s.4-1.3.3-2.6c0-1.2-.2-1.8-.2-1.8l-2.5 1.7.4 1.2 1 1 1 .5z" fill="#78732E" fill-rule="nonzero"/><path d="M51.8 37.8s.7-1 .8-1.4V36h2l1.1.2h.2l-.9 1.1-1.2.7-1.5.2-.5-.4zm4-2l-1.3-2c-.4-.7-.8-1-.8-1l-1 2.7v.3h3.1z" fill="#78732E" fill-rule="nonzero"/><path d="M31.6 55.2l-.3.8s1.3-.7 2.3-.7c1 0 2.1 1.3 2.1 1.3l.2-.9s-1.3-1.3-2.2-1.3c-.8-.1-2 .8-2 .8h-.1zm.7-5.8l.3.4c0 .1.1-1 1.4-1.5 1.4-.6 2-.1 2-.1s-.2-.8-.8-1c-.6-.1-1.1 0-1.8.5a3.7 3.7 0 0 0-1.1 1.7zm4.4 4.4s-.6-1.4-1.6-1.6c-1.1-.3-2.5.5-2.5.5l-.2.7s1.5-.8 2.5-.4c1.1.5 1.5 1.7 1.5 1.7l.3-1v.1zm-5-5.1l.4.5s-.2-1.4.5-2.1a4.9 4.9 0 0 1 1.1-1l-.6-.3s-.9.5-1.2 1.1a3.2 3.2 0 0 0-.2 1.8zm-.5-2.3c.3-.8 1.2-1 1.2-1l-.3-.3h-.5s-.5.3-.9 1c-.3.9-.3 2-.3 2l.6.3s-.1-1.4.2-2zM39 27.2c.9-.4 1.5-.3 1.5-.3s-1.3 1.3-.7 2.9c-.7 1.3-.9 2.3-.9 2.3h.7l.4-1.8c.8 1.3 2 2 2 2h1s0-1.3.4-2.4h.1a5 5 0 0 0 2 1.5V31s-1.1-.6-1.7-1.5l-.1-.1a4.2 4.2 0 0 1 1.8-1.7l.7.6.2-.2-.5-.7h-.6l-1.8 1.7a9.2 9.2 0 0 1-.8-1.5l-.4-.2s-1.1.1-2 1.7c-.2-1.2 1.1-2.4 1.1-2.4v-.5l-2.4.6c-1 .3-1.7 1.2-1.7 1.2v.8s1-1.1 1.7-1.6zm1.5 2.2c.6-1 2-1.5 2-1.5s0 .7.7 1.7c-.5.9-.8 2.2-.8 2.2s-1-.6-1.9-2a1.6 1.6 0 0 1-.2-.3l.2-.1zm-7.6 21.1v.8s.8-.9 2-1c1.2 0 2.3 1 2.3 1s0-1-.2-1.2c-.1 0-1.1-.6-2-.6-.9 0-2.1 1-2.1 1zm21.4-11.2l-.5-1 .6-.3a12.5 12.5 0 0 0 1.7-1.6l-.4-.6h-1.6l-1.4-.1.5-1.7.6-1.4-.6-.5s.2.5-.8.6c-1 .1-2.8-.8-2.8-.8v.4l2.5.7c.6 0 1-.1 1.2-.3l-.5 1.3-.3 1 .2.2v.8l1.4.1 1.6.1s-.8 1-1.7 1.5a2.3 2.3 0 0 1-.3 0l-1-1.5-.1.5.7 1.2a5 5 0 0 1-1.5-.1l-.4.4v2.5l-1.8-.6-.3.3v-.1l-.4.4s-.4 1.4-.3 3.1v.1a4.9 4.9 0 0 1-2.4-1.3l-.4.3s-.3 1.4 0 3.2c-1.3-.3-2.5-1.5-2.5-1.5l-.5.5a60 60 0 0 0 .7 4.7 4.9 4.9 0 0 1-.7 0c-1.4 0-2.3-1.3-2.3-1.3l-.4 1s.6 2.7 2 4l.4.2c-1.3 1-2.8 1.2-2.8 1.2v.9a44.7 44.7 0 0 0 2.2 1.5 4.8 4.8 0 0 1-1.6 1l.2.5 1.8-1.3 1.8.5v-.5l-1.5-.3.1-.1c.5-.4 1.4-1.8 1.4-1.8v-1s-.5 0-1.1-.6c1.8-1.2 1.9-1.8 1.9-1.8l.4-.6s-.7-.3-1.1-1.2l2.9-.7.2-.2s-.7-1.2-1-2.6l3 .6.4-.4-.5-2.4c1.8 0 3.2.2 3.2.2l.3-.3s-1-1.9-1-3a4.8 4.8 0 0 0 1 0h3l.3-.5s-1.4-1-1.7-1.5zM43.8 54.8s-.5 1-1.4 2l-.2.2a4.6 4.6 0 0 1-.5-.2c-1.1-.6-1.4-1.3-1.4-1.3l2.5-1.6 1 .9zm.9-3.2l-2 2a4.1 4.1 0 0 1-.4-.5c-.8-1.2-2-2.1-1.8-3.8 0 0 .7 1.2 2.2 1a14 14 0 0 0 1-.1c.4 1 1 1.4 1 1.4zm2-2.5l-2.7.7a5.3 5.3 0 0 1-.1-.5c-.5-1.6-.5-4-.5-4s1 .8 2.6 1.2l.7 2.6zm-.5-3c-.2-1.4.1-2.9.1-2.9s.8.8 2.3 1c.1 1.5.3 2.1.3 2.1l-2.7-.1v-.1zm5.8-2.2s-1 .4-2.8.1a15.3 15.3 0 0 1 0-.5 23 23 0 0 1 0-3l2.3.7a10 10 0 0 0 .5 2.7zm0-3.1h-.2V38s1 .3 1.7.2c.2.4 0 .5.5 1.2.4.7 1.1 1.3 1.1 1.3s-2.3.2-3.2 0l.1.1zm-7.6 18.6l-.1-.5s-1 .7-1.2 1.4a1.6 1.6 0 0 1-.3-.1l-2-.8.2.4 1.8.8h.2l-.5 1.4.2.3.5-1.7 1.2.1-.2.8-.4 1.5.5.3h2l-.3-.4-.7-.1h-1.1l.3-1.2.3-.8-.3-.7-1 .2a3 3 0 0 1 .9-.9zm-11.3-1.3c1.3 0 2.3.9 2.3.9v-.6s-1-1.4-2.1-1.4c-1.2 0-2.5 1.2-2.5 1.2v1.2s1-1.3 2.3-1.3zm13.3 19.4c-1.3.6-2.7.6-2.7.6l.8-1.5c2.5-.8 3-2.4 3-2.4l-.2-.7s-.6 1.6-2.6 2.4c.4-1.2.7-3.2.7-3.2l-.7-.2s-1 1.3-2 1.6a7.7 7.7 0 0 0 .8-2.7l-.3-.5s-.7.6-1.7.8a1.8 1.8 0 0 1-.6 0c.6-.8 1.7-3.2 1.7-3.2l-.2-.5s-.8 2.1-1.7 3.2a10.6 10.6 0 0 1-.3.4c-1-.3-2.2-1-2.2-1l.1.3s.8.6 1.8 1a27.3 27.3 0 0 1-1.3 1.2v1l3 .4c-1 1.6-2 2.1-2 2.1l.5.7s1.3 0 3.7-.6c-.6 1.2-1.2 1.8-1.2 1.8s2.2.2 3.7-.6 2-1.6 2-1.6l-.4-.4s-.4 1-1.7 1.6zm-6.9-4l1.2-1.5c1.6.3 2-.1 2-.1s.3.8-.6 2.3c-1.1 0-2.6-.8-2.6-.8v.1zm1.4 3l1.3-1.6.3-.3c1.5 0 2.3-1.3 2.3-1.3s.2 1.2-.5 2.7c-1.9.7-3.4.5-3.4.5zM39 66.7c1.5 0 3.3.7 3.3.7l-.2-.7-2.9-.6a3.6 3.6 0 0 1 1.6-1.6l-.5-.3s-.6.1-1.4 1.5a4.1 4.1 0 0 0-.2.4 5 5 0 0 0-2.7.7l.2.4s1.1-.5 2.3-.5a25.7 25.7 0 0 0-.7 2.4l.3.6 1-3H39zm-3-6.2l-.3-.7s-1.5-.6-2.7 0c-1.1.5-2 1.9-2 1.9l.5.9s.8-1.5 1.9-1.9c1-.3 2.6-.2 2.6-.2zm3 2.4l-1-.6s-1.7.5-2.2 1.1c-.6.6-1.1 2.1-1 2.5.2.5.7.7.7.7s.3-1.5 1.1-2.3c.8-.8 2.4-1.4 2.4-1.4zm-3.9-.5a4.5 4.5 0 0 1 2-1l-.7-.5s-1.5.2-2.2.9c-.8.7-1.8 2.1-1.8 2.1l.9.9s1.2-1.8 1.8-2.4zm5.2-44.7v-.1c.8-1 1.6-1 1.9-1h.6a9.3 9.3 0 0 0-.8 2.5c-.2 1-.7 1.2-1 1.9-.4.7-1.1 1.8-1.2 2.8 0 1 .3 1.6.5 1.7.3.1.8-.4.7-.7 0-.3-.3 0-.4 0-.2 0-.2-.3-.3-.9-.1-.6.7-2.2 1-2.8.3-.5 1-1.1 1-2l.7-2.5c0-.1-.4-.2-1.3-.3-.6 0-1.5.5-1.9 1.2-.4.6-1.7 1.1-1.7 1.1s1.4 0 2.2-1v.1z" fill="#FFF" fill-rule="nonzero"/><path d="M45.2 27.5h-2.5l.7 2 1.8-2zm-3-.1l-.5-.4a1.5 1.5 0 0 0-.3-.3l-.9.5-.5 1.9.3.3 2-2h-.1zm-.3 5l-1.8-2.7-1 2.2.5.2 1.2.2h1.1v.1zm7.4 44.7a9 9 0 0 1-4.8 1.5 6.7 6.7 0 0 1-3.4-1 4 4 0 0 1-1.5-1.7c-.6-1.1-.8-2.5-1-4-.3-1.3-.5-2.6-1.1-3.6-.8-1.3-2.4-2.1-3.8-3.3a7.3 7.3 0 0 1-2.8-5.2 8.1 8.1 0 0 1 0-.8c0-1.7.5-3.2 1-4.5.5-1.3 1.2-2.5 1.2-3.5v-.5c-.3-.7-1-1.4-1.5-1.9s-1.2-.8-1.2-.8l-1-.2-.1.3 1 .2V48v.1l1.3 1c.5.4 1 1 1.1 1.5a1.9 1.9 0 0 1 0 .4c0 1-.5 2-1 3.3a11.7 11.7 0 0 0-1.2 4.7v.8a7.7 7.7 0 0 0 3 5.5c1.5 1.1 3 2 3.7 3.2.8 1.2 1 3 1.3 5 .2.8.4 1.7.8 2.5s.9 1.5 1.6 2a7 7 0 0 0 3.7 1c2.7 0 4.9-1.6 4.9-1.6l-.2-.3z" fill="#78732E" fill-rule="nonzero"/><path d="M47.2 72.2a2.6 2.6 0 0 1-1.3.4c-.5 0-1.1-.2-1.7-.8a4 4 0 0 1-1.2-2.3c-.2-.9-.3-2-1-3.3-.5-1.5-2-2.6-3.5-3.7-1.3-1.1-2.6-2.2-2.9-3.4a3.3 3.3 0 0 1 0-.7c0-1 .4-2 .8-3.1a10.8 10.8 0 0 0 .9-4.8c-.2-2-1.7-3.5-3.2-4.5a14.1 14.1 0 0 0-2.8-1.4l-.1.3h.2c.5.3 1.8.9 3 1.8 1.3 1 2.4 2.2 2.6 3.8v.8c0 1.5-.4 2.7-.9 3.9-.5 1.2-.9 2.2-.9 3.2l.1.8c.3 1.3 1.6 2.4 3 3.6 1.5 1 3 2.2 3.5 3.5.6 1.3.7 2.4.9 3.2.2 1 .4 1.7 1.2 2.5.7.7 1.4.9 2 .9a2.8 2.8 0 0 0 1.4-.4l-.1-.3z" fill="#78732E"/><path d="M56.4 64.6s1.7.4 1.6 1.8a13.3 13.3 0 0 1-.8 3.4l-2.4-2.2 1.3-1.2.5-.7-.2-1.1z" fill="#A8AC71"/><path d="M26.4 47.5s-1.7.6-2.1-.1c-.4-.8-.2-1.4-.2-1.5 0-.2-1-.3-1-1.3.1-1 1.4-.9 1.6-.9.3 0 .4-1.5 1.3-1.4.8 0 1.2 1 1.2 1l-.8 4.2z" stroke="#977C2E" stroke-width=".3" fill="#F8C83C"/><path d="M28.3 48s-1.5.8-2 0c-.4-.7 0-1.6-.1-1.8-.2-.1-1-.4-.9-1.3.2-.9 1.1-.6 1.4-.8.3-.1.6-1.4 1.5-1.2.9.3 1 1 1 1l-1 4.1h.1z" stroke="#977C2E" stroke-width=".3" fill="#F8C83C"/><path d="M30.8 48.3s-.5 1-1.5.8c-1-.2-.7-1.7-.9-2-.1-.3-.9-.5-.8-1.4.2-1 1.1-.9 1.5-1 .3-.1.7-1.6 1.4-1.4.7.3 1.3 1.1 1.2 1.5 0 0-1.5.5-1.7 1.5-.2 1 .8 2 .8 2z" stroke="#977C2E" stroke-width=".3" fill="#F8C83C"/><path d="M53.7 64.2l-2.2-2.6c-.9-1.3-2.3-2.7-2.3-2.7L47 57.8l-1.4-2.4-.2-2.8.6-1.6.8-1.2s-4.6 1.7-2.2 10.5c1 3.8 3.5 4.3 3.5 4.3l4.3-.3h1.3v-.1z" fill="#AF7029"/><path d="M51.6 34.7c.4 0 .6.2.8.4l.2.6v.4c-1.6 3.4-4.8 5-7.8 7a13.8 13.8 0 0 0-3.8 4 12 12 0 0 0-1.6 6.8c.1 5 2 7.8 4.2 9.3a9.7 9.7 0 0 0 5.2 1.5h.4l1.4-.1a35.8 35.8 0 0 1 3-.2l1.8.1.9.4a.8.8 0 0 1 .2.5c0 .4-.3.8-.6 1.2l-1 .7.2.3a4 4 0 0 0 1-.8c.4-.4.7-.9.7-1.4 0-.2 0-.5-.3-.7-.2-.3-.6-.4-1.1-.5l-1.8-.1c-2 0-4.5.3-4.5.3v.2-.2a9.4 9.4 0 0 1-5.3-1.5c-2.1-1.4-4-4-4-9v-.4c0-2.7.5-4.7 1.5-6.3 1.4-2.4 3.7-3.8 6-5.3a14 14 0 0 0 5.5-5.7v-.5c0-.2 0-.6-.2-.8-.2-.3-.5-.5-1-.5v.3z" fill="#816C2A"/><path d="M57.8 65.7s-1 2-1.4 2c-.2 0 1 .3 1.3.8l-.3.5s-1.2-.9-2-1v-.6l1.1-.7a4 4 0 0 0 .9-1.7l.4.7z" fill="#FFF"/><path d="M62 67l-2.7.8-1.3-1s0-1-.5-1.5l-1.6-1c-.6-.2-2.5-.2-2.5-.2l-5-5.3 2 .2 2.8-.4 2.7-.2 1.4.2 1.6.4.8.7.8.8.8 1.3.6 1.6.2 1.7V67H62z" fill="#FCCA3D"/><path d="M62.2 66.8s-1 .3-2.2.3c-1.3 0-2-.2-2-.2l-.2.9c-.2.9-.5 1.3-.5 1.3v3.2l2.6.5 1.4-.5.7-3.5.2-2z" fill="#AF7029"/><path d="M61.5 65.5v1.2l.6.2v-1.2l-.6-.2zm-2.5-30l-.3-2.1-.8-1.5-1.1-1.5-1.2-1.3-.6-.5-.3-.5-2.9.2-1.4 1.7s3.8 2.8 5.3 5.8a7 7 0 0 1 2.8 1.7l.1-.2.4-1.8z" fill="#FCCA3D" fill-rule="nonzero"/><path d="M56.3 38c0 2.2-.5 3.2-.8 3.7l1.8-2 1.2-2.2a7 7 0 0 0-2.8-1.7c.4.7.6 1.4.6 2.1v.1z" fill="#AF7029"/><path d="M60.3 70.9l-1.4-1.6c-.6-.6-1.3-1-1.3-1l-.2.4h.1l1.2.8a17.6 17.6 0 0 1 1.3 1.6l.3-.2z" fill="#816C2A"/><path d="M62 68.5s-.3 1-1.3 1.8c-1 1-2.2 1.5-2.2 1.5l2.8 1 1.9-1.7-1.2-2.6z" fill="#6F5B24"/><path fill="#404118" d="M62.4 70.8l-.2.3-.5.5-.4.5.6-3 .6 1v.4z"/><path d="M45.8 32.3s-3.8.3-6.5-.1-2-7.3-2.1-7.5c0-.2-1.6-1.8-1.4-3.3.3-1.5 5.2-5.5 5.8-5.8.5-.1 1.5.3 1.5.3s1.2-1.2 1.6-1.2c.4 0 .9.7.8 1-.2.3-1.9 1.3-2 2-.2.8 0 1.5-.5 2.3-.5.7-1.4 1.7-1.5 2.4-.1.6-.4 1.1 0 1.4.5.2 2.1 0 3.5-.6 1.4-.7 2-1.5 2.1-1.4.2 0-.8 1.7-2.3 2.4-1.5.6-2.5 1.3-3.3 1.2 0 0-.8 2 1.8 2.2 2.6 0 4-.6 4-.6l-1.5 5.3z" stroke="#78732E" stroke-width=".2"/><path d="M78.7 3.6s-7-1.3-7 4.5c.1 1.9.5 2.5 2 3 1.5.3 4.4.5 7 2.7 2.5 2.3 2.7 4 2.7 5.3 0 1.4-.7 2.6-.7 2.6l1.6 7.7 1.6 5.7 4.8-2.7 2.8-8.5-3.6-15.2-11.2-5.1z" stroke="#4D2A15" stroke-width=".4" fill="#AB6D29"/><path d="M85.6 33s2.5-1 3-3c.3-.5-2.4-2.9-2.4-2.9-.1 0 1.3.7 2 1.3.6.6 1.1.9 1.3.8.2-.1 1.3-2.7.9-3.3-.4-.6-1.1-2-2.1-2.6-1-.7-2.4-.6-2.4-.6s1.9-.6 2.8 0c1 .5 1 1 1.1.9.1-.3-.2-2.9-.6-3.7-.4-1-.8-1.3-2-1.6-1.1-.2-2.3-.1-2.3-.1s1.6-.9 2.8-.6c1.3.3 1.3 1 1.4.8 0-.1-.6-2.4-1-3a6.7 6.7 0 0 0-2.1-1.8l-1.8-.2h-.6s1-.6 2.1-.5c1.2.1 1.3.5 1.4.4.2 0-.1-.2-.8-.7-.7-.5-4.2-2-4.2-2h-3.3s0-.8 1-1c.9-.1 1.1.1 1-.1 0-.3-2.6-.8-2.6-.8H76L73 9s.2-.5.7-.9c.3-.3.9-.5 1.3-.6 1-.3-.6-1.1-.6-1.1l.9-1.3 3.9.3 8.2 4.8 3.9 3.3 2.4 6.2-.7 10.8-5.5 4.5-2.4.3.5-2.3z" fill="#4D2A15"/><path d="M78.4 6.3s-.2-.7-.2-1.7.2-.9.2-.9-2.7-.3-4.6 1.2C71.9 6.4 73 9 73 9s.8-.8 1.9-1.2c1-.4 3-.3 3-.3.2-.2-.4-1-1.1-1.1-.8-.2-2.1-.2-2.1-.2s.8-.5 2.2-.4c1.4.1 1.6.5 1.6.5h-.1z" fill="#D2A567"/><path d="M86.7 33.9l-1.8.6 1 7.5 7.2 12.1 3.7-.6 1.3-2.3 1 .5c.4.4 1.8 2.8 3 3.3 1.1.4 1.7.2 2.7 1 1 1 4.9 6.6 5 6.8.3.2-.1-2.4-.1-2.4l-1.2-3.4-1.4-2.4-.3-.6h2l1.2.8 2 1.5.9 1.2.5 1.2.2 1 .5 1.6 1 2.3 1.3 2.1.4-.9-.6-2.5-2-6-1-2 1.9 1.2c.4.1 1.8 2.2 1.8 2.2l.9 2.2.6 2 .4 1.7.7 1.9 1-.7-.1-1.3-1-4.2-.4-4.5s.6 0 1.2.7a9 9 0 0 1 1.2 2.3l.5 4.1.7 3.8 1.2 3.8 1.2 2.4.9 1.3v-2l-1.6-16 .2-.6s.2-.1.8.7c.5.7 1 1.9 1 1.9l.5 2.5.2 1.7.3 3.3.5 3.5 1.6 3.8.9 2 .5-2.4-.8-17.1.4-.5s.9.7 1.2 1.3l.8 1 .6 3.8.4 10.7.4 2.8 3.2-28.2 2-.4.2-.6-1.5-1-3.2-5-2.1-4.9-3.8-7-6.6-8-5.2-4.3a20 20 0 0 0-1.9-1.3l.4-1 1-1.7-.1-.1h-.9l-2.2.4-2.2-.7-4.4-3-4.6-2.3-2.8-1-6.6-1.6-6.6-1h-3l-2.6.5s-1.4.6-1.8 1.5c-.5.8-.5 1.4-.4 2.6.2 1.3 1 1.9 2.8 2.7 1.8.7 6.2 3.6 6.2 3.6l2 2.1.8 1 .2.8 1.4 11.1-2.8 6-2 1v.1z" fill="#8F4620"/><path d="M93.8 51.2s1.2 2 2.9.5c1.7-1.6-.8-6-.7-6.3 0-.3.7-.3.7-.3l1.3 2.2s.7 1.3.4 3.2c-.2 2-2.1 3.7-2.1 3.7l-2.2-.5-.3-2.5z" fill="#AB6D29"/><path d="M135.3 77.2l-1.6-4.5-.4-3.5c0-.6-.3-7.9-.5-9.3 0-1.4 0-3-.2-3.1l-1.6-2.2-.7-.7.5-.3s.6.6.7.3c.2-.4 0-2-.6-4.5-.7-2.5-3.9-8.3-3.9-8.3l.4.2.9 1 1.8 1.5 4.1 1.5 2.2.3 1.4 2.9s1 4.9 1 7.4c0 2.4-.2 4.5-1.2 7-1 2.4-1.2 10.3-1.3 11.5-.1 1.3-.6 2.5-.6 2.5l-.5.3h.1z" fill="#4D2A15"/><path d="M135.3 64.2s.8-1 1.2-2.4c.4-1.4.5-12.4-.8-13.7a10 10 0 0 0-4-2.3c-.2 0 1 3.5 1 3.5l.8 1.4.6 1.8c.1 1 .9 3.1 1 6l.2 5.7z" fill="#8F4620"/><path d="M129.3 71s.5-5.1.3-9c-.3-3.7-.6-4.2-1-4.9a32.3 32.3 0 0 1-2.5-6.3c-.9-3.2-1.5-5.6-2-6.2-.6-.6-1.7-2-2-1.6-.3.3-.3 1.1-.3 1.1l-1.5-.4-.4-1 .5-1.6v-.7l-.3-1.1 2 1.6 4.2 2.8 2 8.6 2 5.3.2 9-.2 8-1-3.5V71zm2.4-24.7s1 1 1.7 1.4c.7.4 1.8 1.1 1.6 1.2a8 8 0 0 1-2-.8l-1.2-.8v-1h-.1z" fill="#4D2A15" fill-rule="nonzero"/><path d="M123.7 69s.8-1.8.7-4.1a49 49 0 0 0-1.6-8.6c-.4-.7-2-1.7-3.5-4.8-1.5-3.1-1.3-3.8-2.3-5-1-1-2-2.4-2-2.4l.3-3.3 3.6 1.8 1.6.8 1.8 8.7 1.6 2.5.7 3.5.9 8 .4 6.6-.2.5-2-4.2zm-4.2-3.7s.1-2.5-.5-4.8c-.7-2.3-1.1-4-1.9-4.8-.7-.7-2.5-2.6-4.1-5-1.6-2.5-3.9-5-3.9-5v-3.3l2 1.5a57.1 57.1 0 0 1 2.4 1.2l1 3.7 1.2 2.7 1.8 2.4 1.2 1.1.7 4 .4 2.3 1 3.2-.4 1.7-.9-.9zm-3 0l-1-.9s.6-.6.3-2c-.3-1.2-.6-2.4-1.2-3.7-.6-1.2-.7-2-1-2.3a121 121 0 0 0-4.5-4c-1-1-2.7-2.6-3.7-3.3-1-.6-1.8-.8-1.8-.8l-.5-4s1.3 1.8 2.1 2a54.7 54.7 0 0 0 2.1.8l2.8 5 1 1.3 2.6 2 1 2.2.9 2.5 1 3.4.1 2-.2-.1v-.1zm-5.5-1s-1.7-2-2-3.2c-.2-1.2.2-1.2-.3-2.6-.5-1.4-2.3-3.5-3.7-4.6-1.4-1.2-3.4-2.8-3.3-3.8.1-.9.4-1 .4-1l.8.8 4.5 4.7 1.4 2.5 1 3.1.7 1.5.7 1.8-.2.7v.1zM127 41s3.1 3.8 4 .3c.3-1.6-1.2-4.6-1.2-4.6s-2.8-5-3.8-6.2l-5.7-7.3-3.5-1.6 1.2 2s2.6 2.6 5.9 8.4c3.3 5.7 2.7 8.9 2.7 8.9h.5l-.1.1zm-17.8-23s6.1 5.2 10 10.8c4 5.7 5.5 9.4 4.7 10.2-1 .7-3.4-.4-4.4-2-1-1.6-1.8-4.4-5.5-8.6-3.7-4.2-5.5-4.8-5.5-4.8l-2.7-4.3 3.4-1.3zM106 30.5s3.6 3 6 5.4a37.4 37.4 0 0 1 3.4 4.2l1.4 1.4s-.9-1.5-.4-2c.5-.6 1.1-.3 1.1-.3l-11.5-12v3.3zm-.7.3s1.2 2.3 3 4.1a464.595 464.595 0 0 0 4.1 4l.8 2.9s-5.2-4-5.2-3 1.2 3 1.2 3l-1.6-1-2.2-3.1-1.3-2.8-1.5-3.8 2.7-.3z" fill="#4D2A15" fill-rule="nonzero"/><path d="M89.5 43.2s2.7 2.4 4.2 0c1.5-2.3.3-5 .3-5s3.9 5.6 5 .3c.2-1-2.4-4.6-2.4-4.6l1-.9 1.9 3.3s1.8-.8 1.8-3-1.9-5.3-1.9-5.3l1.8 2s3.6 0 3.7-2c0-2.2-3-4.5-3-4.5s2.4.1 2.4-1.3c0-1.4-3.4-2.4-3.4-3.3 0-.9 1-2.4 2.5-1.5 1.5.8 3.5 1.4 4.4-.2.8-1.6-.1-2-.1-2l-2.1-.4-3.4-1.8-2.7-1-2.8-.4 1 2 .8 5.8V22l.5 5.8-1.4 4.7-.7.9-.5.6-1.2 2.6-1.6 1.8-2.2 2.7-2 2.1h.1z" fill="#4D2A15"/><path d="M108.8 53.9s-.7-1.7-2.2-2.9a7.8 7.8 0 0 0-3.8-1.2l4 4.2 2-.1zm5.6 1s-1.3-2.6-2.8-4.2c-1.5-1.6-2.5-3.6-3-3.6h-.6l.4 3.3 2.7 2.7s2.6 2 3.3 1.8zm4.6-.2s-.6-3-2.2-6c-1.5-2.8-3.1-4-3.1-4l.4 3 1.2 3 2 3 1.7 1zm3.8-1.7s1-6.2 0-8c-.9-1.6-2.7-2-2.7-2l-.6 1 .6 4.3 1.5 3.4 1.2 1.3zm3.7-10.3s.9.4 2 2.5a40 40 0 0 1 2.6 8.6c0 .3-.5.2-.7.2-.2-.1-3.9-6-3.9-6l-.6-5.4h.6v.1z" fill="#AB6D29" fill-rule="nonzero"/><path d="M100.4 49.8s2-.4 2-1c0-.8-2.4-2.2-2.2-3.3 0-.5 2 .1 2.1-.3.1-.4-2-3.6-1.3-4.4.6-.8 2.4 3.5 2.4 3.5s1 2 .7 3.2c-1.2 3.6-3.7 2.3-3.7 2.3zm4.6-4.4c.1-.3 3.1.4 3.1.2.2-.7-2.7-3-2.7-3s-.6-1.2-.4-1.4c.2-.2 2 .2 2 0 .2-.3-2-3.2-2-3.7s.6 0 .6 0 1.7 1.7 2.6 3.2c1 1.4 1.8 2.6 1.5 4.9-.4 2.5-5 .6-4.7-.2zm13.6-4.6s-.5-2-.2-2.3l1.1-.5s-1.6-1-2.4-1c-.7 0-.8-.2-1 0-.2.4 1.3 2.4 1.3 2.4l1.2 1.4z" fill="#D2A567" fill-rule="nonzero"/><path d="M109.4 42.4s4.7 1.2 4.9.8c.2-.3-3.7-4-3.7-4s-.3-.6-.2-.8c0-.2 1.7-.3 2.2.1.5.4 0 1.2.1 1.5.2.3 1.7 2.5 2 2.1.2-.3-.4-3-.3-3.3.2-.2 1.8 1.6 2.3 1.9.4.3 3 2.3 3.3 1.4.3-1 .4-1.1.3-1.7 0-.6.9 2.6-.3 3-1.2.4-2.6-.4-2.6-.4l-1.1-.8-.6-.7s.7 2.5-.2 2.7c-.8.3-1.7.2-1.7.2l-2-.2-2.4-1.8zm10.7-3.2s5 3 5.4 2.5c.5-.5-1.2-7.5-1-8.2.3-.6 4 7.9 2.2 9-1.4 1-2 .3-2 .3l-2.5-1.3-2-2.3h-.1zm13.8 12.6l1 .5.7.2-1.4.2-.3-1v.1zm-4.8-16.4l.7.3.7.3s-.4.3-.6.2h-.4l-.4-.8zm-1.4-2.5s.5.3 1.1-.2c.7-.4.7-.8.6-1 0-.2-1-.2-1.4-.5-.3-.2-.3-.6-.3-.6h-1.1l-.4.1 1.5 2.2zm4.3 14.4s1.5 1 2 1c.4 0 1.1.5 1 .6 0 .1-1.2.2-1.8-.1-.6-.3-.7-.1-.7-.1l-.5-1.4zm-8.1-22.5h.6c.3 0 .5-.2.6 0 .2.2 0 1.2-.3 1.5l-1 .5a48.4 48.4 0 0 1-1.6-2.2l1.7.2zm-7.1-6.4h1.5c.5 0 1 .3 1.5.6.4.3.9 3.3.6 3.8-.2.6-3.6-2-3.7-2.1 0-.3-1.5-2.5-1.5-2.5l1.6.2zm-3.2-1.4s2.5.2 2.2-1.3a3.2 3.2 0 0 0-1.3-2.3l-2.9 2.1 2 1.5zm-6.5-2.8s.7.4 1.4 0c.7-.2 2.6-2.7 4-3 1.4-.3 1.7-.3 2 0 .2.4 0 1.8-.2 2.2-.3.4-4.4 2-4.4 2l-1.5-.1a9.6 9.6 0 0 1-1.3-.5v-.6zm-.7-4.5c-.7-1.4-1.7-2-2.2-1.9-.4.1 1.4 1.5 1.7 3.5.3 2 .2 3.3.2 3.4l.8.1.2-.7.1-.5v-.5l-.1-1-.2-.9-.2-.6-.3-.9zm-5.8-2A15.4 15.4 0 0 0 95.1 4c-.2 0 4 2.5 5 4 .9 1.7.9 3.9 1.3 4.2.4.3.8-.2.9-.2 0 0 .3-.5.2-.7l-.2-1-.7-1-.4-.8-.6-.8zm-5.5-2.3c-2.4-2-6.6-3-10-3-3.5-.2-5.3.2-4.8 2s2 2.8 5 2.8c2.9 0 3.6-.3 5.2.2a9.7 9.7 0 0 1 3.6 2c.5.5-1.1-1.5-2.6-2.6C90 5.6 89 5.1 89 5.1s-.3-.7 1.7-.4c2 .3 4.7 1.6 5.5 3.3.7 1.7.6 2.6.6 3 0 .3.7-.2.7-.2l.3-.9s0-.6-.3-1.4c-.4-.7-.5-1-1.4-2-.9-1.1-1-1-1-1v-.1zm-9.6 28.5c1.5 0 4.8-2.8 5.2-6.7.5-4-1.9-11.9-2.5-12.7-.5-.9 1-.4 1.7.4a25 25 0 0 1 2.5 10.6c0 4.2-.8 5.3-3 7.5-2.2 2-4 1.8-4 1.8l.1-.9zm5.1 11.6s.7 1 1.6.6c1.5-.5 3.8-1.7 3.8-3.8 0-1.4-1.8-2.7-1.9-3.2v-1l1.6.4.5 2.2s.6.7 1.3.4c.6-.2 2.5-1.6 2.2-3-.3-1.2-2-2.9-2.2-3.5-.2-.7 0-1.2 0-1.2l1.6.2.4 2s.4.6 1.3.4c.8-.1 2.4-1.7 2-2.5l-1.5-2.6V30l.5.4s.6.2 1.8-.1c1.1-.4 2.3-1.2 2.3-2s-1-1.6-1-2v-.6h.8l1 1.2.1 1.4-.3 1.2-1.4 1.6-1.4.6h-.4l.8 1.4-.2 2-1.3 1.2-1.7 1-.1 1.9-1 2-2 1.2h-.7l-.2 1.2-1.4 2-2.3 1.5-1.7.3-1-1.4.1-.5z" fill="#D2A567" fill-rule="nonzero"/><path d="M103.4 24.4s4 1.1 3.8-1.4c0-1.3-3.8-4.5-4-5-.3-.6-.2-1.3-.2-1.3l1.9 1.8s2.5.6 3.2-.9c.7-1.4.1-2.3 0-2.3l.6-.1 1.1.2-.1 2.2-1.3 5.5s.3 2.2-1.4 2.3c-1.7.2-3.6-1-3.6-1zm3.7 29.5s0-1.1-.8-2c-.9-.7-2.5-1.4-2.8-1.6a63 63 0 0 0 2.8 3.5h.8v.1zm5.6.2s-2-2.4-2.3-3.3c-.5-.8-1.5-2.6-2.3-2.7-.8 0 .8 3 .8 3l3.2 2.9h.6v.1zm5.4 0l-2.1-4.2c-.4-.9-1.3-3.4-2.3-4.1-1-.7.1 1.1.1 1.1l1.1 3.3 1.9 2.9 1.3 1zm3.9-2.4s-.1-2.7-.5-4.6c-.3-1.8-1.7-3.4-1.8-3.3v3.3l2.3 4.6zm8.1 2l-2-4.7c-.5-1.6-1.8-4.1-2-4.2l.4 3 1.7 4.7 2 1.2h-.1zm7-8.5s-1.2-1.2-3.9-2.3c-2.7-1-5.4-1.2-5.4-1.2l.3.4 1.3 1 2.8 1.5 3.7.9 1.3-.3h-.1z" fill="#D2A567" fill-rule="nonzero"/><path d="M108.2 46.8s0 2.4 1.3 3.8c1.2 1.5 4 4 4.6 4.6.6.5 1 3.4 1.9 5.8.8 2.4 1 4.4 1.4 5.1.4.7 1.1 1.8.5 1.7-.5-.1-1-.8-1.4-1.7-.3-.9-.2-.9-.2-2 0-1.3-1.8-7.5-2.7-8.1-.9-.7-4.8-4-6.4-6.3-1.5-2.3-1.2-2.8-1.2-2.8h2.2v-.1z" fill="#202020"/><path d="M114.6 62.3c-.8-1.7-1-3.3-1.2-4.3a16 16 0 0 0-4.4-4.2c-.6-.3-1.9 0-2.4-.3l-3.7-4s-.5.5-.3.6c.1.1 3.4 3.7 4.6 4.8 1.2 1.2 1.9 3.7 2.7 5.7.9 2 .5 1.6.6 2.5.1 1 .7 1.5 1.3 1.5.6 0 .8-.2.6-.4a10.3 10.3 0 0 1-2.2-3.5c-.7-1.7-1.5-4.9-2.5-6l-.3-.3 1.3-.2c.8 0 4.1 3 4.4 4 .3.8 0 1.2 1.4 4.2s2 3.7 2 3.7h.2s-1.2-2-2-3.8h-.1zm-5.2-19.9s2.5 1.5 3.2 1.7a9.8 9.8 0 0 0 1.2.3s.4 4.4 2.1 6.8c1.8 2.5 3.2 3.4 3.2 3.4s0 4.8 1.4 8c1.3 3.3 1.5 7.3 1.2 8-.3.6-1.4-2-2-4.3l-2-6.2a13 13 0 0 0-2.5-4.4c-.8-.7-.2-.6.3-.2.4.4 1.7 2 2.5 4.5s1.1 5 1.5 5c.5 0 .8-.3.8-.9 0-.4-.6-1.8-1-4.1a17 17 0 0 0-1.2-4.7c-.4-.6-1-.7-2.4-3.4a20.3 20.3 0 0 1-2.5-5.3c-.2-1.2 0-1-.2-1.3-.2-.1-.4 0-1.6-.6-1.1-.6-2-2.3-2-2.3z" fill="#202020" fill-rule="nonzero"/><path d="M115.7 41.5s1.4 1.2 2.3 1.5c.8.4 2 .4 2 .4s-.3 4.2 1.3 6.9 3.3 4.2 3.3 4.2.3 1 .8 6.8l.7 8.3c.1 2.3.2 10.6-.1 10.3-1.3-1-.2-5.4-.9-7.3-.6-1.8-1.6-2.1-2.8-7.4-1.2-5.2-.4-6.4-1.3-8.3-.9-2-2-2.2-2-2.2s1.6.4 2.3 2c.6 1.6.7 6 1.3 8.2 1.2 4.9 2.9 7.4 2.9 7.4s-.4-6.2-.8-9.7c-.5-3.5-.5-6.4-1.1-7.7-.7-1.4-2.1-2.4-3-4.2-.8-1.8-1.1-5.3-1.5-6.2-.4-.9-.6-.6-1.2-.8-2-.8-2.2-2.2-2.2-2.2z" fill="#202020"/><path d="M120.1 39.2s1.3 1.5 3.1 2.6c1.8 1 2.8.7 3 1 .3.2-.3 3.8 1.6 7.2 1.9 3.4 2.6 3.5 2.6 4l.6 13.9c.3 3.4.5 14.8-.9 14.8s-.1-8.5-.8-10.4c-.7-2-.7-1.4-1.3-3-.7-1.6-.7-7.8-1.8-11.5-.8-2.8-1.6-3.2-1.6-3.2s1.4.7 2 3c.6 2.2.8 10 1.5 11.1.8 1.3 1.8 2.8 2 4a157 157 0 0 0-.4-15.6c-.3-1-3.5-6.6-3.7-9.7-.3-3.2-.4-3.5-.7-3.7-.2-.3-1.1 0-2.6-1.5-1.5-1.4-2.6-3-2.6-3z" fill="#202020"/><path d="M127.3 41c0-.3 1 1.7 3.7 2.8 2.9 1.2 5.6 1 6 1.3.3.3 2 4.5 2.1 10.2.1 5.6-1 5.1-1.8 10-.9 4.9-1 14.8-1.5 16.3-.2.5-.5.8-.8 1.7-.3 1 .2 2.8-.7 2.8-.8 0-1-1.4-1-2.1 0-.8 1-3.5 1-6.2s-.6-3-1-6.2c-.4-3.3-.4-13.5-.8-14.5-.3-1-2.1-3.1-2.1-3.1s1.9 1.2 2.4 2.6c.4 1.3.5 12.7 1 15 .5 2.4.3-.5.5-1.8s.9-7 .8-10c-.1-3-1.4-9.4-2.4-10.5 0 0 .5.6 1.1 2 0 .1.4.5.8.7l1 .5s-.6 0-1-.3c-.4-.1-.6-.4-.6-.4a23.9 23.9 0 0 1 1.3 8c.1 5.2-.7 16.4.1 16.5.8.2.7-6 1.5-11.2.8-5 2-5.8 1.6-9.9-.3-4.1-1.4-8.6-2.3-9.2-.9-.5-3.4-.3-5.6-1.8-2.2-1.4-3.4-2.9-3.3-3.2zm-35.8 5.7s.8.4 1.7 0c1-.5 3.5-2.5 3.5-3.3v-1.6s0 .3.7.4c.8.1 2.8-1.4 3-2.4a8 8 0 0 0-.1-3.1c-.2-.4.6.3 1 0 .4-.4 2.4-1.7 2.4-3 0-1.4-1.1-2.6-1.1-2.6s1 .2 1.6 0c.5-.1 2.5-1.3 2.4-2.4 0-1.2-.7-3-2.3-3.2 0 0 1.2.3 2.3-.1 1-.4 1.5-1 1.5-2.3 0-1.2-2.3-4-2.6-4.2-.4-.2 2.4.8 3-.3.8-1.1.9-1.9.7-2.5-.2-.7-.8-.8-.8-.8s1.2.3 2.8-.5c1.6-.8 3-2 3.8-1.9.8 0-2.3 1.7-2.5 2.6 0 .4.9 1 2.3 2 0 .1 0 .2.2.3.7.3 3 .4 3.3.5.2.2-2.4.1-2.2.3a34.1 34.1 0 0 1 5.7 5.4c.1 0 .5.4 1 .5l1.3.3h-1.6a65.3 65.3 0 0 1 3.3 4.7c0 .1.4.6.9.8.5.2 1 .1 1.1.2.1.2-1.4 0-1.3.2a82 82 0 0 1 3.3 6s-3-5.3-6.7-9.5c-3.8-4.2-4.7-4.7-4.8-4.4-.2.4 2.7 4.1 4.3 6.7 1.6 2.6 3 5.9 3 5.9s-3.7-7.8-9-12.6c-5.2-4.8-5.8-5.5-6.3-5.4-.6.2-1 3.8-.7 4.5.3.7 4.2 3.6 7.4 7.5 3.3 3.8 7.5 10.4 7.5 10.4s-3-4.7-8-10-6.9-6.6-7.3-6.5c-.4 0-.4 1-1 1.8-.6.7-1.8.6-1.8 1s4.2 4.3 5 4.7c.9.5 1.4.3 2 .6l1.4 1-1.6-.5c-.6-.2-1.3-.3-1.3 0s3.5 4.3 4 4.6c.6.3 1 .1 1.7.4.8.3 2 1.1 2 1.1s-1.3-.7-2.1-.8c-.9-.2-1.2 0-1.2.2s2.6 3.6 2.5 3.6c-.1 0-4-4.6-7.3-7.5-3.3-3-4.8-3.6-5-3.5-.2.1 0 1-.9 1.3-.8.3-1.5.4-1.5.7 0 .3 3 3 5 5.4a149.4 149.4 0 0 1 4 4.5l-4.5-4.3c-2.3-2.2-3.5-3-3.8-3-.2.2-.2 1.3 0 1.6.2.3 4.6 5.4 4.4 5.5-.1.2-5-6-5.4-6-.3 0-.5.7-.8 1-.4.4-1.8.4-1.8 1 0 .4 7 7.3 6.9 7.5 0 0-5.8-5-6-4.7-.2.3 2.4 5 2.2 5.2-.1 0-3.4-5-3.7-5-.3 0-.2.6-1 1.3-1 .8-2 .4-2 .8 0 .3 4.8 5.7 4.7 5.8-.2.1-5-5.1-5-4.8-.1 0-.4.3-.2.7.3 1.3 1.4 3.6 1.3 3.8 0 0-1.6-3.2-2-3-.4 0-.4.7-1.2 1.1-.7.5-1.3.4-1.3.7 0 .3.8 1 1.2 1.7.4.7.7 2.4.7 2.4s-.5-1.4-1.1-2.3c-.7-.9-1.3-1.5-1.9-1.5-.6 0-.8.5-.8.5l-.5-1.2z" fill="#202020" fill-rule="nonzero"/><path d="M137 45s1.5 0 1.7-.4c.2-.3-.6 0-2-1.6s-5-12.1-9-17.4c-6.6-8.7-12.7-12.7-12.7-12.7s7.3 4.2 13 12.4c5.6 8.4 7 14.9 8.6 16.6 1.6 1.7 3.2 2 3 2.5 0 .5-.3.8-.9 1l-2 .1.2-.4.1-.1zm-48-2.2l.3.1c.3 0 2.3-1.9 2.2-2.5 0 0-1-.3-1.6-1-.7-.8-.9-1.9-.9-1.9s.7 1.3 1.2 1.6c.6.4 1.4.6 1.8.3.3-.2 3.2-2.4 3-3.2 0 0-.9 0-1.8-.6-.8-.6-1-2-1-2s.6 1.1 1.5 1.5c.8.4 1.7.3 2 0 .2-.3 2-3 1.8-3.7 0 0-1 0-1.8-.5-.9-.6-1.3-2.2-1.3-2.2s.6 1.3 1.7 1.5c1.1.3 2-.4 2.2-1.2.2-.8.8-3.7-.2-4.5 0 0-1.4.5-2.4 0-1-.6-1.4-1.9-1.4-1.9s.9 1.2 2 1.4c1.2.1 1.7-.5 1.9-1a5.9 5.9 0 0 0-.1-3c-.4-1-1.1-.8-1.3-2.2 0 0-.3.5-1.8.5s-2.3-1.6-2.3-1.6 1.2 1 2.4 1a1.9 1.9 0 0 0 1.6-1.9c0-.7-.6-1.4-1-2.1-.2-.8-.3-1.7-.5-1.6-.2 0-.5.8-2 .6-1.5-.3-1.8-1.3-1.8-1.3s1 .7 2 .7c.8 0 1.3-.5 1.3-1 0-.6-.3-1.7-2.2-3.3A58.1 58.1 0 0 0 89 5.1a21.8 21.8 0 0 0 6.6 5.3s1.7.6 2 0c.1-.6.1-1.4-.5-2.4-.5-1-2-2.6-2-2.6s1.6 1.3 2.3 2.7c.8 1.3.4 2.2.5 2.6 0 .3 3.3 1.6 4 1.1.8-.4.5-1.4-.2-2.3l-1-1.8s.7.8 1.2 1.8c.6 1 1 1.7.8 2.1-.2.5-.6.7-.6.9l2.3 1.3c1 .6 2.3 1 2.5.8.2-.4.3-1.1.2-2.2-.1-1-.7-2.7-.7-2.7s.7 1.6.8 2.7c.1 1.1-.1 2 .1 2.4.3.4 1.1.5 1.1.5s-.6.4-2 0c-1.5-.4-7.7-3.6-8-3.3-.3.4 2.9 2.3 4.3 3.7 1.5 1.3 2.2 2.8 2.2 2.8s-1.1-1-2.2-1.6c-1.1-.6-4.4-2.3-4.7-2-.2.2 1.3.5 1.4.7.1.3-1 1.3-1 1.8 0 .4 4.7 3.7 4.5 4-.1.4-1.2 1.3-1.4 1.2-.1 0-2.5-1.8-2.5-1.6 0 .2 1.4 1.5 1.4 1.7 0 .3-1 .8-.8 1.4.2.6 2.6 2.6 2.6 3.3 0 .7-1.4 1.3-1.1 1.7l1.5 2s-1.4-.9-1.8-1.4c-.4-.4-1.3-1.5-1.5-1.3-.1.1-1 2-1 2.5.2.4 1.3 1 1.5 2.3.2 1.1-.2 2.4-.3 2.4 0 0-1.6-2-2-2.1-.2 0-.6.1-.9.6-.3.5-1.2 2.1-1 2.4 0 .3 1.6.7 1.6 1.9a3.4 3.4 0 0 1-1 2.3l-2.1-2.4c-.2 0-2.2 2.3-2.3 2.6 0 .2 1.4 1.3 1.2 1.7-.3.4-1.3-.2-1.8.1l-1.7.7c-.2 0-.5-.6-.5-.6z" fill="#202020" fill-rule="nonzero"/><path d="M115 13l.5-1c.3-.3 1.5-1.7 1-2-.4-.2-2 .3-3 .2-1 0-1.7.2-4.6-2.3 0 0-9.3-6.4-23.6-7.3-4.6-.2-6.6 1.4-6.8 2.2 0 .2 1.2-1.8 5.7-1.7 2 0 16.5 1.1 24 7 .4.3 2.9 2.7 5.2 2.4 2.3-.2 2.8-.5 2.7-.2 0 .4-.7 1.2-.9 1.6a9.2 9.2 0 0 0-.3 1.1h.1zm-25 2v-.2c-.2-.4-1.1-1.7-2.7-3.1a37.4 37.4 0 0 0-8-4.3c-.3-.1 6 2.9 7.7 4.5l3 3v.1z" fill="#202020" fill-rule="nonzero"/><path d="M90 25.2s-.4-.6-1.7-1.4a9.9 9.9 0 0 0-2.5-1.1l3 .7a4.8 4.8 0 0 1 1.1 1.8h.1zm-.8-5.3s-.4-.6-2.1-1.2c-1.7-.6-2.2-.5-2.2-.5s1.6-.7 2.8 0a2.7 2.7 0 0 1 1.5 1.6v.1zm-1-4.5s-.4-.8-2-1.3c-1.5-.6-2.6-.7-2.6-.7s1.6-.4 3.2.2c1.5.6 1.4 1.8 1.4 1.8zm-2-2.8s-.4-.6-3.3-1.3c-3-.7-4-.7-4-.7s4.1-.4 5.2.1c1.1.5 2.2 1.9 2.2 1.9h-.1zm-5.3-3s-1.8-.6-3.5-.7C75.7 8.8 73 9 73 9s5-.8 6.3-.5c1.4.3 1.6 1 1.6 1v.1z" fill="#D2A567" fill-rule="nonzero"/><path d="M64.5 71.4s.9 1.6 2.6 1.6c1.8.1 3.1 2.6 3.1 2.6l-1.9 1.9-4.6.2-1.5-2.4 2.3-3.9zm0-1.6c.2-.3-1.3-3.3-2.4-3.8-1-.5.4 1 .2 1.6-.3.6-.4 1.4-.3 1.5 0 0 .9 1.4.4 2-.4.5 2.2-1.3 2.2-1.3h-.1z" stroke="#977C2E" stroke-width=".3" fill="#F8C83C" fill-rule="nonzero"/><path d="M63.8 74.4s.8.4 1.4.2c.7-.2 1.3-.9 1.3-.9l-2.7.7zm-.9-1.2s2.6-1.9 2.4-2.9c-.2-1-.7-1-1-.9a7 7 0 0 0-2.1 1.7c-.1.3.7 2.1.7 2.1z" stroke="#977C2E" stroke-width=".3" fill="#F8C83C" fill-rule="nonzero"/><path d="M61 74.5s.6 1.3 1.4 1.3c.8 0 2-.7 2-1.2.1-.5-.8-1.5-1.3-1.7-.6-.3-1.9.4-1.9.4l-.1 1.2H61z" stroke="#977C2E" stroke-width=".3" fill="#F8C83C"/><path d="M63.4 72.8c0 .4-1.7 1.2-2.3 1.2-.5 0-1.6-1.3-1.2-1.5l1.5-.4c.4-.2.5-.8.7-.8.3 0 1 .1 1.1.5.2.5.4.6.2 1z" stroke="#977C2E" stroke-width=".3" fill="#F8C83C"/><path d="M61.8 73.9s-2.6 3.4-3.7 3.3c-1-.2.5-5 .5-5l1.2.6c.9.2 1.7.6 2 1v.1z" stroke="#977C2E" stroke-width=".3" fill="#F8C83C"/><path d="M57.2 71.4s3.3.6 3.4 1.1c.2.6-1.5 1.3-2.5 1.3-.9 0-.9-2.4-.9-2.4z" stroke="#977C2E" stroke-width=".3" fill="#F8C83C"/><path d="M49 76.4s.5 1.6 1.9 1.7c1.4 0 2.8-1.5 2.8-1.5l-3.4-1.3-1.3 1.1z" fill="#202220"/><path d="M49 76.4l.4.9c.3.4.7.8 1.5.9h.1c1.4 0 2.7-1.6 2.7-1.6l-3.4-1.4-1.4 1.2h.1l1.3-1 3.3 1.3v-.1l-.2.2C53 77.2 52 78 51 78h-.1a1.8 1.8 0 0 1-1.4-.8 2.8 2.8 0 0 1-.3-.6v-.1l-.1-.1H49z" fill="#4B4139"/><path d="M50 76s.5 1.2 2.4 1.2 3.3-1.5 3.3-1.5l-3-2.3L50 76z" fill="#202220"/><path d="M50 76s.5 1.2 2.4 1.3c2 0 3.4-1.5 3.4-1.5l-3-2.5-3 2.7h.2l2.8-2.5 2.9 2.3v-.1a5 5 0 0 1-3.2 1.4 3 3 0 0 1-2-.6 2.2 2.2 0 0 1-.3-.4 1.1 1.1 0 0 1-.1-.1H50z" fill="#4B4139"/><path d="M50.2 76.3s.9.6 1.8.7c1 0 2.2-.3 2.2-.3l-1.1.4-.8.1-.8-.1-.6-.3-.6-.4v-.2l-.1.1z" fill="#4B4139"/><path d="M52.4 74.6s.8 2 2.6 1.8c1.7-.2 1.7-1.2 1.7-1.2l-2-2.8-2.3 2.2z" fill="#202220"/><path d="M52.4 74.6l.5 1c.4.4 1 1 1.8 1l.3-.1c.8-.1 1.3-.4 1.5-.7.3-.3.3-.6.3-.6l-2-3-2.5 2.4h.1l2.4-2.1 1.9 2.7c0 .2-.3 1-1.8 1.1h-.2a2.2 2.2 0 0 1-1.7-.8 4 4 0 0 1-.4-.6v-.2a1.5 1.5 0 0 1-.1-.1h-.1z" fill="#4B4139"/><path d="M52.6 75s1 1.3 2 1.3a3 3 0 0 0 1.5-.4v.1l-.5.3-.8.1H54l-.7-.5-.6-.9h-.1zm-3.2 2s.8.9 1.5.9a4.7 4.7 0 0 0 1.9-.6h.1l-.2.1-.8.4-.9.3-.7-.1-.6-.4-.3-.4V77z" fill="#4B4139" fill-rule="nonzero"/><path d="M57 71.3c.8-.2 2.4 2 2.4 3.2 0 1.2-.5 2.7-1.3 2.7s-2.6-1.7-3-2.5c-.4-.9-.8-1.4-.5-1.9.3-.4 2.4-1.5 2.4-1.5zm-8 .2s-1.4-1-1.9-.5-.3 2.3 0 2.6c.4.4 2-.8 2-.8l-.2-1.3h.1z" stroke="#977C2E" stroke-width=".3" fill="#F8C83C" fill-rule="nonzero"/><path d="M48.8 72.7s-1.8.2-1.8 1 .9 1.6 1 1.8c.2.1 1.8-.7 1.8-.7l-1-2.1z" stroke="#977C2E" stroke-width=".3" fill="#F8C83C"/><path d="M49.5 74.1s-1.8.6-1.8 1.2.8 1.7 1.3 1.7 1-1 1.2-1.3c.3-.2-.7-1.6-.7-1.6zm.8-5.1s-.3-.5-1-.2c-.8.3-1.6 1-1.5 2.3.1 1.1.6 2 .6 2l2.7-1-.8-3.1z" stroke="#977C2E" stroke-width=".3" fill="#F8C83C" fill-rule="nonzero"/><path d="M50.5 71s-2.2.8-2.3 1.7c-.1.9.5 1.7 1 2 .7 0 2.6-1.8 2.6-1.8l-1.3-1.8V71z" stroke="#977C2E" stroke-width=".3" fill="#F8C83C"/><path d="M52.5 74.7s-2.2 1.5-2.5 1.5c-.3 0-1.2-1.2-1-2 .2-.8 1.7-1.3 2.3-1.6.6-.2 1.2 2.1 1.2 2.1zm2-8.2s-.7-.6-2-.5c-1.4.1-2.4 2-2.6 2.8-.2.9 0 2.6.5 2.8.5.3 3.3-2 3.3-2l.8-3v-.1z" stroke="#977C2E" stroke-width=".3" fill="#F8C83C" fill-rule="nonzero"/><path d="M51.8 73.3c-1-.1-1.8-1.5-1.7-2.3.2-.8 2-2.2 3-2 1 .1.8 2.5.8 2.5s-1.2 1.9-2.1 1.8z" stroke="#977C2E" stroke-width=".3" fill="#F8C83C"/><path d="M54.7 73s-.4 1.2-1.4 1.7c-1 .4-1.5 0-2-.7-.6-.8.2-1.2.6-1.6.5-.4 1.7-.7 1.7-.7l1.1 1.4V73z" stroke="#977C2E" stroke-width=".3" fill="#F8C83C"/><path d="M53.2 70.2s-1 .8-.4 1.8 1 1.4 1.8 1.5c.8.1 1.3-.2 1.9-.9.6-.7 1.5-1 1.4-2-.1-.9-.4-1.6-1-1.8-.5-.3-2.2 0-3.7 1.4z" stroke="#977C2E" stroke-width=".3" fill="#F8C83C"/><path d="M56.2 66s-1-.5-1.9 0c-.8.5-1.4 1.5-1.5 2.4l.2 2.3s1.2-.4 2-1c.7-.6 1-.8.8-1.1 0-.2-.4-.4-.4-1.2 0-1.4.8-1.5.8-1.5v.1z" fill="#202220"/><path d="M56.2 66s-1.2-.3-1.9.1A3.2 3.2 0 0 0 53 68c-.3.8-.1 1-.1 1v-1.4c.4-.8 1-1.5 1.6-1.7.8-.3 1.7 0 1.7 0v.1z" fill="#4B4139"/><path stroke="#977C2E" stroke-width=".3" fill="#F8C83C" d="M88.8 90l1.6-.8 2-1.2.4 2.2-1.8 1.4h-1.5l-.9-.7.2-1z"/><path d="M86.4 90.2h1c1.1 0 1.2-.3 1.4-.3.2.1.5 1.3.5 1.3l-.4.7-1.5.9-1.3-.8-.1-1.8h.4zm12.1-.8s-.3-.5-.9-1l-2.2-1.9v5l2.3-.1 1.1-1.5-.3-.5z" stroke="#977C2E" stroke-width=".3" fill="#F8C83C" fill-rule="nonzero"/><path d="M86.4 90.2s-.4-.5-1.3-.4c-1 0-2 .9-2.1 1.5-.1.7 0 2.6.5 3 .5.4 1.2.5 2.2.3 1-.3 6.4-3.6 6.4-3.6l-1.4.3c-.7.2-1.4-.1-1.4-.1s-.7.8-1.6 1c-.8 0-1-.5-1.2-.9l-.1-1.1z" stroke="#977C2E" stroke-width=".3" fill="#F8C83C"/><path d="M90 91.9l-1.2.5-1.3.6.4 1.6 2.3.5 1.4-1.1v-1.6l-1.7-.5h.1zm10.4-1.2l-.8-.8c-.4-.4-1-.5-1-.5l-1.3 1.5v1l1.2.7.9.2 1.1-.8-.1-1.3z" stroke="#977C2E" stroke-width=".3" fill="#F8C83C" fill-rule="nonzero"/><path d="M92.6 90s-1 .4-1.5.8l-1.2 1c0 .2 1.1 1.4 1.1 1.4l1.2.1 2.5-1.7-.2-1.6h-1.9zm9.5 2l-.5-.7c-.4-.4-1-.6-1.2-.6-.3 0-1.3 1.5-1.3 1.5v.4l.8 1 1.6.5 1.1-1.2-.5-.9z" stroke="#977C2E" stroke-width=".3" fill="#F8C83C" fill-rule="nonzero"/><path d="M98 93.8l1.2.2s0 .3.3.5c.3.3.3 0 .3 0s.2 1.2 1.4 2c0 0 1.4.6 2 .2.8-.4.7 0 .7 0l2-2.4s0-.5-.5-.5c0 0 .4-1.6-1-2-1.2-.2-2.2.2-2.2.2s-1 1.8-1.6 1.6a2.4 2.4 0 0 1-.8-.5l-.7-.9s-.4.1-.9-.2c-.5-.3-.9-1.1-.9-1.1s-.7-.1-1-.4l-.5-.8-1.9 1.4s0 .5-1.1 1.3-1.7.8-1.7.8-.4 1.7-1.6 1.4c-1.2-.3-2-1.6-2-1.6s-.9-.2-1.4.6c-.6.7-.9 1-.9 1.7 0 .8.5 1.8 1 2.2.3.3 1.5 1.3 3 .6 1.4-.8.9-2 .9-2l.8-.5c.9-.6 1.8-1.5 2.5-1.7" stroke="#977C2E" stroke-width=".3" fill="#F8C83C" stroke-linecap="round" stroke-linejoin="round"/><path d="M95.8 83.8V87s.4 2.9-.2 3.7c-.6 1-2.9.7-3.2 0-.3-.8-.2-3.2-.2-3.2l3.6-3.7z" stroke="#977C2E" stroke-width=".3" fill="#F8C83C"/><path d="M93.3 93.5s-.5.8 1 1c.4 0 .7-.2.9-.4.4-.4.3-.8.3-.8s-.2 1.2 1.2 1.2c1.4.1 1.3-1.3 1.3-1.3" stroke="#977C2E" stroke-width=".3" fill="#F8C83C" stroke-linecap="round" stroke-linejoin="round"/><path d="M81.2 96.1s-.8-1.4.1-1.9c1-.5 1.5 0 2.1 0 .6 0 .4-1.4.3-1.7a3.7 3.7 0 0 0-.7-1.2c-.2-.2-3.5.2-3.4 2.3 0 2.1 1.6 2.5 1.6 2.5zm5 5.2s-1-1.5-.4-2.4c.5-.9 1-.3 1.2-.4.3 0 .4-.6 0-1.6-.5-1-1.1-1.4-1.4-1.5-.4 0-2.3 1.4-2 3.2a3.5 3.5 0 0 0 2.6 2.7zm18.2-1.8s3.5 1.5 3.7-2c.2-2-1.5-3.3-2-3.3-.4 0-.7.3-1.3 1-.7.8-1.1 1.3-.9 1.6.3.3 1.3-.3 1.8.8.7 2-1.3 1.9-1.3 1.9z" fill="#202220" fill-rule="nonzero"/><path d="M86.2 101.3s-2.7-.6-2.7-3.3c0-1.8 2-2.6 2-2.6s-1.8 1-1.8 2.6c-.1 2.7 2.5 3.3 2.5 3.3zm-5-5.2s-1.6-.3-1.7-2.6c-.2-2.3 3.5-2.2 3.5-2.2s-3.5.2-3.4 2.4c.2 2.2 1.6 2.4 1.6 2.4zm23.2 3.4s.7.3 1.5.3 1.8-.3 2-1.6c.4-1.3.3-2-.6-3.1-.6-.9-1.2-.8-1.2-.8s.6 0 1 .8c.6.8 1.3 1.6.8 3.1s-2 1.5-2.5 1.5a5.5 5.5 0 0 1-1-.2z" fill="#4B4139" fill-rule="nonzero"/><path fill="#904720" d="M62.6 25.4l-.6-.2.4-1 1.9-.7 1.8-.1 2-.1.8.6 1 2.3-3.6 2.2-.6.2-.2-1-.6-1.4z"/><path fill="#202020" d="M97 78.5l-.3-5.5-14.8 4.6 5.8 5.5z"/><path d="M69.4 68.9l-1.2-1-1.4-.8h-1.1l-.2.3.2.5 1.3 1.6 2.3 1.2.8.7.5.2-1.1-2.7h-.1zm-.3 2.3l.8.2.9 1 .5 1 .7 1.3.2.8-1.6-.3-4.8-1.5.4-1.2.8-.7.7-.3 1-.2.4-.1z" fill="#D2A567" fill-rule="nonzero"/><path fill="#D2A567" d="M72.2 75.2h.8l.6-.5-.3-1.8.3-5.8-3.9-4.6-.8 2.6 1.1 4.7.9 2.8z"/><path d="M69.4 64.7s-.2.4.1 2c.3 1.5.9 4.9 2.2 7.2L70.4 72s-2-4.6-1.7-8.2c.3-3.5.7.8.7.8v.1zm2.9 2.9s-.9 1-1 1.9v2.2s0-1 .8-1.3c.9-.3.7 2.3.8 2.6l.5-4.7-1.1-.7zm.4 9.6l-4.4-1c-2.3-1-3.5-1.8-3.4-2.3 0-.6 4 .1 4.6.2l2.4 1h1l1.9-.8.2 2-2.3 1v-.1zm-7.3-.8s1 .8.5 1a4.4 4.4 0 0 1-2.3.3l4.2 1 .9-.7-3.3-1.6z" fill="#AB6D29" fill-rule="nonzero"/><path d="M64.2 75.2c.2-.2.3.7 1.8.8 1.5.2 2.2-.2 2.2-.2l.7.4.8.2-.7 1.1-2.8-.8-1.5-.8-.5-.7z" fill="#D2A567"/><path fill="#AB6D29" d="M74 73.3l.8 1 .5-2.4v-2.5l-1.6-1z"/><path d="M69.7 69.1L68.4 67l-1.7-3.1 1-1.8 1.3 1.8s-.4 1.3-.1 2.5c.2 1.2.8 2.7.8 2.7z" fill="#4D2A15"/><path d="M60.8 77s.6-.9 1.9-1a7.6 7.6 0 0 1 2.4.2l2.6 1.4.6.9-5-.7-2.5-.8z" fill="#D2A567"/><path d="M74 68l.2 4c0 1 .7 2 .6 2.3-.2.4-.4.6-1 .9-.6.2-2 0-2 0s1.3-.2 1.4-.5c0-.2-.4-1.4-.5-2.4 0-1 .1-2.2-.3-2.2-.3 0-.7.4-.8.6 0 0 .4-3.8.8-4.2.4-.4 1.6 1.6 1.6 1.6V68z" fill="#8F4620"/><path d="M64.7 76s-.5-.4-.5-.8c0-.3.6 1.6 3.4 1.5 2.8 0 2.6-.2 2.6-.2h1.3s-.3 1.3-.5 1.4a61 61 0 0 0-2.2 1.4l-.7.4v-.2l-.3-2.1-2.4-1-.7-.4z" fill="#AB6D29"/><path d="M69.7 69.1s-3.2-3.3-4.3-5.5c-1-2.2-.4-5.2-.4-5.2l3 4s-.4.7-.3 2c.2 1.2 2 4.7 2 4.7z" fill="#8F4620"/><path d="M67.6 81.3c0-.3-.2-1 .4-1.8 2-2.4 6.8-4 6.8-4v2.8l-6.2 3h-1z" fill="#AB6D29"/><path d="M68 79c.3-.1 1.4-1 1.4-1.3 0-.4-.7-.4-2.1-.7-1.5-.3-2.6-1-2.6-1s1.7 1.4 2.4 1.7c.7.2.6.5.5.7l.4.6zm8.3.7s-.9-1.3-1.2-2.1c-.3-.8-.3-2.1-.3-2.2l-1 .7-2 .7s2 0 2 .6c0 .7-3 1-3 1 0 .1 2.4-.4 2.3.1-.2.6-1.2.7-2.5 1.2l-2.3 1-.7.5s.6.4 1.5.3c.9 0 2.9-.5 2.9-.5l3.8-1.5.5.2z" fill="#8F4620" fill-rule="nonzero"/><path d="M76.3 79.7s-1-.3-1.8-4.8-.6-5.7-.6-5.7l1.8 1.3 1.7 3-1.1 6.2z" fill="#AB6D29"/><path d="M76.9 72.3s-.9 2.5-.9 4c0 1.4-.1 2.4.3 3.4s1.8 2.3 1.8 2.3l.7-.6.3-2 .1-3.4-2.3-3.7z" fill="#8F4620"/><path d="M79.4 75.7s.4 6.3-1.2 6.5c-.7 0-1.9-2.4-1.9-2.5 0 0 1.4 2.3 2 2.1 1-.4.6-6.6.6-6.6l.5.5zm-3.1 4s-.3 0-.7-.8c-.4-.7 0 .6-3.4 1.8-3.4 1.2-4.6.5-4.6.5s1.1 1 4.5 0 3.1-1.3 3.6-1.4h.6v-.1z" fill="#202020" fill-rule="nonzero"/><path d="M70 71.7s.6.5 1.2 1.7c.331.668.665 1.334 1 2h.2s-.4-1.3-1-2.2l-2.2-3.1.8 1.6z" fill="#AB6D29"/><path d="M68 79.5s.3-1.1 0-1.4c-.3-.2-.7 0-3-.2a34 34 0 0 1-4.2-.9s1.6 1 3 1.4l3.5.8.5.1.2.2z" fill="#8F4620"/><path d="M68 79.5l-.2-.5c-.3-.3-.7.1-3.5-.7-2.8-.7-3.5-1.3-3.5-1.3s1 1 3.4 1.5l3.8 1z" fill="#202020"/><path d="M69.3 71.2s-2.1.1-2.8.7c-.7.5-1.6 2-1.6 2l1.3.1s-.1-1.2.5-1.9c.7-.6 1.7-.7 2.6-.9z" fill="#AB6D29"/><path d="M65.3 67.2s.8 1.2 1.7 1.5c.9.4 1.8.8 2.2 1.2.4.4.9 1.8.9 1.8s-3-1.3-3.7-2a9.6 9.6 0 0 1-1.1-2.5z" fill="#8F4620"/><path d="M68.2 68s-.3-.5-1.1-.9-1.4-.3-1.7-.1c-.3.2-.1.2-.1.2l1 1.7.7-.2s-1.6-1-1.3-1.3c.8-.7 2.5.5 2.5.5v.1z" fill="#8F4620"/><path fill="#202020" d="M76.3 64.1l17-8.7 8 11.1-14.7 4-7.7.6-3.8-2.7z"/><path fill="#4D2A15" d="M99 68.9l21 18.2-2.3 1.6-5-1.4-10.2-10.1-3.8-3.8z"/><path fill="#4D2A15" d="M126 83.5l-12-9.1-15.3-11.5.4 5.5 17.4 16 5.7 2.7 3-.8 1.4-1.6-.6-1.2z"/><path d="M99 70.6s6 6.9 10.6 10.4 9 7.3 10 6.7c.8-.5.5-1 .5-1L98.8 69.2l.1 1.4h.1z" fill="#803F1D"/><path fill="#4D2A15" d="M113.8 88.1l-2.1 1.7-2.5-1-13-13.2.7-2.5 1.8.3z"/><path d="M126 83.5s-1.6 3.8-5 2.9c-3.4-.9-22-18.5-22-18.5v1.8s18.8 17.3 22.5 18c3.6.7 6.6-2.5 6.2-2.8a43.7 43.7 0 0 0-1.7-1.4z" fill="#202020"/><path d="M96.9 73.4s6 7.7 9.1 10.5c3.2 2.9 6 5 7.2 4.8 1.3-.2-.7-1.7-.7-1.7l-9.1-9-4.7-4.6s-1.8-.7-1.8 0z" fill="#803F1D"/><path d="M98.4 73.4s15.2 15.5 16.4 15.9c2.5.7 6.2-2 6.2-2l-1.3-.7-.2.5s-.7 1.6-4 .9c-3.2-.7-16.6-15.1-16.6-15.1l-.5.5z" fill="#202020"/><path fill="#4D2A15" d="M104 88.3l-5.5-6.4-1.2-2.1-.3-2.7 11 11.1-1.5 1-1.4-.4z"/><path d="M114.1 88.5s-1.3 2-3.2 1.6a5.4 5.4 0 0 1-2.8-1.7L97.5 78l-.3-1.6s11.7 12.3 13.7 12.8c1.6.4 2.7-1.4 2.7-1.4l.5.7z" fill="#202020"/><path d="M108.2 88.1s-.5 1.6-2 1.4c-1.6-.3-2-.9-2-.9l-6.6-7.7-.1-2s6.8 9.3 8.3 9.8c1.6.5 2-1 2-1l.4.4z" fill="#202020"/><path d="M101.3 67.9s6.3 5.4 6.8 5.6c.5.3 2.7.4 2.8.7.2.3-1.4 0-1.5.3-.1.4 3.2 3 3.7 3.1.5 0 3.2 0 3.1.4 0 .3-1.8 0-1.9.4 0 .4 2.9 2.7 3.4 2.8.5 0 3.9 0 3.9.4 0 .3-2.7 0-2.7.5.1.6 4.6 3.4 4.4 3.8-.2.4-5.4-3.5-5.5-3.3-.2.2-.4 1.4-.7 1.6-.3.2 0-1.6-.2-2.4-.3-.8-3.4-3.1-3.7-2.9-.3.3 0 1.7-.4 1.7s.1-1.7-.2-2.3a16 16 0 0 0-3.6-3c-.4 0-.1 1.3-.4 1.5-.3.2-.2-1.5-.6-2-.4-.5-7-6.5-6.7-7v.1z" fill="#B07229"/><path d="M90.5 85.3s0 2.4-1 2.8c-1.1.3-3.1-4.4-3.1-4.4l-.5-4.4 3.1 3 1.5 3zm8.4-1.2V83c0-.6-.3-1.5-.3-1.5l-.2-2.4-.6-1.7-.4-1h-.7L95 77.6l-.5 1.6.8 3 .8 2.7 1.3.4 1.5-1v-.2z" fill="#4D2A15" fill-rule="nonzero"/><path d="M96.8 88.3c.3-.1-.4-3.4-.4-3.4l-2-4.8-.5-1.7-1.5-.6-1 1.2.2 1.9s1.5 3.2 2.2 4.3c.8 1.1 2.3 3.3 3 3.1z" fill="#4D2A15"/><path d="M95 78a6 6 0 0 1 1.4 2.6s1.3 3.6 1.1 4c-.2.3-1 .3-1 .3s1.8 1.8 2.3 1.6c.5-.2.3-2 .1-2.4-.1-.4-.7 0-1-.5-.1-.4-.8-2.7-.8-4.2v-2.7c.2-.3 1.5 3 1.5 4.7l.6.7-.6-3.2-.7-2.3c0-.2.3-.8.3-1.5v-1s.6.5.9.5c.3 0 .7-.4.8-2 .2-1.5-.1-6-.1-6l-6.8 9 2 2.5V78z" fill="#202020"/><path d="M95 77.3s-.3 2.4.6 4.8l1.3 3c.2.3.2 2.9-.1 3.2 0 0-1.8-4.4-2.4-6.6-.5-2.1-.7-3-1-3.2l-.8-.2 2.4-1z" fill="#202020"/><path d="M94.4 90c.2 0 0-1 0-1l-.2-2.3-2.4-4.9-2.6-2.3-1.4-2-.2 4s2 4 3.1 5c1.3 1.2 3.3 3.6 3.7 3.5z" fill="#4D2A15"/><path d="M84.7 79s.4 1.1.4 1.8v1.4l1.8 3.5c.9 1.5 1.7 3.1 2.4 2.8.7-.4 1-1.5 1-1.7.1-.1-.8 1.3-1.2 1.1a40 40 0 0 1-2.3-6.6l-1-.8a18.4 18.4 0 0 1-1.1-1.4V79zm7 5.5L90 81.4c-.5-1-1.2-1.7-1.4-1.7-.2 0-.5-2-.5-2s.7 1.3 1.6 1.7c1 .5 1.5.8 2 .7l.2 2-.2 2.4z" fill="#202020" fill-rule="nonzero"/><path d="M87.4 81.3s.5 1.4 1.4 2.7c.8 1.3 2.3 2.9 2.3 2.9s-1.6-1.6-2.5-2.8a14 14 0 0 1-1.4-2.8h.2z" fill="#5C3A1D"/><path d="M92 79.7s.5-1.2.8-1.3l1.2-.3s-.7-.1-1.2-.8L91.5 76l.4 2 .1 1.7zm-.4.4s2 4 2.4 5.5c.5 1.3.4 3.4.4 3.4s-.2-1.5-.6-2.7l-2.4-5c-.1-.3.2-1.2.2-1.2z" fill="#202020" fill-rule="nonzero"/><path d="M94.2 77.4l.5-6-.5-2.2-2.7-6s-.1.8-.8.8a6.2 6.2 0 0 1-3.1-1.8 9.2 9.2 0 0 0-.2 4.8l5.3 9.9 1.5.5z" fill="#4D2A15"/><path d="M83.8 81.3s.8 1 1.3 1c.4-.2.3-2.1-.3-3.2-.6-1-7-9.6-8-10.1s7 12.3 7 12.3z" fill="#8B441F"/><path d="M88.1 77.8c.2.4.6 3.1-.5 3.4-1.5.3-8.5-9.4-9.6-10.7 0 0-4.4-2.8-4.5-3.5-.1-.7 4.7 1 4.7 1l9.5 9 .5.8h-.1z" stroke="#5C3A1D" stroke-width=".1" fill="#8B441F"/><path d="M83.8 81.3S83 80 82.9 79c0-1-.4-1.5-.4-1.9 0-.3-5.2-7.7-5.7-8.2-.6-.5-2.3-1.4-2.3-1.4a15.5 15.5 0 0 0 .3 2.4s1.6 3 4 5.7c1.65 1.947 3.317 3.88 5 5.8v-.1z" fill="#202020"/><path d="M91.6 80c.7-.3.4-2.7.1-3.5a458.4 458.4 0 0 0-4.4-9.4l-1.3.4-2.3-1.8-1.4-1.5s.5 2.1.4 3.1v1.6l3.3 5.9 5.6 5.3V80zm4.7-5.2l1-1.3-.5-4.4-2.8-9.4s-.7.1-1.4-.3c-.6-.4-1.4-1.3-1.4-1.3l.7 5.7 2.9 8 .2 2.3 1.3.7z" fill="#4D2A15" fill-rule="nonzero"/><path d="M87.7 77s-2.8-3-3.7-4.5l-1.7-3s-.8.3-1.8 0c-1-.5-2.2-1.8-2.2-1.8s-.8 1.5 3.2 5.6c4.6 4.6 6.2 3.7 6.2 3.7z" fill="#202020"/><path d="M94.4 78c1.2-.4 1.1-5.4 0-8.7-1-3.3-2.9-6.2-2.9-6.2s2.3 5.4 2.8 7.5c.4 2.2 0 3.7-.4 3.6-.4-.1-.4-1.3-1.3-3.4-1-2-1.6-2.6-1.6-2.6s3.3 8.8 2.3 8.6c-.9-.2-5.3-9.9-5.5-10.2-.2-.2-.4.4-.4.4s4 12.2 7 11z" fill="#8B441F"/><path d="M97 54.3l2 4.2.6 4.4.2 3.7s0 7.4-.8 7.6c-1 .1-1.4-.7-1.4-.9-.571-2.766-1.138-5.532-1.7-8.3l-1.7-8.5.6-.6.2-1.2 1.3-.1.7-.3z" fill="#4D2A15"/><path d="M91.6 80c.8 0 0-2 0-2s-.6 1-1.2.3c-.5-.7-1.3-3.1-1.3-3.1l-.5-1.5s-.6 1.6-1.3 1.6c-.7 0-4.6-6.4-4.6-6.4l-.4.6s5.4 11.1 9.3 10.6V80z" fill="#8B441F"/><path d="M89.1 75.2s.7-1.6.4-3c-.3-1.5-2.2-5.1-2.2-5.1s-.6.1-1.4-.2a9.6 9.6 0 0 1-2.2-1.2 38.3 38.3 0 0 0 5.4 9.5zm3.1-2.3s-.5-3.4-2-6.6c-1.6-3.1-2.6-4.1-2.6-4.1v3.5s1.5.5 2.6 2.4c1 2 2 4.8 2 4.8zm4.3-5.8s-.3-3.7-.8-5.8l-1.2-5s0-.2.3-.4h.6c.8.3 1.1 2.2 1.1 2.2l-.1-3.1-.3-.5h-1.4s.3 1-.1 1.3c-.3.3-.6-.2-.7-.3l-.2.4.4 2-.1 1.7s.5 2.2 1.2 3.5c.6 1.4 1.3 4 1.3 4zm3.3-.5s.6-5.3-.6-8.7C98 54.5 97 53.7 97 53.7l-.6.6s1.8 3 2.4 5.6l1 6.7zm-5.4 2.7s-.6-4.1-1.3-6.8a82.8 82.8 0 0 1-1-3.6l-1.1-1s.7 2.7.6 3.6l-.1 1.4s.5 1.4 1.3 2.6a25.5 25.5 0 0 1 1.6 3.8z" fill="#202020" fill-rule="nonzero"/><path d="M97.2 75.9c1 0 .1-6-.3-7.5-.4-1.6-3-8.8-3-8.8s3 10.3 2.8 10.8c-.3.8-1.5-3.1-1.7-3-.2 0 2.2 6.9 1.3 7-.8 0-1.3-1.5-1.3-1.5l.1 1.5s.6 1.4 2.1 1.5z" fill="#904720"/><path d="M98.5 72.9c.7 0-.2-5.7-.7-8.2l-2-7.5s1.5 3.5 2.3 7.5c.8 4 1.4 9 .6 9.2-.8 0-1.2-.8-1.2-.8v-.9s.3.7 1 .7z" fill="#904720"/><path d="M88.8 79.5c0 .4 0 2.4-1 2.2-1-.1-2.9-1.9-3.3-3 0 0 2.2 2.5 3 2.4.8 0 .8-2.5.6-3.2 0-.6.6 1.6.6 1.6h.1z" fill="#312317"/><path d="M94.1 52.5s1.4.9 2.4.3a4 4 0 0 0 1.8-3c0-.8 0-1.5-.7-2.4-.7-.9 1 .7 1 2.3 0 1.6 0 4.3-2.5 5-2.5.5-1.4-.2-1.4-.2l-.6-2z" fill="#D2A567"/><path d="M92.1 47.7s1.6 2.6 2.2 5c.7 2.3.5 3.2.2 3.3-.4 0-.6-.3-.7-.9 0-.6-1.7-7.4-1.7-7.4z" fill="#8F4620"/><path fill="#1E2121" d="M64.1 51l10.6 15.3 13.2-15-8.3-8.6z"/><path fill="#4D2A15" d="M77.5 41.5l-.6 2.4 1.3 4.1 2.2 2.3 2.5 1.7.6-2 .6-2.2.7-.2 1.6.6 1-1.5 1.8-3.1-.4-1.2-.4-.9-2.7-4.6-.9 1.7-.8.5-1.6-.8-1.8 2.4-2.3-1z"/><path d="M83 52s.4-.3.6-1.6c.2-1.2.2-4.9-.1-6.4-.3-1.5-1.3-4.4-1.5-4.2-.2.3 1.5 3.3 1.3 7-.3 3.6-.2 4.6-1 5-.7.3.6.2.6.2h.1z" fill="#5C3818"/><path d="M83.6 45.8s1.7 2.5 2.5 1.6c.9-.9.5-4 0-5.3l-1.2-3 .5-.6.9 3.4c.3 1.4 1.3 5.2.1 6-1.1.6-2.8-1.5-2.8-1.5v-.6z" fill="#5C3818"/><path d="M77.9 47.6s.6-1 1.4-1c.8 0 1 .3 1 .3l.6 2 1.2 2.2 1 1-.5.6-.9.2-2.5-1.4-.7-1-.6-3v.1z" fill="#8F4620"/><path d="M82 69.3c-.8.5-2.7-.5-3.7-1.4l-6.8-6.7-.8-3.2 2.2.6 3.9-1.7.7-1.3 4.6-2.4 2.6-1.4 5.5-.1 1.4-2.7s1.8 3.2 2.1 4.5c.4 1.4.3 5.4-.2 5.7-.5.3-2.3-1.2-2.6-1.3-.2-.1 1.4 5.7 0 6-1.3.2-3.6-2.2-3.6-2.2s1 5.2-.2 5.2a10 10 0 0 1-5-2.6s1.3 4.3 0 5H82z" fill="#D2A567"/><path d="M81 62.6l1.1 1.7c.3.4 0 2.9-.2 3.4-.3.9-1.6-1.2-2.3-3l-2.2-3.8c0-.4 3.5 1.7 3.5 1.7h.1zm10.8-12.9s2 8.1 1 8.4c-1 .3-3.6-2.6-4-3l-4-6.4-.8-.8.2-.4 1.7.6 6 1.6h-.1z" fill="#8F4620" fill-rule="nonzero"/><path d="M77.9 65.3c-.4.3-1.3-1-1.7-1.4l-3-3.3a11.5 11.5 0 0 1-2.2-2.5c0-.3-.8-1.1-.8-1.1l.7-1h.9s5.4 4.2 5.7 5c.4.6.6 4.1.4 4.3zm8 0c-.2.3-3.7-2.3-5.2-4.4-1.5-2.2-3-4-3.5-5l-.6-1.9 1 .2S86.4 65 86 65.4l-.1-.1zm1.3-3.7c-.2.3-1.7-.9-2.7-2.1-1-1.3-.4-2.9-.4-2.9s3.3 4.8 3.1 5zm2-.5c-.5.3-2.5-2.2-4.2-5-1.3-2-1.6-2.3-1.8-2.5-.5-.3-1.4-.4-1.4-.4l-.2-.3 1-.2.6-.8 1-1.3 4.3 8.5s1 1.9.7 2z" fill="#8F4620" fill-rule="nonzero"/><path d="M78.3 67.9c0 .3 0 .6-1.2.5a21 21 0 0 1-9.9-7.8l-3-5 1.1-1.4 9.6 11 3.4 2.7z" fill="#AB6D29"/><path d="M78.3 67.9c0 .5-.5.6-1.1.5-.6-.2-3-1-6.9-5.3a33.3 33.3 0 0 1-5.3-7.4l-.2-1.8 1.2-.5 6.5 10 5.8 4.5z" fill="#8F4620"/><path d="M84.6 63.6s-2-1.5-3.2-3a24 24 0 0 1-3.8-5.7c.1-.7 1.2-.7 1.2-.7v-1.8l.2-.6 1.9.8 2.3 2.9.9 1.1s1.5 3.7 1.2 4c-.3.3-2.4-2-2.7-1.7-.3.3 2.4 4.4 2 4.7zm-3.7-1s.7 1 .4 1.7c-.3.7-.5 1-1.5-.4a16 16 0 0 0-2.3-3c0 .1.1 2.3-.3 2.3-.5 0-2-1.9-3-3.3L71.7 56v-2l-.1-2.5.3.9.4.7 3.6 4.2 1-.7 2.1 4 2 2h-.1zm-13.5-6.1s2.8 4.8 5.3 7.5a17.4 17.4 0 0 0 5.6 3.9L69.9 58l-2.5-1.5zm21.2 2.8a12 12 0 0 1-3-3.4c-1-1.6-1.9-4-1.8-5 0-1 .4-3.4.4-3.4s2.8 3 3.4 4.3c.5 1.4 1.7 3.3 1.4 3.5-.2.2-2.1-1.3-2.4-1-.2.4 2.3 4.8 2 5zm3.2-3c-.3.1-1.8-1.6-2.1-2.6a14.8 14.8 0 0 1-.6-3.2l-1.2-3v-3.3l1.4-.2 1.9 2.7s.7 1.5.7 3.7c0 2.3.3 5.6 0 5.8l-.1.1zm-22.5 8a41.8 41.8 0 0 1-4-6l-1-2.9.5.4s.8 3.2 4.7 7.1c4 4 4.9 4.2 4.9 4.2s.7 2.2.4 3c0 0-2.9-2.6-5.5-5.7v-.1z" fill="#4D2A15" fill-rule="nonzero"/><path d="M73.6 68.9s-3.4-3-6-6.4a46.6 46.6 0 0 1-4.4-6.6l1.2-1a46.3 46.3 0 0 0 9.2 14zm4.7-1l-6-6.1c-2-2.2-3-4.4-3-4.4l1.6.6s.7 1.7 2 3.5l5.4 6.4zm-.8-7s-2.1-2.6-3.1-4.2l-2-3.8s2.8 3.3 3.6 3.5c.9.2.9 0 .9 0s-.4 1.2-.1 2.2l.7 2.3zm.9-10.6s.3 1.9.1 3c-.2 1-.8 1-.8 1a15.7 15.7 0 0 0 4 4l-1.8-2.7c-.5-1-1.3-2-1-2.8.4-1 2.1.6 2.6 1l2.6 2.8s-.8-2.5-1.8-3.4a53.6 53.6 0 0 0-4-2.9h.1z" fill="#202020" fill-rule="nonzero"/><path d="M87 55.8l-1.7-4.2-1.6-5.2v2.8c-.1 1.2-.5 3-1 3.3-.6.2-.7.3-1.7 0-1-.2.7.5.7.5s1 0 1.4-.5c.4-.5.5-1.5 1-1.4.4.2 1 1.7 1.3 2.4l1.6 2.3z" fill="#202020"/><path d="M83.7 46.4s2 2.3 3 1.3c.8-1 .3-4 .3-4s1.2.5 1.6.2c.4-.4.2-1.5.2-1.5s2.3 3.2 3.3 5.3c1.1 2 1.6 5.8 1.6 5.8s-1.8-3-2.7-5.8c-.9-2.6-2.1-3.8-2.3-3.5a5.3 5.3 0 0 0-.3 3c.2 1 1 2.1 1.5 3.5l1.1 3.4-1.6-2.5c-.7-.8-1.3-1.2-1.7-1.6-.4-.4-1-1.2-1.7-1.4-.6-.3-1.8-.9-1.8-.4s-.3-1-.3-1l-.2-.8z" fill="#202020"/><path d="M76.8 56.3a27 27 0 0 0 4.2 6.3s-2-1.8-2.8-3a15.5 15.5 0 0 1-1.4-3.3z" fill="#171717"/><path d="M90.2 56.9c-.3 0-1.3-.3-1.4 0 0 .4.6 1.8 1.3 2.5.7.7 1 .7 1.1.6.2 0 0-.7-.2-1.4v-1.7c-.1-.3-.8 0-.8 0z" fill="#8F4620"/><path d="M66 42.4l-1.3.7-1.4 3 .4 5.3 2.1 3c.8 1.2 3.5 4.2 4.2 4 .7-.2 1.4-2.3 1.5-3.4l.2-3.2 1.8 2.3c1.1 1.3 2 2.4 2.6 2.3.5 0 2-3.2 2-3.6.1-.4-3.8-10-3.8-10l-1.8-1-6.6.6h.1z" fill="#D2A567"/><path d="M74.8 50.4l1 3.7c.5 1.2 0 2.3.3 2.3.2 0 2.3-2.7 2.3-4 0-1.2 0-2.5-.5-6.3s.2-5 .2-5l-1.2-1-2 4.2-.1 6.1zm-7-2.2l.7 5c.3 1.2 1 3.3 1.4 3.2.4 0 1.6-3.3 1.7-4.4 0 0-.9-1.6-.8-5.5 0-4-.4-4.4-.4-4.4l-2.6 6.1z" fill="#AB6D29" fill-rule="nonzero"/><path d="M62.5 40.5s-3.1 4.6-3 7c0 2.5.4 2 1.1 4.2.7 2.3 1.1 5.6 1.2 5.9 0 .2.5-.2.5-.5l.2-16.6z" fill="#45392D"/><path d="M62.5 41s-2.7 4.3-2.5 6.6c.2 2.3.5 2.3 1.3 4.4.8 2 .8 5.4.8 5.4s1-.2 1.9-.9c1-.7 1.8-2.1 1.8-2.1l-1-2.1a8 8 0 0 1-.6-2l-.8-1 .2-4.1.7-3v-1l-1.8-.1V41z" fill="#AB6D29"/><path d="M77.2 48.3s-1.3-.3-1.9-.6c-.6-.3-.8-1.1-.8-1.1l.4-.8 2.3 2.5z" fill="#DBAD6C"/><path d="M63 41.5s-2 4.3-1.7 7.2c.3 2.9 1.9 6.6 2 6.7.2 0 0-.3.1-1v-8.7l.9-2.8v-1.5l-1.3.1z" fill="#D2A567"/><path d="M67.8 42.5s.3 1.2.1 1.8c-.2.5-1.2 1.2-1.6 2-.5.8-1 2.8-1 2.8s.4-1.1 1-1.8c.7-.7 1-1.2 1-.8.2.4.4 2 .3 2.3-.1.3-.7.8-1 2-.4 1.3 0 2.4 0 2.4l.5-2.2c.2-.6.7-1 .7-1l1 2.4s0-1.1.3-2c.1-.8 1-2 1.3-2 .3 0 .8-.1-.3-.7-.4-.2-.1-4.2.1-4.4.3-.2 1.9-.2 1.7-.8a11 11 0 0 0-1.6-2.2c-.1-.1-2.5 2.2-2.5 2.2z" fill="#8F4620"/><path d="M77 51.1l-1.5-.3c-.5 0-.6-.6-.6-.6l.2-.6 1.2.7.7.8z" fill="#DBAD6C"/><path d="M64.4 51.6c0 .4-.3.9-.5 1.5-.3.7-.4 1.6-.4 1.6l-.4-3.3-.3-2.4c-.2 0-.7.7-.7.7s0-1.6.3-2.3c.3-.7.5-1.8.3-2-.3-.1-.8.3-1 .7a30.8 30.8 0 0 0-.8 1.3s.3-1.3.6-1.9c.3-.5 1.8-2.2 2-2.8.4-.7.4-1.4.4-1.4h1s1 .8 1 1.5c0 .4-1 .9-1 1 0 0-.8-.1-1 3.2-.2 3.4.6 3.2.5 4.6zm9.4-8.7s.2 1.8 0 2.4c-.2.6-.7 1-1.1 1.8-.4.7-.4 2.4-.4 2.4l.5-1.4.7-1c.1 0 .6.7.8 1.7l.8 2.5s-.2-1.2.1-1.2c.3 0 .5-.1.9.2l.9.8s0-.5-.7-1.1c-.6-.7-1-.6-1.1-1.5-.2-1-.3-1.8-.2-2.2 0-.3.5.3.9.7l1.5 1.4-.7-1v-3c0-1 0-1.9.4-2.1.3-.3.4-1.6.2-1.8-.1-.2-3.5 2.4-3.5 2.4z" fill="#8F4620" fill-rule="nonzero"/><path d="M84.6 39.1a23.7 23.7 0 0 0 1.5 7.1s-1-2-1.6-3.6c-.6-1.6-.9-3.5-1.3-3.6-.4-.2-1 .8-1 1.5s.5 3.3 1.1 4.2c.6 1-1-1.2-1.3-2.3l-.7-2.2s-.4 1-.3 2c.2 1.1 1.1 2.7 1.1 2.7l-1-1-.6-.7s0 1.5.4 2.1l1.2 1.7-1.3-1-.4-.8s.2 2.1.6 3.3l1.5 3s-1.2-1-2-2.9c-.8-1.8-1.2-7.3-1-8.1l1.1-1.9c.6-.8 1.3-4.7 1.3-4.7s.9 3.6 1.5 4.3c.6.7 1.2 1 1.2 1v-.1zm-8.6-1l.8 1.3.6 1s-1 1.1-2.3 2c-1.2 1-2.8 2-3.1 1.5-.4-.5-.4-1-.4-1s1.4-.8 2.4-1.8a6.6 6.6 0 0 0 1.6-2.2c.2-.6.5-.9.5-.9l-.1.1zm-10.9 3.5s.2 2.2 1.2 2.2c.9 0 3.7-2.9 3.9-3 .2-.1.4-.8.4-1l-.2-.8s-3 3-4 3.2c-.9 0-1.3-.6-1.3-.6zm.1-3l-.3 2c0 .5.2.9.2.9s-2.2.7-2.5 0c-.4-.6-.1-1.6-.1-1.6H64c.6-.2 1.2-1.3 1.2-1.3zm20.3-3.1l1.5 3.2 1.4 2.8s-1.4-1.7-1.9-2l-1.2-1 .2-1.1v-2 .1z" fill="#1E2121" fill-rule="nonzero"/><path d="M62.1 40h1.3c.5 0 .8-.2.8-.2l.9-1.2s-.5 1.4-.2 2.5c.3 1 1 1.1 1.2 1.1a4 4 0 0 0 2.2-1.1c.9-1 2.1-1.9 2.1-1.9s-.3 1.3.2 2.7c.5 1.3 1.2 1.3 2.2.4 1-.8 2-2.2 2.6-2.8l.7-1 1.1-1 1-5.4-.5-.7-1.4.7-1.7-.7-.5-.7-1 1.7-1 .6-.5.1-1.2.3-.5-1.1-.3-.8-.6-.3-2.4 2.5-1.4-.1-1.3 2.2-1 1.3-1 2.4.2.5z" fill="#DBAD6C"/><path d="M73.9 34.5s.2 1.3-.5 3.6-1.6 3.9-1.6 3.9 2.4-1.5 3.6-4.2c1.1-2.6.9-5.7.9-5.7l-2.4 2.4zm3-2.5s.2.4 0 2.4l-.8 4 .6 1.2c.4.7 1.2 1.8 1.7 1.6.6-.2 1.6-.9 2.2-2.2.6-1.4 1.1-2.7 1.4-2.9.2-.2.3.1.4.2 0 .1.3 1.3.9 1.8.5.5 1.3 1.3 1.6 1 .4-.2.8-.9.7-1.2l-1.3-4-1.6-4-1-1.6-2.8.3-2 3.4z" fill="#8F4620" fill-rule="nonzero"/><path d="M81.7 28.3s.8 1.7.9 3.6c0 1.8-.4 3.8-.4 3.8s.2-2.3 0-3.7c-.3-1.4-.7-2.3-.7-2.7l.2-1z" fill="#AB6D29"/><path d="M85.6 35.6v2.3c-.2.8-1.3-.5-2-3-.6-2.5-.5-3-1-4.3l-.9-2.2 1.5-.3 2.4 7.5zm-7 4.6s2.8-1.5 3.1-6.2c.2-2.1-1.2-5.7-1.2-5.7s0 3.8-1 6.2a60.9 60.9 0 0 1-1.9 4s.7-.2 1-.6l.8-1.1s.1.7-.1 1.6l-.6 1.8h-.1zm-2.3-8.1s-.1 1-1.3 2c-1 .9-3.1 1.9-3.1 1.9s1.5-1.4 2-2.6c.6-1.2.1-2 .1-2s-.2.6-.8 1.1c-.6.5-1.6.6-1.6.6s0-.6.7-1.3c0-.1 0-.4.2-.7.3-1 1.1-2.3 1.1-2.3s.7 1.4 1.3 2l1.4 1.3z" fill="#4D2A15" fill-rule="nonzero"/><path d="M84.7 26.6a17.6 17.6 0 0 0 .9 9s-1.4-2.2-1.7-3c-.4-1-.4-2.3-.7-3a3.2 3.2 0 0 0-1-1c-.3-.2-1-.1-1-.1s.8-.4.8-1.1v-1l1.4.3h1.3v-.1zm-6 9.8s1.4-2 1.8-4.6c.4-2.6 0-3.5 0-3.5s-.6 0-1.1-.5c-.5-.5-1.3-1.8-1.3-1.8s.2 1.4 0 3c-.4 1.6-1.8 3-1.8 3s.8.4 1.4 0c1.5-.9 1.4-2.5 1.4-2.5s.3.2.3 2.2-.7 4.7-.7 4.7z" fill="#1E2121" fill-rule="nonzero"/><path d="M61.2 39.9c-.3 0 1-2 1.8-3.4l2.1-3.4s.3.3.8.3a3.6 3.6 0 0 0 2.4-1.7 7 7 0 0 0 1-2.5c0-.3-.1 1.8 1 3 1 1.1.9 1 1.3 1 0 0 0 1.4-.4 2.7l-.8 3.3s.2-2.5-.3-3.2c-.4-.8-.6 0-1 1-.3.9-1.1 1.5-1.1 1.5s.6-1.1 1-2.3c.4-1.2.2-1.2 0-1.2 0 0-.2-.1-.6.4-.5.5-.9.6-.9.6s.5-.4.7-1a6 6 0 0 1 1-1.8c.2-.3.4-.7.4-1 0-.2 0-.7-.2-.7s-.5.3-1.4 1.2L66.7 34l-.9 2.6a17 17 0 0 1-1 2.8l-.6.4.9-2.4 1-3.4c-.2-.3-.7-.3-.8 0l-2 2.8c-1 1.4-1 3.1-1.2 3.2l-1-.1h.1z" fill="#8F4620"/><path d="M85.7 25.1c0 .2 0 1.2-1 1.5a3.5 3.5 0 0 1-2.3-.2c-.2 0-.2-1.4-.2-1.4l3.5.1z" fill="#874F20"/><path d="M66 28.4s-.2.9-.8 2c-.5 1.2-1.4 2.2-1.3 2.4 0 .1.6.7 1.4.6.8 0 1.1-4.8 1.1-4.8l-.1-.2H66z" fill="#B27129"/><path d="M78.4 25.7s-.3 6.4-2.1 6.4-2.7-3.2-2.7-3.2-.1 4.3-2.4 4.3c-1 0-2.1-3.4-1.9-4 0 0-.4 2.3-1.5 3.2-2.2 1.7-3.5.9-3.6.6 0-.3 1.8-2 2-4.6 0 0 .4.1 1-.6s.7-1.6 1.3-1.5c.5.2 3-1 3-1l1.4-1.7s.2.5 1.2-.2a3.6 3.6 0 0 0 1.3-1.7l2.7 2.3.3 1.7z" fill="#DBAD6C"/><path d="M71.4 19.6l2.7 3.8.6-.5c.4.5.6.9.4 1.2-.4 1-1.3 2.3-.5 3.7 0 0-.3-.8.1-1.8s.7-1.4 1-1.3c.2 0 .6 5.8 1 5.8.3 0 .9-2.7.9-4.5 0-1.8.3-.3.5 0 .2.4 1.8 3 3.1 2.6 1.4-.4 1.2-2.8 1.2-3.3 0-.6-1-3.7-1-3.7l-6.1-3.9-.5 1.6c-.3 1-3.4.3-3.4.3z" fill="#B27129"/><path d="M80 19s.4.4 1 1.9.7 6.4-.1 6.4c-.8 0-2.3-1-2.6-1.6-.3-.7 0-3.1-.4-3.8a8.1 8.1 0 0 1-1.2-2.7l.1-2 1.4-.5 1.9 2.3H80z" fill="#8F4620"/><path d="M79.6 17.5l2.6 3.9 2.3 3.3 1.2.4a2.5 2.5 0 0 1-3.2.5c-.9-.5-.4-2-1.5-4.5-1.2-2.5-3.2-3.6-3.2-3.6l.7-.7 1.1.7z" fill="#4D2A15"/><path d="M78.2 15.4s2.3 1.5 3.1 3.2c.9 1.7 1.3 2.7 2.3 4.3 1 1.6 2.1 2.1 2 2.2 0 .1-.7.3-1.2 0a4.7 4.7 0 0 1-1.4-1.6 35 35 0 0 0-2.4-4.2c-.5-.7-2.3-2-2.3-1.9 0 .1.5.5 1.5 2.1a7 7 0 0 1 1.2 3.1l-1.1-2c-1-1.5-2.8-3.3-2.9-3-.1.2 1 1.9 1.5 2.9l1.3 3.3-1.8-3c-1-1.5-1.2-1.3-1.6-1.8L75 17.2s1 .3 1.8-.3c1-.6 1.4-1.5 1.4-1.5z" fill="#1E2121"/><path d="M72.3 19.7s1.5.3 2.3.2h1.1s.5.6.5 1.4c0 .7-.5 2.1-.8 2.2-.2 0-.2-1.3-.5-1.8l-2.6-2z" fill="#8F4620"/><path d="M73.1 23.6s.5 1.6.1 3.9c-.4 2.2-1.7 4.6-2 4.6-.3 0-.2-2.6-.4-4v-.4l-.5 1.6.4-2.6-.1-.8 1.6-2 .9-.3z" fill="#B27129"/><path d="M70.3 25.3c-.5.5-1.2.4-1.8.6-.6.2-.9 1-.9 1s.5-.3.7-.2c.3.1.5.1.1 1.2-.5 1.1-2.2 3-2.1 3 0 0 2-1.5 2.5-2.5.7-.9.6-1.4.8-1.8 0-.3.8-.7 1-.7.1 0 .5 0 .6.7l.6 2.6.8-2.6c.2-1 .2-2.9.2-2.9l-.6-.1c-.5-.1-1.5-1-1.5-1s.2 2-.5 2.7h.1z" fill="#8F4620"/><path d="M78.3 13.8s.6 1.5-.7 2.6c-.4.3-.7.5-1.4.6a4.5 4.5 0 0 1-1.7-.6l-4-1.6-2-.6-1-.3.2-1.1h3l3 1.2 1.3.5 1.1.2h.9l.7-.2.4-.3.2-.4z" fill="#DBAD6C"/><path d="M78.3 13.8c0 .3-.3 1.1-.6 1.3-.3 0-.8.3-2 0-1.1-.2-2.3-1-3.6-1.3-1.3-.4-2.3-.7-3.3-.7s-.5-.4-.5-.4 2.3-.3 4.3.5c2 .7 2.9 1.2 4 1.2 1.4 0 1.7-.6 1.7-.6z" fill="#AB6D29"/><path d="M67.6 12.6h.9c.4 0 .7-.3.7-.3s0 .5-.2.7c-.3.2-1 .1-1.2.1l-.2-.5z" fill="#4D2A15"/><path d="M75.3 17.4s1.3 1.3 1 2.4l-2.7-1.2-4.2-1.7-2.3-.7-.3-.4.6-.8.2-.8 2.8.4 3 1 1.9 1.8z" fill="#DBAD6C"/><path d="M72.4 19.3s2.4 3.1 1.8 4.1l-5.6-3.5-2 3.3-4.7-2.3s3.8-3 4.2-3.5l.5-.7 2 .4 3.4 1 .4 1.2z" fill="#DBAD6C"/><path d="M71 14.6s2 .5 3.3 1.2c1.3.6 3 .8 3 .8s-.6.7-2 .8c-.4 0-1.4-.8-2-1.3-.7-.4-2.6-1-2.6-1l.3-.5z" fill="#AB6D29"/><path d="M67.6 13.6s1.4.3 2.2.7c1 .3 1 .2 1.2.1.3 0 .3-.2.3-.2s.2 1-.5 1-1-.3-1.8-.7c-1-.4-1.5 0-1.5 0v-1l.1.1z" fill="#4D2A15"/><path d="M75.4 19s1 .7.9.9c-.2 0-.7.3-1.6.4a3.4 3.4 0 0 1-2-.4c-.6-.2-1-1.3-2.5-2a18 18 0 0 0-2.8-.9l-1.3-.2 1-.4 3.2.6 2.8.9 1.7.8.6.4V19zM70 21l.6 2.6-.4 1.5-.8.6-.8-.3-.3-.5s.4-.6 0-1.1c-.3-.6-2-1.2-2-1.2s.7-1.3 1.4-1.6c.8-.3.4-1.2.4-1.2L70 21z" fill="#AB6D29" fill-rule="nonzero"/><path d="M66.8 15.8s.5.4 1.5.5c.5 0 1.3.2 2.2.5l1-.3-.5.4c.9.2 2 .7 2.5.9a5.8 5.8 0 0 1 2 1.3l-2-1a17.4 17.4 0 0 0-3-.9c-2-.3-4-.2-4.3-.4-.4 0 .1-.1.4-.3.2-.2.2-.7.2-.7z" fill="#4D2A15"/><path d="M74 22.8s.7.7 0 .9c-.6.2-2.4.2-3.2-.7l-.6-1.2a14 14 0 0 0-2.4-1.7c-.7-.5.3-.5.3-.5l3.6 1.5a13 13 0 0 1 2.3 1.7z" fill="#AB6D29"/><path d="M74 22.9s-1.2-1.8-4.9-3.3l1.2-.2h-2a24 24 0 0 0-.8-.3c-2-.6-2-.6-2.2-.8-.1-.3-.4 0-.6.3l-.7 1a5 5 0 0 1 2.5-.1c1.1.3 1 .7 1 1-.1.5-1.4 2-1.3 2.1.2 0 1-1.5 2-1.3 1 .3 1.2.8 1.2.8s0-.6-.2-.8c-.2-.2-1.3-1.3-1-1.3.3 0 1.6.3 3.3 1.2 1.8.9 2 1.1 2.6 1.7H74z" fill="#4D2A15"/><path d="M68.1 20s2.8.8 2.7 3.8c-.1 3-2.3 2.4-2.5 1.3-.2-1 .3.5 1 .4.9-.2 1-1 1-2.2 0-1-.3-1.6-1-2.2a12 12 0 0 0-1.2-1V20z" fill="#DBAD6C"/><path d="M56 12.9s.4.2-.4 2.3c-.8 2.1-1.3 2.8-2.5 4.2-2.2 2.4-3.2 2.5-3 3.5.3 1 1.1.8 1.3.8.2 0 4.3-6 4.3-6l.9-3.5-.2-1-.3-.3H56z" fill="#6C3F18"/><path d="M66.1 8.6s1.2 1.8.8 5c-.3 3.4-4.7 6.3-4.7 6.3l-6.4 4.4-2.7-.2h-.8c-.4-.1-.8-.5-.9-.5l-.5-1.2.9-1 2.3-2.3 1.4-2s.7-1.3.8-2.5c0-1.1-.2-1.7-.2-1.7l.5.8.3 1.8-.2 2 1.6-1.2 2.2-1s.7 0 1-1.3c.5-1.2.9-3 .9-3.8l-.1-1.8h.3c.2 0 .7 1.2.7 1.7l.4 2.8 1-1 1-1.5c.2-.5.4-1.3.4-1.8z" fill="#DBAD6C"/><path d="M66.8 25.2s.5.4.3 1.6c-.2 1.2-1.1 1.8-1.6 1.8V27l-1.4-1.2-1.5-.4.3-.3c.1-.2 1.7-.8 1.7-.8l2.2.9z" fill="#904720"/><path d="M65.7 25.2s.5.4 1.2.3c.7-.2 1-1.3.6-1.8-.4-.4-.2 1-.7 1.3-.4.1-1-1.2-1.5-1.3-.7-.1-1.6.3-1.9.7-.2.4 1 0 1 0l.7.3h.5l.1.5z" fill="#AB6D29"/><path d="M56.5 20.6s.8.3 1.7.1l3.1-1 1.8-1.3c.7-.7 3.1-2.2 3.4-5.1.2-3-.4-4.7-.4-4.7s3.5 3.8.5 8.2c-2 2.8-3.8 3.7-3.8 3.7s3.4-1 3.7-.2c.3.8-.1 2-.2 2.3 0 0 1.9.4 2.2 1.4.1.6-2.2-.7-4-.2-1.8.4-2.5 1.4-2.5 1.4s-.4-.5-2-.5c-1.5 0-2.2.7-3.1.7-1 0-3.7-.6-4.2-1.4l1.8-2.2c.8-1.6 2-1.2 2-1.2z" fill="#904720"/><path d="M63.8 12.7s1.3-1.3 1.8-2.3c.4-1 .5-1.8.5-1.8s.2 1-.6 2.3c-.8 1.3-1.7 2-1.7 2v-.2z" fill="#AB6D29"/><path d="M63.4 9.7s1.1 4.4 0 6.1c-1.3 1.8-6.5 4.1-6.5 4.1s4-2.1 5.2-4.6c1.2-2.5 1.1-4.5 1.1-4.5l.2-1v-.1z" fill="#904720"/><path d="M58.2 20.7s1.7 0 2.6-.6c1-.5 2.3-1.7 2.3-1.7s-1.2 1-1.6 1c-.3 0-.6-.5-.5-.9 0 0-.3.8-1 1.4-.8.5-1.8.8-1.8.8zm3.9-5.4s1.4-1.4 1.4-4.4c0-3-1.2-2.5-1.2-2.5s1 .7.7 3c-.2 2.3-1 4-1 4l.1-.1zm1.7.3s1.6-.3 2.1-1.3.6-2.7.6-2.7-.2 1.7-.7 2.3c-.4.6-2 1.7-2 1.7zm-1 9.5s.8-1.5 1.9-1.1c1 .4 1 1.2 1 1.2s-.4-.6-1.2-.7c-.7 0-1.6.6-1.6.6h-.1zm-2.9-2.7l3.7-1 3-1s-1.2 1.3-3 2.3c-1.6 1-3 1-3 1s3.2-1.4 3.4-2c0 0-3 .9-4 .7h-.1z" fill="#1E2121" fill-rule="nonzero"/><path d="M56.2 18.8c1.12.815 1.374 2.352.582 3.514-.793 1.163-2.36 1.55-3.582.886" fill="#FFF"/><path d="M56.1 19.1c.806.774.91 2.012.248 2.944a2.478 2.478 0 0 1-2.948.856" fill="#F16E16"/><path d="M55 20.4a1 1 0 1 1-.8 1.4" fill="#000"/><path d="M55.2 21.6a.304.304 0 0 1-.6-.1.3.3 0 0 1 .3-.3.3.3 0 0 1 .3.4z" fill="#D5D3CA"/><path d="M56.8 17.2s1.6-1.5 1.9-3.5c.3-2 .1-3.2.1-3.2l.9 1 .3 1.4-.5 2.6 1.6-.8c.6-.8 1.5-4.2 1.2-6.3 0 0 .4 1-.2 3.8-.6 2.9-1 3.2-3.2 4.4a9.6 9.6 0 0 0-3.8 4.2 19 19 0 0 1-2.3 3l1.6-2.6c.8-1.8 1.7-2.8 1.7-2.8l.7-1.2z" fill="#AB6D29"/><path d="M56.1 18.4s.7-2 .7-3.1-.7-2.4-.7-2.4 1-.1 1 2.2c.1 2.4-.4 2.6-1 3.3z" fill="#904720"/><path d="M59.2 15.8s.7-1.7.7-3c0-1.1-1-2.3-1-2.3s1.1.3 1.2 2.4c.1 2.2-.2 2.2-1 3l.1-.1z" fill="#4D2A15"/><path d="M52.1 24s-.6-.8-.5-1.3c0-.6 0-.7 1.4-2.2a13 13 0 0 0 2.5-3c.3-.9 1.5-3 .6-4.6 0 0 .6 2.4-.8 4.3a15.7 15.7 0 0 1-3.3 3.7c-1.1.8-1.3 1.2-1.2 1.7 0 .5.1 1 .3 1 .4.3 1 .3 1 .3v.1z" fill="#AB6D29"/><path d="M65.5 28.6s.3 0 .5-.3.2-1-.3-1.6a3.3 3.3 0 0 0-1.7-1.1l-2-.4s.4.8 1.3 1.3c.4.2 1.2 0 1.6.4.5.4.6 1.7.6 1.7z" fill="#6C4119"/><path d="M65.5 28.6s1.5-.5 1.6-2l-.1-1.2s.2.5.8.7l.6-.2s-1 2.8-3 2.7h.1z" fill="#6C4119"/><path fill="#BF802D" d="M54.8 28.3l.8.8.9 1 3.7-1 1.2-1.2-1-1.6h-2.7l-3 2z"/><path d="M63.8 27l-.7-.9-.7-.6c-.6-.3-2.8-.3-2.8-.3l-1.6.3s-.5.5-1.3.3a22 22 0 0 1-2.6-1l-1.9-.7s-1.3-.6-1.6-.5c-.3.1-1.5 1.3-1.5 1.3s-.2.7.3.7c.4 0-.7.2-.7.2s-2.8 1.6-3.2 4.4c-.5 2.7 4.6 6.8 6.5 4.7 0 0-2.8-2-2.2-3.7.5-1.7 1.8-2.8 4-3 2.1 0 2.3-.3 3.2-1 1-.6 2.7-1 4 .3 1.3 1.4-5 2.7-5 2.7l.7 1s7.7-2.7 7-4.1l.1-.1z" stroke="#8F4620" stroke-width=".4" fill="#F9C83A"/><path d="M49.4 33.7s-3.1-.8-2.9-3.7c.3-2.8 3-3.9 3.4-4 .4-.2.3-1.6.8-1.8a2.4 2.4 0 0 1 2 .5l1.4.8s-5.5 2.4-5.5 5.6c0 2.1.8 2.5.8 2.5v.1z" fill="#FCF3D8"/><path d="M63.8 26.8s-.4.2-.5 0c-.6-1-2-1.4-3-1.3-1.5 0-2.4.5-3.4.5s-.7-.1-1.8-.2c-1.1 0-3.5-1.8-4-1.6-.6.2-.8.8-.8 1.1.1.4-1 .4-1 .1-.2-.2.7-1.7 1.7-1.7 2.6 0 4.6 1.7 5.8 1.7 1.3 0 1.7-.7 3.4-.7s3.5.8 3.6 2v.1z" fill="#FDEAAF"/><path d="M55.2 28.8s1.3-.2 2.2-.6l2.2-.8-2 1.2-2 .5-.4-.3z" fill="#513625"/><path d="M50.8 35.3c-.2 0-1.3 0-3-1.1C46 33 45.5 31 45.5 31s-.4-1.9 1.4-3.8c1.8-1.9 2.1-1.3 2.2-1.2.1 0 0 .1 0 .1l-1.7 1.3-.7 1.3-.7 1.2v1.4l.8 1.5 2.5 1.5 1.5 1z" fill="#F9C83A"/><path d="M49.8 24.4v-.2.3-.3.3-.3l-.3.2h.2v-.2l-.2.2.2-.2h-.2a.3.3 0 0 0 0 .2l.2-.2h-.2.2-.2.2-.2.2l-.2-.1.2.1-.2-.1-.1.1a4.6 4.6 0 0 0-.4.5l-.2.6v.1c0 .3.2.5.4.6h1.4a.3.3 0 0 0 .1-.4.3.3 0 0 0-.3-.2l-.7.1a.8.8 0 0 1-.3 0v-.2a.5.5 0 0 1 0-.2 3 3 0 0 1 .3-.5l.2-.1v-.1l.1-.2a.3.3 0 0 0-.3-.2.3.3 0 0 0-.2.3.3.3 0 0 0 .3.2v-.1z" fill="#8B5122"/><path d="M55.1 27.1l-3.8 1.1c-.3.2 1.2 0 2.4 0l1.3.1.9-.2c1.4-.5 4.4-1.6 4.7-.3.2 1-4.1 2-4.1 2v.5l3.4-.9 1.9-1 .5-.9-1.7-1.2H58l-1.2.3-1.7.5z" fill="#F9C83A"/><path d="M49.7 32.5c.3.8.9 2 1.6 2.3 0 0 .1 0 0 0 0 .1-.5.5-1.7.1-1.2-.3-3-.7-4.1-4v.7l.7 1.3 1.1 1.2 1.9 1.1 1.2.3 1-.2.6-.4-1.1-1-1.4-2.3.2 1v-.1z" fill="#8F4620"/><path d="M62.1 65.6v1.2h-.7v-1.5l.7.3zm-4.7-34.4l-1.2-1.4-.8.1 1.2 1.8.8-.5z" fill="#FCCA3D" fill-rule="nonzero"/><path d="M62 68.5l-1.7-1a10 10 0 0 0-2.4-.6v.3h.2l2.1.6a14.3 14.3 0 0 1 1.7 1l.1-.3zm0-3.1h-3a4 4 0 0 0-1.3.7l.1.2a3.8 3.8 0 0 1 2.6-.7 23 23 0 0 1 1.4.1v-.3h.2zm-.4-2.7L59 64.1l-1.6 1.2.2.2.5-.4a16.5 16.5 0 0 1 2.6-1.6l1-.5-.1-.3zM59.9 60s0 .7-.3 1.2a8.6 8.6 0 0 1-.6.8 86.3 86.3 0 0 1-2.5 2.6l.2.3a220.4 220.4 0 0 0 2.5-2.7l.7-.8c.3-.6.3-1.3.3-1.4h-.3zm-2.1-1.2a4.2 4.2 0 0 1-.2 2.2l-1 2.2-.4.9-.2.3.2.2s1.3-2.2 1.7-3.5c.2-.5.2-1 .2-1.5a4 4 0 0 0 0-.9h-.4l.1.1zm-2.1-.3a8.7 8.7 0 0 0 0 1.2c0 .6 0 1.2-.2 1.7l-.7 1.8-.3 1 .3.1 1-2.8c.2-.5.2-1.2.2-1.8v-1.2h-.3zm-1.6 0v1.2l-.3 2a52.2 52.2 0 0 0-.5 2.5h.3l.2-.8.3-1.7c.3-1 .3-3.2.3-3.2h-.3zm-1.8.3a13 13 0 0 0 0 2.9 14 14 0 0 0-.4 2.5h.3a23.3 23.3 0 0 1 .4-2.4l.1-1.4v-1.6h-.4zM51 59v.2a9 9 0 0 1-.3 2.2l-.6 1.9-.2 1h.3l.8-2.9a8.9 8.9 0 0 0 .3-2.2V59H51zm-1.6 0v.7c0 .6 0 1.4-.4 2a5.5 5.5 0 0 1-1.3 1.6 9.8 9.8 0 0 1-.7.4l-.2.2.1.3s1.7-1 2.4-2.3c.4-.7.5-1.6.5-2.2V59h-.4zm-.9-.3v.2a6.7 6.7 0 0 1-1 1.9c-.3.4-.9.8-1.3 1.1a12.1 12.1 0 0 1-.8.5l.2.3s1.4-.8 2.1-1.7a8 8 0 0 0 1.1-2.2h-.3v-.1zM47 58v.1a6.2 6.2 0 0 1-1 1.3c-.1.2-.5.4-.9.6l-.6.4.1.3.7-.4 1-.7.7-.9.3-.6-.3-.1zm-.7-1l-.3.3-.9 1a6.5 6.5 0 0 1-.5.4l-.4.3.1.3.7-.4c.7-.6 1.5-1.7 1.5-1.7l-.2-.2zm-.4-.6l-.2.2-.9.6a2 2 0 0 1-.8.3v.4l.6-.3c.7-.3 1.5-1 1.5-1l-.2-.2zm-.2-.7l-.8.4-.6.3a1.9 1.9 0 0 1-.4.2v.3c.2 0 .3 0 .5-.2l1.4-.7-.1-.3zm-.4-1.3l-.5.5-.9.3v.3a2 2 0 0 0 1.2-.5 3.8 3.8 0 0 0 .5-.4l-.3-.2zm.1-2.2l-.6.5c-.3.3-.6.6-.7 1a.6.6 0 0 1-.1 0v.5l.2-.2a.8.8 0 0 0 .2-.2c0-.2.4-.6.7-.9a7.9 7.9 0 0 1 .5-.5l-.2-.2zm10.7-12.8h1.6l.1-.2v-.1h-.1v.3-.1h-.2.1-.1v-.2l.1.1v-.1.1-.1h-1.5v.3zm0-1h.2c.2 0 .4 0 .6-.2.4-.1.7-.4 1-.6l.5-.3a.8.8 0 0 1 .3 0v-.4l-.6.2-1 .7-.8.3-.1.3h-.1zm0-1.5l.7-.2 1.2-.8c.4-.3.7-.4 1-.4v-.3c-.3 0-.5 0-.8.2l-1.2.7a3 3 0 0 1-1 .5v.3h.1zm-.6-1.4l1.5-1 1.6-1.2-.1-.3-1.7 1.2c-.5.5-1.1.9-1.5 1l.2.4v-.1zm-1-1.5l3.2-2.3-.2-.3-3.2 2.3.1.3h.1zM53 32.4a20.7 20.7 0 0 1 3.4-2.3l-.2-.2-1.5 1-1.9 1.3.2.2zm-1-1a123.7 123.7 0 0 1 2.6-1.8l.8-.5-.1-.3a7.6 7.6 0 0 0-.8.5 113 113 0 0 0-2.7 2l.1.2.1-.1z" fill="#816C2A" fill-rule="nonzero"/><path d="M54.5 28.4l.1.1a17.3 17.3 0 0 1 2.5 2.5c1 1.2 1.8 2.7 1.8 4.1v.5a9.5 9.5 0 0 1-2.5 5c-2 2.3-4.8 4.4-7 6.4a18 18 0 0 0-3 3.1 6.1 6.1 0 0 0-1.2 3.7 6.4 6.4 0 0 0 1.1 3.4 4.4 4.4 0 0 0 3.9 2c1.8 0 3.8-.7 5.6-.7 1.6 0 3 .4 4.4 1.9 1.3 1.4 1.7 3.6 1.7 5.7 0 1.6-.2 3-.4 4.2a25.6 25.6 0 0 1-.4 1.8h.3s.8-2.8.8-6c0-2.1-.4-4.5-1.8-6a5.8 5.8 0 0 0-4.6-1.9c-1.9 0-3.9.6-5.6.6a4 4 0 0 1-3.6-1.8 6 6 0 0 1-1-3.3v-.1c0-1.6.7-3 1.9-4.3 1.8-2 4.5-4 7-6.2 2.3-2.2 4.4-4.5 4.7-7.5v-.5c0-1.8-1.1-3.5-2.3-4.8a17.2 17.2 0 0 0-2.3-2.2l-.1.3z" fill="#78732E"/><path d="M52.1 31.4l-.4-.3-.3.1.6.5.1-.3zm1 1l-.3-.3h-.1l.2.4.2-.1z" fill="#A8AC71" fill-rule="nonzero"/><path d="M54.5 34l-.2-.4-.2.2.3.3.1-.1zm1 1.5l-.1-.3h-.3l.4.5v-.2zm.7 1.5l-.2-.4v.4h.2zm0 1.5v-.4L56 38v.5h.2zm0 1V39l-.1-.1v.6h.1zM44 54.1l.1-.7c.1-.3-.3.1-.3.1v.5l.2.1z" fill="#78732E" fill-rule="nonzero"/><path fill="#FFF" d="M44 55.1l-.3.1.1.5.1-.2v-.4z"/><path fill="#78732E" d="M44 56.9v-.4h-.2v.6z"/><path d="M44 57.9v-.4h-.1v.4h.1zm.3 1.4v-.4l-.2.1.1.4.1-.1zm.4 1.4l-.1-.5h-.2l.2.6.1-.1z" fill="#FFF" fill-rule="nonzero"/><path d="M45.6 62.7l-.2-.3h-.2l.3.3h.1zm1.5 1.4l-.5-.3c-.3-.3-.1.2-.1.2l.4.2h.2v-.1zm9.8.8l-.4-.3c-.2 0 0 0 .2.4.1.3.2-.1.2-.1z" fill="#A8AC71" fill-rule="nonzero"/><path fill="#FFF" d="M57.7 65.5l-.3-.3v.3h.2z"/><path d="M57.9 66c-.1-.2-.2.1-.2.1l.2.3v-.5.1zm0 1.3v-.5c0-.2-.1 0-.1 0v.5h.1z" fill="#A8AC71" fill-rule="nonzero"/><path d="M57.4 68.7l.2-.4h-.2v.4zm-14.8-52s.5-.2.1.4l.3-.5h-.5l.1.1z" fill="#FFF" fill-rule="nonzero"/><path fill="#F9C83A" d="M54.6 28l.4.3h-.5z"/><path d="M55 28.3l-.7.1c-.2 0 .2-.2.2-.2l.4.1h.1z" fill="#8F4620"/><path d="M61 72.1s.3 0 .5-.3-.1.4-.1.4l-.3.1-.2-.2h.1z" fill="#977C2E"/></g></g></svg>