<svg width="800" height="480" xmlns="http://www.w3.org/2000/svg"><g fill="none" fill-rule="evenodd"><path fill="#CC0001" d="M0 0h800v480H0z"/><path fill="#FFF" d="M0 445.8h800V480H0zm0-68.6h800v34.2H0zm0-68.6h800v34.2H0zM0 240h800v34.2H0zm0-68.5h800v34.2H0zm0-68.7h800V137H0zm0-68.5h800v34.2H0z"/><path fill="#010066" d="M0 0h372.6v274.3H0z"/><g fill="#FC0"><path d="M149.7 48.5c-49 0-88.9 39.7-88.9 88.6a88.8 88.8 0 0 0 89 88.6 88.7 88.7 0 0 0 48-14 78.9 78.9 0 0 1-25.8 4.2c-43.426.055-78.69-35.074-78.8-78.5a78.7 78.7 0 0 1 106.2-73.7 88.7 88.7 0 0 0-49.7-15.2z"/><path d="M297.1 183.2l-37.4-19.5 11 40-25-33.5-7.8 40.7-7.7-40.7-25.1 33.4 11.2-40-37.6 19.5 28-31.3-42.5 1.6 39-16.3-39-16.5 42.5 1.7L178.9 91l37.4 19.5-11-40 25 33.5 7.8-40.7 7.7 40.7 25.1-33.3-11.2 39.9 37.6-19.4-28 31.2 42.5-1.6-39 16.4 39 16.5-42.5-1.8z"/></g></g></svg>