<svg width="800" height="480" xmlns="http://www.w3.org/2000/svg"><g fill="none" fill-rule="evenodd"><path fill="#009A00" d="M0 0h800v150H0z"/><path fill="#FFF" d="M0 150h800v15H0z"/><path fill="#000" d="M0 165h800v150H0z"/><path fill="#FFF" d="M0 315h800v15H0z"/><path fill="#FFCA00" d="M0 330h800v150H0z"/><path fill="red" d="M0 0v480l315-240z"/><path fill="#FFCA00" d="M186.094 312.188l-48-35.157-48 35.156 18.656-56.53-48.281-34.782 59.531.188 18.094-56.625 18.187 56.718 59.531-.281-48.28 34.781z"/><path d="M96.375 272.719h34.688c2.812 3.094 8.906 4.406 14.812 0 10.875-6 31.875 0 31.875 0l4.125-4.406-10.031-33-3.656-3.938s-7.782-4.688-22.5-3.094c-14.72 1.594-19.875-.469-19.875-.469s-12.844 1.5-16.5 3.375l-4.126 4.125-8.812 37.407z" stroke="#000" stroke-width="1.031" fill="#FFF" stroke-linecap="round" stroke-linejoin="round"/><path d="M103.406 264.188s33-4.125 42.563 8.53c-5.344 3.75-10.125 4.032-15.188.282.75-1.406 11.813-12.938 40.031-9.094" stroke="#000" stroke-width="1.031" stroke-linecap="round" stroke-linejoin="round"/><path d="M138.75 231.188l-.281 36.375m29.719-35.907l6.187 28.969" stroke="#000" stroke-width="1.125"/><path d="M109.688 231.188l-3.47 15" stroke="#000" stroke-width="1.031" stroke-linecap="round" stroke-linejoin="round"/><path d="M73.969 276.656l8.062 9.563c.938.562 1.875.562 2.719 0l12-14.438 5.063-6.281c.843-.938 1.03-1.969.937-2.813l9.75-8.718 2.063.187c-.938-.187-1.594-.656-.938-1.687l2.25-1.688 1.688 2.156s-2.438 3.188-2.72 3.188h-2.624l-5.063 4.594 2.25 1.875 3.281 9.187 4.126-2.906-2.626-9.375 5.72-6.281-2.157-3.375 1.5-1.875s19.969 12.562 27.75 9.187c.188 0 .469-9 .469-9s-20.813-2.156-21.281-6.281c-.47-4.125 4.687-4.688 4.687-4.688l-2.25-3 .469-1.687 3.656 4.5 8.156-6.938L189.187 285c2.625-1.031 3.188-1.688 3.375-4.313l-47.25-54.28 3.563-3.845c.75-.843.938-1.125.938-2.437l5.625-4.781a6.844 6.844 0 0 1 3.562 2.812l15.375-12.844c.375.375 1.594.75 2.438.375l25.218-24.28-27.469 19.405-.937-.656c0-.844.938-.937 0-2.437-1.125-1.313-2.719 1.219-2.906 1.219-.281 0-4.031-1.313-4.875-3l-.188 4.406-7.031 6.562-5.344-.281-7.687 7.5-.938 2.813 1.219 2.53s-4.125 3.563-4.125 3.376c0-.281-.844-1.125-.938-1.219l3.563-3.188.469-2.156-1.125-1.875c-.375.281-4.875 5.063-5.156 4.5l-13.125-14.531.75-2.719-8.157-8.906c-3-1.031-7.781-1.219-8.719 5.344-.75 1.5-6.937.187-6.937.187l-3.375.75-19.125 26.906 10.594 12.75 21.75-27.468.656-7.781 4.5 5.062c1.594.188 3 .281 4.406-.469l12.844 14.344-2.156 2.156 1.875 2.063 2.25-1.5.844 1.219c-1.032.562-1.875 1.406-2.907 1.968-1.687-1.125-3.375-2.531-3.281-4.687l-7.219 6-.281 1.125-21.469 17.812-1.875.281-.469 5.625 13.97-11.625v-1.687l1.406 1.219 10.874-8.719s.75.938.47.938c-.282 0-9.657 8.718-9.657 8.718l-.188.938-1.687 1.5-.938-.75-13.124 11.625h-1.876l-7.218 7.219c-1.875.187-3.469.375-5.063 1.406L73.97 276.656z" stroke="#000" stroke-width="1.031" fill="#000" stroke-linecap="round" stroke-linejoin="round"/></g></svg>