<svg width="800" height="480" xmlns="http://www.w3.org/2000/svg"><g fill="none" fill-rule="evenodd"><path fill="#FFF" d="M0 0h800v480H0z"/><path fill="#3662A2" d="M0 .2L.92 345 620 0z"/><path fill="#38A100" d="M800 479.8L798.384 120 172 480l627.885-.2z"/><path fill="#C70000" d="M1.062 371.8L1.524 480l135.681-.1 662.24-384.5-.808-94.1-133.95-1L1.063 371.7z"/><path fill="#FFE700" d="M157.3 184l-21.8-13.2-12.6 22.1-12.2-22.2-22 12.9.6-25.4-25.4.2 13.2-21.8L55 124.1l22.2-12.3-12.8-22 25.4.6-.1-25.5 21.7 13.2L124 56l12.2 22.2 22-12.9-.6 25.4 25.4-.2-13.2 21.8 22.1 12.5-22.2 12.3 12.8 22-25.4-.6z"/><path d="M170.2 124.2c0 25.6-20.9 46.3-46.6 46.3-25.7 0-46.6-20.7-46.6-46.3C77 98.6 97.8 78 123.6 78s46.6 20.7 46.6 46.2z" fill="#3662A2"/><path d="M160 124.5c0 20.158-16.342 36.5-36.5 36.5S87 144.658 87 124.5 103.342 88 123.5 88s36.5 16.342 36.5 36.5z" fill="#FFE700"/></g></svg>