<svg width="800" height="480" xmlns="http://www.w3.org/2000/svg"><g fill="none" fill-rule="evenodd"><path fill="#FFF" d="M243.5 0h313v480h-313z"/><path d="M0 0h243.5v480H0V0zm556.5 0H800v480H556.5V0z" fill="#198200" fill-rule="nonzero"/><path d="M391.875 351.3v52.6l26.625.2s-8.5-45.8-3.875-52c4.625-6 9-5.2 9-5.2s17.375 4.2 19.25 3.5c1.875-.6-.25-5.2 9-4.6 3-.9 1.375-5 4.125-5.2 2.75-.3 55.625 11.8 67.125.4-3-6.4-13.375-.5-16.125-.2-2.5 0-12.875-4-18.875 0-5.5-3.3-30.5-5.5-30.5-5.5-3.25-2.6 59.5 1.3 63.125-.7 7.375-5.9-13.75-5.2-17-3.3-5.402-2.608-12.093-2.835-17.75-.6-2.125-4.1-22.5-2.4-33.75-3.5-3.75-1.7-3.125-2.7-.625-3.8 23.75.8 47.25 3.3 71 2.5 6.375-6.7-8.125-9.3-17-3.5-5.25-7-15.875-.3-23-1-7.125-.6-3.75-7.6 5.25-6.5 9 1 25.125-.4 28.125-3.7 3-3.3-1.75-6.7-16.625-3.5-5-4-16.25 0-21.375 1.3-7-3.1-23.125-.5-28.5.6-5.375-2.6 28.125-7 28.125-7 13-.2 20.375-2 24.375-2.8 19.625-8.4-.25-9.3-10.5-3.2-6.375-4-12.5.3-18.25 1.8a58.822 58.822 0 0 1-16.75 2c0-.6 15.75-8.3 15.75-8.3s19.125-1.1 23-1.5c3.75-.5 23.5-8.5-3.375-3.1-9.25.6-14.75.2-18.375.4-20.625-1.7 2-3.3 2-3.3s29.25-2.1 29.625-3.3c.5-9-23.875-4.8-24.125-4.8 0-6.5-22.75.2-22.75 0-4.375-2 2.5-4.1 2.5-4.1 6-1.2 15-1.6 17.375-3.1 0 0 17-.1 19-3.7-4.125-9.3-36 1.6-40.25 3.2-5.75 0 3.75-7.4 4.125-7.6.25-.3 26.25-1.1 38.625-14.5.875-8.1-14.5 4.6-14.5 4.6-1.25-10.6-16.75.7-25.75 1.5-9.125 1-9.375-3.3-3.125-4 6.25-.6 13.5-.1 17-7.8 3.625-7.7 14.25.4 16.25-2.4 1.875-2.9-3.875-5.3-3.875-5.3s8-6.6-5-6.3c-12.75.2-29.5-1.4-29.5-1.4s13.375-4.1 26-4c12.5.3 5.75-7.1-6.25-7.1-12.125 0-18.375-3.3-18.375-3.3L473 205l-1.25-4.6s12-7.7-5-5.9l-19 2-34.25 4.1c-.25 0-9.25-2.2-.5-4 8.75-1.8 39.75-6.7 44.375-5.4 4.625 1.3-.5-9.2-17-10.5C424 179.4 413.75 184 413.75 184s-10.625-3.1-.75-5.7c9.875-2.7 25.5.9 25.5.9s17.5-4.2 3-6c-14.5-1.7-19.125 1.6-25.75 1.8-2.625-2.7 22.75-3.3 24.375-5.5-2.75-4-18.5 0-27.75 0-3.75-1.3-4.125-3.5.375-4.8 9.375-.3 18.25.1 27.625-.2-.25-4 0-8.7-.25-12.8-12-1.7-26 1.3-32.625 1 1.75-4.3 27.5-5.5 30.375-6.7 6-6-25.125 0-25.5 0-5.375-.6-5-3.4-1.625-5 8-.7 25.75 1 24.5-3.4-1-4-12.5-1.9-17-1-4.75.9-11.625.2-11.625.2-2.875-3.2 26.875-1.9 26.625-4.4-.375-2.8-18.875-.8-25.25-.6-4.875-2.7 23.75-4.5 24.125-4.8 1.125-7.3-19.125 0-23 0-3.75 0-1.875-4.6-1.875-4.6s7.875-2.9 7.625-3.3a31.97 31.97 0 0 0-6.5-2c-.625 0 0-5 0-5s6.5-4 6-5.1c-.625-1.1-7.75.9-7.75.9v-4.4s5.25-.4 5.75-2.4c.625-2-6.25-2.2-6.25-2.2l-2.75-23-2.5 21.5-9 1s6.25 2.9 7.5 5.8c1 2.8-7.75 2-7.75 2s7.125 4.8 7.625 6.5c.625 1.8-9.875 2.2-9.875 2.2s8.75 5 9.375 7.9c.5 2.8 0 4.4 0 4.4s-14.5-10.1-23.75-7.3c-5 2 11 3 21.5 10.3 0 1.7-25.625-5-26.5-.8.5 1.1 27.375 4.2 29.25 7-9.75.3-30-1.7-29.25.9-2.125 3 19 1.3 27.875 3.7 2.625 2.4 2.375 4.4-2.125 4.6-8.625-3.3-27.625-5.7-27.75-1.5.125 1 19.75.4 26.875 4.1-9.5 1.8-41.75-3.5-41.875-1 .875 1.3 6 6.5 14.75 6.3 8.75-.2 29.125 2.8 30.5 5 1.25 2.2-26.375-4.6-36.75-.6-10.5 4 29.875 1.5 36.375 6.3 6.625 4.9-13.125-.4-13.125-.4s-27.5-3-31.5-1.5c-4.125 1.5-8.75 5-8.75 5s2.75 4.4 5.5 3.5c2.75-.9-.875 2.7-.875 2.7s38.375 7.4 46.875 14-48.75-10.3-48.75-10.3-23.125 6.8 1.25 7.2c-2.75 3.3 1.5 5.3 1.5 5.3s40.5 6.8 44.625 12c4.125 5.3-27.625-5-34.875-7.9-7.125-2.8-27.375 1.8-27.125 2.9.375 1 10 2.6 10.125 4.6.375 2-11.75 2.6-11.75 4.4 0 1.7 51.25 10.3 65 19.5s-40.25-11-40.25-11 3 3.3 0 4.2c-3.125.9-13.75-12.3-31.25-4.2-3.25 3.4 15.25 6 20 6.4-1.625 3.3-3 4.4 3.5 7.7s-12.875-4.8-12.875-4.4l1.375 5.7c-6-4-13.375-5.1-20.25-1.1 0 0-.25 4 6.875 6.4-3.875 6.3 4.375 4.3 17.5 10.3-19.5-4.1-21.125 3.5-7.125 5.2 14 1.7 52.375 2.9 61.375 12.3 9.125 9.4-12.875-3.6-15.375-4-.5.3-1 4.9-1 4.9-5.875-2.7-11.25-5.2-18.25-6.3-.625.9-.375 2.1-1 3-6.25-3.7-11.875-6.2-21.125-6.6L337 257.2s-7.625-7.7-22.75 0c-8.375 4.9 31.875 1.8 38.375 7.5 6.625 5.7 1.375 6.6 1.375 6.6l-16.375-4.9s-19.5-2.8-25 .7 80 12 82.5 21.5c1.75 5-20-5.4-38.875-9.9l-2.25 5s-7.5-6-15.875-7c-.25 0 1.625 6 1.625 6s-21-8-31.75-3.8c-10.625 4.2 37.25 6.4 41.625 10.3 4.375 4-14.5-2.6-16.25 0-1.5 2.7-24.875-4.8-24.5-1.3.25 3.5 3.25 5.5 3.25 5.5s48.5 3.7 50.125 8.3c1.625 4.6-26.875-2.6-26.875-2.6s-2.75 3.3-.5 4.8c2.125 1.6-16.5-8.7-14.75-2-6.125-1.9-21.75-7.8-19.5-3.2 2.125 4.6 44.125 11.2 44.125 11.2s-18.375 1-17.5 4.8c-23.75-11.5-23.125-4.2-22.5-4 .5.2-30.5-6.1-7.125 4s12.5 8.3 12.875 8.5c.25.2 2.5 5 1.875 5-.5 0-15.875-6.5-21.125-7-5.125-.4-29.875 5.5-3.5 14.8s42.5-2.2 57-1c14.5 1.4 21.25 3.4 20 7-1.375 3.8-14.875-12.1-29 1.7-16.25-2.6-27.125-4-18.75 5.4-26.25-7.9-42.5 2.4-9.25 6.6 32.5.8 52.5-6.4 52.5-6.4s5.625 8.1 13.5 2.4c8-5.7 8.25 2.2 8.5 2.2l7.75-2.6h1.875z" stroke="#000" stroke-width=".7" fill="#198200" stroke-linecap="round" stroke-linejoin="round"/><path d="M395 320.2v-3.7s-10.25-1.5-15.375-.7c-2.875-1.3-5.75-3.1-9.375-1.6-.625 1.2 6.625 4.3 9 4.3a63.472 63.472 0 0 0 15.875 1.7H395zm0 6s-10.375-3.1-14.5.4c.625 3.7 12.125 5.5 14.625 4.5 2.375-1 0-4.8-.125-5v.1zm17.5 1.4v2.6s12.25 1.9 14.5-.2c2.125-2.1-10-3.5-14.625-2.4h.125zm-.625-10.2l.375 2.9s10.75 1.9 14.875-2.8c4.125-4.7-9.375 0-15.25-.1zm.5-10v2s8.125 1 10-1.8c1.75-2.8-9.75 0-10-.2zm-16.75-6c-1.25-1.3-5.625-4.8-17.25-5.8-8.125 0 14.625 9.5 17.25 5.9v-.1zm16.5-9.7l-.25 2.7s27.5-6.6 33.875-6.1c5.75-1.3 7-4.5 6.75-4.5-5-2.9-28.625 2.3-40.375 7.9zm.625-7.8l-.375 2.6s19.375-3 24.625-6c5.125-3-24 3.5-24.25 3.4zm-.75-7.6v2.6s12.875-.4 15.625-2.4c1.625-2.1-11.5-.3-15.625-.2zm27 21.7s6.75.8 8-.8c-.25-2.8-8 1-8 .8zm-26.5-31.4l.125 5.7s31.125-7.9 33.125-9.3c1.875-1.5 6.25-6-33.25 3.6zm-.875-7.9v4.2s12.5-.8 18.25-4.5c5.75-3.8-18.25.4-18.25.3zm-15-9.3l.75 3.7-41.125-10.6c.125 0-2-5.4 40.375 6.9zm.625-13.3c0 .4 0 3.6-.25 3.5 0 0-28.5-9.5-29.625-8.7-3.75-7 30 5.4 30 5.2h-.125zm13.875 6l.5 3.1s17.5-2.9 18.5-4.3-19 1.2-19 1.1v.1zm.375 7.4c.25.7.5 3.3.5 3.3s7-.5 8.125-1.8c1-1.3-8.625-1.5-8.625-1.5zm-1-17v3s19.25-3 21.25-4.4c2.125-1.5-21.625 1.4-21.25 1.4zm0-8.5c0 .2-.625 3.1-.125 3.1s23.25-3 26.875-5.7c3.5-2.5-26.25 2.9-26.625 2.6h-.125zm-.25-14.9v3.3s14.75-2.5 17.5-5-17.5 2-17.5 1.7zm-2.5-21.6l.25 4.8s20-2.2 22.75-4.8c2.875-2.7-23.125 0-23 0zM398.5 151v3s-9.375-.3-7.125-1.6 7.125-1.1 7.125-1.4zm8.75 4l.25 4.2s12.125-1 13-2.5c1-1.5-13-1.6-13.25-1.6v-.1zm-.75 6s.25 2.6.5 2.6 4.875-.3 5.875-1.3-5.875-1-6.25-1.3h-.125zm-10.25 11.8c0 .3.375 4 0 3.8-.375-.2-26.5-6.1-29-6-2.375 0-3-4.9 29 2.2zm2.125 6.9c0 .7.625 4.6-.375 4.4-.875-.2-17.875-4.5-16.125-5.8 1.75-1.3 16.5 1.7 16.5 1.4zm-1.5 29l.125 3.5s-29.625-7.2-30.625-8.4c-1-1.2-3.875-6.8 30.5 4.9zm1.25 8.5v3.3l-40.25-11.3s-3.25-8.4 40.125 8h.125z" stroke="#000" stroke-width=".8" fill="#FFF" fill-rule="nonzero" stroke-linecap="round" stroke-linejoin="round"/><path d="M350.375 328.7l-.25 3.5s-7.75-1.8-10.25-5.3c4.5-1 10.625 1.9 10.5 1.8z" stroke="#000" stroke-width=".8" fill="#FFF" stroke-linejoin="round"/></g></svg>