<svg width="800" height="480" xmlns="http://www.w3.org/2000/svg" xmlns:xlink="http://www.w3.org/1999/xlink"><defs><path id="a" d="M52 0L0 90h104z"/><linearGradient x1="36.759%" y1="75.51%" x2="55.959%" y2="17.347%" id="c"><stop stop-color="#510000" offset="0%"/><stop stop-color="#8A0000" offset="30%"/><stop stop-color="#A00" offset="100%"/></linearGradient><linearGradient x1="63.348%" y1="65.821%" x2="78.62%" y2="18.882%" id="d"><stop stop-color="#FF2A2A" offset="0%"/><stop stop-color="red" offset="100%"/></linearGradient><linearGradient x1="0%" y1="-299.079%" x2="171.081%" y2="-299.079%" id="e"><stop stop-color="#025" offset="0%"/><stop stop-color="#04A" offset="50%"/><stop stop-color="#025" offset="100%"/></linearGradient><linearGradient x1="-6.174%" y1="217.391%" x2="186.032%" y2="217.391%" id="f"><stop stop-color="#025" offset="0%"/><stop stop-color="#04A" offset="50%"/><stop stop-color="#025" offset="100%"/></linearGradient><linearGradient x1="-15.141%" y1="520%" x2="207.746%" y2="520%" id="g"><stop stop-color="#025" offset="0%"/><stop stop-color="#04A" offset="50%"/><stop stop-color="#025" offset="100%"/></linearGradient><linearGradient x1="-21.173%" y1="44.545%" x2="-21.173%" y2="62.424%" id="h"><stop stop-color="#F5F549" offset="0%"/><stop stop-color="#97C924" offset="100%"/></linearGradient><linearGradient x1="26.9%" y1="44.377%" x2="26.9%" y2="62.31%" id="i"><stop stop-color="#F5F549" offset="0%"/><stop stop-color="#97C924" offset="100%"/></linearGradient><linearGradient x1="58.367%" y1="44.545%" x2="58.367%" y2="62.424%" id="j"><stop stop-color="#F5F549" offset="0%"/><stop stop-color="#97C924" offset="100%"/></linearGradient><linearGradient x1=".01%" y1=".394%" x2="100.124%" y2=".394%" id="k"><stop stop-color="#025" offset="0%"/><stop stop-color="#04A" offset="50%"/><stop stop-color="#025" offset="100%"/></linearGradient><linearGradient x1=".349%" y1="2.52%" x2="99.648%" y2="2.52%" id="l"><stop stop-color="#025" offset="0%"/><stop stop-color="#04A" offset="50%"/><stop stop-color="#025" offset="100%"/></linearGradient></defs><g fill="none" fill-rule="evenodd"><path fill="#0067C6" d="M0 0h800v480H0z"/><path fill="#FFF" d="M0 160h800v160H0z"/><path d="M328 239.5l8 .5v-1.2l-3-.2.2-3.8 3.3-2.4.1-1.5-3.5 2.5c-.1-.8-.6-1.7-1.4-2-.8-.2-1.6-.2-2.3.3-.8.6-1 1.6-1 2.5l-.4 5.3zm1.2-1.1l.3-4c.1-.6.2-1.4.8-1.8a1 1 0 0 1 1.5.5c.4 1 .2 2.1.1 3.2l-.1 2.2-2.6-.1zm-.2-11.2l7.8 1.8 1.8-7.6c-.367-.066-.734-.132-1.1-.2l-1.5 6.4-2.4-.5 1.4-5.8-1.1-.3-1.4 5.8-2-.5 1.4-6.2-1.2-.2-1.7 7.3zm2.8-10.5l7.6 2.7.4-1.1-3-1 1.2-3.5c.2-1 .4-2-.1-3a2.5 2.5 0 0 0-2-1c-1 0-1.6.7-2 1.5-.6 1-1 2.2-1.3 3.4l-.8 2zm1.5-.7l1.2-3.4c.3-.6.6-1.3 1.3-1.5a1 1 0 0 1 1.2.9c.2 1-.3 2-.6 3l-.7 1.9-2.4-.9zm2.7-9l4.3 2.6c.8.4 1.8.6 2.7.2a6.5 6.5 0 0 0 2.4-3c.4-1 .8-2.2.2-3.2-.6-1-1.7-1.4-2.7-2l-2.7-1.6-.6 1 4 2.4c.7.4 1.2 1 1.1 1.9a6 6 0 0 1-1.2 2.5c-.4.6-1.2 1.1-2 1-.8-.2-1.5-.8-2.2-1.2l-2.7-1.5-.6 1v-.1zm5.8-9.3l6.3 4.8 3-3.8c.6-.9 1-2 .7-3a2.5 2.5 0 0 0-2-1.4c-.5 0-1 .3-1.2.4.2-.9-.5-1.7-1.2-1.9-1-.3-2 .3-2.6 1l-2 2.5-1 1.4zm1.6-.3c.7-1 1.4-2 2.2-2.8.4-.4 1-1 1.5-.6.5.2.7.9.4 1.3-.4.9-1 1.5-1.6 2.3l-.8 1.1-1.7-1.3zm2.6 2l2.3-3c.4-.4 1-1 1.6-.8.6.1 1 .7.8 1.3-.3 1-1.1 1.8-1.8 2.7l-1 1.3-2-1.5h.1zm3-10.2l5.5 5.8 4.7-4.5-.8-.8-3.8 3.6h-.1l-4.7-5-.8.9zm7-6.2l4.9 6.3 1-.7-5-6.3-.9.7zm7.2-4.9a6.7 6.7 0 0 0-2 1.8 3.6 3.6 0 0 0-.1 4.2 4.1 4.1 0 0 0 1.6 1.5 3.6 3.6 0 0 0 2 .4 6.5 6.5 0 0 0 2.7-1 5.4 5.4 0 0 0 2-2c.4-.8.5-1.6.3-2.4l-1 .4c.2 1.6-.8 2.4-2 3-1.8 1.2-3.5 1.1-4.6-.5-1.1-1.9 0-3.4 1.6-4.4 1.1-.7 2.2-1.2 3.2-.5l.9-.8a3.2 3.2 0 0 0-2-.6c-.9 0-1.7.4-2.6 1v-.1zm9.5-4.7l-.9 9 1.3-.5.2-2.8 4-1.6 2.2 1.8 1.2-.5-6.8-5.9-1.2.5zm1 1l2.7 2.2-3 1.2.3-3.5v.1zm16.5-6l.5 8 4.3-.2c1.2-.2 2.4-.4 3.1-1.4 1-1 1.2-2.7.7-4.1a3.5 3.5 0 0 0-2.7-2.4c-1.2-.2-2.4 0-3.6 0l-2.3.2v-.1zm1.2 1.1l3.5-.1a3 3 0 0 1 1.8.5c.8.6 1.3 1.5 1.2 2.5a2.7 2.7 0 0 1-2 2.4c-.6.2-1.3.2-1.9.3l-2.2.1-.4-5.7zm10-1.5l-.5 8 7.8.4v-1.1l-6.6-.4.1-2.4 6 .3v-1.1l-5.9-.3.1-2.2 6.4.4v-1.2l-7.5-.4h.1zm20.8 3.3l-2.9 7.5 1 .4 2.4-6v-.2l.2.3 2.8 8 1.3.5 2.9-7.5-1-.4-2.3 6-.1.2-.2-.3-2.7-8-1.4-.5zM433 176l-3.7 7-1-.5 3.6-7.1 1.1.6zm6 3.5a6.7 6.7 0 0 0-2.4-1 3.6 3.6 0 0 0-4 1.5 4.1 4.1 0 0 0-.6 2.1c0 .7.1 1.4.6 2.1.4.7 1 1.3 2 2a6 6 0 0 0 2.7 1 3.5 3.5 0 0 0 2.2-.7l-.8-.9c-1.4 1-2.5.3-3.6-.4-1.8-1.2-2.5-2.8-1.4-4.5 1.2-1.8 3.1-1.3 4.7-.3 1 .7 2 1.5 1.8 2.7l1 .4a3.2 3.2 0 0 0-.3-2c-.4-.8-1-1.4-1.9-2zm7.6 5.7l-8.3 3.4 1 .9 2.6-1 3.3 2.8-.7 2.7 1 .9 2.1-8.8-1-.9zm-.3 1.4l-.8 3.4-2.5-2 3.3-1.4zm6.4 4.2l-6.2 5 .7 1 2.5-2 2.4 3-.7 4 .9 1.1.8-4.2c.7.5 1.7.8 2.5.4.7-.4 1.4-1 1.4-1.8 0-1.1-.7-2-1.3-2.8l-3-3.7zm-.2 1.6l2.6 3.2c.4.6.9 1.4.4 2-.3.6-1.1.6-1.6.2-1-.7-1.6-1.7-2.4-2.6l-1-1.1 2-1.7zm9.5 11.1l-9 .4.7 1.2 2.8-.1 2.2 3.8-1.6 2.3.7 1.2 4.9-7.6-.7-1.2zm-.7 1.2l-2 3-1.5-2.8 3.5-.2zm5.9 9.4c-.5-1.3-1.3-2.7-2.7-3.4a3.8 3.8 0 0 0-4.5 1c-1 1-1 2.5-.7 3.9.3 1.5 1 3 2 4.1l-.6.2.4 1.1 3.8-1.3-1.5-4.1-.8.3 1 3-1.2.5a7 7 0 0 1-2.1-3.8c-.3-1.1-.3-2.4.5-3.2 1-1 2.6-1.3 3.7-.5s1.7 2.1 2 3.4c.3.9.2 1.9-.4 2.6-.2 0 0 .3.1.4l.3.5a2.8 2.8 0 0 0 1.1-2.2 7 7 0 0 0-.4-2.5zm2.3 6.3l-4.5.8a4.1 4.1 0 0 0-1.9.8 2.5 2.5 0 0 0-.8 1.5v2.4c.3 1 .6 1.7 1 2.3.3.6.7 1 1.2 1a4 4 0 0 0 2 0l4.5-.8-.2-1.1-4.4.8c-2 .4-2.6-.6-3-2.4-.3-1.8 0-3 1.9-3.3l4.4-.9-.2-1.1zm2.4 13.6l-8.3-3.6.1 1.4 2.6 1 .3 4.4-2.4 1.5.1 1.3 7.7-4.7-.1-1.3zm-1.2.7l-3 1.9-.2-3.2 3.2 1.3zm-136.5 20l-1.2.3 1.3 4.9 1.2-.3-1.3-4.9zm131.6 0l1.2.3-1.3 4.9-1.2-.3 1.3-4.9zm-119.2 20.5l-9 1 .8 1.1 2.8-.3 2.4 3.6-1.4 2.5.8 1 4.3-7.8-.7-1.1zm-.7 1.3l-1.7 3-1.8-2.6 3.5-.4zm4.1 3.6l-5.7 5.3.8.8 4.8-4.5-2.6 7 1 .9 6.8-2-4.7 4.3.8.8 5.7-5.3-1.2-1.2-7 2 2.6-6.7-1.3-1.4zm8.3 8.4l-4.8 6.5 6.2 4.6.7-.9-5.3-4 1.5-2 4.7 3.7.7-1-4.7-3.5 1.3-1.7 5 3.8.7-1-6-4.5zm7.8 5.8l-3.7 7 1 .6 1.5-2.8 3.4 1.8.8 4 1.3.7-.9-4.2c.9.3 2 .1 2.5-.6.5-.6.9-1.3.6-2.1-.2-1-1.3-1.6-2.1-2.1l-4.4-2.3zm.5 1.5l3.6 2c.6.4 1.3.9 1.2 1.6 0 .7-.7 1-1.3.9-1.2-.2-2.2-.9-3.2-1.4l-1.5-.8 1.2-2.3zm8.6 3.2l-3 7.4 1 .5 3-7.4-1-.5zm7.2 2.5a6.7 6.7 0 0 0-2.6-.4 3.6 3.6 0 0 0-3.4 2.6 4.1 4.1 0 0 0 0 2.1c0 .8.4 1.4 1 2a6 6 0 0 0 2.4 1.3 5.4 5.4 0 0 0 2.9.2 3.4 3.4 0 0 0 2-1.2l-1-.6c-1 1.3-2.3 1-3.6.5-2-.7-3.1-2-2.5-4 .7-2 2.7-2 4.4-1.5 1.2.4 2.3 1 2.4 2.1l1.2.2a3.2 3.2 0 0 0-.9-2 5.4 5.4 0 0 0-2.3-1.3zm8 1.8l-5.2 7.3 1.3.2 1.6-2.3 4.4.7.9 2.6 1.3.2-3-8.5-1.3-.2zm.5 1.3l1.2 3.4-3.2-.5 2-2.9zm18.3-1.2c-1 .1-1.7.4-2.4.9a3.6 3.6 0 0 0-1.7 3.9c.1.7.4 1.3 1 2 .4.5 1 .8 1.8 1 .7.2 1.7.2 2.8 0 1-.2 2-.6 2.6-1.2a3.4 3.4 0 0 0 1.1-2h-1.2c-.3 1.6-1.5 2-2.8 2.2-2.1.4-3.7-.3-4.1-2.3-.4-2.1 1.3-3.1 3-3.5 1.3-.2 2.5-.3 3.2.7l1-.4a3.2 3.2 0 0 0-1.6-1.3 5.4 5.4 0 0 0-2.7 0zm5.3-1l2.3 7.7 7.5-2.2-.4-1.1-6.3 1.9-.7-2.4 5.7-1.7-.3-1-5.7 1.6-.6-2 6-1.8-.3-1.1-7.2 2.1zm8.7-2.7l3.3 7.3 1-.5-2.8-6 7.8 3.5h.5l1-.5-3.4-7.3-1 .5 2.8 6-8-3.6-1.2.6zm8.8-4.1l.6 1 2.8-2h.2l3.7 5.7 1-.7-3.7-5.6v-.1l2.9-2-.6-.9-6.9 4.6zm8-5.6l5.4 6 .9-.9-2.1-2.3 2.8-2.6 4 .6 1.2-1-4.3-.6c.5-.7.7-1.8.2-2.6-.4-.7-1-1.3-1.9-1.2-1 0-2 .8-2.7 1.4l-3.5 3.3v-.1zm1.6.1l3-2.8c.6-.4 1.4-.9 2-.5.7.3.7 1.1.3 1.6-.6 1-1.5 1.7-2.4 2.6l-1.1 1-1.8-2v.1zm7.7-9.4l3.6 8.3.8-1-1-2.6 2.7-3.4 2.7.6.9-1-8.8-2-.9 1.1zm1.4.3l3.5.7-2 2.5-1.5-3.2zm2.1-4.8l6.7 4.3 3.5-5.4-1-.6-2.7 4.3-.1.2h-.1l-5.7-3.8-.6 1z" fill="#C8A400" fill-rule="nonzero"/><g transform="translate(348 180)"><mask id="b" fill="#fff"><use xlink:href="#a"/></mask><g mask="url(#b)"><path fill="#FFF" d="M52 1.12l-25.2 43.6-12.32 21.36h75.04L77.76 45.76 52 1.12z"/><path stroke="#17C0EB" stroke-width=".5" fill="#17C0EB" opacity=".6" d="M52 1.12l-1.92 3.2 1.92 44 1.92-44z"/><path fill="#FFF" d="M52 42h-.08l.08 2.4.08-2.4z"/><path stroke="#17C0EB" stroke-width=".5" fill="#17C0EB" opacity=".6" d="M96.966 33.79l-3.637-.837-41.253 15.422 42.44-11.77z"/><path fill="#FFF" d="M58.087 46.422l-.025-.076-2.258.818 2.307-.666z"/><path stroke="#17C0EB" stroke-width=".5" fill="#17C0EB" opacity=".6" d="M79.79 86.65l-.327-3.717-27.416-34.468 24.31 36.725z"/><path fill="#FFF" d="M55.762 53.578l.065-.047-1.476-1.895 1.346 1.989z"/><path stroke="#17C0EB" stroke-width=".5" fill="#17C0EB" opacity=".6" d="M24.21 86.65l3.434-1.46 24.309-36.725-27.416 34.468z"/><path fill="#FFF" d="M48.238 53.578l.065.047 1.346-1.989-1.476 1.895z"/><path stroke="#17C0EB" stroke-width=".5" fill="#17C0EB" opacity=".6" d="M7.034 33.79l2.45 2.815 42.44 11.77L10.67 32.953z"/><path fill="#FFF" d="M45.913 46.422l-.024.076 2.307.666-2.258-.818z"/><path stroke="#17C0EB" stroke-width=".5" fill="#17C0EB" opacity=".6" d="M58.58 1.58l-2.347 2.902-4.222 43.839 8.025-43.305z"/><path fill="#FFF" d="M52.89 42.062l-.079-.01-.254 2.387.413-2.366z"/><path stroke="#17C0EB" stroke-width=".5" fill="#17C0EB" opacity=".6" d="M98.562 40.19l-3.485-1.335-42.998 9.531 43.665-5.75z"/><path fill="#FFF" d="M58.303 47.289l-.014-.08-2.35.496 2.378-.338z"/><path stroke="#17C0EB" stroke-width=".5" fill="#17C0EB" opacity=".6" d="M74.197 90.146l.193-3.727L52.038 48.47l18.961 39.75z"/><path fill="#FFF" d="M55.005 54.05l.07-.037-1.197-2.081 1.056 2.156z"/><path stroke="#17C0EB" stroke-width=".5" fill="#17C0EB" opacity=".6" d="M19.157 82.41l3.604-.968 29.183-32.984-31.946 30.317z"/><path fill="#FFF" d="M47.554 53.004l.058.055 1.61-1.782-1.725 1.671z"/><path stroke="#17C0EB" stroke-width=".5" fill="#17C0EB" opacity=".6" d="M9.505 27.674l2.034 3.128 40.39 17.563L13.222 27.35z"/><path fill="#FFF" d="M46.248 45.594l-.035.072 2.192.98-2.122-1.123z"/><path stroke="#17C0EB" stroke-width=".5" fill="#17C0EB" opacity=".6" d="M65.032 2.952l-2.728 2.546-10.282 42.825L65.996 6.557z"/><path fill="#FFF" d="M53.764 42.248l-.077-.022-.584 2.329.738-2.285z"/><path stroke="#17C0EB" stroke-width=".5" fill="#17C0EB" opacity=".6" d="M99.251 46.75l-3.265-1.807-43.906 3.454 44.04.383z"/><path fill="#FFF" d="M58.396 48.177l-.003-.08-2.395.163 2.4-.003z"/><path stroke="#17C0EB" stroke-width=".5" fill="#17C0EB" opacity=".6" d="M68.17 92.829l.71-3.664-16.853-40.69 13.245 42.003z"/><path fill="#FFF" d="M54.189 54.414l.075-.027-.896-2.228.746 2.282z"/><path stroke="#17C0EB" stroke-width=".5" fill="#17C0EB" opacity=".6" d="M14.743 77.508l3.704-.457 33.49-28.602-35.855 25.576z"/><path fill="#FFF" d="M46.957 52.34l.049.063 1.842-1.54-1.94 1.414z"/><path stroke="#17C0EB" stroke-width=".5" fill="#17C0EB" opacity=".6" d="M12.803 21.961l1.58 3.382 37.55 23.012L16.53 22.16z"/><path fill="#FFF" d="M46.694 44.821l-.045.066 2.035 1.276-1.945-1.408z"/><path stroke="#17C0EB" stroke-width=".5" fill="#17C0EB" opacity=".6" d="M71.23 5.208L68.176 7.35 52.033 48.327l19.65-39.415z"/><path fill="#FFF" d="M54.603 42.553l-.073-.032-.903 2.225 1.05-2.16z"/><path stroke="#17C0EB" stroke-width=".5" fill="#17C0EB" opacity=".6" d="M99.021 53.342l-2.982-2.244-43.96-2.69 43.559 6.51z"/><path fill="#FFF" d="M58.365 49.069l.008-.08-2.395-.17 2.379.33z"/><path stroke="#17C0EB" stroke-width=".5" fill="#17C0EB" opacity=".6" d="M61.83 94.647l1.213-3.53-11.026-42.639 7.27 43.438z"/><path fill="#FFF" d="M53.33 54.66l.079-.016-.577-2.331.42 2.364z"/><path stroke="#17C0EB" stroke-width=".5" fill="#17C0EB" opacity=".6" d="M11.054 72.04l3.732.063L51.93 48.44 12.866 68.777z"/><path fill="#FFF" d="M46.457 51.6l.04.07 2.039-1.27-2.119 1.13z"/><path stroke="#17C0EB" stroke-width=".5" fill="#17C0EB" opacity=".6" d="M16.864 16.764l1.093 3.568 33.984 28.014-31.414-30.868z"/><path fill="#FFF" d="M47.244 44.118l-.054.059 1.837 1.546-1.73-1.665z"/><path stroke="#17C0EB" stroke-width=".5" fill="#17C0EB" opacity=".6" d="M77.055 8.304l-3.324 1.697-21.689 38.331 24.945-36.297z"/><path fill="#FFF" d="M55.391 42.972l-.067-.042-1.204 2.078 1.34-1.993z"/><path stroke="#17C0EB" stroke-width=".5" fill="#17C0EB" opacity=".6" d="M97.876 59.838l-2.64-2.637-43.158-8.782 42.228 12.508z"/><path fill="#FFF" d="M58.21 49.948l.02-.077-2.349-.503 2.31.658z"/><path stroke="#17C0EB" stroke-width=".5" fill="#17C0EB" opacity=".6" d="M55.298 95.565l1.692-3.326-4.984-43.76 1.154 44.028z"/><path fill="#FFF" d="M52.446 54.784l.08-.005-.247-2.389.088 2.4z"/><path stroke="#17C0EB" stroke-width=".5" fill="#17C0EB" opacity=".6" d="M8.163 66.111l3.686.582L51.926 48.43 10.41 63.132z"/><path fill="#FFF" d="M46.066 50.797l.03.075 2.195-.974-2.255.825z"/><path stroke="#17C0EB" stroke-width=".5" fill="#17C0EB" opacity=".6" d="M21.609 12.181l.586 3.686L51.95 48.339l-26.812-34.94z"/><path fill="#FFF" d="M47.886 43.497l-.061.052 1.604 1.787-1.482-1.89z"/><path stroke="#17C0EB" stroke-width=".5" fill="#17C0EB" opacity=".6" d="M82.391 12.181L78.863 13.4 52.051 48.34l29.754-32.472z"/><path fill="#FFF" d="M56.114 43.497l-.061-.051-1.482 1.89 1.604-1.787z"/><path stroke="#17C0EB" stroke-width=".5" fill="#17C0EB" opacity=".6" d="M95.837 66.111l-2.247-2.979L52.074 48.43l40.077 18.263z"/><path fill="#FFF" d="M57.934 50.797l.03-.074-2.255-.825 2.195.974z"/><path stroke="#17C0EB" stroke-width=".5" fill="#17C0EB" opacity=".6" d="M48.702 95.565l2.138-3.058 1.154-44.027-4.984 43.759z"/><path fill="#FFF" d="M51.554 54.784l.08.006.087-2.4-.247 2.389z"/><path stroke="#17C0EB" stroke-width=".5" fill="#17C0EB" opacity=".6" d="M6.124 59.838l3.57 1.089 42.228-12.508-43.157 8.782z"/><path fill="#FFF" d="M45.79 49.948l.02.078 2.309-.658-2.348.503z"/><path stroke="#17C0EB" stroke-width=".5" fill="#17C0EB" opacity=".6" d="M26.945 8.304l.068 3.731 24.945 36.297-21.689-38.331z"/><path fill="#FFF" d="M48.609 42.972l-.068.043 1.34 1.993-1.205-2.078z"/><path stroke="#17C0EB" stroke-width=".5" fill="#17C0EB" opacity=".6" d="M87.136 16.764l-3.663.714L52.06 48.346l33.984-28.014z"/><path fill="#FFF" d="M56.756 44.118l-.053-.06-1.73 1.665 1.837-1.546z"/><path stroke="#17C0EB" stroke-width=".5" fill="#17C0EB" opacity=".6" d="M92.946 72.04l-1.812-3.263L52.07 48.44l37.145 23.663z"/><path fill="#FFF" d="M57.543 51.6l.04-.07-2.119-1.13 2.039 1.27z"/><path stroke="#17C0EB" stroke-width=".5" fill="#17C0EB" opacity=".6" d="M42.17 94.647l2.543-2.731 7.27-43.438-11.026 42.64z"/><path fill="#FFF" d="M50.67 54.66l.078.017.42-2.364-.577 2.33z"/><path stroke="#17C0EB" stroke-width=".5" fill="#17C0EB" opacity=".6" d="M4.979 53.342l3.383 1.575 43.558-6.509-43.96 2.69z"/><path fill="#FFF" d="M45.635 49.069l.008.08 2.379-.33-2.395.17z"/><path stroke="#17C0EB" stroke-width=".5" fill="#17C0EB" opacity=".6" d="M32.77 5.208l-.453 3.704 19.65 39.415L35.825 7.35z"/><path fill="#FFF" d="M49.397 42.553l-.073.033 1.05 2.16-.904-2.225z"/><path stroke="#17C0EB" stroke-width=".5" fill="#17C0EB" opacity=".6" d="M91.197 21.961l-3.727.198-35.404 26.196 37.552-23.012z"/><path fill="#FFF" d="M57.306 44.821l-.045-.066-1.945 1.408 2.035-1.276z"/><path stroke="#17C0EB" stroke-width=".5" fill="#17C0EB" opacity=".6" d="M89.257 77.508l-1.34-3.483L52.064 48.45l33.49 28.602z"/><path fill="#FFF" d="M57.043 52.34l.05-.063-1.941-1.414 1.842 1.54z"/><path stroke="#17C0EB" stroke-width=".5" fill="#17C0EB" opacity=".6" d="M35.83 92.829l2.898-2.35 13.245-42.004-16.853 40.69z"/><path fill="#FFF" d="M49.811 54.414l.075.027.746-2.282-.896 2.228z"/><path stroke="#17C0EB" stroke-width=".5" fill="#17C0EB" opacity=".6" d="M4.749 46.75l3.13 2.03 44.041-.383-43.906-3.454z"/><path fill="#FFF" d="M45.604 48.177l-.003.08 2.401.003-2.395-.163z"/><path stroke="#17C0EB" stroke-width=".5" fill="#17C0EB" opacity=".6" d="M38.968 2.952l-.964 3.605 13.974 41.766L41.696 5.498z"/><path fill="#FFF" d="M50.236 42.248l-.077.022.738 2.285-.584-2.33z"/><path stroke="#17C0EB" stroke-width=".5" fill="#17C0EB" opacity=".6" d="M94.495 27.674l-3.718-.323-38.705 21.014L92.46 30.802z"/><path fill="#FFF" d="M57.752 45.594l-.035-.071-2.122 1.124 2.192-.98z"/><path stroke="#17C0EB" stroke-width=".5" fill="#17C0EB" opacity=".6" d="M84.843 82.41l-.841-3.635-31.946-30.317 29.183 32.984z"/><path fill="#FFF" d="M56.446 53.004l.057-.056-1.724-1.67 1.61 1.781z"/><path stroke="#17C0EB" stroke-width=".5" fill="#17C0EB" opacity=".6" d="M29.803 90.146l3.198-1.924L51.962 48.47 29.61 86.419z"/><path fill="#FFF" d="M48.995 54.05l.071.038 1.056-2.156-1.197 2.081z"/><path stroke="#17C0EB" stroke-width=".5" fill="#17C0EB" opacity=".6" d="M5.438 40.19l2.818 2.446 43.665 5.75-42.998-9.531z"/><path fill="#FFF" d="M45.697 47.289l-.014.078 2.378.338-2.35-.495z"/><path stroke="#17C0EB" stroke-width=".5" fill="#17C0EB" opacity=".6" d="M45.42 1.58l-1.456 3.436 8.025 43.305-4.222-43.84z"/><path fill="#FFF" d="M51.11 42.062l-.08.011.413 2.366-.254-2.388z"/><path d="M52 32.64a35.36 35.36 0 0 0-23.2 8.64L17.12 61.6a36 36 0 0 0-.64 6.64h4c.846-16.77 14.689-29.933 31.48-29.933S82.594 51.47 83.44 68.24h4a36 36 0 0 0-.56-6.64L75.2 41.28A35.44 35.44 0 0 0 52 32.64z" fill="red"/><path d="M52 33.36a34.8 34.8 0 0 0-24.24 9.76l-9.6 16.72a34.88 34.88 0 0 0-1.04 8.32h3.44C21.737 51.665 35.463 38.884 52 38.884s30.263 12.78 31.44 29.276h3.44a35.12 35.12 0 0 0-1.04-8.4l-9.6-16.64A34.8 34.8 0 0 0 52 33.36z" fill="#F60"/><path d="M52 34a34.16 34.16 0 0 0-25.6 11.44l-6.96 12a34.16 34.16 0 0 0-1.6 10.8h2.64c.846-16.77 14.689-29.933 31.48-29.933S82.594 51.47 83.44 68.24h2.8c0-3.76-.64-7.36-1.68-10.72l-7.04-12.08A34.08 34.08 0 0 0 52 34z" fill="#FF0"/><path d="M52 34.64a33.6 33.6 0 0 0-27.92 14.88l-2.24 3.92a33.44 33.44 0 0 0-3.44 14.8h2.16C21.737 51.745 35.463 38.964 52 38.964s30.263 12.78 31.44 29.276h2.16a33.44 33.44 0 0 0-3.44-14.8l-2.24-4A33.6 33.6 0 0 0 52 34.56v.08z" fill="#0F0"/><path d="M52 35.2a32.96 32.96 0 0 0-32.96 33.04h1.52C21.737 51.745 35.463 38.964 52 38.964s30.263 12.78 31.44 29.276h1.52A32.96 32.96 0 0 0 52 35.2z" fill="#0CF"/><path d="M52 35.84c-17.85 0-32.32 14.47-32.32 32.32h1.12c0-17.231 13.969-31.2 31.2-31.2s31.2 13.969 31.2 31.2h1.12C84.232 50.373 69.788 36 52 36v-.16z" fill="#00F"/><path d="M52 36.56A31.68 31.68 0 0 0 20.32 68.8h.64v-.64c.177-17.143 14.217-30.897 31.36-30.72 17.143.177 30.897 14.217 30.72 31.36h.64v-.64A31.68 31.68 0 0 0 52 36.48v.08z" fill="purple"/><path d="M52.32 50.48c-.56 0-.96-.4-1.44-.48a1.76 1.76 0 0 0-.56 1.68c.24.08.24.32.72.72.48.4.4.56.32 1.6 0 .32.08 1.2.48 1.28.4.08.8-.24.88-.96.08-.56.32-.96.56-1.28.24-1.52-.16-2.08-.96-2.56z" fill="#510000"/><path d="M49.76 46.8c-.48 0-1.28.8-1.6.4-.16-.24-.24-.72 0-1.12a3.84 3.84 0 0 1 1.76-1.84c1.84-1.12 3.12-.8 4 .8.88 1.44 1.76 3.04 1.84 4.32 0 .4.24 1.12-.16 1.52-1.04 1.12-3.68-1.2-5.2-.8-.48.08-1.12.48-1.6.16-.32-.24 0-.8.24-1.04.48-.4 1.2-1.92 1.12-2.56 0-.32 0 .16-.4.16z" fill="red"/><path d="M59.2 64.48c-.96.32-.8.8-1.28 1.2.16.08.64.24 1.12-.24.16-.16.4-.24.56-.24l-.56.56a4.16 4.16 0 0 0-1.12 1.44c-.24.64-.32 1.36-.24 1.44 0 0 .32.64 1.2.96 1.6.64 1.92 2 3.6 2 1.28 0 1.12-.88 2.16-.72.8.16 1.36-.56.48-.96a11.2 11.2 0 0 0-4.32 0c-.32-3.2 0-2.08-.08-3.52-.08-1.36-.56-1.44 0-2.64-.4.8-.96.64-1.6.64l.08.08z" fill="url(#c)" transform="translate(-9.6 -18.4)"/><path d="M52.8 43.84l-.08.48.24.8.16.8c0 .24.32.32.56.48.32.24 0 .8.24.88.16 0 .4-.8.4-.96v-.56a12.24 12.24 0 0 0-.4-.72 2.88 2.88 0 0 0-.16-.24 3.36 3.36 0 0 0-.64-.72 3.2 3.2 0 0 0-.24-.16l-.16-.08h.08z" fill="#FF2A2A"/><path d="M62.64 68.32l-1.6-.56c-1.04-.32-2.08-.96-2.8-.64-.24.08-.24.32-.32.72 0 .4-.4 1.04 0 .8.48-.32 1.92.64 2.4.88.24.16.8.48.88.8.16.48 0 1.44 0 1.92 0 .4.16 1.44.56 1.6.48.08.88-.32 1.04-1.04.24-.72.32-1.12.64-1.52.32-.4.64-.64 1.04-.72.48 0 1.12.4 1.12-.16 0-.32-.32-.64-.16-1.12.08-.4-.32-.32-.72-.48l-2.16-.48h.08z" fill="url(#d)" transform="translate(-9.6 -18.4)"/><path d="M50.72 51.12c-.32-.16-1.84-1.2-2.4-.8-.24 0-.32 0-.32-.24l.16-.72c0-.24.16-.64.4-.8.56-.48 1.84.4 2.48.64l-.32 1.92z" fill="#910000"/><path d="M53.44 53.12c.72-1.28 1.2-1.12 2.08-1.12.32 0 .4-.24.32-.56-.24.48-1.36 0-2 .24-1.2.56-.96 2.96-1.6 3.2.64.56.88-1.36 1.2-1.76z" fill="#FF3A3A"/><path fill="#FFF" d="M14.48 66.08l-8 13.84H97.6l-8-13.76H14.56z"/><g transform="translate(7.2 74.4)" fill="url(#e)"><path d="M4.56 2.72a28.8 28.8 0 0 0-3.76.24l-.4.72c1.92-.24 3.76-.56 5.76-.56 2.56 0 4.96.64 7.76.64h3.68c2.8 0 5.12-.64 7.76-.64 2.64 0 5.04.64 7.84.64h3.68c2.8 0 5.12-.64 7.76-.64 2.64 0 5.04.64 7.84.64h3.6c2.8 0 5.2-.64 7.84-.64 2.64 0 5.04.64 7.84.64h3.6c2.8 0 5.2-.64 7.84-.64 2.08 0 4 .4 6 .56l-.4-.8a30.4 30.4 0 0 0-3.52-.16h-3.6c-2.8 0-5.2.56-7.84.64-2.64 0-5.04-.64-7.84-.64h-3.6c-2.8 0-5.2.56-7.84.64-2.64 0-5.04-.64-7.84-.64H43.2c-2.8 0-5.2.56-7.84.64-2.64 0-5.04-.64-7.84-.64h-3.6c-2.8 0-5.2.56-7.84.64-2.64 0-4.96-.64-7.76-.64H4.56z"/><path d="M4.56 1.84a28.8 28.8 0 0 0-3.76.24l-.4.72c1.92-.24 3.76-.56 5.76-.56 2.56 0 4.96.64 7.76.64h3.68c2.8 0 5.12-.64 7.76-.64 2.64 0 5.04.64 7.84.64h3.68c2.8 0 5.12-.64 7.76-.64 2.64 0 5.04.64 7.84.64h3.6c2.8 0 5.2-.64 7.84-.64 2.64 0 5.04.64 7.84.64h3.6c2.8 0 5.2-.64 7.84-.64 2.08 0 4 .4 6 .56l-.4-.8a30.4 30.4 0 0 0-3.52-.16h-3.6c-2.8 0-5.2.56-7.84.64-2.64 0-5.04-.64-7.84-.64h-3.6c-2.8 0-5.2.56-7.84.64-2.64 0-5.04-.64-7.84-.64H43.2c-2.8 0-5.2.56-7.84.64-2.64 0-5.04-.64-7.84-.64h-3.6c-2.8 0-5.2.56-7.84.64-2.64 0-4.96-.64-7.76-.64H4.56z"/><path d="M4.56.96A28.8 28.8 0 0 0 .8 1.2l-.4.72c1.92-.24 3.76-.56 5.76-.56 2.56 0 4.96.64 7.76.64h3.68c2.8 0 5.12-.64 7.76-.64C28 1.36 30.4 2 33.2 2h3.68c2.8 0 5.12-.64 7.76-.64 2.64 0 5.04.64 7.84.64h3.6c2.8 0 5.2-.64 7.84-.64 2.64 0 5.04.64 7.84.64h3.6c2.8 0 5.2-.64 7.84-.64 2.08 0 4 .4 6 .56l-.4-.8a30.4 30.4 0 0 0-3.52-.16h-3.6c-2.8 0-5.2.56-7.84.64C71.2 1.6 68.8.96 66 .96h-3.6c-2.8 0-5.2.56-7.84.64-2.64 0-5.04-.64-7.84-.64H43.2c-2.8 0-5.2.56-7.84.64-2.64 0-5.04-.64-7.84-.64h-3.6c-2.8 0-5.2.56-7.84.64-2.64 0-4.96-.64-7.76-.64H4.56z"/></g><g transform="translate(7.2 71.76)" fill="url(#e)"><path d="M4.56 2.72a28.8 28.8 0 0 0-3.76.24l-.4.72c1.92-.24 3.76-.56 5.76-.56 2.56 0 4.96.64 7.76.64h3.68c2.8 0 5.12-.64 7.76-.64 2.64 0 5.04.64 7.84.64h3.68c2.8 0 5.12-.64 7.76-.64 2.64 0 5.04.64 7.84.64h3.6c2.8 0 5.2-.64 7.84-.64 2.64 0 5.04.64 7.84.64h3.6c2.8 0 5.2-.64 7.84-.64 2.08 0 4 .4 6 .56l-.4-.8a30.4 30.4 0 0 0-3.52-.16h-3.6c-2.8 0-5.2.56-7.84.64-2.64 0-5.04-.64-7.84-.64h-3.6c-2.8 0-5.2.56-7.84.64-2.64 0-5.04-.64-7.84-.64H43.2c-2.8 0-5.2.56-7.84.64-2.64 0-5.04-.64-7.84-.64h-3.6c-2.8 0-5.2.56-7.84.64-2.64 0-4.96-.64-7.76-.64H4.56z"/><path d="M4.56 1.84a28.8 28.8 0 0 0-3.76.24l-.4.72c1.92-.24 3.76-.56 5.76-.56 2.56 0 4.96.64 7.76.64h3.68c2.8 0 5.12-.64 7.76-.64 2.64 0 5.04.64 7.84.64h3.68c2.8 0 5.12-.64 7.76-.64 2.64 0 5.04.64 7.84.64h3.6c2.8 0 5.2-.64 7.84-.64 2.64 0 5.04.64 7.84.64h3.6c2.8 0 5.2-.64 7.84-.64 2.08 0 4 .4 6 .56l-.4-.8a30.4 30.4 0 0 0-3.52-.16h-3.6c-2.8 0-5.2.56-7.84.64-2.64 0-5.04-.64-7.84-.64h-3.6c-2.8 0-5.2.56-7.84.64-2.64 0-5.04-.64-7.84-.64H43.2c-2.8 0-5.2.56-7.84.64-2.64 0-5.04-.64-7.84-.64h-3.6c-2.8 0-5.2.56-7.84.64-2.64 0-4.96-.64-7.76-.64H4.56z"/><path d="M4.56.96A28.8 28.8 0 0 0 .8 1.2l-.4.72c1.92-.24 3.76-.56 5.76-.56 2.56 0 4.96.64 7.76.64h3.68c2.8 0 5.12-.64 7.76-.64C28 1.36 30.4 2 33.2 2h3.68c2.8 0 5.12-.64 7.76-.64 2.64 0 5.04.64 7.84.64h3.6c2.8 0 5.2-.64 7.84-.64 2.64 0 5.04.64 7.84.64h3.6c2.8 0 5.2-.64 7.84-.64 2.08 0 4 .4 6 .56l-.4-.8a30.4 30.4 0 0 0-3.52-.16h-3.6c-2.8 0-5.2.56-7.84.64C71.2 1.6 68.8.96 66 .96h-3.6c-2.8 0-5.2.56-7.84.64-2.64 0-5.04-.64-7.84-.64H43.2c-2.8 0-5.2.56-7.84.64-2.64 0-5.04-.64-7.84-.64h-3.6c-2.8 0-5.2.56-7.84.64-2.64 0-4.96-.64-7.76-.64H4.56z"/></g><g transform="translate(7.2 69.04)" fill="url(#e)"><path d="M4.56 2.72a28.8 28.8 0 0 0-3.76.24l-.4.72c1.92-.24 3.76-.56 5.76-.56 2.56 0 4.96.64 7.76.64h3.68c2.8 0 5.12-.64 7.76-.64 2.64 0 5.04.64 7.84.64h3.68c2.8 0 5.12-.64 7.76-.64 2.64 0 5.04.64 7.84.64h3.6c2.8 0 5.2-.64 7.84-.64 2.64 0 5.04.64 7.84.64h3.6c2.8 0 5.2-.64 7.84-.64 2.08 0 4 .4 6 .56l-.4-.8a30.4 30.4 0 0 0-3.52-.16h-3.6c-2.8 0-5.2.56-7.84.64-2.64 0-5.04-.64-7.84-.64h-3.6c-2.8 0-5.2.56-7.84.64-2.64 0-5.04-.64-7.84-.64H43.2c-2.8 0-5.2.56-7.84.64-2.64 0-5.04-.64-7.84-.64h-3.6c-2.8 0-5.2.56-7.84.64-2.64 0-4.96-.64-7.76-.64H4.56z"/><path d="M4.56 1.84a28.8 28.8 0 0 0-3.76.24l-.4.72c1.92-.24 3.76-.56 5.76-.56 2.56 0 4.96.64 7.76.64h3.68c2.8 0 5.12-.64 7.76-.64 2.64 0 5.04.64 7.84.64h3.68c2.8 0 5.12-.64 7.76-.64 2.64 0 5.04.64 7.84.64h3.6c2.8 0 5.2-.64 7.84-.64 2.64 0 5.04.64 7.84.64h3.6c2.8 0 5.2-.64 7.84-.64 2.08 0 4 .4 6 .56l-.4-.8a30.4 30.4 0 0 0-3.52-.16h-3.6c-2.8 0-5.2.56-7.84.64-2.64 0-5.04-.64-7.84-.64h-3.6c-2.8 0-5.2.56-7.84.64-2.64 0-5.04-.64-7.84-.64H43.2c-2.8 0-5.2.56-7.84.64-2.64 0-5.04-.64-7.84-.64h-3.6c-2.8 0-5.2.56-7.84.64-2.64 0-4.96-.64-7.76-.64H4.56z"/><path d="M4.56.96A28.8 28.8 0 0 0 .8 1.2l-.4.72c1.92-.24 3.76-.56 5.76-.56 2.56 0 4.96.64 7.76.64h3.68c2.8 0 5.12-.64 7.76-.64C28 1.36 30.4 2 33.2 2h3.68c2.8 0 5.12-.64 7.76-.64 2.64 0 5.04.64 7.84.64h3.6c2.8 0 5.2-.64 7.84-.64 2.64 0 5.04.64 7.84.64h3.6c2.8 0 5.2-.64 7.84-.64 2.08 0 4 .4 6 .56l-.4-.8a30.4 30.4 0 0 0-3.52-.16h-3.6c-2.8 0-5.2.56-7.84.64C71.2 1.6 68.8.96 66 .96h-3.6c-2.8 0-5.2.56-7.84.64-2.64 0-5.04-.64-7.84-.64H43.2c-2.8 0-5.2.56-7.84.64-2.64 0-5.04-.64-7.84-.64h-3.6c-2.8 0-5.2.56-7.84.64-2.64 0-4.96-.64-7.76-.64H4.56z"/></g><path d="M8.16.4v.16h74.96L83.04.4H8.16zM8 .64l-.08.24H83.2l-.08-.24H7.92 8zm-.16.32l-.16.24h75.84l-.16-.24H7.84zm-.24.4l-.24.4h76.48l-.24-.4h-76zm-.32.56l-.24.4h77.12l-.24-.4H7.28zm-.32.56l-.16.32h77.6l-.16-.32H6.96zm-.32.56l-.16.32H84.8l-.24-.32H6.64zm-.32.56l-.24.48h79.04l-.24-.48H6.32z" fill="url(#f)" fill-rule="nonzero" transform="translate(6.4 65.6)"/><path d="M11.52 4.24c2.72.56 2.96 0 2.96 0h-2.96zm65.2 0s.24.56 2.96 0h-2.96z" fill="url(#g)" fill-rule="nonzero" transform="translate(6.4 65.6)"/><path d="M26.88 0c-1.36 0-1.76.72-1.76.72-2.16 8.48-9.44 17.04-18.08 17.04H.64v8.64h49.12l-4.96-8.8C37.04 16.48 30.72 8.56 28.72.72c0 0-.48-.72-1.84-.72z" fill="url(#h)" transform="translate(49.6 57.6)"/><path d="M76.48 58c-.64 0-.96.08-1.2.24l-.24.24a26.88 26.88 0 0 1-6.72 11.76c-3.2 3.28-7.2 5.52-11.68 5.52h-6.16v7.92H99.2l-4.56-8c-3.76-.56-7.2-2.56-9.92-5.44A26.88 26.88 0 0 1 78 58.48l-.24-.24a2.24 2.24 0 0 0-1.28-.24z" fill="#97C924"/><path d="M76.48 58h.32v8.64a10.4 10.4 0 0 1-1.6 5.12c-.4 1.28-.8.8-1.84 2.32a20.32 20.32 0 0 1-4.16.96c-2 .32-6.4.64-8.72.08a18.4 18.4 0 0 0 7.84-4.8 24.48 24.48 0 0 0 1.68-2 26.96 26.96 0 0 0 2.4-3.52l.8-1.6c.383-.757.73-1.53 1.04-2.32a23.84 23.84 0 0 0 .8-2.4l.24-.24.48-.16.8-.08h-.08z" fill="#EDE71F"/><path d="M76 59.12c-.4 4.8-1.84 10.56-5.36 14.24-1.28 1.04-2.96 2.08-4.48 1.84 5.36-4.4 8.64-11.2 9.76-16.08H76z" fill="#C6CB24"/><path d="M71.6 67.44c-.8 2.16-3.84 5.36-7.04 8h-2.32c2-.16 6.64-4 9.36-8z" fill="#9ECB34"/><path d="M26.88 0c-1.36 0-1.76.72-1.76.72-2.16 8.48-9.44 17.04-18.08 17.04H.64v8.64h49.12l-4.96-8.8C37.04 16.48 30.72 8.56 28.72.72c0 0-.48-.72-1.84-.72z" fill="url(#h)" transform="translate(37.36 57.6)"/><path d="M64.24 58c-.64 0-.96.08-1.2.24l-.24.24a26.88 26.88 0 0 1-6.72 11.76c-3.2 3.28-7.2 5.52-11.68 5.52h-6.16v7.92h48.72l-4.56-8c-3.76-.56-7.2-2.56-9.92-5.44a26.88 26.88 0 0 1-6.72-11.76l-.24-.24a2.24 2.24 0 0 0-1.28-.24z" fill="#97C924"/><path d="M64.24 58h.32v8.64a10.4 10.4 0 0 1-1.6 5.12c-.4 1.28-.8.8-1.84 2.32a20.32 20.32 0 0 1-4.16.96c-2 .32-6.4.64-8.72.08a18.4 18.4 0 0 0 7.84-4.8 24.48 24.48 0 0 0 1.68-2 26.96 26.96 0 0 0 2.4-3.52l.8-1.6c.383-.757.73-1.53 1.04-2.32a23.84 23.84 0 0 0 .8-2.4l.24-.24.48-.16.8-.08h-.08z" fill="#EDE71F"/><path d="M63.76 59.12c-.4 4.8-1.84 10.56-5.36 14.24-1.28 1.04-2.96 2.08-4.48 1.84 5.36-4.4 8.64-11.2 9.76-16.08h.08z" fill="#C6CB24"/><path d="M59.36 67.44c-.8 2.16-3.84 5.36-7.04 8H50c2-.16 6.64-4 9.36-8z" fill="#9ECB34"/><path d="M28.16.8c2.24 8.4 9.44 16.96 18.08 16.96h6.48v8.64H.08v-8.64h6.4c8.64 0 15.92-8.56 18.08-17.04 0 0 .48-.64 1.84-.64s1.76.64 1.76.64V.8z" fill="url(#i)" transform="translate(25.6 57.6)"/><path d="M52 58c.64 0 .96.16 1.2.24l.24.24a26.88 26.88 0 0 0 6.72 11.76c3.2 3.28 7.2 5.52 11.68 5.52H78v7.92H26v-8h6.16c4.4 0 8.48-2.16 11.68-5.44a26.88 26.88 0 0 0 6.64-11.76l.24-.24A2.4 2.4 0 0 1 52 58z" fill="#97C924"/><path d="M51.44 58a2.72 2.72 0 0 0-.24 0l-.48.24-.24.24a23.12 23.12 0 0 1-.8 2.4 27.36 27.36 0 0 1-.96 2.4 27.36 27.36 0 0 1-.8 1.52 26.88 26.88 0 0 1-2.4 3.52 24.56 24.56 0 0 1-1.68 1.92A18.4 18.4 0 0 1 36 75.12c2.24.56 3.2 0 5.2-.32 1.6-.24 3.36-.48 4.8-.96 1.2-1.6.8-1.04 1.2-2.32.96-1.76 2.4-3.36 2.72-5.36 1.28-2.4 1.52-6.88 1.52-8.16z" fill="#EDE71F"/><path d="M51.44 59.12c-.32 4.8-1.84 10.56-5.36 14.24-1.28 1.04-2.88 2.08-4.48 1.84 5.44-4.4 8.72-11.2 9.84-16.08z" fill="#C6CB24"/><path d="M47.04 67.44a24.8 24.8 0 0 1-7.04 8h-2.24c2-.16 6.56-4 9.28-8z" fill="#9ECB34"/><path d="M52.8 58.08l.4.16.32.24c.227.813.494 1.614.8 2.4.281.815.602 1.616.96 2.4l.8 1.52a26.88 26.88 0 0 0 2.4 3.52 24.56 24.56 0 0 0 1.68 1.92 19.2 19.2 0 0 0 7.84 5.2c-5.84 0-8.32-.48-10.4-3.2a15.2 15.2 0 0 1-3.36-5.6c-.4-1.6-1.6-5.2-1.52-8.56h.08z" fill="#EDE71F"/><path d="M53.2 59.12c.32 4.8 1.76 9.6 5.28 13.28 1.28 1.12 2.88 2.08 4.48 1.84a24.88 24.88 0 0 1-9.76-15.12z" fill="#C6CB24"/><path d="M23.04 0C21.6 0 21.2.72 21.2.72c-2 7.84-9.44 17.84-17.2 19.04L.16 26.4h39.2v-9.04C32.32 15.44 26.64 8 24.8.72c0 0-.4-.64-1.84-.64l.08-.08z" fill="url(#j)" transform="translate(16.8 57.6)"/><path d="M39.84 58c-.64 0-1.04.16-1.28.24l-.24.24a34.72 34.72 0 0 1-6.48 12c-2.72 3.44-7.76 6.88-11.2 7.2l-3.44 6h38.4v-8.56a18.56 18.56 0 0 1-7.6-4.8 26.88 26.88 0 0 1-6.72-11.84l-.24-.24a2.32 2.32 0 0 0-1.2-.24z" fill="#97C924"/><path d="M38.72 59.12c-.48 7.2-4.48 16.4-9.04 17.92-1.52.56-4.08.72-4.96.8A28.8 28.8 0 0 0 38.8 59.12h-.08z" fill="#93BC30"/><path d="M39.84 58h-.4v8.64c0 1.84.72 3.36 1.6 5.12l.16.4c.4.88.64 1.2 1.84 2.16a17.6 17.6 0 0 0 11.84 3.2c-.88-.72-1.84-1.36-2.72-1.92l3.6-.4A18.4 18.4 0 0 1 48 70.24a24.4 24.4 0 0 1-1.12-1.2l-.48-.64a28 28 0 0 1-2.56-3.6 27.36 27.36 0 0 1-.8-1.6 27.2 27.2 0 0 1-1.28-3.12 25.36 25.36 0 0 1-.48-1.6l-.24-.24a1.76 1.76 0 0 0-.48-.16 2.88 2.88 0 0 0-.8-.08h.08z" fill="#EDE71F"/><path d="M40.32 59.12c.4 4.8 1.84 10.56 5.36 14.24 1.28 1.04 2.88 2.08 4.48 1.84a30.8 30.8 0 0 1-9.84-16.08z" fill="#CCD11E"/><path d="M43.68 65.84a28 28 0 0 0 11.68 11.92h2c-3.52-1.92-9.2-4.64-13.6-12l-.08.08z" fill="#9ECB34"/><path d="M23.04 0C21.6 0 21.2.72 21.2.72c-2 7.84-9.44 17.84-17.2 19.04L.16 26.4h39.2v-9.04C32.32 15.44 26.64 8 24.8.72c0 0-.4-.64-1.84-.64l.08-.08z" fill="url(#j)" transform="translate(4.48 57.6)"/><path d="M27.52 58c-.64 0-1.04.16-1.28.24l-.24.24a34.72 34.72 0 0 1-6.48 12c-2.72 3.44-7.76 6.88-11.2 7.2l-3.44 6h38.4v-8.56a18.56 18.56 0 0 1-7.6-4.8 26.88 26.88 0 0 1-6.72-11.84l-.24-.24a2.32 2.32 0 0 0-1.2-.24z" fill="#97C924"/><path d="M26.4 59.12c-.48 7.2-4.48 16.4-9.04 17.92-1.52.56-4.08.72-4.96.8a28.8 28.8 0 0 0 14.08-18.72h-.08z" fill="#93BC30"/><path d="M27.52 58h-.4v8.64c0 1.84.72 3.36 1.6 5.12l.16.4c.4.88.64 1.2 1.84 2.16a17.6 17.6 0 0 0 11.84 3.2c-.88-.72-1.84-1.36-2.72-1.92l3.6-.4a18.4 18.4 0 0 1-7.76-4.96 24.4 24.4 0 0 1-1.12-1.2l-.48-.64a28 28 0 0 1-2.56-3.6 27.36 27.36 0 0 1-.8-1.6 27.2 27.2 0 0 1-1.28-3.12 25.36 25.36 0 0 1-.48-1.6l-.24-.24a1.76 1.76 0 0 0-.48-.16 2.88 2.88 0 0 0-.8-.08h.08z" fill="#EDE71F"/><path d="M28 59.12c.4 4.8 1.84 10.56 5.36 14.24 1.28 1.04 2.88 2.08 4.48 1.84A30.8 30.8 0 0 1 28 59.12z" fill="#C6CB24"/><path d="M31.36 65.84a28 28 0 0 0 11.68 11.92h2c-3.52-1.92-9.2-4.64-13.6-12l-.08.08z" fill="#9ECB34"/><path d="M97.2 79.76c-.48.16-3.52-.16-5.12 0l-1.04.24H88.4c-2.88 0-5.36.8-8.08.8-2.72 0-5.2-.8-8-.8H69.6c-2.88 0-5.36.8-8.08.8-2.72 0-5.2-.8-8-.8H50.8c-2.88 0-5.36.8-8 .8-2.8 0-5.2-.8-8.08-.8H32c-2.88 0-5.28.8-8 .8-2.8 0-5.2-.8-8.08-.8H13.2c-2.24 0-4.96.48-7.12.64l-5.04 8.72h101.92l-5.76-9.6z" fill="#FFF"/><path d="M100 96.88h-.48c-2.56.08-4.48.88-8.96.88s-4.96-.8-10.08-.64c-4.8 0-6.72.96-9.36.96-2.56 0-6.72-.56-10-.24-3.2.32-7.04 1.04-9.6 1.04-3.12 0-6.24-.56-9.44-.24-3.28.32-4.8 1.2-8.88 1.2-3.52 0-7.2-.56-10.24-.56-2.72 0-5.76.8-8 1.12l-.72 1.2c1.84-.24 6.88-1.04 8.64-1.04 1.92 0 8.56.4 12.24.24 3.76-.08 4.16-.96 8.56-.96 3.04 0 5.28.32 8.4.32 2 0 3.76-.96 6.72-.96l2.24-.08c2.48-.4 6.72 0 9.6.16 2.64.16 4.4-.48 7.2-.56l3.52-.08c2.8-.16 5.12.48 7.76.48 2.56-.16 5.12-.8 7.84-.8l3.6-.16c1.84 0 4.72 0 6.64.4l-.64-1.12c-1.92-.08-4.24-.56-6.56-.56z" fill="url(#k)" transform="translate(-9.6 -18.4)"/><g transform="translate(.8 84.8)" fill="url(#l)"><path d="M11.44 3.04c-2.72 0-5.12.64-7.68.72a25.44 25.44 0 0 1-2.88-.24l-.4.64h4.8c2.8 0 5.12-.64 7.68-.72 2.64.08 4.96.8 7.76.8h3.6c2.72 0 5.12-.72 7.68-.8 2.64.08 5.04.8 7.76.8h3.6c2.8 0 5.12-.72 7.76-.8 2.56.08 4.88.8 7.68.8h3.6c2.72 0 5.12-.72 7.76-.8 2.56.08 4.96.8 7.68.8h3.6c2.8 0 5.12-.72 7.68-.8 2.64.08 4.96.8 7.76.8h3.6l1.44-.08-.4-.64c-.8.08-1.68.24-2.56.24-2.64 0-4.96-.8-7.76-.8h-3.6c-2.72 0-5.12.8-7.68.8-2.64-.08-4.96-.8-7.76-.8h-3.6c-2.72 0-5.12.8-7.68.8-2.64-.08-4.96-.8-7.76-.8h-3.6c-2.8 0-5.12.8-7.68.8-2.64-.08-4.96-.8-7.76-.8h-3.6c-2.72 0-5.12.8-7.68.8-2.64-.08-4.96-.8-7.76-.8h-3.6v.08z"/><path d="M11.44 2c-2.72 0-5.12.64-7.68.72a25.44 25.44 0 0 1-2.88-.24l-.4.64h4.8c2.8 0 5.12-.64 7.68-.72 2.64.08 4.96.8 7.76.8h3.6c2.72 0 5.12-.72 7.68-.8 2.64.08 5.04.8 7.76.8h3.6c2.8 0 5.12-.72 7.76-.8 2.56.08 4.88.8 7.68.8h3.6c2.72 0 5.12-.72 7.76-.8 2.56.08 4.96.8 7.68.8h3.6c2.8 0 5.12-.72 7.68-.8 2.64.08 4.96.8 7.76.8h3.6l1.44-.08-.4-.64c-.8.08-1.68.24-2.56.24-2.64 0-4.96-.8-7.76-.8h-3.6c-2.72 0-5.12.8-7.68.8-2.64-.08-4.96-.8-7.76-.8h-3.6c-2.72 0-5.12.8-7.68.8-2.64-.08-4.96-.8-7.76-.8h-3.6c-2.8 0-5.12.8-7.68.8-2.64-.08-4.96-.8-7.76-.8h-3.6c-2.72 0-5.12.8-7.68.8-2.64-.08-4.96-.8-7.76-.8h-3.6V2z"/><path d="M11.44.96c-2.72 0-5.12.64-7.68.72a25.44 25.44 0 0 1-2.88-.24l-.4.64h4.8c2.8 0 5.12-.64 7.68-.72 2.64.08 4.96.8 7.76.8h3.6c2.72 0 5.12-.72 7.68-.8 2.64.08 5.04.8 7.76.8h3.6c2.8 0 5.12-.72 7.76-.8 2.56.08 4.88.8 7.68.8h3.6c2.72 0 5.12-.72 7.76-.8 2.56.08 4.96.8 7.68.8h3.6c2.8 0 5.12-.72 7.68-.8 2.64.08 4.96.8 7.76.8h3.6l1.44-.08-.4-.64c-.8.08-1.68.24-2.56.24-2.64 0-4.96-.8-7.76-.8h-3.6c-2.72 0-5.12.8-7.68.8-2.64-.08-4.96-.8-7.76-.8h-3.6c-2.72 0-5.12.8-7.68.8-2.64-.08-4.96-.8-7.76-.8h-3.6c-2.8 0-5.12.8-7.68.8-2.64-.08-4.96-.8-7.76-.8h-3.6c-2.72 0-5.12.8-7.68.8-2.64-.08-4.96-.8-7.76-.8h-3.6v.08z"/></g><g><g fill="url(#l)" transform="translate(.8 81.68)"><path d="M11.44 3.04c-2.72 0-5.12.64-7.68.72a25.44 25.44 0 0 1-2.88-.24l-.4.64h4.8c2.8 0 5.12-.64 7.68-.72 2.64.08 4.96.8 7.76.8h3.6c2.72 0 5.12-.72 7.68-.8 2.64.08 5.04.8 7.76.8h3.6c2.8 0 5.12-.72 7.76-.8 2.56.08 4.88.8 7.68.8h3.6c2.72 0 5.12-.72 7.76-.8 2.56.08 4.96.8 7.68.8h3.6c2.8 0 5.12-.72 7.68-.8 2.64.08 4.96.8 7.76.8h3.6l1.44-.08-.4-.64c-.8.08-1.68.24-2.56.24-2.64 0-4.96-.8-7.76-.8h-3.6c-2.72 0-5.12.8-7.68.8-2.64-.08-4.96-.8-7.76-.8h-3.6c-2.72 0-5.12.8-7.68.8-2.64-.08-4.96-.8-7.76-.8h-3.6c-2.8 0-5.12.8-7.68.8-2.64-.08-4.96-.8-7.76-.8h-3.6c-2.72 0-5.12.8-7.68.8-2.64-.08-4.96-.8-7.76-.8h-3.6v.08z"/><path d="M11.44 2c-2.72 0-5.12.64-7.68.72a25.44 25.44 0 0 1-2.88-.24l-.4.64h4.8c2.8 0 5.12-.64 7.68-.72 2.64.08 4.96.8 7.76.8h3.6c2.72 0 5.12-.72 7.68-.8 2.64.08 5.04.8 7.76.8h3.6c2.8 0 5.12-.72 7.76-.8 2.56.08 4.88.8 7.68.8h3.6c2.72 0 5.12-.72 7.76-.8 2.56.08 4.96.8 7.68.8h3.6c2.8 0 5.12-.72 7.68-.8 2.64.08 4.96.8 7.76.8h3.6l1.44-.08-.4-.64c-.8.08-1.68.24-2.56.24-2.64 0-4.96-.8-7.76-.8h-3.6c-2.72 0-5.12.8-7.68.8-2.64-.08-4.96-.8-7.76-.8h-3.6c-2.72 0-5.12.8-7.68.8-2.64-.08-4.96-.8-7.76-.8h-3.6c-2.8 0-5.12.8-7.68.8-2.64-.08-4.96-.8-7.76-.8h-3.6c-2.72 0-5.12.8-7.68.8-2.64-.08-4.96-.8-7.76-.8h-3.6V2z"/><path d="M11.44.96c-2.72 0-5.12.64-7.68.72a25.44 25.44 0 0 1-2.88-.24l-.4.64h4.8c2.8 0 5.12-.64 7.68-.72 2.64.08 4.96.8 7.76.8h3.6c2.72 0 5.12-.72 7.68-.8 2.64.08 5.04.8 7.76.8h3.6c2.8 0 5.12-.72 7.76-.8 2.56.08 4.88.8 7.68.8h3.6c2.72 0 5.12-.72 7.76-.8 2.56.08 4.96.8 7.68.8h3.6c2.8 0 5.12-.72 7.68-.8 2.64.08 4.96.8 7.76.8h3.6l1.44-.08-.4-.64c-.8.08-1.68.24-2.56.24-2.64 0-4.96-.8-7.76-.8h-3.6c-2.72 0-5.12.8-7.68.8-2.64-.08-4.96-.8-7.76-.8h-3.6c-2.72 0-5.12.8-7.68.8-2.64-.08-4.96-.8-7.76-.8h-3.6c-2.8 0-5.12.8-7.68.8-2.64-.08-4.96-.8-7.76-.8h-3.6c-2.72 0-5.12.8-7.68.8-2.64-.08-4.96-.8-7.76-.8h-3.6v.08z"/></g></g><g><g fill="url(#l)" transform="translate(.8 78.64)"><path d="M11.44 3.04c-2.72 0-5.12.64-7.68.72a25.44 25.44 0 0 1-2.88-.24l-.4.64h4.8c2.8 0 5.12-.64 7.68-.72 2.64.08 4.96.8 7.76.8h3.6c2.72 0 5.12-.72 7.68-.8 2.64.08 5.04.8 7.76.8h3.6c2.8 0 5.12-.72 7.76-.8 2.56.08 4.88.8 7.68.8h3.6c2.72 0 5.12-.72 7.76-.8 2.56.08 4.96.8 7.68.8h3.6c2.8 0 5.12-.72 7.68-.8 2.64.08 4.96.8 7.76.8h3.6l1.44-.08-.4-.64c-.8.08-1.68.24-2.56.24-2.64 0-4.96-.8-7.76-.8h-3.6c-2.72 0-5.12.8-7.68.8-2.64-.08-4.96-.8-7.76-.8h-3.6c-2.72 0-5.12.8-7.68.8-2.64-.08-4.96-.8-7.76-.8h-3.6c-2.8 0-5.12.8-7.68.8-2.64-.08-4.96-.8-7.76-.8h-3.6c-2.72 0-5.12.8-7.68.8-2.64-.08-4.96-.8-7.76-.8h-3.6v.08z"/><path d="M11.44 2c-2.72 0-5.12.64-7.68.72a25.44 25.44 0 0 1-2.88-.24l-.4.64h4.8c2.8 0 5.12-.64 7.68-.72 2.64.08 4.96.8 7.76.8h3.6c2.72 0 5.12-.72 7.68-.8 2.64.08 5.04.8 7.76.8h3.6c2.8 0 5.12-.72 7.76-.8 2.56.08 4.88.8 7.68.8h3.6c2.72 0 5.12-.72 7.76-.8 2.56.08 4.96.8 7.68.8h3.6c2.8 0 5.12-.72 7.68-.8 2.64.08 4.96.8 7.76.8h3.6l1.44-.08-.4-.64c-.8.08-1.68.24-2.56.24-2.64 0-4.96-.8-7.76-.8h-3.6c-2.72 0-5.12.8-7.68.8-2.64-.08-4.96-.8-7.76-.8h-3.6c-2.72 0-5.12.8-7.68.8-2.64-.08-4.96-.8-7.76-.8h-3.6c-2.8 0-5.12.8-7.68.8-2.64-.08-4.96-.8-7.76-.8h-3.6c-2.72 0-5.12.8-7.68.8-2.64-.08-4.96-.8-7.76-.8h-3.6V2z"/><path d="M11.44.96c-2.72 0-5.12.64-7.68.72a25.44 25.44 0 0 1-2.88-.24l-.4.64h4.8c2.8 0 5.12-.64 7.68-.72 2.64.08 4.96.8 7.76.8h3.6c2.72 0 5.12-.72 7.68-.8 2.64.08 5.04.8 7.76.8h3.6c2.8 0 5.12-.72 7.76-.8 2.56.08 4.88.8 7.68.8h3.6c2.72 0 5.12-.72 7.76-.8 2.56.08 4.96.8 7.68.8h3.6c2.8 0 5.12-.72 7.68-.8 2.64.08 4.96.8 7.76.8h3.6l1.44-.08-.4-.64c-.8.08-1.68.24-2.56.24-2.64 0-4.96-.8-7.76-.8h-3.6c-2.72 0-5.12.8-7.68.8-2.64-.08-4.96-.8-7.76-.8h-3.6c-2.72 0-5.12.8-7.68.8-2.64-.08-4.96-.8-7.76-.8h-3.6c-2.8 0-5.12.8-7.68.8-2.64-.08-4.96-.8-7.76-.8h-3.6c-2.72 0-5.12.8-7.68.8-2.64-.08-4.96-.8-7.76-.8h-3.6v.08z"/></g></g><path d="M7.12 79.76l-2 3.36c2.32-.4 5.68-1.36 8.56-1.36 2.88 0 6.4.72 9.92.8 4 0 5.6-.96 8.8-1.28 3.28-.32 6.4.4 9.6.48 2.48 0 6.32-.88 9.6-1.2 3.2-.4 6.16.24 10 .24 3.92.08 4.56-.96 9.28-1.04 5.12-.08 5.6.72 10.08.72 3.36.16 6.32-.72 9.36-.88 3.04-.24 4.4 0 6.64 0l-1.52-2.56-81.04 1.84-7.28.88z" fill="#97C924"/><path d="M92 79.68l3.2.24a73.12 73.12 0 0 0 2.32.24l-.32-.4c-.48.16-3.52-.16-5.12 0l-.08-.08z" fill="#FFF"/></g></g><path d="M400 180l-25.7 44.45L348 270h104l-25.7-44.55L400 180.1v-.1zm0 2.397l25.2 43.652 24.7 42.752h-99.8l25.2-43.751 24.7-42.653z" fill="#C8A400" fill-rule="nonzero"/></g></svg>