<svg width="800" height="480" xmlns="http://www.w3.org/2000/svg"><g fill="none" fill-rule="evenodd"><path fill="#FFF" d="M0 0h800v480H0z"/><path d="M7.656 22.901V11.094l-9.95 5.451 9.95 6.356zm335.19 214.104l18.703 11.947 3.49-11.92-22.192-.027zm-2.09 235.433l10.857 11.01 4.606-11.01h-15.464zm-333.1 0H1.094v12.937h6.562v-12.938z" stroke="#000063" stroke-width="12.938" fill="#CE0000"/><path d="M171.406 360.563L146.094 369l19.875 18.563-26.719-1.688 10.969 24.563-23.906-11.532.468 26.813-17.625-19.594-10.031 24.938-8.625-24.657-19.031 19.313 1.687-25.969-25.219 10.688L59.75 387l-27.469.563 20.157-17.157-25.594-9.844 25.312-8.437-19.968-18.563 26.624 1.688-10.874-24.563 24 11.532-.47-26.813L89.095 315l10.031-24.938 8.531 24.657 19.125-19.313L125 321.375l25.313-10.688-11.907 23.438 27.563-.563-20.156 17.157 25.593 9.844zm-33.375-191.157l-10.594 7.875 5.25 4.313a87.938 87.938 0 0 0 28.782-33.75c1.687 19.969-16.594 64.687-64.406 65.156a66.187 66.187 0 0 1-67.032-65.906c9.375 17.062 15.188 25.312 30 34.219l4.407-4.125-9.938-8.344 12.844-3.375-6.938-11.625 13.5.937-1.687-13.5 11.812 6.938 3.75-12.656 8.438 10.125 7.969-9.657 4.312 13.125 11.063-7.687-1.407 13.406 13.313-1.594-6.281 12.375 12.843 3.75z" fill="#FFF" fill-rule="nonzero"/></g></svg>