<svg width="800" height="480" xmlns="http://www.w3.org/2000/svg"><g fill="none" fill-rule="evenodd"><path fill="#002170" d="M0 0h800v480H0z"/><path fill="#FFB20D" d="M0 219.469h800v41.156H0z"/><path fill="#FFF" d="M282.988 410.625l-30.938-30.938-9.844 42.563-11.25-42.188-29.906 31.875 11.344-42.187-41.719 12.656 30.938-30.937-42.563-9.938 42.188-11.25-31.875-29.812 42.187 11.25L198.8 270l30.938 30.938 9.937-42.563 11.25 42.188 29.813-31.875-11.25 42.187 41.718-12.656-30.937 30.937L322.83 339l-42.187 11.25 31.875 30-42.188-11.438z"/></g></svg>