<svg width="800" height="480" xmlns="http://www.w3.org/2000/svg"><g fill="none" fill-rule="evenodd"><path fill="#FFF" d="M0 0h400v240H0z"/><path fill="#C00" d="M0 0v17.998l95.97 59.414 36.15 1.258z"/><path fill="#006" d="M41.061 0l116.42 73.058V0z"/><path fill="#C00" d="M173.02 0v93.281H0v53.221h173.1v93.282h53.138v-93.282h173.1v-53.22h-173.1V0H173.1z"/><path fill="#006" d="M241.696 0v68.8L355.54.58z"/><path fill="#C00" d="M245.32 76.348l32.043-.29L401.673.58l-33.01.58L245.4 76.444z"/><path fill="#006" d="M0 162.081v51.092l79.868-50.608L0 162.178z"/><path d="M307.474 164.21l-33.332-.29 125.438 74.993-.806-17.128-91.38-57.575h.08zM31.158 240.267l117.628-74.315-30.836.29L0 240.074l31.158.193z" fill="#C00" fill-rule="nonzero"/><path d="M401.532 21.097L306.371 77.71l93.87.484v84.29h-79.918l79.193 51.58 1.13 26.13-42.259-.581-115.806-68.226v68.903h-84.516v-69L49.435 240l-49.112.194V480H800V.387L402.42 0l-.888 21.097zm-401.048 6L0 76.839l84.194 1.258-83.79-51h.08z" fill="#006" fill-rule="nonzero"/><g fill="#FFD900"><path d="M400 0h400v480H400.08z"/><path d="M0 239.977h421.479v239.977H0z"/></g><path d="M234.209 121.247c.614 15.256-5.809 29.68-16.711 37.53-10.902 7.849-24.514 7.849-35.416 0-10.903-7.85-17.325-22.274-16.711-37.53.888-22.07 16.035-39.415 34.419-39.415 18.384 0 33.53 17.345 34.419 39.415z" fill="#000067"/><path d="M193.39 110.602l6.601-23.804 6.602 23.804h21.497l-17.39 14.709 6.682 23.707-17.39-14.805-17.391 14.708 6.682-23.707-17.39-14.708 21.496.096zm119.559 3.871l3.301-11.128 3.22 11.225h10.708l-8.614 6.773 3.3 11.128-8.614-6.773-8.615 6.773 3.301-11.128-8.615-6.773 10.628-.097zm-116.42 82.928l3.22-11.128 3.302 11.128h10.627l-8.615 6.773 3.301 11.225-8.614-6.87-8.615 6.773 3.3-11.031-8.614-6.87h10.708zm0-161.598l3.22-11.225 3.302 11.128h10.627l-8.615 6.87 3.301 11.129-8.614-6.774-8.615 6.774 3.3-11.128-8.614-6.774h10.708zM79.626 114.376l3.301-11.128 3.22 11.128h10.709l-8.615 6.87 3.3 11.129-8.614-6.774-8.615 6.774 3.301-11.128L69 114.473l10.627-.097z" fill="#FFF40D" fill-rule="nonzero"/></g></svg>