<svg width="800" height="480" xmlns="http://www.w3.org/2000/svg"><g fill="none" fill-rule="evenodd"><path fill="#00247D" d="M0 0h800v480H0z"/><g fill="#FFF"><path d="M604.425 106.188v15.17l30.339-15.17z"/><path d="M610.889 123.047l-8.917-12.272 33.461-5.56z"/><path d="M604.425 106.188v15.17l-30.339-15.17z"/><path d="M597.961 123.047l8.917-12.272-33.461-5.56z"/><path d="M613.081 112.477l-14.427 4.688 23.802 24.166z"/><path d="M599.045 123.834l8.916-12.272 15.628 30.105z"/><path d="M595.769 112.477l14.427 4.688-5.052-33.541z"/><path d="M613.8 111.54l-14.427 4.688 5.052-33.542z"/><path d="M595.769 112.477l14.427 4.688-23.802 24.166z"/><path d="M609.805 123.834l-8.916-12.272-15.628 30.105z"/></g><g fill="#CC142B"><path d="M604.425 109.276V119.3l20.047-10.024z"/><path d="M608.696 120.416l-5.892-8.11 22.11-3.674z"/><path d="M604.425 109.276v10.023l-20.048-10.023z"/><path d="M600.154 120.416l5.892-8.11-22.11-3.674z"/><path d="M610.145 113.431l-9.533 3.098 15.728 15.969z"/><path d="M600.87 120.936l5.891-8.11 10.327 19.894z"/><path d="M598.705 113.431l9.533 3.098-3.338-22.164z"/><path d="M610.62 112.812l-9.533 3.098 3.338-22.164z"/><path d="M598.705 113.431l9.533 3.098-15.728 15.969z"/><path d="M607.98 120.936l-5.891-8.11-10.327 19.894z"/></g><g fill="#FFF"><path d="M683.965 176.24v13.499l26.997-13.499z"/><path d="M689.717 191.243l-7.934-10.921 29.775-4.948z"/><path d="M683.965 176.24v13.499l-26.997-13.499z"/><path d="M678.213 191.243l7.935-10.921-29.776-4.948z"/><path d="M691.668 181.837l-12.838 4.171 21.18 21.505z"/><path d="M679.177 191.943l7.935-10.92 13.907 26.788z"/><path d="M676.262 181.837l12.838 4.171-4.495-29.847z"/><path d="M692.308 181.002l-12.838 4.172 4.495-29.848z"/><path d="M676.262 181.837l12.838 4.171-21.18 21.505z"/><path d="M688.753 191.943l-7.934-10.92-13.907 26.788z"/></g><g fill="#CC142B"><path d="M683.965 179.328v8.353l16.706-8.353z"/><path d="M687.524 188.611l-4.91-6.758 18.426-3.061z"/><path d="M683.965 179.328v8.353l-16.706-8.353z"/><path d="M680.406 188.611l4.91-6.758-18.426-3.061z"/><path d="M688.732 182.79l-7.945 2.582 13.107 13.307z"/><path d="M681.002 189.045l4.91-6.758 8.606 16.577z"/><path d="M679.199 182.79l7.944 2.582-2.782-18.47z"/><path d="M689.128 182.274l-7.945 2.582 2.782-18.47z"/><path d="M679.199 182.79l7.944 2.582-13.107 13.307z"/><path d="M686.928 189.045l-4.91-6.758-8.606 16.577z"/></g><g fill="#FFF"><path d="M511.881 199.453v15.17l30.339-15.17z"/><path d="M518.345 216.312l-8.917-12.272 33.461-5.56z"/><path d="M511.881 199.453v15.17l-30.338-15.17z"/><path d="M505.417 216.312l8.917-12.272-33.46-5.56z"/><path d="M520.537 205.742l-14.427 4.688 23.802 24.166z"/><path d="M506.5 217.099l8.917-12.272 15.628 30.105z"/><path d="M503.225 205.742l14.427 4.688-5.052-33.542z"/><path d="M521.256 204.805l-14.427 4.687 5.052-33.541z"/><path d="M503.225 205.742l14.427 4.688-23.802 24.166z"/><path d="M517.261 217.099l-8.916-12.272-15.628 30.105z"/></g><g fill="#CC142B"><path d="M511.881 202.54v10.024l20.048-10.024z"/><path d="M516.152 213.68l-5.892-8.109 22.11-3.674z"/><path d="M511.881 202.54v10.024l-20.047-10.024z"/><path d="M507.61 213.68l5.892-8.109-22.11-3.674z"/><path d="M517.601 206.696l-9.533 3.098 15.728 15.968z"/><path d="M508.326 214.2l5.892-8.109 10.327 19.893z"/><path d="M506.161 206.696l9.533 3.098-3.338-22.164z"/><path d="M518.076 206.077l-9.533 3.097 3.338-22.164z"/><path d="M506.161 206.696l9.533 3.098-15.728 15.968z"/><path d="M515.436 214.2l-5.891-8.109-10.327 19.893z"/></g><g fill="#FFF"><path d="M604.425 345.756v16.84l33.68-16.84z"/><path d="M611.6 364.472l-9.898-13.624 37.146-6.173z"/><path d="M604.425 345.756v16.84l-33.68-16.84z"/><path d="M597.25 364.472l9.898-13.624-37.146-6.173z"/><path d="M614.034 352.738l-16.015 5.204 26.423 26.827z"/><path d="M598.452 365.345l9.898-13.623 17.35 33.42z"/><path d="M594.816 352.738l16.015 5.204-5.608-37.236z"/><path d="M614.833 351.697l-16.016 5.204 5.608-37.235z"/><path d="M594.816 352.738l16.015 5.204-26.423 26.827z"/><path d="M610.398 365.345l-9.898-13.623-17.35 33.42z"/></g><g fill="#CC142B"><path d="M604.425 348.843v11.695l23.389-11.695z"/><path d="M609.408 361.84l-6.874-9.46 25.796-4.287z"/><path d="M604.425 348.843v11.695l-23.389-11.695z"/><path d="M599.442 361.84l6.874-9.46-25.796-4.287z"/><path d="M611.098 353.692l-11.122 3.614 18.35 18.63z"/><path d="M600.277 362.447l6.874-9.46 12.048 23.208z"/><path d="M597.752 353.692l11.122 3.614-3.895-25.858z"/><path d="M611.653 352.969l-11.122 3.614 3.894-25.858z"/><path d="M597.752 353.692l11.122 3.614-18.35 18.63z"/><path d="M608.573 362.447l-6.874-9.46-12.048 23.208z"/></g><g fill-rule="nonzero"><path d="M0 0v28.5l343.6 226H387V226L43.3 0H0zm386.9 0v28.5l-343.6 226H0V226L343.6 0H387h-.1z" fill="#FFF"/><path d="M161.2 0v254.4h64.5V.1h-64.5V0zM0 85v84.7h386.9V84.8H0v.2z" fill="#FFF"/><path d="M0 101.8v50.9h386.9v-50.9H0zM174.1.1v254.3h38.7V.1h-38.7zM0 254.4l129-84.8h28.8l-129 84.8H0zM0 .1l129 84.8h-29L0 19V0v.1zm229.1 84.8L358.1 0h28.8l-129 84.8h-28.8v.1zm157.8 169.5l-129-84.8h28.9l100.1 65.9v19-.1z" fill="#C00"/></g></g></svg>