<svg width="800" height="480" xmlns="http://www.w3.org/2000/svg"><g fill="none" fill-rule="evenodd"><path fill="#EF2D29" d="M0 0h800v480H0z"/><path fill="#009025" d="M174 320h626v160H174z"/><path fill="#FFF" d="M174.11 0H800v160H174z"/><g stroke="#EF2D28" stroke-width=".5"><g transform="translate(114.674 69.464)" fill="#FFF"><rect x=".139" y=".124" width="27.43" height="15.082" rx="7.541"/><rect x=".853" y=".763" width="26.021" height="13.84" rx="6.92"/><path d="M12.955 4.514l1.311.052.054.602 1.082.55.838-.695 1.014.55-.947.602.23.831 1.19-.052v1.09l-.947-.041-.486.685 1.081.779-.838.644-.906-.686-1.31.27.067 1.008-1.433.104-.19-.977-1.189-.498-.662.685L9.9 9.51l.595-.78-.717-.498H8.764L8.71 6.81l1.014.093.716-.83-.838-.644 1.082-.727.77.592 1.312-.187z"/><ellipse cx="13.328" cy="7.509" rx="1.45" ry="1.234"/><path d="M4.367 1.384l-2.124 1.88m3.533-1.88l-2.124 1.88m3.513-1.88l-2.104 1.88m3.513-1.88L6.47 3.264m3.514-1.88L7.88 3.264m3.513-1.88l-2.104 1.88m3.513-1.88l-2.104 1.88m3.513-1.88l-2.104 1.88m3.513-1.88l-2.123 1.88m3.533-1.88l-2.144 1.88m3.513-1.88l-2.104 1.88m3.513-1.88l-2.104 1.88m-3.513-1.88l-2.084 1.88m9.13-1.88l-2.104 1.88m3.514-1.88l-2.104 1.88m3.513-1.88l-2.104 1.88m3.513-1.88l-2.104 1.88m0-1.88l2.104 1.88m-3.513-1.88l2.104 1.88m-3.513-1.88l2.104 1.88m-3.514-1.88l2.104 1.88m-3.513-1.88l2.104 1.88m-3.513-1.88l2.104 1.88m-3.513-1.88l2.124 1.88m-3.533-1.88l2.104 1.88m-3.533-1.88l2.123 1.88m-3.513-1.88l2.104 1.88M9.27 1.385l2.104 1.88M7.86 1.385l2.104 1.88m3.533-1.88l2.104 1.88m-9.13-1.88l2.083 1.88m-3.513-1.88l2.124 1.88m-3.533-1.88l2.124 1.88m-3.533-1.88l2.144 1.88m0 8.802l-2.104 1.899m3.493-1.9l-2.124 1.9m3.553-1.9l-2.124 1.9m3.513-1.9l-2.104 1.9m3.514-1.9l-2.104 1.9m3.513-1.9l-2.104 1.9m3.513-1.9l-2.084 1.9m3.493-1.9l-2.104 1.9m3.513-1.9l-2.123 1.9m3.513-1.9l-2.124 1.9m3.573-1.9l-2.124 1.9m3.513-1.9l-2.104 1.9m-3.533-1.9l-2.104 1.9m9.13-1.9l-2.104 1.9m3.514-1.9l-2.104 1.9m3.513-1.9l-2.104 1.9m3.513-1.9l-2.104 1.9m0-1.9l2.104 1.9m-3.513-1.9l2.104 1.9m-3.513-1.9l2.104 1.9m-3.514-1.9l2.104 1.9m-3.513-1.9l2.104 1.9m-3.513-1.9l2.124 1.9m-3.553-1.9l2.124 1.9m-3.513-1.9l2.104 1.9m-3.494-1.9l2.104 1.9m-3.513-1.9l2.104 1.9m-3.513-1.9l2.104 1.9m-3.513-1.9l2.104 1.9m3.532-1.9l2.104 1.9m-9.13-1.9l2.084 1.9m-3.513-1.9l2.124 1.9m-3.533-1.9l2.124 1.9m-3.513-1.9l2.104 1.9"/></g><g transform="translate(22.474 68.864)" fill="#FFF"><rect x=".139" y=".124" width="27.43" height="15.082" rx="7.541"/><rect x=".853" y=".763" width="26.021" height="13.84" rx="6.92"/><path d="M12.955 4.514l1.311.052.054.602 1.082.55.838-.695 1.014.55-.947.602.23.831 1.19-.052v1.09l-.947-.041-.486.685 1.081.779-.838.644-.906-.686-1.31.27.067 1.008-1.433.104-.19-.977-1.189-.498-.662.685L9.9 9.51l.595-.78-.717-.498H8.764L8.71 6.81l1.014.093.716-.83-.838-.644 1.082-.727.77.592 1.312-.187z"/><ellipse cx="13.328" cy="7.509" rx="1.45" ry="1.234"/><path d="M4.367 1.384l-2.124 1.88m3.533-1.88l-2.124 1.88m3.513-1.88l-2.104 1.88m3.513-1.88L6.47 3.264m3.514-1.88L7.88 3.264m3.513-1.88l-2.104 1.88m3.513-1.88l-2.104 1.88m3.513-1.88l-2.104 1.88m3.513-1.88l-2.123 1.88m3.533-1.88l-2.144 1.88m3.513-1.88l-2.104 1.88m3.513-1.88l-2.104 1.88m-3.513-1.88l-2.084 1.88m9.13-1.88l-2.104 1.88m3.514-1.88l-2.104 1.88m3.513-1.88l-2.104 1.88m3.513-1.88l-2.104 1.88m0-1.88l2.104 1.88m-3.513-1.88l2.104 1.88m-3.513-1.88l2.104 1.88m-3.514-1.88l2.104 1.88m-3.513-1.88l2.104 1.88m-3.513-1.88l2.104 1.88m-3.513-1.88l2.124 1.88m-3.533-1.88l2.104 1.88m-3.533-1.88l2.123 1.88m-3.513-1.88l2.104 1.88M9.27 1.385l2.104 1.88M7.86 1.385l2.104 1.88m3.533-1.88l2.104 1.88m-9.13-1.88l2.083 1.88m-3.513-1.88l2.124 1.88m-3.533-1.88l2.124 1.88m-3.533-1.88l2.144 1.88m0 8.802l-2.104 1.899m3.493-1.9l-2.124 1.9m3.553-1.9l-2.124 1.9m3.513-1.9l-2.104 1.9m3.514-1.9l-2.104 1.9m3.513-1.9l-2.104 1.9m3.513-1.9l-2.084 1.9m3.493-1.9l-2.104 1.9m3.513-1.9l-2.123 1.9m3.513-1.9l-2.124 1.9m3.573-1.9l-2.124 1.9m3.513-1.9l-2.104 1.9m-3.533-1.9l-2.104 1.9m9.13-1.9l-2.104 1.9m3.514-1.9l-2.104 1.9m3.513-1.9l-2.104 1.9m3.513-1.9l-2.104 1.9m0-1.9l2.104 1.9m-3.513-1.9l2.104 1.9m-3.513-1.9l2.104 1.9m-3.514-1.9l2.104 1.9m-3.513-1.9l2.104 1.9m-3.513-1.9l2.124 1.9m-3.553-1.9l2.124 1.9m-3.513-1.9l2.104 1.9m-3.494-1.9l2.104 1.9m-3.513-1.9l2.104 1.9m-3.513-1.9l2.104 1.9m-3.513-1.9l2.104 1.9m3.532-1.9l2.104 1.9m-9.13-1.9l2.084 1.9m-3.513-1.9l2.124 1.9m-3.533-1.9l2.124 1.9m-3.513-1.9l2.104 1.9"/></g><path d="M66.093 100.086c-29.227 37.535-41.695 40.76-35.833 45.21 5.862 4.449 24.677-14.283 44.252-40.074 19.576-25.79 31.567-49.703 25.705-54.152-5.862-4.45-3.03 9.135-34.124 49.016z" fill="#FFF"/><path d="M36.99 124.914l11.968 3.141c-11.254 10.7-23.917 15.083-27.43 13.202-3.513-1.881 6.331-6.282 15.481-16.325l-.02-.018z" fill="#FFF"/><path d="M36.985 126.16l9.86 2.509c-10.962 10.288-21.808 13.206-24.612 11.943-2.823-1.245 5.858-4.777 14.752-14.451z" fill="#FFF"/><path d="M73.644 99.13c-.028.161-.112.881-.182 1.167 0 .397-.042.695-.084 1.005-.112.273-.098.521-.433.62a1.346 1.346 0 0 1-.7.547c-.268.191-.564.35-.88.472-.33.127-.699.153-1.048.074-.308-.186-.531-.385-.783-.546-.056-.248-.112-.608-.182-.857.11.331.17.674.182 1.018-.028.373-.182.547-.35.844m1.286.852l-.084-.074c.21.186.126.1-.35-.162-.335-.149-.699-.223-1.132-.298h-1.23c-.475 0-.797.063-1.132.15-.252.223-.615.347-.88.546a1.39 1.39 0 0 0-.518.62c-.238.211-.391.534-.615.696-.098.36-.294.347-.433.62.419.025.74.075.964.31.364.162-.307-.16-.447-.31-.28-.074-.35-.149-.783-.149-.391-.124-.643.087-1.048.15-.238.123-.308.16-.615.16m3.595 1.605c-.181 0-.992.136-1.314 0-.363-.088-.559-.25-.782-.547-.112-.211 0 .372 0 .62-.042.46-.196.46-.448.77-.251.15-.517.348-.782.472a2.6 2.6 0 0 1-.783.385c-.28.124-.573.223-.783.385-.293.186-.28.41-.447.707.042.373.112.596.35.77.111.26.335.521.53.695.21.373.462.534-.083.62-.308.125-.476.026-.797 0m-.201.532a22.11 22.11 0 0 1-1.314-.385h-1.23c-.462.037-.56.161-.95.31-.266.236-.434.398-.798.547-.181.21-.559.583-.698.856a2.84 2.84 0 0 0-.168.993c0 .46.14.546.168.944.097.341.279.659.53.93.043.1.07.125.168.15m.169 1.012c-.04 0-.12.196-.248.362-.288.294-.318.314-.744.314-.397-.02-.348-.157-.626-.245-.129-.196-.287-.353-.436-.617-.1-.157-.189-.402-.298-.55-.12-.185-.258-.322-.377-.49-.12-.048-.159-.097-.318-.126.358.058.397.186.625.372.113.177.216.36.308.549.04.264.12.47.13.793 0 .343 0 .579-.13.863-.149.147-.248.303-.437.43-.156.151-.3.315-.426.49l-.566.363a1.56 1.56 0 0 1-.675.245c-.367-.03-.476-.127-.744-.245-.238-.166-.417-.274-.625-.43a2.066 2.066 0 0 1-.437-.49c-.327-.08-.546-.05-.744.127a1.627 1.627 0 0 0-.427.43c-.1.05-.278.197-.377.246m.714.2c.099.036.469.293.617.379.099.33.26.501.309.856.086.318.086.685.086 1.064-.086.391-.247.672-.395.978-.247.171-.37.294-.69.465a6.085 6.085 0 0 1-1 .085c-.247.074-.691.11-.926 0-.345-.049-.604-.183-.85-.305-.285-.16-.457-.318-.766-.465-.16-.22-.395-.428-.617-.685-.197-.257-.333-.403-.469-.685.124.318.284.612.383.917.185.318.284.44.308.832.124.318.087.71.087 1.076-.037.245-.05.71-.16.917v.233m-7.295 1.201v.124c0-.301 0-.16.139.444.218.248.794.32 1.23.213.397-.302.397-.533 1.112-.657.714.036.992.213 1.39.444.421.14.773.41.992.763.138.372.218.639-.258.78a3.25 3.25 0 0 1-1.39.444c-.556 0-.972-.053-1.23.23-.397.356-.358.569-.358 1.207-.139.196-.158.781-.258 1.012-.341.16-.726.234-1.111.213-.14-.355-.278-.958-.377-1.331-.1-.39-.12-.958-.377-1.224a3.132 3.132 0 0 0-.854-.781 1.622 1.622 0 0 0-.754-.426c.496.213.556.461.615.994-.417.177-.536.32-1.23.337-.695-.053-.854-.213-1.112-.568-.06.568-.258.745-.397 1.242-.238.32-.337.657-.595 1.1.099.533.337.55.357 1.207.159.443.159.852.496 1.118.159.177.278.195.635.213-.714 0-1.15-.071-1.627-.32-.357-.213-.635-.461-.993-.674a4.978 4.978 0 0 0-1.488-.674c-.576 0-.993-.054-1.23.23-.358.231-.596.621-.755 1.118-.1.568-.159.958.139 1.331.198.426.258.586 0 1.1-.298.355-.715.408-1.39.55a4.675 4.675 0 0 1-1.23-.213"/><g transform="matrix(-1 0 0 1 132.2 18.184)"><path d="M26.09 52.467C12.56 26.27 3.824 3.82 6.561 2.407 9.326.979 22.547 21.11 36.08 47.308l-9.989 5.16z" fill="#FFF"/><path d="M27.141 51.97C14.088 26.696 5.29 5.232 7.48 4.1c2.212-1.142 14.6 18.468 27.653 43.743" fill="#FFF"/><path d="M31.342 38.347c1.596 2.95 3.274 6.338 4.902 9.49l-8.013 4.14c-1.629-3.154-3.42-6.483-4.902-9.491l8.013-4.14z" fill="#FFF"/><path d="M30.611 39.423c1.604 2.967 2.696 5.219 4.332 8.387l-5.981 3.09c-1.629-3.153-2.85-5.378-4.332-8.387l5.981-3.09z" fill="#FFF"/><path d="M25.238 43.122l4.006-2.07 3.176 6.15-4.007 2.069-3.175-6.149zm0 0l7.182 4.08-7.182-4.08zm3.175 6.149l.831-8.218-.83 8.218zM9.083 11.844l4.006-2.07-4.006 2.07z" fill="#FFF" fill-rule="nonzero"/><ellipse fill="#EF0000" transform="rotate(13.081 8.212 7.845)" cx="8.212" cy="7.845" rx="1.158" ry="1.006"/></g><path d="M98.307 99.486c29.227 37.535 41.695 40.76 35.833 45.21-5.862 4.449-24.677-14.283-44.252-40.074C70.312 78.832 58.32 54.919 64.183 50.47c5.862-4.45 3.03 9.135 34.124 49.016z" fill="#FFF"/><path d="M127.41 124.314l-11.968 3.141c11.254 10.7 23.917 15.083 27.43 13.202 3.513-1.881-6.331-6.282-15.481-16.325l.02-.018z" fill="#FFF"/><path d="M127.415 125.46l-9.86 2.509c10.962 10.288 21.808 13.206 24.612 11.943 2.823-1.245-5.858-4.777-14.752-14.451z" fill="#FFF"/><path d="M90.756 98.43c.028.161.112.881.182 1.167 0 .397.042.695.084 1.005.112.273.098.521.433.62.155.249.402.442.7.547.268.191.564.35.88.472.33.127.699.153 1.048.074.308-.186.531-.385.783-.546.056-.248.112-.608.182-.857-.11.331-.17.674-.182 1.018.028.373.182.547.35.844m-1.286.852l.084-.074c-.21.186-.126.1.35-.162.335-.149.699-.223 1.132-.298h1.23c.475 0 .797.063 1.132.15.252.223.615.347.88.546.237.158.416.374.518.62.238.211.391.534.615.696.098.36.294.347.433.62-.419.025-.74.075-.964.31-.364.162.307-.16.447-.31.28-.074.35-.149.783-.149.391-.124.643.087 1.048.15.238.123.308.16.615.16m-3.595 1.705c.181 0 .992.136 1.314 0 .363-.088.559-.25.782-.547.112-.211 0 .372 0 .62.042.46.196.46.448.77.251.15.517.348.782.472.233.169.498.3.783.385.28.124.573.223.783.385.293.186.28.41.447.707-.042.373-.112.596-.35.77-.111.26-.335.521-.53.695-.21.373-.462.534.083.62.308.125.476.026.797 0m.201.532c.224-.05.979-.273 1.314-.385h1.23c.462.037.56.161.95.31.266.236.434.398.798.547.181.21.559.583.698.856.115.321.172.656.168.993 0 .46-.14.546-.168.944a2.299 2.299 0 0 1-.53.93c-.043.1-.07.125-.168.15m-.069 1.012c.04 0 .12.196.248.362.288.294.318.314.744.314.397-.02.348-.157.626-.245.129-.196.287-.353.436-.617.1-.157.189-.402.298-.55.12-.185.258-.322.377-.49.12-.048.159-.097.318-.126-.358.058-.397.186-.625.372a5.75 5.75 0 0 0-.308.549c-.04.264-.12.47-.13.793 0 .343 0 .579.13.863.149.147.248.303.437.43.156.151.3.315.426.49l.566.363c.179.108.387.216.675.245.367-.03.476-.127.744-.245.238-.166.417-.274.625-.43a2.1 2.1 0 0 0 .437-.49c.327-.08.546-.05.744.127.169.116.313.262.427.43.1.05.278.197.377.246m-.814.1c-.099.036-.469.293-.617.379-.099.33-.26.501-.309.856-.086.318-.086.685-.086 1.064.086.391.247.672.395.978.247.171.37.294.69.465.31.049.618.085 1 .085.247.074.691.11.926 0 .345-.049.604-.183.85-.305.285-.16.457-.318.766-.465.16-.22.395-.428.617-.685.197-.257.333-.403.469-.685-.124.318-.284.612-.383.917-.185.318-.284.44-.308.832-.124.318-.087.71-.087 1.076.037.245.05.71.16.917v.233m7.295 1.301v.124c0-.301 0-.16-.139.444-.218.248-.794.32-1.23.213-.397-.302-.397-.533-1.112-.657-.714.036-.992.213-1.39.444-.421.14-.773.41-.992.763-.138.372-.218.639.258.78a3.25 3.25 0 0 0 1.39.444c.556 0 .972-.053 1.23.23.397.356.358.569.358 1.207.139.196.158.781.258 1.012.341.16.726.234 1.111.213.14-.355.278-.958.377-1.331.1-.39.12-.958.377-1.224.228-.306.517-.57.854-.781.2-.204.462-.351.754-.426-.496.213-.556.461-.615.994.417.177.536.32 1.23.337.695-.053.854-.213 1.112-.568.06.568.258.745.397 1.242.238.32.337.657.595 1.1-.099.533-.337.55-.357 1.207-.159.443-.159.852-.496 1.118-.159.177-.278.195-.635.213.714 0 1.15-.071 1.627-.32.357-.213.635-.461.993-.674.447-.302.951-.53 1.488-.674.576 0 .993-.054 1.23.23.358.231.596.621.755 1.118.1.568.159.958-.139 1.331-.198.426-.258.586 0 1.1.298.355.715.408 1.39.55a4.675 4.675 0 0 0 1.23-.213"/><g transform="translate(32.2 17.584)"><path d="M26.09 52.467C12.56 26.27 3.824 3.82 6.561 2.407 9.326.979 22.547 21.11 36.08 47.308l-9.989 5.16z" fill="#FFF"/><path d="M27.141 51.97C14.088 26.696 5.29 5.232 7.48 4.1c2.212-1.142 14.6 18.468 27.653 43.743" fill="#FFF"/><path d="M31.342 38.347c1.596 2.95 3.274 6.338 4.902 9.49l-8.013 4.14c-1.629-3.154-3.42-6.483-4.902-9.491l8.013-4.14z" fill="#FFF"/><path d="M30.611 39.423c1.604 2.967 2.696 5.219 4.332 8.387l-5.981 3.09c-1.629-3.153-2.85-5.378-4.332-8.387l5.981-3.09z" fill="#FFF"/><path d="M25.238 43.122l4.006-2.07 3.176 6.15-4.007 2.069-3.175-6.149zm0 0l7.182 4.08-7.182-4.08zm3.175 6.149l.831-8.218-.83 8.218zM9.083 11.844l4.006-2.07-4.006 2.07z" fill="#FFF" fill-rule="nonzero"/><ellipse fill="#EF0000" transform="rotate(13.081 8.212 7.845)" cx="8.212" cy="7.845" rx="1.158" ry="1.006"/></g><g transform="translate(26.047 17.94)" fill="#FFF"><path d="M45.8 38.487c0 22.002.133 30.289-1.481 31.424-1.535 1.225-44.22 0-44.22 6.282 0 6.281 35.143 12.598 45.702 12.598 14.078 0 21.09-6.3 21.09-18.88V38.504h-21.09v-.017z"/><path d="M45.81 44.767v3.141a71.191 71.191 0 0 0 21.078 0v-3.14a71.191 71.191 0 0 1-21.079 0zm0-6.281v3.14a71.191 71.191 0 0 0 21.078 0v-3.14a71.191 71.191 0 0 1-21.079 0z"/><path d="M45.81 41.627v3.14a71.191 71.191 0 0 0 21.078 0v-3.14a71.191 71.191 0 0 1-21.079 0zm0 6.281v3.14a71.191 71.191 0 0 0 21.078 0v-3.14a71.191 71.191 0 0 1-21.079 0z"/><ellipse cx="46.767" cy="43.405" rx="1" ry="1"/><ellipse cx="50.6" cy="43.743" rx="1" ry="1"/><ellipse cx="54.443" cy="44.089" rx="1" ry="1"/><ellipse cx="58.275" cy="44.089" rx="1" ry="1"/><ellipse cx="62.108" cy="43.743" rx="1" ry="1"/><ellipse cx="65.951" cy="43.405" rx="1" ry="1"/><path d="M45.81 54.19l21.078 16.981m-18.975-16.98l18.995 15.082M50.712 54.829l16.196 12.58M52.816 54.811l14.092 10.7M54.939 54.829l11.949 8.801m-9.845-8.801l9.845 6.92m-7.741-6.92l7.74 5.022m-5.596-5.022l5.636 3.762m-3.552-3.762l3.533 2.52m-1.41-2.52l1.39 1.242m-21.079 0L66.888 73.07m0-18.862L43.666 73.052M64.764 54.19L44.38 70.55m17.585-15.72L45.79 67.392m14.053-12.563L45.789 65.511m11.969-10.682L45.809 63.63m9.845-8.801l-9.845 6.92m7.74-6.92l-7.74 5.022m5.597-5.022l-5.617 3.762m3.513-3.762l-3.513 2.52m1.39-2.52l-1.39 1.242m21.099 0L43.666 74.968m23.222-16.98L43.666 76.831M66.888 59.85L43.666 78.712m23.222-16.98L43.666 80.628m23.222-16.981L43.666 82.492M66.888 65.51L43.666 84.373m23.222-16.981L43.666 86.254M66.888 69.29L43.666 88.152m23.222-16.98l-21.813 17.6m21.813-15.721l-19.69 15.721m18.975-13.201l-15.481 12.58m14.806-10.078l-12.663 10.06m11.254-6.92l-6.351 5.022M45.809 57.952l20.384 16.342M45.81 59.833l20.384 16.36M45.81 61.749L65.5 77.453m-19.69-13.84L65.5 79.35M45.81 65.51l18.975 15.082M45.095 66.77L64.09 81.853M45.095 68.67L62.68 82.51M44.4 69.912l17.585 13.84m-18.32-12.598l16.871 13.202m-16.87-11.32l16.176 12.58M43.666 74.933l14.092 11.303M45.81 51.067v3.14a71.191 71.191 0 0 0 21.078 0v-3.14a71.191 71.191 0 0 1-21.079 0zm-2.125 25.765l12.663 10.06M43.685 78.73l11.254 8.783m-11.254-6.92l9.845 7.56m-9.845-5.679l7.046 5.678m-7.065-3.78l5.636 4.401m-5.636-2.52l3.513 2.52"/><ellipse cx="46.767" cy="52.845" rx="1" ry="1"/><ellipse cx="50.6" cy="53.183" rx="1" ry="1"/><ellipse cx="54.443" cy="53.511" rx="1" ry="1"/><ellipse cx="58.275" cy="53.511" rx="1" ry="1"/><ellipse cx="62.108" cy="53.183" rx="1" ry="1"/><ellipse cx="65.951" cy="52.845" rx="1" ry="1"/><path d="M15.56 83.752L40.868 70.55M14.152 83.113L38.068 70.55M13.457 81.853L35.25 70.55M12.742 80.611l18.995-10.06m-20.424 8.8l17.586-8.8m-16.871 6.92l11.948-6.3m-12.663 5.022l9.13-5.022m-9.13 3.14l6.352-3.14m0 13.202l23.897-12.58m-21.774 13.2l22.488-11.941m-20.384 12.58l21.099-11.32M23.996 86.254l17.586-9.422m-14.787 9.422l15.481-8.163M28.9 86.892l13.357-6.92m-11.253 7.541l10.559-5.66m-7.741 5.678l8.435-4.418m-5.617 5.04l5.637-3.16m-2.778 3.16l3.513-1.882m1.136-17.459h-3.14a71.191 71.191 0 0 0 0 21.078h3.14a71.191 71.191 0 0 1 0-21.078zm-41.25 9.9l8.435-6.281m-8.435 1.88l8.435 7.542M15.3 70.376l-3.776.704c-.838 4.462-.838 8.208 0 12.67l3.776 1.396c-.838-4.45-.838-10.308 0-14.77zm51.59-30.647v-3.176c-3.182.035-5.294-1.863-5.294-3.762l-10.527.018c0 1.88-2.082 3.78-5.264 3.78v3.14H66.89z"/><path d="M51.803 29.047h9.051v3.78h-9.05v-3.78zm.774-3.78H60.1v3.78h-7.542l.02-3.78zm0-3.761H60.1v3.761h-7.542l.02-3.761zm.755-5.04h6.014v5.04h-6.014v-5.04zm-.258-4.4h6.55v4.4h-6.55v-4.4z"/><ellipse cx="56.687" cy="7.985" rx="8.716" ry="5.98"/><path d="M61.055 7.665c0 1.65 2.174 4.4 2.174 4.4-1.579 1.101-4.142 1.9-6.542 1.9-2.4 0-5.394-.462-6.542-1.9 0 0 2.174-2.732 2.174-4.382 0-1.65-2.174-3.78-2.174-3.78 1.903-1.21 4.2-1.868 6.562-1.88 2.38 0 4.923.798 6.522 1.88 0 0-2.174 2.13-2.174 3.78v-.018z"/><path d="M59.6 7.665c0 1.65 2.173 5.04 2.173 5.04-1.579 1.064-2.666 1.242-5.086 1.242-2.42 0-3.938.195-5.086-1.242 0 0 2.174-3.372 2.174-5.04 0-1.668-2.174-4.4-2.174-4.4 1.579-1.065 2.666-1.242 5.086-1.242 2.4 0 3.507.177 5.086 1.242 0 0-2.174 2.75-2.174 4.4z"/><ellipse cx="47.971" cy="8.286" rx="2.174" ry="1.881"/><ellipse cx="65.417" cy="8.286" rx="2.174" ry="1.881"/><ellipse cx="56.704" cy="8.286" rx="2.174" ry="1.881"/><ellipse cx="56.704" cy="2.005" rx="2.174" ry="1.881"/><ellipse cx="50.331" cy="37.848" rx="2.252" ry="1.881"/><ellipse cx="62.359" cy="37.848" rx="2.252" ry="1.881"/><path d="M51.074 32.809h10.535l-5.267 5.66-5.268-5.66z"/><ellipse cx="56.333" cy="37.208" rx="3.002" ry="2.508"/></g><g transform="translate(46.786 69.443)" fill="#FFF"><rect x="24.056" y="4.507" width="16.176" height="3.779" rx="1.89"/><path d="M45.154 1.366c-1.945 0-3.513 1.473-3.513 3.283v2.857c-.027.853.33 1.68.99 2.297.66.617 1.569.971 2.523.985.955-.014 1.863-.368 2.523-.985.66-.617 1.017-1.444.99-2.297v-2.84c.032-.856-.322-1.687-.982-2.308-.66-.62-1.573-.978-2.53-.992zm0 1.242c-1.17 0-2.104 1.19-2.104 2.644v1.65c0 1.455.933 2.627 2.104 2.627s2.104-1.172 2.104-2.627v-1.65c0-1.455-.933-2.626-2.104-2.626v-.018zm-18.28-.62c-1.19 0-2.104 1.17-2.104 2.643v2.91c0 1.455.933 2.626 2.104 2.626s2.104-1.17 2.104-2.626V4.613c0-1.472-.933-2.643-2.104-2.643v.017zm0-1.243c-.954.014-1.863.369-2.523.986-.66.616-1.017 1.444-.99 2.297v4.116c-.027.854.33 1.68.99 2.298.66.616 1.569.971 2.523.985 1.945 0 3.513-1.473 3.513-3.283V4.028c.032-.856-.322-1.688-.982-2.309-.66-.62-1.573-.978-2.53-.991v.017z"/><path d="M21.237 3.247c-1.17 0-2.104 1.171-2.104 2.626v.692c0 1.455.933 2.626 2.104 2.626 1.191 0 2.124-1.17 2.124-2.626v-.692c0-1.455-.953-2.626-2.124-2.626zm0-1.242c-.954.014-1.863.369-2.523.986-.66.616-1.016 1.444-.99 2.297v1.88c-.026.854.33 1.681.99 2.298.66.616 1.569.971 2.523.985 1.945 0 3.533-1.473 3.533-3.282V5.288c.032-.86-.324-1.694-.99-2.315-.664-.621-1.581-.977-2.543-.986v.018z"/><path d="M12.826 1.511c-2.144 0-3.823 1.31-3.823 2.935v3.272c0 1.607 1.715 2.935 3.823 2.935 2.072 0 3.787-1.308 3.787-2.954V4.446c0-1.626-1.715-2.935-3.787-2.935zm0-1.388c-1.718.01-3.358.402-4.552 1.088-1.195.685-1.846 1.608-1.808 2.561v4.6c-.057.958.58 1.887 1.77 2.581 1.188.694 2.83 1.093 4.554 1.108 3.537 0 6.36-1.646 6.36-3.688v-4.6c.047-.954-.594-1.879-1.782-2.568C16.18.515 14.544.119 12.826.103v.02zm45.71 2.01c-2.144 0-3.823 1.308-3.823 2.934V8.34c0 1.606 1.715 2.934 3.823 2.934 2.072 0 3.787-1.308 3.787-2.954V5.067c0-1.626-1.715-2.934-3.787-2.934zm0-1.389c-1.718.01-3.358.402-4.552 1.088-1.195.685-1.846 1.608-1.808 2.561v4.6c-.057.958.58 1.887 1.769 2.581 1.19.694 2.83 1.093 4.555 1.108 3.537 0 6.36-1.646 6.36-3.688v-4.6c.047-.954-.594-1.879-1.782-2.568C61.89 1.136 60.254.74 58.536.725v.02z"/><rect x="46.563" y="4.507" width="8.435" height="3.779" rx="1.89"/><rect x="38.823" y="3.886" width="4.922" height="5.039" rx="1.3"/><rect x="15.62" y="3.886" width="4.922" height="5.039" rx="1.3"/><rect x=".139" y="3.247" width="9.845" height="6.281" rx="2.6"/><rect x="61.33" y="3.886" width="9.15" height="6.281" rx="2.5"/></g></g></g></svg>