<svg width="800" height="480" xmlns="http://www.w3.org/2000/svg"><g fill="none" fill-rule="evenodd"><path fill="#000" d="M.625 0L0 480h800z"/><path fill="red" d="M799.375 480L800 0H0z"/><path d="M463.696 119.418l-8.435-.442c-2.664-6.194-9.99-8.406-14.652-5.752a739.37 739.37 0 0 1-25.75-.442l15.76 6.857c4.219 10.839 17.538 13.05 17.538 13.05-1.332 19.466-19.757-2.433-35.296 8.627-11.1 6.636-11.1 14.378-17.093 27.207-1.998 3.54-9.768 12.83-9.768 12.83l13.097-1.107-4.217 5.53 15.539-2.212-3.33 3.097c2.22.442 17.76-3.76 17.76-3.76l-1.11 5.087 17.758-6.415s3.552 2.876 6.66 4.203l2.22-8.848 8.88 2.212 2.22-8.847c13.319 17.695 17.758 35.39 42.177 39.814l-2.22-8.847a583.053 583.053 0 0 1 19.313 8.847l1.998-3.76c10.656 7.52 19.313 7.3 25.307 8.184l-4.44-11.06 4.44 2.213-6.66-17.696 6.66 2.212-8.88-13.272 3.33-2.212-1.11-6.635c13.32 4.423 31.079 11.06 33.299 26.543 2.22 24.331-24.42 30.967-42.178 28.755 13.32 11.06 37.738 6.636 48.837-4.424 4.44-4.424 6.66-11.06 8.88-17.695 2.22 6.636 6.66 15.483 6.66 24.331-2.22 19.907-28.859 26.543-46.618 28.755 19.979 11.06 55.497-2.212 57.717-30.967 0-24.331-15.54-35.391-22.199-46.45l-2.22-11.945 6.66 3.097s-3.996-7.3-4.44-8.848c0 0-6.882-18.802-9.323-23.004l4.883.884-18.203-22.783 5.106-.442s-21.089-16.59-26.86-18.801l6.659-2.212c-13.32-6.636-28.859-2.212-42.178 6.635l2.22-6.635-3.996.442v-7.742l3.996-5.972-6.66-2.212 4.44-11.06-6.66 2.212 2.22-11.06s-4.883 2.213-7.991 1.991a114.171 114.171 0 0 0 3.552-7.52c-2.22-3.318 0-9.954 0-9.954-15.54 2.212-17.76 4.424-26.64 17.696-13.319 24.33-8.879 35.39-6.659 59.722z" stroke="#FC0" stroke-width="2.438" fill="#FC0"/><path d="M547 156c1.11 1.99 13.763 7.963 23.087 13.272C567.645 159.097 549.22 156.885 547 156z" stroke="red" stroke-width="3.102" fill="red"/><path d="M175 399l-14.2-9-19 9.1 4.3-16.2-14.5-15.1 16.7-1 10-18.4 6.1 15.5 20.7 3.8-13 10.6L175 399zm36.2-79l-6.6-3-6.3 3.6 1-7.2-5.4-4.9 7.1-1.3 3-6.6 3.5 6.4 7.2.8-5 5.2 1.5 7zm32-45.2l-14.5-7-13.9 7.8 2.3-15.7-11.8-10.8 15.7-2.8 6.6-14.4 7.6 14 15.8 1.8-11 11.5 3.2 15.6zm-65.8-63l-17-8.5-16.5 9.1 2.8-18.6-13.8-13 18.7-3 8-17 8.7 16.7 18.8 2.3-13.3 13.4 3.6 18.6zm-60.8 65.4l-17-10-17 10.3 4.3-19.3-15.1-13 19.7-1.8 7.7-18.3 7.9 18.2 19.8 1.6-14.9 13 4.6 19.3z" fill="#FFF"/></g></svg>