<svg width="800" height="480" xmlns="http://www.w3.org/2000/svg"><g fill="none" fill-rule="evenodd"><path fill="#0C590B" d="M0 0h800v480H0z"/><path fill="#FFF" d="M.001 0h180.468v480H0z"/><g fill="#FFF"><path d="M607.844 209l-29.25-6.188-15.375 25.594-3.188-29.625-29.062-6.75 27.187-12.187-2.531-29.719 20.063 22.125 27.468-11.625L588.25 186.5l19.688 22.5z"/><path d="M618.813 284.563a113.625 113.625 0 0 1-151.22 55.687c-57.368-26.562-82.342-94.6-55.78-151.969A111.188 111.188 0 0 1 478.75 128a146.437 146.437 0 0 0-11.063 10.219c-38.018 42.104-35.84 106.76 4.925 146.211 40.765 39.451 105.458 39.51 146.294.132h-.093v.001z"/></g></g></svg>