<svg width="800" height="480" xmlns="http://www.w3.org/2000/svg"><g fill="none" fill-rule="evenodd"><path fill="red" d="M320 0h480v480H320z"/><path fill="#060" d="M0 0h320v480H0z"/><g stroke-linecap="round" stroke-linejoin="round" fill="#FF0" stroke="#000" stroke-width=".6"><path d="M402.5 306.2c-32.3-1-180-93.2-181-108l8.1-13.5c14.7 21.3 165.7 111 180.6 107.8l-7.7 13.7"/><path d="M227.9 182.8c-2.9 7.8 38.6 33.4 88.4 63.8 49.9 30.3 92.9 49 96 46.4l1.5-2.8c-.6 1-2 1.3-4.3.6-13.5-3.9-48.6-20-92.1-46.4-43.6-26.4-81.4-50.7-87.3-61a6.3 6.3 0 0 1-.6-3.1h-.2l-1.2 2.2-.2.3zm175.3 123.8c-.5 1-1.6 1-3.5.8-12-1.3-48.6-19.1-91.9-45-50.4-30.2-92-57.6-87.4-64.8l1.2-2.2.2.1c-4 12.2 82.1 61.4 87.2 64.6 49.8 30.8 91.8 48.9 95.5 44.2l-1.3 2.3z"/><path d="M319.2 207.2c32.2-.3 72-4.4 95-13.6l-5-8c-13.5 7.5-53.5 12.5-90.3 13.2-43.4-.4-74.1-4.5-89.5-14.8l-4.6 8.6c28.2 12 57.2 14.5 94.4 14.6"/><path d="M415.5 193.8c-.8 1.3-15.8 6.4-37.8 10.2a381.2 381.2 0 0 1-58.6 4.3 416.1 416.1 0 0 1-56.2-3.6c-23.1-3.6-35-8.6-39.5-10.4l1.1-2.2c12.7 5 24.7 8 38.7 10.2A411.5 411.5 0 0 0 319 206a391.8 391.8 0 0 0 58.3-4.3c22.5-3.7 34.8-8.4 36.6-10.5l1.6 2.7v-.1zm-4.4-8.1c-2.4 2-14.6 6.3-36 9.7a388.2 388.2 0 0 1-55.8 4c-22 0-40.1-1.6-53.8-3.6-21.8-2.8-33.4-8-37.6-9.4l1.3-2.2c3.3 1.7 14.4 6.2 36.5 9.3a385 385 0 0 0 53.6 3.4 384 384 0 0 0 55.4-4c21.5-3 33.1-8.4 34.9-9.8l1.5 2.6zM213.3 246c19.8 10.7 63.9 16 105.6 16.4 38 .1 87.4-5.8 105.9-15.6l-.5-10.7c-5.8 9-58.8 17.7-105.8 17.4-47-.4-90.7-7.6-105.3-17v9.5h.1z"/><path d="M425.8 244.5v2.5c-2.8 3.4-20.2 8.4-42 12a434 434 0 0 1-65.4 4.4 400 400 0 0 1-62-4.3 155 155 0 0 1-44.4-12v-2.9c9.7 6.4 35.9 11.2 44.7 12.6 15.8 2.4 36.1 4.2 61.7 4.2 26.9 0 48.4-1.9 65-4.4 15.7-2.3 38-8.2 42.4-12.1zm0-9v2.5c-2.8 3.3-20.2 8.3-42 11.9a434 434 0 0 1-65.4 4.5 414 414 0 0 1-62-4.3 155 155 0 0 1-44.4-12v-3c9.7 6.5 36 11.2 44.7 12.6a408 408 0 0 0 61.7 4.3c26.9 0 48.5-2 65-4.5 15.7-2.2 38-8.1 42.4-12zm-107 68.8c-45.6-.2-84.7-12.4-93-14.4l6 9.4a249.8 249.8 0 0 0 87.4 14.3c34.7-1 65-3.7 86.3-14.1l6.2-9.8c-14.5 6.9-64 14.6-93 14.6h.1z"/><path d="M407.9 297.3a143 143 0 0 1-2.8 4c-10 3.6-26 7.4-32.6 8.4a295.5 295.5 0 0 1-53.7 5c-40.4-.6-73.5-8.5-89-15.3l-1.3-2.1.2-.4 2.1.9a286.5 286.5 0 0 0 88.2 14.5c18.8 0 37.5-2.1 52.6-4.8 23.2-4.7 32.6-8.2 35.5-9.8l.7-.4h.1zm5.3-8.8a287.21 287.21 0 0 1-2 3.5c-5.4 2-20 6.2-41.3 9.2-14 1.9-22.7 3.8-50.6 4.3a347.4 347.4 0 0 1-94.2-14L224 289a390 390 0 0 0 95.4 14c25.5-.5 36.4-2.4 50.3-4.3 24.8-3.8 37.3-8 41-9.1a2.9 2.9 0 0 0 0-.2l2.6-1-.1.1z"/><path d="M413.8 237.6c.1 30-15.3 57-27.6 68.8a99.3 99.3 0 0 1-67.8 28.2c-30.3.5-58.8-19.2-66.5-27.9a101 101 0 0 1-27.5-67.4c1.8-32.8 14.7-55.6 33.3-71.3a99.6 99.6 0 0 1 64.2-22.7 98.2 98.2 0 0 1 71 35.6c12.5 15.2 18 31.7 20.9 56.7zM318.6 135c58.231-.002 105.56 46.97 106 105.2 0 58.376-47.324 105.7-105.7 105.7-58.376 0-105.7-47.324-105.7-105.7-.1-58 47.3-105.2 105.4-105.2z"/><path d="M318.9 134.5c58.2 0 105.6 47.4 105.6 105.6 0 58.2-47.4 105.6-105.5 105.6s-105.6-47.4-105.6-105.6c0-58.2 47.4-105.6 105.6-105.6h-.1zM215.6 240c0 56.8 46.7 103.3 103.3 103.3 56.6 0 103.3-46.5 103.3-103.3s-46.7-103.3-103.3-103.3c-56.6 0-103.3 46.5-103.3 103.3z"/><path d="M319 143.3c53.338.165 96.535 43.362 96.7 96.7-.164 53.354-43.346 96.58-96.7 96.8-53 0-96.7-43.6-96.7-96.8.22-53.315 43.385-96.48 96.7-96.7zM224.6 240c0 52 42.6 94.4 94.4 94.4 51.8 0 94.4-42.5 94.4-94.4 0-52-42.6-94.4-94.4-94.4-52.045.22-94.18 42.355-94.4 94.4z"/><path d="M323.3 134h-9.1v212.3h9z"/><path d="M322.3 132.8h2.3v214.7h-2.2V132.8h-.1zm-9 0h2.4v214.7h-2.3V132.8h-.1z"/><path d="M424.6 244.2v-7.8l-6.4-6-36.3-9.6-52.2-5.3-63 3.2-44.8 10.6-9 6.7v7.9l22.9-10.3 54.4-8.5h52.3l38.4 4.2 26.6 6.4z"/><path d="M319 223.8c24.9 0 49 2.3 68.3 6 19.8 4 33.7 9 38.5 14.5v2.8c-5.8-7-24.5-12-39-15-19-3.6-43-6-67.9-6-26.1 0-50.5 2.6-69.3 6.2-15 3-35.1 9-37.6 14.8v-2.9c1.3-4 16.3-10 37.3-14.3 18.9-3.7 43.3-6.1 69.6-6.1h.1zm0-9.1a383 383 0 0 1 68.3 6c19.8 4 33.7 9 38.5 14.6v2.7c-5.8-6.9-24.5-12-39-14.9-19-3.7-43-6-67.9-6a376 376 0 0 0-69.2 6.2c-14.5 2.7-35.4 8.9-37.7 14.7v-2.8c1.4-4 16.6-10.3 37.3-14.3 19-3.7 43.3-6.2 69.7-6.2zm-.6-46.2c39.3-.2 73.6 5.5 89.3 13.5l5.7 10c-13.6-7.4-50.6-15-94.9-14-36.1.3-74.7 4-94 14.4l6.8-11.4c15.9-8.3 53.3-12.5 87.1-12.5z"/><path d="M319 176.7a354 354 0 0 1 61.3 4.3c16 3 31.3 7.4 33.5 9.8l1.7 3c-5.3-3.4-18.6-7.3-35.6-10.5s-38.7-4.3-61-4.2c-25.3-.1-45 1.2-61.8 4.2a108.9 108.9 0 0 0-33.3 10.3l1.7-3.1c6-3 15.3-6.7 31.1-9.6 17.5-3.2 37.4-4.1 62.4-4.2zm0-9c21.4-.2 42.6 1 59.1 4a96 96 0 0 1 30.6 10l2.5 4c-4.2-4.7-20-9.2-34.1-11.6-16.4-2.9-36.7-4-58.1-4.2a361 361 0 0 0-59.5 4.4 97.3 97.3 0 0 0-29.6 9.1l2.2-3.3c5.8-3 15.2-5.8 27-8.1a357 357 0 0 1 59.9-4.4v.1zM371.4 284a276.4 276.4 0 0 0-52.5-4c-65.5.8-86.6 13.5-89.2 17.3l-5-8c16.8-12 52.4-18.8 94.6-18.2 21.9.4 40.8 1.9 56.6 5l-4.5 8v-.1z"/><path d="M318.6 278.9c18.2.3 36 1 53.3 4.2l-1.2 2.2c-16-3-33.2-4-52-4-24.3-.2-48.7 2.1-70 8.2-6.7 1.9-17.8 6.2-19 9.8l-1.2-2c.4-2.2 7-6.6 19.6-10 24.4-7 47.2-8.3 70.5-8.4zm.8-9.2a327 327 0 0 1 57.3 5l-1.3 2.3a299 299 0 0 0-56-4.9c-24.2 0-49.9 1.8-73.3 8.6-7.5 2.2-20.6 7-21 10.7l-1.2-2.2c.2-3.4 11.5-7.9 21.7-10.8 23.5-6.9 49.3-8.6 73.8-8.7z"/><path d="M412.4 290.5l-7.8 12.3-22.7-20.1-58.6-39.5-66.2-36.3-34.3-11.7 7.3-13.6 2.5-1.3 21.3 5.3 70.4 36.3 40.6 25.6L399 272l13.9 16z"/><path d="M221.6 195.5c6-4 50.2 15.6 96.6 43.6 46.1 28 90.3 59.6 86.3 65.5l-1.3 2.1-.6.5c.1-.1.8-1 0-3.1-2-6.5-33.4-31.5-85.3-62.9-50.7-30.1-92.9-48.3-97-43.1l1.3-2.6zM414 290.4c3.8-7.6-37.2-38.5-88.1-68.6-52-29.5-89.6-46.9-96.5-41.7L228 183c0 .1 0-.2.4-.5 1.2-1 3.3-1 4.2-1 11.8.2 45.5 15.7 92.8 42.8 20.8 12 87.6 55 87.3 67 0 1 .1 1.2-.3 1.8l1.7-2.6-.1-.1z"/></g><path d="M255.64 251.767a62.614 62.614 0 0 0 18.667 44.48 62.934 62.934 0 0 0 44.587 18.774 63.36 63.36 0 0 0 44.8-18.56 62.934 62.934 0 0 0 18.56-44.587v-84.48l-126.613-.214v84.587z" stroke="#000" stroke-width=".747" fill="#FFF"/><path d="M257.987 251.874a60.16 60.16 0 0 0 17.92 42.667 60.8 60.8 0 0 0 42.88 17.92 60.694 60.694 0 0 0 42.88-17.707 60.16 60.16 0 0 0 17.814-42.667v-82.133h-121.28v81.92h-.214zm97.28-57.28v52.16l-.106 5.44a35.413 35.413 0 0 1-10.667 25.6 36.267 36.267 0 0 1-25.6 10.667c-10.027 0-18.88-4.267-25.493-10.88a36.267 36.267 0 0 1-10.667-25.6v-57.6l72.534.213z" stroke="#000" stroke-width=".533" fill="red" fill-rule="nonzero"/><path d="M265.88 191.394c.107-5.867 4.267-7.254 4.267-7.254.107 0 4.587 1.494 4.587 7.36h-8.853" fill="#FF0"/><path d="M262.254 184.247l-.747 6.72h4.48c0-5.547 4.267-6.4 4.267-6.4.107 0 4.267 1.173 4.373 6.4h4.48l-.853-6.827h-16v.107zm-1.067 6.827h18.134c.32 0 .64.32.64.747 0 .533-.32.853-.64.853h-18.134c-.32 0-.64-.32-.64-.853a.73.73 0 0 1 .747-.747h-.107z" stroke="#000" stroke-width=".533" fill="#FF0" fill-rule="nonzero"/><path d="M267.8 190.967c0-3.52 2.454-4.48 2.454-4.48s2.453 1.067 2.453 4.48h-4.906zm-6.186-9.6h17.387c.32 0 .64.427.64.853 0 .32-.32.64-.64.64h-17.387c-.32 0-.64-.32-.64-.746 0-.32.32-.64.64-.64v-.107zm.427 1.6h16.426c.32 0 .64.32.64.747 0 .426-.32.746-.64.746h-16.533c-.427 0-.64-.32-.64-.746 0-.427.213-.747.64-.747h.107zm5.333-11.307h1.28v.854h.96v-.854h1.387v.96h.96v-1.066h1.28v2.133c0 .427-.214.64-.534.64h-4.693c-.32 0-.64-.213-.64-.533v-2.134zm4.907 2.88l.32 6.827h-4.587l.32-6.933h3.947v.106z" stroke="#000" stroke-width=".533" fill="#FF0" fill-rule="nonzero"/><path stroke="#000" stroke-width=".533" fill="#FF0" d="M266.734 177.74v3.627h-4.267v-3.627zm11.306 0v3.627h-4.266v-3.627zm-16.32-2.773H263v1.067h.96v-1.067h1.28v1.067h.96v-1.067h1.28v2.133c0 .427-.213.64-.533.64h-4.586a.64.64 0 0 1-.64-.64v-2.133zm11.307 0h1.28v1.067h.96v-1.067h1.28v1.067h.96v-1.067h1.28v2.133c0 .427-.213.64-.533.64h-4.587a.64.64 0 0 1-.64-.64v-2.133z"/><path d="M269.827 176.674c0-.64.96-.64.96 0v1.706h-.96v-1.706m-5.653 2.346c0-.64.853-.64.853 0v1.28h-.853v-1.28m11.306 0c0-.64.854-.64.854 0v1.28h-.853v-1.28" fill="#000"/><path d="M265.88 240.78c.107-5.866 4.267-7.253 4.267-7.253.107 0 4.587 1.494 4.587 7.36h-8.853" fill="#FF0"/><path d="M262.254 233.634l-.747 6.72h4.48c0-5.547 4.267-6.4 4.267-6.4.107 0 4.267 1.173 4.373 6.4h4.48l-.853-6.827h-16v.107zm-1.067 6.827h18.134c.32 0 .64.32.64.746 0 .534-.32.854-.64.854h-18.134c-.32 0-.64-.32-.64-.854a.73.73 0 0 1 .747-.746h-.107z" stroke="#000" stroke-width=".533" fill="#FF0" fill-rule="nonzero"/><path d="M267.8 240.354c0-3.52 2.454-4.48 2.454-4.48s2.453 1.067 2.453 4.48h-4.906zm-6.186-9.6h17.387c.32 0 .64.427.64.853 0 .32-.32.64-.64.64h-17.387c-.32 0-.64-.32-.64-.746 0-.32.32-.64.64-.64v-.107zm.427 1.6h16.426c.32 0 .64.32.64.747 0 .426-.32.746-.64.746h-16.533c-.427 0-.64-.32-.64-.746 0-.427.213-.747.64-.747h.107zm5.333-11.307h1.28v.854h.96v-.854h1.387v.96h.96v-1.066h1.28v2.133c0 .427-.214.64-.534.64h-4.693c-.32 0-.64-.213-.64-.533v-2.134zm4.907 2.88l.32 6.827h-4.587l.32-6.933h3.947v.106z" stroke="#000" stroke-width=".533" fill="#FF0" fill-rule="nonzero"/><path stroke="#000" stroke-width=".533" fill="#FF0" d="M266.734 227.127v3.627h-4.267v-3.627zm11.306 0v3.627h-4.266v-3.627zm-16.32-2.773H263v1.067h.96v-1.067h1.28v1.067h.96v-1.067h1.28v2.133c0 .427-.213.64-.533.64h-4.586a.64.64 0 0 1-.64-.64v-2.133zm11.307 0h1.28v1.067h.96v-1.067h1.28v1.067h.96v-1.067h1.28v2.133c0 .427-.213.64-.533.64h-4.587a.64.64 0 0 1-.64-.64v-2.133z"/><path d="M269.827 226.06c0-.64.96-.64.96 0v1.707h-.96v-1.706m-5.653 2.346c0-.64.853-.64.853 0v1.28h-.853v-1.28m11.306 0c0-.64.854-.64.854 0v1.28h-.853v-1.28" fill="#000"/><path d="M285.13 292.253c-4.087-4.21-2.14-8.139-2.14-8.139.075-.076 4.292-2.202 8.455 1.932l-6.239 6.282" fill="#FF0"/><path d="M277.504 289.79l4.242 5.265 3.157-3.179c-3.936-3.908-1.535-7.537-1.535-7.537.075-.076 3.84-2.2 7.623 1.407l3.157-3.18-5.445-4.204-11.275 11.353.076.075zm4.092 5.567l12.778-12.867c.225-.227.678-.228.98.072.38.376.38.829.155 1.056l-12.777 12.867c-.226.227-.678.228-1.057-.147a.73.73 0 0 1-.003-1.056l-.076.075z" stroke="#000" stroke-width=".533" fill="#FF0" fill-rule="nonzero"/><path d="M286.18 290.59c-2.497-2.48-1.45-4.898-1.45-4.898s2.486-.99 4.908 1.416l-3.457 3.482zm-11.17-2.375l12.25-12.337c.226-.227.755-.154 1.057.147.227.225.229.678.003.905l-12.25 12.337c-.226.227-.679.229-.982-.072-.227-.225-.228-.678-.003-.905l-.075-.075zm1.436.825l11.574-11.656c.226-.227.678-.229.981.072.303.3.304.753.079.98l-11.65 11.732c-.3.302-.678.228-.98-.072-.304-.301-.38-.678-.08-.98l.076-.076zm-4.265-11.752l.902-.908.605.601.677-.681-.606-.601.977-.984.681.676.677-.681-.757-.752.902-.908 1.514 1.503c.302.301.303.603.078.83l-3.307 3.33c-.226.227-.603.304-.83.078l-1.513-1.503zm5.5-1.452l5.07 4.583-3.232 3.255-4.694-5.113 2.781-2.8.076.075z" stroke="#000" stroke-width=".533" fill="#FF0" fill-rule="nonzero"/><path stroke="#000" stroke-width=".533" fill="#FF0" d="M276.044 282.026l2.573 2.556-3.006 3.027-2.574-2.555zm7.967-8.022l2.573 2.555-3.006 3.027-2.573-2.555z"/><path d="M270.543 283.63l.902-.909.757.752.677-.681-.757-.752.902-.908.757.751.676-.68-.757-.752.902-.909 1.514 1.504c.303.3.304.602.078.829l-3.232 3.255a.64.64 0 0 1-.905.003l-1.514-1.503zm7.967-8.023l.902-.909.757.752.677-.681-.757-.752.902-.908.757.752.676-.682-.757-.751.902-.909 1.514 1.504c.303.3.304.602.078.83l-3.232 3.254a.64.64 0 0 1-.905.003l-1.513-1.503z" stroke="#000" stroke-width=".533" fill="#FF0"/><path d="M277.467 279.08c-.454-.451.222-1.132.676-.681l1.211 1.202-.676.681-1.211-1.202m-2.319 5.665c-.454-.451.147-1.057.602-.606l.908.902-.601.606-.909-.902m7.967-8.023c-.454-.451.148-1.057.602-.606l.908.902-.601.606-.909-.902" fill="#000"/><path d="M314.627 191.394c.107-5.867 4.267-7.254 4.267-7.254.107 0 4.587 1.494 4.587 7.36h-8.854" fill="#FF0"/><path d="M311 184.247l-.746 6.72h4.48c0-5.547 4.267-6.4 4.267-6.4.106 0 4.266 1.173 4.373 6.4h4.48l-.853-6.827h-16v.107zm-1.066 6.827h18.133c.32 0 .64.32.64.747 0 .533-.32.853-.64.853h-18.133c-.32 0-.64-.32-.64-.853a.73.73 0 0 1 .747-.747h-.107z" stroke="#000" stroke-width=".533" fill="#FF0" fill-rule="nonzero"/><path d="M316.547 190.967c0-3.52 2.454-4.48 2.454-4.48s2.453 1.067 2.453 4.48h-4.907zm-6.186-9.6h17.386c.32 0 .64.427.64.853 0 .32-.32.64-.64.64h-17.386c-.32 0-.64-.32-.64-.746 0-.32.32-.64.64-.64v-.107zm.426 1.6h16.427c.32 0 .64.32.64.747 0 .426-.32.746-.64.746h-16.533c-.427 0-.64-.32-.64-.746 0-.427.213-.747.64-.747h.106zm5.334-11.307h1.28v.854h.96v-.854h1.386v.96h.96v-1.066h1.28v2.133c0 .427-.213.64-.533.64h-4.693c-.32 0-.64-.213-.64-.533v-2.134zm4.906 2.88l.32 6.827h-4.586l.32-6.933h3.946v.106z" stroke="#000" stroke-width=".533" fill="#FF0" fill-rule="nonzero"/><path stroke="#000" stroke-width=".533" fill="#FF0" d="M315.48 177.74v3.627h-4.266v-3.627zm11.307 0v3.627h-4.266v-3.627zm-16.32-2.773h1.28v1.067h.96v-1.067h1.28v1.067h.96v-1.067h1.28v2.133c0 .427-.213.64-.533.64h-4.587a.64.64 0 0 1-.64-.64v-2.133zm11.307 0h1.28v1.067h.96v-1.067h1.28v1.067h.96v-1.067h1.28v2.133c0 .427-.213.64-.533.64h-4.587a.64.64 0 0 1-.64-.64v-2.133z"/><path d="M318.574 176.674c0-.64.96-.64.96 0v1.706h-.96v-1.706m-5.654 2.346c0-.64.854-.64.854 0v1.28h-.853v-1.28m11.306 0c0-.64.854-.64.854 0v1.28h-.854v-1.28" fill="#000"/><path d="M371.908 191.394c-.107-5.867-4.267-7.254-4.267-7.254-.107 0-4.587 1.494-4.587 7.36h8.854" fill="#FF0"/><path d="M375.534 184.247l.747 6.72h-4.48c0-5.547-4.267-6.4-4.267-6.4-.106 0-4.266 1.173-4.373 6.4h-4.48l.853-6.827h16v.107zm1.067 6.827h-18.133c-.32 0-.64.32-.64.747 0 .533.32.853.64.853H376.6c.32 0 .64-.32.64-.853a.73.73 0 0 0-.747-.747h.107z" stroke="#000" stroke-width=".533" fill="#FF0" fill-rule="nonzero"/><path d="M369.988 190.967c0-3.52-2.454-4.48-2.454-4.48s-2.453 1.067-2.453 4.48h4.907zm6.186-9.6h-17.386c-.32 0-.64.427-.64.853 0 .32.32.64.64.64h17.386c.32 0 .64-.32.64-.746 0-.32-.32-.64-.64-.64v-.107zm-.426 1.6H359.32c-.32 0-.64.32-.64.747 0 .426.32.746.64.746h16.533c.427 0 .64-.32.64-.746 0-.427-.213-.747-.64-.747h-.106zm-5.334-11.307h-1.28v.854h-.96v-.854h-1.386v.96h-.96v-1.066h-1.28v2.133c0 .427.213.64.533.64h4.693c.32 0 .64-.213.64-.533v-2.134zm-4.906 2.88l-.32 6.827h4.586l-.32-6.933h-3.946v.106z" stroke="#000" stroke-width=".533" fill="#FF0" fill-rule="nonzero"/><path stroke="#000" stroke-width=".533" fill="#FF0" d="M371.054 177.74v3.627h4.267v-3.627zm-11.306 0v3.627h4.266v-3.627zm16.32-2.773h-1.28v1.067h-.96v-1.067h-1.28v1.067h-.96v-1.067h-1.28v2.133c0 .427.213.64.533.64h4.587a.64.64 0 0 0 .64-.64v-2.133zm-11.308 0h-1.28v1.067h-.96v-1.067h-1.28v1.067h-.96v-1.067H359v2.133c0 .427.214.64.534.64h4.587a.64.64 0 0 0 .64-.64v-2.133z"/><path d="M367.961 176.674c0-.64-.96-.64-.96 0v1.706h.96v-1.706m5.653 2.346c0-.64-.853-.64-.853 0v1.28h.853v-1.28m-11.306 0c0-.64-.854-.64-.854 0v1.28h.854v-1.28" fill="#000"/><path d="M371.908 240.78c-.107-5.866-4.267-7.253-4.267-7.253-.107 0-4.587 1.494-4.587 7.36h8.854" fill="#FF0"/><path d="M375.534 233.634l.747 6.72h-4.48c0-5.547-4.267-6.4-4.267-6.4-.106 0-4.266 1.173-4.373 6.4h-4.48l.853-6.827h16v.107zm1.067 6.827h-18.133c-.32 0-.64.32-.64.746 0 .534.32.854.64.854H376.6c.32 0 .64-.32.64-.854a.73.73 0 0 0-.747-.746h.107z" stroke="#000" stroke-width=".533" fill="#FF0" fill-rule="nonzero"/><path d="M369.988 240.354c0-3.52-2.454-4.48-2.454-4.48s-2.453 1.067-2.453 4.48h4.907zm6.186-9.6h-17.386c-.32 0-.64.427-.64.853 0 .32.32.64.64.64h17.386c.32 0 .64-.32.64-.746 0-.32-.32-.64-.64-.64v-.107zm-.426 1.6H359.32c-.32 0-.64.32-.64.747 0 .426.32.746.64.746h16.533c.427 0 .64-.32.64-.746 0-.427-.213-.747-.64-.747h-.106zm-5.334-11.307h-1.28v.854h-.96v-.854h-1.386v.96h-.96v-1.066h-1.28v2.133c0 .427.213.64.533.64h4.693c.32 0 .64-.213.64-.533v-2.134zm-4.906 2.88l-.32 6.827h4.586l-.32-6.933h-3.946v.106z" stroke="#000" stroke-width=".533" fill="#FF0" fill-rule="nonzero"/><path stroke="#000" stroke-width=".533" fill="#FF0" d="M371.054 227.127v3.627h4.267v-3.627zm-11.306 0v3.627h4.266v-3.627zm16.32-2.773h-1.28v1.067h-.96v-1.067h-1.28v1.067h-.96v-1.067h-1.28v2.133c0 .427.213.64.533.64h4.587a.64.64 0 0 0 .64-.64v-2.133zm-11.308 0h-1.28v1.067h-.96v-1.067h-1.28v1.067h-.96v-1.067H359v2.133c0 .427.214.64.534.64h4.587a.64.64 0 0 0 .64-.64v-2.133z"/><path d="M367.961 226.06c0-.64-.96-.64-.96 0v1.707h.96v-1.706m5.653 2.346c0-.64-.853-.64-.853 0v1.28h.853v-1.28m-11.306 0c0-.64-.854-.64-.854 0v1.28h.854v-1.28" fill="#000"/><path d="M352.658 292.253c4.087-4.21 2.14-8.139 2.14-8.139-.075-.076-4.292-2.202-8.454 1.932l6.238 6.282" fill="#FF0"/><path d="M360.284 289.79l-4.242 5.265-3.157-3.179c3.936-3.908 1.535-7.537 1.535-7.537-.075-.076-3.839-2.2-7.623 1.407l-3.157-3.18 5.446-4.204 11.274 11.353-.076.075zm-4.092 5.567l-12.778-12.867c-.225-.227-.678-.228-.98.072-.379.376-.38.829-.155 1.056l12.777 12.867c.226.227.678.228 1.057-.147a.73.73 0 0 0 .004-1.056l.075.075z" stroke="#000" stroke-width=".533" fill="#FF0" fill-rule="nonzero"/><path d="M351.607 290.59c2.498-2.48 1.45-4.898 1.45-4.898s-2.485-.99-4.907 1.416l3.457 3.482zm11.172-2.375l-12.252-12.337c-.225-.227-.753-.154-1.056.147-.227.225-.229.678-.003.905l12.251 12.337c.226.227.678.229.98-.072.228-.225.23-.678.004-.905l.076-.075zm-1.436.825l-11.575-11.656c-.226-.227-.678-.229-.98.072-.304.3-.305.753-.08.98l11.65 11.732c.3.302.678.228.981-.072.303-.301.38-.678.079-.98l-.075-.076zm4.265-11.752l-.902-.908-.606.601-.676-.681.605-.601-.977-.984-.681.676-.677-.681.757-.752-.902-.908-1.513 1.503c-.303.301-.304.603-.079.83l3.307 3.33c.226.227.603.304.83.078l1.514-1.503zm-5.501-1.452l-5.07 4.583 3.232 3.255 4.694-5.113-2.78-2.8-.076.075z" stroke="#000" stroke-width=".533" fill="#FF0" fill-rule="nonzero"/><path stroke="#000" stroke-width=".533" fill="#FF0" d="M361.744 282.026l-2.573 2.556 3.006 3.027 2.574-2.555zm-7.967-8.022l-2.573 2.555 3.006 3.027 2.574-2.555z"/><path d="M367.245 283.63l-.902-.909-.757.752-.676-.681.756-.752-.901-.908-.757.751-.677-.68.757-.752-.902-.909-1.514 1.504c-.302.3-.303.602-.078.829l3.232 3.255a.64.64 0 0 0 .905.003l1.514-1.503zm-7.967-8.023l-.902-.909-.757.752-.677-.681.757-.752-.902-.908-.756.752-.677-.682.757-.751-.902-.909-1.514 1.504c-.302.3-.304.602-.078.83l3.232 3.254a.64.64 0 0 0 .905.003l1.514-1.503z" stroke="#000" stroke-width=".533" fill="#FF0"/><path d="M360.322 279.08c.454-.451-.223-1.132-.677-.681l-1.21 1.202.676.681 1.21-1.202m2.319 5.665c.454-.451-.147-1.057-.601-.606l-.909.902.602.606.908-.902m-7.967-8.023c.454-.451-.147-1.057-.601-.606l-.909.902.602.606.908-.902" fill="#000"/><g transform="translate(310.467 230.434)"><path d="M.64 12.16a8.853 8.853 0 0 0 2.347 6.08A7.68 7.68 0 0 0 8.64 20.8c2.24 0 4.267-1.067 5.653-2.56a8.853 8.853 0 0 0 2.347-6.08V.64h-16v11.52" fill="#039"/><circle fill="#FFF" cx="4.373" cy="5.013" r="1.6"/><circle fill="#FFF" cx="13.227" cy="5.013" r="1.6"/><circle fill="#FFF" cx="8.747" cy="9.28" r="1.6"/><circle fill="#FFF" cx="4.373" cy="13.76" r="1.6"/><circle fill="#FFF" cx="13.227" cy="13.76" r="1.6"/></g><g transform="translate(310.467 202.7)"><path d="M.64 12.16a8.853 8.853 0 0 0 2.347 6.08A7.68 7.68 0 0 0 8.64 20.8c2.24 0 4.267-1.067 5.653-2.56a8.853 8.853 0 0 0 2.347-6.08V.64h-16v11.52" fill="#039"/><circle fill="#FFF" cx="4.373" cy="5.013" r="1.6"/><circle fill="#FFF" cx="13.227" cy="5.013" r="1.6"/><circle fill="#FFF" cx="8.747" cy="9.28" r="1.6"/><circle fill="#FFF" cx="4.373" cy="13.76" r="1.6"/><circle fill="#FFF" cx="13.227" cy="13.76" r="1.6"/></g><g transform="translate(288.28 230.434)"><path d="M.64 12.16a8.853 8.853 0 0 0 2.347 6.08A7.68 7.68 0 0 0 8.64 20.8c2.24 0 4.267-1.067 5.653-2.56a8.853 8.853 0 0 0 2.347-6.08V.64h-16v11.52" fill="#039"/><circle fill="#FFF" cx="4.373" cy="5.013" r="1.6"/><circle fill="#FFF" cx="13.227" cy="5.013" r="1.6"/><circle fill="#FFF" cx="8.747" cy="9.28" r="1.6"/><circle fill="#FFF" cx="4.373" cy="13.76" r="1.6"/><circle fill="#FFF" cx="13.227" cy="13.76" r="1.6"/></g><g transform="translate(332.654 230.434)"><path d="M.64 12.16a8.853 8.853 0 0 0 2.347 6.08A7.68 7.68 0 0 0 8.64 20.8c2.24 0 4.267-1.067 5.653-2.56a8.853 8.853 0 0 0 2.347-6.08V.64h-16v11.52" fill="#039"/><circle fill="#FFF" cx="4.373" cy="5.013" r="1.6"/><circle fill="#FFF" cx="13.227" cy="5.013" r="1.6"/><circle fill="#FFF" cx="8.747" cy="9.28" r="1.6"/><circle fill="#FFF" cx="4.373" cy="13.76" r="1.6"/><circle fill="#FFF" cx="13.227" cy="13.76" r="1.6"/></g><g transform="translate(310.467 257.954)"><path d="M.64 12.16a8.853 8.853 0 0 0 2.347 6.08A7.68 7.68 0 0 0 8.64 20.8c2.24 0 4.267-1.067 5.653-2.56a8.853 8.853 0 0 0 2.347-6.08V.64h-16v11.52" fill="#039"/><circle fill="#FFF" cx="4.373" cy="5.013" r="1.6"/><circle fill="#FFF" cx="13.227" cy="5.013" r="1.6"/><circle fill="#FFF" cx="8.747" cy="9.28" r="1.6"/><circle fill="#FFF" cx="4.373" cy="13.76" r="1.6"/><circle fill="#FFF" cx="13.227" cy="13.76" r="1.6"/></g></g></svg>