<svg width="800" height="480" xmlns="http://www.w3.org/2000/svg"><g fill="none" fill-rule="evenodd"><path fill="#0038A8" d="M0 319.7h800V480H0z"/><path fill="#FFF" d="M0 160h800v160H0z"/><path fill="#D52B1E" d="M0 0h800v160H0z"/><g transform="translate(337 177)" stroke="#000"><circle stroke-width="1.6" cx="62.546" cy="62.546" r="61.382"/><circle stroke-width=".727" cx="62.546" cy="62.546" r="50.473"/><circle stroke-width=".582" cx="62.546" cy="62.546" r="38.691"/></g><path d="M366.9 263.7l-7.1 4.2-2.2-3.7a6.2 6.2 0 0 1-.7-1.6 2 2 0 0 1 .1-1.3c.2-.4.5-.7 1-1 .4-.2.7-.3 1.1-.3a2.3 2.3 0 0 1 1.1.2l.8.6v-1.3l.3-.5 1.5-2.3 1.4 2.5-1.4 2.4-.3.8.1.6.1.2 3-1.7 1.2 2.2zm-5.5.3l-.6-1-.4-.5a.7.7 0 0 0-.5-.2.8.8 0 0 0-.5.1l-.4.6c0 .2.1.5.4.9l.5 1 1.5-.9zm-6.7-5.5l-2.2-6.5 1.7-.6 1.3 4.1 1.3-.4-1.3-3.8 1.6-.5 1.3 3.7 1.5-.5-1.4-4.2 1.8-.5 2.2 6.6-7.8 2.6zm-2.9-9.7l-.4-4.2c-.2-1 0-1.6.4-2.1.4-.6 1-.9 1.8-1 .8 0 1.5.1 2 .6.5.4.8 1.2 1 2.2l.1 1.4 3-.4.4 2.6-8.3.9zm3.3-3l-.1-.6c0-.5-.2-.8-.4-1a.8.8 0 0 0-.7-.2 1 1 0 0 0-.6.4c-.2.1-.2.5-.2 1l.1.7 1.9-.3zm-3.5-12.5l.3-2.6 4.8.6a4.2 4.2 0 0 1 1.4.4c.4.2.8.4 1 .8.4.3.5.7.6 1 .2.6.2 1.2.1 1.9l-.2 1.3c-.1.5-.3.8-.5 1.1a3 3 0 0 1-1.8 1.3h-1.4l-4.9-.5.3-2.5 5 .5c.4 0 .8 0 1-.2.4-.2.5-.6.6-1a1.4 1.4 0 0 0-.3-1c-.2-.4-.6-.5-1-.6l-5-.5zm1-6l1.7-4.6c.2-.8.6-1.3 1.1-1.5a2 2 0 0 1 1.6-.2c.5.2.8.5 1 .9.2.3.3.6.3 1 .3-.5.7-.8 1.1-1a2 2 0 0 1 1.4 0 2.2 2.2 0 0 1 1.5 1.8v1l-.3 1-1.5 4.2-7.9-2.6zm4-1.4l.4-1.1c0-.4.1-.7 0-.8 0-.2-.2-.4-.4-.5a.7.7 0 0 0-.6 0c-.2.2-.4.4-.5.8l-.4 1 1.5.6zm3 1l.5-1.2c.1-.4.2-.7 0-1a.8.8 0 0 0-.4-.4.7.7 0 0 0-.7 0l-.5.9-.4 1.2 1.5.5zm-3-9.6l1.3-2.2 5.4 3.2 2-3.4 1.8 1-3.4 5.6-7.1-4.2zm5-7.6l1.6-2 6.4 5.3-1.6 2-6.4-5.3zm11.1-4.3l2.2-1c.3.6.4 1.2.5 1.7a3.1 3.1 0 0 1-.3 1.5 4.5 4.5 0 0 1-1.2 1.5 4 4 0 0 1-2 1.1 3.5 3.5 0 0 1-2 0 4.7 4.7 0 0 1-2-1.6c-1-1-1.4-2-1.3-3.1a4.2 4.2 0 0 1 1.6-2.9 4.2 4.2 0 0 1 2.3-1c.7-.1 1.5 0 2.3.5l-1.4 1.9a1.9 1.9 0 0 0-.6-.3 1.5 1.5 0 0 0-.7 0 1.5 1.5 0 0 0-.6.4 1.5 1.5 0 0 0-.6 1.4c0 .4.4.9.8 1.4.6.7 1.1 1.1 1.6 1.2.4 0 .8 0 1.2-.4.4-.3.6-.6.6-1s-.1-.8-.4-1.3zm8.8-3.2l-2.5 1.4.3 1.4-2.3 1.2-1.2-8.7 2.5-1.3 6.6 5.8-2.4 1.3-1-1.1zm-1.3-1.3l-2.2-2.2.6 3 1.6-.8zm7.8-8.5l3.8-.6a4.6 4.6 0 0 1 1.8 0c.5.1 1 .3 1.3.7.3.4.7.7.9 1.2.2.4.4 1 .4 1.5.2.9.2 1.6.1 2a3.4 3.4 0 0 1-.6 1.4 2.7 2.7 0 0 1-1 .9 6 6 0 0 1-1.5.5l-3.7.6-1.5-8.2zm2.9 1.4l.8 4.5.6-.1c.5-.1.9-.2 1-.4.3-.1.4-.4.5-.7v-1.4c-.2-.9-.5-1.4-.8-1.7-.3-.3-.8-.4-1.5-.3l-.6.1zm7.8-2.8l6.8.3v1.8l-4.3-.2-.1 1.3 4 .2-.1 1.7-4-.2v1.6l4.4.2-.1 1.9-7-.3.4-8.3zm10 .8l2.4.6-1.5 6 4 1-.6 2-6.3-1.6 2-8zm13.2 4.4l3.7 2.2c.8.4 1.3 1 1.4 1.6.2.6 0 1.3-.3 2a2.5 2.5 0 0 1-1.7 1.3c-.6.1-1.4 0-2.3-.6l-1.2-.7-1.6 2.6-2.2-1.3 4.2-7.1zm.4 4.4l.6.3 1 .3a.8.8 0 0 0 .6-.4 1 1 0 0 0 0-.7c0-.3-.2-.5-.6-.8l-.6-.3-1 1.6zm7.2 9.6l-2.1-2-1.2.7-2-1.7 8-4 2 2-3.4 8.1-2-1.8.7-1.3zm.8-1.7l1.4-2.8-2.7 1.6 1.3 1.2zm1 5.5l6.9-4.7 2.3 3.5 1 1.7-.1 1.2a2.3 2.3 0 0 1-1 1.1c-.3.3-.7.4-1 .4a2.3 2.3 0 0 1-1.2-.2c-.2 0-.5-.3-.8-.5l.2.7-.2.6a3.3 3.3 0 0 1-.2.6l-1.3 2.3-1.6-2.3 1.3-2.6.3-.7a1 1 0 0 0-.2-.7l-.1-.2-2.8 2-1.5-2.2zm5.5-.6l.7.9.4.4c.2.2.3.2.5.2a.8.8 0 0 0 .5-.1.8.8 0 0 0 .3-.6c0-.2 0-.5-.3-.9l-.7-.9-1.4 1zm2.6 12.4l-1-2.8-1.5.2-1-2.5 8.9-.1 1 2.6-6.5 6-1-2.6 1.1-.8zm1.5-1.2l2.4-2-3.1.3.7 1.7zm2.1 9l1.7-.2.6 3.9-3.5.5a8 8 0 0 1-1.3-1.8 6.8 6.8 0 0 1-.6-2 5 5 0 0 1 .1-2.5 4 4 0 0 1 1.3-1.6 4.9 4.9 0 0 1 2.2-.9 5 5 0 0 1 2.4.2 3.6 3.6 0 0 1 1.7 1.4c.4.6.6 1.3.8 2.2v2a2.7 2.7 0 0 1-.6 1.3c-.3.4-.7.6-1.2.9l-.8-2.4c.3-.1.5-.3.7-.6.2-.3.1-.6 0-1a1.7 1.7 0 0 0-.7-1.2c-.4-.3-1-.4-2-.2a3 3 0 0 0-1.7.7c-.4.4-.5 1-.4 1.5 0 .3.1.6.3.8l.5.8h.8l-.3-1.8zm5.4 12l-.2 2.6-5-.4a4.2 4.2 0 0 1-1.3-.4 3 3 0 0 1-1-.8 3 3 0 0 1-.6-1.1 5.1 5.1 0 0 1-.2-1.8l.2-1.3.5-1.2a3 3 0 0 1 .8-.8 2.6 2.6 0 0 1 1-.4 4.9 4.9 0 0 1 1.4-.2l5 .5-.3 2.5-5-.4c-.5 0-.9 0-1.1.3a1.4 1.4 0 0 0-.5 1c0 .4 0 .8.3 1 .2.3.5.5 1 .5l5 .4zm-9.1 8.8l.9-2.8-1.2-.8.8-2.5 7 5.6-1 2.6-8.8.4.9-2.5h1.4zm1.9 0l3 .1-2.5-1.8-.5 1.7zm3 6.8l-1.5 2.4h-3.3l1.5 2.9-1.4 2.4-2.5-5.2-3-1.8 1.4-2.2 3 1.8 5.8-.3z" fill="#000" fill-rule="nonzero"/><g fill="#009B3A" stroke="#000" stroke-width=".1"><path d="M408.1 211.3s23.4 10.1 19.3 30.9c-4 20.8-17 20.6-22.2 23-5 2.2-8.6 5.5-10.6 5-2-.4-4.7-2-4.7-2s-.2 3.5 3.9 4c4.1.7 9.5-5.3 12-6 2.6-.6 18.5-2.4 22.4-23.5 4.5-22.6-20-30.7-20-31.4h-.1z"/><path d="M419.9 215.8c.138 1.098.02 1.8-.303 1.8-.322 0-.79-.702-1.197-1.8-.483-1.301-.768-2.845-.688-3.732.08-.888.502-.888 1.023 0 .52.887 1.002 2.43 1.165 3.732z"/><path d="M419.1 216c.552 1.113.929 2.19.988 2.823.06.634-.207.73-.7.25-.492-.479-1.136-1.46-1.688-2.573-.853-1.72-1.232-3.227-.845-3.366.386-.138 1.392 1.145 2.245 2.866zm-2.3 1.5c1.5.486 2.594 1.165 2.543 1.575-.051.41-1.233.42-2.743.025-1.5-.486-2.594-1.165-2.543-1.575.051-.41 1.233-.42 2.743-.025z" fill-rule="nonzero"/><path d="M417.1 216.7c1.586 1.067 2.716 2.224 2.522 2.583-.193.359-1.636-.216-3.222-1.283s-2.716-2.224-2.522-2.583c.193-.359 1.636.216 3.222 1.283z"/><path d="M418.1 216.3c1.275 1.327 2.085 2.627 1.809 2.903-.276.276-1.534-.576-2.809-1.903-1.275-1.327-2.085-2.627-1.809-2.903.276-.276 1.534.576 2.809 1.903z"/><path d="M419.7 219.2l-1 .6c-.3 0-.6-.3-1.2 0s-1 .9-1.1 1.2c-.1.3.2.5.9.1.7-.3.9-.9 1.2-1.1l1.3-.7.8-1.3c.3-.4 1.2-1 1.6-1.8.3-.6.2-1.1-.2-.9a3 3 0 0 0-1.2 1.3c-.2.4 0 1-.3 1.4l-.8 1.2zm7.3 2.4c.049 2.896-.404 5.132-1.012 4.994-.608-.138-1.14-2.598-1.188-5.494-.049-2.896.404-5.132 1.012-4.994.608.138 1.14 2.598 1.188 5.494z" fill-rule="nonzero"/><path d="M425.8 221.5c.628 2.929.644 5.326.037 5.353-.608.028-1.61-2.324-2.237-5.253-.38-1.791-.532-3.447-.397-4.342.134-.896.535-.896 1.05 0 .515.895 1.067 2.55 1.447 4.342l.1-.1z"/><path d="M422 222.7c1.394.941 2.616 2.02 3.205 2.831.589.811.455 1.23-.35 1.1-.806-.13-2.16-.79-3.555-1.731-2.155-1.455-3.746-3.127-3.553-3.734.194-.608 2.098.08 4.253 1.534z"/><path d="M422.8 221.6c1.84 2.233 3.018 4.401 2.632 4.843-.387.442-2.192-1.01-4.032-3.243-1.782-2.168-2.913-4.261-2.526-4.676.386-.414 2.144 1.008 3.926 3.176v-.1z"/><path d="M424.3 221.5c1.372 2.555 2.08 4.85 1.584 5.126-.497.276-2.012-1.571-3.384-4.126-1.372-2.555-2.08-4.85-1.584-5.126.497-.276 2.012 1.571 3.384 4.126z"/><path d="M425.6 226.4l-1.8.4c-.3 0-.6-.7-1.5-.5-.9.2-1.7.8-2 1.2-.2.4.1.8 1.2.6 1.2-.2 1.6-1 2.2-1 .5-.2 1.4-.4 2-.4.2-.4 1-1.2 1.5-1.6.5-.5 2-1 2.7-1.8.7-.8.7-1.6 0-1.5a4.8 4.8 0 0 0-2 1.3c-.5.6-.4 1.5-.9 2l-1.4 1.3zm5.1 4.9c-.466 2.783-1.291 4.814-1.843 4.538-.553-.276-.623-2.755-.157-5.538.466-2.783 1.291-4.814 1.843-4.538.553.276.623 2.755.157 5.538z" fill-rule="nonzero"/><path d="M429.6 231c.091 1.902-.04 3.715-.338 4.675-.298.96-.71.898-1.063-.16-.354-1.057-.586-2.925-.599-4.815-.091-1.902.04-3.715.338-4.675.298-.96.71-.898 1.063.16.354 1.057.586 2.925.599 4.815z"/><path d="M425.7 231.4c1.415 1.228 2.785 2.833 3.418 4.004.634 1.17.393 1.652-.6 1.201-.994-.45-2.524-1.735-3.818-3.205-1.415-1.228-2.785-2.833-3.418-4.004-.634-1.17-.393-1.652.6-1.201.994.45 2.524 1.735 3.818 3.205z"/><path d="M426.7 230.5c.902 1.657 1.574 3.312 1.762 4.342.189 1.03-.135 1.277-.85.65-.714-.628-1.71-2.035-2.612-3.692-.902-1.657-1.574-3.312-1.762-4.342-.189-1.03.135-1.277.85-.65.714.628 1.71 2.035 2.612 3.692z"/><path d="M428.1 230.7c.557 1.756.891 3.446.876 4.432-.015.987-.378 1.12-.95.35-.573-.77-1.269-2.326-1.826-4.082-.582-1.84-.93-3.606-.912-4.634.018-1.028.4-1.161 1-.35s1.33 2.445 1.912 4.284h-.1z"/><path d="M428.5 235.8h-1.7c-.3 0-.5-.8-1.4-.8a3.3 3.3 0 0 0-2.1.8c-.4.4-.1.8 1 .8s1.7-.5 2.3-.6h2l1.8-1.2c.6-.4 2.1-.6 3-1.3.7-.6.9-1.4.3-1.4a5 5 0 0 0-2.3.9c-.5.4-.6 1.3-1.2 1.7-.4.2-1.6 1.1-1.7 1m2.5 6.4c-1.468 2.333-2.97 3.844-3.357 3.375-.387-.47.49-2.742 1.957-5.075 1.468-2.333 2.97-3.844 3.357-3.375.387.47-.49 2.742-1.957 5.075" fill-rule="nonzero"/><path d="M430.1 241.3c-1.027 2.67-2.263 4.588-2.76 4.285-.497-.304-.067-2.715.96-5.385s2.263-4.588 2.76-4.285c.497.304.067 2.715-.96 5.385m-3.7-1.2c1.042 2.73 1.484 5.28.987 5.693-.497.415-1.745-1.463-2.787-4.193-.674-1.766-1.126-3.541-1.184-4.656-.06-1.115.284-1.401.9-.75.615.65 1.41 2.14 2.084 3.906" fill-rule="nonzero"/><path d="M427.6 239.7c.263 2.855.028 5.28-.525 5.419-.552.138-1.212-2.064-1.475-4.919-.17-1.847-.136-3.6.088-4.601.225-1 .606-1.096 1-.25.395.846.742 2.504.912 4.351"/><path d="M429 240.4c-.27 2.86-.937 5.155-1.49 5.128-.552-.028-.78-2.368-.51-5.228.175-1.85.527-3.55.924-4.46.397-.909.778-.89 1 .05.222.941.25 2.66.076 4.51"/><path d="M427.3 245.3s-1.4-.5-1.6-.7c-.3-.2-.1-.8-1-1.3a3.1 3.1 0 0 0-2.2 0c-.5 0-.4.6.6 1 1 .6 1.8.2 2.3.4l1.8.9c.5-.2 1.6-.3 2.2-.4.6-.1 2.1.4 3.2 0 .9-.3 1.3-1 .7-1.2a4.5 4.5 0 0 0-2.3 0c-.7.1-1.1 1-1.8 1-.5 0-1.9.4-2 .3m1 7.7c-1.622 1.546-3.454 2.834-4.616 3.244-1.162.41-1.415-.142-.637-1.39.777-1.248 2.426-2.937 4.153-4.254 1.65-1.64 3.621-3.067 4.876-3.534 1.254-.466 1.505.136.62 1.49-.884 1.354-2.701 3.15-4.496 4.444" fill-rule="nonzero"/><path d="M427.3 251.9c-1.285 1.634-2.616 2.953-3.49 3.46-.875.508-1.16.127-.75-1 .41-1.126 1.455-2.826 2.74-4.46 1.285-1.634 2.616-2.953 3.49-3.46.875-.508 1.16-.127.75 1-.41 1.126-1.455 2.826-2.74 4.46"/><path d="M423.7 249.2c.357 2.184.375 4.748.043 6.339-.332 1.59-.936 1.843-1.494.622-.559-1.22-.943-3.631-.949-5.961-.357-2.184-.375-4.748-.043-6.339.332-1.59.936-1.843 1.494-.622.559 1.22.943 3.631.949 5.961"/><path d="M425.1 249.2c-.641 2.413-1.44 4.029-1.968 3.983-.528-.046-.663-1.743-.332-4.183.305-2.397 1.003-5.025 1.725-6.496.723-1.47 1.303-1.445 1.434.063s-.216 4.151-.859 6.533"/><path d="M426.3 250.4c-.762 2.38-1.972 4.93-2.971 6.261-1 1.33-1.548 1.122-1.346-.512.202-1.635 1.105-4.303 2.217-6.549.762-2.38 1.972-4.93 2.971-6.261 1-1.33 1.548-1.122 1.346.512-.202 1.635-1.105 4.303-2.217 6.549"/><path d="M423 255.3a16.3 16.3 0 0 1-1.6-1.4c-.2-.3.1-1-.7-1.8-.8-.8-1.8-1-2.4-1-.6.1-.6.7.3 1.6 1 1 2 .8 2.4 1.2.6.4 1.4 1.1 1.7 1.6l2.6.4c.7 0 2.2 1.1 3.5 1.1 1 0 1.8-.5 1.2-1a5.3 5.3 0 0 0-2.6-1c-.8 0-1.5.8-2.2.6l-2.3-.3m-2.3 7.3c-3.272.536-5.857.32-5.774-.48.083-.8 2.802-1.884 6.074-2.42 2.116-.347 4.044-.39 5.055-.115 1.012.275.955.828-.15 1.45-1.104.622-3.089 1.218-5.205 1.565" fill-rule="nonzero"/><path d="M420.5 261c-3.302 1.271-6.09 1.72-6.228 1.002-.138-.718 2.426-2.33 5.728-3.602 3.42-1.316 6.305-1.778 6.443-1.032.138.745-2.523 2.416-5.943 3.732m-2.1-4.7c-1.323 2.477-2.753 4.162-3.429 4.041-.676-.12-.414-2.014.629-4.541.9-2.18 2.186-4.356 3.252-5.503 1.066-1.146 1.7-1.033 1.6.286-.1 1.32-.911 3.58-2.052 5.717"/><path d="M419.9 257.2c-1.605 1.817-3.307 3.353-4.465 4.03-1.159.677-1.597.39-1.15-.75.446-1.14 1.71-2.963 3.315-4.78 2.48-2.81 5.007-4.75 5.642-4.336.635.414-.861 3.027-3.342 5.836"/><path d="M420.3 259.1c-1.975 1.62-4.163 3.011-5.567 3.537-1.404.527-1.755.088-.893-1.116.862-1.203 2.773-2.941 4.86-4.421 2.538-1.8 4.676-2.752 5.07-2.26.394.493-1.069 2.29-3.47 4.26"/><path d="M414.4 261.7a18.1 18.1 0 0 1-.7-2.2c-.1-.4.6-.8.3-2a4.3 4.3 0 0 0-1.9-2.3c-.5-.3-.9.2-.5 1.6.4 1.4 1.4 1.9 1.7 2.6l.8 2.4 2.2 1.9c.6.5 1.5 2.4 2.7 3.1 1 .7 2 .5 1.8-.2a6.2 6.2 0 0 0-2-2.4c-.7-.6-1.8-.3-2.5-.8-.4-.5-2-1.6-2-1.7m-3.5 6.3c-2.739-.151-4.668-.844-4.668-1.676 0-.831 1.93-1.585 4.668-1.824 2.739.151 4.668.844 4.668 1.676 0 .831-1.93 1.585-4.668 1.824"/><path d="M410 262.5c-2.18 2.818-4.55 4.61-5.296 4.003-.746-.607.417-3.385 2.596-6.203 1.38-1.78 2.903-3.215 3.996-3.764 1.092-.55 1.588-.13 1.3 1.1-.288 1.23-1.316 3.084-2.696 4.864"/><path d="M410.8 265.3c-3.243 1.393-6.141 1.783-6.473.871-.331-.91 2.03-2.778 5.273-4.171 3.243-1.393 6.141-1.783 6.473-.871.331.91-2.03 2.778-5.273 4.171m1.7-53.4c1.42 1.33 2.21 2.51 1.82 2.719-.391.208-1.833-.625-3.32-1.919-1.084-.943-1.967-1.937-2.282-2.57-.316-.632-.01-.795.79-.42.8.373 1.958 1.221 2.992 2.19m-1.9 1.5c1.701.316 2.932.795 3.002 1.17.07.374-1.037.55-2.702.43-1.55-.112-3.24-.457-4.227-.864-.986-.406-1.057-.786-.178-.951.879-.165 2.52-.079 4.105.215" fill-rule="nonzero"/><path d="M411.4 212.4c2.14 1.088 3.695 2.26 3.474 2.62-.22.358-2.134-.232-4.274-1.32s-3.695-2.26-3.474-2.62c.22-.358 2.134.232 4.274 1.32M383.7 262s5.1 1.1 9.6 2.7c4.5 1.7 11.3 7.2 13.1 7.6 2 0 4.9-.7 6-3.6-3.2.8-5 2.1-8 .5-1.1-.4-4.6-3.6-8.5-5.3-3.8-1.7-11.5-3.6-11.5-3.6l-.7 1.7m5.5-46.5l5.9-3.1-6.5 1.7-.8 1.1 1.4.3" fill-rule="nonzero"/><path d="M394.8 217c-2.3-.5-5.8-1.3-8-1.4 1.5-1.7 3.6-4.7 5-6.4-1 1.7-2.3 4-2.8 5.5 1.5.9 4 1.6 5.8 2.2"/><path d="M388.1 215.9a314.4 314.4 0 0 1 5.3-4.1l-6.1 2.7-.6 1.3h1.4"/><path d="M393.7 216.9c-2.3-.5-5.8-1.3-8-1.5 1.4-1.7 3.5-4.7 4.8-6.6-.8 1.8-2.2 4.1-2.7 5.8 1.6.9 4.1 1.6 6 2.3"/><path d="M387.3 216.2l6.1-2.6-6.6 1.1-.9 1 1.3.5"/><path d="M393 217c-2.3-.3-6-.7-8.2-.6 1.3-2 3-5.3 4.1-7.3-.6 1.9-1.7 4.4-2 6.1 1.7.8 4.3 1.2 6.1 1.7"/><path d="M386.6 216.2l4.2-5-5.3 3.9-.3 1.3 1.4-.2"/><path d="M393 217.3c-2.5 0-6.4-.3-8.8 0 1.2-2.3 2.7-6 3.6-8.3-.4 2.1-1.3 5-1.4 6.9 1.8.6 4.6 1 6.6 1.4"/><path d="M385.8 217.4l5-4.9-6.1 3.5-.4 1.4h1.5"/><path d="M391.9 217.4c-2.7 0-6.8-.1-9.5.2 1.8-2.5 4.2-6.6 5.6-9.1-1 2.3-2.4 5.4-3 7.5 1.9.7 4.8 1 6.9 1.4"/><path d="M384 217.8l6.6-5.5-7.4 3.9-.8 1.6h1.6"/><path d="M391 217.6c-2.7.4-6.9.8-9.4 1.5 1.3-2.7 3.1-7 4.2-9.7-.6 2.4-1.7 5.6-2 7.8 2 .4 5 .3 7.1.4"/><path d="M383.2 218.9l5-7-6.3 5.7-.3 1.7 1.6-.4"/><path d="M389.4 218.4c-2.6.3-6.8.5-9.4 1 1.5-2.6 3.5-6.8 4.8-9.4-.8 2.3-2 5.5-2.4 7.7 2 .5 5 .5 7 .7"/><path d="M382.3 219.6l6.4-5.5-7.3 3.9-.7 1.6h1.6"/><path d="M388.7 218.7c-2.7.6-6.9 1.3-9.4 2.1 1.2-2.7 2.8-7.1 3.8-9.8-.5 2.4-1.4 5.6-1.6 7.8 2 .3 5 0 7.2-.1"/><path d="M381.2 220l4-7.7-5.4 6.6-.1 1.7 1.5-.7"/><path d="M388.7 219.1c-3 .8-7.4 1.8-10 2.8 1-3.1 2.1-8 2.9-11.1-.3 2.7-.9 6.3-.8 8.8 2.3.2 5.5-.3 7.8-.5"/><path d="M380.4 221.7l5.2-7.6-6.6 6.1-.3 2 1.7-.5"/><path d="M387.5 220c-2.8.9-7.2 2.1-9.8 3.3.8-3.2 1.8-8.1 2.4-11.2-.1 2.7-.5 6.3-.3 8.7 2.2.1 5.4-.6 7.7-.8"/><path d="M379.4 222.8l3.9-8.4-5.6 7.2v2l1.7-.8"/><path d="M386.4 221.2c-2.8.6-7.3 1.5-10 2.4 1.1-3 2.5-8 3.4-11-.4 2.7-1.1 6.4-1.1 8.7 2.2.3 5.4-.1 7.7-.2"/><path d="M378.4 223.6l6.4-6.6-7.5 4.9-.6 1.8 1.7-.1"/><path d="M385.2 222.3c-2.9.4-7.3.8-10 1.5 1.3-3 3-7.8 4-10.8-.6 2.7-1.5 6.3-1.7 8.7 2.2.5 5.4.4 7.7.6"/><path d="M377.2 223l4.3-8.3-5.9 7v1.9l1.6-.7"/><path d="M385.5 221.3c-3 1.3-8 3-10.9 4.6 1-3.7 2-9.5 2.6-13.1 0 3.1-.5 7.4-.3 10.1 2.5 0 6-1.1 8.6-1.6"/><path d="M376.6 225.4l5.2-9.4-6.9 8-.2 2.2 1.9-.8"/><path d="M384.3 222.5c-3 1.4-7.8 3.4-10.6 5.1.8-3.6 1.5-9.5 2-13 0 3-.2 7.3.1 10 2.5-.3 6-1.5 8.5-2.1"/><path d="M375.5 226.8l3.8-10.1-5.7 9 .2 2.3 1.7-1.2"/><path d="M383 223.3c-3 1.5-7.8 3.5-10.6 5.3.7-3.7 1.4-9.5 1.9-13.1 0 3-.2 7.3.2 10 2.5-.3 6-1.6 8.5-2.2"/><path d="M374.7 228l5.8-8.9-7.4 7.3-.3 2.2 1.9-.6"/><path d="M382.7 222.8c-2.7 2.2-7 5.4-9.4 7.8 0-3.8-.5-9.5-.8-13 .6 2.9 1.3 7 2.3 9.5 2.4-.9 5.5-3 8-4.2"/><path d="M375 228.5l.6-10.7-2.8 10.4.8 2 1.4-1.7"/><path d="M382 223.8c-2.8 2.2-7 5.3-9.5 7.7 0-3.7-.5-9.5-.8-13 .7 3 1.3 7 2.3 9.5 2.4-.8 5.5-3 8-4.2"/><path d="M374.3 230.3l2.7-10.5-4.7 9.6.3 2.2 1.7-1.3"/><path d="M381.6 224c-2.5 2.6-6.6 6.4-8.9 9-.4-3.7-1.5-9.6-2.2-13.2 1 3 2.1 7.1 3.4 9.5 2.3-1.1 5.4-3.6 7.7-5.2"/><path d="M374.3 231.6l.5-11.1-2.7 10.8.8 2 1.4-1.7"/><path d="M380.8 226c-2.7 2.2-7 5.5-9.6 8 0-3.8-.7-9.8-1-13.5.7 3 1.5 7.3 2.5 9.9 2.5-1 5.7-3.1 8.1-4.5"/><path d="M373.5 232.9l3.8-10.5-5.8 9.3.2 2.3 1.8-1.1"/><path d="M380.8 226c-2.5 2.5-6.3 6.4-8.5 9.1-.4-3.8-1.5-9.8-2.1-13.4 1 3 2 7.2 3.2 9.6 2.3-1.2 5.1-3.7 7.4-5.3"/><path d="M373.6 233.4l-.4-11-1.8 11 1 1.9 1.2-1.9"/><path d="M379.6 226.8c-2.4 2.6-6.1 6.5-8.2 9.3-.5-4-1.8-9.8-2.5-13.5 1 3 2.3 7.2 3.5 9.6 2.2-1.2 5-3.8 7.2-5.4"/><path d="M373 234.5l1.2-11.2-3.3 10.6.7 2.2 1.4-1.6"/><path d="M379 227.2c-2 2.9-5.5 7-7.4 10-.8-3.8-2.5-9.5-3.5-13 1.3 2.8 2.8 6.8 4.2 9.1 2.1-1.4 4.7-4.2 6.8-6"/><path d="M373 235.6l-.8-11.3-1.4 11.2 1 2 1.1-2"/><path d="M378.9 227.9c-2 3-5.3 7.3-7 10.4-1-3.8-3-9.5-4.2-13 1.4 2.8 3.1 6.8 4.7 9 2-1.5 4.5-4.5 6.5-6.4"/><path d="M373.6 236.6l1.2-11.3-3.2 10.6.6 2.3 1.4-1.6"/><path d="M378.4 229c-1.7 3.1-4.5 8-6 11.3-1.3-3.6-3.8-9-5.3-12.4 1.7 2.6 3.7 6.3 5.5 8.4 1.9-1.8 4-5.2 5.8-7.4"/><path d="M373.3 237.6l-3.2-10.8 1 11.3 1.5 1.6.6-2.1"/><path d="M378.4 230.2c-1.8 3.2-4.8 8-6.3 11.3-1.3-3.6-3.8-9-5.4-12.3 1.7 2.6 3.8 6.3 5.6 8.3 2-1.8 4.2-5.1 6-7.3"/><path d="M373.4 239.6l-1.2-11.3-1 11.3 1.1 2 1.1-2"/><path d="M378.6 231.2c-1.9 3.1-5 7.9-6.5 11.1-1.3-3.6-3.7-9-5.2-12.4 1.7 2.6 3.7 6.4 5.5 8.4 2-1.7 4.3-5 6.2-7.1"/><path d="M373.3 240.5l-2.1-11-.1 11.2 1.3 1.8.9-2"/><path d="M377.8 232.8c-2 3-5.3 7.5-7 10.7-1.1-3.7-3.3-9.4-4.6-12.8 1.5 2.7 3.4 6.6 5 8.8 2.1-1.6 4.6-4.7 6.6-6.7"/><path d="M372.3 241.7l1-11.3-3.1 10.7.7 2.2 1.4-1.6"/><path d="M377.9 233c-1.7 3.3-4.6 8.3-6 11.6-1.4-3.5-4-8.8-5.7-12 1.8 2.4 4 6 5.8 8 2-1.9 4-5.3 5.9-7.5"/><path d="M372 242.7l-3.5-10.6 1.3 11.2 1.5 1.6.6-2.2"/><path d="M377.4 233.9c-1.2 3.6-3.2 9-4 12.7-2-3.2-5.5-7.8-7.6-10.7 2.1 2.1 4.9 5.2 7 6.7 1.6-2.3 3.2-6 4.6-8.7"/><path d="M375 243.5l-3.7-10.4 1.6 11.2 1.5 1.4.6-2.2"/><path d="M377.4 235c-1.2 3.6-3.2 9.1-4 12.7-2-3.2-5.4-7.7-7.6-10.5 2.1 2 4.9 5 7 6.6 1.6-2.3 3.2-6.1 4.6-8.8"/><path d="M375 245.3l-4.8-9.7 2.8 10.8 1.7 1.2.4-2.3"/><path d="M377 235.9c-.7 3.7-2 9.5-2.5 13.2-2.3-2.9-6.3-7-8.7-9.4 2.3 1.7 5.4 4.4 7.7 5.5 1.3-2.5 2.4-6.5 3.5-9.3"/><path d="M375.4 246.8l-2.6-10.9.4 11.3 1.4 1.7.8-2"/><path d="M377 237c-.4 3.9-1.2 9.8-1.2 13.5-2.6-2.5-6.9-6-9.5-8.1 2.4 1.4 5.7 3.6 8.1 4.4 1-2.6 1.8-6.8 2.6-9.7"/><path d="M375.5 247.6l-6.9-7.8 5.2 9.5 2 .6-.3-2.3"/><path d="M377.2 238.4c-.4 3.8-1.2 9.7-1.3 13.4-2.6-2.5-6.9-6-9.5-8.2 2.5 1.4 5.8 3.7 8.1 4.5 1.1-2.6 1.8-6.8 2.7-9.7"/><path d="M376.3 249.4L371 240l3.3 10.7 1.7 1.1.3-2.3"/><path d="M377.5 240c-.3 3.8-.8 9.7-.8 13.5a117 117 0 0 0-9.8-7.6c2.6 1.2 6 3.3 8.3 4 1-2.7 1.6-7 2.3-10"/><path d="M377 251.2l-6.6-8.3 4.8 9.8 1.8.8v-2.3"/><path d="M377.6 241.8c-.3 3.8-.8 9.7-.7 13.5-2.7-2.4-7.1-5.6-9.9-7.6 2.6 1.3 6 3.3 8.4 4 1-2.7 1.5-7 2.2-10"/><path d="M377.5 252.6l-4.5-10 2.5 11 1.6 1.3.4-2.3"/><path d="M377.7 242.9c.2 3.9.2 9.8.6 13.6a134 134 0 0 0-10.4-6.2c2.6.9 6.1 2.4 8.6 2.8.7-2.9.8-7.1 1.2-10.2"/><path d="M378.3 252.2l-8.3-5.7 7 7.8 2 .1-.7-2.2"/><path d="M378 243.3c.3 3.9.7 9.8 1.3 13.5-3-1.9-7.8-4.3-10.8-5.8 2.7.8 6.3 2.2 8.8 2.5.5-2.9.4-7.1.7-10.2"/><path d="M379.3 254.3l-7-8 5.3 9.6 1.9.7-.3-2.3"/><path d="M378.6 244.8c.5 3.8 1 9.7 1.9 13.4-3-1.7-8-3.8-11-5.1 2.7.6 6.4 1.8 8.8 2 .4-3 .2-7.2.3-10.3"/><path d="M380.6 255.7l-8.3-5.9 7 8 2 .1-.7-2.2"/><path d="M378.9 246.4c.7 3.8 1.7 9.7 2.7 13.3-3.1-1.5-8.2-3.1-11.3-4.1 2.8.3 6.5 1.2 9 1 .2-2.9-.3-7-.4-10.2"/><path d="M381.6 256.9l-7-8.2 5.2 9.7 2 .8-.2-2.3"/><path d="M379.3 247.4c1.1 3.7 2.6 9.5 4 13-3.3-1-8.4-2-11.6-2.6 2.8 0 6.5.3 9-.1 0-3-1-7.1-1.4-10.2"/><path d="M382 256.9l-9.7-2 9.1 4.5 1.9-.7-1.4-1.8"/><path d="M380 248.6c1 3.7 2.5 9.4 3.8 12.9-3.2-1-8.3-2-11.5-2.6 2.8 0 6.5.3 9 0 0-3-1-7.2-1.3-10.3"/><path d="M383.5 257.9l-9.2-4.5 8.2 6.7 2-.2-1-2"/><path d="M379.5 249.2c1.8 3.4 4.5 8.7 6.5 11.7-3.4-.2-8.6 0-11.8 0 2.7-.5 6.4-1 8.7-2-.7-2.9-2.4-6.7-3.4-9.7"/><path d="M385 258.9l-9.6-2.6 9 5 1.8-.5-1.3-2"/><path d="M380.4 250.7c1.9 3.3 4.6 8.6 6.7 11.6-3.4-.2-8.6 0-11.8.2 2.6-.7 6.4-1.2 8.6-2.2-.6-2.9-2.4-6.7-3.4-9.6"/><path d="M386.1 259.7l-8.9-5.3 7.8 7.4h2l-.9-2.1"/><path d="M381.2 251.5c2.1 3.1 5.3 8 7.6 10.9a90 90 0 0 0-11.6 1.7c2.6-1 6.2-2 8.4-3.3-1-2.8-3.1-6.5-4.4-9.3"/><path d="M386.8 260.5l-9.6-.3 9.5 2.9 1.7-1.1-1.6-1.5m5.6-46.6l6.9-1.1-6.9.1-1.2.6 1.2.4" fill-rule="nonzero"/><path d="M396.2 215.4c-2-.6-5-1.6-7.1-2l7.4-3.5c-1.5 1-3.8 2.2-5 3.2 1.2.8 3.3 1.6 4.7 2.3"/><path d="M392 214.1l6.8-1.8-7 .9-1 .7 1.3.2"/><path d="M396.5 215.9c-2.4-.3-6-.7-8.3-.7 1.8-1.6 4.2-4.1 5.7-5.7-1 1.5-2.6 3.4-3.3 4.8 1.6.7 4.1 1.1 5.9 1.6"/><path d="M389.6 214.6l7-.8-6.8-.2-1.3.6 1 .4"/><path d="M394.7 216.1l-7.5-1.3 6.9-3.8c-1.4 1-3.4 2.4-4.4 3.4 1.3.6 3.5 1.2 5 1.7"/><path d="M389 214.6l6.1-2.7-6.7 1.8-.8.8h1.4"/><path d="M394.5 216.9c-1.7-.7-4.5-2-6.2-2.5l4.4-4.8c-.8 1.3-2 3-2.6 4.4 1.2 1 3 2 4.4 2.9"/><path d="M389.3 215l4.8-2-5.2.6-.6 1 1 .4m-4 44.6h-9.8l10 2.5 1.6-1-1.8-1.5" fill-rule="nonzero"/><path d="M387.1 260.2l-10-2.3 9.6 4.7 2-.6-1.6-1.8"/><path d="M388.8 260.9l-10-.5 10 3 1.7-1-1.7-1.5"/><path d="M382.5 253.9c2.5 2.8 6.4 7.4 9.1 9.9-3.3.5-8.3 1.8-11.4 2.7 2.4-1.2 6-2.6 8-4-1.4-2.6-4-6-5.7-8.6"/><path d="M390.1 261.4l-10-3.3 9.4 5.6 2-.4-1.4-2"/><path d="M383.4 254.5c2.8 2.6 7 6.7 10 9-3.2.9-8 2.8-11 4 2.3-1.4 5.6-3.2 7.4-5-1.6-2.4-4.5-5.5-6.4-8"/><path d="M391 262l-9.5 1.9 10 .6 1.4-1.3-2-1.2"/><path d="M389 261.4l-9.8.8 10.1 1.7 1.6-1.2-2-1.3"/><path d="M390.8 262l-10.2-1.7 10 4 1.8-.7-1.6-1.7z"/><path d="M392.5 262.5l-10 .2 10.2 2.3 1.6-1.1z"/><path d="M385.7 256c2.8 2.6 7 6.8 9.9 9.2-3.3.7-8.3 2.4-11.3 3.4 2.4-1.3 5.8-2.9 7.7-4.5-1.6-2.5-4.4-5.7-6.3-8.2v.1z"/><path d="M393.9 262.9l-10.2-2.6 9.8 5 1.9-.6-1.5-1.8z"/><path d="M386.6 256.5c3 2.4 7.6 6.2 10.7 8.2-3.2 1.1-7.8 3.5-10.6 4.9 2.2-1.7 5.3-3.7 7-5.5-1.8-2.4-5-5.3-7-7.6h-.1z"/><path d="M394.8 263.4l-9.3 2.6h10l1.3-1.5-2-1z"/></g><path stroke="#000" stroke-width=".4" fill="#FEDF00" d="M407 250l-7.6-5.3-7.6 5.3 2.9-8.4-6.7-5.2h8.6l2.8-8.4 2.8 8.4h8.6l-6.7 5.2z"/></g></svg>