<svg width="800" height="480" xmlns="http://www.w3.org/2000/svg"><g fill="none" fill-rule="evenodd"><path fill="#20603D" d="M0 0h800v480H0z"/><path fill="#FAD201" d="M0 0h800v360H0z"/><path fill="#00A1DE" d="M0 0h800v240H0z"/><g transform="translate(597 47)" fill="#E5BE01"><path d="M155.4 78l-53.6 3.134 50.934 16.933L100.201 87.2l44.866 29.467-48-24.133 35.6 40.2L92.6 97.067l24.134 48L87.2 100.201 98 152.667l-16.866-50.866L78 155.4l-.666-78.067z"/><path d="M155.4 78l-53.6-3.133 50.934-16.933L100.201 68.8l44.866-29.466-48 24.133 35.6-40.2L92.6 58.934l24.134-48L87.2 55.8 98 3.333 81.134 54.2 78 .6l-.666 78.067z"/><path d="M.6 78l53.6 3.134L3.267 98.067 55.8 87.2l-44.867 29.467 48-24.133-35.6 40.2L63.4 97.067l-24.133 48L68.8 100.201 58 152.667l16.867-50.866L78 155.4l.667-78.067z"/><path d="M.6 78l53.6-3.133L3.267 57.934 55.8 68.8 10.933 39.334l48 24.133-35.6-40.2L63.4 58.934l-24.133-48L68.8 55.8 58 3.333 74.867 54.2 78 .6l.667 78.067z"/><circle stroke="#00A1DE" stroke-width="2.267" cx="78" cy="78" r="22.867"/></g></g></svg>