<svg width="800" height="480" xmlns="http://www.w3.org/2000/svg"><g fill="none" fill-rule="evenodd"><path fill="#199D00" d="M0 0h800v480H0z"/><path d="M223.475 137.55c-.75 11.25-1.875 30.937 7.781 33 11.532 1.125 5.157-19.5 9.375-23.25.75-1.875 2.157-1.875 2.25.468V165.3c0 5.625 3.75 7.312 6.563 8.437 3-.187 5.062 0 6.187 2.813l1.5 30.28s6.938 2.063 7.313-16.968c.281-11.25-2.25-20.531-.75-22.687 0-2.157 2.812-2.25 4.687-1.22 3 2.063 4.313 4.688 9 3.75 7.125-2.062 11.438-5.53 11.532-10.968a44.063 44.063 0 0 0-3.282-15.562c.375-.938-1.312-3.47-.937-4.407 1.219 2.063 3.187 1.875 3.562 0-1.218-3.937-3.093-7.78-6.093-9.375-2.532-2.25-6.282-1.875-7.5 2.813-.75 5.344 1.875 11.625 5.718 16.875.844 1.969 1.97 5.344 1.5 8.344-2.062 1.218-4.125.656-5.906-1.125 0 0-5.625-4.22-5.625-5.25 1.5-9.563.281-10.688-.562-13.407-.563-3.656-2.344-4.875-3.75-7.312-1.407-1.5-3.282-1.5-4.219 0-2.531 4.312-1.313 13.594.469 17.812 1.312 3.844 3.281 6.282 2.343 6.282-.75 2.156-2.343 1.593-3.562-.938a62.437 62.437 0 0 1-1.969-16.312c-.469-4.313-1.031-13.5-3.937-15.938-1.688-2.25-4.219-1.125-5.157.938a77.25 77.25 0 0 0 .282 12.562c1.875 6.938 2.531 13.125 3.468 20.156.282 9.47-5.437 4.125-5.156-.656a42.188 42.188 0 0 0-.281-18.187c-.938-2.438-1.969-3-4.313-2.625-1.78 0-6.375 4.968-7.687 13.406 0 0-1.125 4.312-1.594 8.156-.656 4.313-3.469 7.5-5.531-.562-1.688-5.907-2.813-20.25-5.625-16.875h-.094z" fill="#FFF"/><path d="M255 182.781l-30 14.438c.281-6.844 14.156-19.125 23.719-19.219 6.094.094 4.594 2.344 6.187 4.781H255zm-4.85 10.115c-15.75 40.78 37.031 46.5 42.937 1.687.563-1.875 2.813-3.656 3.188-.656-1.219 40.594-40.875 43.312-47.625 30.562a39.281 39.281 0 0 1-2.344-13.687c-.937-7.969-5.156-4.875-5.812 3-.657 4.406-.47 5.625-.47 9.844 2.063 32.062 53.157 18.28 61.5-8.157 4.407-14.625-.75-25.406 1.595-25.406 5.062 5.438 12.187.75 13.78-1.125.657-.937 2.345-1.594 3.47-.375 3.937 2.813 10.875 1.5 12.375-3.469.843-4.968 1.5-10.031 1.687-15.187-3.281.937-5.625 1.594-5.906 3l-.656 4.312c-.282 1.407-3 1.407-3.188-.375-1.219-5.625-6.281-6.281-9.375 2.344-1.969 1.688-5.719 2.063-6.094-.469.469-5.812-1.875-6.562-6.562-3.843l-4.5-33.938c1.875 0 3.75 1.406 5.531-.844-1.875-6.093-6.094-18.468-8.437-19.406-1.032-1.312-1.97-.469-3.47-.094-2.437.75-4.687 2.813-3.937 6.938 2.813 17.625 4.688 31.031 7.594 48.75.469 1.969-1.219 4.687-3.469 4.406-3.75-2.531-4.687-7.687-11.25-7.5-4.687 0-9.937 5.156-10.593 10.031-.844 3.938-1.125 8.157 0 11.532 3.28 3.937 7.218 3.562 10.687 2.718 2.813-1.218 5.156-4.031 6.188-3.375.656.844.093 10.219-13.407 17.344-8.156 3.75-14.718 4.5-18.187-2.156-2.156-4.219.187-20.063-5.25-16.406z" fill="#FFF"/><path d="M316.838 150.958c3.094-1.125 18.094-18.375 18.094-18.375l-2.25-1.875c-.844-.656-.75-1.406 0-2.063 3.75-2.25 2.531-6.937.656-9.187a9.094 9.094 0 0 0-8.156.094c-2.625 2.53-3.188 6.562-1.125 9 1.969.937 3.937 3 2.625 4.125-6.188 6.562-22.969 17.906-21 18.28.375.563 10.781.563 11.062 0h.094zm-90.937 60.937c-5.625 9-6.094 22.407-3 26.438 1.687 1.875 4.406 2.719 6.375 2.062 3.562-1.5 5.156-8.718 4.312-11.25-1.219-1.875-2.156-2.156-3.375-.656-2.437 5.063-3.469 1.594-3.75-1.219a65.625 65.625 0 0 1 .75-14.25c.656-3.937 0-2.812-1.312-1.125zm241.03-14.343c-5.437-11.813-13.03-23.438-15.374-27.844a522.75 522.75 0 0 0-23.25-33.75c-5.813-6.938 9.562 2.906-1.875-10.969l-8.344-7.031c-1.875-1.313-6.375-3.75-7.125.187-.375 3.563-.187 5.438.375 8.344.469 1.875 3.281 5.156 4.688 7.031a529.687 529.687 0 0 1 50.437 81.094c2.438-1.219 1.875-15.094.469-17.062z" fill="#FFF" fill-rule="nonzero"/><path d="M443.2 237.099c-1.124 1.218 2.626 6.375 7.5 6.375 8.063-.938 15.188-5.438 21.75-17.438a30.938 30.938 0 0 0 4.97-13.312 297.188 297.188 0 0 0-5.438-67.875c-.281-1.875 0-4.125.188-4.688.562-.656 2.343 0 3.28-1.594 1.407-1.406-3.75-13.125-6.562-17.53-.937-2.063-1.406-3.376-3.093.187a25.312 25.312 0 0 0-2.813 12.75c3.844 26.718 5.063 50.062 7.5 76.781.281 2.625-.094 6.375-1.875 7.875a75.188 75.188 0 0 1-25.406 18.469zm109.22-.094c-5.813 3.375-5.813 7.219-1.125 7.312 8.062-.937 17.625-1.593 24.187-11.53a38.438 38.438 0 0 0 3.938-15 284.062 284.062 0 0 0-4.407-66.938c-.187-1.875-1.03-6.282-.75-6.844.563-1.313 3.188.094 4.125-1.406 1.313-1.407-6.843-11.907-9.75-16.407-.937-2.062-1.312-3.375-3.093.188a20.906 20.906 0 0 0-1.688 12.75c4.313 29.062 7.5 50.812 8.156 76.5-.375 2.437-.468 3.75-1.593 6.844-2.532 3.187-5.344 7.312-7.97 9.281-2.624 1.875-8.25 3.75-10.03 5.25z" fill="#FFF" fill-rule="nonzero"/><path d="M556.79 211.113c0-6.843.094-12.656-.094-17.812a31.875 31.875 0 0 0-2.812-12.656c-1.688-3.844-.657-6.938-1.5-11.063-.75-4.125-.563-10.312-1.688-15.094-.375-1.875-1.312-7.968-1.031-8.625.469-1.312 2.25 0 3.187-1.5 1.313-1.406-4.687-16.875-7.687-21.28-1.031-1.97-3.094-1.313-5.438 1.874-2.343 2.156-1.5 6.938-.562 11.531 5.719 30.282 10.125 57.75 9.187 86.532-.375 2.437 8.438-7.313 8.438-11.907zm-42.844-37.5c-3.656-.187-11.25-7.218-13.5-11.25a7.5 7.5 0 0 1 .375-6.093c1.406-.938 3.469-1.875 5.063-.938 0 0 1.593 2.25 1.312 2.531 1.875.938 2.813.47 3-.375.094-1.406-.562-2.25-.562-3.75.843-4.312 5.625-4.968 7.5-2.25 1.312 1.688 1.875 5.157 1.968 7.5 0 1.22-1.875-.187-3.093 0-1.032.375-1.313 1.688-1.407 2.813-.187 3.094-.562 8.062-.656 11.719v.093zm-67.312 45c.937-9.187-.375-25.593-.469-31.03a447.187 447.187 0 0 0-3.469-41.813c-1.125-7.875 3.188.843 2.625-3.75-1.406-7.782-5.719-13.125-10.875-20.157-1.594-2.343-1.594-2.812-4.125.563-2.812 6.281-.375 10.687.375 15.656 3.656 16.125 5.813 30.938 6.844 45.656a368.813 368.813 0 0 1 .375 45.938c2.812.094 7.125-4.406 8.719-11.063z" fill="#FFF" fill-rule="nonzero"/><path d="M569.127 203.386c-6.469-10.875-16.125-22.5-18.75-26.906a616.875 616.875 0 0 0-27.375-35.437c-7.969-8.438 3.75-1.407-1.5-7.97-4.406-4.78-5.625-6.374-9.469-9.28-1.875-1.22-3-3.563-3.75.468-.298 3.492-.361 7-.187 10.5 0 1.594 1.687 4.688 3.187 6.563 19.407 23.906 40.688 48.281 57.75 78.937 2.438-1.218 1.594-15 0-16.875h.094z" fill="#FFF"/><path d="M277.205 184.035c-.468.843-1.5 1.875-1.125 2.906.657.937 1.313 1.219 2.438 1.219 1.031 0 2.531.281 2.812-.282.563-.656.938-1.875.563-3.093-1.125-2.813-4.125-1.688-4.688-.75z" fill="#1BA400"/><path d="M494.875 341.322c8.625.375 14.25.468 21.844 1.312l9-.937c9.937-.938 10.312 14.156 10.312 14.156 0 8.906-3.468 9.375-7.875 10.312-2.531.375-3.75-1.5-5.156-3.375-2.12.68-4.379.81-6.563.375-3.656-.187-7.218-.187-10.78-.468-3.75-.282-5.813.468-9.657.093-.75 1.22-1.875 2.907-4.125 2.438-1.875-.281-4.219-5.625-3.563-9.844 1.407-3 .938-1.969.938-3.281-35.25-.938-70.781-2.531-105.281-2.063-27 .094-53.625 1.22-80.344 2.344-14.25-.187-25.125-2.437-32.625-13.406.75 0 36.375 1.969 46.781 1.312 19.219-.187 36.844-1.78 56.438-2.343 38.625.656 76.969.656 115.594 3.375-3.75-2.532-3.75-8.438 1.875-9.938.468-.375.75 2.906 1.593 2.813 4.594-.282 2.531 5.906 1.594 7.125zm-155.25-213c-5.813 16.687 3.375 35.062 9.75 33.28 4.688 1.876 7.5-6.937 9.375-16.5 1.406-2.718 2.344-3 3-1.593-.188 12.75.938 15.656 4.219 19.5 7.312 5.625 13.406.75 13.875.281l5.625-5.718c1.312-1.407 3-1.407 4.781-.282 1.781 1.594 1.5 4.313 5.25 6.188 3.188 1.312 9.844.375 11.438-2.344 2.062-3.656 2.625-4.875 3.562-6.187 1.5-1.97 4.031-1.125 4.031-.47-.281 1.126-1.781 2.157-.75 4.22 1.875 1.312 2.25.468 3.281.187 3.75-1.875 6.563-9.937 6.563-9.937.094-3-1.594-2.813-2.719-2.063L418 148.853c-1.875.281-5.344 1.5-7.125-1.219-1.781-3.187-1.781-7.781-3.094-11.062 0-.188-2.437-5.157-.187-5.438 1.125.188 3.469.844 3.844-1.125 1.125-1.969-2.438-7.5-4.97-10.312-2.156-2.344-5.156-2.625-8.062-.188-2.062 1.875-1.781 3.938-2.156 5.906a9.188 9.188 0 0 0 1.875 8.157c2.063 3.937 5.719 9.093 4.5 16.406 0 0-2.156 3.375-5.906 2.906-1.594-.281-4.125-.937-5.438-11.062-1.031-7.5.188-18.188-3-23.157-1.219-3.093-2.062-6-4.875-.843-.75 2.062-4.031 5.156-1.687 11.437a33.75 33.75 0 0 1 1.875 17.813c-1.406 2.062-1.688 2.718-3.469 4.687-2.438 2.813-5.156 2.063-7.219 1.031-1.875-1.218-3.375-1.875-4.312-6.093.187-6.563.562-17.344-.656-19.594-1.782-3.563-4.688-2.25-5.907-1.125a44.719 44.719 0 0 0-10.781 22.031c-1.688 5.438-3.469 3.844-4.688 1.688-3-2.813-3.28-25.032-6.937-21.375z" fill="#FFF" fill-rule="nonzero"/><path d="M356.517 164.631c2.718-1.875 1.5-3.187 5.437.75a67.5 67.5 0 0 1 8.625 29.344c-.187 2.437 1.5 3.937 2.344 3.375.375-5.625 14.156-13.5 26.812-14.625 1.875-.469.938-4.125 1.22-6-.75-7.031 3.937-13.406 10.5-13.875 9 1.312 12 6.094 12.187 13.312-1.032 14.063-15.657 16.407-23.813 17.532-1.219.468-1.781 1.03 0 1.687l34.313.188 1.781.937c.187.938-.563.188-1.875 2.438a27.656 27.656 0 0 0-3.469 10.78c-10.219 3.376-20.812 4.688-31.5 6.095-3.75 1.875-5.625 4.406-4.875 7.218 1.313 3.094 9.563 6.282 9.563 6.375 1.593.938 3.375 3.282-.469 8.063-16.688-.75-29.719-7.875-34.219-17.906-1.312-1.032-2.812 0-3.75 1.312-6.562 8.438-12.937 15.938-24.094 20.063-6.562 1.687-13.406-1.032-16.593-5.344-2.157-2.531-2.063-5.25-2.813-5.813-3.656 1.594-34.594 14.72-30.656 8.532 7.5-7.97 20.625-13.97 32.062-21.844.844-2.719 2.344-11.719 6.844-14.625.281 0-.656 5.25-.562 7.5 0 1.875-.188 2.531.187 2.062.844-.468 14.719-11.437 15.938-14.812 1.312-1.875.281-6.75.281-6.938-2.625-6.75-6.281-7.312-7.594-10.687-1.219-4.406-.656-9.469 1.875-10.969 2.25-1.969 4.875-1.781 7.406.469 2.813 2.531 5.25 7.5 6 11.156-.468 1.406-3.75-.937-4.687-.281a15 15 0 0 1 3.469 7.312c1.875 7.688 1.312 10.688-.563 15.657-6.187 13.03-14.062 16.875-21 21.75-.187 0-.281 3.28 2.25 5.062.938.938 4.594 1.406 8.813 0a51.094 51.094 0 0 0 20.906-21.844 47.813 47.813 0 0 0-2.25-20.812c-2.719-6.281-5.906-15.188-5.906-15.375-.094-3.938.187-5.25 1.875-7.219zm-89.813-36.187c3.938 1.875 11.438 1.03 11.063-5.344l-.188-2.906c-.75-1.875-3-1.407-3.469.468-.187.657.282 1.688-.28 1.97-.376.374-1.595.187-1.595-1.595 0-.562-.375-1.125-.656-1.5-.187-.187-.375-.187-.844-.187-.562 0-.562.094-.843.562-.094.47-.282.938-.282 1.5 0 .657-.375.844-.75.938-.562 0-.468 0-.937-.188-.188-.28-.469-.375-.469-.937l-.281-1.5c-.188-.281-.563-.469-.938-.563-2.156 0-2.343 2.532-2.156 3.47-.187.187-.281 4.593 2.625 5.812z" fill="#FFF" fill-rule="nonzero"/><path d="M382.751 177.374c3.938 1.875 13.407.844 11.063-5.25l-.188-3c-.843-1.875-3-1.406-3.468.563-.188.562.28 1.593-.375 1.875-.282.375-1.594.187-1.5-1.5 0-.563-.375-1.22-.657-1.594-.28-.094-.375-.188-.937-.188-.469 0-.469.188-.75.657a3.886 3.886 0 0 0-.281 1.5c-.094.562-.375.75-.844.937-.469 0-.375 0-.75-.281-.281-.281-.563-.375-.563-.844l-.28-1.5c-.188-.281-.563-.469-.938-.562-2.157 0-2.344 2.437-2.25 3.375-.094.187-.188 4.687 2.812 5.812h-.094zm67.5-20.25c3.938 1.875 11.344 1.031 11.063-5.25l-.188-3c-.843-1.875-3-1.406-3.468.469-.188.656.28 1.687-.375 2.062-.282.282-1.594.094-1.5-1.687 0-.563-.375-1.125-.657-1.5-.28-.188-.375-.188-.937-.188-.469 0-.469.188-.75.657l-.281 1.406c-.094.656-.375.937-.844.937s-.375 0-.75-.187c-.281-.281-.563-.375-.563-.844s-.093-1.219-.28-1.594c-.188-.28-.563-.375-.938-.468-2.157 0-2.344 2.437-2.25 3.375-.094.187-.188 4.593 2.812 5.812h-.094zm34.97 50.906c-6.845 7.782-3.845 20.625-2.25 23.438 2.25 4.5 4.03 7.406 8.437 9.656 4.03 2.906 7.218 1.125 8.906-.937 4.031-4.22 4.125-15 6-17.063 1.312-3.937 4.687-3.281 6.281-1.5a15.469 15.469 0 0 0 5.813 4.969c3.75 3.281 8.25 3.937 12.75.937 3-1.78 4.968-3.937 6.75-8.343 1.875-5.25.937-29.625.468-44.063l-3.937-20.156c0-.188-.469-9.563-.938-11.719 0-.937-.28-1.219.657-1.125 1.03.938 1.125.938 1.875 1.219.937.187 1.875-1.594 1.218-3.094l-9.375-17.437c-.75-.75-1.78-1.5-3 .187a6.844 6.844 0 0 0-2.25 5.156c.282 4.125.938 8.344 1.22 12.47l3.75 21.187c1.218 15 1.5 27.375 2.718 42.468-.188 6.375-2.156 11.907-4.031 12.75 0 0-2.813 1.594-4.688-.187-1.406-.563-6.937-9.281-6.937-9.281-2.813-2.532-4.688-1.875-6.657 0-5.625 5.437-8.062 15.375-11.906 22.312-.937 1.594-3.75 2.813-6.75-.094-7.687-10.593-3.187-25.593-4.125-21.75zm-33.188-87.843c3.562 1.406 6 8.625 5.25 12.187-.75 4.219-2.625 8.906-3.938 8.344-1.5-.563.938-4.313-.469-8.25-.75-2.625-5.625-7.313-5.062-8.625-.938-2.906 2.062-4.219 4.219-3.75v.094z" fill="#FFF" fill-rule="nonzero"/><path d="M497.131 211.511c.657-8.625-.562-13.875-.75-18.937-.187-5.063-5.718-43.688-6.843-47.438-1.407-7.312 5.343-.937 4.593-5.25-2.343-5.25-8.062-13.03-9.843-17.625-1.125-1.875-.657-3.75-3.094-.468a39.656 39.656 0 0 0-2.156 18c5.812 30.28 11.718 55.406 10.78 84.187 2.813 0 5.907-6.281 7.313-12.469zm60.375-79.968c3.282 1.593 5.157 10.593 4.782 13.125-.657 4.687-2.344 9.75-3.563 9.093-1.406-.562.281-6.937-.375-8.906-.75-2.812-5.156-7.875-4.687-9.375-.938-3.187 1.875-4.5 3.843-3.937zm-239.718 63.656c3.093 1.219 4.968 7.781 4.687 9.656-.75 3.469-2.344 7.219-3.562 6.656-1.22-.375.28-5.062-.282-6.562-.28-3.469-4.593-5.344-4.5-6.844-.75-2.812 1.875-3.281 3.75-2.906h-.093z" fill="#FFF" fill-rule="nonzero"/><path d="M392.379 205.688c3.937.187 5.906 3.375 2.25 4.687-3.75 1.219-7.219 2.25-7.313 7.5 1.407 7.5-1.875 4.875-3.75 3.938-2.25-1.688-8.625-5.625-9.562-14.063-.094-1.969 1.5-3.75 4.031-3.75 3.75 1.031 9.375 1.125 14.344 1.688z" fill="#1B9D00"/><path d="M234.815 117.235c4.5 1.313 4.78 8.063 4.5 10.031-.657 3.563-2.25 7.407-3.375 6.938-1.313-.469 0-5.344-.657-6.844-.656-2.062-4.5-6-4.125-7.125-.843-2.344 1.875-3.469 3.657-3zm89.906 31.5c-3.563 1.875-4.875 7.5-2.719 10.875 2.063 2.813 5.25 1.781 5.625 1.781 3.469.375 5.531-6.468 5.531-6.468s.094-1.875-3.937 1.78c-1.781.282-1.875-.374-2.344-1.312a8.437 8.437 0 0 1 .469-5.343c.656-1.688-.656-2.438-2.625-1.313zm26.25-34.125c-1.875 1.219-5.344 4.875-5.438 9-.093 2.344-.562 2.344.938 3.75 1.219 1.688 2.25 1.594 4.5.375a4.781 4.781 0 0 0 2.156-3.187c.563-2.625-2.812 1.312-3.187-1.688-.75-2.812 1.406-3.937 3.468-6.562 0-1.875 0-3.094-2.53-1.688h.093zm21 3.75a55.781 55.781 0 0 0-1.5 10.406c-.563 2.625 2.812 3.75 4.219.375 2.25-6.093 2.25-8.718 2.437-11.25-.656-4.03-3.375-3.937-5.156.47zm133.125 67.781c.375-.468 18.75-13.5 18.75-13.5 1.875-.656 1.406 6.75.562 6.657a72.938 72.938 0 0 1-19.406 13.406c-.937.656-1.781-4.969 0-6.563h.094zm16.594-.187c3.28 1.594 4.593 11.062 4.218 13.594 0 5.062-3.093 9-4.406 8.437-1.312-.656.188-6.281-.469-8.25-.75-2.812-3.468-7.969-3-9.469-.937-3.187 1.688-4.875 3.75-4.312h-.093zM412.94 226.64a24.375 24.375 0 0 1 5.25-4.593c1.875-.938 3.562.75 3.468.656.282 1.875-1.125 3.469-.656 5.906.375.938.656 2.063 2.438 1.688 2.906-2.344 5.625-2.532 8.437-2.625 2.344.093 2.438 3.937.938 3.937-5.344 1.125-7.688 2.625-11.532 4.031-1.875 1.125-3.375-.28-3.375-.375 0-.093-1.03-1.03-.375-3.468.188-1.875-.562-3-2.25-2.813-1.125.75-2.25 1.125-2.812-.281-.281-.938-.375-1.5.469-2.063zm128.062 5.063c.75.937 1.313 1.875-.094 3.562l-3.468 3c-.563.938-.938 2.625.937 3.094 3.375.938 11.25-4.219 11.25-4.312 1.313-.938.938-2.813.75-2.813-.75-.844-2.437-.281-3.562-.469-.563 0-2.344-.187-1.5-1.875a10.688 10.688 0 0 0 1.5-2.718c.468-1.125 0-1.875-1.875-2.532-1.97-.375-2.813-.187-4.97 0-1.124.188-1.5.75-1.78 2.157.093 2.156 1.406 2.062 2.812 2.812v.094z" fill="#FFF" fill-rule="nonzero"/><path d="M413.539 178.894c-.47.937-2.157.937-3.75 0-1.594-.938-2.532-2.438-1.97-3.281.563-.844 2.157-.844 3.75 0 1.595.843 2.438 2.437 1.97 3.281zm-83.438-50.25c-.937.281-2.25-.563-2.812-1.875-.563-1.313-.282-2.438.656-2.719.937-.281 2.156.656 2.812 1.875.657 1.219.282 2.531-.75 2.813l.094-.094z" fill="#259F00" fill-rule="nonzero"/><path d="M495.114 353c8.812.375 17.062 0 25.78.469 1.595 1.406.47 4.687-.562 4.5l-7.312-.281c-.094-2.813-7.219-2.344-7.031.093-3.844.469-7.313-.094-11.25-.281-1.125-1.406-.938-3.938.375-4.5z" fill="#209000"/></g></svg>