<svg width="800" height="480" xmlns="http://www.w3.org/2000/svg"><g fill="none" fill-rule="evenodd"><path fill="#0000D6" d="M0 475.5L771.406 0H0z"/><path fill="#006000" d="M800 0L21.25 480H800z"/><path fill="#FC0" d="M800 0h-42.89L0 455.063V480h42.89L800 25.875z"/><path d="M66.938 8.531L78 40.875h36.094L84.938 60.656l11.156 32.25-29.156-19.781L37.78 93l11.157-32.25L19.78 40.781h36l11.157-32.25zm179.156 0l11.156 32.344h36.094l-29.25 19.875L275.344 93 246 73.125l-29.063 19.969 11.157-32.25-29.25-19.969h36.094l11.156-32.344zm0 135.469l11.156 32.344h36.094l-29.25 19.875 11.25 32.25-29.25-19.969-29.063 19.969 11.156-32.25-29.25-19.969h36.094L246.094 144zM157.03 77.062l11.156 32.25h36l-29.062 19.97 11.063 32.25-29.063-19.97-29.25 19.97 11.25-32.25-29.25-19.97h36.094l11.062-32.25zM66.937 144L78 176.344h36.094l-29.156 19.875 11.156 32.25L66.938 208.5 37.78 228.469l11.25-32.25-29.343-19.969h36L66.938 144z" fill="#FFF" fill-rule="nonzero"/></g></svg>