<svg width="800" height="480" xmlns="http://www.w3.org/2000/svg"><g fill="none" fill-rule="evenodd"><path fill="#FFF" d="M0 0h800v480H0z"/><path fill="#DF0000" d="M0 0h800v240H0z"/><path d="M166 40.2c-39.041 8.39-66.86 42.993-66.666 82.925.193 39.932 28.346 74.263 67.466 82.275a86 86 0 0 1-106.6-59c-12.85-45.548 13.517-92.92 59-106 16-4.6 30.8-4.7 46.9-.2h-.1z" fill="#FFF"/><path d="M153 110l4.9 15-13-9.2-12.8 9.4 4.7-15.2-12.8-9.3 15.9-.2 5-15 5 15h15.8L153 110zm17.5 52l5 15.1-13-9.2-12.9 9.3 4.8-15.1-12.8-9.4 15.9-.1 4.9-15.1 5 15h16l-12.9 9.5zm58.5-.4l4.9 15.2-13-9.3-12.8 9.3 4.7-15.1-12.8-9.3 15.9-.2 5-15 5 15h15.8l-12.7 9.4zm17.4-51.6l4.9 15.1-13-9.2-12.8 9.3 4.8-15.1-12.9-9.4 16-.1 4.8-15.1 5 15h16l-12.8 9.5zm-46.3-34.3l5 15.2-13-9.3-12.9 9.4 4.8-15.2-12.8-9.4 15.8-.1 5-15.1 5 15h16l-12.9 9.5z" fill="#FFF" fill-rule="nonzero"/></g></svg>