<svg width="800" height="480" xmlns="http://www.w3.org/2000/svg"><g fill="none" fill-rule="evenodd"><path fill="#006" d="M800 480V0H0v480z"/><path fill="#FFF" d="M0 79.964h84.444L0 29.236V0h48.333l118.223 70.69V0h66.555v70.69l118-70.69H400v29.236l-84.889 50.728H400v80.072h-84.889L400 210.873V240h-48.889L232.89 169.418V240h-66.222v-70.582L48.222 240H0v-29.127l84.444-50.837H0z"/><path d="M368.556 0L235 80.073h32L400 0h-31.444zM400 240l-133.111-79.964h32l101 60.982V240H400zM133.778 80.073L0 0v19.09l101.556 60.983h32.222zm-.334 79.963L0 240h31.889l133.667-79.964h-32.223.111z" fill="#CE1126" fill-rule="nonzero"/><path fill="#CE1126" d="M0 96.655h180.667V0h39.11v96.655H400v46.909H219.778V240h-39.111v-96.545H0v-46.91z"/><path d="M706.734 194.077c0 73.134-11.664 152.1-106.771 189.788-94.66-37.689-106.323-116.654-106.772-189.788h213.543z" stroke="#FFF" stroke-width="4.935" fill="#8FC5FF"/><path d="M599.963 383.416a153.881 153.881 0 0 0 84.34-71.787h-8.972c-2.692-.449-91.07-8.974-101.837-13.46-8.972-3.14-43.965 3.14-60.115 8.973a152.536 152.536 0 0 0 86.584 76.274z" stroke="#000" stroke-width="4.935" fill="#366CC9"/><path d="M533.567 338.55h5.383c1.346 0 1.346 0 1.795-1.347.448-1.346 1.794-.897 2.691-.449.898.45 2.692 0 3.59-.897.897-.897.897-.897 1.794 0s1.346.449 2.243 0c.449 0 2.243-.897 2.692-2.243.448-1.346 1.794-1.795 2.243-.898.448.898 1.346.898 2.243.898.897 0 .897.448.897 1.794 0 .898 0 1.346 2.243-.448 1.795 1.794 2.243.897 2.243-.898 0-1.794 0-8.973-.897-9.422-.897-.448-1.346-3.589-1.794-5.832 0-4.487 0-4.487-4.487-6.73 0-1.346-.897-1.795-4.486-1.795.449-.449 0-1.795-.897-2.243-.897-.45-.897-.898 0-2.692.897 0 2.692 0 3.14-1.346.898-.898 3.59-.898 5.384 0 1.794.897 3.589.897 6.73 0l5.383-2.693c2.243-1.346 2.691-1.794 2.691-3.589 0-4.487-1.346-8.973-2.243-11.217-1.346-2.243-1.346-4.486-3.14-8.524-1.795-3.59-1.795-4.487-3.59-6.73-.896-.898-1.345-1.346-1.345-2.692a6.73 6.73 0 0 0-2.243-4.487c-3.59-3.14-4.486-13.46-6.28-21.088-.898-4.486 0-14.806-1.795-16.6-3.14-2.244-4.486-1.795-6.73-2.692-1.794-2.244-2.243-6.282-4.037-10.32-2.243.449-3.59 2.692-4.935 3.59-1.346.897-1.794.897-1.794 3.14 0 1.795-1.346 4.487-3.14 8.076-1.795 3.59-5.833 2.244-8.973 7.179-6.28-7.627-6.28-9.87-6.73-12.114 0-2.243-1.345-2.692-4.934-5.833v-6.73c-3.14-2.243-4.935-1.795-6.281 0-1.346 1.346-2.243 3.59-4.486 4.487-.897 1.795-4.486 5.384-7.178 10.32 2.692 40.38 11.664 80.76 39.03 113.064z" stroke="#000" stroke-width=".5" fill="#5D3100"/><path d="M706.734 194.077c0-27.817-1.346-54.737-.897-78.068a285.294 285.294 0 0 0-105.874-19.293c-23.777 0-70.434 3.59-105.875 19.293.897 23.33-.897 50.25-.897 78.068h213.543z" stroke="#FFF" stroke-width="4.935" fill="#FF0"/><path d="M499.1 225.9c1.2 1.9 3.3 5 3.5 6.8.8-1.7 1.5-2.4 1.6-3.5.1-1.1 1.5-3 1-4.2-.5-1.2-.8-2 .4-1.2 1.3.9 1 2.3.8 4.4-.8 5.7-3.1 6.8-3.5 10.7 3.4 8 .9 11 4.6 19 .6.3 2.1-.3 2.6-.2 2-1.4 3.5-1 6.3-.3 2.8.5 4.3 2.5 4.3 4.3 0 1.8 0 2.2.6 3.2s1.7 2.7 1.5 3.9c-.3 1.2.2 1.9.6 2.4.4.5-.2 2-.5 2.7-.3.7-.2 1.9 1.2 3.6 1.4 1.8 4.6 9.1 4.6 13.4 0 4.4.3 6.4 2 7.2 1.8.8 2.3 1.5 2.1 3.3-.2 1.8.8 11.6 1 13.1.2 1.5.9 1.2 1.6 2 .7.8 1.1 1.7 3.5 1.7s4.6-.3 6 0c2.2 2.9 3.5 6.8 4 9.3.5 2.5.4 5.8 1.2 5.8.8 0 1.6 0 1.4-3-.2-3-.5-3.4-1.5-5-1.1-1.5-1.7-2.2-1.1-3.1.6-.9.7-2.4.5-3.6-.2-1.2-.6-3 1.4-.6l3.1 3.7c.6.7.8 2.4.7 3.8-.1 1.4.1 2 1 1.2.8-.7 1.8.5 1.3 2s.2 2.5 1.6 3c1.4.5 2 .8 2.3 1.8.3 1 1.5 1.5 1.5-.6 0-2-.8-6.5-1.4-7.9-.6-1.4-1-4.4-1.2-6.2-.2-1.8-.4-2.2-1.2-2.5-.8-.3-1.6-1-1.7-1.8-.1-.8-.8-1.1-1.3-1.1s-1-.4-1.3-1c-.3-.6-.6-.6-1.2-.7-.6-.1-1.5.3-1.8-.6-.3-.9-.7-2.3-1.3-3-.6-.7-1-1-1.1-3.7 0-2.6-.1-3-1-3.9-.9-.9-2.2-3.4-2.8-4.4-.5-1-1.1-2.1-1.1.1s0 3.4 1.4 4.2c1.4.8 1.7.8 1.1 2-.6 1.2 0 2 .3 2.8.3.8.7 1.6 0 2.4-.7.8-1.4.6-1.3-.7a7.3 7.3 0 0 0-1-3.8c-.5-1-1-1.8-1.7-1.2-.7.6-1.3-.1-.8-.6s.3-.8 0-1.1c-.3-.3-.5-.7.1-1.4s.6-1 .2-2.7c-.3-1.6-2.9-9.8-4-11.7-1.1-1.9-1-3.2.4-1.4 1.4 1.8 2.8 3.5 3 5 0 1.6.4 2.5.9 3s.8.4 1-.9c.2-1.3 1.2-.8-.4-3.2-1.7-2.5-4.7-6.6-5.9-14-1.2-7.4-1.6-12.1-2.8-14.1-1.1-2-1.5-2.5-1.6-4.3-.1-1.8 0-3.8-.8-5.2-.8-1.4-1.4-1.6-1.5.5-.1 2 0 6.8.7 7.6.7.8.2 2.9 0 4s-1.9 2.4 2 4.7c1.5 1 1.2 2.2 1 3-.2.9-.5.8-1.3-.5s-1.6-2.4-2.4-3c-.8-.6-1-1.2-.8-2.9.2-1.7.4-2.8 0-3.3-.5-.6-.7-.2-1 .8-.2.9-.4 3.5-1 4.2-.6.7-.6.2-1-1.3s.2-3.9 1-6.5 1.3-5.5.6-9c-.7-3.5-.4-4.6-3-7.5-2.7-2.9-5.8-5.7-7-9.3-1.3-3.6-1.6-6.8-3-8.4a19.4 19.4 0 0 0-4.6-4.3v-5.4c0-1.3-.6-2-2.1-1.8-1.5.2-2.5 1.5-3.4 3.2-1 1.8-1.6 1-3 4s-3 4.5-3 7.8h-.1z" fill="#CF6200"/><path d="M507.5 260c1 .7 1.9 1 3.3.3s3-2.7 5-.7c1.8 2 2.8 5.3 2.8 7.8 0 2.6 0 7.4 3 10 2.9 2.7 4.4 5.5 4.5 9a61 61 0 0 0 1.7 10.3c.4 1.4 1.2 3 2.1 4 .9 1 1.7 3.6 1.8 6.4.1 2.8-.4 4.7 0 6.1.4 1.4 0 2.6-1 2-1-.6-1.3-1.1-2-2.3-.7-1.2-1.2-1-.6.8s2.3 3.4 3.8 3.4 2 .2 3 1.2c.9.9 1 1.4 2.6 1.4s1.9 0 3.4.4 1.5.3 2.3 0c.8-.3 1.7.5 2.2 2 .5 1.5 2 5.7 2 6.9 0 1.2 0 2.3.8 3.5.8 1.2.6 2.3-.3 1.6-.9-.7-1-.5-1.6-.3-.6.2-1.2-.3-2.1-.9-1-.5-.4-.4-1.3-1.8s-1.5-1.9-1.5-.8c0 1.1-.2 2.3-.9 1.7-.7-.6-1-.6-1.6 0-.6.6-.8 1-1.5-.1s-1.5-1.2-2.2-1.4c-.7-.2-.7-.2-1-1.3-.4-1-1.5-1.3-2.4-1.3-.9 0-1.4-.4-1.5-1.1-.1-.7-.7-1.2-1.2-1.5-.5-.3-.2-1.2-.3-2-.1-.8-.8-.5-1.3-.7-.5-.2-.8-.1-.8-1.3s-.5-1.5-.8-2.3c-.4-.9 0-1.7.2-2.6.2-1 .1-1.5-.6-2.3-.7-.8-.1-1.7-2-3.3-1.9-1.6-2.8-.2-3.4-4-.5-4-1.7-11.9-2.8-13.1-1.1-1.2-1.7-2.3-2.8-2.6-1.1-.3-1.7-.1-1.8-2.3-.1-2.2-.8-5-2.2-6.4l-2.7-2.5c-.7-.5-1-1.6 0-3.6s.6-4.7.5-6c-.2-1.2-.5-2.9-.3-4.3s.1-3.1-.2-4c-.3-.9-.8-1.2-.2-2h-.1zm28.1-33a25.4 25.4 0 0 1-5.4 5.2c-2.2 1.6-5 2.8-3.4 5.4 1.5 2.7 2.8 3 3 5 .4 2 .9 3.8 2.4 4.2 1.6.5 2.2.2 2.2 3.4 0 3.2 0 4.6 1.4 5.8 1.4 1.2 1.2 2.5 1.8 5.4.7 3 .7 9.4 2.5 13.7 1.8 4.3 6.1 12.6 5.6 14.3-.5 1.7-1 3 .8 5 1.9 2 3.1 5 3.3 6.7.1 1.7.4 2.3 2.3 1.7a6.8 6.8 0 0 0 3.4-2c.6-.8 1.9-.6 3.6.3 1.7 1 4.4 1.8 6 1 1.5-1 2.2-2.4 3.6-2.4 2.2-1.6 3-4.8 3.5-5.8.4-.9.1-.9-.8-1.8s-.5-2.5-.6-4c-.2-1.6-.8-4-2.7-7.4-1.8-3.4-3-7.6-4.2-8.7-1.2-1-1.8-3.7-2-5-.1-1.2-1.5-2.3-2.5-3.2-1-1-1.8-2.4-3-7.8-1-5.4-1.8-9.3-1.8-10.3s-.2-1-1.1-1.4c-.9-.4-1.4-1.8-1-2.6.2-.8-.4-1.6-.7-2.5-.3-.9 0-2.6.6-3.6s.5-3.5-.1-5.7-1.3-4-3.8-4.4c-2.4-.3-3-1-3.8-3-1-2-2-5.5-2.2-6.3-.3-.8-.8-1-2.7.6-1.8 1.6-2.5 2-2.5 5 0 1.9.4 2.5 1 3.6.6 1 .8 1.4 1.2 4.3.4 2.9 3.1 7.6-.3 10.3-3.4 2.6-3 3.3-2.8 5.1.2 1.9-1 3.1-1.5.5-.7-2.7 0-4.2 1.8-5.5 1.9-1.2 3.6-2.8 2.4-4.5-1.3-1.7-1.8-5.7-2-7.6-.2-1.9-.4-2.5-1.5-1z" fill="#CF6200" fill-rule="nonzero"/><path d="M507.9 266.5c0 1.3.2 2.7.3 3.8.1 1.3.5 4-.5 6-.9 2-.7 3 0 3.6h.1c2-.6 2.2-2.7 1.7-3.7a3.7 3.7 0 0 1 .2-3.5c.6-1.1.6-1.7.1-2.5-.6-.8-.6-.8 0-3 .6-1.9-.8-1.9-1.9-.7zm20 30.2c-.4-1.4-1.7-6.8-1.8-10.3-.1-3.5-1.7-6.3-4.6-9-2.2-2-2.7-5.4-2.9-8-1.7-1-2.4-.6-2.2 1.4.1 2 2.2 3 2 6.1-.4 3-.4 2.3 1 3.7 1.4 1.4 2 3 1.3 3.5-.8.6-.8 1.7.2 2.1 1.1.4 1.2 1.6 1 2.7-.1 1 1 1.3 1.5 2 .7.8.7 2.7.1 3.8-.6 1-.7 2.8.4 1.9 1-1 1.6-.1 2.4 1.4.7 1.2 1.4.8 2.2.5a9.8 9.8 0 0 1-.7-1.8h.1zm15 27.1c-.6 1.4-1.4 1-2.1.3-.7-.7-1.5-.7-1.2-2 .3-1.3.2-1.5-.7-2.2l-.3-.3h-1c-1.7 0-1.8-.4-2.8-1.4a7.8 7.8 0 0 0-.6-.5v.9c0 1.3 0 1-1.2 1.4-1.2.4-1-1.3-1.3-2.3a3.9 3.9 0 0 0-.2-.7c-1.4-.2-3-1.7-3.4-3.3-.6-1.8 0-2 .7-.8s.8 1.5 1.8 2.2c1 .7 1.4-.5 1-1.9a6 6 0 0 1 0-1.5c-.3-.5-.6-.8-1-1-2-.9-1.4-1-1.3-2.6.2-1.5-.2-1.5-1.4-.7-1.1.8-1.2-.1-1.2-2.5s-1.6-2.3-1.9-.7c-.4 1.7-1 .6-1.6-1.7-.6-2.3-1.7-3-1.8-.7 0 1.9-.6 2.3-1.8 1.3l.5 3.6c.6 3.8 1.5 2.4 3.4 4s1.3 2.5 2 3.3c.7.9.8 1.4.6 2.4-.3.9-.6 1.7-.3 2.5.4.9.9 1.2.9 2.4s.3 1 .8 1.3l1 .1.8-1.2c1.4-1.4 3.5.1 4.2 1.9.7 1.8 1.5 2.2 2.6.8 1.1-1.4.7-1.2 1.9.1s1.6 1 1.6 1 1.2-.4 2 .3 1.3.6 2.8-1.6c1.5-2.3-.7-1.6-1.4-.2h-.1zm4.2-64c.5-3.4.2-6.8 1.6-8 1.4-1.3 3-3.8 3 1.5-.2 5.3-.4 5-1.5 6.2-1 1.3-2 1.6-1 3.6 1.2 2 1.3 2.2 1.2 5.3-.2 3.1-.2 4.4 1 6 1.3 1.5 1.6 1.6 2 3.3.2 1.7 1.3 4 2.7 5.3 1.4 1.3 3 4.8 3.1 7.3.2 2.5 2.4 3.1 4.4 4.9 2 1.7-.5 2.9-2 2.1-1.6-.7-1 0-1.9 1.1-1 1.1-1.2 1.3-2-.6s-3.4-3.1-4.7-3.6c-1.3-.5-2.3-2.5-3.4-4.5a6 6 0 0 0-4.5-3.1c.5 1.3.7 2.3.6 2.8-.5 1.7-1 3 .8 5 1.9 2 3.1 5 3.3 6.7.1 1.7.4 2.3 2.3 1.7a8.3 8.3 0 0 0 3.4-2c.6-.8 1.9-.7 3.6.3 1.7.9 4.3 1.8 5.9.9 1.5-1 2.3-2.3 3.7-2.3 2.2-1.6 3-4.9 3.4-5.8.5-1 .2-1-.7-1.9-.9-.9-.5-2.5-.7-4-.1-1.6-.7-3.9-2.6-7.3-1.9-3.4-3-7.6-4.2-8.7-1.2-1.1-1.9-3.7-2-5-.2-1.2-1.6-2.3-2.5-3.3-1-.9-1.9-2.3-3-7.7-.8-4.3-1.5-7.6-1.7-9.3-1.1 1.8-1.9 2.3-2.3 1-.5-1.4-1-2.1-1.7-1.2-.6 1-.8-.8-.8-1.6s-.1-.9-1-.9 0-1.2-.4-3.6c-.3-2.3-.8-2.6-1 .2-.4 2.8-2 4.5-1.3 5.1.6.6.3 1.9-.3 3.7-.6 1.9-.3 3 .1 4.2.4 1.2-.3 3.6-.6 5.6-.3 2 1.3 4 1.7.7v-.1zM518.7 232c-1.1.1-2 1.1-1.3 4.7.5 2.2-1.2 1.7-1.8.6-.6-1.1-1.1-3.4-2.4-5.4-1.2-2-.6 1.3-.7 3.2-.2 1.9 1 1.9 2.1 3.4 1.1 1.6.2 2.2-1 2.2s-.7 2.5-.4 4.2c.3 1.7-.3 2-1.2.6-1-1.4-.3-3.5-.2-6.2.2-2.6.4-2-1.4-2.6-1.7-.7-1.4-1-.7-2.5.6-1.6 1.2-2.4.4-3.1-.7-.8-.6-1.3.7-1.4 1.2-.2.7-1.1 1.8-1.4 1.1-.3 1.6.1 1.7-1.9.2-1.7.7-2.7 2-2.2.8 2.6 1.7 6.6 2.4 7.8zm15.7 18.4c0 3.2 0 4.5 1.4 5.7 1.4 1.2 1.2 2.5 1.8 5.4.7 3 .7 9.4 2.5 13.7l2.1 4.7a8.8 8.8 0 0 0 2.3-3c.4-1-1-3.2-2-5-1.1-2 .1-2.6 1.2-5 1.1-2.2-.1-2.4-1.9-3-1.7-.6-1.7-2.2-2.6-4.7-.9-2.5-.8-3.6-.2-5 .6-1.4.2-2.5-1-2.8-1.3-.3-1-1.2-.5-2.8.5-1.5.8-1.8-1.1-1.4-1.4.4-1.8.7-2.2 1.2l.2 2z" fill="#00B800" fill-rule="nonzero"/><path d="M552.3 256.8c-.2 1.8-.2 2.8-.7 3.4-.4.6-.1 1.5.4 2.5s.7 2.1.3 3.9c-.4 1.8.3 3 1.2 3.5.9.5 1.4 0 1.1 2.2a6.7 6.7 0 0 0 2 5.5c1.1.9 1.9 2.4 1.7 3.4-.1.9.8 1.8 1.9 2.3 1.1.5 1 .6 1 1.2s.4.7 1.6 1c1.2.3 2.2 1 3.6 2.8 1.4 1.8 3.4 2.6 3.1.8-.3-1.8 0-3.2-1.8-4-1.9-1-3.3-5.5-4-8.6-.9-3.2-3.3-7.3-4.7-8.1-.2-2.2.1-3.3-1.3-4.4a4.5 4.5 0 0 1-1.9-3.6c0-1-.7-2.4-1.4-2.8-.6-.3-.9-1-.9-2s-1-.8-1.2 1z" fill="#5D3100"/><path d="M544 340.2a45 45 0 0 0 11.2-3.2c1.9 1.3 5.1 3 6.5 3-2.6.6-4.4.3-5-.2.3.8 1.2 2.1 1.8 2.2-2.6 0-5.5-.7-6.4-1.6-2.3 1-6 1.2-8-.2h-.1zm5 3.5c1 .3 6 1 6.6 1-1.6 1.5-.2 2.8 2.5 2.6-1.3.2-2.8.7-1.8.9a28 28 0 0 0 10.2-2c-2.2 2.8-13 5.5-17.5-2.5zm4.5 7c1.3-.6 4.6-.4 6.2.3-1.7.7-5.2.7-6.2-.2v-.1z" fill="#00D860" fill-rule="nonzero"/><path d="M558.5 350.7c2.4-.4 9.1 1.2 11.5-.3-.8 2.2-5 2.5-6.5 2-1.5-.4-2.9-1-3.9-1 .6-.3-.3-.3-1.1-.7z" fill="#000"/><path d="M560.9 354a35 35 0 0 0 10.3-1.3c2 .7 6.2 1.8 7.2 1.7-2 1.2-5.8.5-7 0a12.5 12.5 0 0 1-10.5-.4z" fill="#00D860"/><path d="M564 355c2.6.6 4.8.2 7.4-.6.8.3 2.6.7 4.4.7 1.2.6 2.7 1.5 4.3 1.7a19 19 0 0 1-8.6-.7 22 22 0 0 0-9.1 1.7c0-.8.5-2 1.6-2.7v-.1z" fill="#00D860"/><path d="M560.9 342c2 .6 9.4.3 13-1.5 1.6-.7 2.5.5.8 1-6 2.2-10.9 3-14.3 1.1-1.4-.7-1.6-1.4.5-.7v.1z" fill="#000"/><path d="M596.7 332c-9 4.2-14.9 5.5-27.4 1.6-1.1-.3-2 0-.7.8 1.3.9 8.2 2.7 9.8 2.9 1.6.2 1 .8 0 1.1-1 .3-1.2 1 .1.5s8.9-.7 12 .9c1.3.7 1.6.5 1.5 0-.1-.5.6-.9 1.6-1 1-.1 1.6-.4.8-.7-.8-.3-.9-.5-.3-.8.6-.3.7-.6-.2-.8-.9-.2-1.5-.4-.7-.8.9-.4 2-.7 3-.8.2-.6-.2-2.3.5-2.9z" fill="#00D860"/><path d="M581.8 333c5.1.4 14.6-2 19.6-6.8 1.7 1 4.2 2.2 5.5 2.4 1.3.2 2.4 1.4.4 1.4s-4.7-.8-6-1.4a33.8 33.8 0 0 1-19.4 5c-1.4 0-1.7-.6-.1-.5v-.1z" fill="#000"/><path d="M566.6 305c1.8 1.3 4.9 3.3 8.9 3a19.5 19.5 0 0 0 6.5 3.3c-2.7 1-5.6 2-6.4 2.9-1.2-1.2-2.8-1-3.2-1.6-1.2 1-1 1.5-.2 2s6.6 1.4 8 1c1.4-.4 2 .8.7 1.3-3.1 1-9.2 0-11.3-3.4-2.2-3.3-4-4.6-9.7-1.5-.6-1.7-.6-2-1.7-2s-3.2-1.5-1.6-1.5 6.2-.6 10-3.4v-.1z" fill="#00D860"/><path d="M568 312.6c-1 .2-3.7 1.7-4.7 1.8-1 .2-2.7 1.6-1 1.6 1.9 0 4.2-2 5.5-2 1.3 0 1.4-1.7.2-1.4zm5.7 5.9c-.7.1-3.7.8-4.5.8-.8 0-1.7.1-1.6.7.1.6.3 1-1 .8-1.3-.2-2.2.4-2.5.7-.3.3-.5.7.7.8 1.2.1 1.9.3 3.3-.4s2.7-1.6 4.2-1.7c1.5 0 3-2 1.4-1.7z" fill="#00D860" fill-rule="nonzero"/><path d="M569.5 322c1.3 1 7.6 3 9.8 2.9 2.2-.1 1.9.9.2 1.3a14 14 0 0 1-11-3.2c-1.4-1.1 0-1.6.9-1h.1z" fill="#000"/><path d="M599.3 325.2c-4.8 1.5-9.7 1-11.7.4s-3.8-.6-2.4.7c1.3 1.3 5.6 2.1 8 1.5-8.6 2-10.9 1.8-13 1.5-2.2-.4-6.2-.3-8-.2-1.2.2-3 0-3.8-.5-.8-.5-1-1.3 1.3-1 2.3.1 2.6-.3.6-.6s-4.7.5-2 2.2c2.7 1.7 8.5-.1 12.3 1a21.4 21.4 0 0 0 19.1-4.3c.4-.3 1-1.2-.4-.7zm-23.7-7.1c.2.6.2 1.2 0 1.6-.2.4-.1 1 .6.4s1.2-1.3 2-.9 2.7.4 3.6.2c.8 0 1.1-.3-.2-.8-1.2-.5-2.5-.7-3.2-.6-.7.1-1.6-.1-2.2-.4-.6-.3-.7 0-.6.5z" fill="#00D860" fill-rule="nonzero"/><path d="M588.1 320.3c-1 0-2.8-.6-3.7-1-.9-.4-2.3-.4-1.3 1 1 1.4 5.3 2 6.8 1.4 1.5-.6 1-1.4 2.4-.4 1.5.9 3.1 1.5 4.2 1.5s1.5 0 .3-.7-1.8-.8-2-1.4c-.2-.6-.2-1 1-.6s2.3 1 3.2.5c.9-.5 2.5-1.5 4-1.5l.3-.9c-2.1-.1-3.5.5-4 .7-.5.2-1.7.4-2.8.2-1.1-.2-2.5-.3-2.9-.6-.4-.3-.3-.5.6-.7.9-.2 1.2-.8 0-.6-1.2.2-4.8.2-6.6-.4-1.8-.6-2.6-.7-3.3-.4-.8.3-.7 1.1.4 1.2 1.1.1 3.7.3 4.5 1.1.8.8.8.9-.2.5s-2.8-.2-1 1.1h.1z" fill="#00D860"/><path d="M603.3 318.2l-.4.9c2.2 0 7.4.5 9.1 1.5 1.7-1.3 1.4-1.7 2.5-1.4 1.1.3 2.7.6 3.3.3.6-.3 1.1-.3 1.8-.2.7.1 2.2-.2 3.1-.7.9-.5 2.7-1.2 3.7-1.2s2.3-.3.4-.6-4.8.3-5.8.7c-1 .3-4 .6-5.7.6-1.7 0-4.1.8-6.1.3s-4.8-.2-6-.2h.1z" fill="#00D860"/><path d="M630.3 317.2c-3.5 2.6-7.7 3.1-12.7 3.5-1.5.1-1 .5.2.6 5.3.6 11.3-1.4 13.3-3.5.6-.6.5-1.6-.8-.6z" fill="#000"/><path d="M606.5 323.2a54 54 0 0 1 8.4 2c1.3-.2 1.7-.5 1.4-1-.3-.5-.4-1 2-.8h8.6c.9-.3 2.7-1.7 3.5-1.7-2.1 0-10.9.5-12 .4-1.1-.1-1.7 0-2.4.4s-1 .6-2 .2c-1-.4-2.4-.8-3.3-.2-.8.5-2.7 0-4.2.7z" fill="#00D860"/><path d="M626.9 323.4c.8-.3 2.6-1.7 3.5-1.8 1.5-.1 3.2.5 4 .7.8.2 1.7-.1 1.2-.7s-.1-1.8 2.3-1.5c2.4.3 3.6.7 6 .5 2.4-.2 3.3 1.5 7.7-.3-.3 1.8.5 1.9 1.3 1.6.8-.3 1.8-.3 3.2.8 1.4 1.1 9.9 1.1 11.9.8 2-.4 3 .7 1.5 1.2-1.5.4-1.9 1.1-1.5 1.6.3.5.7 1-1.2.8-1.9-.2-2.2.4-3.1 1-.9.6-1.2 1-3.8.5-2.5-.4-3-.1-4.4.1-1.4.2-1.8.3-3.2-.2-1.4-.5-4.4-1-6.3-.3-1.9.7-3.2 1.1-4.9.7-1.7-.4-1.7-.3-.7-1.3s1.3-1 3.3-1.2c2-.2 3.5-.8 2.1-1.6s-1.8-.7-3.7.2c-1.9.9-2.8 1.5-5 .4-2-1.2-3-1-4.5-.6s-3.7-.5-5.7-1.4zm7 3.5c-2.7.4-3.4-1.3-6.2-1-.9.2-2.5 1.3-.3 1.1 2.1-.1 4.5 1 6.6.9 2.1-.1 1.2-1.1 0-1h-.1zm-3 2c1.3-.5 4.2.5 5.5.3 1.3-.2 2.4.5 1 1s-4.3-.8-5.7-.4c-1.4.4-2.8-.2-.9-.9h.1zm-28 7.6c2 0 9-.3 11.7-6 .2-.5.4-.7 1.2-.1.8.6 4.1 2.5 10.1 3 1.7.1 3.5 1 .1.8-3.4-.2-8.7-1.2-10.5-2.3-3 4.8-8.5 5.3-12.5 5.2-2.5 0-1.9-.7 0-.6h-.1z" fill="#00D860" fill-rule="nonzero"/><path d="M618 328.5c-1 1.3-4.2 3.5-5.6 3.7-1.5 0-5.9-.3-7-.7-1.1-.4-2.4-.3-.9.8s5.5 1.8 7 1.5c1.7-.4 3.5-.9 4.7-.1 1.2.8 3.5 2.2 4.8 1.9 1.4-.3 4.1-.3 5 .1.9.4 2.4 1.7.1 1s-4.1-.2-5.2-.6c1.2 1.6 3.8 4.2 6 4.2.6 0 1 1-.1 1.5 1 .5 3.6 1 5-.3-.4.5-.2.8.4 1 .6.2 1.3.7.2.9-1.1.2-3.4.4-4.1 0 2.2 1.5 8.1 3.9 14.1 2.7 1.2-.2 1.8-.7 0-.6-4 0-4.2 0-4.9-.4-.7-.4-.5-.8.6-1.1 1-.3 3.9-.8 5-.8s2.4-.4 0-.4-5.3 0-6.5-.4c-1.2-.4-2-1-.8-1.8s2.5-.6 3-1.3c-3.8 0-8.5-2.1-5.9-4 .6-.4.4-.5-.5-.6-.9-.1-4-1-5.2-1.6-1.2-.6-.4-1.3.6-1.5-2.3.4-6.8-.8-9.8-3v-.1zm34.1 0c-2 1.5-6 2.2-7.7 2.2-1.7 0-2 .6-.6.7 1.4.1 2.8.4 3.4.2.6-.2 1-.2 1.8.2.9.4 2.7.6 4.4.1 1.7-.5 4.3-.8 5.4-.7 1.1.1 2.3.1.1-.5-2.2-.6-5.8-.2-6.7 0-.9.2-3.3 0-2-.3 1.3-.3 2.4-1 3-1.6l-1-.3h-.1zm-1 4.5a13.5 13.5 0 0 1-7.1 2.7c2.4.9 4.4 3.4 6 3.3-.8.5-1.7 1.2-2.7 1.3 1.6.4 4.1 0 6.2-1.2 3.5 1 8 .3 9.6-1-2.3 0-5-.8-6.3-1.9 1.1 0 2.2-.6 2.7-1.3-2.6.5-7-.8-8.4-2v.1z" fill="#00D860" fill-rule="nonzero"/><path d="M647.3 340.3c1-.1 2-.8 2.7-1.3a22 22 0 0 1-12.8-2.9c-2.5-2.2-2.5-.5-.8 1s4.9 4 11 3.2h-.1zm6.2 5.3c-1 .6-6 1-7.7.6-1.7-.4-2.3-.2-2 .5.3.7.7 1.2-.7 1-1.4-.2-3.7.2-4.7.5s-2.2 1.2-.1.9c2.1-.3 4-.8 5.6-.4 1.6.4 7.1.5 8.2 0 1.1-.5.4-.4-.1-.4s-.8-.3 0-.7c.8-.4 1.3-1.3 1.5-2zm-48.5-6.7c-2.1.9-9.1 2.8-11 2.9-2.3 1-4.2 1.6-5.3 1.6.8.7 4 1.4 5.2 1-.7.8-2.3 1.6-2.9 2 1.9-.3 4 .2 5 .3a14 14 0 0 1-7.6 1.6c.6.8 1.4 1.6 2.5 1.6a13 13 0 0 1-6.3.2c.6 1.1 1.1 1.8 2 2-1.9.2-4.2.5-6.2-.6 1.5 2 4.9 2.6 9.9 2 5-.5 9.2-2.7 10.4-3.7-2.1.3-5 .4-6.3.1a37 37 0 0 0 9.9-4.3 5.6 5.6 0 0 1-3.2-1 31 31 0 0 0 9.1-1 6.7 6.7 0 0 1-4-2.6 39.2 39.2 0 0 0 19.5.6c1-.3 1-1.5-.8-1.3-3.2.2-9.5-.7-11.2-1.5a11.6 11.6 0 0 0 4.7 2c-3 .9-7.2 1.5-13.4-2v.1z" fill="#00D860" fill-rule="nonzero"/><path d="M591 346.4c.6-.4 2.2-1.2 2.9-2-1.3.4-4.4-.3-5.2-1 1.1 0 3-.5 5.3-1.6-4.2-.1-7-.1-8.6-1-1.6-.9-4.3-.5-5.4-.3-1.1.2-.7 2 3.8 1.5a15.4 15.4 0 0 1-8.8 1.3c.5 1.5.8 3 .4 3.9 2.4 1.4 8.8 3.1 12 2.9-2.8-1-4.3-2.2-2-2.5 2.3-.3 3.6-.7 5.6-1.2z" fill="#00D860"/><path d="M583.8 354c5.5-.5 13-.6 19-5.7 1.5-1.2 2.5-.8 1 .5a33 33 0 0 1-18.4 6.8c-3 0-4.4-1.4-1.6-1.7v.1z" fill="#000"/><path d="M625.5 344.7c-1.3.5-5.2 1.2-6.4 1-1.2-.2-2.9-.2-3.8.3-.9.5-1 1 .3 1l3.7.3a6.2 6.2 0 0 0-2 1.7c2-.4 5.4.4 6.4 1a3 3 0 0 1-2.3-.5c3.1 3.4 12.5 3.4 14 2.8-.7.5-1.4 1-2 1.2 2.6.5 5.6.4 8.6-1.3-1 .1-4-.1-4.8-.2a5.6 5.6 0 0 1 2.3-1.3c-1.2-.3-4.8-.2-5.7.3a4 4 0 0 1 1.7-1.9c-4.6 0-10.2 0-12.2-1.1 3.2.3 6.8-1.6 8.3-1.6-2.5 0-5.3-.6-6-1.7h-.1zm-11.6 2.5c-2.3.5-5.7 1.5-6.7 2s-1.9.8.1.8l.7-.2c-.8 0-1.7 0-.2-.5s3.5-1.5 6-2l.1-.1zm-4.6 5.5c.8 0 4.3 0 5.7-1.2 1.5 1 4.3 2.6 6 2.6 1.9 0 1.7.5.1.7a12 12 0 0 1-6.2-2c-2.1.8-3.8.2-5.7-.1h.1zm-27 15.7c3.6 1.4 8.3 2.4 11.8 1.3 2 1.7 6.1 1.8 8.3 1.4 2.2-.5 4.2-.7 6.7 0 2.4.9 7.4 1 8.8 2.1-1.3 0-4 0-4.7.2-.6.2-.3.6 1 1.2-4-.2-10.9 1.5-13 3.3a7.3 7.3 0 0 1 6.8-4.3c-2-.7-8.8-.8-11 .6a6.7 6.7 0 0 1-1.4-2.4c-3.6 2-10.6-.9-13.4-3.4h.1zm-9.3-6.6a16 16 0 0 0 8.5-3.2c.8.7 4 1.4 7.4.3-.7.5-.8 1.5-.5 2a26.2 26.2 0 0 0-8 2c-1.5.7-5.8 1.3-7.2.5-1.4-.7-1.4-1.4-.2-1.6z" fill="#00D860" fill-rule="nonzero"/><path d="M588.4 361a26.2 26.2 0 0 0-8 2l.5 2a51 51 0 0 1 17.5-1.8c-1.8.1-5.1 2-7 2.1 4.6-.3 9 .6 10.2 1 1.1.2 1.4 1 .5 2-.9 1-1.3.8.6 1 1.8 0 5.7-.3 7.4-2-.7-.7-2.5-.4-3-1a8 8 0 0 0 3.1-1.9 29 29 0 0 1-5.3-.3c-1-.3-1.8-.6-.5-1.3a7.6 7.6 0 0 0 2.2-1.7c-2.2.6-5.8 1.2-8.8-1.2 1.1.3 3.8.1 4.7-.3a6 6 0 0 0-2.6-.9c2.4-1.2 7-2.2 13 .1 2.8-.2 6 0 8.2.5 1-1 2.9-3.2 4-3.7-7 .5-19.3-.7-19-4.4-2.3 3-7.4 4.6-9.6 4.1-.2 1 .7 2.4 1.5 3-2.3.5-6.3.9-8.2.5 1.1 1 3 2 4.2 1.9-2.4 0-3.7.5-5.6.3z" fill="#00D860"/><path d="M602.6 369.2c2 0 5.8-.2 7.5-1.9-.7-.7-2.5-.4-3-1a8 8 0 0 0 3.1-1.9c5-.4 9.3-.2 11.4-.8 2.1-.6 7.5-.3 8.5-.6-4.7.8-5.6 1.2-5.8 2-.2.8 1.5 1.3 2.6 1.3-2 0-4.7 2.1-5 3-2.8-1.6-4 .3-4.4 1-1.1-.5-5-.4-7 1.3-2.5-.8-4.2-1.2-6.8-.8 1.6-.3 1.3-1.4-1-1.6h-.1zm22.4-13.7c1.6 0 5 .2 6.3 0a7.5 7.5 0 0 0-2.1 1.5c4-.5 9.4-.8 11-.5-2-.3-4 1-5 1.6-1 .6-.4 1 1 1.2 1.4.2 3.1 1.2.7.9-2.4-.3-7.3-.4-8.5-.2-1.2.2-1.8-.4 0-.7 1.8-.3 2.8-.8 3.6-1.2-1.4.3-4.1.3-5 0-.9-.3-1.3-.6-.3-.9 1-.3.3-.5-.7-.4-1 .1-3.5 1.1-5 2.5 1.6-1.6 3-3 4-3.7v-.1z" fill="#00D860" fill-rule="nonzero"/><path d="M607.3 358.2a10 10 0 0 0 7.8 3.5c.7 0 2.2 1 .3 1.1-4.9.2-7.3-1-9.5-4.1-.4-.7.4-1.6 1.4-.5zm29.2-40.8c2.6 1.2 7.7 2.3 11.8 2.1.7 0 2 .7.3.9a21 21 0 0 1-12.4-2.3c-1-.6-.7-1.2.3-.7z" fill="#000" fill-rule="nonzero"/><path d="M639.1 317.4c4-.1 7 0 8.1 1 2.3-.6 6.4-1 7.3-.8.9.2 2-.3-.2-.8s-7.1-.7-8.7-.4c-1.6.3-6.5.5-8 .3.6 0 1 .2 1.5.7zm15.4 1.5c1.8-1 7.2 0 8.8-.7-1.1 1.4 3.8 1.5 8 .4-1.6 1-5.1 1.2-6.6 1.9s-2.4.1-3.5-.4-4.2-1.6-6.7-1.2z" fill="#00D860" fill-rule="nonzero"/><path d="M671.3 318.6c-4.2 1-9.1 1-8-.4-1.6.7-7-.3-8.8.7 2-1.1 3.4-.2 4.8-2.6.9.2 2.9.3 3.6-.6 1.2.3 3.4.8 4 1.4.6.7 1.6-.2.8-1.1 2-.7.7.8 5.2-.3 1-.3 3.2-.7 4-.7a27.6 27.6 0 0 1-5.6 3.6z" fill="#00D860"/><path d="M588.747 299.066l-.897-99.605c0-4.486-2.243-3.589-2.243 0v98.708l3.14.897zm32.3-104.989l3.59 104.99-.449.896h-2.243l-2.243-105.886h1.346zm30.507 88.837l-1.795-85.247c0-2.692-2.243-2.244-2.243.448l1.795 84.799h2.243z" stroke="#000" stroke-width=".5" fill="#FF0" fill-rule="nonzero"/><path d="M603.103 211.575l-31.403-.448c-1.346 6.281 6.28 5.833 8.972 4.487 3.589 2.243 6.28 2.243 8.075 0 2.692 2.243 6.28 1.794 7.627 0 3.589 3.14 7.626 0 6.729-4.487v.448zm2.243 15.255h-31.403c-5.832 5.384 1.345 8.076 7.626 4.487.897 1.795 4.486 2.692 7.178 1.346 2.692 1.795 6.28.449 8.075-1.346 3.14 1.346 7.178 1.795 8.973-4.487h-.449zm-.897 20.19h-30.506c-.449 4.936 5.832 4.487 8.075 3.141 2.243 3.59 7.626 2.692 9.42.449 3.141 2.243 5.833 1.794 7.179 0 3.14 2.692 6.28-.898 5.832-3.59zm1.794 19.742l-34.543-.449c-1.795 5.833 3.588 6.73 5.832 5.384.897 3.141 5.383 2.244 6.729 0 1.794 1.346 4.037.449 4.935-.897.448 3.14 4.486 3.59 7.626.897 6.28 4.487 12.113-.897 8.973-4.935h.448zm30.058-8.076h-28.263c1.346 5.384 4.037 6.73 8.524 3.59 3.588 3.589 8.972 2.243 10.318.448 6.28 4.935 9.42-.897 9.42-4.487v.449zm-2.692-19.742l-27.814-.897c.448 7.179 7.178 6.73 10.767 4.038 2.243 3.14 6.729 2.243 8.972 0 3.14 3.59 8.972 1.346 8.075-3.14zm3.589-21.984h-29.609c0 4.935 6.73 7.627 11.664 3.14 1.346 5.833 6.73 4.038 8.973 1.795 3.589 4.487 11.215-.897 8.972-4.487v-.448zm-1.794-14.807l-26.918.45c0 4.486 6.281 6.28 8.524 2.691 1.346 2.243 5.832 1.795 7.178 0 1.795 3.14 4.486.897 5.383 0 3.14 2.243 6.281.897 5.833-3.14zm30.954 9.871l-32.3-.449c0 3.141 3.14 4.487 5.383 3.141 0 3.59 4.486 4.487 7.627 1.795 1.794 3.14 7.626 3.59 9.87 0 4.486 4.038 9.869.897 8.972-4.487h.448zm-.448 26.472h-31.404c0 4.486 4.935 5.832 8.075 3.589.45 3.59 4.487 4.038 6.73 1.795 3.14 3.14 7.626 3.59 10.318 0 3.589 1.346 6.73-1.795 6.28-5.384zm-1.795 23.78h-25.122c0 4.486 5.383 4.486 7.626 2.243 2.692 3.14 6.28 3.14 8.524.897 3.14 2.692 8.524 1.795 8.972-3.14z" stroke="#000" stroke-width=".5" fill="#FFF" fill-rule="nonzero"/><path d="M624.188 299.963c-13.459 0-27.366 0-36.787-.897-9.42-.897-12.113-2.692-18.842-6.73l-25.123-15.255c-2.243-.897-4.486.449-1.345 2.244l25.122 16.6c6.73 4.487 11.216 8.525 15.253 13.46 5.384 5.833 8.973 5.833 11.665 4.936 2.691-.897 6.28-2.243 10.318-1.346 3.589.897 8.972 1.346 11.664.897 2.243 2.244 8.075 1.795 11.215.898 3.14-.898 5.384-.898 7.627-.45h7.626c2.244 0 8.076-1.345 12.113-.896 4.486.897 8.524 0 11.216 0a22.429 22.429 0 0 1 8.972-.45c2.692-1.794 3.59-4.037 4.486-6.28 2.692-.45 3.59-.898 4.038-2.244l2.692-7.179h.897v-2.692l-1.795-2.692.898-4.486 2.243-.898-.898-4.486-39.478.897a8.974 8.974 0 0 0-2.692 4.935l-11.664 1.795c-1.346.449-2.692.449-4.038 2.243l-5.383 8.076z" stroke="#000" stroke-width=".5" fill="#000"/><path d="M671.293 282.465l5.832-21.984c.897-2.244-1.346-2.692-2.243 0l-5.832 21.984h2.243z" stroke="#000" stroke-width=".5" fill="#000"/><path d="M694.173 257.788c-4.935 2.244-7.627 3.59-9.87 2.693-2.243-.898-4.935-1.346-6.73-.45.016.15.016.3 0 .45a2213.48 2213.48 0 0 1-4.934 17.049c3.589 1.346 9.87 1.346 11.216 0 1.794-1.795 5.832-1.346 8.075-1.346 1.346-1.795 1.794-4.038 1.346-4.935-.45-.898 0-3.141 0-4.487s1.794-6.281.897-8.974z" stroke="#000" stroke-width=".5" fill="#FFF"/><path d="M581.12 215.614a238.7 238.7 0 0 1-35.89 62.813m8.973 5.384a244.516 244.516 0 0 0 51.143-56.532m-31.403 19.293c-1.346 12.114-4.935 33.65-6.73 44.867m11.664-17.947c-4.486 4.487-10.318 11.665-15.253 15.703m56.975-39.931c-3.589 3.59-7.626 8.076-11.664 8.973m13.907-8.076a31.403 31.403 0 0 0 12.113 8.525m-14.356-27.818a38.132 38.132 0 0 1-13.458 7.628m15.253-7.179c2.691 2.692 5.832 5.833 9.87 7.627m-24.226-21.984a31.402 31.402 0 0 0 12.112-6.73m1.346 0c3.14 3.14 8.973 6.28 12.113 7.178m-24.674-14.806a17.944 17.944 0 0 0 10.767-6.281m1.346-.898c3.14 2.692 8.972 6.282 12.112 6.73m14.356 3.59c-1.794 2.243-6.729 5.832-9.87 5.832m12.113-5.832c1.346 2.243 4.935 5.832 7.178 5.832m-21.533 26.92a32.3 32.3 0 0 0 12.56-8.524m2.244.449a25.124 25.124 0 0 0 8.524 8.076m-18.394 23.33c1.795 0 6.73-2.691 8.076-5.832m2.691-1.346a31.404 31.404 0 0 0 8.973 7.627m-83.892 4.038c5.832-1.794 17.047-8.973 22.88-15.703m-10.768 8.525c4.487 3.14 10.319 6.73 14.356 7.627m-27.814-20.19a35.889 35.889 0 0 0 10.767-6.73m2.243-.449c1.346 1.795 10.767 7.627 14.804 7.627m-17.047-26.471a43.963 43.963 0 0 1-11.216 6.281m13.459-6.281c3.14 2.243 9.87 6.281 13.907 6.281m-16.15-24.228c-2.692 2.692-7.178 7.179-10.767 8.525m13.01-8.076c1.794 3.14 7.178 7.627 10.767 8.076m35.89 11.665c8.523 14.806 23.776 33.202 39.03 43.073M610.28 206.19c12.561 17.947 36.787 56.982 60.115 71.339m4.486-15.255a82.55 82.55 0 0 1-21.982 20.639m20.188-15.703c-7.627-12.563-11.664-28.267-17.945-49.354m-62.807 55.635l8.972 26.92m-10.766-27.369l8.523 26.92m-10.767-28.266l8.076 27.818m-8.973-27.37l6.28 27.37m0-.898h7.627m-.897-2.692h-7.178m6.281-2.243h-7.178m6.28-2.243h-7.177m5.832-2.692h-5.832m-.449-2.244h5.832m-6.28-1.794h5.832m-6.281-2.244h5.383m-5.832-1.794h4.935m-5.383-2.244h4.486m-4.935-1.794h4.486m-4.935-1.346h4.487m-4.487-1.795h4.038m-11.664 0l-5.384 22.433m6.73-22.433l-4.486 23.33m5.832-24.227l-3.59 24.676m5.384-25.125l-2.692 26.023m3.14-1.795h-8.972m8.973-2.243h-10.319m10.319-2.692h-9.421m8.972-2.244h-8.524m8.973-2.243h-8.524m8.524-2.692h-7.627m7.627-2.243h-7.627m7.178-2.244h-6.73m6.73-2.243h-5.832m5.832-2.243h-5.383m5.383-1.346h-4.935m4.487 24.676v-26.471m29.16-8.973l-17.945 36.342m19.29-36.791l-15.252 37.24m16.15-37.689L604 299.963m13.459-36.79l-9.87 36.79m.449-1.346h-11.216m12.113-3.589h-10.767m11.216-2.692h-8.973m10.767-2.692h-8.972m9.42-2.692h-8.523m9.42-2.692h-8.074m8.972-3.14h-7.178m7.627-2.244h-6.73m7.627-2.692h-6.28m6.729-1.795h-5.832m6.28-1.794h-6.28m5.832-1.795h-4.487m4.487-1.346h-4.038m4.486-1.795h-3.589m4.487-1.794h-3.59m3.59-1.346h-3.14m15.252-.45l7.627 25.126m-6.28-24.676l9.42 24.228m-8.075-24.228l11.215 23.78m2.692-2.244l-12.561-21.985m12.561 22.433h-8.972m8.075-3.589h-8.972m7.626-2.692h-8.524m6.73-3.14h-7.627m5.832-2.693h-6.73m4.936-3.14h-5.832m4.486-3.141h-5.384m3.59-2.692h-4.487m14.356.449l-8.075 23.33m10.318-24.228l-7.178 23.78m3.14-.449l5.384-22.433m1.346.897l-4.486 21.087m-7.627-1.346h7.627m-6.73-2.692h7.627m-6.73-3.14h7.178m-5.832-2.692h6.73m-5.832-3.141h6.28m-5.383-2.692h5.832m-4.486-3.14h5.383m-4.486-2.693h4.486m4.038.449l3.589 16.152m-2.243-17.05l4.934 16.601m-3.14-16.6l5.384 16.6m-3.14-15.703l5.831 15.703m-.448-1.346h-7.627m6.73-2.243h-7.179m6.281-2.243h-6.73m5.833-2.692h-6.73m5.384-2.244h-6.28m5.383-2.243H652.9m4.935-2.243h-5.384" stroke="#000" stroke-width=".5"/><path d="M584.1 308.3c3.6-2.3 9.8-1.9 13 .5 3.7-2.1 10.5-1.5 13.6 1.3 4.8-3.3 8.9-3.8 13.5-.6a12 12 0 0 1 13.6.2c4.2-2 8.8-3.6 12.9.7a10.7 10.7 0 0 0-13 .8c-4-4-11.1-2.5-13.5.3a8.8 8.8 0 0 0-13.3.2c-4.2-3.5-10.4-3.6-13.8-1a15 15 0 0 0-13-2.4z" fill="#00B800"/><path d="M647.8 303.3c-18.5 3.2-59 1-67.8-1.3-3-.7-2.2-1.8.4-1.2 10.2 2.3 32 2.3 44 1.7 2.3-3 6-8.3 7.1-9.8 1.1-1.5 1.6-1.6 4-2l10-1.7v1.4c-.2.3-.5.7-.8.8 0 2.4.5 8.2 1 10.3l1.3-.3c.8-.2 1.6 1.9.8 2.1z" fill="#CF6200"/><path d="M678.2 304.2h2.5c.7 0 1.8-.6 2.2-1.7l2.5-7.3-1.9-2.8 1-6.1 2.4-1c.1-.4-.1-1.9-.6-2.3l-36.2 1.2c-1.1 0-1.6 0-2 1.4a27 27 0 0 0 9.2 26.6c.6.5 1.4 0 .4-.8a29.8 29.8 0 0 1-5-6.5l6-.1c.4 2 1.9 6 2.2 6.8.3.8 1 .8.6-.3-.8-2.4-1.2-5.2-1.5-6.6h6l.5 6c0 .8.7.8.7-.1v-6l5.5-.2-.5 6c-.1 1 .4 1.4.6 0l.8-6 3.8-.2c-.1 1.3-1.3 5-1.6 6-.3 1 .2 1 .6.1a35 35 0 0 0 1.8-6v-.1z" fill="#CF6200"/><path d="M651.7 303.3c-.6-1.3-2.6-5.9-2.8-9.2l8-.1c.3 2.5 1 7.9 1.5 9.1l-6.7.2zm6.6-9.4c.2 2 1.2 8.5 1.4 9.2l6.4-.1-.4-9.3-7.4.2zm-9-8.1a38 38 0 0 0-.3 6.8l7.7-.2-.6-6.8-6.8.2zm8.3-.2c0 1.6.4 5.6.5 6.8l7.6-.2-.4-6.9-7.7.3zm9.2-.3l.3 6.9c1.8 0 5.4 0 6.5-.2.1-1.5.3-5.9.2-7l-7 .3zm8.3-.3l-.2 7 7.1-.3c.3-1.5 1-5.4 1-7l-7.9.3zm7.2 8.3l-7.5.2-.7 9.2 7.2-.2a61.6 61.6 0 0 0 2.6-7c-.5-1-1-1.4-1.6-2.2zm-15.2.4l.2 9.2 5.5-.2.7-9.2-6.4.2zm-31-1.8l-3 .5a224.8 224.8 0 0 1-7.2 10.1l10.6-.3-.3-10.3h-.1zm1.4-.3l.4 10.5 6.4-.5-1-11-5.8 1z" fill="#000" fill-rule="nonzero"/><path d="M606.243 266.762H571.7v-.897l34.543.448v.449zm26.917-27.818c.45 0 .45 0 0 0l-26.917-.448c-.448 0-.448 0 0 0h26.917v.448zm-28.711 7.628c.448 0 .448.448 0 .448h-30.506c-.449 0 0-.448 0-.448h30.506zm.897-19.742c.449 0 .449.449 0 .449h-31.852c-.449 0-.449-.449 0-.449h31.852zm-2.243-15.703c.449 0 .449.448 0 .448h-30.955c-.448 0 0-.897 0-.897l31.404.449h-.45z" stroke="#000" stroke-width=".5" fill="#000" fill-rule="nonzero"/><path d="M635.404 202.153l-26.918.45 26.918-.45z" stroke="#000" stroke-width=".5" fill="#FFF"/><path d="M636.75 217.408c.448 0 .448 0 0 0h-29.16c-.45 0-.45 0 0 0h29.16zm29.16 20.639v.449h-31.404c-.897 0-.897 0 0 0h31.404v-.449zm0-26.472c.897 0 .897.45 0 .45h-31.852c-.449 0-.449-.45 0-.45h32.3-.448zm-29.61 46.662c.45 0 .45.449 0 .449h-28.71v-.449h28.71zm27.815 4.038c.449 0 .449 0 0 0h-25.122 25.122z" stroke="#000" stroke-width=".5" fill="#000" fill-rule="nonzero"/><path d="M686.995 266.762a13.462 13.462 0 0 0 0-6.281 4.944 4.944 0 0 1-2.692 0 13.46 13.46 0 0 0-1.346-.898c0 1.795-.897 6.73-1.794 8.525-1.346 0-4.486 0-5.832-.897l-1.346 4.486a15.7 15.7 0 0 0 6.73 0c0 2.692-.45 4.936-1.795 6.73 2.243 0 4.486 0 4.935-1.346 1.345-1.794 1.345-4.486 1.794-5.832l2.243-.45 2.243-.896 3.14-.45v-2.691l.898-1.795-7.178 2.244v-.45z" stroke="#000" stroke-width=".5" fill="#EF072D"/><path d="M575.737 115.111c-3.589 0-11.664 0-13.458.898-1.346.897-1.795 1.346.897 1.794 2.691.45 7.626 2.244 10.318 3.59 2.692 1.794 4.486 4.487 4.486 8.973a26.921 26.921 0 0 0 13.459 28.266c.448.45.897.898.448 2.692l-1.345 4.936c0 .897-.45 1.795.897 1.346a89.736 89.736 0 0 1-4.486 7.179c-7.178-.898-13.459 0-13.459 8.076 0 .897 0 1.794.897 0 1.346-1.795 2.692-3.59 5.832-4.487-1.794 3.14-2.691 5.833-2.243 7.627 0 1.346.897 2.244 1.795 0 .448-1.794 2.243-3.59 3.589-4.935.897-.449.897-.449.448.897-.448 1.346.449 4.038 1.346 4.936.897.897 1.346.448.897-.898 0-1.794 0-4.935 2.243-5.832 2.692-1.795 5.384-.898 6.281.897 1.346 2.243 2.243 0 .897-1.795-1.345-1.794-2.691-4.038-4.486-4.038l4.486-7.627c0-.898.898-1.346 1.795-.898 0 .45.897.45 1.346-.897l3.14-6.281 2.692-.898 4.486 6.73v2.693c0 1.794-1.794 5.832-2.243 7.178-5.384 0-8.075 0-9.87 3.14-.897 1.347.449 1.796 1.795 1.347a8.972 8.972 0 0 1 4.486-1.346c.897 0 1.346.897 0 1.346-3.14 1.346-5.384 3.59-5.384 6.73 0 .897.898 1.346 1.346 0 1.346-2.243 3.59-4.038 5.832-4.487 0 2.244.449 5.833 2.244 6.73 1.345.898 1.345 0 .897-1.346-.897-2.243 0-4.486 1.346-5.832 2.243-2.692 7.626.897 8.972 1.794.897.898 1.794 1.346.897-1.346-.448-3.14-4.935-4.486-8.972-5.384l5.383-18.844c2.243 1.346 4.486-2.243 8.075-.897 6.281 2.692 15.702 8.524 17.048 9.87 1.794 1.347 2.243.898 3.14 0 .898-.448 2.243 0 3.59 0 .897.45 1.794.898.448-1.794a32.303 32.303 0 0 0-10.767-11.666c3.589 0 8.075 0 8.075-.897s-5.383-2.692-7.626-2.692a14.804 14.804 0 0 0 7.178-3.59c.897-.897 0-1.345-3.59-1.345-9.42 0-14.355 0-19.29-2.692-8.075-4.487-13.01-9.871-17.048-11.666-1.794-1.346-3.14-4.038-4.486-6.281-2.243-6.73-2.243-10.32-8.075-12.563-5.832-2.243-13.459.449-16.599 3.59z" stroke="#000" stroke-width=".5" fill="#000"/><path d="M576.186 116.906h-7.627s-.897 0 0 0l6.73 1.795c1.345 0 .897 1.346 0 .897-.898-.449-1.795 0-.898.897 4.486 3.141 5.384 4.487 4.486 16.601l2.244 1.795c.897 0 .448.897 0 .449-.45-.45-2.244 0-.898.897s2.243.897.898.897c-1.346 0-2.692.898 0 .449 2.243 0 3.589.897 0 1.346-2.692 0-1.795.897 0 .897 3.14 0 2.243.898 1.345.898-.897 0-1.345.897.898.897h3.14c.449 0 .897 0 0 .449-.897 0-.897.897.449.897 1.345 0 2.243 0 .897.449-.449 0-1.346.448 0 .897 3.14 0 3.589.897 2.692 1.346-.898.449-1.346.449 0 .449 1.345 0 2.691.448 1.345.897-.897 0-1.345.897 0 .897 1.346 0 2.244.898 1.346 1.346-.897.45-1.346.898 0 .898s1.795.448.898.897c-.898.897-1.346.897-2.244 0 0-.897-.897-.897-.897 0l-.897-1.346c-.449-1.346-1.346-1.346-1.346 0s-.897.449-1.794 0a14.803 14.803 0 0 0 17.944 3.59c.449 0 .898 0 1.346 1.345l2.692 4.936c.449.897 1.346 0 1.346-.898l2.692-7.627c0-1.346 1.794-2.243 1.345 1.346 1.346-.897 6.73-1.346 11.216 0a54.73 54.73 0 0 1 12.113 6.73c.643.476 1.466.64 2.243.449 1.346 0 1.794 0-.449-2.244-2.243-2.243-1.346-3.14 0-2.243 1.346.897 2.243.449.897-.897l-4.486-4.038c-.448 0-.448-.898-2.692-.898h-6.729c-.897 0-1.794 0 .897.898 2.692.897 7.627 4.486 8.973 5.384 1.346.897 1.794 2.692-.449.897-2.243-1.795-10.767-6.73-16.15-8.973-12.113 1.346-21.983 2.692-29.16-4.936-3.59-4.038-3.59-12.562 2.243-16.152-.898-.897-.898-1.794-.449-1.794v-2.692c-.897-.45-1.794-1.346-1.794-2.244-1.346 0-2.244-2.243-4.487-1.346-2.243.897-2.691 0-3.589-.449-.448-.897-.897-.897-2.243-.897-1.346 0-2.243 0-2.243-.897 0-.898.897-.898 2.692 0 3.14 1.346 5.832 2.243 8.075-.898 1.795-2.692-.897-4.935-4.486-5.832-4.038-.898-6.73 2.243-8.524 3.59h.449z" stroke="#000" stroke-width=".5" fill="#FFF"/><path d="M595.925 115.56a12.561 12.561 0 0 0-4.486-2.692c-1.346 0-1.346.897-.897 1.346v2.692c.897.449 1.345 1.346 0 1.346-.898.897 0 4.038 1.345 3.14h.898s0 1.347.897 1.347 0 .897 0 1.346h.897c.897 0 .449 1.795-.448 2.243 1.345 0 1.794 0 1.794.898.449.897 1.794 1.346 1.794 2.692s0 1.346-1.794.897c-1.794-.449-1.794 0-2.243.897-.449.898-.897 1.346 0 1.346s1.794.449.449.898c-1.346.448-2.692 0-3.14 1.346 0 1.346 0 1.794.896 1.346l3.14-1.795 2.244.449c.897.448 0 2.243-.897 1.346-.898-.898-1.795 0-2.243.448l-2.244.898c-.897 0-1.794 0-1.345 2.243 0 6.281 4.934 10.768 13.907 10.768h14.804c-2.691-1.795-4.486-2.692-5.832-2.692h-1.346c.449-.449 0-1.346-.448-1.346-.449 0-1.346-.897-2.243 0l-4.487 2.243c-.897 0-2.243 0-.897-.897l4.038-1.795c.897 0 .448-.897.448-.897s0-1.346 1.346-.897c2.692 1.794 6.73 4.038 8.075 4.038 1.346 0 1.795-.898.898-1.346-.898-.449-1.346-1.346-1.346-1.795 0-.449.448-.897 2.243 0 1.794 1.346 4.486 2.243 5.832 2.692 1.346.449 2.243.449 0-.897l-10.318-7.628c-1.346-1.346-1.346 0-.898.898.449.897-1.345 1.346-2.243.448-.897-.897-1.346-1.346 0-1.794 1.346-.45.898-.898-.448-2.244-1.795-1.346-2.243-1.346-1.795 0 .449 1.346.449 2.244-.897 1.795-1.346-.449-2.692-1.346-1.346-1.795.897-.897 2.243-1.346 0-2.692s-.897 0-1.346.898c-.448.897-1.794.897-2.243 0-.448-.898-1.346-1.346-.897-1.795.449-.449.449-.897 1.346 0s1.794 0 .448-1.346c-1.345-1.346-1.794-.897-1.345 0 .448.897-.898 1.795-2.692 0-.897-.449-.897-1.346 0-1.795.897 0 .897-.448 0-1.346-3.14-5.384-1.795-9.422-5.384-13.46h.449z" stroke="#000" stroke-width=".5" fill="#FFF"/><path d="M596.1 116.4c-.3.5-.4.4-1 .8-.6.5-.8 1.8.4 1.7.8-.2 1.3-.6 1.6-1a10 10 0 0 0-1-1.5zm-3.6-2.9c-.9.9-1 1.3-.6 1.3.6 0 .3 0 0 .7-.5.6.7.9 1.2.4s.5-.6.8 0c.1.5 1 0 1.4-.4-.8-.8-1.9-1.5-2.8-2zm-1.6 5c-1.2.6-.8 3.7 1 2.8.6-.3 1-.1 1 .3-.1.3-.1.5 0 .8a5.4 5.4 0 0 0 2-1.4c1-1.3 0-1.2-1.6-1.2s-2-.3-.5-1.2c1.4-.9.4-1.4-1.5-1.2.3.4.2.8-.4 1.1zm6.7 6.9c-.9-1-.3-1.4.6-1.9a1.2 1.2 0 0 0 .5-.4l-.8-3c-.4.2-1 1.3-1.2 1.8-.2.8-.4 1.2-1.2 1-.7-.2-1.4.6-1.5 1.4h.5c.3.1.4.6.3 1 2.1 0 2.5 1.4 2.9 2.4.4 1.1.8 1 1.1.3.3-.6-.4-1.7-1.2-2.6z" fill="#CF6200" fill-rule="nonzero"/><path d="M598.2 137.6c-.4.9-.4.8-1.7.8-1.2.1-2.8.3-3.5 1-.3.4-2.5.6-2.5 1.5 0 1 0 1.7 1 1.8.9 0 1 .2.7.9-.4.7-.6 1.8 1 2 1.6 0 2.8-.4 3.2.5.4 1 0 2.4.3 3 .3.6 1.4.9 3.1 1.4 1.2.3 5.5.6 6.8.4 1.3-.2.8-1-.5-1-1.3-.2-2.3-.4-2.6-1.3-.3-1-.6-1.5.2-2.3.7-.9 1.4-1.5 1-2.9-.4-1.3-1.1-2.9-2.7-3.3-1.5-.5-1-2.6-2.6-2.8-.6 0-1 0-1.2.3z" fill="#FF0"/><path d="M590.6 150.2c1.4.2 2.5.6 1.4.9-1 .3-1.7.9-.3 1 1.4.1 2.6.7 1.5 1-1.1.3-1.2 1 .1 1s1.9.6 1 1.2c-1 .5-1.6.8-2.2-.1-.6-1-1-1.2-1.1-.5-.2.7-.6.2-1-.8s-1.4-1.4-1.1-.6c.3.8-.8 1-1.8.6 1 1 2 2 3.3 2.7 1.4-.5 3 0 3.5 0 .6 0 2.4.5 3.4 1s1.7-.4 1.3-1.5c-.5-1-.5-.7-1 0-.6.5-.7-.3-.6-1.5 0-1-.7-.8-.9-.2-.2.6-.8-.4-.5-1 .3-.6 0-.9-.5-.7-.5.2-.6 0-.7-1.2-.1-1.2-.6-1-.7-.5-.1.5-.7-.2-1.4-1.1-.6-.8-1.3-.3-2.5.1l.8.2z" fill="#CF6200"/><path d="M604.8 157.5c-6.4 2.5-11 1.4-14.4-.9 1.4-.5 3 0 3.6 0 .5 0 2.4.5 3.3 1 .9.5 1.7-.4 1.3-1.5.8 1.1 1.5 1.9 2.5 1.8 1 0 2.8-.2 3.7-.4zM591.2 128c-.4-1.3-.8-1.6-1.5-1.5-.7 0-1-.1-1.8-.4-.7-.3-1.7 0-1.9 1.5-.2 1.5-1 2-2.2 3-1.1.8-1.8 1.5-1.8 2.9s-.3 1.7-1.1 2.8l-1.3 1.5 1.4.8c.9.4.6 1-.2.8-.8-.2-1.7.2-.3.5s2 1 .7 1c-1.4-.2-3 1-.3.7 2.6-.3 3.6 1 .6 1-3.1 0-2 1-.3 1 2.9 0 2 .9 1.2.9-.7 0-1 1 .9.8l.7-1.1c.3-1 .6-3.7 1.7-4.4 1-.8 1.6-2 1.6-2.7 0-.7 1.7-4.2 2.7-5 1-.8 1.6-2.7 1.2-4v-.1z" fill="#FF0" fill-rule="nonzero"/><path d="M588.9 128.2c-1-.8-2.1-.3-2.1 1s-.8 1.8-1.7 2.3a4 4 0 0 0-2 2.7c0 1.1.2 1.8-.5 2.7-.8.8-.9 1.5-.4 2 .6.5.6.5.8 1.2.3.7 1.6 0 1.6-.8s.3-.8 1.1-1.3c.9-.4 2.3-2.7 2-3.3-.3-.6-1.1-1.2 0-2 1-.9 2-1 2-1.8 0-.9.3-1.2.6-1.5.3-.3-.7-.8-1.4-1.2z" fill="#CF6200"/><path d="M588.9 127c-.7-.2-1.1 1.3-.1 1.5 1 .2 1.1-1 .1-1.4v-.1zm-.1 2c-.8.1-1.7 1.1-.4 1 1.3-.1 1.8-1.1.3-1h.1zm-1.6 1.9c-.8.4-.6 1.5.6.7s1.4-1.7-.6-.7zm-1.2 1.6c-.8.4-.7 1.5.5.7 1.2-.7 1.5-1.7-.5-.7z" fill="#000" fill-rule="nonzero"/><path d="M584.4 133.3c-.8.4-.3 1.4.8.7s1.1-1.7-.8-.7zm1 1c-.9.4-.4 1.4.8.7 1.2-.7 1.1-1.7-.9-.7h.1z" fill="#000" fill-rule="nonzero"/><path d="M583.9 134.7c-.7.4-.2 1.4 1 .7s1-1.7-1-.7zm1 1.1c-.9.4-.4 1.4.8.7 1.2-.8 1.1-1.7-.9-.7h.1z" fill="#000" fill-rule="nonzero"/><path d="M583.5 136.5c-.8.4-.3 1.4.9.7s1-1.7-.9-.7z" fill="#000"/><path d="M583.5 137.5c-.7.4-.2 1.5 1 .7s1-1.7-1-.7z" fill="#000"/><path d="M583 147.3c-.8.1-1.4 1.3-.4 1.5 1 .2 1.3.3 1.3 1s.3 2 1.4 2c1 .1 2-1.1 1-1.5-.9-.4-1.7-.7-1.8-1.6 0-.8-1-1.4-1.5-1.4z" fill="#CF6200"/><path d="M611.5 140.6l.6.6c.8.6 2.2 0 2-.5-.2-.5-1-2.3 1-.9l10.6 7.4c2.2 1.6.8 1.8-.2 1.3s-4-1.7-5.7-2.7c-1.7-1-2-.6-2.2-.3-.2.3 0 1 .6 1.6-1 .1-2.7 0-3.2-1.2-.6-1.3-2-3-3-4.2-.4-.5-.5-.8-.4-1l-.1-.1z" fill="#FF0"/><path d="M669.4 331.6c-1.4 1-3.4 2.8-2.1 5.2l.5-.2a142.4 142.4 0 0 0 14.7-21.7l.1-.7a20.5 20.5 0 0 1-5.2 3.1c.7 1.9-2.6 4.3-4.3 5 .7 1.2.5 3-1 3.3.3 1-.9 1-2.3 1.6-1.4.6-2 1-2.5 1.8.7-.5 1.8-.8 2.3-.6.5.2.7 1-.3 1.3-1 .3-1.7.8-2.1 1.2 1.5-.5 3.7-.3 2.2.7z" fill="#00D860"/><path d="M600.411 138.442c-1.794-1.346-2.243-.448-1.794 0 .448.449 0 1.795-1.346 2.244h-4.486c-.898 0-2.243 1.794 0 1.346l7.178-1.346c.897 0 1.794-.898 0-2.244h.448zm3.14 2.692c-1.345-1.346-1.794-.897-1.345 0 .448.898-.449 1.346-1.346 1.346l-6.28 1.795c-1.795 0-1.795 1.346.448 1.346s6.73-2.243 7.178-2.243c.448 0 .897-1.346 1.346-.898.448.449 1.345 0 0-1.346zm1.346 3.59l-4.486 2.243c-1.346 0-2.243 1.346 0 1.346s4.486-2.243 5.384-2.692l1.794-.897s1.795-.449 0-1.795c-1.794-1.346-3.589 0-2.692.449.898.448 0 1.346 0 1.346z" stroke="#000" stroke-width=".5" fill="#000" fill-rule="nonzero"/><path d="M586.5 115.5c-2.8-1.9-6 2-2.9 4.2 2.8 1.9 5.7-2.4 3-4.2h-.1z" fill="#000"/><path d="M583 117.2h.8c-.1 1 .8 2.3 2 2-1 .8-3-.2-2.8-2zm11 42.5c.9.3 3.9.6 5 .6l-1.4 2.5c-.3.8-.4.9-.5-.3 0-1.2-.7-2-1.3-.7l-1.2 2.2c-.3.5-.8.7-.6-.6.2-1.3.1-2.6 0-3.7z" fill="#FFF" fill-rule="nonzero"/><path d="M706.734 194.077c0 73.134-11.664 152.1-106.771 189.788-94.66-37.689-106.323-116.654-106.772-189.788h213.543zm0 0c0-27.817-1.346-54.737-.897-78.068a285.294 285.294 0 0 0-105.874-19.293c-23.777 0-70.434 3.59-105.875 19.293.897 23.33-.897 50.25-.897 78.068h213.543z" stroke="#000" stroke-width="1.346"/></g></svg>