<svg width="800" height="480" xmlns="http://www.w3.org/2000/svg"><g fill="none" fill-rule="evenodd"><path fill="#FFF" d="M0 0h800v480H0z"/><path fill="#DE2918" d="M0 320h800v160H0z"/><path fill="#08399C" d="M0 160h800v160H0z"/><path d="M273.225 87.188c-3.75 57.75-6 89.437-14.719 104.062-9.562 15.75-18.75 27.281-55.968 41.25-37.126-13.969-46.313-25.5-55.876-41.25-8.812-14.625-10.968-46.313-14.718-104.063l5.437-1.874c11.063-3.376 19.313-6.094 25.406-7.313 8.72-1.875 16.22-3.938 39.657-4.406 23.437.375 30.937 2.625 39.656 4.5 6 1.312 14.625 3.75 25.594 7.219l5.531 1.874z" fill="#DE2918"/><path d="M267.788 85.313c-3.563 57.656-6.563 84.093-11.25 96.75-9 21.75-23.25 33.656-54 45-30.75-11.344-45-23.25-54.094-45-4.688-12.75-7.5-39.094-11.063-96.844 10.875-3.375 19.313-6 25.406-7.219 8.72-1.875 16.22-4.031 39.657-4.406 23.437.375 30.937 2.531 39.656 4.406a266.25 266.25 0 0 1 25.688 7.219v.094z" fill="#08399C"/><path fill="#FC0" d="M202.537 102.938l1.407 3.468 6.562.938-4.219 2.531 4.032 2.719-5.906.937-1.876 3.188-1.875-3.281-5.625-.75 3.75-2.813-3.937-2.531 6.281-.938 1.406-3.469z"/><path d="M254.381 168.375l-3.656-2.813-2.531-4.312-5.063-4.406-2.719-4.406-5.062-4.594-2.438-4.406-2.812-2.157-1.688-1.781-4.687 4.031-2.438 4.406-3.093 2.813-3.469-2.719-2.531-4.5-9.656-17.156-9.657 17.156-2.531 4.5-3.469 2.719-3.094-2.813-2.53-4.406-4.595-4.031-1.78 1.688-2.72 2.25-2.437 4.406-5.063 4.594-2.718 4.406-5.063 4.406-2.531 4.313-3.656 2.812a61.687 61.687 0 0 0 17.437 34.031 100.312 100.312 0 0 0 34.313 19.219 97.594 97.594 0 0 0 34.5-19.219c5.437-5.625 15.562-18.094 17.437-34.031z" fill="#FFF"/><path d="M217.912 78.656l1.5 3.469 6.563.938-4.313 2.53 4.125 2.72-5.906.937-1.875 3.188-1.875-3.282-5.625-.75 3.75-2.812-3.937-2.531 6.187-.938 1.5-3.469h-.094zm-30.937 0l1.5 3.469 6.563.844-4.22 2.531 4.032 2.719-5.906.937-1.875 3.188-1.875-3.188-5.625-.844 3.75-2.812-3.938-2.531 6.281-.938 1.407-3.469-.094.094z" fill="#FC0" fill-rule="nonzero"/><path d="M246.319 190.313h-6.938l-6.562-.47-7.781-3.75h-8.813l-7.594 3.75-6.094.563-6-.562-7.593-3.75h-8.906l-7.876 3.75-6.468.562-7.125-.094-3.375-5.812.094-.188 10.5 1.782 6.468-.469 7.781-3.844h8.813l7.688 3.75 6 .563 6.093-.563 7.594-3.75h8.813l7.874 3.75 6.47.563 10.124-1.875.188.375-3.469 5.719h.094zm-81 8.906l6.937-.469 7.781-3.75h8.813l7.688 3.75 6 .469 6-.469 7.687-3.75h8.813l7.78 3.75 7.032.469 4.5-5.625h-.094l-4.875 1.312-6.469-.469-7.78-3.75h-8.813l-7.688 3.75-6 .563-6.094-.563-7.593-3.75h-8.906l-7.876 3.75-6.468.563-4.688-1.219v.188l4.219 5.25h.094z" fill="#08399C" fill-rule="nonzero"/></g></svg>