<svg width="800" height="480" xmlns="http://www.w3.org/2000/svg"><g fill="none" fill-rule="evenodd"><path fill="#5EB6E4" d="M0 0h800v480H0z"/><path fill="#FFF" d="M0 0h800v240H0z"/><g transform="translate(332 69.6)"><g transform="translate(1 40)" fill="#FFF" stroke="#000" stroke-width=".93"><ellipse cx="126.44" cy="27.384" rx="4.04" ry="3.232"/><ellipse cx="128.69" cy="16.016" rx="5.08" ry="4.064"/><ellipse cx="43.39" cy="3.776" rx="3.91" ry="3.128"/><ellipse cx="5.47" cy="16.016" rx="5.08" ry="4.064"/><ellipse cx="28.67" cy="5.096" rx="4.22" ry="3.376"/><ellipse cx="7.72" cy="27.384" rx="4.04" ry="3.232"/><ellipse cx="13.87" cy="8.096" rx="4.88" ry="3.904"/><ellipse cx="90.77" cy="3.776" rx="3.91" ry="3.128"/><ellipse cx="105.49" cy="5.096" rx="4.22" ry="3.376"/><ellipse cx="120.29" cy="8.096" rx="4.89" ry="3.912"/></g><g transform="translate(0 40)" stroke="#000" stroke-width="1.09"><ellipse cx="127.44" cy="27.384" rx="4.46" ry="3.568"/><ellipse cx="129.69" cy="16.024" rx="5.6" ry="4.48"/><ellipse cx="44.39" cy="3.776" rx="4.31" ry="3.448"/><ellipse cx="6.47" cy="16.024" rx="5.6" ry="4.48"/><ellipse cx="29.67" cy="5.096" rx="4.65" ry="3.72"/><ellipse cx="8.72" cy="27.384" rx="4.46" ry="3.568"/><ellipse cx="14.87" cy="8.096" rx="5.39" ry="4.312"/><ellipse cx="91.77" cy="3.776" rx="4.31" ry="3.448"/><ellipse cx="106.49" cy="5.096" rx="4.65" ry="3.72"/><ellipse cx="121.29" cy="8.096" rx="5.39" ry="4.312"/></g><g stroke-linecap="round" stroke-linejoin="round"><path d="M60.49 36.016C47 48.44 23.33 42.368 12.54 47.216c-18.79 8.416 1.64 28.384 5.5 32.2l20.46-4.272C30.99 70.336 15.91 62.16 20.45 55.52c4.66-6.8 29.37.104 40.18-14.432 2.28-3.056.53-5.696-.14-5.072z" stroke="#000" stroke-width=".93" fill="#000"/><path d="M60.49 36.384C47 48.816 24.09 42.864 13.3 47.704-5.48 56.12 15.73 75.6 19.58 79.416l17.68-4.272C29.74 70.336 15.46 61.912 20 55.28c4.65-6.808 29.82-.032 40.63-14.56 2.28-3.056.53-4.96-.14-4.336z" stroke="#000" stroke-width=".93" fill="#F1BF31"/><path d="M61.71 37.344c-14.6 15.768-36.52 7.808-45.94 13.96-10.64 6.96 4.86 20.64 12.34 26.056l1.17-.344C23.21 72.408 5.22 58.744 16.65 51.36c8.22-5.312 31.33 1.616 45.11-13.64l-.05-.376z" stroke="#000" stroke-width=".63" fill="#000"/><path d="M25.83 67.44c-.36.544-.9 1.488-1.26 2.672-6.24-5.952-10.91-12.112-6-17.2 4.48-4.64 15.46-2.544 26.88-5.76 5.759-1.287 10.899-3.933 14.75-7.592-.42.912-.86 2-1.34 3.104-11.6 11.816-34.75 6.16-39.17 12.608-2.6 3.816 1.1 8.208 6.14 12.176v-.008z" fill="#D99F31"/><path d="M20.11 66.384c1.086-.27 2.034-.814 2.7-1.552.29.288.6.568.91.856a5.51 5.51 0 0 1-1.92 1.4 8.331 8.331 0 0 1-3.23.552c-.36-.384-.7-.768-1.04-1.16.86.072 1.83.08 2.58-.096zm-2.81-4.616a7.099 7.099 0 0 0 2.5-.64c.15.272.32.552.5.824-.75.352-1.37.56-2.42.736-1.032.149-2.09.146-3.12-.008-.2-.352-.4-.712-.58-1.064.95.144 2.18.272 3.12.152zm1.54-3.848c-2.116-.195-4.071-1-5.5-2.264.1-.328.23-.656.4-.976.8.808 2.56 2.216 5.18 2.4-.05.272-.08.56-.08.84zm1.8-3.648c-1.492-.715-2.691-1.764-3.45-3.016.27-.16.56-.304.86-.44.693 1.25 1.89 2.278 3.4 2.92-.3.16-.56.344-.8.536h-.01zm3.99-4.92c.24 1.12.99 2.08 2.14 2.76l-1.11.208c-1.028-.755-1.71-1.763-1.94-2.864l.9-.104h.01zm7.1-.496c.417.868 1.144 1.62 2.09 2.16.1.08.16.16.18.24l-1.1.104c-1-.672-1.75-1.512-2.11-2.448l.93-.056h.01zm6.92-.552c.685.838 1.602 1.54 2.68 2.048l-1.28.192c-.972-.572-1.789-1.296-2.4-2.128l1-.112zm6.18-1c.9.688 2.03 1.2 3.25 1.536l-1.3.368a9.195 9.195 0 0 1-2.95-1.696l1-.208zm6.23-1.92c.83.48 1.93.8 2.9.992-.33.184-.66.36-1 .528-1-.248-2.02-.624-2.8-1.168l.9-.352zm4.6-2.32c.66.256 1.43.448 2.18.576l-.73.616c-.79-.168-1.58-.4-2.25-.72l.8-.48v.008z" fill="#000" fill-rule="nonzero"/><path d="M61.76 37.968c.04.76-.23 1.416-1.13 2.624-10.8 14.536-36.29 7.88-40.94 14.688-4.47 6.536 9.64 14.808 17.24 19.656-1.33.384-2.74.72-4.22 1.008l-1.32.576-1.97.496c-6.07-4.608-24.04-18.152-12.61-25.528 8.22-5.312 31.17 1.736 44.95-13.52z" stroke="#000" stroke-width=".6"/><path d="M75.52 36.016c13.49 12.424 37.16 6.352 47.95 11.2 18.79 8.416-1.64 28.384-5.49 32.2l-20.47-4.272c7.52-4.808 22.59-12.984 18.05-19.624-4.65-6.8-29.37.104-40.18-14.432-2.28-3.056-.53-5.696.14-5.072z" stroke="#000" stroke-width=".93" fill="#000"/><path d="M75.67 36.384c13.48 12.432 36.4 6.48 47.19 11.32 18.78 8.416-2.43 27.896-6.28 31.712L98.9 75.144c7.52-4.808 21.8-13.232 17.26-19.864-4.65-6.808-29.83-.032-40.63-14.56-2.28-3.056-.54-4.96.14-4.336z" stroke="#000" stroke-width=".93" fill="#F1BF31"/><path d="M106.88 77.016c6.07-4.608 24.06-18.272 12.63-25.656-8.22-5.312-31.33 1.616-45.11-13.64l.05-.376c14.6 15.768 36.52 7.808 45.94 13.96 10.63 6.944-4.95 20.592-12.46 26.024l-1.05-.312z" stroke="#000" stroke-width=".63" fill="#000"/><path d="M110.33 67.44c.36.544.9 1.488 1.25 2.672 6.25-5.952 10.92-12.112 6-17.2-4.47-4.64-15.45-2.544-26.88-5.76-5.755-1.289-10.891-3.934-14.74-7.592.42.904.86 2 1.34 3.104 11.6 11.816 34.76 6.16 39.17 12.608 2.6 3.816-1.1 8.208-6.14 12.176v-.008z" fill="#D99F31"/><path d="M116.05 66.88c-1.5-.296-2.25-.824-3.23-1.544-.3.28-.6.552-.92.816a8.47 8.47 0 0 0 2.46 1.44c.92.32 1.9.448 2.82.48.34-.36.68-.72 1-1.088a9.214 9.214 0 0 1-2.13-.104zm2.81-5.12a7.087 7.087 0 0 1-2.5-.64c-.15.28-.32.56-.51.832.76.352 1.38.56 2.43.736 1.05.176 2.15.12 3.12-.008l.58-1.072c-.95.152-2.18.28-3.12.16v-.008zm-1.54-3.84c2.116-.195 4.071-1 5.5-2.264a5.964 5.964 0 0 0-.4-.976c-.8.808-2.57 2.216-5.18 2.4.05.272.08.56.08.832v.008zm-1.8-3.648c1.492-.715 2.691-1.764 3.45-3.016-.27-.16-.56-.304-.86-.44-.693 1.25-1.89 2.278-3.4 2.92.3.16.56.344.8.536h.01zm-3.99-4.92c-.24 1.12-.99 2.08-2.14 2.76l1.11.208c1.024-.756 1.703-1.764 1.93-2.864l-.9-.104zm-7.1-.496c-.417.868-1.144 1.62-2.09 2.16a.349.349 0 0 0-.18.24l1.1.104c1-.672 1.75-1.512 2.11-2.448l-.94-.056zm-6.92-.552c-.686.836-1.603 1.534-2.68 2.04l1.27.2c.973-.574 1.79-1.301 2.4-2.136l-.99-.104zm-6.19-1.008c-.9.696-2.03 1.208-3.24 1.536.43.136.87.256 1.3.376a9.185 9.185 0 0 0 2.95-1.696c-.34-.064-.67-.136-1-.216h-.01zm-6.23-1.912c-.82.48-1.92.8-2.9.992.34.184.67.36 1.01.528 1-.256 2.02-.632 2.8-1.168l-.9-.352h-.01zm-4.59-2.32a11 11 0 0 1-2.18.576c.24.208.48.416.73.608a10.176 10.176 0 0 0 2.25-.72c-.27-.144-.53-.304-.8-.472v.008z" fill="#000" fill-rule="nonzero"/><path d="M74.4 37.968c-.04.76.23 1.416 1.13 2.624 10.8 14.536 36.29 7.88 40.94 14.688 4.47 6.536-9.64 14.808-17.24 19.656 1.33.384 2.74.72 4.22 1.008l1.32.576 1.97.496c6.07-4.608 24.04-18.152 12.61-25.528-8.22-5.312-31.17 1.736-44.95-13.52z" stroke="#000" stroke-width=".6"/></g><path d="M68.08 63.76h-6.84s.8-5.216-.1-8.752c-.75-2.864-3.6-6.144-3.6-8.544 0-2.4 3.26-9.168 3.26-9.168h14.56s3.1 6.76 3.1 9.168c0 2.4-2.7 5.68-3.43 8.544-.92 3.536-.1 8.752-.1 8.752h-6.85z" stroke="#000" stroke-width=".93" fill="#000"/><path d="M68.08 63.76h-6.84s1.05-5.208.2-8.752c-.69-2.88-3.12-5.12-3.45-8.048-.45-4.128 4.05-9.664 4.05-9.664h12.08s4.35 5.536 3.89 9.664c-.32 2.928-2.6 5.16-3.3 8.048-.84 3.544.21 8.752.21 8.752h-6.84z" fill="#F1BF31"/><path d="M57.98 45.92c.43-.112.88-.2 1.32-.2 1.5 0 2.09.784 2.09.784s3.93-.72 6.69-.72c2.76 0 6.69.72 6.69.72s.6-.784 2.1-.784c.38 0 .77.064 1.16.16.02.368.02.728-.02 1.08-.32 2.928-2.6 5.16-3.3 8.048a18.69 18.69 0 0 0-.22 5.64l-6.41 2.44-6.42-2.44c.16-1.736.2-3.888-.22-5.64-.69-2.88-3.12-5.12-3.45-8.048a5.841 5.841 0 0 1-.01-1.04z" fill="#D99F31"/><path d="M75.1 47.848c-.3.76-.79 1.968-1.2 3.184a14.555 14.555 0 0 0-.82 3.232c-.19 3.096.47 6.456 1.24 9.496h-.27c-1.1-2.656-2.35-6.744-2.3-9.496.03-1.68 1.35-4.92 2.03-6.48.98-2.24.78-3.76.09-5.256-.7-1.504-1.87-3-2.84-5.2v-.032h1.3c.99 2.16 2.1 3.672 2.76 5.2a6.378 6.378 0 0 1 0 5.36l.01-.008zM61.84 63.76c.78-3.064 1.42-6.376 1.25-9.488-.05-.8-.4-2.024-.82-3.24-.42-1.216-.9-2.424-1.2-3.176-.88-2.248-.18-4.912.75-7 .8-1.816 1.77-3.216 2.02-3.56h1.34c-.4.544-4.64 6.264-2.8 10.496.68 1.552 2 4.8 2.04 6.472.04 2.744-1.22 6.84-2.3 9.496h-.28z" fill="#000" fill-rule="nonzero"/><path d="M68.08 63.76h-6.84s1.05-5.208.2-8.752c-.69-2.88-3.12-5.12-3.45-8.048-.45-4.128 4.05-9.664 4.05-9.664h12.08s4.35 5.536 3.89 9.664c-.32 2.928-2.6 5.16-3.3 8.048-.84 3.544.21 8.752.21 8.752h-6.84z" stroke="#000" stroke-width=".93"/><ellipse stroke="#000" stroke-width=".92" fill="#FFF" cx="68" cy="42.912" rx="3.41" ry="2.008"/><ellipse stroke="#000" stroke-width="1.03" cx="68" cy="42.792" rx="3.83" ry="2.184"/><ellipse stroke="#000" stroke-width=".92" fill="#FFF" cx="68" cy="48.984" rx="3.68" ry="2.944"/><ellipse stroke="#000" stroke-width="1.03" cx="68" cy="48.984" rx="4.14" ry="3.312"/><g transform="translate(8 52.8)" stroke="#000"><path d="M20.41 41.024s-1.05-.848-1.37-1.544c-.26-.552-.28-1.488-.28-1.488l-3.79-4.856 8.5-6.472 16.18-3.712 20.4-1.168h.03l20.4 1.168 16.17 3.712 8.5 6.48-3.78 4.848s-.02.936-.28 1.488a5.986 5.986 0 0 1-1.38 1.544l-18.97-5.128-20.66-.744-20.7.744-18.97 5.128z" stroke-width=".9"/><path d="M20.87 40.48s-.75-.76-1.04-1.328c-.42-.816-.37-2.248-.37-2.248l-4.49-3.76 8.5-6.48 16.18-3.712 20.43-1.16 20.43 1.16 16.17 3.712 8.5 6.48-4.48 3.76s.05 1.432-.37 2.248c-.28.568-1.04 1.328-1.04 1.328l-18.52-4.584-20.69-.744-20.7.744-18.5 4.584h-.01z" stroke-width=".93" fill="#F1BF31"/><path d="M18.83 43.432c0-5.647 18.432-10.224 41.17-10.224 22.738 0 41.17 4.577 41.17 10.224 0 4.78-18.432 8.656-41.17 8.656-22.738 0-41.17-3.875-41.17-8.656z" stroke-width=".93" fill="#000"/><path d="M20.2 43.432c0-3.518 7.586-6.77 19.9-8.529 12.314-1.759 27.486-1.759 39.8 0 12.314 1.76 19.9 5.01 19.9 8.529 0 4.648-17.82 8.416-39.8 8.416-21.98 0-39.8-3.768-39.8-8.416z" stroke-width=".93" fill="#F1BF31"/><ellipse stroke-width=".93" fill="#D99F31" cx="60" cy="44.328" rx="36.78" ry="7.512"/><path d="M96.52 45.344c-6.89 2.352-20.43 3.616-36.47 3.616s-29.58-1.264-36.47-3.616" stroke-width="1.09"/><path d="M95.9 42.608c-7.05 2.152-20.27 3.224-35.85 3.224-15.58 0-28.8-1.072-35.86-3.224" stroke-width="1.01"/><path d="M92.46 40.704c-7.5 1.744-19.1 2.72-32.41 2.72-13.32 0-24.91-.976-32.4-2.72" stroke-width=".93"/><path d="M87.48 39.256c-7.23 1.144-16.78 1.768-27.43 1.768-10.65 0-20.2-.624-27.43-1.768m46.48-1.4c-5.67.496-12.13.76-19.05.76s-13.38-.264-19.04-.76" stroke-width=".93"/><ellipse stroke-width=".93" cx="60" cy="44.328" rx="36.48" ry="7.272"/><path d="M14.76 31.808c-3.61-3.84-6.83-6.456-14.65-8.664a15.331 15.331 0 0 1 4.8-1.68c2.97-.584 6-.264 7.96.552-1.55-4.44 1.43-8.88 1.43-8.88s4.82-.216 9.7 2.92c.16-5.384 2.13-7.936 2.13-7.936s5.07.192 10.26 4.32c.99-5.568 4.74-8.592 4.74-8.592s6.23 1.56 9.8 6.824C53.3 3.048 60.08.064 60.08.064s6.78 2.984 9.16 10.608c3.56-5.264 9.79-6.824 9.79-6.824s3.73 2.912 4.74 8.592c5.19-4.128 10.26-4.32 10.26-4.32s1.97 2.56 2.13 7.936c4.88-3.136 10.18-1.968 10.18-1.968s2.5 3.488.95 7.928c1.95-.816 5-1.136 7.97-.552 1.82.36 3.72.984 4.8 1.68-7.01 2.032-11.2 4.824-14.81 8.664-3.38-5.52-21.46-11.6-45.17-11.6s-41.95 6.08-45.32 11.6z" stroke-width=".93" fill="#000" stroke-linejoin="round"/><path d="M14.76 31.192c-2.887-3.67-7.145-6.52-12.17-8.144 1.07-.688 2.96-.952 4.95-1.064 2.35-.128 4.3.136 5.95.76-1.55-4.44.97-8.984.97-8.984s4.96.016 9.85 3.152c.16-5.376 2.29-8.048 2.29-8.048s4.75.424 9.94 4.544c1.11-5.552 4.75-8.688 4.75-8.688s6.23 1.544 9.79 6.8c2.37-7.616 9-10.336 9-10.336s6.63 2.72 9 10.336c3.56-5.256 9.8-6.8 9.8-6.8s3.74 2.8 4.74 8.688c5.19-4.12 9.94-4.544 9.94-4.544s2.13 2.664 2.3 8.048c4.88-3.136 10.46-2.288 10.46-2.288s1.9 3.68.35 8.12c1.65-.624 3.6-.888 5.94-.76 2 .112 3.89.376 4.96 1.064-5.027 1.627-9.285 4.48-12.17 8.152-3.38-5.52-21.6-11.088-45.32-11.088-23.71 0-41.94 5.56-45.32 11.088v-.008z" stroke-width=".93" fill="#F1BF31" stroke-linejoin="round"/><path d="M13 32.928c0-7.008 20.9-12.952 47.05-12.952s46.28 6.184 46.28 12.328c0 1.472-1.63 2.744-3.77 3.816.2-.464.31-.936.31-1.408 0-6.144-16.67-11.12-42.82-11.12s-42.82 4.976-42.82 11.12c0 .48.1.944.31 1.408C15.4 35.048 13 34.4 13 32.92v.008z" stroke-width=".93" fill="#000"/><path d="M14.22 32.304c0-5.312 19.68-11.952 45.83-11.952s45.83 6.64 45.83 11.952c0 1.472-2.05 1.624-2.23 1.168-2.2-5.384-17.45-10.136-43.6-10.136-26.15 0-41.4 4.752-43.6 10.136-.18.456-2.23.304-2.23-1.168z" stroke-width=".9" fill="#F1BF31"/><path d="M59.58 15.28l.46-6.056c0-.048.07-.664.08-.624l.43 6.672c.14 1.872.3 4.808.3 4.808 0 .024-.02.032-.05.032l-1.5.008c-.022 0-.04-.014-.04-.032 0 0 .17-2.936.32-4.816v.008zm38.45 10.832c.41-.64.92-1.472 1.3-2.12.74-1.328 2.1-3.44 2.1-3.44.02-.048-.04-.064-.07-.032 0 0-1.7 1.92-2.65 3.12-.5.624-1.19 1.424-1.73 2.048l1.05.424zM85.23 22.4a56.89 56.89 0 0 1 2.12-3.536c.98-1.448 2.76-3.6 2.76-3.6.03-.04.1-.016.07.024 0 0-1.28 2.184-2.01 3.608-.72 1.392-1.72 3.608-1.72 3.608l-.66.008-.56-.112zm-11.6-1.672a70.584 70.584 0 0 1 3.1-8.472.047.047 0 0 1 .041-.01c.016.003.027.014.029.026a197.108 197.108 0 0 0-1.83 8.592l-1.34-.136zm-39.32 1.8h-.57c-.04-.024-1.03-2.24-1.75-3.632-.73-1.424-2.01-3.608-2.01-3.608-.03-.04.03-.064.06-.032 0 0 1.79 2.16 2.77 3.608.83 1.224 1.9 3.12 2.13 3.536l-.63.128zm10.88-1.664l-.8-3.96c-.38-1.808-.61-2.824-1.03-4.632-.01-.04.05-.056.07-.016a68.888 68.888 0 0 1 1.79 4.512c.46 1.264 1.03 3.064 1.32 3.96l-1.35.136zM22.01 26.16c-.41-.656-.94-1.504-1.32-2.168-.75-1.328-2.1-3.44-2.1-3.44-.03-.048.04-.064.06-.032 0 0 1.7 1.92 2.65 3.12.52.64 1.22 1.464 1.76 2.096l-1.05.424z" stroke-width=".45" fill="#000" fill-rule="nonzero" stroke-linejoin="round"/></g><g stroke-linecap="round" stroke-linejoin="round"><path d="M29.6 88.336c-.33-1.52-1.98-2.752-3.25-2.568-1.27.176-3.07 1.696-2.74 3.216.34 1.52 2.72 2.64 4 2.456 1.26-.176 2.33-1.576 2-3.104h-.01z" stroke="#000" stroke-width=".72" fill="#D99F31"/><path d="M27.49 86.464c.772.71.784 1.762.03 2.483-.754.72-2.052.896-3.06.413a1.94 1.94 0 0 1-.14-.424c-.3-1.32.97-2.512 2.07-2.672l.24-.016c.3 0 .59.08.86.216z" fill="#F1BF31"/><path d="M28.9 88.376c-.29-1.32-1.41-2.264-2.51-2.112-1.1.16-2.36 1.352-2.08 2.672.3 1.32 2.06 2.28 3.16 2.12 1.1-.152 1.72-1.36 1.43-2.68z" stroke="#000" stroke-width=".78"/><path d="M43.4 84.68l-.6-2.872-2.41-.968s-2.6.56-4.21 1.016c-1.67.48-4.21 1.392-4.21 1.392l-.6.84.75 3.24 1.35.96 9.02-2.16.91-1.448z" stroke="#000" stroke-width=".78" fill="#D99F31"/><path fill="#F1BF31" d="M33.46 86.752l7.23-1.832.45-.592-.62-3.008-.26-.2-8.03 2.352.61 2.72z"/><path d="M33.46 86.752l7.23-1.832.45-.592-.47-2.4m2.55 2.752l-2.08-.36" stroke="#000" stroke-width="1.09"/><path d="M53.72 81.6c-.046-.429.197-.845.637-1.091a1.83 1.83 0 0 1 1.5-.104c.488.182.817.558.863.987.072.663-.542 1.247-1.37 1.304-.828.057-1.558-.433-1.63-1.096zm-3.48 2.664c-.046-.429.197-.845.637-1.091a1.83 1.83 0 0 1 1.5-.104c.488.182.817.558.863.987.072.663-.542 1.247-1.37 1.304-.828.057-1.558-.433-1.63-1.096zm-3.55-2.136c-.036-.317.087-.633.342-.878a1.644 1.644 0 0 1 1.018-.426c.83-.056 1.41.432 1.48 1.096.07.656-.39 1.24-1.21 1.304a1.762 1.762 0 0 1-1.1-.276c-.306-.206-.497-.501-.53-.82zm3.03-2.664c-.045-.429.2-.844.642-1.09a1.83 1.83 0 0 1 1.5-.1c.486.184.813.561.858.99.069.663-.547 1.245-1.375 1.3-.828.055-1.556-.437-1.625-1.1z" fill="#F1BF31" fill-rule="nonzero"/><path d="M53.81 81.92c.215-.475.779-.79 1.41-.79.631 0 1.195.315 1.41.79-.215.475-.779.79-1.41.79-.631 0-1.195-.315-1.41-.79zm-4-2.136c.22.469.78.78 1.405.78.626 0 1.186-.311 1.405-.78-.22-.469-.78-.78-1.405-.78-.626 0-1.186.311-1.405.78zm-3.03 2.656c.233.51.864.831 1.54.784.541-.038.996-.341 1.14-.76-.18-.504-.7-.848-1.4-.8-.578.039-1.077.341-1.28.776zm3.55 2.136c.215.475.779.79 1.41.79.631 0 1.195-.315 1.41-.79-.215-.475-.779-.79-1.41-.79-.631 0-1.195.315-1.41.79z" fill="#D99F31" fill-rule="nonzero"/><path d="M53.72 81.6c-.046-.429.197-.845.637-1.091a1.83 1.83 0 0 1 1.5-.104c.488.182.817.558.863.987.072.663-.542 1.247-1.37 1.304-.828.057-1.558-.433-1.63-1.096zm-3.48 2.664c-.046-.429.197-.845.637-1.091a1.83 1.83 0 0 1 1.5-.104c.488.182.817.558.863.987.072.663-.542 1.247-1.37 1.304-.828.057-1.558-.433-1.63-1.096zm-3.55-2.136c-.036-.317.087-.633.342-.878a1.644 1.644 0 0 1 1.018-.426c.83-.056 1.41.432 1.48 1.096.07.656-.39 1.24-1.21 1.304a1.762 1.762 0 0 1-1.1-.276c-.306-.206-.497-.501-.53-.82zm3.03-2.664c-.045-.429.2-.844.642-1.09a1.83 1.83 0 0 1 1.5-.1c.486.184.813.561.858.99.069.663-.547 1.245-1.375 1.3-.828.055-1.556-.437-1.625-1.1z" stroke="#000" stroke-width=".93"/><path fill="#D99F31" d="M60.85 82.72V79.6l2.27-1.688h9.92l2.27 1.688v3.12l-2.27 1.568h-9.92z"/><path fill="#F1BF31" d="M73.24 78.28l-.8.648v2.976l-.63.496-7.51-.04-.63-.504v-2.848L63 78.28z"/><path stroke="#000" stroke-width=".78" d="M60.85 82.72V79.6l2.27-1.688h9.92l2.27 1.688v3.12l-2.27 1.568h-9.92z"/><path d="M61.46 82.584l2.21-.68m11 .728l-2.23-.728m-9.05 2.176l.9-1.68m8.42 1.68l-.9-1.68m.63-3.472v2.976l-.63.496-7.51-.04-.63-.504v-2.968" stroke="#000" stroke-width="1.09"/><path d="M82.37 81.6c.072-.66-.54-1.243-1.365-1.3-.826-.057-1.553.431-1.625 1.092-.072.663.542 1.247 1.37 1.304.828.057 1.558-.433 1.63-1.096h-.01zm3.49 2.664c.046-.429-.197-.845-.637-1.091a1.83 1.83 0 0 0-1.5-.104c-.488.182-.817.558-.863.987-.072.663.542 1.247 1.37 1.304.828.057 1.558-.433 1.63-1.096zm3.55-2.136c.036-.317-.087-.633-.342-.878a1.644 1.644 0 0 0-1.018-.426c-.83-.056-1.41.432-1.48 1.096-.08.656.39 1.24 1.21 1.304.398.029.794-.07 1.1-.276.306-.206.497-.501.53-.82zm-3.03-2.664c.045-.429-.2-.844-.642-1.09a1.83 1.83 0 0 0-1.5-.1c-.486.184-.813.561-.858.99-.069.663.547 1.245 1.375 1.3.828.055 1.556-.437 1.625-1.1z" fill="#F1BF31" fill-rule="nonzero"/><path d="M82.29 81.92c-.215-.475-.779-.79-1.41-.79-.631 0-1.195.315-1.41.79.22.469.78.78 1.405.78.626 0 1.186-.311 1.405-.78h.01zm1.18-2.136c.215.475.779.79 1.41.79.631 0 1.195-.315 1.41-.79-.215-.475-.779-.79-1.41-.79-.631 0-1.195.315-1.41.79zm3.17 2.68c.15.408.56.72 1.14.76.676.047 1.307-.274 1.54-.784-.203-.435-.702-.737-1.28-.776-.7-.048-1.21.296-1.4.8zm-3.7 2.112c.211.48.778.802 1.415.802s1.204-.322 1.415-.802c-.215-.475-.779-.79-1.41-.79-.631 0-1.195.315-1.41.79h-.01z" fill="#D99F31" fill-rule="nonzero"/><path d="M82.37 81.6c.072-.66-.54-1.243-1.365-1.3-.826-.057-1.553.431-1.625 1.092-.072.663.542 1.247 1.37 1.304.828.057 1.558-.433 1.63-1.096h-.01zm3.49 2.664c.046-.429-.197-.845-.637-1.091a1.83 1.83 0 0 0-1.5-.104c-.488.182-.817.558-.863.987-.072.663.542 1.247 1.37 1.304.828.057 1.558-.433 1.63-1.096zm3.55-2.136c.036-.317-.087-.633-.342-.878a1.644 1.644 0 0 0-1.018-.426c-.83-.056-1.41.432-1.48 1.096-.08.656.39 1.24 1.21 1.304.398.029.794-.07 1.1-.276.306-.206.497-.501.53-.82zm-3.03-2.664c.045-.429-.2-.844-.642-1.09a1.83 1.83 0 0 0-1.5-.1c-.486.184-.813.561-.858.99-.069.663.547 1.245 1.375 1.3.828.055 1.556-.437 1.625-1.1z" stroke="#000" stroke-width=".93"/><path d="M92.7 84.68l.6-2.872 2.41-.968s2.6.56 4.2 1.016c1.68.48 4.22 1.392 4.22 1.392l.6.84-.75 3.24-1.35.96-9.02-2.16-.91-1.448z" stroke="#000" stroke-width=".78" fill="#D99F31"/><path fill="#F1BF31" d="M102.63 86.752l-7.22-1.832-.45-.592.63-3.008.25-.2 8.03 2.352-.61 2.72z"/><path d="M102.63 86.752l-7.22-1.832-.45-.592.47-2.4m-1.88 3.96l1.86-.96" stroke="#000" stroke-width="1.09"/><path d="M106.4 88.336c.34-1.52 1.99-2.752 3.26-2.568 1.27.176 3.07 1.696 2.74 3.216-.34 1.52-2.72 2.64-4 2.456-1.26-.176-2.33-1.576-2-3.104z" stroke="#000" stroke-width=".72" fill="#D99F31"/><path d="M107.95 87.704c0-.48.22-.904.57-1.24a1.95 1.95 0 0 1 1.1-.2c1.1.16 2.36 1.352 2.07 2.672a2.15 2.15 0 0 1-.14.424 2.915 2.915 0 0 1-2.401.009c-.745-.343-1.202-.978-1.199-1.665z" fill="#F1BF31"/><path d="M107.1 88.376c.3-1.32 1.42-2.264 2.52-2.112 1.1.16 2.37 1.352 2.08 2.672-.3 1.32-2.06 2.28-3.16 2.12-1.1-.152-1.72-1.36-1.43-2.68h-.01z" stroke="#000" stroke-width=".78"/><path d="M92.28 84.704l.65-3.12 2.56-1.016s2.78.608 4.51 1.096c1.79.512 4.5 1.48 4.5 1.48l.65.904-.8 3.48-1.45 1.032-9.66-2.32-.96-1.536zm-31.9-5.224l2.39-1.8h10.62l2.4 1.8v3.36l-2.4 1.672H62.77l-2.4-1.664V79.48h.01zm-16.56 5.224l-.65-3.12-2.56-1.016s-2.78.608-4.51 1.096c-1.8.512-4.5 1.48-4.5 1.48l-.65.904.8 3.48 1.45 1.032 9.66-2.32.96-1.536z" stroke="#000" stroke-width=".83"/></g><g stroke-linecap="round" stroke-linejoin="round" transform="translate(52)"><path d="M24.13 7.08c1.77 0 3.07 1.264 3.07 2.688 0 1.424-1.3 2.824-3.07 2.824-2.32 0-5.69-2.2-5.57-.448l.05.88 1.23 8.12c3.03.544-10.55.544-7.53 0l1.24-8.16.05-.84c.11-1.744-3.34.448-5.57.448-1.78 0-3.07-1.4-3.07-2.824S6.26 7.08 8.03 7.08c1.75 0 3.68 1.304 4.92.688 1.95-.96-.4-3.12-.4-4.584 0-1.416 1.75-2.576 3.53-2.576 1.78 0 3.52 1.16 3.52 2.576 0 1.464-2.36 3.56-.4 4.584 1.18.616 3.12-.688 4.93-.688z" stroke="#000" stroke-width=".95" fill="#D99F31"/><path d="M13.49 3.6c-.2-.192-.36-.408-.46-.64.4-1.092 1.629-1.856 3.05-1.896.61 0 1.2.16 1.7.432-.1.288-.92.344-1.68.864-1.1.728-1.69 2.128-2.61 1.248V3.6zm.5 4.08c.15.16.22.328.22.512 0 .88-1.9 1.584-4.24 1.584-1.96 0-3.62-.496-4.1-1.176.597-.73 1.61-1.17 2.7-1.176 1.63 0 3.87 1.112 5.03.536.16-.08.3-.176.4-.28h-.01zm3.27.136c0-.408.25-.8.67-1.12-.1.504.02.944.64 1.264 1.1.576 3.33-.536 5.03-.536 1.07 0 2.09.456 2.66 1.144-.65.832-2.36 1.424-4.36 1.424-2.56 0-4.64-.976-4.64-2.176z" fill="#F1BF31" fill-rule="nonzero"/><path d="M23.6 7.424c1.65 0 3.15 1.08 3.15 2.408 0 1.328-1.5 2.416-3.15 2.416s-5.74-2.32-5.64-.56l.05.952.7 7.824c2.82.512-8.08.512-5.26 0l.7-7.856.05-.912c.1-1.768-4.1.552-5.64.552-1.66 0-3.15-1.088-3.15-2.416 0-1.328 1.5-2.408 3.15-2.408 1.64 0 3.88 1.112 5.04.544 1.82-.904-.69-3.024-.69-4.384 0-1.32 1.5-2.52 3.17-2.52 1.66 0 3.17 1.2 3.17 2.52 0 1.36-2.52 3.424-.68 4.384 1.1.56 3.33-.544 5.03-.544z" stroke="#000" stroke-width=".93"/><ellipse stroke="#000" stroke-width="1.7" fill="#F1F1F2" cx="16" cy="23.432" rx="7.9" ry="6.32"/><path d="M17.46 27.424a6.057 6.057 0 0 0 1.36-1.832c.18-.456.77-.24.64.152a6.025 6.025 0 0 1-1.25 1.96l-.75-.28zm-8.7-3.72l.48-.32c.18-.128.4-.248.66-.368.33-.176.1-.592-.3-.44a7.97 7.97 0 0 0-1.02.472l.18.656zm-.05.936l.42.592c.57-.488 1.54-1.2 1.7-1.32.35-.264-.11-.584-.42-.4a13.74 13.74 0 0 0-1.7 1.128zm.6 1.408l.52.48a22.101 22.101 0 0 0 2.46-1.816c.34-.296-.05-.704-.46-.4-.2.16-1.77 1.28-2.5 1.736h-.02zm10.78 1.072c.39-.352.8-.832.94-1.392a.35.35 0 0 1 .4-.264c.17.032.3.176.26.36-.144.606-.49 1.17-1 1.632l-.6-.336zm-6.05.616a20.097 20.097 0 0 0 2.64-2.856c.11-.144.31-.176.46-.12.15.056.23.208.12.384-.46.744-1.07 1.52-1.62 2.08-.54.544-.95.928-.95.928l-.65-.416zm-2.24-1.104a22.524 22.524 0 0 0 2.06-1.696c.27-.272.88-.064.53.344-.44.52-1.12 1.168-1.76 1.632l-.83-.28z" fill="#000" fill-rule="nonzero"/><path d="M22.13 37.304H10.04c-1.02 1.376-4.25 2.32-6.9 1.216-1.88-.792-2.26-2.576-2.26-2.576s5.06.152 5.09-3.432c0-3.632 2.6-6 6.35-5.648 1.433.17 2.755.717 3.76 1.552 1.005-.835 2.327-1.38 3.76-1.552 3.75-.352 6.35 2.016 6.35 5.616 0 3.616 5.09 3.472 5.09 3.472s-.39 1.776-2.26 2.56c-2.66 1.12-5.91.16-6.88-1.208h-.01z" stroke="#000" stroke-width=".93" fill="#D99F31"/><path d="M22.14 37.296h-.42c-1.12.832-2.88 1.68-5.64 2.16-2.76-.48-4.52-1.328-5.64-2.16h-.4s-4.24 2.408-7.2.608c-1.1-.672-1.34-1.584-1.34-1.584s5.09-.224 5.09-3.84c0-3.6 2.44-5.12 5.73-5.12 1.44 0 2.75.568 3.76 1.304 1.008-.793 2.348-1.257 3.76-1.304 3.29 0 5.73 1.52 5.73 5.12 0 3.616 5.09 3.84 5.09 3.84s-.24.912-1.33 1.584c-2.98 1.8-7.2-.608-7.2-.608h.01z" fill="#D99F31"/><path d="M7.16 30.424c-.26.512.16 2.296.16 2.296s.14 1.616-1.45 2.84c-1.11.864-3.65 1.24-3.65 1.24M25 30.432c.27.504-.15 2.288-.15 2.288s-.14 1.616 1.45 2.84c1.1.864 3.64 1.24 3.64 1.24" stroke="#F1BF31" stroke-width=".9"/><path d="M15.98 39.096c-6.3-1.144-7.11-4.264-6.94-4.232.42.08 1.87 2.36 7.04 3.512 5.17-1.152 6.62-3.432 7.03-3.512.18-.032-.64 3.088-6.93 4.232h-.2zM8.25 30.2c0-1.224 2.52-2.24 5.93-2.52.7.24 1.35.584 1.9.984.55-.4 1.2-.752 1.9-.984 3.4.28 5.91 1.304 5.91 2.52 0 2.88-4.12 4.28-7.82 4.28s-7.82-1.392-7.82-4.28z" fill="#F1BF31" fill-rule="nonzero"/><path d="M22.14 37.296h-.42c-1.12.832-2.88 1.68-5.64 2.16-2.76-.48-4.52-1.328-5.64-2.16h-.4s-4.24 2.408-7.2.608c-1.1-.672-1.34-1.584-1.34-1.584s5.09-.224 5.09-3.84c0-3.6 2.44-5.12 5.73-5.12 1.44 0 2.75.568 3.76 1.304 1.008-.793 2.348-1.257 3.76-1.304 3.29 0 5.73 1.52 5.73 5.12 0 3.616 5.09 3.84 5.09 3.84s-.24.912-1.33 1.584c-2.98 1.8-7.2-.608-7.2-.608h.01z" stroke="#000" stroke-width=".93"/><path d="M23.63 34.896s-.76 4.04-7.55 5.24c-6.8-1.2-7.55-5.24-7.55-5.24s.75 3.36 7.55 4.568c6.8-1.2 7.55-4.568 7.55-4.568z" stroke="#000" stroke-width=".93" fill="#000"/></g></g><path d="M398.8 182c13.53-.2 71.81-8.016 71.81 56.736 0 61.84-70.56 86.432-70.56 86.432s-70.56-23.824-70.56-91.12c0-60.064 69.3-52.056 69.3-52.056l.01.008z" fill="#A0CFEB"/><path d="M421.68 278.712c4.264-1.904 9.067-2.901 13.95-2.896 8.24 0 15.66 2.776 20.9 7.224-20.6 29.616-56.48 42.128-56.48 42.128s-34.96-11.8-55.66-42.264c5.405-4.534 12.898-7.097 20.73-7.088 5.67 0 10.97 1.32 15.42 3.6 5.419-4.675 13.03-7.328 21-7.32 7.85 0 14.96 2.52 20.14 6.616z" fill="#94BB79"/><path d="M433.97 276.128c3.55.328 9.77 3.008 12.78 6.616-2.34 3.088-6.83 8-9.3 10.696-5.5-6.448-16.89-15.088-16.1-14.464.12.08.6-.224.73-.288a57.694 57.694 0 0 1 3.13-1.312 34.325 34.325 0 0 1 6.35-1.336c.76-.016 1.56.008 2.4.088h.01zm-24.18 40.616c-4.5 1.896-8 3.12-9.74 3.704-1.75-.584-5.25-1.808-9.74-3.704-8.7-5.64-26.64-18.8-39.27-37.944 4.207-1.884 8.949-2.87 13.77-2.864.4 0 2.1.4 3.34.864 7.94 2.984 17.76 11.544 14.14 13.184-2.66 1.2-10.25-.768-10.65 1.584-.15.888 14.1 7.152 22.19 12.664 6.63 4.52 17 11.84 15.96 12.512zm17.3-5.624c-9.07-7.12-29.45-21.6-46.5-31.744 4.853-4.166 11.475-6.734 18.57-7.2l.39.04c9.84 1.12 18.76 9.568 15.14 11.2-2.66 1.2-10.26-.76-10.66 1.592-.13.784 10.2 5.776 16.24 9.928 5.93 4.08 9.82 7.016 14.22 10.864-2.5 1.92-4.98 3.696-7.4 5.32z" fill="#658D5C" fill-rule="nonzero"/><path d="M422.07 278.352c1.89 1.424 2.7 2.608 2.72 2.624.18.24-.03.792-.57.384 0 0-.75-.568-2.95-2.288-2.96-2.32-8.1-5.24-12.34-5.808-.4-.056-.58-.216-.53-.456a.479.479 0 0 1 .244-.318.72.72 0 0 1 .456-.082c.09 0 6.35.944 12.97 5.944zM387.2 282.8c.2.136.24.328.14.48-.12.144-.36.176-.56.056-3.59-2.04-5.34-2.888-7.42-3.936-.16-.08-.27-.216-.15-.368.08-.096.25-.16.41-.192.33-.08.82-.088 1.14.064a58.801 58.801 0 0 1 6.44 3.896z" fill="#000" fill-rule="nonzero"/><path d="M421.68 278.712c4.13-1.84 8.89-3.272 13.95-3.272 8.28 0 15.74 2.912 20.97 7.496m-112.31-.184c5.33-4.71 12.889-7.41 20.83-7.44 5.68 0 10.97 1.824 15.42 4.104 5.24-4.504 12.7-7.816 21-7.816 7.85 0 14.96 3.016 20.14 7.112" stroke="#000" stroke-width="1.24"/><path d="M367.91 184.416h66.97m-75.92 2.968h84.13m-90.26 2.976h95.8m-100.45 2.968h104.64m-108.33 2.968h111.64m-114.66 2.968h117.38m-119.86 2.976h122.1m-124.17 2.96h126.05m-127.75 2.976h129.33m-130.75 2.976h132.08m-133.25 2.96h134.36m-135.3 2.976H467.9m-50.24 2.968h51m-137.72 0h51.35m51.99 2.968h35m-138.92 0h35.44M440.74 226h29.02m-139.83 0h29.24m87.87 2.968h23.08m-140.45 0h22.99m100.6 2.968h17.12m-140.86 0h17.1m111.11 2.968h12.8m-141.03 0h13.03m119.3 2.976h8.77m-141.03 0h8.49" stroke="#4C819A" stroke-width=".78"/><path fill="#000" d="M356.65 240.32l-.01-5.784 7.75-2.416 7.75 1.68.01 6.52z"/><path d="M373.24 266.576l3.4 11.16c-3.632-1.272-7.555-1.926-11.52-1.92l-.73-46.056 3.1.72v4.84l3.87.8v-4.8l5.27 1.104v7.88l-3.4 4.024v22.248h.01z" fill="#FFF"/><path d="M364.39 265.72v-35.96l-3.1 1.08v4.768l-3.88 1.24v-4.8l-5.27 1.8v7.624l3.79 3.632.09 21.92-3.88 11.264c3.8-1.549 7.986-2.396 12.25-2.48v-10.096.008z" fill="#BDBFC1"/><path d="M364.25 265.632l-8.23 1.392m-1.74 6.936l10.05-1.696 10.86.936m-11.22-4.184l-8.87 1.448m17.65-19.744l-8.36-1.392-8.49 2.072m16.85 2.48l-8.36-1.28-8.49 1.96m0-6.288l8.49-2.192 8.36 1.416m-16.85 10.176l8.49-1.808 8.36 1.192m-16.77 3.728l8.4-1.664 8.45 1.112m-16.85 3.68l8.4-1.52 8.53 1.024m-3.1-19.536v3.072m-3.1-.464v3.128m3.1.664v3.136m-7.9-3.424v3.12m0 3.296v3.128m-3.72 1.088v2.88m0-15.528v2.88m3.72-7.28v3.128m2.5-8.784l12.22 2.384m-12.23-2.384l-12.26 3.56" stroke="#000" stroke-width="1.09"/><path d="M364.39 275.824V229.76" stroke="#000" stroke-width="1.24"/><path d="M370.59 267.744l-3.73-.416v-9.424c0-1.16.89-1.864 1.68-1.864 1.4 0 2.05 1.264 2.05 2.36v9.344z" fill="#000"/><path d="M373.24 266.584l3.4 11.152c-3.632-1.272-7.555-1.926-11.52-1.92-4.67 0-9.08.888-12.98 2.48l3.88-11.264-.1-21.92-3.78-3.632v-7.624l5.27-1.792v4.792l3.88-1.24v-4.768l3.1-1.088 3.1.72v4.84l3.87.8v-4.8l5.27 1.112v7.872l-3.4 4.024v22.248l.01.008zm3.1 10.736c-3.562-1.163-7.373-1.76-11.22-1.76-4.48 0-8.87.816-12.65 2.264l3.85-10.728-.08-21.984a.687.687 0 0 0-.07-.16l-3.72-3.56v-7.376l4.65-1.576v4.416c0 .2.2.304.43.224l3.87-1.232c.08-.024.2-.16.2-.224v-4.616l2.8-.984 2.78.64v4.656c0 .08.12.216.23.24l3.87.8c.22.04.39-.064.39-.24v-4.48l4.65.976v7.608l-3.34 3.968-.05.136v22.248l3.4 10.736.01.008zm1.21.36c.08.24-.75.016-1.04-.08-3.593-1.264-7.475-1.915-11.4-1.912-4.61 0-8.97.88-12.83 2.448-.3.128-1.15.344-1.06.088l4.49-11.232-.09-21.792-3.71-3.56a.666.666 0 0 1-.08-.16v-7.624c0-.072.12-.2.2-.232l5.26-1.792c.24-.08.43.024.43.232v4.424l3.26-1.04v-4.6c0-.064.1-.2.18-.224l3.1-1.088c.07-.01.14-.012.21-.008l3.1.712c.1.024.23.152.23.24v4.64l3.25.672v-4.472c0-.184.17-.288.39-.24l5.27 1.112c.1.016.23.152.23.24v7.872l-.05.136-3.34 3.968v22.144l4 11.128zm-13.15-34.864l8.37 1.52-8.37-1.52zm0 0l-8.47 2.296 8.47-2.296z" stroke="#000"/><path fill="#000" d="M391.53 235.984l-.02-5.912 7.75-2.232 7.75 1.92.01 6.216z"/><path d="M408.1 262.48l3.4 11.04c-3.952-1.173-8.18-1.632-12.38-1.344l.14-46.752 3.1.832v4.848l3.87.856v-4.736l5.27 1.36v7.848l-3.4 3.872v22.184-.008z" fill="#FFF"/><path d="M399.26 272.152v-46.728l-3.1.96v4.832l-3.88 1.112v-4.792l-5.27 1.664v7.712l3.8 3.712.08 22.064-3.88 12.56c3.65-1.712 7.8-2.8 12.25-3.08v-.016z" fill="#BDBFC1"/><path d="M398.8 264.664l-8.57 1.32m19.48 3.096l-10.5-1.056-10.36 1.576m4.22-16.816v3.008m3.72 2.72v3.136m0-22.536v3.128m-3.72 1.144v3.016m3.72-.8v3.12m7.9-2.64v3.12m-3.1-6.92v3.128m3.1-5.672v3.072m-13.82 16.704l8.4-1.44 8.52 1.256m-17-6.112l8.49-1.68 8.36 1.44m-16.85-2.872l8.49-1.84 8.36 1.528m-16.85-2.848l8.49-1.944 8.36 1.632m-16.85-2.864l8.49-2.032 8.36 1.72m.08 12.688l-8.44-1.352-8.41 1.6m8.39 4.936l-8.37 1.368m20.61-26.256l-12.24-2.848-12.25 3.328m20.63 3.376l-8.36-1.8-8.48 2.136" stroke="#000" stroke-width="1.09"/><path d="M399.26 272.152v-46.728" stroke="#000" stroke-width="1.24"/><path d="M405.46 263.52l-3.73-.464v-9.424c0-1.16.89-1.808 1.68-1.808 1.4 0 2.05 1.264 2.05 1.816v9.88z" fill="#000"/><path d="M411.22 273.128c-7.896-2.155-16.559-1.569-23.89 1.616l3.86-12-.08-22.12a.659.659 0 0 0-.07-.16l-3.71-3.64v-7.448l4.65-1.472v4.424c0 .2.18.296.41.24l3.87-1.12c.1-.024.21-.16.21-.232v-4.664l2.8-.864 2.78.744v4.672c0 .08.12.208.22.24l3.88.856c.22.048.4-.056.4-.24v-4.4l4.64 1.2v7.6l-3.34 3.8-.05.144v22.184l3.42 10.64zm1.2.328c.08.24-.74 0-1.03-.08a34.69 34.69 0 0 0-9.85-1.408c-5.053-.008-10.015 1.07-14.37 3.12-.3.144-1.16.368-1.08.104l4.49-12.536-.09-21.944-3.72-3.64a.63.63 0 0 1-.07-.16V229.2c0-.064.12-.2.2-.224l5.27-1.672c.24-.072.42.032.42.24v4.432l3.26-.928v-4.664c0-.072.11-.208.2-.232l3.1-.96h.2l3.1.832c.1.024.21.16.21.24v4.648l3.26.72v-4.4c0-.192.18-.296.4-.24l5.28 1.36c.1.024.21.152.21.232v7.848l-.05.144-3.34 3.8v22.08l4 11zm-4.31-10.968l3.4 11.032a35.034 35.034 0 0 0-9.97-1.424c-5.3 0-10.27 1.152-14.52 3.152l3.87-12.56-.09-22.064-3.78-3.712V229.2l5.27-1.664v4.8l3.87-1.12v-4.832l3.1-.96 3.1.832v4.848l3.87.856v-4.736l5.27 1.36v7.848l-3.4 3.872v22.184h.01z" stroke="#000"/><path fill="#000" d="M426.4 240.44l-.02-6.52 7.75-1.736 7.75 2.04.02 6.216z"/><path d="M442.98 266.824l3.4 10.656c-3.924-1.273-8.152-1.834-12.38-1.64l.13-46.08 3.1.832v4.84l3.87 1.04v-4.728l5.27 1.416v7.76l-3.4 3.84v22.056l.01.008z" fill="#FFF"/><path d="M434.13 265.72v-35.96l-3.1.768v4.84l-3.87.92v-4.792l-5.27 1.36v7.808l3.78 3.88.1 22.04-3.88 12.024c3.767-1.649 7.951-2.595 12.24-2.768v-10.128.008z" fill="#BDBFC1"/><path d="M423.57 273.6l10.5-1.304 10.7 1.128m-11.09-4.448l-8.85 1.088m6.82-26.736v3.128m-3.72 1.024v3.008m0 9.704v3.008m3.72-6.92v3.136m0-9.616v3.136m7.9-2.472v3.136m-3.1-6.992v3.136m3.1-5.616v3.072m-13.82 16.336l8.4-1.136 8.52 1.264m-17-9.6l8.48-1.464 8.37 1.592m0 3.168l-8.37-1.496-8.48 1.376m16.85-6.216l-8.37-1.696-8.48 1.576m16.85-3.048l-8.37-1.784-8.48 1.656m16.86-2.96l-8.36-1.952-8.48 1.736m-3.78-3.88l12.26-2.752 12.22 3m-12.22 24.712l-8.39 1.088m-.03-6.304l8.4-1.296 8.44 1.416" stroke="#000" stroke-width="1.09"/><path d="M434.13 275.84v-46.08" stroke="#000" stroke-width="1.24"/><path d="M440.33 267.92l-3.72-.464v-9.424c0-1.16.88-1.808 1.67-1.808 1.4 0 2.05 1.264 2.05 1.816v9.88z" fill="#000"/><path d="M446.08 277.072c-7.793-2.329-16.449-1.943-23.87 1.064l3.85-11.48-.08-22.104a.594.594 0 0 0-.06-.152l-3.72-3.808v-7.552l4.65-1.2v4.456c0 .184.17.288.4.24l3.87-.928c.1-.024.22-.152.22-.24v-4.648l2.79-.696 2.79.752v4.664c0 .08.12.208.2.24l3.88 1.04c.23.064.41-.04.41-.24v-4.384l4.65 1.256v7.488l-3.33 3.784-.06.144v22.056l3.4 10.24.01.008zm-3.1-10.24l3.4 10.64a34.937 34.937 0 0 0-10.75-1.656c-4.98 0-9.66 1.016-13.74 2.8l3.87-12.024-.09-22.04-3.78-3.88v-7.808l5.27-1.36v4.792l3.87-.928v-4.832l3.1-.776 3.1.84v4.84l3.87 1.04v-4.728l5.27 1.416v7.76l-3.4 3.84v22.056l.01.008zm4.31 10.584c.08.24-.74.016-1.03-.08a34.587 34.587 0 0 0-10.63-1.648c-4.92 0-9.56 1.008-13.6 2.776-.3.128-1-.144-.9-.4l4.32-11.504-.09-21.92-3.72-3.816a.614.614 0 0 1-.06-.152v-7.808c0-.08.12-.216.21-.24l5.27-1.36c.23-.056.4.048.4.24v4.456l3.26-.776v-4.64c0-.088.12-.216.22-.24l3.1-.776h.19l3.1.832c.1.024.2.16.2.24v4.664l3.26.88v-4.392c0-.192.18-.296.41-.24l5.27 1.424c.1.024.21.16.21.24v7.744l-.05.144-3.34 3.776v21.96l4 10.616z" stroke="#000"/><path d="M369.42 214.96c-.28-2.056-1.28-5.384-4.72-4.96.18 3.576 5.86 17.04-.64 17.968l-.21-.192c.08-6.112-7.55-12.776-6.07-18.096.98-3.504 4.3-5.4 8.7-5.4 8.05 0 9.17 8 3.29 10.8l-.35-.12z" stroke="#000" fill="#000"/><path d="M369.85 214.024c-.65-2.296-2.23-5.288-5.84-4.776l-.24.248c.17 3.84 6.2 15.536.46 17.6-.15-6.696-7.7-11.04-5.76-17.312.54-1.744 2.7-3.904 4.81-4.536a10.787 10.787 0 0 1 3.2-.528c7.25.12 9.14 6.136 3.37 9.304z" stroke="#000" fill="#FFF"/><path d="M359.57 211.768c.62-1.36 2.66-2.736 4.47-2.904.38-.04.68.232.83.56h-.17c-.21 0-.42.024-.62.064.01.248.04.504.08.776-.85.04-2.33.32-3.83 1.784-.7.688-1.07.4-.76-.28z" fill="#000"/><path d="M360 212.184l4.25-1.384m-3.93 2.608l4.2-1.44m-3.86 2.736l4.2-1.584m-3.4 2.824l3.79-1.568m-2.52 2.712l2.95-1.344m-.82 2.16l1.3-.576" stroke="#000" stroke-width="1.09" fill="#000" fill-rule="nonzero"/><path d="M369.14 207.68c-2.23-2.64-7.83-1.152-9.28.512-.1.12-.47-.064-.68-.128a.525.525 0 0 1-.08-.032c.39-.52.87-1.04 1.43-1.504 2.71-1.392 7.43-1.672 9.33.784.15.192.05.384-.13.464-.18.088-.44.08-.6-.104l.01.008z" fill="#000"/><path d="M404.76 210.624c-.28-2.056-1.28-5.384-4.72-4.96.18 3.576 5.86 17.04-.64 17.968l-.21-.192c.08-6.112-7.55-12.776-6.07-18.096.98-3.504 4.3-5.4 8.7-5.4 8.05 0 9.17 8 3.29 10.8l-.35-.12z" stroke="#000" fill="#000"/><path d="M405.19 209.688c-.65-2.296-2.23-5.288-5.84-4.776l-.24.248c.17 3.84 6.2 15.536.46 17.6-.15-6.696-7.7-11.04-5.76-17.312.54-1.744 2.7-3.904 4.81-4.536a10.787 10.787 0 0 1 3.2-.528c7.25.12 9.14 6.136 3.37 9.304z" stroke="#000" fill="#FFF"/><path d="M394.91 207.432c.62-1.36 2.66-2.736 4.47-2.904.38-.04.68.232.83.56h-.17c-.21 0-.42.024-.62.064.01.248.04.504.08.776-.85.04-2.33.32-3.83 1.784-.7.688-1.07.4-.76-.28z" fill="#000"/><path d="M395.34 207.848l4.25-1.384m-3.93 2.608l4.2-1.44m-3.86 2.736l4.2-1.584m-3.4 2.824l3.79-1.568m-2.52 2.712l2.95-1.344m-.82 2.16l1.3-.576" stroke="#000" stroke-width="1.09" fill="#000" fill-rule="nonzero"/><path d="M404.48 203.344c-2.23-2.64-7.83-1.152-9.28.512-.1.12-.47-.064-.68-.128a.525.525 0 0 1-.08-.032c.39-.52.87-1.04 1.43-1.504 2.71-1.392 7.43-1.672 9.33.784.15.192.05.384-.13.464-.18.088-.44.08-.6-.104l.01.008z" fill="#000"/><path d="M440.09 214.96c-.28-2.056-1.28-5.384-4.72-4.96.18 3.576 5.86 17.04-.64 17.968l-.21-.192c.08-6.112-7.55-12.776-6.07-18.096.98-3.504 4.3-5.4 8.7-5.4 8.05 0 9.17 8 3.29 10.8l-.35-.12z" stroke="#000" fill="#000"/><path d="M440.52 214.024c-.65-2.296-2.23-5.288-5.84-4.776l-.24.248c.17 3.84 6.2 15.536.46 17.6-.15-6.696-7.7-11.04-5.76-17.312.54-1.744 2.7-3.904 4.81-4.536a10.787 10.787 0 0 1 3.2-.528c7.25.12 9.14 6.136 3.37 9.304z" stroke="#000" fill="#FFF"/><path d="M430.24 211.768c.62-1.36 2.66-2.736 4.47-2.904.38-.04.68.232.83.56h-.17c-.21 0-.42.024-.62.064.01.248.04.504.08.776-.85.04-2.33.32-3.83 1.784-.7.688-1.07.4-.76-.28z" fill="#000"/><path d="M430.67 212.184l4.25-1.384m-3.93 2.608l4.2-1.44m-3.86 2.736l4.2-1.584m-3.4 2.824l3.79-1.568m-2.52 2.712l2.95-1.344m-.82 2.16l1.3-.576" stroke="#000" stroke-width="1.09" fill="#000" fill-rule="nonzero"/><path d="M439.81 207.68c-2.23-2.64-7.83-1.152-9.28.512-.1.12-.47-.064-.68-.128a.525.525 0 0 1-.08-.032c.39-.52.87-1.04 1.43-1.504 2.71-1.392 7.43-1.672 9.33.784.15.192.05.384-.13.464-.18.088-.44.08-.6-.104l.01.008z" fill="#000"/><g transform="translate(313 168.8)"><path d="M133.26 23.624c3.26 1.728 14.8 6.92 16.52 36.512 3.33 57.68-58.02 91.328-58.02 91.328s77.62-26.44 77.62-91.384c0-27.336-13.56-56.952-40.47-56.952l-14.8.04L92.64 11.2c-1.288-1.316-3.261-2.083-5.35-2.08-2.088-.002-4.061.765-5.35 2.08L60.46 3.16 45.2 3.12c-26.9 0-40.48 29.616-40.48 56.96 0 64.936 77.63 91.376 77.63 91.376S21 117.8 24.33 60.128c1.7-29.6 13.25-34.784 16.52-36.512l18.13 4.84 22.91-10.728c1.5 1.28 3.04 2.184 5.4 2.184 2.36 0 3.68-.744 5.4-2.184l22.76 10.856 17.81-4.96z" stroke="#000" fill="#000"/><path d="M118.45 2.512l-31.17 10.84-31.17-10.84-10.92.616c-26.9 0-40.48 29.616-40.48 56.96 0 64.936 77.62 91.376 77.62 91.376s-62.12-33.656-58.79-91.328c1.71-29.6 13.57-35.536 16.83-37.256l19.98 4.448 26.93-12.736 26.93 12.736 19.51-4.448c3.27 1.72 15.13 7.664 16.83 37.256 3.34 57.68-58.79 91.328-58.79 91.328s77.62-26.44 77.62-91.384c0-27.336-13.56-56.952-40.47-56.952l-10.46-.616z" stroke="#000" fill="#D99F31"/><path d="M124.34 14.328c-3.72.352-6.32 2.344-6.45 5.392-.08 1.632.9 4.048 2.3 5.072l-.84.736c-1.65-1.208-2.87-3.912-2.78-5.848.15-3.416 3.14-5.792 7.61-6.208l.16.856zm-74.51-.856c4.47.416 7.46 2.8 7.61 6.208.09 1.936-1.13 4.64-2.78 5.84l-.84-.72c1.4-1.032 2.38-3.448 2.3-5.08-.13-3.04-2.73-5.04-6.45-5.392l.16-.856zm-8.74 5.952c-5.4 2.792-10.3 8.08-13.03 13.544-.16.28-.39.368-.62.304-.22-.064-.3-.312-.2-.552 2.649-5.796 7.35-10.85 13.53-14.544l.32 1.248zm7.2-10.28c-13.21 0-23.02 7.44-29.64 21.176-.15.256-.45.448-.78.36-.26-.08-.3-.376-.17-.64 6.62-14 16.72-21.76 30.6-21.76 6.03 0 11.22 1.184 15.66 3.8l.24 1.28c-4.45-2.896-9.73-4.216-15.9-4.216h-.01zm0 2.848c-11.53 0-20.52 7.776-26.18 19.216-.16.272-.4.424-.71.32-.25-.08-.27-.376-.15-.616 5.38-11.568 14.82-19.784 27.04-19.784 6.13 0 11.39 1.552 15.81 4.96l-.2 1.104c-4.34-3.568-9.53-5.2-15.6-5.2h-.01zm13.22 10.08c-2.3-5.496-6.06-7.616-13.38-7.616-9.65 0-17.6 7.016-22.85 17.632-.13.24-.36.384-.64.304-.25-.064-.3-.336-.18-.584 5.11-10.784 13.32-18.464 23.67-18.464 7.69 0 11.8 2.528 14.02 7.872l-.64.856zm51.05.072l-.67-.768c2.2-5.44 6.29-8.016 14-8.032 12.43.04 21.97 11.24 26.93 25.864.1.288.03.6-.3.648-.3.048-.56-.144-.65-.416-4.97-14.424-14.44-24.936-25.9-24.984-7.39.016-11.12 2.16-13.41 7.68v.008zm43.38 17.408c.1.328.07.608-.3.68-.29.056-.55-.12-.65-.472-4.77-16.304-14.98-27.488-29.18-27.488-6.11 0-11.33 1.216-15.64 4.776l-.2-1.144c4.43-3.424 9.7-4.56 15.84-4.56 15.12 0 25.64 11.952 30.13 28.208zm3.83.432c.08.304-.05.6-.39.64-.31.04-.57-.176-.64-.48-4.7-17.84-15.8-30.968-33.15-30.968-5.764-.027-11.347 1.605-15.73 4.6l.17-1.28c4.433-2.79 9.92-4.29 15.56-4.256 18.29 0 29.68 13.84 34.18 31.744zM128.12 17.4c9.51.936 18.06 9.84 21.67 21.592.09.296 0 .592-.32.664-.3.064-.58-.096-.71-.48-4.12-12.656-12.27-19.736-20.76-20.6l.12-1.176z" fill="#000" fill-rule="nonzero"/><path d="M106.35 23.608c-.73-.688-2.93-3.192-2.93-8.216m-.3 6.696c-.68-.736-2.32-2.888-2.32-6.696m-.86 5.184c-1.197-1.557-1.808-3.357-1.76-5.184m-1.35 3.72c-.4-.64-1.11-2.024-1.11-3.72m-27.5 8.216c.72-.688 2.92-3.192 2.92-8.216m.3 6.696c.68-.736 2.32-2.888 2.32-6.696m.86 5.184c.59-.72 1.76-2.488 1.76-5.184m1.35 3.72c.4-.64 1.12-2.024 1.12-3.72" stroke="#000"/><ellipse fill="#D99F31" cx="87.28" cy="14.592" rx="6.2" ry="4.96"/><path d="M81.13 13.424c.598-2.154 2.877-3.748 5.625-3.935 2.749-.187 5.33 1.076 6.375 3.119m.33 3.248c-.709 2.13-3.046 3.655-5.797 3.782-2.75.128-5.292-1.172-6.303-3.222m7.55 1.296c-1.28.428-2.74.328-3.909-.27-1.169-.596-1.898-1.613-1.951-2.722m7.87 1.6c-.464.623-1.164 1.11-2 1.392m-1.2-1.52c-.572.1-1.17 0-1.644-.275s-.778-.699-.836-1.165m-2.12-.984c.13-.448.37-.72.47-.84" stroke="#000"/><path d="M81.13 13.424c0-2.336 2.56-4.288 6.15-4.288 2.74 0 5.85 1.536 5.85 3.472m.33 3.248c0 2.16-3.22 4.064-6.18 4.064-2.7 0-5.93-1.576-5.93-3.504" stroke="#000"/><path d="M110.35 24.976c3.277 3.542 8.452 5.639 13.96 5.656 7.4 0 13.03-3.68 13.03-9.552-.17-3.12-2.8-6.96-9.02-6.96-4.04 0-7.47 3.112-7.47 6.344 0 1.784.43 2.864 1.8 4.208-5.53-1.424-9.2-3.784-9.2-8.8 0-5.16 4.28-8.848 11.27-9.312C148.11 5 162.4 25.768 165.15 54.48c3.93 40.936-23.68 73.576-65.64 92.208-5.85 2.6-10.45 4.68-12.43 5.36l-.03 5.088c15.97-4.88 34.5-14.32 46.05-22.752 21.99-16.08 42.97-43.264 39.79-79.88-2.02-23.128-11.02-38.64-22.07-46.296-18.89-13.112-44.65-7.872-44.65 7.656.073 3.327 1.546 6.537 4.18 9.112zm-46.6 0c-3.277 3.542-8.452 5.639-13.96 5.656-7.4 0-13.03-3.68-13.03-9.552.17-3.12 2.8-6.96 9.01-6.96 4.04 0 7.47 3.112 7.47 6.344 0 1.784-.42 2.864-1.8 4.208 5.54-1.424 9.2-3.784 9.2-8.8 0-5.16-4.27-8.848-11.27-9.312C25.99 5 11.7 25.768 8.95 54.48c-3.93 40.936 23.67 73.576 65.63 92.208 5.86 2.6 10.45 4.68 12.44 5.36l.03 5.088c-15.98-4.88-34.5-14.32-46.05-22.752-21.99-16.08-42.97-43.264-39.79-79.88 2.01-23.128 11.02-38.64 22.06-46.296C42.17-4.904 67.93.336 67.93 15.864c-.073 3.327-1.546 6.537-4.18 9.112z" stroke="#000" fill="#000" fill-rule="nonzero"/><path d="M87.05 156.768c-15.98-4.888-34.5-14.936-46.05-23.376-22-16.08-41.58-42.64-38.4-79.264 2.02-23.12 10.56-37.76 21.6-45.432C43.1-4.4 67.46 1.56 67.46 15.864c0 7.872-7.98 14.272-17.83 14.272-5.96 0-12.25-3.864-11.63-9.68.27-3.119 3.556-5.517 7.463-5.449 3.906.069 7.057 2.58 7.157 5.705 0 1.784-1.46 3.512-3.03 4.584 6.22-.176 11.67-4.4 11.67-9.432 0-5.152-4.89-9.456-11.89-9.92-23.38-1.56-38.5 19.704-41.04 48.528-3.63 40.96 24.3 74.08 66.25 92.72a142.318 142.318 0 0 0 12.47 4.864c1.97-.664 6.58-2.256 12.46-4.872 41.96-18.64 69.88-51.744 66.26-92.712-2.55-28.824-17.66-50.08-41.05-48.536-7 .472-11.88 4.776-11.88 9.928 0 5.032 5.45 9.256 11.67 9.44-1.57-1.08-3.04-2.8-3.04-4.592.031-3.166 3.203-5.739 7.16-5.808 3.957-.07 7.266 2.39 7.47 5.552.62 5.816-5.67 9.68-11.63 9.68-9.85 0-17.83-6.4-17.83-14.272C106.64 1.56 131-4.4 149.89 8.696c11.05 7.664 19.59 22.312 21.6 45.432 3.18 36.616-16.4 63.192-38.4 79.264-11.55 8.44-30.07 18.48-46.04 23.376z" stroke="#000" fill="#F1BF31"/></g><g stroke-linecap="round" stroke-linejoin="round" transform="translate(249 168.8)"><path d="M53.44 117.416s-3.28-1.064-4.74-1.648c-2.52-1.008-8.21-6.608-14.57-9.56-9.76-4.528-19.2-3.36-27.83-6.32 1.93 7.224 8.02 13.752 18.1 17.208 8.28 2.84 21.64.4 23.1.496 1.45.096 6.06 1.52 6.06 1.52l-.12-1.696zm-35.22 9.016l.09-.208a168.803 168.803 0 0 0 15.53-2.6c11.5-2.336 16.9-.44 26.22 4.664.58.32 1.27.768 1.94.96 1.51.464 2.48.144 3.94.144l.14.024 2.18 1.36c.17.112.07.2-.09.224-1.9.32-4.5.312-6.5.168-3-.216-9.19 5.48-18 5.48-11.16 0-18.5-3.952-25.45-10.216z" stroke="#000" stroke-width=".93" fill="#000" fill-rule="nonzero"/><path d="M67.3 130.656c-1.74.048-3.6.048-5.31.28-5.14.688-10.22 5.16-18.02 5.344-10.39.24-16.95-3.68-24.04-9.264 10.32-1.24 18.3-6.008 28.96-3.328 5.47 1.376 11.89 6.88 17.02 6.088l1.4.88h-.01z" stroke="#000" stroke-width=".93" fill="#658D5C"/><path d="M60.88 129.56s-9.11 1.2-14.79 1.2c-9.16.024-23.19-3.04-23.19-3.04s13.99 3.392 23.2 3.544c5.66.088 14.78-.96 14.78-.96v-.744z" stroke="#000" stroke-width=".45" fill="#000"/><path d="M35.54 41.344c.07-.24.02-.512-.16-.856-.18-.352-.47-.736-.77-1.136-.3-.416-.64-.864-.9-1.32a3.672 3.672 0 0 1-.5-1.496l1.4-.32c.297 1.16 1.059 2.21 2.17 2.992l.43.36-1.18 2.096c-.08.16-.6 0-.5-.32h.01z" stroke="#000" stroke-width=".78"/><path d="M89.06 142.36c-.04-1.52.34-.96 2.38-.288.44.144.12.48-.26.672-1.22.608-2.3 1.904-2.82 1.616-1.4-.792-.52-.816.7-2z" stroke="#000" stroke-width=".78" fill="#000"/><path d="M40.16 35.152C34.13 47.4 32.1 69.104 34.18 78.96c6.41 30.288 37.6 58.696 66.15 63.28 24.83 4 39.97 12.896 49.85 22.384 6.46 6.208 9.91 9.024 19.19 21.376 3.39 4.52-2.41 5.432-4.8 1.688-6.53-10.208-10.05-14.752-19.04-22.776-9.66-8.624-23.87-16.36-47.06-20.064-27.65-4.416-60.05-32.872-66.46-63.16-2.08-9.856-.26-33.384 6.07-45.824l2.08-.72" stroke="#000" stroke-width=".93" fill="#000"/><path d="M81.29 141.064c-4.3.384-7.21 5.376-11.53 8.52-7.95 5.792-20.68 6.368-28.8 2.504-.34-.16-.52-.528-.13-.6 10.1-1.832 11.41-12.856 32.46-11.768 2.47.128 3.5.528 5.99.528l2.01.816zM65.3 89.816l.15.056c.1 4.92 4.77 11.64 5.91 17.056 1 4.664-.43 8.56-2.67 12.904-.55 1.08-1.87 3.256-1.92 4.32-.04 1 .73 1.92 1.4 2.736.22.296 1.62 1.76 1.47 2.04-5.57-3.864-2.3-1.344-4.61-4.904-1.2-1.84-2.63-3.504-3.81-5.36-6.26-9.76-6.38-20.848 4.09-28.848h-.01zm40.26 53.36c-2.74-.704-5.53-1.584-7.03-3.824-2.53-3.76-1.99-6.8-4.58-10.704-4.91-7.384-14.37-8.184-19.14-15.04-.97 6.312-2.03 15.728 10.24 22.464 4.32 2.368 10.9 2.912 12.5 3.864a9.42 9.42 0 0 1 2.54 2.32l5.47.92z" stroke="#000" stroke-width=".93" fill="#000" fill-rule="nonzero"/><path d="M100.24 142.024c-.9-.768-1.9-1.536-2.98-2.16-2.5-1.44-7.92-1.584-12.02-3.984-5.71-3.36-8.67-6.472-10.26-12-.97-3.352-.22-6.032-.03-8.816 5.15 5.984 14.1 6.544 18.88 13.704 2.91 4.352 2.53 10.96 8.49 13.6l-2.08-.344z" stroke="#000" stroke-width=".93" fill="#658D5C"/><path d="M51.36 109.12s-.35.32-.83 1.416c-.2.496 1.14 1.976 1.03 1.464-.28-1.256.5-2.144.5-2.144l-.7-.736z" stroke="#000" stroke-width=".78" fill="#000"/><path d="M53.44 117.416s-3.28-.56-4.74-1.144c-2.52-1.016-8.11-6.88-14.57-9.816-9.26-4.208-17.33-3.328-26.44-5.456 2.59 7.776 7.53 12.432 16.7 15.728 8.23 2.952 21.65.4 23.1.496 1.46.096 6.07 1.648 6.07 1.648l-.12-1.456z" stroke="#000" stroke-width=".93" fill="#658D5C"/><path d="M66.48 126.32c-.4-2.304-3.7-5.64-5.07-7.792-2.096-3.157-3.445-6.596-3.98-10.144-.97-7.632 1.21-11.744 7.5-17.4.04 1.656.31 2.24.94 3.776 2.63 6.48 6.3 11.824 5.11 18.864-.59 3.464-4.12 8.4-4.28 10.512-.09 1.104.69 2.384 1.37 3.312l-1.6-1.12.01-.008z" stroke="#000" stroke-width=".93" fill="#466343"/><path d="M42.92 105.696c-6.73-8.96-22.53-4.944-32.89-12.464-5.02-3.656-7.27-9.152-8.27-14.376-.3-1.552-1.13-7.728-.67-8.92.08-.224.36-.28.57-.112 3.44 2.688 6.88 4.424 10.85 6.576 9.44 5.112 13.31 9.904 18.18 17.88 6.37 10.432 12.14 4.48 12.23 11.416z" stroke="#000" stroke-width=".93" fill="#000"/><path d="M63.93 93.68s-2.14 8.96-1.81 14.72c.33 5.896 3.6 14.848 3.6 14.848h-.63s-3.38-8.944-3.6-14.84c-.2-5.792 2.44-14.72 2.44-14.72v-.008z" stroke="#000" stroke-width=".45" fill="#000"/><path d="M32.96 100.008c-3.62-.92-7.78-1.48-12.2-2.328-4.14-.8-7.52-2.608-10.68-4.88-4.9-3.536-6.51-8.28-7.47-13.36a31.29 31.29 0 0 1-.44-8.496c.4.56.9 1.104 1.55 1.48 3.21 1.84 6.56 3.12 9.78 4.984 2.81 1.632 4.81 2.704 7.12 4.784 2.89 2.613 5.374 5.495 7.4 8.584 1.62 2.456 3 5.328 5.1 7.552l-.16 1.68z" stroke="#000" stroke-width=".93" fill="#658D5C"/><path d="M33.12 98.328c1.08 1.16 5.45 2.656 7.05 2.824l1.54 3.08c-2.27-2.12-5.26-3.336-8.75-4.224l.16-1.68z" stroke="#000" stroke-width=".93" fill="#A48253"/><ellipse stroke="#000" stroke-width=".93" fill="#D99F31" cx="22.96" cy="75.032" rx="4.42" ry="3.536"/><path d="M23.47 71.904c-.239.45-.361.935-.36 1.424 0 1.552 1.15 2.824 2.56 2.824.4 0 .76-.104 1.1-.28.305-.882.117-1.827-.516-2.59-.634-.763-1.649-1.268-2.784-1.386v.008z" fill="#F1BF31"/><ellipse stroke="#000" stroke-width="1.24" cx="22.96" cy="75.032" rx="4.72" ry="3.776"/><path d="M36.01 73.464s2.06-6.144 4-9.944c4.6-8.992 12.56-9.336 16.61-16.456 2.33 4.808 4.18 10.992.12 17.928-4.68 8.016-16.66 12.72-16.66 12.72l-4.07-4.248z" stroke="#000" stroke-width=".93" fill="#000"/><path d="M56.59 48.68c5.98 13.064-1.92 22.472-16.42 28.96l-3.82-4.232c2.49-8.384 4.28-12.52 12.3-18.48 3.16-2.36 5.94-3.12 7.94-6.248z" stroke="#000" stroke-width=".93" fill="#466343"/><path d="M39.71 35.736C33.74 48.296 31.98 69.288 34.03 79c6.43 30.368 37.53 58.872 66.24 63.488 24.75 3.976 39.55 12.896 49.75 22.112 4.76 4.312 8.6 8.512 11.76 12.48 2.72 3.4 5.05 7.12 7.34 10.064.37.472-2.72 1.496-3.05 1.072-2.42-3.128-4.64-7.072-7.43-10.688-3.17-4.104-8.61-8.312-13.35-12.784-10.08-9.52-23.5-16.672-46.76-20.384-27.5-4.4-59.51-32.496-65.9-62.72-2.08-9.816-.55-32.592 4.92-44.624l2.16-1.28z" stroke="#000" stroke-width=".93" fill="#A48253"/><path d="M36.72 95.144c-1.23-.944-3.01-1.84-4.2-2.832-11.02-9.152-8.13-25.152 3.97-32.96.41-.264.72-.144.78.248A34.642 34.642 0 0 0 40 69.408c3.69 8.104 4.29 12.752.94 19.656-2.05 4.208 0 7.92 0 7.92l-4.22-1.84z" stroke="#000" stroke-width=".93" fill="#000"/><path d="M75.6 134.568c-7.05-1.928-14.34-1.408-20.2-6.28-6.78-5.624-8.24-14.32-6.47-19.336.08-.24.32-.44.51-.256 1.5 1.472 2.3 2.536 4.28 3.704 7.07 4.168 15.74 6.256 18.74 12.632.6 1.264.8 2.592 1.35 3.872 1.91 4.376 5.04 5.696 9.58 8.088l-7.79-2.424z" stroke="#000" stroke-width=".62" fill="#000"/><path d="M81.12 136.896c-6.6-4.48-18.5-2.88-25.58-8.944-5.2-4.464-7.4-11.496-6.1-17.6 6.28 4.48 13.59 5.72 19.3 10.744 6.74 5.92 1 9.904 13.68 15.664l-1.3.136z" stroke="#000" stroke-width=".93" fill="#658D5C"/><path d="M45.87 104.752l.01-.136c1.64-1.56.5-6.256-.03-8.136a18.447 18.447 0 0 1-.37-9.344c.78-3.808 3.4-7.256 6.07-10.416 1.2-1.408 5.07-5.808 5.47-7.4.03-.136.21-.128.29 0 1.48 2.584 2.25 5.728 2.85 8.512.83 3.904 1.1 7.448-.6 11.888-1.238 3.467-3.533 6.634-6.68 9.216-1.32 1.136-4.42 3.624-4.88 4.96-.08.256-.6 2.048-.5 3.36l-1.63-2.504z" stroke="#000" stroke-width=".93" fill="#000"/><path d="M34.94 53.4s.2.024 1.1-.448c1.076-.557 1.914-1.363 2.4-2.312.46-1.016 3.65-9.488 7.9-14.728 4.98-6.128 10.14-8.88 16.4-13.376.98 4.856 1.13 12.768-4 19.12-4.7 5.816-16.61 9.952-18 10.384-1.38.432-3.74.752-5.1 2.2-.77.816-1.3 2.4-1.3 2.4l.6-3.24z" stroke="#000" stroke-width=".95" fill="#000"/><path d="M33.44 54.208s-.52-.016-1.18-.776c-.821-.912-1.287-1.997-1.34-3.12 0-2.528 3-10.112 1.51-15.848-2.84-10.96-7.14-15.344-7.8-19.408-.27-1.624-11.45 11.064-8.05 22.832 1.69 5.84 10.16 12.36 11.35 13.216 1.2.856 2.81 1.968 3.6 3.68.8 1.76.62 3.776.62 3.776l1.3-4.352h-.01zM40 35.368c.8-1.568 2.14-3.424 3.37-4.24 3.02-2.024 11.49-7.056 14.38-10.72C64.19 12.24 62.89 2.176 62.21.424c-5.58 3.888-10.67 6.448-16.37 12.88-4.96 5.608-6.05 16.584-6.43 18.664-.42 2.264-1.68 4.72-1.68 4.72l2.27-1.32z" stroke="#000" stroke-width=".93" fill="#000" fill-rule="nonzero"/><path d="M35 55.176l.22-1.576c1.59-.566 2.849-1.596 3.52-2.88 2.66-5.104 4.29-10.296 8.04-15.008 4.86-6.128 10.07-8.512 15.33-11.872.25 5.408 1.44 11.112-3.95 18.208-3.06 4.024-11.98 8.016-17.53 9.76-2.48.792-4.26 1.424-5.63 3.368z" stroke="#000" stroke-width=".95" fill="#658D5C"/><path d="M12.12 44.384c8.5 5.672 10.93 8.32 13.44 17.096.29 1.024 1.92 5.464 2.26 6.016.82 1.304 2.52 1.92 3.57 2.992.1.12.4 2.432.44 2.736.02.184-.15.176-.28.08-1.33-.96-2.02-2.48-3.57-3.392-1.33-.776-5.82-1.544-7.75-2.184-4.95-1.632-8.99-4.688-11.85-8.264-3.78-4.72-4.2-11.152-3.3-16.56.21-1.248.42-2.744.97-3.92.08-.16.2-.128.3 0 2.02 2.52 3.31 3.76 5.77 5.4z" stroke="#000" stroke-width=".93" fill="#000"/><path d="M31 70.712l.23 1.6c-4.04-4.368-5.4-3.08-10.98-4.928-4.86-1.608-8.81-4.608-11.64-8.128-4.22-5.248-4.14-13.016-2.36-18.928 2.27 3.568 11.13 7.152 14.54 11.616 2.18 2.864 3.54 6.272 4.63 9.504.54 1.616 1.15 4.88 1.99 6.208.62 1 2.5 2.336 3.58 3.056H31zm15.37 34.128c1.5-1.84.18-6.504-.3-8.624-.74-3.264-.8-6.088-.13-9.392 1.09-5.392 5.36-9 9.12-13.376.768-.85 1.46-1.743 2.07-2.672 4.33 9.76 5.55 19.72-3.9 27.912-1.42 1.232-4.84 3.616-5.37 5.12-.28.8-.38 1.656-.46 2.48l-1.03-1.44v-.008z" stroke="#000" stroke-width=".93" fill="#658D5C" fill-rule="nonzero"/><path d="M82.31 139.568s-.53.68-3.04.68l1.25.976.77-.16c2.4-.392 3.13-.336 4.7.152" stroke="#000" stroke-width=".93" fill="#A48253"/><path d="M79.27 140.248c-2.5 0-10.34-1.04-16.61.272-9.45 1.976-13.36 9.056-20.47 11.568 10.8 3.72 18.7 2.8 27.69-2.944 3.62-2.32 5.92-6.736 10.64-7.92l-1.25-.976z" stroke="#000" stroke-width=".93" fill="#466343"/><path d="M156.4 176s.1-1.104 1.7-1.544c1.37-.384 2.08.488 2.08.488" stroke="#000" stroke-width=".93"/><path d="M91.48 142.304s-.85.4-1.1.576c-.58.416-1.35.72-1.58 1.056l-.93-.064c.58-.384 1.18-1.04 1.51-1.36.2-.176 0-.88 0-.88l2.1.672z" stroke="#000" stroke-width=".78" fill="#A48253"/><path d="M38.56 35.656c1.7-3.84 1.66-8.12 2.6-12.104 2-8.416 5-11.152 12.6-16.776 2.41-1.8 4.9-3.104 7.53-4.688.42 2.416.62 4.448.31 6.88-1.5 11.888-7.82 14.696-18.43 21.96-2.06 1.408-2.6 3.384-4.61 4.728z" fill="#658D5C"/><path d="M38.96 34.656c.28-.32.54-.512.69-.456.11.04.13.232.06.496-.33.344-.7.664-1.15.96.14-.328.28-.664.4-1z" fill="#A48253"/><path d="M38.56 35.656c1.7-3.84 1.66-8.12 2.6-12.104 2-8.416 5-11.152 12.6-16.776 2.41-1.8 4.9-3.104 7.53-4.688.42 2.416.62 4.448.31 6.88-1.5 11.888-7.82 14.696-18.43 21.96-2.06 1.408-2.6 3.384-4.61 4.728z" stroke="#000" stroke-width=".93"/><path d="M39.22 36.096s.39-.936.96-2.128c.58-1.184.43.32.43.32l-.34 1.296-1.05.512z" fill="#000"/><path d="M33.06 54.368l-.78 2c-.44-2.6-1.8-3.76-4.14-5.448-10.18-7.368-14.53-16.04-10.26-26.184 1.17-3.104 3.255-5.939 6.08-8.264a37.56 37.56 0 0 1 4.34 7.32c3.49 7.504 4.88 11.752 3.5 20.352-.5 3.04-2.32 6.736.2 9.44.28.288.62.64 1.06.784z" fill="#658D5C"/><path d="M33.06 54.368l-.78 2c-.44-2.6-1.8-3.76-4.14-5.448-10.18-7.368-14.53-16.04-10.26-26.184 1.17-3.104 3.255-5.939 6.08-8.264a37.56 37.56 0 0 1 4.34 7.32c3.49 7.504 4.88 11.752 3.5 20.352-.5 3.04-2.32 6.736.2 9.44.28.288.62.64 1.06.784z" stroke="#000" stroke-width=".93"/><path d="M32.76 58.776s.25-1.968-.13-3.168c-.19-.6-.68-1.48-.68-1.48s1.22.496 1.5.456c.28-.04-.68 4.192-.68 4.192h-.01zm4.16-19.312c-.59.192-2.39-1.84-2.6-3.216-.22-1.312-.89-.768-.8.272.14 1.936 3.03 4 2.63 5.232.54-1.056.8-1.816.77-2.288z" fill="#A48253" fill-rule="nonzero"/><path d="M36.92 39.464c-.59.192-2.39-1.84-2.6-3.216-.22-1.312-.89-.768-.8.272.14 1.936 2.72 3.656 2.32 4.88" stroke="#000" stroke-width=".78"/><ellipse fill="#D99F31" cx="32.44" cy="34.008" rx="4.42" ry="3.536"/><path d="M32.7 33.672c-1.19-.672-1.72-1.728-1.17-2.352.55-.632 1.97-.6 3.17.08 1.2.664 1.72 1.72 1.17 2.344-.55.632-1.97.592-3.16-.08l-.01.008z" fill="#F1BF31"/><ellipse stroke="#000" stroke-width="1.31" cx="32.4" cy="34.112" rx="4.61" ry="3.688"/><ellipse fill="#D99F31" cx="54.96" cy="106.736" rx="4.57" ry="3.656"/><path d="M54.43 106.376c-.98-1.072-1-2.384-.07-2.928.93-.544 2.48-.112 3.45.96.98 1.08 1.01 2.384.08 2.928-.94.544-2.48.112-3.46-.96z" fill="#F1BF31"/><ellipse stroke="#000" stroke-width="1.4" cx="54.96" cy="106.736" rx="4.8" ry="3.84"/><path d="M157.8 177.24s.05-1.112 1.69-1.424c.826-.18 1.696.132 2.08.744l-3.77.68zm11 11.808c-2.99.496-4.81-2.504-3.79-3.24.67-.48 2.32-.384 3.54.096 2.16.84 1.58 2.928.25 3.144z" stroke="#000" stroke-width=".93"/><path d="M168.8 189.048c-2.48.504-4.43-2.16-3.79-2.744.6-.544 1.85-.576 3.06-.104 2.17.848 2.05 2.584.73 2.848z" fill="#A48253"/><path d="M168.8 189.048c-2.48.504-4.43-2.16-3.79-2.744.6-.544 1.85-.576 3.06-.104 2.17.848 2.05 2.584.73 2.848z" stroke="#000" stroke-width=".93"/><path d="M38.44 36.144c3.14-7.328 4.9-12.48 10.1-19.64 3.54-4.864 10.48-11.76 10.48-11.76s-6.54 7.072-9.93 11.976c-4.8 6.928-5.87 9.912-9.7 18.768l-.95.656zM23.55 19.856s-1.15 11.512.66 18.64c1.63 6.4 7.27 15.704 7.27 15.704s.32.184-1.32-3.264c-1.68-3.544-3.82-7.456-5.18-12.464-1.93-7.104-1.43-18.616-1.43-18.616zM10.1 49.76s1.9 3.984 3.54 6.368c4.48 6.536 8.32 9.952 15.97 14.216l.22-.552c-7.37-4.184-10.84-7.528-15.58-13.664-1.83-2.384-4.15-6.368-4.15-6.368zm27.38 2.672s9.16-6.76 13.84-12.048c4.14-4.68 9.1-12.968 9.1-12.968s-4.53 8.392-8.55 13.096c-4.5 5.28-13.15 11.92-13.15 11.92h-1.24zm8.97 53.008c1.75-3.36 4.37-7.984 6.32-13.312 2.46-6.68 3.91-9.936 4.2-17.544-.15 7.6-1.16 10.224-3.17 16.544a85.512 85.512 0 0 1-5.8 13.464l-1.55.84v.008zm-5.21-33.704s6.9-4.824 9.98-9.144c4.06-5.696 4.74-10.264 4.74-10.264s-.06 4.592-4.12 10.288c-3.08 4.32-10.33 9.832-10.33 9.832l-.27-.72v.008zm-7.86 27.368s-5.95-3.016-9.21-5.208C11.51 85.36 3.58 73.864 3.58 73.864s7.25 12.144 20.12 20.528c3.42 2.224 9.68 5.336 9.68 5.336v-.624z" stroke="#000" stroke-width=".45" fill="#000" fill-rule="nonzero"/><path d="M34.2 100.328s-1.14-.384-.55-1.256" stroke="#000" stroke-width=".93"/><path d="M79.64 135.2c-5.59-2.816-13.44-7-20.53-12.816a134.634 134.634 0 0 1-5.91-5.336s2.83 3.536 5.14 5.456c6.31 5.264 14.99 10.192 20.57 13l.73-.312v.008zm19.33 5.36s-10.5-6.024-15.23-11.288c-2.262-2.423-4.13-5.065-5.56-7.864 1.733 2.804 3.856 5.442 6.33 7.864 4.73 4.792 14.46 10.544 14.46 10.544v.744zm-52.02 10.808c15.45-1.72 21.46-8.936 34.61-10.576-1.38.056-1.13-.376-2.39-.16-11.6 1.952-18.7 8.976-32.22 10.736z" stroke="#000" stroke-width=".45" fill="#000" fill-rule="nonzero"/><ellipse fill="#D99F31" cx="65.8" cy="136.968" rx="4.57" ry="3.656"/><path d="M70.29 136.272c-.04.12-.1.24-.18.344-.67.928-2.5 1.08-4.1.344-1.6-.736-2.34-2.08-1.67-3.008.19-.272.47-.472.82-.608 2.409-.27 4.66 1.018 5.12 2.928h.01z" fill="#F1BF31"/><ellipse stroke="#000" stroke-width="1.4" cx="65.8" cy="136.968" rx="4.8" ry="3.84"/><path d="M81.8 138.664s.43.192.7.432c.26.24.36.528.17.712 0 0 .1.208.45.4.46.272 1.06.256 1.73.336.85.112 1.45.2 2.05.344.6.144 1.36.392 1.36.392l-3.43-1.36-3.03-1.256z" fill="#A48253"/><path d="M48.76 117.24s-8.53-1.792-19.42-5.04c-10.9-3.256-18.24-8.696-18.24-8.696s7.34 4.944 18.24 8.2c10.9 3.248 19.42 4.792 19.42 4.792v.744z" stroke="#000" stroke-width=".45" fill="#000"/><ellipse stroke="#000" stroke-width="1.24" fill="#D99F31" cx="85.69" cy="147.176" rx="4.88" ry="3.904"/><path d="M89.15 149.56c-1.46.448-3.39-.32-4.47-1.816-1.17-1.624-.92-3.496.57-4.184l.06-.024.37-.016c1.787-.002 3.411.83 4.158 2.13.746 1.298.477 2.826-.688 3.91z" fill="#F1BF31"/><ellipse stroke="#000" stroke-width=".93" cx="85.68" cy="147.176" rx="4.57" ry="3.656"/><path d="M40.6 97.24s.51 1.272.92 2.064c.3.584.84 1.48.84 1.48s-1.12.192-1.12.088c0-.096-.88-3.616-.88-3.616l.24-.016z" fill="#A48253"/><path d="M40 97.976c-1.65-2.016-5.16-4.272-7.14-5.92-3.371-2.716-5.58-6.217-6.31-10-1.84-9.232 1.52-15.44 9.94-21.68.54 6.48 5.17 11.84 6.15 18.32 1.4 9.28-5.98 11.032-.85 20.112l-1.78-.832H40z" fill="#658D5C"/><path d="M38.89 96.136l.23.896c.33.32.63.64.88.944l1.47.68-.78-2.128-1.8-.392z" fill="#A48253"/><path d="M40 97.976c-1.65-2.016-5.16-4.272-7.14-5.92-3.371-2.716-5.58-6.217-6.31-10-1.84-9.232 1.52-15.44 9.94-21.68.54 6.48 5.17 11.84 6.15 18.32 1.4 9.28-5.98 11.032-.85 20.112" stroke="#000" stroke-width=".93"/><path d="M40 96.064c-3.36-4.04-4.02-6.016-5.43-10.176-2.67-7.816-2.69-17.304-.18-20.776-2.5 3.472-3.03 12.912-.6 20.784 1.37 4.432 2.46 6.752 5.57 10.832l.64-.664z" stroke="#000" stroke-width=".45" fill="#000"/><path d="M39.59 97.512c-.82-.768.23-2.024 1.17-.92" stroke="#000" stroke-width=".93"/></g><g stroke-linecap="round" stroke-linejoin="round"><path d="M514.67 206.144a.413.413 0 0 1 .04-.216s.3-.344.6-.912c.3-.584.61-1.384.63-2.272l1.66.272c-1.39 3.952-1.44 5.36-1.44 5.36-.01.32-.49.376-.6.064l-.9-2.296h.01z" stroke="#000" stroke-width=".78" fill="#000"/><path d="M519.12 220.248c1.33-.696 1.77-2.48 1.85-3.648.15-2.08-2.02-3.92-2.13-5.856-.07-1.24 1.27-1.36 1.52-2.328.22-.864-3.96-3.888-2.83-6.272.8-1.704 2.5-.864 3.15-2.64.68-1.888-1.44-4.584 1.29-5.848 1.32-.616 3.26.28 3.84-1.376.58-1.68.12-5.016 3.14-5.248 4.01-.32 4.63 6.256 5.37 6.72.76.48 1.8-.4 2.88-.056 2.95.936-.2 5.28-1.22 6.736 7.47.24.64 3.96-.5 5.616.31.6 2.22.824 2.54 1.744.2.608-.36 1.136-.89 1.504-1.67 1.184-4.17 1.632-5.99 2.584l-.25.144c-.06.544 1.84 2.144-.72 2.824-4.76 1.272-7.8 2.104-9.63 5.952-.5 1.04-.67 4.2-.76 3.88l-.66-4.432z" stroke="#000" stroke-width=".93" fill="#000"/><path d="M519.85 223.256l-.83-2.904c.22-.096.41-.24.6-.384.97-.744 1.43-2.8 1.5-3.84.17-2.248-1.87-3.536-1.97-5.408-.06-.968 1.29-1.32 1.5-2.24.28-1.16-3.75-3.992-2.7-6.2.73-1.504 2.47-.72 3.17-2.68.62-1.696-1.22-4.728 1.08-5.752 1.38-.608 3.38.376 4.05-1.6.51-1.48.12-4.016 2.74-4.232 3.58-.28 4.11 5.456 5.04 6.024 1.03.632 1.85-.184 2.84.12 1.5.472 1.12 2.12.79 3.064-.4 1.104-1.06 2.016-1.64 3.04-.1.208-.11.4.2.496.93.28 1.73.16 2.06 1.144.44 1.336-2.13 2.8-2.7 3.864-.44.824 1.3 1.032 1.52 2.128.32 1.536-6.15 3.272-6.65 4-.06 1.008 1.62 2.048-.42 2.6-5.12 1.368-10.24 3.952-10.18 8.76z" stroke="#000" stroke-width=".93" fill="#658D5C"/><path d="M519.4 220.688s6.53-9.296 8.41-15.896c1.3-4.576 1.88-11.968 1.88-11.968s-.28 7.368-1.41 11.952c-1.72 6.96-8.47 16.784-8.47 16.784l-.41-.872z" stroke="#000" stroke-width=".45" fill="#000"/><path d="M519.6 229.52c0-.04.06-.184.09-.216 0 0 1.27-1.072 2.03-1.76.3-.264.48-.584.6-.848.1-.256.13-.44.13-.44.03-.16.2-.256.4-.2l2.18.576c.3.08.33.288.08.432-.02.008-1.67.944-2.27 1.52-1.03.855-1.786 1.899-2.2 3.04-.12.296-.53.272-.6-.048l-.43-2.056h-.01z" stroke="#000" stroke-width=".78" fill="#000"/><path d="M520.35 231.536c.54-1.336.91-1.84 2.25-3.12.63-.592 2.33-1.552 2.33-1.552l-2.17-.576s-.14.824-.8 1.424c-.77.688-2.05 1.76-2.05 1.76l.44 2.064z" stroke="#000" stroke-width=".78" fill="#A48253"/><path d="M511.7 197.88s2.72 4.344 5.07 11.032c4.83 13.8 5.46 31.72 3.38 41.576-6.41 30.288-40.67 58.616-68.32 63.04-23.2 3.696-36.87 11.6-46.6 20.184-7.55 6.984-10.47 11.152-17.33 22.32-2.1 3.44-9.01 4.12-6.04-.72 5.37-7.6 10.47-14.608 18.35-22.08 10.23-9.248 24.93-18.32 49.76-22.32 28.55-4.584 61.44-32.864 67.85-63.152 2.09-9.856 1.44-31.336-5.52-45.152l-.6-4.728" stroke="#000" stroke-width=".93" fill="#000"/><path d="M497.25 192.264s-8.04-.24-4.17-5.12c-3.69-1.44-8.13-4.08-3.37-6.24-.22-.736-3.03-1.448-2.82-3.192.13-1 1.71-1.456 1.85-1.888-.53-.792-4.2-4.56-2.93-5.688 1.96-1.728 6.18.352 8.1 1.28.48-.24 1.19-.712 1.66-.96 2.8-1.488 3 2.104 3.76 3.256.36.528 2.57-.904 4.06-.264 2.59 1.088 1.45 3.76 2.1 5.56.65-.056 1.58-.48 2.22-.512 4.2-.224 1.92 5.68 1.75 7.528 6.66-.768 1.53 4.704 1.9 9.4.1 1.296-.4 4.16-1.65 3.056-3.94-3.472-14.9-2.52-12.45-6.216h-.01z" stroke="#000" stroke-width=".85" fill="#000"/><path d="M496.32 211.624c-1.44-.096-4.56-.448-5.18-1.544-.97-1.736 1.56-2.328 1.43-2.456-.88-.944-5-1.552-5.01-2.88-.02-.92 1.92-1.584 1.58-2.432-.47-1.16-3.24-2.92-2.17-4.208 1.3-1.552 4.04.536 5.35.52.63 0 1.52-1.12 2.72-1.128 1.77-.024 2.85 2.72 3.52 2.656.74-.08 1.19-.896 1.91-1.072 2.22-.536 2.85 1.384 3.38 2.64 1.03 2.464 2.14-.472 3.8.112 4.22 1.472 2.49 8.08 3.71 8.864.74.48 2.12.424 2.66 1.096 1.15 1.44-.43 4.336.46 6.928.36 1.048 4.45 4.104 4.45 4.104s.64 3.048.54 2.888c-1.85-2.84-2.25-3.512-5.55-5.528-3.18-1.944-8-.4-9.12-1.424-1.23-1.128.2-2.16-.45-2.664-.24-.184-3.97.128-4.53.08-2.65-.216-5.08-2.144-3.5-4.56v.008z" stroke="#000" stroke-width=".98" fill="#000"/><path d="M518.51 222.56l.43 1.896c-6.8-7.776-12.34-4.68-13.8-5.944-1.1-.96.3-1.656-.6-2.408-.95-.8-6.67.888-8.36-2.656-.36-.744.9-1.96.27-2.064-1.45-.224-3.4-.192-4.39-1.24-.41-.432-.77-1.032-.23-1.504.28-.24.61-.448.85-.728.88-1.048-4.49-1.864-4.5-3.424-.02-.896 1.46-1.216.92-2.32-.47-.968-2.1-2.56-1.27-3.616 1-1.272 3.27.328 4.53.448.62.056 1.67-1.112 2.7-1.136 1.62-.04 2.31 2.376 3.55 2.28 1.22-.096 2.6-1.6 3.92-.296.92.92.9 3.584 3.07 2.816.52-.192 1.29-.696 1.87-.488 3.46 1.2 2.58 5.648 3.44 8.024.46 1.272 2.11.992 2.7 1.776.3.384.53.824.58 1.272.04.384-.03.76-.1 1.144-.27 1.536-.09 2.912.4 4.416.39 1.2 2.5 3.424 4.02 3.752z" stroke="#000" stroke-width=".98" fill="#658D5C"/><path d="M520.09 246.272l.34-.224c1.2-.016 2.02-2 2.39-2.76 1.5-3.144-1.2-8.368 3.34-8.352.24-1.296.57-4.496 2.05-5.352 1.07-.616 2.12.16 3.15-.08.76-1.224 1.12-3.552 3.3-3.88.7-.104 2.15.8 2.39.696.6-.24 1.3-2.736 3.05-3.112 1.07-.232 2.09.656 2.48.456.64-.32 1.26-.856 1.79-1.312 2.28-1.944 5.12-1.984 5.04.616-.03.928-.76 2.232-1.18 3.072-.14.288 1.43.88 1.67 1.256.8 1.224-2.02 2.68-2.66 3.648.05.16 1.5.4 1.72.64 1.89 2.112-3.57 4.424-4.95 5.72-.54.512 1.32 1.648 1.06 2.528-1.04 3.544-7.86 2.24-9.37 2.792-.53.192-.69 2.08-1.13 2.568-1.92 2.08-9.53-.456-11.25.84-1.58 1.184-2.1 3.208-3.1 4.648-.22.32-.64.216-.6-.104l.47-4.304z" stroke="#000" stroke-width=".93" fill="#000"/><path d="M520.54 246.424c1.4-.056 2.28-2.104 2.7-3 .56-1.16.81-2.32.87-3.56.08-1.8-1.53-4.96 1.97-4.536 0 0 .73-4.216 2.25-5.192.98-.64 2.74-.272 3.16-.528 1.01-.592.62-3.168 2.8-3.496.84-.128 2.35.544 2.99.288.8-.32 1.09-2.256 2.63-2.584.96-.2 2.23.624 2.86.32 1.33-.664 2.33-2.76 4.2-2.344 2.12.48 1.38 3.04.84 4.096-.39.752.68 1.024 1.06 1.576.71 1.04-1.65 2.688-1.94 3.6-.11.344.93.76 1.19.984 1.57 1.344-2.48 3.72-3.57 4.464-.32.216-1.03.656-1.06 1.016-.09.752.93 1.304.67 2.224-.9 3.12-6.32 2.192-8.45 2.768-.86.224-.99 1.624-1.52 2.208-1.7 1.872-9.18.064-11.2 1.528-1.2.88-2.16 2.384-2.82 3.568l.37-3.4z" stroke="#000" stroke-width=".93" fill="#658D5C"/><path d="M521.66 245.624c.23-.056 9.06-5.68 14.02-9.992 4.07-3.52 9.46-9.696 9.46-9.696s-5.33 6.288-9.3 9.944a135.889 135.889 0 0 1-14.18 10.856c-.24.056-.24-1.064 0-1.12v.008z" stroke="#000" stroke-width=".45" fill="#000"/><path d="M523.7 227.552c-2.08-.96-1.78-6.136 1.26-8.48 2.56-1.976 9.71 3.84 7.5 6.24-1.24 1.336-6.58 3.264-8.77 2.24h.01z" stroke="#000" stroke-width=".93" fill="#000"/><path d="M532.5 224.424c-1.29.848-4.27-.256-5.79-1.472-1.39-1.12-2.23-2.816-1.4-3.6 1.64-1.56 6.2-3.792 8.4-2.32 2.18 1.464-.05 6.624-1.21 7.392z" stroke="#000" stroke-width=".93" fill="#000"/><path d="M532.08 225.096c-1.17 1.264-6.26 2.888-8.15 2.016-1.64-.768-1.62-5.472 1.36-7.776 1.88-1.456 8.89 3.48 6.79 5.76z" stroke="#000" stroke-width=".93" fill="#A48253"/><path d="M533.25 217.44c1.82 1.224.06 5.968-1.05 6.696-.94.616-3.61-.208-5.16-1.44-1.4-1.136-2.08-2.712-1.53-3.232 1.68-1.6 5.92-3.24 7.74-2.016v-.008z" stroke="#000" stroke-width="1.09" fill="#D99F31"/><path d="M531.9 217.472c-.604.583-.918 1.324-.88 2.08 0 1.344.84 2.448 1.89 2.48.14-.36.27-.744.37-1.144.17-.688.26-1.384.19-1.952-.07-.56-.29-.96-.58-1.16l-.01-.016a2.09 2.09 0 0 0-.97-.288h-.02.01z" fill="#F1BF31"/><path d="M493.75 229.44c-.58-1.44-3.34-2.424-3.63-4.152-.13-.784.94-2.12.85-2.352-.48-1.24-3.07-2.848-1.74-4.4 1.72-2 4.16.064 6.2.536.33-.096.44-.992 1.24-1.16 3.11-.664 5.83 3.384 6.65 3.632 2.41.728 4.3-2.688 5.62 4.784 1.04-.2 2.44-.4 3.07.448 2.57 3.52 1.06 11.12 6.2 13.152l.17.272c-.07.296-.24 2.544-1 1.808-1.3-1.256-2.31-3.04-4.57-3.36-2.39-.336-12.8 2.68-13.09-1.112-.03-.44.73-1.056.48-1.488-.6-1.04-6.86-.68-7.51-3.48-.26-1.096.7-2.096 1.06-3.128z" stroke="#000" stroke-width=".86" fill="#000"/><path d="M517.58 241.552c-3.83-4.76-5.55-2.96-11.36-2.616-1.33.08-5.8.232-5.73-1.56.03-.512.51-.64.11-1.264-.84-1.312-6.08-1.072-6.87-3.504-.41-1.264.45-2.96.23-3.44-.73-1.584-3.98-3.064-3.02-5.136.13-.272.32-.528.39-.824.2-.912-2.15-3.016-1.1-4.36 1.2-1.576 3.31-.336 4.92.248 1.15.416.86-.4 1.62-.6 1.33-.352 2.98.664 3.87 1.344.5.384 2.08 1.888 2.48 2.04.94.352 2.53-.048 3.62.256.98.28 1.64 3.56 1.79 4.4l.19.104c.89-.16 2.2-.152 2.73.544 2.43 3.168 1.24 10.736 6.45 13.04l-.32 1.328z" stroke="#000" stroke-width=".86" fill="#658D5C"/><path d="M517.28 241.328s-6.92-9.152-12.9-13.944c-3.8-3.048-10.63-7.056-10.63-7.056s6.9 4.184 10.64 7.408c5.45 4.688 11.5 13.6 11.5 13.6h1.39v-.008z" stroke="#000" stroke-width=".45" fill="#000"/><path d="M509.88 255.424c.31.12.97.024 1.38.112 3.05.672-1.31 7.744-1.56 9.296-.06.408.27 1.752.24 1.84l-.67 3.008c-.12.32.07-2.992-.53-3.816-1.06-1.464-4.41-.672-6.13-.88-2.85-.36-.63-2.304-1.86-2.696-2.04-.656-6.3.272-6.8-2.16-.2-.904.55-1.872.47-2.648-1.46-1.36-5.22-1.656-4.78-4.04.15-.824 1.65-1.696 1.6-2.24-.04-.64-3.14-2.456-2.4-3.784.45-.8 1.32-.808 1.4-1.28.1-.488-2.5-3.608-.32-4.456 2.62-1.008 4.79 1.36 6.68 1.464.96.056 1.8-1.2 3.25-.936 1.53.272 1.7 1.904 2.4 2.816.67.016 1.33-.56 2.08-.616 3.2-.272 2.7 3.824 3.52 5.24.1.168 1.06-.296 1.46-.176.67.208.92.8 1.01 1.328.28 1.536-.74 3.176-.44 4.624zm20.26 6.144c.6 4.824-7.58.072-12.08 1.992-1.35.56-4.49 2.488-4.26 2.032l1.13-2.288c.38-.248 1.59-.256 2-.4.98-.36 2.32-1.6 3.21-2.936 1.24-1.864.4-3.96 1.15-5.328 1.16-2.088 2.96-.168 3.74-.616 1.44-.84 1.69-5.064 5.2-5.104.93-.016.92.128 1.56.376.73-.848.97-1.904 2.39-2.256 1.03-.256 1.73.48 2.68.464.68-.424 3.32-3.96 5.48-3.544 2.43.464.97 3.92.78 5.192.27.24.6.232 1.03.688 1.68 1.792-.95 3.704-1.85 5.12.24.416.92.392 1.06.928.6 2.192-4.59 2.456-5.13 3.04 0 .208.4.44.36.896-.26 2.68-8.03 1.968-8.45 1.744zm-52.55 15.928c.15-.912-2.24-2.304-1.24-3.56.82-1.024 2.68-.496 3.43-1.016.65-1.624-.43-3.808 2.39-4.32 1.42-.248 2.2.912 2.67 1.792.18.32.8 2.344 1.05 2.416.53.152 1.93-.64 2.63-.568 1.9.216.4 3.072.98 3.88.4.56 1.42.12 2.07.296 1.92.528.43 3.088.43 4.184 0 .664 1.39.872 1.5 2 .2 2.04-1.95 2.264-3.17 3.576-.17.192-.21.28-.02.464 2.1 2.056.91 3.056-1.42 4.416-2.75 1.6-6.98 2.608-5.42 6.024 0 0-1.4 2.28-1.54 1.52-.22-1.12.46-2.256.07-3.472-.41-1.296-5.36-2.992-5.56-4.392-.14-.984 1.29-1.136 1.4-2.016.13-1.008-4.3-1.944-3.78-3.944.28-1.08 1.72-1.392 2.35-2.264-.1-.848-5.04-3.864-.7-4.648.54-.104 1.4-.096 1.88-.368z" stroke="#000" stroke-width=".93" fill="#000" fill-rule="nonzero"/><path d="M481.75 298.336c.17-.984.32-2.32 0-3.28-.45-1.4-4.3-3.152-4.46-4.36-.11-.768.62-.976.78-1.936.2-1.296-3.8-2.128-3.32-3.92.29-1.088 2-1.616 1.84-2.584-.1-.544-2.12-1.88-1.69-3.272.35-1.12 1.88-.672 2.76-1.24.97-.624-1.9-2.504-.98-3.64.72-.904 2.71-.504 3.27-1.144.59-.664-.46-3.416 2.3-3.928 2.2-.4 2.64 3.36 3.57 3.896.88.52 1.27-.4 2.65-.256 1.35.144.3 2.8.84 3.592.58.864 1.5.176 2.44.44 1.51.432.02 3 .02 3.888 0 .936 1.23.936 1.34 2.04.18 1.792-1.95 2.24-3.08 3.344-.31.304-.34.592 0 .88 2.04 1.76.6 2.8-1.37 3.944-3.06 1.776-6.66 2.752-5.12 6.32l-1.79 1.216z" stroke="#000" stroke-width=".93" fill="#658D5C"/><path d="M531.06 269.648c1.52-.312 3.62-1.496 5.09-.56 2.79 1.784-2.07 4.912-2.97 6.576-.02.616 1.55.816 1.45 2.048-.18 2.16-3.77 1.696-5.46 2.464-.13.4.62.728.62 1.12 0 3.048-5.77 1.896-7.97 2.464-.7.184.48 1.8-2.02 2.56-1.08.32-2.62-.016-3.72-.176-1.32-.184-2.67-.4-4.03-.344-.56.024-1.13.144-1.7.104-.23-.016-.4-.112-.32-.328l6.3-14.872c.14-.32 2.88.512 3.49.512.68 0 1.34-1.136 1.82-1.488 1.64-1.2 2.43.512 3.8.512 1 0 3.82-4.464 5.62-.584v-.008z" stroke="#000" stroke-width=".93" fill="#000"/><path d="M499.83 272.08c-.05-.64-1.63 1.28-1.63 1.28s1.12.88 1.89 1.408c.94.648 2.52 1.56 2.52 1.56l.15-.936s-2.79-1.56-2.93-3.32v.008z" stroke="#000" stroke-width=".78" fill="#000"/><path d="M498.15 266.016c.43.48.16 1.136-.13 1.624-.32.536-.51.856-.95 1.328-1.44 1.52-4.63 2.88-6.07 2.088-1.31-.72-4-7.024-1.9-8.112 2-1.032 7.18.96 9.05 3.072z" stroke="#000" stroke-width=".93" fill="#000"/><path d="M490.57 268.824a9.471 9.471 0 0 1 2.42-1.872c1.27-.768 4.48-2.144 5.9-1.04 1.86 1.44 2.76 5.784.6 7.296-2.85 2-7.47-.296-9.26-2.272-.62-.68-.17-1.496.34-2.112z" stroke="#000" stroke-width=".93" fill="#000"/><path d="M493.3 267.344c1.94-1.152 4.15-1.8 4.99-1.096 2.25 1.896 2.36 5.52.8 6.584-1.57 1.072-5.23.984-8.38-2.2-.66-.672.62-2.112 2.58-3.28l.01-.008z" stroke="#000" stroke-width=".93" fill="#A48253"/><path d="M497.65 265.808c1.05 1.544-4.7 5.864-6.6 4.84-1.34-.704-3.15-6.144-1.84-7.08 1.84-1.336 7.52.888 8.44 2.24z" stroke="#000" stroke-width="1.09" fill="#D99F31"/><path d="M490.64 263.6c-.47.024-.84.128-1.06.288a.618.618 0 0 0-.11.184c.78.312 2.18.592 3.6 1.104 2.05.72 3.47 1.68 4.07 1.408.1-.264.1-.472.03-.568a4.337 4.337 0 0 0-1.28-.96 13.53 13.53 0 0 0-2.31-.968 10.27 10.27 0 0 0-2.44-.488 4.71 4.71 0 0 0-.5 0z" fill="#F1BF31"/><path d="M512.04 285.552c2.87-.112 5.61.912 7.35.4 2.59-.736 1-2.344 2.25-2.44 1.25-.088 7.54.28 7.53-2.224 0-.48-.5-.664-.28-1.208.23-.544 4.96-.36 5.13-2.384.1-1.288-1.36-1.304-1.14-2.08.23-.784 5.3-4.616 2.77-6.208-1.74-1.096-4.59.816-4.85.256-.36-.72-.43-1.336-1.59-1.416-1.66-.128-2.67 2-3.76 2-1.09 0-1.58-.88-2.7-.8-1.46.104-1.68 1.896-2.93 1.896-1.25 0-3.19-.56-3.19-.56l-6.3 14.872s1.04-.08 1.7-.104h.01z" stroke="#000" stroke-width=".93" fill="#466343"/><path d="M515.12 279.688s5.92-1.792 9.4-3.408c3.32-1.552 8-4.576 8-4.576m-17.4 7.984s5.92-1.544 9.4-3.16c3.32-1.552 8-4.824 8-4.824" stroke="#000" stroke-width=".62"/><path d="M477.3 303.224s2.34-.456 3.28-.456 1.49.368 1.49.368l1.07-1.568s-3.19.304-4.13.232l-1.71 1.424z" stroke="#000" stroke-width=".78" fill="#000"/><path d="M463.17 320.04c-1.86-1.816 4.3-6.528 6.6-5.2 1.65.96 3.72 5.056 2.08 6.28-1.83 1.36-7.2.36-8.68-1.08z" stroke="#000" stroke-width=".93"/><path d="M460.32 314.056l-.68-.04c-1.2-1.2-1.64-1.248-3.4-1.632-.57-.128-.65-.6-.04-.728l2.13-.448c.34-.072 1.25.576 1.5.728.41.24 2.48.6 1.72 1.184l-1.23.936z" stroke="#000" stroke-width=".78" fill="#000"/><path d="M459.86 312.984c.87-1.048 6.28-1.304 9.44.928 1.94 1.368.38 3.304-1.47 4.552-1.82 1.232-4.58 2.256-5.71 1.456-3.22-2.24-3.31-5.68-2.27-6.936h.01z" stroke="#000" stroke-width=".93"/><path d="M513.1 266.504s2.62-2.176 4.73-3.024c4.1-1.648 10.75 1 11.73-.488.5-.76-.25-1.32.38-1.52.64-.208 7.9.944 8.18-1.68.06-.472-.75-.712-.13-1.216.64-.504 5.22-.752 4.76-2.48-.15-.56-1.14-.72-.89-1.272.26-.56 3.7-3.168 2.22-4.768-.42-.464-1.5-.376-1.42-.944.25-1.776 1-4.52-.83-4.664-1.97-.152-4.27 3.056-5.04 3.176-.95.16-1.52-.6-2.47-.352-1.59.4-1.84 2.28-2.47 2.28-.64 0-.59-.528-1.6-.512-3.12.056-3.38 4.048-4.93 5.024-.89.56-1.41-.192-2.29-.048-2.15.352-1.51 4.664-2.66 6.032-1.146 1.24-2.537 2.32-4.12 3.2-.5.2-1.5.2-1.5.2l-1.64 3.056h-.01z" stroke="#000" stroke-width=".93" fill="#658D5C"/><path d="M455.15 312s1.98.528 3.28.584c.88.04 2.26-.104 2.26-.104s-.54.096-1.12-.24c-.2-.104-1.55-1.064-1.55-1.064l-2.87.816V312z" stroke="#000" stroke-width=".78" fill="#A48253"/><path d="M460.4 313.312c1.45-1.32 5.66-1.176 8.74 1 1.54 1.08.52 2.704-1.3 3.992-1.83 1.296-4.16 2.016-4.95 1.464-3.08-2.16-3.56-5.488-2.5-6.456h.01z" stroke="#000" stroke-width=".93" fill="#A48253"/><path d="M463.52 319.92c-.7-.64.41-2.568 1.88-3.632 1.3-.936 3.42-1.576 3.88-1.184 1.8 1.544 3.64 4.288 2.21 5.656-1.43 1.36-6.42.584-7.97-.84z" stroke="#000" stroke-width="1.09" fill="#D99F31"/><path d="M469.06 315.584l-.14.032c-1.5.248-2.34 1.816-1.89 3.512.2.752.63 1.408 1.17 1.872h.02c1.3.08 2.44-.12 2.86-.528.52-.496.49-1.344.01-2.32a9.107 9.107 0 0 0-2.03-2.56v-.008z" fill="#F1BF31"/><path d="M515.85 208.36s.05-1.416 1.45-5.408c.24-.696.9-1.08.9-1.08l-2.6-.288s.66.504.65 1.168c-.054 1.179-.5 2.324-1.29 3.32l.89 2.288z" stroke="#000" stroke-width=".78" fill="#A48253"/><path d="M512.96 204.088s-1.7-3.96-3.14-5.4c-1.54-1.536-2.64-1.856-5.42-2.568-2.46-.632-6.3-1.136-6.46-2.68-.17-1.544.06-1.256-.64-1.4-2.26-.48-5.09-1.072-4.55-2.864.54-1.792 1.38-2.064.4-2.44-1.42-.56-5.18-2.304-4.73-3.84.45-1.528 2.12-1.552 1.42-2.488-.51-.672-2.32-1.408-2.18-2.64.1-.832 1.43-1.104 1.39-1.84-.04-.752-3.6-4.056-1.5-5.44 1.9-1.256 5.26.992 6.12 1.28.86.28 1.85-1.176 3.11-.936 1.62.304 1.7 2.24 2.19 2.936.87 1.248 2.66-.384 4.06.224 2.33 1 1.52 4.448 2.15 5.152.62.696 2.35-.424 3.57.12 1.9.84.27 5.872.4 6.704.12.824 1.5.112 2.3.608 2.1 1.304-.46 5.28-.06 8.632.14 1.152.49 2.96.49 2.96l1.08 5.92z" stroke="#000" stroke-width=".85" fill="#658D5C"/><path d="M496.9 319.304c.65.904 1.85 1.528 2.41 2.464.79 1.312.05 2.64-1.93 2.552-.86-.048-1.65-.576-2.47-.624-.66-.048-2.57 1.992-4.4 1.92-2.52-.08-3.72-2.536-5.25-3.792-1.22-.208-2.12 1.232-3.48 1.04-2.78-.4-2.65-3.944-3.6-5.504-.78-.456-1.94.512-3.48-.36-2.39-1.352-1.14-5.592-3.7-6.776-2.25-1.04-7.02-.352-6.6-.528l2.65-1.104c.17-.072.67.128.84.16 4.36.688 10.19.112 14.65.112 2.14 0 1.8 1.384 2.14 1.672l.18.016c2.22.128 4.87 0 6.77 1.12 2.3 1.36.12 2.576.11 2.88l.1.04.5.136 1.49.352c1.16.296 2.46.704 3.24 1.496 1.13 1.152-.14 1.696-.18 2.72l.01.008z" stroke="#000" stroke-width=".93" fill="#000"/><path d="M467.2 308.96c.95.48 13.78.16 15.5.16 1.86 0 1.25 1.176 1.89 1.616.77.28 9.58.048 7.57 2.712-.23.304-.53.584-.72.904l.04.296c.9.592 4.02.64 5.38 2.04.81.84-1.33 2.184-.41 2.712 1.76 1.016 5.7 5.528-1.46 4.176-1.72-.32-3.76 3.52-7.5.08-.46-.424-1.52-1.64-1.95-1.88-1.05-.584-2.38.76-3.67.592-2.36-.304-2.5-3.616-3.35-5.008-1.17-.656-2.15.128-3.55-.664-3.17-1.792.71-7.92-9.54-7.008l1.76-.736.01.008z" stroke="#000" stroke-width=".93" fill="#466343"/><path d="M466.26 309.12s9.65 1.568 15.2 3.808c5.09 2.048 11.92 6.768 11.92 6.768s-6.66-5.016-11.77-7.144c-5.28-2.2-14.58-3.68-14.58-3.68l-.77.256v-.008z" stroke="#000" stroke-width=".45" fill="#000"/><path d="M491.11 300.968c2.5 1.856-1.28 8.04-4.12 7.648-4.53-.616-7.02-4.712-6.17-6.456.91-1.864 7.59-3.2 10.3-1.192h-.01z" stroke="#000" stroke-width=".93" fill="#000"/><path d="M486.6 307.992c-1.28-.736-.79-3.336.34-4.912 1.04-1.44 2.52-2.336 3.65-2.056 3.2.8 6.33 4.184 5.13 6.24-1.18 2.032-7.85 1.456-9.12.72v.008z" stroke="#000" stroke-width=".93"/><path d="M490.9 301.152c2.3 1.704-1.35 7.32-3.86 6.976-4.32-.592-5.87-4.144-5.35-5.608.54-1.52 6.66-3.264 9.21-1.368z" stroke="#000" stroke-width=".93" fill="#A48253"/><path d="M505.92 305.4c-.4.432-1.27 1.24-2.17 1.24-3.85-.032-3.58-2.656-5.6-4.4-.67-.136-1.17.504-2.5.264-1.73-.32-1.84-3.848-4.43-4.576-1.32-.36-4.97-.376-7 1.144l3.63-2.256c3.51 1.104 6.68-4.88 10.7-4.08 1.14.224 1.18.816 2.5.72 2.93-.208 5.92-1.744 9.45-.816 2.12.56-.63 2.824 2.04 2.568 1.72-.16 4.28-.16 4.8 1.552.28.936-.33 1.36-.2 2.04.35.216 6.8 2.008 3.38 3.392.54 1.216 3.14 2.024 1.77 3.52-1.3 1.392-4.03-.16-4.8.416-.3.24-.3.912-.57 1.184-1.14 1.136-4.13-1.16-5.41-1.376-1.27 3.44-3.57 1.824-5.59-.536z" stroke="#000" stroke-width=".93" fill="#000"/><path d="M491.45 297.944c2.67.6 2.74 3.888 4.28 4.192 1.54.312 1.5-.336 2.46-.16.89.16 1.78 4.312 6.08 3.88 1.1-.104 1.64-1.04 1.64-1.04s1.58 2.064 3.23 2.248c2.38.272 1.7-1.44 2.3-1.504.97-.08 2.74 1.552 4.52 1.552 1 0 .85-1.36 1.91-1.36s3.14.8 4-.192c1.13-1.288-1.49-2.8-1.68-3.264-.2-.464.74-.48.65-.92-.37-1.64-3.7-1.904-4-2.48-.28-.584.47-1.176.2-2.08-.48-1.528-3.2-1.584-4.43-1.36-2.85.504-.27-1.928-2.3-2.616-3.49-1.176-8.57 1.056-9.86.616a8.784 8.784 0 0 0-1.95-.48c-3.15-.44-6.05 3.232-8.04 4l1 .96-.01.008z" stroke="#000" stroke-width=".93" fill="#658D5C"/><path d="M490.47 296.8s9.65-.48 15.3 1.096c4.9 1.36 11.37 5.528 11.37 5.528s-6.97-4.096-12.15-5.304c-5.57-1.288-14.86-.584-14.86-.584l.34-.744v.008zm-8.53.536s1.85-9.824 1.7-16.136c-.1-3.8-1.01-9.696-1.01-9.696s1.27 6.112 1.47 10.064c.29 5.872-1.38 15.024-1.38 15.024l-.78.744z" stroke="#000" stroke-width=".45" fill="#000" fill-rule="nonzero"/><path d="M472.62 296.976c.18.424 1.96.832 1.8 2.424-.2 1.952-3.87 1.352-5.58 2.272-.64.344.77 2.016.03 2.816-1.33 1.416-5.84.568-6.16.92-.6.648 1.47 2.432-.72 3.416-3.04 1.36-9.45-.8-12.91 1.656-.2.152-1.55 1.36-1.6 1.368-1.98.416-7.22 1.28-6.61 1.08 3.08-1.04 8.02-2.056 9-3.752.82-1.44.2-4.16.53-5.72.5-2.328 2.64-1.392 3.35-2.128.57-.6-.5-3.84 1.8-5.376 1.62-1.072 3.36-.336 4.83-1.184 1.54-.888-.79-3.856 2.26-4.696 1.83-.504 3.74 1.128 4.15 1.056 1.14-.192 2.48-2.944 4.79-2.568 2.3.36 1.27 2.792 1.17 3.92 3.86.376 1.78 2.672-.13 4.496z" stroke="#000" stroke-width=".93" fill="#000"/><path d="M441.42 312.688s8.2-2.744 8.87-4.12c1.04-2.112-.09-5.304 1.35-6.072.93-.496 1.87-.248 2.49-.96.61-.712-.19-4.16 2.03-5.544 1.4-.88 2.64-.096 4.34-1.04 1.82-1.04-.48-3.576 2.3-4.4 1.64-.496 3.3 1.104 4.11.936 1.57-.32 2.4-2.832 4.7-2.56 1.86.216.95 1.72.84 3.152-.07.816 1.54.44 2.01 1.592.35.832-1.08 2.64-2.03 3.304-.55.384 1.66 1.048 1.53 2.24-.2 1.712-4.32 1.832-5.27 2.104-1.24.352-.13 1.832-.96 2.688-1.35 1.376-4.78.52-5.4 1.176-.56.6.69 2.144-.89 3.096-1.64.984-8.01.36-9.05.664a88.944 88.944 0 0 0-5.57 1.848l-5.4 1.896z" stroke="#000" stroke-width=".93" fill="#658D5C"/><path d="M450.2 308.832s8.98-5.16 13.57-9.776c2.53-2.544 5.87-6.416 5.87-6.416s-3.23 4.008-5.72 6.664c-4.53 4.832-13.56 10.36-13.56 10.36l-.15-.832h-.01zm67.06-45.928c3.45-1.488 9.72-4.08 14.83-7.808 3.44-2.512 7.92-7.144 7.92-7.144s-4.45 4.88-7.92 7.52c-5.22 3.976-11.84 6.8-15.3 8.296l.47-.864z" stroke="#000" stroke-width=".45" fill="#000" fill-rule="nonzero"/><path d="M509.94 266.608l-.8 2.112c0-2.912-.14-4.296-4.44-4.112-.67.024-1.36.08-2.02 0-2.19-.272-.5-1.328-1.2-2.128-.85-.976-6.6-.096-7.08-2.4-.18-.896 1.07-1.96.15-2.664-1.38-1.056-4.82-1.976-4.46-3.92.16-.8 1.5-1.376 1.3-2.12-.26-.992-2.73-2.72-2.13-3.808.49-.872 1.37-.584 1.45-1.408.1-.912-1.9-3.2-.12-3.896 2.35-.912 3.95.88 5.97 1.008 1.17.072 1.96-1.04 3.19-.824 1.58.28 1.59 2.32 2.6 2.736.38.152 1.5-.608 2.03-.656 2.83-.264 2.19 4.136 3.16 5.168.35.368 1.1 0 1.6.128 1.77.44-.13 5.248.6 5.888.25.224 1.15.096 1.55.184 1.48.336.45 3.392.2 4.144-.55 1.68-2.45 5-1.55 6.568z" stroke="#000" stroke-width=".93" fill="#466343"/><path d="M509.83 266.272s-2.75-8.752-6.65-13.448c-3.23-3.896-10.3-8.696-10.3-8.696s6.77 4.84 9.84 8.696c3.76 4.72 6.33 13.448 6.33 13.448h.78zm5.97-45.712s-6.5-8.44-12.08-12.832c-4.56-3.584-12.98-7.992-12.98-7.992s8.03 4.536 12.36 8.136c5.3 4.392 11.45 12.68 11.45 12.68h1.24l.01.008z" stroke="#000" stroke-width=".45" fill="#000" fill-rule="nonzero"/><path d="M512.96 200.368c1.09 2.16 2.64 5.52 3.67 8.64 4.84 14.672 5.28 31.624 3.21 41.416-6.38 30.16-40.66 58.224-68.1 62.608-23.3 3.72-37.07 11.8-46.85 20.432-4.235 3.704-7.988 7.744-11.2 12.056-2.84 3.856-4.7 7.168-7.23 10.48l-.14.048c-.17.056-.4.096-.66.136-.55.08-1.26.144-1.92.168a8.225 8.225 0 0 1-1.65-.072l-.08-.016 1.05-1.32c2.4-3.176 4.5-6.272 7.25-9.944 3.006-4.093 6.488-7.95 10.4-11.52 10.18-9.2 24.64-18.096 49.35-22.08 28.78-4.616 61.63-33.16 68.07-63.576 2.09-9.912 2.04-27.008-5.82-45.544l.65-1.92v.008z" stroke="#000" stroke-width=".93" fill="#A48253"/><path d="M511.84 198.6c-1.965-4.195-4.486-8.21-7.52-11.976-4.46-5.728-13.52-13.504-13.52-13.504s8.57 7.808 12.8 13.48c3.956 5.096 7.005 10.607 9.06 16.376l-.82-4.376z" stroke="#000" stroke-width=".45" fill="#000"/><path d="M513.23 203.264s-.36-.72-.55-1.2c-.4-.992-.71-2.616-.71-2.616l.98 1.88c.321.65.621 1.306.9 1.968l-.62-.032z" fill="#A48253"/><path d="M514.38 253.6c-1.78-1.176-6.65-4.776-6.65-6.608 0-2.192 2.55-1.816 3.17-2.136-.11-.88-3.86-3.08-2.36-5.048 1-1.304 3.24-.936 4.08-1.472.64-1.392-1.84-5.016.15-6.976 1.17-1.168 2.08-.296 2.63-.4.11-.616.1-1.24.18-1.848.15-1.08.64-2.16 2.21-2.224 2.2-.088 3.7 2.168 4.75 3.416.23-.112 1.38-.24 1.63-.336 2.7-1.056 1.72 5.664 1.8 6.704.63-.016 1.91-.304 2.47-.04 2.9 1.376-2.86 8.576-3.48 10.272-.25.704 3.05.136.51 2.696-1.47 1.496-3.36 2.816-5 4.2l-6.1-.2h.01z" stroke="#000" stroke-width=".93" fill="#000"/><path d="M515.3 259.176c1.1-2.32.7-4.584-1.48-5.856-2.35-1.36-5.48-4.584-5.47-6.456 0-2.208 2.75-.864 2.87-1.904.1-.784-3.6-3.12-2.28-4.84.86-1.12 3.15-.984 3.73-1.544.96-.928-1.43-5.064.46-6.992 1.04-1.056 1.85.072 2.54-.32.67-.384-.4-3.536 2.14-3.632 2.46-.08 4.26 3.2 4.65 3.104.8-.208 1.74-.872 2.63-.192.87.664.6 6.28.6 6.28s1.67-.136 2.2.128c2.22 1.096-1.77 7.464-2.89 9.216-.95 1.488 1.85 1.68.41 3.208-2.36 2.528-7.09 5.552-7.84 9.264" stroke="#000" stroke-width=".93" fill="#658D5C"/><path d="M518.03 257.536s1.77-9.136 2.27-13.952c.4-3.952-.7-10.464-.7-10.464s.63 6.264.23 10.216c-.5 4.816-3.14 16.288-3.14 16.288l1.34-2.08v-.008z" stroke="#000" stroke-width=".45" fill="#000"/><path d="M492.06 291.496c1-2.048-1.93-8.04.28-9.088 1.26-.6 2.06.528 3.29-.44 1.57-1.24-.9-5.92 1.98-7.4 1.67-.864 3 .376 4.6-.792 1.07-.776 1.12-3.904 3.83-4.448 1.8-.36 2.63.624 4.22.8 1.36.144 5.95-4.976 8.81-3.76 3 1.288.34 4-.26 5.824-.31.96 2.23.824 2 2.416-.22 1.456-2.3 2.92-2.3 3.528 0 .656 2.1 1.096 2.18 2.32.17 2.368-4.6 2.696-6.21 3.704-.84.528 1.08 2.24-.1 3.8-1.26 1.672-6.62.496-7.51.856-.73.296-.02 3.12-.92 4.12-1.47 1.624-8.47.096-11.06.44-3.47.448-4.98 1.016-7.17 3.096l4.34-4.976z" stroke="#000" stroke-width=".93" fill="#000"/><path d="M487.66 294.768s2.73-1.136 3.72-2.4c.97-1.248 1.1-1.696 1.05-3.664-.02-1.2-1.32-5.32.14-5.976 1.21-.544 1.88.512 3.38-.624 1.84-1.384-.85-6.176 1.76-7.472 1.57-.776 3 .6 4.81-.704 1.24-.88 1.03-3.872 3.48-4.368 1.53-.304 2.75.648 4.2.8 1.77.2 5.8-4.512 8.34-3.408 1.1.48 1.43 1.16 1.23 2.136-.22 1.04-.96 1.976-1.25 3-.36 1.32 1.87 1.2 1.67 2.6-.2 1.32-2.15 2.592-2.15 3.448 0 .944 1.76 1.552 1.88 2.704.21 2.192-5.52 2.24-5.98 3.44-.46 1.2.66 2.08-.43 3.488-1.17 1.52-5.2.176-6.78.696-1.31.424-.51 2.8-1.31 3.76-2.2 2.616-12.85-1.072-17.23 3.744l-.53-1.2z" stroke="#000" stroke-width=".93" fill="#658D5C"/><path d="M487.98 295.072s11.32-7.712 17.53-13.424c4.78-4.4 11.25-11.928 11.25-11.928s-6.04 7.624-10.63 12.056c-5.61 5.408-15.99 12.688-15.99 12.688l-2.16.608z" stroke="#000" stroke-width=".45" fill="#000"/><path d="M486.96 295.28l1.86-.44s-.68.64-.96.84l-.84.624-.06-1.032v.008z" fill="#A48253"/><path d="M486.87 307.808c-.92-.52-.68-2.936.48-4.536 1.05-1.456 2.68-2.16 3.35-1.92 2.48.936 5.59 4.056 4.6 5.76-.99 1.68-7.22 1.392-8.43.696z" stroke="#000" stroke-width="1.09" fill="#D99F31"/><path d="M491.36 302.176c-.28.096-.53.216-.74.4-1.02.904-.54 2.584 1.07 3.736.729.545 1.652.894 2.64 1h.01c.22-.12.38-.256.46-.384.35-.6-.03-1.68-.94-2.728-.68-.784-1.61-1.52-2.5-2.024z" fill="#F1BF31"/><path d="M516.64 203.672c-2.35-.656-3.96-4.136-2.98-7.224.97-3.056 10.73-1.816 9.68 1.832-.83 2.872-4.7 5.944-6.7 5.392z" stroke="#000" stroke-width=".93" fill="#000"/><path d="M523.07 197.168c-.34 1.84-3.36 2.04-4.76 1.816-1.49-.24-4.3-1.504-3.96-3.024.7-3.224 3.94-5.704 5.86-5.464 2.1.264 3.42 3.72 2.86 6.672z" stroke="#000" stroke-width=".93" fill="#000"/><path d="M516.85 203.072c-1.99-.24-3.54-3.52-2.59-6.504.9-2.8 9.24-1.032 8.48 1.6-.83 2.872-3.95 5.144-5.9 4.904h.01z" stroke="#000" stroke-width=".93" fill="#A48253"/><path d="M520.13 190.984c1.63.208 3.36 3.144 2.8 6.128-.28 1.44-3.1 1.36-4.53 1.136-1.55-.256-4.15-1.08-3.9-2.224.68-3.184 4.14-5.232 5.63-5.04z" stroke="#000" stroke-width="1.09" fill="#D99F31"/><path d="M519.86 191.416c-.07 0-.16.016-.25.032.1.528.51 1.296.7 2.176.25 1.168.22 3.08 1.24 2.936.63-.08.9-.48.9-1.256v-.016a6.322 6.322 0 0 0-.6-2.112c-.53-1.056-1.35-1.704-1.8-1.76h-.2.01z" fill="#F1BF31"/><path d="M382.27 357.36c-.77-.904.99-3.688 4.68-3.36 1.62.16.83 2.024-1.17 3.152-1.41.784-2.74 1.12-3.51.208z" stroke="#000" stroke-width=".93"/><path d="M382.27 357.36c-.77-.904.35-2.856 4.06-2.984 1.33-.04 1.45 1.648-.55 2.776-1.41.784-2.74 1.12-3.51.208z" stroke="#000" stroke-width=".93" fill="#A48253"/><path d="M394.92 344.8s-.1-1.104-1.7-1.544c-.798-.218-1.682-.024-2.23.488m2.38 2.544s-.05-1.12-1.7-1.424c-.826-.18-1.696.132-2.08.744" stroke="#000" stroke-width=".93"/></g><path d="M401.7 341.728c7.7-.072 13.48-.656 20.05-1.696-1.55 4.224-4.65 12.24 7.75 12.24 9.02 0 18.6-4.336 27.9-.52 20.3 8.336 35.64 2.384 48.04-8.768 0 0-9.17 1.56-18.6 1.232 0 0 7.06-4.816 7.75-11.152-6.2 3.712-12.4 4.256-18.6 4.256-6.2 0-10.16-2.992-18.28-4.016.46-2.24.95-4.528 1.68-7.68.8-3.44-.39-6.24-6.65-6.824-13.61-1.28-26.8 5.008-50.89 5.312-24.25-.304-40.88-6.592-54.5-5.312-6.25.592-7.44 3.384-6.64 6.824.73 3.152 1.22 5.44 1.67 7.68-8.1 1.024-12.07 4.016-18.27 4.016-6.2 0-12.4-.544-18.6-4.256.68 6.336 7.75 11.152 7.75 11.152-9.43.328-18.6-1.232-18.6-1.232 12.4 11.152 27.73 17.104 48.05 8.768 9.3-3.816 18.87.528 27.9.528 12.39 0 9.29-8.024 7.74-12.24a150.014 150.014 0 0 0 23.35 1.72v-.032z" fill="#FFF"/><path d="M337.7 341.84c-.9.336-1.36-.128-.34-.544.72-.296 3.83-1.376 6.08-1.736.08-.008.17.04.18.112l.08.48c.01.056-.05.128-.13.136-2.013.36-3.976.88-5.86 1.552h-.01zm.52 2.36c-.9.328-1.36-.128-.34-.544.71-.296 3.98-1.584 6.23-1.936.06-.008.15.032.18.08l.22.48c.04.08-.01.144-.11.16-2.12.304-5.42 1.48-6.18 1.76zm32.32 4.312c-3.87-.32-8.43-1.256-13.27-1.8-6.14-.68-11.47-.424-17.86 1.888-.35.128-.53.144-.67.144-.12 0-.3-.024-.34-.16-.03-.112.07-.216.15-.28.1-.08.25-.16.42-.224 5.95-2.432 12.16-2.872 18.4-2.192 4.84.528 9.45 1.336 13.3 1.656 2.17.184 4.65-.112 5.46-1.152.22-.28.83.32.63.568-1.23 1.584-4.12 1.728-6.22 1.552zm-33.6-8.832c-.17.048-.33.08-.44.08-.1 0-.26-.024-.3-.136-.05-.112.04-.2.1-.256.08-.064.2-.128.35-.184 2.34-.864 2.94-1.016 6.37-1.744.29-.056.5.08.55.256a.295.295 0 0 1-.062.272.458.458 0 0 1-.288.152c-2.146.383-4.25.905-6.29 1.56h.01zm-.54-2.4c-.15.048-.3.08-.4.072-.11 0-.24-.04-.3-.144-.04-.096.02-.192.08-.256a.922.922 0 0 1 .32-.184 28.12 28.12 0 0 1 6.6-1.6c.27-.04.5.08.57.24.08.176-.03.376-.32.416-3.21.488-4.35.752-6.55 1.456zm34.15 7.2c-2.64-.216-5.64-.688-8.82-1.104a.531.531 0 0 1-.332-.161.34.34 0 0 1-.088-.303.401.401 0 0 1 .205-.26.6.6 0 0 1 .375-.068c3.16.408 6.14.88 8.76 1.096a7.716 7.716 0 0 0 2.93-.304c.31-.096.56.048.65.232.1.176.03.424-.28.52a8.875 8.875 0 0 1-3.4.352zm-13.88 4.2c-5.725-.64-11.56.077-16.78 2.064-.22.08-.42.112-.57.128-.12 0-.3 0-.38-.112a.165.165 0 0 1-.01-.176.422.422 0 0 1 .12-.136c.1-.08.26-.168.47-.264 7.41-2.872 13.07-2.68 17.47-2.28 4.73.432 8.87 1.248 13.39 1.52.4.024.5.312.6.56.1.216.27.632-1.15.512-4.47-.384-8.56-1.24-13.16-1.816zm13.83-2.384c-5-.416-11.64-1.776-18-2-.33-.016-.54-.192-.54-.4 0-.2.21-.368.55-.36 6.38.232 13.1 1.44 18.12 1.864 1.85.152 3.88-.144 4.85-.84.3-.208 1.05.584.77.776-1.3.928-3.74 1.128-5.75.96zm-31.73.088c-.9.336-1.36-.128-.35-.544.82-.336 5.34-2.048 7.76-2.176.33-.016.57.144.64.336.08.208-.07.424-.42.44-2.17.12-6.76 1.624-7.63 1.944zm123.63-4.544c.9.336 1.36-.128.34-.544a35.65 35.65 0 0 0-6.08-1.736.19.19 0 0 0-.12.026.125.125 0 0 0-.06.086l-.08.48c-.01.056.05.128.12.136 2.12.304 5.12 1.272 5.87 1.552h.01zm-.53 2.36c.9.328 1.37-.128.35-.544-.72-.296-3.99-1.584-6.23-1.936-.07-.008-.16.032-.18.08l-.23.48c-.03.08.02.144.12.16 2.12.304 5.42 1.48 6.17 1.76zm-32.31 4.312c3.86-.32 8.43-1.256 13.27-1.8 6.13-.68 11.47-.424 17.85 1.888.35.128.54.144.68.144.12 0 .3-.024.33-.16.03-.112-.06-.216-.14-.28-.1-.08-.25-.16-.43-.224-5.94-2.432-12.16-2.872-18.4-2.192-4.83.528-9.44 1.336-13.3 1.656-2.16.184-4.64-.112-5.46-1.152-.21-.28-.83.32-.62.568 1.23 1.584 4.11 1.728 6.22 1.552zm33.6-8.832c.17.048.32.08.44.08.1 0 .25-.024.3-.136.05-.112-.04-.2-.1-.256-.08-.064-.2-.128-.35-.184-2.34-.864-2.95-1.016-6.37-1.744-.3-.056-.5.08-.55.256-.05.168.06.368.35.424 2.67.512 3.98.84 6.29 1.56h-.01zm.53-2.4c.16.048.3.08.41.072.11 0 .24-.04.3-.144.04-.096-.02-.192-.09-.256a.904.904 0 0 0-.31-.184 28.12 28.12 0 0 0-6.6-1.6c-.238-.042-.478.06-.57.24-.09.176.02.376.32.416 3.21.488 4.35.752 6.54 1.456zm-34.14 7.2c2.64-.216 5.64-.688 8.82-1.104.33-.04.46-.272.42-.464a.401.401 0 0 0-.205-.26.6.6 0 0 0-.375-.068c-3.16.408-6.14.88-8.76 1.096a7.704 7.704 0 0 1-2.93-.304.603.603 0 0 0-.387.004.442.442 0 0 0-.263.228.32.32 0 0 0 .001.308.46.46 0 0 0 .279.212 8.875 8.875 0 0 0 3.4.352zm13.88 4.2c5.26-.656 11.75.056 16.78 2.064.22.08.42.112.57.128.12 0 .3 0 .38-.112a.17.17 0 0 0 0-.176.416.416 0 0 0-.1-.136c-.1-.08-.27-.168-.48-.264-7.41-2.872-13.07-2.68-17.48-2.28-4.72.432-8.86 1.248-13.38 1.52-.4.024-.5.312-.6.56-.1.216-.27.632 1.14.512 4.48-.384 8.57-1.24 13.17-1.816zm-13.84-2.384c5-.416 11.64-1.776 18-2 .34-.016.54-.192.55-.4 0-.2-.22-.368-.55-.36-6.39.232-13.1 1.44-18.12 1.864-1.86.152-3.88-.144-4.86-.84-.29-.208-1.04.584-.76.776 1.29.928 3.74 1.128 5.74.96zm31.74.088c.9.336 1.36-.128.35-.544-.83-.336-5.35-2.048-7.76-2.176-.286-.022-.552.118-.64.336-.08.208.06.424.42.44 2.17.12 6.76 1.624 7.63 1.944z" fill="#000" fill-rule="nonzero"/><g stroke-linecap="round" stroke-linejoin="round" fill="#000" stroke="#000"><path d="M400.04 341.864c-10.34 0-17.1-1.264-26.35-2.6-21.51-3.12-26.19-.752-26.19 2.224 0 .96 1.1 1.24 1.9.96.41-.16.75-.704.75-.704-.76 0-1.26-.24-1.1-1 .46-2.168 6.05-3.16 24.64-.736 9.27 1.2 16.01 2.224 26.36 2.224l-.01-.368zm.02 0c10.34 0 17.1-1.264 26.34-2.6 21.52-3.12 26.2-.752 26.2 2.224 0 .96-1.1 1.24-1.9.96-.41-.16-.75-.704-.75-.704.76 0 1.26-.24 1.1-1-.46-2.168-6.05-3.16-24.65-.736-9.27 1.2-16 2.224-26.35 2.224v-.368h.01z" stroke-width=".93" fill-rule="nonzero"/><path d="M342.37 333.432c-3.4.44-6.53 1.368-9.73 2.376-8.7 2.728-18.7 2.32-26.43-2.088.568 3.054 2.22 5.914 4.76 8.24.61.584 2.49 2.072 2.49 2.072.31.256.26.424-.19.432-5.93.208-11.3.144-17.14-.72 13.76 12.104 27.59 15.12 46.43 7.792 9.9-3.848 18.15.496 28.04.496 10.5 0 9.5-5.496 7.2-11.704l1.25.112c1.7 3.816 4.34 13.216-8.45 12.456-9.86-.584-17.75-4.6-27.68-.808-15.3 5.84-26.35 5.752-39.66-2.152-2.7-1.6-7.08-4.504-8.95-6.712-.45-.536 0-.856.69-.688 5.05 1.256 12.7 1.256 16.6 1.176-3.16-2.536-6.7-7.24-6.55-10.616.02-.44.28-.52.74-.336 7.2 2.992 9.91 4.192 18.32 4.192 4.95 0 15.06-4.48 18.08-4.008l.18.488z"/><path d="M457.72 333.432c3.41.44 6.54 1.368 9.73 2.376 8.71 2.728 18.7 2.32 26.44-2.088-.568 3.054-2.22 5.914-4.76 8.24-.61.584-2.5 2.072-2.5 2.072-.3.256-.25.424.2.432 5.92.208 11.3.144 17.13-.72-13.76 12.104-27.58 15.12-46.43 7.792-9.9-3.848-18.15.496-28.03.496-10.5 0-9.5-5.496-7.2-11.704l-1.25.112c-1.7 3.816-4.34 13.216 8.45 12.456 9.85-.584 17.75-4.6 27.68-.808 15.3 5.84 26.35 5.752 39.65-2.152 2.72-1.6 7.09-4.504 8.95-6.712.46-.536 0-.856-.68-.688-5.05 1.256-12.7 1.256-16.6 1.176 3.16-2.536 6.7-7.24 6.55-10.616-.02-.44-.28-.52-.74-.336-7.21 2.992-9.92 4.192-18.32 4.192-4.96 0-15.07-4.48-18.08-4.008l-.19.488z" stroke-width=".93"/><path d="M399.47 324.12c-11.82.072-21.8-1.656-30.12-3.152-6.9-1.248-14.94-2.672-22.01-1.92-5.15.552-7.26 2.368-6.38 6.528 1.1 5.168 2.06 10.376 3.24 15.52.67 2.976 2.65 3.376 6.14 2.88 5.03-.712 21.15-3.6 24.77.072 3.48 3.512.09 6.04-4.75 6.104-.68.008-.46-.368-.23-.368 4.63 0 7.89-2.136 4.9-5.424-3.15-3.464-18.23-.928-24.38.224-3.9.728-6.5.32-7.22-3.512-.99-5.28-1.6-8.92-3.7-15.76-3.53-11.552 22.25-6.2 29.67-4.816 10.13 1.88 18.58 3.088 30.59 3.376 12.03-.288 20.48-1.496 30.6-3.376 7.43-1.384 33.21-6.736 29.67 4.824-2.1 6.832-2.7 10.464-3.7 15.76-.71 3.832-3.31 4.232-7.22 3.504-6.14-1.152-21.22-3.68-24.37-.224-3 3.28.27 5.424 4.9 5.424.22 0 .44.376-.24.368-4.83-.064-8.22-2.592-4.74-6.104 3.62-3.664 19.74-.784 24.76-.072 3.5.496 5.47.096 6.15-2.88 1.17-5.144 2.14-10.352 3.23-15.52.88-4.16-1.22-5.976-6.38-6.528-7.07-.752-15.1.672-22 1.92-8.33 1.496-18.3 3.224-30.13 3.152h-1.05z"/></g><path d="M361.53 333.784c-1.62-.112-4.22-.232-4.22-.232l-.95-10.304 3.13.296.65 8.048c.32.008 1.73.08 2.66.168 1.07.096 2.79.312 2.79.312l.2 2.064s-2.63-.24-4.26-.352zm6.76.576l-.7-9.944 3.15.392.7 9.936-3.15-.384zm9.52-4.616l1.07.144c1.6.216 1.72-.224 1.71-.76-.02-.64-.4-1.04-2-1.264l-.83-.112.05 1.992zm.11 3.952l1.5.2c1.73.24 2.16-.016 2.14-.72-.02-.8-.62-1.28-2.5-1.536l-1.19-.16.05 2.216zm1.84 2.208l-5-.68-.23-9.816 4.5.608c3.08.424 4.75 1.504 4.8 3.368 0 .784-.54 1.304-1.14 1.584.86.384 2.1 1.272 2.13 2.568.04 1.824-1.34 2.88-5.06 2.368zm11.77 1.352a157.49 157.49 0 0 1-4.34-.424l-.12-4.952-.12-4.96 7.12.592.02.976.03.992-3.99-.336.05 2.04 4.2.344.04 1.848-4.19-.344.05 2.096c.32.04 1.75.216 2.71.28 1.08.08 2.86.112 2.86.112l.05 1.968s-2.7-.112-4.37-.24v.008zm10.39-5.072c1.66-.024 2.39-.592 2.37-1.496-.02-.952-.54-1.352-2.04-1.328l-1.4.016.06 2.816 1-.008h.01zm6.96 5.136c-2.46-.072-3.78-1.056-5.07-2.216l-1.38-1.232c-.19.016-.4.016-.61.024l-.81.008.07 3.464-3.08.04-.21-9.904 4.78-.072c2.74-.032 4.77.952 4.82 3.152.039 1.088-.672 2.104-1.85 2.648l1.19 1c.733.608 1.683 1.019 2.72 1.176l-.57 1.912zm.12-7.976l-.02-1.96 10.95-1.2.01 1.952-3.9.432.06 7.912-3.15.344-.06-7.904-3.89.424zm17.62-1.984c-.37 1.072-.77 2.144-1.18 3.216.86-.072 1.76-.192 2.59-.392-.37-.96-.74-1.912-1.08-2.88l-.33.048v.008zm3.35 7.2l-1.21-2.664c-.65.184-1.34.296-2.04.384l-2.1.224-1.32 3.056-3.19.48 3.85-8.504-1.35.2-.02-1.96c2.85-.368 5.6-.784 8.36-1.256l.11 1.944-1.36.208 3.55 7.392-3.28.488v.008zm8.33-.64c-2.02.032-3.1-.248-4.01-.64l.86-1.84c1.15.304 1.81.432 3.16.416 1.47-.024 2.2-.4 2.2-.928.01-.36-.33-.608-.91-.84-.59-.224-1.36-.416-2.14-.656-1.56-.48-3.17-1.2-3.13-2.912.04-1.944 2.75-2.928 4.92-2.96a10.787 10.787 0 0 1 4 .616l-.79 1.776c-.96-.208-1.92-.384-3.16-.368-1.22.016-1.93.52-1.94.88 0 .288.34.512.94.736.59.224 1.38.432 2.17.696 1.59.528 3.22 1.304 3.18 2.912-.05 2.2-2.82 3.08-5.35 3.112z" fill="#000" fill-rule="nonzero"/></g></svg>