<svg width="800" height="480" xmlns="http://www.w3.org/2000/svg"><g fill="none" fill-rule="evenodd"><path fill="#12AD2B" d="M0 0h800v480H0z"/><path fill="#FFCE00" d="M0 137.1h800V343H0z"/><path fill="#D21034" d="M0 0v480l300-240"/><g fill="#000"><path d="M439.5 171.428l-26.487 65.216 40.76 10.595"/><path d="M439.5 171.428l26.487 65.216-40.76 10.595"/><path d="M511.971 218.81l-70.209-5.038 2.52 42.039"/><path d="M511.971 218.81l-53.839 45.344-22.672-35.491"/><path d="M484.29 295.476l-16.905-68.33-39.203 15.387"/><path d="M484.29 295.476l-59.762-37.192 26.748-32.53"/><path d="M394.71 295.476l59.762-37.192-26.748-32.53"/><path d="M394.71 295.476l16.905-68.33 39.203 15.387"/><path d="M367.029 218.81l53.839 45.344 22.672-35.491"/><path d="M367.029 218.81l70.209-5.038-2.52 42.039"/></g><g fill="#000"><path d="M660.5 171.428l-26.487 65.216 40.76 10.595"/><path d="M660.5 171.428l26.487 65.216-40.76 10.595"/><path d="M732.971 218.81l-70.209-5.038 2.52 42.039"/><path d="M732.971 218.81l-53.839 45.344-22.672-35.491"/><path d="M705.29 295.476l-16.905-68.33-39.203 15.387"/><path d="M705.29 295.476l-59.762-37.192 26.748-32.53"/><path d="M615.71 295.476l59.762-37.192-26.748-32.53"/><path d="M615.71 295.476l16.905-68.33 39.203 15.387"/><path d="M588.029 218.81l53.839 45.344 22.672-35.491"/><path d="M588.029 218.81l70.209-5.038-2.52 42.039"/></g></g></svg>