<svg width="800" height="480" xmlns="http://www.w3.org/2000/svg"><g fill="none" fill-rule="evenodd"><path fill="#ED2939" d="M0 0h800v240H319.969z"/><path fill="#002395" d="M0 480h800V240H319.969z"/><path fill="#FFF" d="M0 0l319.969 240L0 480z"/><path d="M161.531 181.125l.094-3.75s-1.969-3.188.375-6.563c0 0-4.969-2.625-3.75-6.75 0 0-4.5-1.125-4.219-6 0 0-4.687-.28-5.25-4.406 0 0-4.781.75-6.937-3.187 0 0-4.688.937-6-2.344 0 0-4.594 1.5-7.219-2.344 0 0-4.875 1.969-6.844-1.687-1.969 3.656-6.844 1.687-6.844 1.687-2.624 3.844-7.218 2.25-7.218 2.25-1.313 3.281-5.906 2.344-5.906 2.344-2.157 4.031-6.938 3.188-6.938 3.188-.469 4.125-5.25 4.5-5.25 4.5a5.625 5.625 0 0 1-4.125 6c1.219 4.03-3.75 6.656-3.75 6.656 2.438 3.469.469 6.562.469 6.562l-.094 3.469 79.406.375" fill="#FF0"/><path d="M161.646 181.103v-3.76s-1.935-3.224.43-6.447c0 0-4.944-2.686-3.762-6.77 0 0-4.514-1.074-4.192-6.016 0 0-4.836-.323-5.373-4.406 0 0-4.73.753-6.771-3.223 0 0-4.73.86-6.019-2.364 0 0-4.621 1.612-7.308-2.256 0 0-4.837 1.934-6.771-1.72-2.042 3.654-6.878 1.72-6.878 1.72-2.58 3.76-7.201 2.149-7.201 2.149-1.29 3.33-5.911 2.471-5.911 2.471-2.15 3.976-6.986 3.223-6.986 3.223-.43 3.976-5.267 4.298-5.267 4.298a5.48 5.48 0 0 1-3.976 6.017c1.075 4.083-3.762 6.662-3.762 6.662 2.365 3.438.323 6.662.323 6.662v3.438l79.424.322z" stroke="#000" stroke-width=".5"/><path d="M159.656 176.438c-12.469-1.22-26.812-4.22-37.875 2.062-7.5-4.406-17.812-4.125-26.625-3.281-4.781.937-10.406.937-15.469 1.687l-.75.094c-9.093.656-17.343-2.063-25.312-5.625 2.625 14.25 5.344 28.781 6.75 43.688 3 22.125-10.406 40.593-5.063 62.437 3.282 10.5 14.813 16.594 25.313 17.813a201.281 201.281 0 0 1 30.188 4.218 30 30 0 0 1 5.156 1.781 18.469 18.469 0 0 1 6.187 4.407c5.625-5.906 14.063-7.594 22.219-8.438 14.813-1.781 33.094-.844 42.188-14.25v-.75c4.968-7.5 4.312-18.75 2.156-27.187-.188-2.906-.938-5.531-1.406-8.344-9-23.906-1.22-50.813 2.625-75a57.187 57.187 0 0 1-15.375 5.156c-4.22.563-8.907.375-13.125.094l-1.875-.469" fill="red"/><path d="M178.313 245.156c0 1.5.843 2.813 1.125 4.219 1.78 10.5 3.375 24.375-7.313 30.844-12 7.5-27.563 4.312-41.344 8.344-2.812.75-6.562 3.28-8.437 5.062-1.313-.844-2.531-2.063-4.125-2.813-11.344-6-26.156-4.03-38.906-7.312-6.47-1.969-13.126-7.031-14.813-13.594-4.125-17.25 5.813-31.969 4.688-49.125-.75-13.125-3-25.594-6-37.875 10.03 4.688 21.562 5.438 32.812 3.188a48.375 48.375 0 0 1 25.875 2.344c4.313-1.875 9.375-2.72 14.063-3.188 8.718.938 18.187 2.438 27.28 2.438 6.095-.375 11.626-2.063 16.876-4.407-3.094 20.25-9.188 41.438-1.781 61.875" fill="#80CFE1"/><path fill="#FFF" d="M160.313 249.188v-19.125h2.25l-29.063-18.75-.094-9.844h2.813l-14.625-10.313-14.438 10.313h2.813v9.844L81 230.063h2.344v19.03h76.969"/><path stroke="#000" stroke-width="1.29" d="M160.356 249.225v-19.126h2.257l-29.018-18.803-.108-9.67h2.795l-14.617-10.53-14.51 10.422h2.795l.108 9.778-29.019 18.803h2.365v19.018h76.952z"/><path fill="#FFF" d="M169.313 274.219v5.906H75.469v-6h93.75"/><path stroke="#000" stroke-width="1.29" d="M169.384 274.26v5.91H75.45v-6.018h93.933z"/><path fill="#FFF" d="M81.656 273.844v-20.156h3.75l-.187 20.343.187-20.25-5.437-.094v-4.406l83.812.188v4.219h-5.062v20.437l-.094-20.438h3.75l.188 20.25"/><path stroke="#000" stroke-width="1.29" d="M81.684 273.83v-20.2h3.762l-.215 20.415.215-20.2-5.374-.215v-4.298l83.83.108v4.297h-5.158l.107 20.415-.215-20.415h3.87l.107 20.2"/><path stroke="#000" stroke-width="1.29" d="M99.74 268.887v-14.075H88.348v13.968l11.285.107"/><path d="M91.572 257.713v8.166h5.159v-8.166h-5.266m63.41 11.174l-.108-13.968H143.59v13.968h11.285" stroke="#000" stroke-width="1.29"/><path d="M146.6 257.82v8.166h5.158v-8.166h-5.159zm8.167-11.819v-13.968h-11.285v13.968h11.285z" stroke="#000" stroke-width="1.29"/><path d="M146.492 234.934v8.166h5.159v-8.166h-5.16zm-46.86 11.067v-14.075H88.349v13.968h11.285V246z" stroke="#000" stroke-width="1.29"/><path d="M91.465 234.827v8.166h5.158v-8.166h-5.158M120.053 246v-14.075h-11.285v13.968h11.285" stroke="#000" stroke-width="1.29"/><path d="M111.777 234.827v8.166h5.16v-8.166h-5.16M135.744 246v-13.968l-11.285-.107v13.968l11.285.107" stroke="#000" stroke-width="1.29"/><path stroke="#000" stroke-width="1.29" d="M127.469 234.827v8.166h5.266v-8.166h-5.266"/><path fill="#FFF" d="M138.469 241.688l.187 32.437h-32.719l-.093-32.438h32.531"/><path d="M138.539 241.703l.107 32.45h-32.565l-.107-32.45h32.565zm-32.78 9.24h32.887-32.887zm4.084 23.21v-22.994 22.993zm24.826 0v-22.887 22.886zm15.8-46.31l-18.271-13.324h-20.743l-18.27 13.324h57.283zm-37.402-24.498v8.166h17.41v-8.166h-17.41z" stroke="#000" stroke-width="1.29"/><path d="M117.796 205.386v4.083h7.953v-4.083h-7.953m3.869-11.496l9.673 6.876H112.1l9.672-6.876" stroke="#000" stroke-width="1.29"/><path d="M160.688 189.375c2.718 0 3.375 11.25 3.375 16.875 2.437.75 7.593 4.031 9.937 6.938h-26.438c2.25-2.907 7.407-6.188 9.75-6.844 0-5.625.563-17.063 3.375-16.875" fill="#FFF"/><path d="M160.678 189.377c2.795 0 3.44 11.282 3.44 16.976 2.364.645 7.63 3.976 9.887 6.877h-26.439c2.257-2.901 7.524-6.232 9.78-6.877 0-5.694.646-16.976 3.332-16.976zm-53.2 53.186h2.365l-.645 1.29s1.075 1.504 0 3.223l.645 1.074h-2.365l.645-1.074s-1.075-1.934 0-3.224l-.645-1.289zm4.837 0h2.364l-.645 1.29s1.075 1.504 0 3.223l.645 1.074h-2.364l.645-1.074s-1.075-1.934 0-3.224l-.645-1.289zm5.373 0h2.257l-.644 1.29s1.074 1.504 0 3.223l.644 1.074h-2.257l.538-1.074s-1.075-1.934 0-3.224l-.645-1.289h.107zm5.912 0h2.364l-.752 1.397s1.182 1.397 0 3.116l.645 1.074H123.6l.644-1.074s-1.074-1.934 0-3.224l-.644-1.182v-.107zm5.266 0h2.364l-.752 1.397s1.182 1.397 0 3.116l.645 1.074h-2.15l.538-1.074s-1.075-1.934 0-3.224l-.645-1.182v-.107zm5.266.107h2.365l-.753 1.29s1.182 1.397 0 3.116l.645 1.074h-2.15l.538-1.074s-1.075-1.934 0-3.224l-.645-1.182z" stroke="#000" stroke-width="1.29"/><path d="M122.344 315.75c12.187 0 27.187-2.531 34.219-6.094l15.468-1.406.375 18.844c-13.125 7.219-43.312 8.812-49.969 8.719-6.656 0-37.218-1.5-50.437-8.72l.188-18.937 15.468 1.406a91.875 91.875 0 0 0 34.688 6.188" fill="#FF0"/><path d="M122.417 315.734c12.252 0 27.191-2.471 34.285-6.124l15.369-1.29.322 18.804c-13.004 7.199-43.312 8.81-49.868 8.703-6.664 0-37.294-1.504-50.513-8.81l.215-18.804 15.476 1.397c7.093 3.653 22.57 6.124 34.714 6.124" stroke="#000" stroke-width=".5"/><path d="M32.25 235.313l13.594 4.312-4.125 22.031-12.844 2.063s-2.156-11.625 3.375-28.406" fill="#FF0"/><path d="M32.353 235.364l13.542 4.298-4.084 22.027-12.897 2.041s-2.15-11.604 3.44-28.366z" stroke="#000" stroke-width=".5"/><path fill="#7E7E7E" d="M41.719 261.469l-12.844 2.25 8.156-11.625 4.688 9.375"/><path stroke="#000" stroke-width=".5" d="M41.811 261.474l-12.897 2.149 8.168-11.497 4.73 9.348"/><path d="M24.094 251.25l13.125.938c.281 11.062 1.687 53.437 52.312 55.78l-1.594 15.47c-61.593.562-66.28-52.032-63.75-72.188" fill="#FF0"/><path d="M24.185 251.266l13.112.86c.323 11.174 1.612 53.508 52.34 55.872l-1.612 15.472c-61.69.645-66.312-52.004-63.84-72.204zm48.149 75.32l15.476-3.33-15.476 3.33z" stroke="#000" stroke-width=".5"/><path d="M211.313 235.5l-13.5 4.313 4.312 21.937 12.938 2.063s2.062-11.532-3.75-28.313" fill="#FF0"/><path d="M211.407 235.471l-13.542 4.298 4.299 22.027 12.897 2.149s2.15-11.604-3.654-28.474z" stroke="#000" stroke-width=".5"/><path fill="#7E7E7E" d="M202.125 261.563l12.844 2.343-8.25-11.625-4.688 9.281"/><path stroke="#000" stroke-width=".5" d="M202.164 261.581l12.897 2.256-8.276-11.496-4.621 9.24"/><path d="M219.656 251.344l-13.125.937c-.187 11.063-1.219 53.438-51.844 55.781l1.875 15.375c61.594.75 65.813-51.937 63.188-72.093" fill="#FF0"/><path d="M219.682 251.374l-13.112.86c-.215 11.174-1.075 53.615-51.803 55.872l1.72 15.364c61.69.753 65.882-51.896 63.195-71.989v-.107zm-47.504 75.212l-15.476-3.223 15.476 3.223z" stroke="#000" stroke-width=".5"/><path d="M114.188 325.031a2.357 2.357 0 0 1-1.407.188l-2.437-.094.187-3.094 2.438.188c.469 0 .937.094 1.125.281.469.188.656.656.656 1.313 0 .562-.281.937-.656 1.218m-4.031 4.688l.187-3.656 2.813.187c.937.094 1.687-.188 2.156-.656.469-.375.75-.938.75-1.688a2.344 2.344 0 0 0-.563-1.875 3 3 0 0 0-1.875-.844l-4.125-.28-.562 8.812h1.219m8.812-7.219h3l1.031.188c.469.28.656.656.656 1.312 0 .563-.093.938-.468 1.219a2.438 2.438 0 0 1-1.313.281h-2.906v-3m0 7.688v-3.75l2.813.093c.468 0 .937 0 1.124.188.376.187.657.562.657 1.125V330l.187.281h1.5v-.187a.75.75 0 0 1-.375-.469 3.188 3.188 0 0 1-.094-.75v-1.219c0-.562-.187-.937-.374-1.125a1.594 1.594 0 0 0-.75-.562c.374-.188.75-.469.937-.75.188-.375.375-.75.375-1.313 0-.937-.469-1.687-1.313-2.062a4.406 4.406 0 0 0-1.687-.375h-4.219v8.812h1.219m9.375-1.875a4.219 4.219 0 0 1-.938-2.437c0-1.219.188-2.156.75-2.813a2.906 2.906 0 0 1 2.25-.937 2.812 2.812 0 0 1 2.25.75c.657.562.938 1.406 1.032 2.437a4.687 4.687 0 0 1-.563 2.625c-.469.75-1.219 1.219-2.344 1.219-1.125 0-1.875-.188-2.53-.844m-1.407-5.531a5.625 5.625 0 0 0-.75 3.094c.094 1.312.469 2.437 1.313 3.187a4.313 4.313 0 0 0 3.374 1.219 4.125 4.125 0 0 0 3.282-1.688 5.625 5.625 0 0 0 .937-3.375 4.688 4.688 0 0 0-1.125-2.906c-.844-.937-2.062-1.406-3.656-1.312-1.5 0-2.625.656-3.375 1.781M168 310.219c.938-.094 1.688-.094 2.344.094.937.375 1.594 1.03 2.062 2.156l-1.219.187a2.25 2.25 0 0 0-1.125-1.219 3.281 3.281 0 0 0-1.875-.187c-.766.13-1.445.57-1.875 1.219-.468.656-.656 1.594-.468 2.812.1.914.494 1.77 1.125 2.438.562.562 1.406.75 2.437.656a3 3 0 0 0 1.875-1.031c.563-.563.656-1.313.469-2.344l-2.813.469-.093-.938 3.937-.656.75 4.688h-.844l-.468-.938-.938.938c-.469.468-1.125.656-1.875.843a4.031 4.031 0 0 1-3-.656 4.688 4.688 0 0 1-1.781-3.188 4.781 4.781 0 0 1 .656-3.75 3.844 3.844 0 0 1 2.813-1.593m8.812-.656l2.813-1.032c.375-.187.75-.187 1.031-.187.563 0 .938.375 1.125.937.188.563.188 1.031 0 1.406a3.017 3.017 0 0 1-1.219.75l-2.625.938-1.125-2.813m2.813 7.22l-1.313-3.47 2.625-.937a2.813 2.813 0 0 1 1.031-.281c.47.094.844.375 1.125.937l.563 1.313.281.656.188.281 1.406-.562v-.188c-.281 0-.469-.094-.563-.375-.187-.094-.28-.375-.375-.656l-.468-1.125c-.188-.469-.469-.75-.656-.938a2.25 2.25 0 0 0-.938-.187l.563-1.125c0-.375 0-.844-.188-1.313-.375-.937-.938-1.5-1.875-1.5a4.219 4.219 0 0 0-1.781.282L175.406 309l3.188 8.25 1.125-.375m10.312-4.406l-4.969-7.313 5.438-3.562.656.937-4.5 2.813 1.5 2.25 4.219-2.625.563.844-4.22 2.625 1.688 2.53 4.688-3 .562.938-5.625 3.563m4.406-12.938l1.407-1.594c.75-.75 1.406-1.03 2.156-.937.844 0 1.594.469 2.438 1.219a4.406 4.406 0 0 1 1.312 1.875c.188.562.094 1.031 0 1.5-.17.344-.39.66-.656.937l-1.406 1.5-5.25-4.5m7.593 3.375c1.031-1.125 1.219-2.25.656-3.75a6.281 6.281 0 0 0-1.593-1.969 4.875 4.875 0 0 0-2.906-1.312c-1.125-.094-2.063.281-2.907 1.219l-2.437 2.625 6.75 5.906L202.03 303m5.25-6.844l-7.781-4.687.656-.938 7.781 4.594-.656.938m3.094-5.25l-8.438-3.375 2.438-5.907 1.031.375-1.969 4.875 2.532.938 1.875-4.406.937.375-1.875 4.5 2.813 1.125 2.156-4.875.938.375-2.438 6m3.75-10.313l-8.813-1.875.375-1.406 8.157-2.813-7.219-1.594.281-1.03 8.813 1.874-.281 1.313-8.157 2.812 7.219 1.594-.281 1.125m-.75-11.25l.094-1.125c.562 0 .937 0 1.312-.188.656-.375.938-1.03 1.125-1.968a3.46 3.46 0 0 0-.094-1.313c-.187-.656-.562-1.125-1.219-1.125-.562-.094-.937 0-1.125.281-.28.282-.468.75-.656 1.407l-.469 1.125c-.187.75-.468 1.312-.75 1.594-.375.562-.937.75-1.687.656a2.625 2.625 0 0 1-1.875-.938c-.563-.562-.75-1.406-.656-2.437.094-.938.375-1.688.937-2.25.469-.563 1.219-.938 2.25-.75l-.094 1.125c-.468 0-.937 0-1.125.281-.562.281-.843.938-.937 1.781 0 .656 0 1.125.375 1.5.281.375.563.563.938.563.468 0 .843 0 1.03-.375l.657-1.594.375-1.219c.188-.562.469-.937.75-1.312.469-.469 1.125-.656 1.875-.656 1.031.093 1.781.562 2.063 1.312.375.75.562 1.5.468 2.531a3.656 3.656 0 0 1-1.125 2.438c-.656.562-1.406.75-2.437.656m-183.375-.563l.281 1.125c-.563.094-.938.282-1.219.563-.468.469-.656 1.219-.468 2.25.064.393.19.772.375 1.125.375.656.937.938 1.593.844.469-.094.75-.281.938-.656l.281-1.5v-1.22c0-.75.188-1.406.281-1.687.282-.562.844-.937 1.594-1.125.75-.094 1.5 0 2.063.563.656.375 1.03 1.125 1.218 2.062a3.75 3.75 0 0 1-.281 2.438c-.375.75-.938 1.125-1.969 1.312l-.187-1.031c.346-.124.665-.315.937-.563.469-.468.563-1.125.469-1.968-.188-.75-.375-1.219-.75-1.406a1.406 1.406 0 0 0-1.125-.282.938.938 0 0 0-.938.656l-.093 1.688-.094 1.219a3.281 3.281 0 0 1-.375 1.5 2.062 2.062 0 0 1-1.594 1.125c-.937.187-1.875-.094-2.343-.75a4.687 4.687 0 0 1-1.125-2.25A3.563 3.563 0 0 1 28.03 270a2.812 2.812 0 0 1 2.063-1.219m-.563 11.531l8.719-2.625 1.969 6.094-1.032.375-1.687-4.969-2.625.75 1.594 4.688-1.032.281-1.5-4.687-3 .937 1.688 5.063-.938.281-2.156-6.188m3.844 10.594l7.969-4.219.937 1.5-5.531 5.72 7.969-1.313.843 1.406-7.968 4.219-.563-.938 4.688-2.531.843-.375 1.22-.656-7.97 1.406-.562-1.031 5.438-5.813-.282.188-.937.469c-.27.176-.552.333-.844.468l-4.688 2.438-.562-.938m14.813 11.719c-.376-.094-.75-.375-1.126-.75l-1.687-1.688 2.25-2.062 1.688 1.688c.28.264.504.583.656.937.187.469 0 .938-.469 1.406-.469.375-.938.563-1.313.469m-6.374.75l2.812-2.531 1.875 1.969c.75.656 1.406.937 2.063.937a2.813 2.813 0 0 0 1.874-.75c.474-.51.741-1.179.75-1.875 0-.563-.28-1.219-.843-1.781l-2.813-2.813-6.562 6 .937.938m7.875 7.031l4.782-7.5 5.624 3.375-.562.938-4.688-2.813-1.406 2.344 4.219 2.531-.469.938-4.312-2.625-1.594 2.53 4.688 2.813-.563.938-5.719-3.469m14.063-1.5l2.906.938.938.468c.374.375.468.844.187 1.406-.188.563-.375.938-.844 1.032l-1.406-.094-2.719-.938.938-2.812m-2.438 7.406l1.219-3.562 2.625.844c.469.093.938.28 1.031.468.281.281.375.75.281 1.313l-.468 1.406-.094.656v.281l1.406.47v-.188l-.187-.656.187-.657.375-1.125c.094-.562.188-.937 0-1.125 0-.281-.281-.562-.562-.844.469 0 .937-.187 1.219-.468.28-.281.562-.656.656-1.125.375-.938.187-1.781-.563-2.344a4.875 4.875 0 0 0-1.5-.844L63 307.687l-2.813 8.344 1.22.375" fill="#009FC5" fill-rule="nonzero"/><path d="M73.594 164.625c.937-2.531 10.594-9.375 42-6.375 0 0 5.344 3.281 8.437 2.813 1.875-.188-.937.187-3.375-1.782-2.344-1.875-2.812-5.906 2.531-5.719 5.438.094 25.594 1.22 25.97 3.094.374 1.781-10.688 2.531-14.72 2.438-4.125-.094-3.75 1.969.375 1.875 12.844-.563 26.813-5.063 41.532 5.437 1.781 1.219-4.406 1.406-9.188-.562 0 0-13.125.656-18.75-.281 0 0-4.219 3.562-9.937 3.187.75 1.875-2.063 8.625-19.688 3.469-3 .937-13.594 2.719-12.469-.469-2.812 0-7.687.938-8.437-.656-.75-1.594 8.625-3.938 10.313-5.625 0 0-19.876.187-23.626-1.219 0 0-11.718 2.625-10.968.375" fill="#BC715F"/><path d="M79.969 192.375c.375-.563.562-1.688 1.5-1.594 1.875.469 3.281 4.125 5.625 1.781.937-.187 1.219.938 1.875 1.125.469 1.97 2.156-.468 3.281-.28 2.625-1.126 5.719-1.407 8.813-.938 0 2.062-1.5 4.219-3.376 5.344 0 1.875 1.876 3.187 1.782 5.156-.281.75 0 1.875-1.125 2.156-1.5-.281-2.813-.375-4.031-1.219-.188-.094-.282-.375-.563-.281-.188.656.938 1.313 1.313 1.969-.75 1.219-1.876.094-2.907.094-.281.75 0 1.593-.75 2.062-1.219 0-1.5-1.406-2.25-2.063-.844.844.563 1.313.75 1.97-.562 2.624-.469 5.155-3 6.843l-1.781.844c-.469-1.313-.188-3.281-.469-4.688-.937 1.688-1.875 3.188-3.281 4.594-1.875-.563-2.813-2.625-3.188-4.406a5.437 5.437 0 0 1 1.22-5.813c-.47-.937-2.344-.75-2.626-2.25-2.812-1.875-4.219 3.094-6 .563a8.063 8.063 0 0 1 1.875-7.125c-.469-.938-1.781-.75-2.531-1.313-1.688-1.5-4.219-3-4.031-5.625a13.125 13.125 0 0 1 13.781 3.094" fill="#008737"/><path d="M82.406 192.094c-.094 2.156 1.406.562 2.625 1.875-.937-.375-1.594 1.594-2.531.469l-.563.562c.376.75.938.844.376 1.688-.938.375-1.22-.938-1.688-1.407 0-.187.188-.562-.188-.75-.562.469-1.124.656-1.874.563-.188-.375-.657-.938-.188-1.313.75-.937 1.875.375 2.438-.281.093-.656-.47-1.406.28-1.875.47.094 1.126-.188 1.313.469m5.813 1.781c.094.375-.188.938.375 1.313.75-.375 1.5-.094 1.875.562 0 .375.094.938-.375 1.125l-1.125-.281c.094-.188-.281-.281-.375-.563-.469-.094-.844.281-1.125.563.281.375.937.656.75 1.125-.656.656-.938-.563-1.688-.188-.562-.187.094-1.219-.656-1.594-.938 0-.281 1.5-1.5.938-.375-.469-.75-1.125-.375-1.594a1.5 1.5 0 0 1 1.781.188c.75-.844.75-3.844 2.531-1.594M81 196.969c.469.75-.188 1.687.469 2.437.937-1.875 1.875.375 3 .188.375.469.094 1.031.187 1.5-1.406.375-3.094.844-4.312-.281l-.375.375c.75.656 1.406 1.5.844 2.625-1.032.187-2.72.28-3.188-.844-.281-.938.656-1.5-.375-2.25-.656.937-.656 2.062-2.063 1.219a1.781 1.781 0 0 1-.75-2.344c.938-1.5 2.626 0 3.563-.656.188-1.313-.281-2.438.938-3.094.937-.188 1.406.562 2.062 1.125" fill="#FF0" fill-rule="nonzero"/><path d="M84.938 197.813c-.47 2.156-2.063-.094-2.813-.188.938-1.875 1.594.563 2.813.188M90 200.155c-1.125.281-.938-1.125-1.5-1.687l.469-.375c.375.469.656 1.406 1.031 2.062" fill="#FFF" fill-rule="nonzero"/><path d="M88.5 199.688c.281.75-.75 1.406.188 1.875l.75-.657c.843.188 1.687.375 2.25 1.125.562 1.594-1.032 1.594-1.876 2.063h-.937c.188-.563-.469-.75-.563-.938a.938.938 0 0 0-1.03.281c.187.938 1.406 1.875.187 2.72-1.125 0-2.813.374-2.719-1.126-.375-.937 1.125-2.156-.469-2.25-.562 1.219-1.125 2.25-2.531 1.219l.188-1.688c1.312 0 2.906.282 3.468-1.218.375-1.031-.656-2.063.281-2.813 1.407-.375 2.157.563 2.813 1.406" fill="#FF0"/><path d="M87.563 202.125c.28.844-.563.938-1.032 1.313-.562 0-.937-.188-1.312-.563-.281-.938.469-1.125.937-1.5.656-.281.938.469 1.406.75" fill="#000"/><path d="M86.719 202.688c-.094.187-.375.093-.563.187l-.187-.938c.469 0 .937.094.75.75" fill="#FFF"/></g></svg>