<svg width="800" height="480" xmlns="http://www.w3.org/2000/svg"><g fill="none" fill-rule="evenodd"><path fill="#3E5EB9" d="M0 0h800v480H0z"/><path fill="#FFD900" d="M0 85.688h800v308.625H0z"/><path fill="#B10C0C" d="M0 120h800v240H0z"/><rect stroke="#000" stroke-width="1.406" fill="#FFD900" x="109" y="235" width="582.844" height="10.313" rx="5.156"/><g transform="translate(184 185)" stroke="#000"><path stroke-width="1.303" fill="#FFF" d="M444.762.135l-29.148 10.276 29.148 10.276 29.148-10.276z"/><rect stroke-width="1.258" fill="#FFD900" x=".774" y="6.967" width="428.547" height="6.87" rx="3.435"/><path d="M419.053 13.837c1.693 0 3.387-1.742 3.387-3.484 0-1.741-1.694-3.386-3.387-3.386m-3.387 6.87c1.694 0 3.387-1.742 3.387-3.484 0-1.741-1.693-3.386-3.387-3.386m-3.483 6.966c1.693 0 3.387-1.741 3.387-3.483s-1.694-3.387-3.387-3.387" stroke-width="1.306"/></g><g transform="translate(156 206)" stroke="#000"><path stroke-width="1.303" fill="#FFF" d="M444.762.135l-29.148 10.276 29.148 10.276 29.148-10.276z"/><rect stroke-width="1.258" fill="#FFD900" x=".774" y="6.967" width="428.547" height="6.87" rx="3.435"/><path d="M419.053 13.837c1.693 0 3.387-1.742 3.387-3.484 0-1.741-1.694-3.386-3.387-3.386m-3.387 6.87c1.694 0 3.387-1.742 3.387-3.484 0-1.741-1.693-3.386-3.387-3.386m-3.483 6.966c1.693 0 3.387-1.741 3.387-3.483s-1.694-3.387-3.387-3.387" stroke-width="1.306"/></g><path d="M650.6 235.648c-5.127 8.965 4.01-2.964 26.476 12.074 4.102 2.747 7.738 10.122 7.738 15.255-1.025-.723-1.864-2.169-2.983-3.253-1.678 1.662 1.585 9.11 2.05 12.652-3.542-1.952-3.169-2.892-4.38-5.35.279 2.892-.56 10.989.838 14.026-2.796-.723-2.61-2.965-4.008-3.47.932 3.542-.933 7.301-.373 11.278-1.678-1.59-3.356-2.892-4.102-3.543-.093 1.88-3.077 6.796-3.17 8.604-1.398-.868-1.771-2.17-1.958-3.037-1.678 2.169-7.737 10.122-8.11 12.435-4.661-4.12-16.594-14.098-18.179-19.448-1.398 3.037-3.356 4.049-7.272 6.29-1.584-8.459-7.458-17.93-4.288-25.16a75.736 75.736 0 0 0-6.153 4.266c2.722-13.765 12.855-25.986 27.874-33.619z" stroke="#000" stroke-width="1.168" fill="#3D5DA7"/><path d="M631.281 280.188c2.157-4.313 4.125-5.625 5.532-8.438 2.437-4.875 2.812-8.813 4.968-8.25 2.157.563 2.157 2.625-.656 7.406-2.813 4.688-4.125 5.813-9.844 9.281zm14.532 10.312c-.282-3.375.75-4.688.562-6.844-.281-3.75-1.875-6.281.094-6.469 1.968-.187 2.906 1.125 2.906 4.875s-.563 4.688-3.563 8.438zm11.062 6.375c-.844-4.688-.188-6.563-.75-9.563-.938-5.25-2.813-8.625-.938-9.093 1.782-.469 2.813 1.219 3.563 6.469.656 5.25.281 6.75-1.875 12.187zm11.531-32.156c-2.718-1.969-4.312-2.156-6-3.469-3.093-2.344-4.687-4.781-5.625-3.563-.937 1.22-.281 2.532 2.907 4.688 3.28 2.156 4.312 2.344 8.718 2.344zM666.531 280c-1.406-3-2.906-3.75-3.843-5.625-1.688-3.375-1.688-6.281-3.375-5.531-1.875.75-1.875 2.25 0 5.531 1.875 3.188 2.812 3.75 7.218 5.625z" fill="#A70000" fill-rule="nonzero"/><path d="M134.082 244.43c-.32-2.657.32-2.952-1.386-4.92 2.346.984 2.452 3.64 5.331 1.77 1.066-.59 1.493-.59.213-3.443 2.985 0 12.794 3.444 14.286 3.542 4.158.197 11.621-4.329 16.738 1.18 5.011 5.019 3.305 10.234 3.305 17.22-1.919-.985-1.066-1.378-3.198-3.936 1.706 6.1 0 17.12 0 23.613-.853-1.574-.746-.983-1.493-2.558-2.132 5.904-4.69 7.183-4.69 14.07-.747-2.656 0-2.164-.853-3.542-2.133 4.428-15.992 8.265-10.662 12.79-4.69-2.754-6.823-2.459-9.062-5.017-.96.59-1.705 1.771-2.558 3.345-8.53-3.935-5.331-12.299-12.048-17.907-1.066 2.361-.64 1.968-1.919 5.805-1.279-5.313-1.705-8.757-3.198-12.594-1.28 2.165-1.066 1.28-3.518 4.625-1.066-6.494-2.559-8.069-1.92-12.3-2.558 1.772-.852.985-3.41 3.248 2.345-16.727 12.686-28.927 20.042-24.992z" stroke="#000" stroke-width="1.436" fill="#3D5DA7"/><path d="M123.656 271.5c2.156-5.344 4.125-7.031 5.625-10.5 2.438-6 2.813-10.875 4.875-10.125 2.156.75 2.063 3.188-.75 9.188a23.437 23.437 0 0 1-9.75 11.437zm8.25 13.406c.938-4.781 2.25-6.562 2.813-9.656.937-5.438.469-9.469 2.437-9.281 1.875.281 2.344 2.25 1.031 7.687-1.312 5.438-2.156 6.656-6.28 11.25zm9.844 9.281c.281-4.687 1.406-6.468 1.5-9.375.281-5.343-.656-9.093 1.125-9.093 1.875 0 2.531 1.875 1.969 7.125-.563 5.25-1.219 6.562-4.594 11.25v.094zm21.281-30.375c-4.125-4.03-6.562-4.78-9.187-7.5-4.594-4.5-6.844-8.812-8.438-7.218-1.687 1.5-.656 3.75 4.219 8.156 4.875 4.313 6.563 4.875 13.406 6.563zm-2.531 15.563c-2.625-3.938-4.5-5.063-6.188-7.688-3-4.593-4.03-8.53-5.625-7.5-1.875.938-1.406 3 1.875 7.5 3.188 4.407 4.5 5.157 10.032 7.688h-.094z" fill="#A70000" fill-rule="nonzero"/><path d="M567.985 240.14c-34.253 34.252-79.988 102.874-171.458 102.874-79.988 0-137.141-68.564-171.394-102.874 34.253-34.253 91.406-102.817 171.394-102.817 91.47 0 137.14 68.506 171.458 102.817z" stroke="#000" stroke-width="1.289" fill="#FFF"/><path d="M384.563 173c9.187 10.313 1.5 14.438 11.25 15.094 10.125.75 4.312 10.875 12.937 11.25 6 .187-.656 24.094 5.156 32.062 5.906 8.156 10.781 2.344 10.875 8.344.094 6.094-15.937 5.531-16.219 24.375-.468 10.969-13.593 11.719-14.25 18.75-.75 6.563 25.782 10.313 25.5 16.219-.375 5.906-28.78 4.969-30 11.625-.562 6.094 39 11.062 42.188 28.5-5.906 1.875-22.781 3.75-35.438 3.75-79.968 0-137.156-68.531-171.468-102.844 34.312-34.313 91.5-102.844 171.469-102.844 0 0-23.72 21.656-12 35.813V173z" fill="#000"/><path d="M289.125 203.563h8.344v27.375h-8.344v-27.375zm0 45.75h8.344v27.375h-8.344v-27.375zm16.594-45.75h8.344v27.375h-8.344v-27.375zm0 45.75h8.344v27.375h-8.344v-27.375zm16.781-45.75h8.25v27.375h-8.25v-27.375zm0 45.75h8.25v27.375h-8.25v-27.375zm16.594-45.75h8.344v27.375h-8.344v-27.375zm0 45.75h8.344v27.375h-8.344v-27.375zm16.594-45.75h8.343v27.375h-8.344v-27.375zm0 45.75h8.343v27.375h-8.344v-27.375zm16.687-45.75h8.25v27.375h-8.25v-27.375zm0 45.75h8.25v27.375h-8.25v-27.375z" fill="#FFF" fill-rule="nonzero"/><path d="M414.844 203.563h8.344v27.375h-8.344v-27.375zm0 45.75h8.344v27.375h-8.344v-27.375zm16.594-45.75h8.343v27.375h-8.344v-27.375zm0 45.75h8.343v27.375h-8.344v-27.375zm16.687-45.75h8.25v27.375h-8.25v-27.375zm0 45.75h8.25v27.375h-8.25v-27.375zm16.594-45.75h8.344v27.375h-8.438l.094-27.375zm0 45.75h8.344v27.375h-8.438l.094-27.375zm16.594-45.75h8.343v27.375h-8.344v-27.375zm0 45.75h8.343v27.375h-8.344v-27.375zM498 203.563h8.25v27.375H498v-27.375zm0 45.75h8.25v27.375H498v-27.375z" fill="#000" fill-rule="nonzero"/><path d="M341.041 155.736c-4.689 9.155 8.355-3.027 28.817 12.33 5.14 5.56 8.361 12.265 9.293 19.342-4.348-.886-12.107-5.168-12.107-5.168s9.037 9.007 9.037 19.49c-3.154-1.993-4.774-1.698-5.797-4.134 0 3.322 2.813 5.537 2.813 10.779a42.22 42.22 0 0 0-6.223-4.208c2.984 5.241-5.542 15.43-1.28 18.826-7.416-1.108-15.09-5.907-18.073-11.075-1.62 1.034-1.706 2.732-1.876 4.578.256.147-11.34-8.638-10.23-12.034-1.62 2.215-1.791 3.396-2.132 5.906-4.513-3.848-7.827-8.623-9.634-13.88l-3.922 4.947c-1.364-8.638-1.364-8.343 1.45-15.725a69.636 69.636 0 0 0-5.627 4.356c2.479-14.06 11.748-26.543 25.491-34.33z" stroke="#000" stroke-width="1.116" fill="#3D5DA7"/><path d="M329.438 200.563c.75-6.282 2.343-8.72 2.812-12.75.938-7.22-.094-12.375 2.438-12.282 2.53.094 3.28 2.813 2.062 9.938-1.313 7.125-2.344 8.906-7.313 15.094zm13.218 11.625c-.469-5.344.469-7.594.188-11.063-.563-6-2.438-10.125-.281-10.5 2.25-.375 3.375 1.594 3.562 7.781.281 6.094-.281 7.688-3.469 13.781zm20.719 9.375c-2.25-4.5-4.219-5.907-5.625-8.907-2.625-5.25-3.094-9.469-5.063-8.719-2.062.75-1.875 3 .938 8.157 2.813 5.062 4.219 6.094 9.75 9.562v-.094zm7.125-41.25c-5.625-3.094-8.625-3.094-12.375-5.063-6.469-3.375-10.313-7.219-11.625-5.156-1.313 2.156.469 4.219 7.219 7.312 6.656 3.094 8.719 3.281 16.875 2.813l-.094.094zm2.156 17.25c-4.219-3.47-6.656-4.032-9.375-6.282-4.687-3.844-7.125-7.687-8.719-6.187-1.5 1.594-.468 3.656 4.5 7.312 4.97 3.75 6.657 4.219 13.594 5.156z" fill="#A70000" fill-rule="nonzero"/></g></svg>