<svg width="800" height="480" xmlns="http://www.w3.org/2000/svg"><g fill="none" fill-rule="evenodd"><path fill="#006" d="M800 480V0H0v480z"/><path fill="#006" d="M0 0h399.68v239.176H0z"/><path d="M0 0v26.781l354.973 212.395h44.706v-26.781L44.6 0H0zm399.68 0v26.781L44.598 239.176H0v-26.781L354.973 0h44.706z" fill="#FFF" fill-rule="nonzero"/><path d="M166.524 0v239.176h66.631V0h-66.63zM0 79.725v79.726h399.68V79.725H0z" fill="#FFF" fill-rule="nonzero"/><path d="M0 95.691v47.794h399.68V95.691H0zM179.893 0v239.176h39.893V0h-40 .107zM0 239.176l133.262-79.725h29.733L29.733 239.176H0zM0 0l133.262 79.725h-29.84L0 17.82V0zm236.684 79.725L369.84 0h29.84L266.31 79.725h-29.732.106zM399.68 239.176l-133.37-79.725h29.947l103.422 61.802v17.923z" fill="#C00" fill-rule="nonzero"/><path d="M702.4 119v80c0 65.6-25.7 125.6-102.2 162.1C523.9 324.6 498 264.6 498 198.9v-79.8h204.5l-.1-.1z" fill="#FFF"/><path d="M695.7 127.1v74.4c0 61.2-24 117.2-95.3 151.3-71.3-34-95.4-90-95.4-151.3V127h190.7v.1z" fill="#FDC300"/><g stroke="#000" stroke-width=".5"><path d="M556.154 159.407a7.818 7.818 0 0 0-5.082-1.954c.391-5.083-3.127-7.037-5.863-7.82-2.736-1.172-3.91-2.345-3.91-4.3-.39-1.954-1.954-3.518-4.3-3.909-2.345-.782-4.69-3.128-5.472-4.3-.782-1.173-1.172-1.173-1.954.782-.782 1.954-3.518 5.864-.782 5.864-1.955 1.563-3.127 3.127-1.955 5.473-1.172 1.173-1.954 2.736-.39 3.127l2.345 1.564c-1.564 0-1.955 3.128 1.564 3.91-.782 0-1.173 2.345.39 2.345-1.954 0-3.909 3.128-6.254 3.128-2.736 0-3.909.782-3.909 1.954l-2.345 3.128c1.954 0 3.127 0 3.909-.782.781-.782 2.736-1.173 3.909 0 1.172.782 3.909 1.173 4.69.782-2.345 1.955-3.909 3.91-4.3 6.255 0 2.346-1.954 4.691-3.908 5.473-1.173.782-3.91 2.346-4.3 4.691 1.954 5.474 5.081 6.646 8.209 8.21 5.472 2.346 8.99 4.3 11.336 7.037 2.345 2.346 3.127.391 6.645 5.082 3.518 3.91 6.645 12.51 10.163 13.683 3.518 1.564 7.818.782 10.164-3.91 2.736-3.909 3.909-48.476-8.6-55.904v.391z" fill="#FF9E3D"/><path d="M562.018 140.642c-3.519 3.91-7.818 7.037-6.646 13.292 1.173 6.255 1.173 16.42-4.69 19.547-5.473 3.91-8.21 12.51-1.564 17.592 7.036 5.083 7.427 11.338 8.209 16.81 1.172 5.865 4.3 10.556 8.99 6.647 4.691.782 7.037-1.173 7.037-5.082 0-3.91 0-5.474 3.909-6.646 3.127-1.173 3.909-2.346 5.863-5.474 1.564-3.127 2.346-4.69 1.564-6.255a14.466 14.466 0 0 1-.782-8.6c.782-2.737-.782-3.91-1.564-5.864a7.429 7.429 0 0 1-.781-5.474c0-2.345-.782-3.909-2.346-5.082-1.563-1.173-2.345-2.345-1.954-3.91 0-1.954-1.173-3.127-3.128-4.69-1.954-1.564-2.736-3.128-2.736-5.865 0-2.736-5.472-8.991-9.381-10.946z" fill="#FF927F"/><path d="M563.19 215.703c7.818-1.955 7.036-14.465 5.864-19.547-1.173-5.474-3.91-12.901-1.955-19.156 3.127-8.21-3.909-16.42-1.954-19.547 1.954-3.519 1.563-5.083 1.172-6.255 0-.782-1.954-1.564-1.954.39 0 2.346-.782 3.128-1.955 4.3-1.172 1.174-1.172 4.692 0 7.82.782 3.518 3.128 8.6 0 15.246-3.909 6.646-2.345 9.383-1.172 12.51 2.345 5.083 7.036 21.893 1.954 24.239z" fill="#FF9EE1"/><path d="M528.791 143.77c.782 0 2.345 0 2.345.782m-3.909 4.69c.782-.781 2.737 0 4.3-.781m-2.736 5.473c1.173 0 3.127 0 5.082-1.564m-3.518 5.473c1.563 0 3.909-.781 4.3-2.736m-3.91 5.082c2.737 0 5.864.782 6.255 0m-5.864 8.21c1.564-1.564 5.473-2.737 6.646-3.91m-2.346-21.501c2.737.782 1.564 2.736 3.127 3.91 2.346 1.563 0 3.909 2.346 4.3 1.954.781 1.954 1.172 1.173 3.518-.391 2.737 1.954 2.737 1.172 4.691m7.818-1.954c-1.172 0-4.69 0-5.863 3.127m-18.763 30.102c1.563 0 1.954-.39 2.345-1.172.39-.782.782-1.564 1.954-1.564 1.173 0 3.128-.391 3.519-1.173 0-1.173 1.563 0 2.736-2.737 1.564-2.345 2.345-5.082 5.473-6.255"/></g><g stroke="#000" stroke-width=".5"><path d="M617.916 241.114c1.173 1.563 0 3.91 1.955 4.691 2.736.782.39 3.91 3.518 5.473 2.736 1.173 0 3.91 2.736 5.864 2.736 1.173 0 3.91 3.127 5.864 3.91 1.955-.781 5.864 1.955 7.428s-.782 5.473 2.345 7.037c2.736 1.564-1.563 4.3 1.564 6.646 2.736 1.955-.782 5.473 1.954 7.428 2.737 1.955-1.563 4.691 1.173 7.428 2.345 1.955-.782 3.91.782 7.819 1.172 1.954-1.173 10.555-7.036 9.773-2.346 3.91-10.555 7.037-13.682 5.864-3.127 2.346-12.9 5.082-17.981.391-5.082 4.691-14.855 1.955-17.982 0-3.127.782-11.727-2.736-13.681-6.255-6.255.782-8.21-7.819-7.036-10.164 1.563-3.128-1.564-5.473.781-7.82 2.737-2.345-1.954-5.081 1.173-7.036 3.127-1.955-.782-5.473 1.955-7.819 3.127-1.955-1.564-5.082 1.563-6.255 3.127-1.564-.39-5.473 2.346-7.037 2.345-1.564-1.564-5.473 1.954-7.428 3.518-1.563 0-4.69 3.127-5.864 2.737-1.563 0-4.691 2.737-5.864 3.127-1.173.781-4.691 3.518-5.473 2.345-1.173.781-3.128 1.954-5.082 6.645 2.736 26.581 4.691 35.181 0v.39z" fill="#00A728"/><path d="M585.471 252.451c0 .782 0 1.955-.781 3.128-1.955 2.345.781 3.909-1.564 6.645-1.954 2.737.391 4.692-1.954 7.037-2.346 2.346.39 4.692-1.955 7.037-2.345 2.737.391 4.692-1.954 7.037-2.346 2.346.39 5.082-1.955 7.428s.391 5.473-1.954 7.819c-2.737 3.127 0 5.473-1.955 7.819-1.954 1.954 0 3.91-1.564 5.473 2.346-1.955 2.346-5.082 4.3-6.255 1.955-1.564-.39-3.91.782-5.082 1.173-1.173 0-5.474 1.955-7.82 1.954-2.345 0-6.645 1.954-7.818 1.955-1.173.391-6.255 2.736-7.819 2.346-1.564 0-5.082 1.564-7.037 1.955-1.954 0-5.082 1.955-7.819 1.563-1.954 0-4.3 1.172-6.255.782-.781.782-7.036-.782-3.909v.391zm6.255 2.737c-1.564 2.736 1.173 3.518-.782 6.255-1.954 2.736 1.173 5.082-1.173 7.818-2.345 2.737 1.173 4.3-.781 7.037-1.955 3.128.781 4.692-.782 6.646-1.955 2.346 1.173 4.3-.782 7.037-2.345 2.737.782 4.692-1.173 7.037-1.563 2.346.782 5.082-.781 7.037-1.564 1.955 1.172 4.691-1.173 7.428-2.346 2.737.39 3.91-.782 5.864 2.736-.782 1.564-4.3 2.736-5.082.782-.782-.39-5.864 1.173-7.037 1.564-1.564-1.173-5.473 0-7.037 2.736-3.128.782-5.082 1.955-7.428 1.563-2.346-.391-5.082.781-6.646 1.955-2.736-.781-5.082.391-7.037 1.955-2.736 0-4.691 1.173-6.646 1.954-2.736 0-5.473.39-7.037 1.174-1.173 2.346-7.428 0-8.21h-.39zm8.6 2.345c-1.564 3.91 1.172 5.082 0 8.21-.782 3.127 1.172 5.473 0 8.6-1.173 3.52 1.563 5.865 0 10.165-1.564 4.3 1.172 5.473 0 9.774-1.173 4.69 1.954 7.427 0 10.946-2.346 3.518 2.345 4.691 0 8.21-.782 1.954 0 6.255 1.954.782 1.955-5.083-1.172-5.865 0-7.82 1.955-2.345 0-7.818.391-11.337.782-2.736-1.564-7.036 0-10.164 1.173-3.518-2.345-7.037-.782-9.773 1.173-2.737-.781-6.256.782-8.601 1.173-2.346-1.173-5.473-.782-6.646.782-1.173-.39-6.255-1.563-2.346z" fill="#FDC300" fill-rule="nonzero"/><path d="M616.744 243.46c0-24.63-3.91-33.23-16.418-33.23-12.9 0-16.418 8.6-16.418 33.23h32.836z" fill="#EF072D"/><path d="M588.599 241.505c-2.346 2.345.39 3.91-1.955 7.037-2.345 2.736 0 4.3-1.954 7.037-1.955 2.736.781 3.909-1.564 6.645-1.954 2.737.782 4.692-1.954 7.037-2.346 2.346.39 4.692-1.955 7.037-2.345 2.737.391 4.692-1.954 7.037-2.346 2.346.39 4.692-1.955 7.428-2.345 2.346.391 5.473-1.954 7.819-2.737 3.127 0 5.473-1.955 7.819-1.954 2.345 0 3.91-1.564 5.473-1.563 1.564-1.954 3.91-1.172 4.691m24.626-74.278c-2.345 3.127 1.173 3.909-.781 6.646-1.955 2.345.781 3.127-.782 6.255-1.564 3.127 1.173 3.518-.782 6.255-1.954 2.736 1.173 5.082-1.173 7.818-2.345 2.737 1.173 4.3-.781 7.037-1.955 3.128.781 4.692-.782 6.646-1.955 2.346 1.172 4.3-1.173 7.037-1.954 2.737 1.173 4.692-.782 7.037-1.563 2.346.782 5.082-.782 7.037-1.563 1.955 1.173 4.691-1.172 7.428-2.346 2.737.39 3.91-.782 5.864-1.173 1.955-2.345 4.3-1.173 5.082m17.982-77.406c-1.173 4.691 1.563 8.6 0 12.51-1.564 3.91 1.172 5.082 0 8.21-.782 3.127 1.172 5.473 0 8.6-1.173 3.52 1.563 5.865 0 10.165-1.564 4.3 1.172 5.473 0 9.774-1.173 4.69 2.345 7.427 0 10.946-2.346 3.518 1.954 4.3 0 8.21-1.564 3.909 1.172 5.473 0 9.382m11.727-81.315c2.345 2.345-.782 3.91 1.954 7.037 2.346 2.736 0 4.3 1.955 7.037 1.954 2.736-.782 3.909 1.172 6.645 2.346 2.737 0 4.692 1.955 7.037 2.736 2.346 0 4.692 1.954 7.037 2.737 2.737 0 4.692 2.346 7.037 2.345 2.346-.782 4.692 1.954 7.428 2.346 2.346-.39 5.473 1.955 7.819 2.736 3.127-.391 5.473 1.954 7.819 1.955 1.954 0 3.91 1.564 5.473 1.564 1.564 1.954 3.91 1.173 4.691m-24.627-74.278c1.954 3.127-1.173 3.909.782 6.646 1.954 2.345-.782 3.127.781 6.255 1.564 2.736-1.172 3.518.782 6.255 1.955 2.736-1.172 5.082 1.173 7.818 2.345 2.737-1.173 4.3.782 7.037 1.954 3.128-.782 4.692.782 6.646 1.954 2.346-1.173 4.3.781 7.037 2.346 2.737-.781 4.692 1.173 7.037 1.564 2.346-.782 5.082.782 7.037 1.563 1.955-1.173 4.691 1.173 7.428 2.345 2.737-.391 3.91.781 5.864 1.173 1.955 2.346 4.3 1.173 5.082"/><path d="M583.908 243.46c0-24.63 3.909-33.23 16.418-33.23-5.864 0-9.382 4.69-10.555 7.818-1.172 3.128-.39 2.737.782 1.564 1.173-1.173.782 1.564 0 2.737-1.173 1.563-2.345 5.473-.782 3.909 1.564-.782 2.737.39.782 2.737-1.954 2.345-2.736 7.818-1.173 5.864 1.564-1.955 1.955 1.173.782 2.736-.782 1.564-.782 2.737 0 2.346 1.173-.782.782 2.346 0 3.91h-6.254v-.392zm30.1-1.173c0-19.547-2.346-25.412-7.037-27.366-2.736-1.173-2.736-.782-1.564 1.173 1.173 1.954 1.173 3.909 0 2.345-1.172-1.564-1.563-1.954-2.345-1.173l3.127 7.82c1.173 2.345 0 3.909-1.563 1.172-1.564-2.737-1.564-.39 0 1.955 1.954 2.736 1.563 11.337 1.563 14.855l7.818-.781z" fill="#000" fill-rule="nonzero"/><path d="M600.326 246.978c5.081 0 10.554-.782 14.463-2.346 4.3-1.564 4.69-3.127 3.127-5.082-1.173-1.564-3.518-.782-5.863.39a43.776 43.776 0 0 1-23.454 0c-2.346-.781-4.691-1.954-5.864-.39-1.563 1.955-1.563 3.518 3.127 5.082 3.91 1.564 9.382 2.346 14.464 2.346z" fill="#EF072D"/></g><g fill="#B95A1E"><path d="M649.782 214.508l5.943 9.943c2.516 4.197 4.555 5.185 6.377 3.99 1.82-1.186.27-4.59-1.183-6.221-1.462-1.634-9.482-9.32-9.482-9.32l-1.655 1.608z" stroke="#000" stroke-width=".5"/><path d="M649.14 214.852l2.322 11.488c.987 4.852 2.57 6.487 4.658 5.972 2.084-.508 1.742-4.276.915-6.324-.834-2.053-5.827-12.1-5.827-12.1l-2.068.964z" stroke="#000" stroke-width=".5"/><path d="M647.748 215.12v11.747c.006 4.963 1.23 6.883 3.375 6.791 2.138-.085 2.548-3.854 2.144-6.03-.41-2.183-3.307-13.045-3.307-13.045l-2.212.538z" stroke="#000" stroke-width=".5"/><path d="M647.765 215.022c6.156-.092 6.835-2.32 6.835-2.32s1.365-4.648.683-5.808c-.683-1.16-7.518-1.16-7.518-1.16v9.288z" stroke="#000" stroke-width=".5"/><path d="M647.754 210.422c6.607 0 7.708-2.32 7.708-2.32s2.206-4.648 1.106-5.808c-1.1-1.16-8.814-1.16-8.814-1.16v9.288z" stroke="#000" stroke-width=".5"/><path d="M647.754 205.722c5.507 0 8.814-2.32 8.814-2.32s2.2-4.648 1.1-5.808c-1.1-1.16-9.914-1.16-9.914-1.16v9.288zm3.68-42.789s5.462-5.807 15.035-11.615c9.565-5.808 16.485-10.272 17.765-9.289 0 1.16-8.2 6.968-15.042 11.616-6.827 4.64-15.027 11.609-15.027 11.609l-2.73-2.32zm.7 4.6s5.4-3.408 15.768-8.128c10.198-4.195 24.6-3.487 24.6-2.327-1.373 1.167-13.67 1.167-21.87 4.648-7.83 3.323-15.774 8.128-15.774 8.128l-2.731-2.32h.007zm.1 8s4.752-2.294 15.768-5.807c10.93-3.481 25.44-1.16 25.44 0-1.365 1.16-13.144.458-21.344 2.32-8.485 1.822-17.125 5.808-17.125 5.808l-2.739-2.32zm.4 8.2s5.477-4.654 17.156-5.807c11.749-1.16 21.314 5.807 21.314 6.968-1.365 1.16-12.304-5.113-20.496-4.215-8.686.898-15.243 5.375-15.243 5.375l-2.738-2.32h.007z" stroke="#000" stroke-width=".5"/><path d="M647.754 199.922c9.92-.092 9.914-2.983 9.914-2.983s2.2-4.64 1.1-5.807c-1.1-1.16-11.014-.499-11.014-.499v9.289z" stroke="#000" stroke-width=".5"/><path d="M647.754 195.322c9.92-.092 11.014-2.32 11.014-2.32s2.2-4.648 1.1-5.808c-1.1-1.16-12.114-1.16-12.114-1.16v9.288z" stroke="#000" stroke-width=".5"/><path d="M647.754 189.522c9.92-.092 12.12-2.32 12.12-2.32s2.195-4.648 1.095-5.808c-1.1-1.16-13.215-1.16-13.215-1.16v9.288z" stroke="#000" stroke-width=".5"/><path d="M647.754 183.722c9.92-.092 13.215-2.32 13.215-2.32s1.1-4.648 0-5.808c-1.1-1.16-13.215-1.16-13.215-1.16v9.288zm2.18-25.589s8.81-5.807 8.81-10.455c0-4.64-3.888-9.288-4.983-11.609 2.198 0 7.181 6.968 7.181 11.61 0 5.08-8.277 12.781-8.277 12.781l-2.73-2.327z" stroke="#000" stroke-width=".5"/><path d="M649.934 158.133s-1.103-3.487-1.103-10.455c.019-5.54 2.363-10.893 6.611-15.096.455 1.796-4.404 8.128-4.404 15.103 0 5.08 1.627 12.782 1.627 12.782l-2.73-2.327v-.007zm-2.18 19.789c9.92-.092 13.215-2.32 13.215-2.32s0-4.648-1.1-5.808c-1.1-1.16-12.115-1.16-12.115-1.16v9.288z" stroke="#000" stroke-width=".5"/><path d="M647.754 172.022c9.92-.092 12.12-2.32 12.12-2.32s0-4.648-1.106-5.808c-1.1-1.16-11.014-1.16-11.014-1.16v9.288z" stroke="#000" stroke-width=".5"/><path d="M676.377 241.701c-3.419-8.016-4.407-22.064-4.407-24.384 0-6.542 2.051-38.36 2.207-51.103.155-12.743-7.708-19.744-15.416-19.744-6.614 0-11.015 4.654-11.015 11.616h3.301c-.052-2.172.744-4.271 2.2-5.808 1.457-1.536 3.448-2.375 5.508-2.32 6.607 0 11.686 5.486 12.121 16.256.466 12.455-1.33 44.77-1.106 53.423.223 8.653 3.182 16.368 6.607 22.058v.006z" stroke="#FDC301" stroke-width="1.028"/><path d="M645.718 214.508l-5.943 9.943c-2.516 4.197-4.555 5.185-6.377 3.99-1.82-1.186-.27-4.59 1.183-6.221 1.462-1.634 9.482-9.32 9.482-9.32l1.655 1.608zm2.036-57.051c7.72.006 11.052 6.712 11.033 6.574l-2.219 2.183c-1.181 1.167-8.814 1.167-8.715 1.16l-.1-9.917z" stroke="#000" stroke-width=".5"/><path d="M646.36 214.852l-2.322 11.488c-.987 4.852-2.57 6.487-4.658 5.972-2.084-.508-1.742-4.276-.915-6.324.834-2.053 5.827-12.1 5.827-12.1l2.068.964z" stroke="#000" stroke-width=".5"/><path d="M647.752 215.12v11.747c-.006 4.963-1.23 6.883-3.375 6.791-2.138-.085-2.548-3.854-2.144-6.03.41-2.183 3.307-13.045 3.307-13.045l2.212.538z" stroke="#000" stroke-width=".5"/><path d="M647.735 215.022c-6.156-.092-6.835-2.32-6.835-2.32s-1.365-4.648-.683-5.808c.683-1.16 7.518-1.16 7.518-1.16v9.288z" stroke="#000" stroke-width=".5"/><path d="M647.746 210.422c-6.607 0-7.708-2.32-7.708-2.32s-2.206-4.648-1.106-5.808c1.1-1.16 8.814-1.16 8.814-1.16v9.288z" stroke="#000" stroke-width=".5"/><path d="M647.746 205.722c-5.507 0-8.814-2.32-8.814-2.32s-2.2-4.648-1.1-5.808c1.1-1.16 9.914-1.16 9.914-1.16v9.288zm-3.68-42.789s-5.462-5.807-15.035-11.615c-9.565-5.808-16.485-10.272-17.765-9.289 0 1.16 8.2 6.968 15.042 11.616 6.827 4.64 15.027 11.609 15.027 11.609l2.73-2.32zm-.7 4.6s-5.4-3.408-15.768-8.128c-10.198-4.195-24.6-3.487-24.6-2.327 1.373 1.167 13.67 1.167 21.87 4.648 7.83 3.323 15.774 8.128 15.774 8.128l2.731-2.32h-.007zm0 8s-4.752-2.294-15.768-5.807c-10.93-3.481-25.44-1.16-25.44 0 1.365 1.16 13.144.458 21.344 2.32 8.485 1.822 17.125 5.808 17.125 5.808l2.739-2.32zm-.6 8.2s-5.477-4.654-17.156-5.807c-11.749-1.16-21.314 5.807-21.314 6.968 1.365 1.16 12.304-5.113 20.496-4.215 8.686.898 15.243 5.375 15.243 5.375l2.738-2.32h-.007z" stroke="#000" stroke-width=".5"/><path d="M647.746 199.922c-9.92-.092-9.914-2.983-9.914-2.983s-2.2-4.64-1.1-5.807c1.1-1.16 11.014-.499 11.014-.499v9.289z" stroke="#000" stroke-width=".5"/><path d="M647.746 195.322c-9.92-.092-11.014-2.32-11.014-2.32s-2.2-4.648-1.1-5.808c1.1-1.16 12.114-1.16 12.114-1.16v9.288z" stroke="#000" stroke-width=".5"/><path d="M647.746 189.522c-9.92-.092-12.12-2.32-12.12-2.32s-2.195-4.648-1.095-5.808c1.1-1.16 13.215-1.16 13.215-1.16v9.288z" stroke="#000" stroke-width=".5"/><path d="M647.746 183.722c-9.92-.092-13.215-2.32-13.215-2.32s-1.1-4.648 0-5.808c1.1-1.16 13.215-1.16 13.215-1.16v9.288zm-2.18-25.589s-8.81-5.807-8.81-10.455c0-4.64 3.888-9.288 4.983-11.609-2.198 0-7.181 6.968-7.181 11.61 0 5.08 8.277 12.781 8.277 12.781l2.73-2.327z" stroke="#000" stroke-width=".5"/><path d="M645.566 158.133s1.103-3.487 1.103-10.455c-.019-5.54-2.363-10.893-6.611-15.096-.455 1.796 4.404 8.128 4.404 15.103 0 5.08-1.627 12.782-1.627 12.782l2.73-2.327v-.007zm2.18 19.789c-9.92-.092-13.215-2.32-13.215-2.32s0-4.648 1.1-5.808c1.1-1.16 12.115-1.16 12.115-1.16v9.288z" stroke="#000" stroke-width=".5"/><path d="M647.746 172.022c-9.92-.092-12.12-2.32-12.12-2.32s0-4.648 1.106-5.808c1.1-1.16 11.014-1.16 11.014-1.16v9.288z" stroke="#000" stroke-width=".5"/><path d="M619.123 241.701c3.419-8.016 4.407-22.064 4.407-24.384 0-6.542-2.051-38.36-2.207-51.103-.155-12.743 7.708-19.744 15.416-19.744 6.614 0 11.015 4.654 11.015 11.616h-3.301c.052-2.172-.744-4.271-2.2-5.808-1.457-1.536-3.448-2.375-5.508-2.32-6.607 0-11.686 5.486-12.121 16.256-.466 12.455 1.33 44.77 1.106 53.423-.223 8.653-3.182 16.368-6.607 22.058v.006z" stroke="#FDC301" stroke-width="1.028"/><path d="M647.746 157.457c-7.72.006-11.052 6.712-11.033 6.574l2.219 2.183c1.181 1.167 8.814 1.167 8.715 1.16l.1-9.917z" stroke="#000" stroke-width=".5"/></g></g></svg>