<svg width="800" height="480" xmlns="http://www.w3.org/2000/svg"><g fill="none" fill-rule="evenodd"><path fill="#FFE300" d="M0 0h800v480H0z"/><path d="M0 194.906h800v96.469H0v-96.469zM0 0h800v96.469H0V0z" fill="#118600" fill-rule="nonzero"/><path fill="#D80000" d="M0 .281h287.344V291.47H0z"/><path d="M126 120.375c0-.75 17.719-49.688 17.719-49.688l15.937 48.938s53.813 1.594 53.813.75c0-.844-42.469 32.156-42.469 32.156s20.063 56.25 19.219 54.563c-.75-1.594-46.5-33.75-46.5-33.75S97.125 205.5 97.969 205.5c.75 0 17.625-52.969 17.625-52.969L73.875 121.22l52.125-.844z" fill="#FFF"/><path fill="#118600" d="M0 383.625h800V480H0z"/></g></svg>