<svg width="800" height="480" xmlns="http://www.w3.org/2000/svg"><g fill="none" fill-rule="evenodd"><path fill="#060" d="M0 0h800v480H0z"/><path fill="#FFF" d="M0 0h800v342.9H0z"/><path fill="#C00" d="M0 0h800v137.1H0z"/><path d="M381.001 236.377a8.6 8.6 0 0 1 16 4v34.4h6.4v-34.3a8.6 8.6 0 0 1 16-4 20.2 20.2 0 1 0-38.4 0" fill="#F8C300"/><path d="M386 226.988a13.7 13.7 0 0 1 14.6 6.5 13.7 13.7 0 0 1 14.6-6.5 14.7 14.7 0 0 0-29.2 0" fill="#FFF"/><path d="M396.8 261a26 26 0 0 1-43.8 16.6 27 27 0 0 1-41 12c2.5 25 40 19.9 42.8-4.4 11.7 20.7 37.6 14.7 45.2-10.6l-3.2-13.6zm6.4-.7a26 26 0 0 0 43.8 16.6 27 27 0 0 0 41 12c-2.5 25-40 19.9-42.8-4.4-11.7 20.7-37.6 14.7-45.2-10.6l3.2-13.6z" fill="#F8C300"/><path d="M371.8 305c-5.3 11.3-15.7 13.2-24.8 4.1 0 0 3.6-2.6 7.6-3.3-.8-3.1.7-7.5 2.9-9.8a15 15 0 0 1 6.1 8.1c5.5-.7 8.2 1 8.2 1v-.1zm41.366-1.478c-7.075 10.282-17.646 10.458-25.137-.006 0 0 3.976-1.977 8.037-2.014-.283-3.19 1.915-7.285 4.462-9.195a15 15 0 0 1 4.695 8.987c5.54.208 7.926 2.326 7.926 2.326l.017-.098zm40.659 5.522c-8.643 9.005-19.103 7.47-24.805-4.067 0 0 4.243-1.309 8.257-.69.236-3.192 3.067-6.879 5.889-8.352a15 15 0 0 1 3.18 9.628c5.435 1.1 7.447 3.576 7.447 3.576l.032-.095z" fill="#F8C300"/><path d="M334 330.687a233.1 233.1 0 0 1 133 0" stroke="#F8C300" stroke-width="11"/><path d="M410.495 181.077l-27.102-19.69h33.5l-27.102 19.69 10.352-31.86zm-48.001 13.548l-27.101-19.69h33.499l-27.101 19.69 10.351-31.86zm-35.108 35.108l-27.102-19.69h33.5l-27.102 19.69 10.352-31.86zm-12.891 48l-27.102-19.69h33.5l-27.102 19.69 10.352-31.86zm123.153-83.993l27.101-19.69H431.25l27.102 19.69L448 161.88zm35.108 35.108l27.102-19.69h-33.5l27.102 19.69-10.352-31.86zm12.892 48l27.101-19.69h-33.5l27.102 19.69L496 244.988z" fill="#F8C300"/></g></svg>