<svg width="800" height="480" xmlns="http://www.w3.org/2000/svg"><g fill="none" fill-rule="evenodd"><path fill="#00247D" d="M0 0h800v480H0z"/><path d="M135.569 392.385c-8.518-.126 79.836-46.765 153.698-106.675C386.14 207.22 594.757 81.713 656.16 61.238c6.356-2.149-13.094 10.87-15.637 15.04-65.471 77.1-13.221 222.45 68.65 295.632 24.663 18.706 23.391 19.717 69.03 21.486v4.298l-642.634-5.309zm-5.34 8.469s-6.229 4.423-6.229 7.71c0 3.665 6.992 8.468 6.992 8.468l633.736 6.951 11.696-7.71-16.273-9.985-629.922-5.434z" fill="#FED100" fill-rule="nonzero"/><path d="M133.619 81.9l-5.085 15.42 13.221-9.48 13.094 9.48-4.958-15.42 13.095-9.48h-16.273L141.755 57l-5.085 15.42h-16.273l13.222 9.48zm99.287 72.548l10.933-7.962h-13.602l-4.196-12.766-4.195 12.766H208.37l10.933 7.962-4.195 12.766 10.933-7.963 11.06 7.963-4.195-12.766zM48.316 170.88l-5.086-15.42-4.958 15.42H22l13.094 9.48-4.958 15.42 13.094-9.48 13.222 9.48-5.085-15.42 13.221-9.48H48.316zm99.287 154.578l-5.848-17.948-5.848 17.948h-19.07l15.383 10.996-5.847 18.074 15.382-11.122 15.383 11.122-5.975-18.074 15.382-10.996h-18.942z" fill="#FFF" fill-rule="nonzero"/></g></svg>