<svg width="800" height="480" xmlns="http://www.w3.org/2000/svg" xmlns:xlink="http://www.w3.org/1999/xlink"><defs><path id="a" d="M0 0h800v480H0z"/></defs><g fill="none" fill-rule="evenodd"><mask id="b" fill="#fff"><use xlink:href="#a"/></mask><use fill="#28AE66" xlink:href="#a"/><g mask="url(#b)"><path d="M357.457 53.234c21.28 9.136 36.189 30.28 36.189 54.902 0 32.98-26.744 59.724-59.724 59.724-14.764 0-28.276-5.363-38.701-14.244a59.554 59.554 0 0 0 20.92 4.76c32.948 1.44 60.833-24.113 62.272-57.06.835-19.129-7.43-36.55-20.956-48.082zm-56.964 43.902l6.766-20.826-17.716 12.872h21.899L293.726 76.31zm0-30.72l6.766-20.826-17.716 12.872h21.899L293.726 45.59zm30.349 15.742l6.767-20.826-17.716 12.872h21.898l-17.716-12.872zm-60.698 29.956l6.766-20.827-17.716 12.872h21.899l-17.716-12.872zm30.349 15.742l6.766-20.826-17.716 12.872h21.899l-17.716-12.872z" fill="#FFF"/></g><g mask="url(#b)"><path fill="#CA3745" d="M86.398 0h129.6v480h-129.6z"/><g fill-rule="nonzero"><path d="M86.398-31.695v4.704l7.288 6.821-2.457 2.288 5.212 4.83-2.288 2.078v-3.01h-4.45v3.602L99.746-.974h5.084l.552-3.306h-2.924l3.177-2.966L113.602 0l-7.967 7.288-3.177-2.966h2.924L104.83.974h-5.084l-10.042 9.408v3.601h4.45v-3.008l2.288 2.075-5.212 4.832 2.457 2.33-7.288 6.78v4.703l12.33-11.483-2.457-2.33 5.17-4.832-4.45-4.152 2.966-2.712 5.678 5.255L118.094 0l-12.459-11.44-5.677 5.296-2.967-2.754 4.45-4.152-5.17-4.832 2.458-2.288-12.33-11.525zm0 22.839V8.856l2.882-2.924V2.5h3.05L94.788 0 92.33-2.458h-3.05v-3.474l-2.882-2.924zm21.017 6.271l-.424 2.415.424 2.458 2.627-2.458-2.627-2.416v.001z" fill="#383739"/><path d="M86.398-31.186v3.728l7.797 7.288-2.457 2.288 5.21 4.83-3.134 2.925v-3.517h-3.772v3.136l9.873 9.194h4.576l.467-2.627h-3.39l4.067-3.813L114.11 0l-8.475 7.754-4.067-3.77h3.39l-.468-2.67h-4.576l-9.874 9.194v3.136h3.772v-3.517l3.135 2.923-5.212 4.83 2.458 2.331-7.796 7.247v3.728L98.218 20.21l-2.457-2.33 5.17-4.83-4.45-4.153 3.475-3.22 5.678 5.296L117.542 0l-11.908-10.974-5.677 5.296-3.475-3.22 4.45-4.152-5.17-4.832 2.457-2.288-11.821-11.016zm0 22.838V8.348l2.543-2.543V2.118h3.262L94.323 0l-2.12-2.118h-3.262v-3.688l-2.543-2.541v-.001zm21.272 6.44l-.296 1.738.296 1.738 1.864-1.738-1.864-1.737z" fill="#FAAE29"/><path d="M86.398 55.67v4.704l7.288 6.822-2.457 2.288 5.212 4.83-2.288 2.077v-3.009h-4.45v3.602l10.043 9.407h5.084l.552-3.305h-2.924l3.177-2.966 7.967 7.246-7.967 7.288-3.177-2.967h2.924l-.552-3.347h-5.084l-10.042 9.407v3.602h4.45V98.34l2.288 2.075-5.212 4.831 2.457 2.33-7.288 6.78v4.704l12.33-11.483-2.457-2.33 5.17-4.832-4.45-4.152 2.966-2.712 5.678 5.254 12.458-11.44-12.459-11.44-5.677 5.296-2.967-2.755 4.45-4.152-5.17-4.831 2.458-2.288-12.33-11.526zm0 22.84v17.712l2.882-2.924v-3.432h3.05l2.458-2.5-2.458-2.458h-3.05v-3.474l-2.882-2.924zm21.017 6.27l-.424 2.416.424 2.458 2.627-2.458-2.627-2.416z" fill="#383739"/><path d="M86.398 56.18v3.727l7.797 7.288-2.457 2.289 5.21 4.83-3.134 2.924v-3.516h-3.772v3.136l9.873 9.194h4.576l.467-2.627h-3.39l4.067-3.814 8.475 7.755-8.475 7.754-4.067-3.771h3.39l-.468-2.67h-4.576l-9.874 9.195v3.136h3.772v-3.517l3.135 2.923-5.212 4.83 2.458 2.33-7.796 7.247v3.728l11.821-10.974-2.457-2.33 5.17-4.831-4.45-4.152 3.475-3.22 5.678 5.295 11.908-10.973-11.908-10.975-5.677 5.296-3.475-3.22 4.45-4.152-5.17-4.831 2.457-2.288-11.821-11.017zm0 22.838v16.696l2.543-2.544v-3.686h3.262l2.12-2.118-2.12-2.119h-3.262V81.56l-2.543-2.542zm21.272 6.44l-.296 1.738.296 1.738 1.864-1.738-1.864-1.738z" fill="#FAAE29"/><path d="M86.398 145.909v4.704l7.288 6.821-2.457 2.288 5.212 4.83-2.288 2.078v-3.01h-4.45v3.602l10.043 9.408h5.084l.552-3.306h-2.924l3.177-2.966 7.967 7.246-7.967 7.288-3.177-2.966h2.924l-.552-3.348h-5.084l-10.042 9.408v3.601h4.45v-3.008l2.288 2.075-5.212 4.832 2.457 2.33-7.288 6.78v4.703l12.33-11.483-2.457-2.33 5.17-4.832-4.45-4.152 2.966-2.712 5.678 5.255 12.458-11.441-12.459-11.44-5.677 5.296-2.967-2.754 4.45-4.152-5.17-4.832 2.458-2.288-12.33-11.525zm0 22.839v17.712l2.882-2.924v-3.432h3.05l2.458-2.5-2.458-2.458h-3.05v-3.474l-2.882-2.924zm21.017 6.271l-.424 2.415.424 2.458 2.627-2.458-2.627-2.416v.001z" fill="#383739"/><path d="M86.398 146.418v3.728l7.797 7.288-2.457 2.288 5.21 4.83-3.134 2.925v-3.517h-3.772v3.136l9.873 9.194h4.576l.467-2.627h-3.39l4.067-3.813 8.475 7.754-8.475 7.754-4.067-3.77h3.39l-.468-2.67h-4.576l-9.874 9.194v3.136h3.772v-3.517l3.135 2.923-5.212 4.83 2.458 2.331-7.796 7.247v3.728l11.821-10.975-2.457-2.33 5.17-4.83-4.45-4.153 3.475-3.22 5.678 5.296 11.908-10.974-11.908-10.974-5.677 5.296-3.475-3.22 4.45-4.152-5.17-4.832 2.457-2.288-11.821-11.016zm0 22.838v16.696l2.543-2.543v-3.687h3.262l2.12-2.118-2.12-2.118h-3.262v-3.688l-2.543-2.541v-.001zm21.272 6.44l-.296 1.738.296 1.738 1.864-1.738-1.864-1.737z" fill="#FAAE29"/><path d="M86.398 236.146v4.704l7.288 6.822-2.457 2.288 5.212 4.83-2.288 2.077v-3.009h-4.45v3.602l10.043 9.407h5.084l.552-3.305h-2.924l3.177-2.966 7.967 7.246-7.967 7.288-3.177-2.967h2.924l-.552-3.347h-5.084l-10.042 9.407v3.602h4.45v-3.008l2.288 2.075-5.212 4.831 2.457 2.33-7.288 6.78v4.704l12.33-11.483-2.457-2.33 5.17-4.832-4.45-4.152 2.966-2.712 5.678 5.254 12.458-11.44-12.459-11.44-5.677 5.296-2.967-2.755 4.45-4.152-5.17-4.831 2.458-2.288-12.33-11.526zm0 22.84v17.712l2.882-2.924v-3.432h3.05l2.458-2.5-2.458-2.458h-3.05v-3.474l-2.882-2.924zm21.017 6.27l-.424 2.416.424 2.458 2.627-2.458-2.627-2.416z" fill="#383739"/><path d="M86.398 236.655v3.728l7.797 7.288-2.457 2.289 5.21 4.83-3.134 2.924v-3.516h-3.772v3.136l9.873 9.194h4.576l.467-2.627h-3.39l4.067-3.814 8.475 7.755-8.475 7.754-4.067-3.771h3.39l-.468-2.67h-4.576l-9.874 9.195v3.136h3.772v-3.517l3.135 2.923-5.212 4.83 2.458 2.33-7.796 7.247v3.728l11.821-10.974-2.457-2.33 5.17-4.831-4.45-4.152 3.475-3.22 5.678 5.295 11.908-10.973-11.908-10.975-5.677 5.296-3.475-3.22 4.45-4.152-5.17-4.831 2.457-2.288-11.821-11.017zm0 22.839v16.696l2.543-2.544v-3.686h3.262l2.12-2.118-2.12-2.119h-3.262v-3.687l-2.543-2.542zm21.272 6.44l-.296 1.738.296 1.738 1.864-1.738-1.864-1.738z" fill="#FAAE29"/><path d="M86.398 326.383v4.704l7.288 6.822-2.457 2.288 5.212 4.83-2.288 2.077v-3.009h-4.45v3.602l10.043 9.407h5.084l.552-3.306h-2.924l3.177-2.965 7.967 7.245-7.967 7.288-3.177-2.966h2.924l-.552-3.347h-5.084l-10.042 9.407v3.602h4.45v-3.008l2.288 2.075-5.212 4.831 2.457 2.33-7.288 6.78v4.704l12.33-11.484-2.457-2.33 5.17-4.831-4.45-4.152 2.966-2.712 5.678 5.254 12.458-11.44-12.459-11.44-5.677 5.295-2.967-2.754 4.45-4.152-5.17-4.831 2.458-2.288-12.33-11.526zm0 22.84v17.711l2.882-2.924v-3.432h3.05l2.458-2.5-2.458-2.457h-3.05v-3.475l-2.882-2.924zm21.017 6.27l-.424 2.416.424 2.457 2.627-2.457-2.627-2.416z" fill="#383739"/><path d="M86.398 326.892v3.728l7.797 7.288-2.457 2.289 5.21 4.83-3.134 2.924v-3.517h-3.772v3.136l9.873 9.195h4.576l.467-2.627h-3.39l4.067-3.814 8.475 7.754-8.475 7.755-4.067-3.771h3.39l-.468-2.67h-4.576l-9.874 9.194v3.136h3.772v-3.516l3.135 2.923-5.212 4.83 2.458 2.33-7.796 7.247v3.728l11.821-10.974-2.457-2.33 5.17-4.831-4.45-4.152 3.475-3.221 5.678 5.296 11.908-10.974-11.908-10.974-5.677 5.296-3.475-3.22 4.45-4.152-5.17-4.831 2.457-2.288-11.821-11.017zm0 22.838v16.696l2.543-2.543v-3.686h3.262l2.12-2.119-2.12-2.118h-3.262v-3.687l-2.543-2.542zm21.272 6.441l-.296 1.738.296 1.737 1.864-1.737-1.864-1.738z" fill="#FAAE29"/></g><g fill-rule="nonzero"><path d="M215.998-31.695v4.704l-7.288 6.821 2.458 2.288-5.212 4.83 2.288 2.078v-3.01h4.45v3.602L202.65-.974h-5.085l-.55-3.306h2.923l-3.177-2.966L188.795 0l7.967 7.288 3.177-2.966h-2.924l.551-3.348h5.085l10.042 9.408v3.601h-4.45v-3.008l-2.288 2.075 5.212 4.832-2.457 2.33 7.288 6.78v4.703l-12.33-11.483 2.457-2.33-5.17-4.832 4.45-4.152-2.967-2.712-5.677 5.255L184.303 0l12.459-11.44 5.677 5.296 2.967-2.754-4.45-4.152 5.17-4.832-2.458-2.288 12.33-11.525zm0 22.839V8.856l-2.881-2.924V2.5h-3.05L207.608 0l2.457-2.458h3.05v-3.474l2.882-2.924zm-21.016 6.271l.424 2.415-.424 2.458-2.628-2.458 2.628-2.416v.001z" fill="#383739"/><path d="M215.998-31.186v3.728l-7.796 7.288 2.457 2.288-5.211 4.83 3.135 2.925v-3.517h3.771v3.136l-9.872 9.194h-4.576l-.467-2.627h3.39l-4.067-3.813L188.286 0l8.476 7.754 4.067-3.77h-3.39l.467-2.67h4.576l9.875 9.194v3.136h-3.772v-3.517l-3.135 2.923 5.212 4.83-2.458 2.331L216 27.458v3.728L204.178 20.21l2.458-2.33-5.17-4.83 4.45-4.153-3.475-3.22-5.678 5.296L184.855 0l11.907-10.974 5.678 5.296 3.475-3.22-4.45-4.152 5.17-4.832-2.457-2.288 11.821-11.016zm0 22.838V8.348l-2.542-2.543V2.118h-3.262L208.074 0l2.12-2.118h3.262v-3.688l2.542-2.541v-.001zm-21.27 6.44l.295 1.738-.296 1.738-1.864-1.738 1.864-1.737z" fill="#FAAE29"/><path d="M215.998 55.67v4.704l-7.288 6.822 2.458 2.288-5.212 4.83 2.288 2.077v-3.009h4.45v3.602l-10.043 9.407h-5.085l-.55-3.305h2.923l-3.177-2.966-7.967 7.246 7.967 7.288 3.177-2.967h-2.924l.551-3.347h5.085l10.042 9.407v3.602h-4.45V98.34l-2.288 2.075 5.212 4.831-2.457 2.33 7.288 6.78v4.704l-12.33-11.483 2.457-2.33-5.17-4.832 4.45-4.152-2.967-2.712-5.677 5.254-12.458-11.44 12.459-11.44 5.677 5.296 2.967-2.755-4.45-4.152 5.17-4.831-2.458-2.288 12.33-11.526zm0 22.84v17.712l-2.881-2.924v-3.432h-3.05l-2.458-2.5 2.457-2.458h3.05v-3.474l2.882-2.924zm-21.016 6.27l.424 2.416-.424 2.458-2.628-2.458 2.628-2.416z" fill="#383739"/><path d="M215.998 56.18v3.727l-7.796 7.288 2.457 2.289-5.211 4.83 3.135 2.924v-3.516h3.771v3.136l-9.872 9.194h-4.576l-.467-2.627h3.39l-4.067-3.814-8.476 7.755 8.476 7.754 4.067-3.771h-3.39l.467-2.67h4.576l9.875 9.195v3.136h-3.772v-3.517l-3.135 2.923 5.212 4.83-2.458 2.33 7.796 7.247v3.728l-11.822-10.974 2.458-2.33-5.17-4.831 4.45-4.152-3.475-3.22-5.678 5.295-11.908-10.973 11.907-10.975 5.678 5.296 3.475-3.22-4.45-4.152 5.17-4.831-2.457-2.288 11.821-11.017zm0 22.838v16.696l-2.542-2.544v-3.686h-3.262l-2.12-2.118 2.12-2.119h3.262V81.56l2.542-2.542zm-21.27 6.44l.295 1.738-.296 1.738-1.864-1.738 1.864-1.738z" fill="#FAAE29"/><path d="M215.998 145.909v4.704l-7.288 6.821 2.458 2.288-5.212 4.83 2.288 2.078v-3.01h4.45v3.602l-10.043 9.408h-5.085l-.55-3.306h2.923l-3.177-2.966-7.967 7.246 7.967 7.288 3.177-2.966h-2.924l.551-3.348h5.085l10.042 9.408v3.601h-4.45v-3.008l-2.288 2.075 5.212 4.832-2.457 2.33 7.288 6.78v4.703l-12.33-11.483 2.457-2.33-5.17-4.832 4.45-4.152-2.967-2.712-5.677 5.255-12.458-11.441 12.459-11.44 5.677 5.296 2.967-2.754-4.45-4.152 5.17-4.832-2.458-2.288 12.33-11.525zm0 22.839v17.712l-2.881-2.924v-3.432h-3.05l-2.458-2.5 2.457-2.458h3.05v-3.474l2.882-2.924zm-21.016 6.271l.424 2.415-.424 2.458-2.628-2.458 2.628-2.416v.001z" fill="#383739"/><path d="M215.998 146.418v3.728l-7.796 7.288 2.457 2.288-5.211 4.83 3.135 2.925v-3.517h3.771v3.136l-9.872 9.194h-4.576l-.467-2.627h3.39l-4.067-3.813-8.476 7.754 8.476 7.754 4.067-3.77h-3.39l.467-2.67h4.576l9.875 9.194v3.136h-3.772v-3.517l-3.135 2.923 5.212 4.83-2.458 2.331 7.796 7.247v3.728l-11.822-10.975 2.458-2.33-5.17-4.83 4.45-4.153-3.475-3.22-5.678 5.296-11.908-10.974 11.907-10.974 5.678 5.296 3.475-3.22-4.45-4.152 5.17-4.832-2.457-2.288 11.821-11.016zm0 22.838v16.696l-2.542-2.543v-3.687h-3.262l-2.12-2.118 2.12-2.118h3.262v-3.688l2.542-2.541v-.001zm-21.27 6.44l.295 1.738-.296 1.738-1.864-1.738 1.864-1.737z" fill="#FAAE29"/><path d="M215.998 236.146v4.704l-7.288 6.822 2.458 2.288-5.212 4.83 2.288 2.077v-3.009h4.45v3.602l-10.043 9.407h-5.085l-.55-3.305h2.923l-3.177-2.966-7.967 7.246 7.967 7.288 3.177-2.967h-2.924l.551-3.347h5.085l10.042 9.407v3.602h-4.45v-3.008l-2.288 2.075 5.212 4.831-2.457 2.33 7.288 6.78v4.704l-12.33-11.483 2.457-2.33-5.17-4.832 4.45-4.152-2.967-2.712-5.677 5.254-12.458-11.44 12.459-11.44 5.677 5.296 2.967-2.755-4.45-4.152 5.17-4.831-2.458-2.288 12.33-11.526zm0 22.84v17.712l-2.881-2.924v-3.432h-3.05l-2.458-2.5 2.457-2.458h3.05v-3.474l2.882-2.924zm-21.016 6.27l.424 2.416-.424 2.458-2.628-2.458 2.628-2.416z" fill="#383739"/><path d="M215.998 236.655v3.728l-7.796 7.288 2.457 2.289-5.211 4.83 3.135 2.924v-3.516h3.771v3.136l-9.872 9.194h-4.576l-.467-2.627h3.39l-4.067-3.814-8.476 7.755 8.476 7.754 4.067-3.771h-3.39l.467-2.67h4.576l9.875 9.195v3.136h-3.772v-3.517l-3.135 2.923 5.212 4.83-2.458 2.33L216 295.3v3.728l-11.822-10.974 2.458-2.33-5.17-4.831 4.45-4.152-3.475-3.22-5.678 5.295-11.908-10.973 11.907-10.975 5.678 5.296 3.475-3.22-4.45-4.152 5.17-4.831-2.457-2.288 11.821-11.017zm0 22.839v16.696l-2.542-2.544v-3.686h-3.262l-2.12-2.118 2.12-2.119h3.262v-3.687l2.542-2.542zm-21.27 6.44l.295 1.738-.296 1.738-1.864-1.738 1.864-1.738z" fill="#FAAE29"/><path d="M215.998 326.383v4.704l-7.288 6.822 2.458 2.288-5.212 4.83 2.288 2.077v-3.009h4.45v3.602l-10.043 9.407h-5.085l-.55-3.306h2.923l-3.177-2.965-7.967 7.245 7.967 7.288 3.177-2.966h-2.924l.551-3.347h5.085l10.042 9.407v3.602h-4.45v-3.008l-2.288 2.075 5.212 4.831-2.457 2.33 7.288 6.78v4.704l-12.33-11.484 2.457-2.33-5.17-4.831 4.45-4.152-2.967-2.712-5.677 5.254-12.458-11.44 12.459-11.44 5.677 5.295 2.967-2.754-4.45-4.152 5.17-4.831-2.458-2.288 12.33-11.526zm0 22.84v17.711l-2.881-2.924v-3.432h-3.05l-2.458-2.5 2.457-2.457h3.05v-3.475l2.882-2.924zm-21.016 6.27l.424 2.416-.424 2.457-2.628-2.457 2.628-2.416z" fill="#383739"/><path d="M215.998 326.892v3.728l-7.796 7.288 2.457 2.289-5.211 4.83 3.135 2.924v-3.517h3.771v3.136l-9.872 9.195h-4.576l-.467-2.627h3.39l-4.067-3.814-8.476 7.754 8.476 7.755 4.067-3.771h-3.39l.467-2.67h4.576l9.875 9.194v3.136h-3.772v-3.516l-3.135 2.923 5.212 4.83-2.458 2.33 7.796 7.247v3.728l-11.822-10.974 2.458-2.33-5.17-4.831 4.45-4.152-3.475-3.221-5.678 5.296-11.908-10.974 11.907-10.974 5.678 5.296 3.475-3.22-4.45-4.152 5.17-4.831-2.457-2.288 11.821-11.017zm0 22.838v16.696l-2.542-2.543v-3.686h-3.262l-2.12-2.119 2.12-2.118h3.262v-3.687l2.542-2.542zm-21.27 6.441l.295 1.738-.296 1.737-1.864-1.737 1.864-1.738z" fill="#FAAE29"/></g><path d="M96.912 424.66c.64 2.725 2.806 4.782 3.323 7.61 1.034-2.948 1.987-5.419 1.275-8.644-.51-2.306-2.45-3.952-2.674-6.321-2.115 1.901-2.57 4.599-1.924 7.354zm-.536 11.42c1.794 2.46 4.288 4.347 7.042 5.606-.542-2.156.476-3.778 1.605-5.488 1.36-2.06 2.024-4.083.915-6.454-.517 1.233-1.212 2.257-2.027 3.311-1.205 1.644-1.997 3.107-2.184 5.216-1.393-1.033-2.005-2.576-2.751-4.069-1.136-2.138-2.97-3.926-5.076-5.095.56 2.399.99 4.935 2.476 6.973zm10.062 7.333c-.384 1.366-.714 2.72-.64 4.149-1.185-1.278-2.76-2.24-4.164-3.268-1.912-1.548-4.143-2.639-5.707-4.608.234 2.899 1.475 5.262 3.83 7.026 2.491 1.864 5.494 2.866 7.947 4.824-.368-2.638.602-4.75 1.427-7.174.688-2.316.023-4.667-1.548-6.432.023 1.956-.594 3.636-1.144 5.483zm5.59 8.906c.515 2 1.949 3.627 2.927 5.411-2.639-.818-4.968-2.25-7.353-3.596-2.841-1.547-5.928-2.532-8.5-4.575 1.28 4.74 4.454 7.487 9.096 8.888 3.173.959 5.848.48 9.699 2.037-.442-2.607-1.22-5.42-2.453-7.771-.956-1.7-2.017-3.377-2.608-5.25-.856 1.539-1.26 3.103-.809 4.856zm9.71 7.252a12.168 12.168 0 0 0 3.596 3.9c-3.747.24-6.761-2.135-10.414-2.238-2.256-.064-4.398.637-6.698.426 2.73 1.843 5.588 3.451 8.912 3.881 4.321.56 8.306-.528 13.073-.103-2.228-1.572-3.342-3.676-4.731-5.939-1.808-2.826-3.514-4.84-7.031-5.294 1.412 1.586 2.233 3.552 3.293 5.368zm13.305 6.219c-6.6 1.122-12.925 2.574-19.665 2.64 7.545 2.63 14.655 3.107 22.138.39 4.044-1.467 7.144-2.253 10.198-2.034 4.464.32 9.888 2.082 15.892 8.413l2.36-1.888c-8.604-7.666-19.863-9.402-30.923-7.522z" fill="#FAAE29" fill-rule="nonzero"/><path d="M205.517 424.66c-.64 2.725-2.807 4.782-3.323 7.61-1.034-2.948-1.988-5.419-1.276-8.644.51-2.306 2.45-3.952 2.675-6.321 2.115 1.901 2.57 4.599 1.924 7.354zm.536 11.42c-1.795 2.46-4.288 4.347-7.043 5.606.543-2.156-.475-3.778-1.604-5.488-1.36-2.06-2.024-4.083-.915-6.454.517 1.233 1.211 2.257 2.027 3.311 1.204 1.644 1.997 3.107 2.184 5.216 1.393-1.033 2.005-2.576 2.75-4.069 1.137-2.138 2.97-3.926 5.077-5.095-.56 2.399-.99 4.935-2.476 6.973zm-10.063 7.333c.384 1.366.715 2.72.64 4.149 1.186-1.278 2.76-2.24 4.165-3.268 1.912-1.548 4.143-2.639 5.707-4.608-.234 2.899-1.475 5.262-3.83 7.026-2.491 1.864-5.494 2.866-7.947 4.824.368-2.638-.602-4.75-1.427-7.174-.688-2.316-.023-4.667 1.548-6.432-.024 1.956.594 3.636 1.144 5.483zm-5.588 8.906c-.516 2-1.95 3.627-2.928 5.411 2.639-.818 4.968-2.25 7.352-3.596 2.842-1.547 5.928-2.532 8.5-4.575-1.28 4.74-4.453 7.487-9.095 8.888-3.173.959-5.848.48-9.699 2.037.442-2.607 1.22-5.42 2.453-7.771.956-1.7 2.017-3.377 2.608-5.25.856 1.539 1.26 3.103.809 4.856zm-9.712 7.252a12.168 12.168 0 0 1-3.595 3.9c3.747.24 6.761-2.135 10.414-2.238 2.256-.064 4.397.637 6.698.426-2.73 1.843-5.589 3.451-8.913 3.881-4.32.56-8.305-.528-13.072-.103 2.228-1.572 3.342-3.676 4.73-5.939 1.809-2.826 3.515-4.84 7.032-5.294-1.412 1.586-2.234 3.552-3.294 5.368zm-13.304 6.219c6.6 1.122 12.924 2.574 19.664 2.64-7.544 2.63-14.654 3.107-22.137.39-4.044-1.467-7.144-2.253-10.199-2.034-4.464.32-9.888 2.082-15.892 8.413l-2.36-1.888c8.605-7.666 19.864-9.402 30.924-7.522z" fill="#FAAE29" fill-rule="nonzero"/><path fill="#383739" d="M102.613 56.272l-10.385-6.369V34.595l10.385-6.368v-8.1l9.813-5.91h7.84l14.919-8.39h32.026l14.919 8.39h7.84l9.813 5.91v8.1l10.385 6.368v15.308l-10.384 6.368v8.1l-9.814 5.91h-7.84l-14.919 8.391h-32.026l-14.919-8.391h-7.84l-9.813-5.91z"/><path d="M135.254 6.186l-14.915 8.39h-7.797l-9.576 5.762v8.094l-10.381 6.356v14.915l10.381 6.356v8.136l9.534 5.763h7.84l14.914 8.39h31.864l14.916-8.39h7.84l9.576-5.764v-8.136l10.38-6.355V34.788l-10.38-6.356v-8.094l-9.576-5.762h-7.84l-14.916-8.39h-31.864zm.89 3.093h30.128l14.914 8.39h7.797l7.246 4.365v8.094l10.424 6.356v11.524l-10.424 6.356v8.094l-7.246 4.364h-7.797l-14.914 8.39h-30.128l-14.915-8.39h-7.796l-7.288-4.364v-8.094l-10.382-6.356V36.483l10.381-6.356v-8.093l7.288-4.364h7.797l14.915-8.39z" fill="#28AE66" fill-rule="nonzero"/><path fill="#FAAE29" d="M151.026 42.42V9.614h-14.804l-14.918 8.39h-7.778l-7.036 4.237v8.08l-10.384 6.368v5.389h55.264v32.807h14.805l14.919-8.391h7.778l7.035-4.237v-8.08l10.384-6.368V42.42z"/><path fill="#FFF" d="M96.105 42.42v5.389l10.384 6.368v8.08l7.036 4.237h7.777l14.919 8.39h14.805V42.078h55.264V36.69l-10.384-6.368v-8.08l-7.036-4.237h-7.778l-14.918-8.39H151.37V42.42z"/><path fill="#383739" d="M118.758 21.024l-2.556-2.382-2.533 1.561 2.56 2.388-3.287 2.037h7.175l6.184 5.832 1.977-2.088-6.012-5.672v-3.849z"/><path d="M130.858 19.978l-2.556-2.383-2.533 1.562 2.56 2.387-3.287 2.038h7.175l6.184 5.832 1.977-2.088-6.012-5.672v-3.85l-3.508 2.174zm-12.987 7.89l-2.557-2.382-2.532 1.562 2.56 2.387-3.288 2.038h7.176l6.183 5.832 1.978-2.089-6.012-5.671v-3.85l-3.508 2.174z" fill="#383739" fill-rule="nonzero"/><path fill="#383739" d="M151.198 9.271h-6.475l-3.388 3.265h-6.604l-4.88 2.533 1.138 2.773 4.352-2.286h1.906l6.673 7.718 7.278-4.432z"/><path d="M116.16 19.07l2.297 2.141-1.925 1.192-2.3-2.144 1.927-1.189zm5.763.396v3.382l5.87 5.537-1.507 1.592-6.033-5.691h-6.108l7.778-4.82zm6.336-1.442l2.298 2.14-1.925 1.193-2.3-2.144 1.927-1.19v.001zm5.764.395v3.382l5.87 5.537-1.507 1.592-6.033-5.69h-6.108l7.778-4.82z" fill="#CA3745" fill-rule="nonzero"/><path d="M115.273 25.914l2.297 2.142-1.925 1.192-2.3-2.144 1.928-1.19zm5.764.396v3.382l5.87 5.538-1.507 1.592-6.034-5.692h-6.108l7.779-4.82zm29.99-16.696h-6.165l-3.388 3.264h-6.66l-4.528 2.35.876 2.136 4.094-2.15h2.148l6.586 7.616 7.036-4.284V9.614z" fill="#CA3745" fill-rule="nonzero"/><path fill="#383739" d="M118.758 63.474l-2.556 2.383-2.533-1.562 2.56-2.388-3.287-2.037h7.175l6.184-5.832 1.977 2.088-6.012 5.672v3.85z"/><path d="M130.858 64.52l-2.556 2.383-2.533-1.561 2.56-2.388-3.287-2.037h7.175l6.184-5.832 1.977 2.088-6.012 5.672v3.85l-3.508-2.174zm-12.987-7.89l-2.557 2.383-2.532-1.563 2.56-2.387-3.288-2.037h7.176l6.183-5.832 1.978 2.088-6.012 5.672v3.85l-3.508-2.174z" fill="#383739" fill-rule="nonzero"/><path fill="#383739" d="M151.198 75.227h-6.475l-3.388-3.265h-6.604l-4.88-2.532 1.138-2.774 4.352 2.286h1.906l6.673-7.717 7.278 4.432z"/><path d="M116.16 65.428l2.297-2.14-1.925-1.193-2.3 2.144 1.927 1.189zm5.763-.396V61.65l5.87-5.536-1.507-1.592-6.033 5.69h-6.108l7.778 4.82zm6.336 1.442l2.298-2.14-1.925-1.192-2.3 2.144 1.927 1.19v-.002zm5.764-.395v-3.381l5.87-5.538-1.507-1.592-6.033 5.691h-6.108l7.778 4.82z" fill="#CA3745" fill-rule="nonzero"/><path d="M115.273 58.584l2.297-2.142-1.925-1.192-2.3 2.144 1.928 1.19zm5.764-.396v-3.382l5.87-5.537-1.507-1.592-6.034 5.691h-6.108l7.779 4.82zm29.99 16.697h-6.165l-3.388-3.264h-6.66l-4.528-2.35.876-2.137 4.094 2.15h2.148l6.586-7.616 7.036 4.285v8.932z" fill="#CA3745" fill-rule="nonzero"/><path fill="#383739" d="M114.443 31.768l-3.087-1.153-.074.051-3.985 2.766v.744l-6.384 8.073 6.384 8.073v.744l4.059 2.816 3.087-1.152-1.884-1.248v-2.374l.749-.896h3.345V36.286h-3.345l-.749-.896v-2.374z"/><path fill="#CA3745" d="M107.64 33.611l3.764-2.613 2.29.856-1.477.979v2.681l.931 1.114h3.162V47.87h-3.162l-.931 1.114v2.682l1.477.978-2.29.856-3.765-2.613v-.684l-6.29-7.954 6.291-7.955z"/><path fill="#383739" d="M183.637 21.024l2.557-2.382 2.532 1.561-2.56 2.388 3.288 2.037h-7.176l-6.184 5.832-1.977-2.088 6.012-5.672v-3.849z"/><path d="M171.537 19.978l2.557-2.383 2.532 1.562-2.56 2.387 3.288 2.038h-7.176l-6.184 5.832-1.977-2.088 6.012-5.672v-3.85l3.508 2.174zm12.987 7.89l2.557-2.382 2.532 1.562-2.56 2.387 3.288 2.038h-7.176l-6.183 5.832-1.978-2.089 6.012-5.671v-3.85l3.508 2.174z" fill="#383739" fill-rule="nonzero"/><path fill="#383739" d="M151.198 9.271h6.474l3.388 3.265h6.604l4.88 2.533-1.138 2.773-4.352-2.286h-1.906l-6.673 7.718-7.277-4.432z"/><path d="M186.236 19.07l-2.298 2.141 1.925 1.192 2.301-2.144-1.928-1.189zm-5.764.396v3.382l-5.87 5.537 1.507 1.592 6.033-5.691h6.108l-7.778-4.82zm-6.336-1.442l-2.298 2.14 1.925 1.193 2.301-2.144-1.928-1.19v.001zm-5.764.395v3.382l-5.87 5.537 1.507 1.592 6.033-5.69h6.108l-7.778-4.82z" fill="#CA3745" fill-rule="nonzero"/><path d="M187.122 25.914l-2.296 2.142 1.924 1.192 2.3-2.144-1.928-1.19zm-5.764.396v3.382l-5.87 5.538 1.507 1.592 6.034-5.692h6.109l-7.78-4.82zm-29.99-16.696h6.166l3.388 3.264h6.659l4.528 2.35-.876 2.136-4.094-2.15h-2.148l-6.585 7.616-7.037-4.284V9.614z" fill="#CA3745" fill-rule="nonzero"/><path fill="#383739" d="M183.637 63.474l2.557 2.383 2.532-1.562-2.56-2.388 3.288-2.037h-7.176l-6.184-5.832-1.977 2.088 6.012 5.672v3.85z"/><path d="M171.537 64.52l2.557 2.383 2.532-1.561-2.56-2.388 3.288-2.037h-7.176l-6.184-5.832-1.977 2.088 6.012 5.672v3.85l3.508-2.174zm12.987-7.89l2.557 2.383 2.532-1.563-2.56-2.387 3.288-2.037h-7.176l-6.183-5.832-1.978 2.088 6.012 5.672v3.85l3.508-2.174z" fill="#383739" fill-rule="nonzero"/><path fill="#383739" d="M151.198 75.227h6.474l3.388-3.265h6.604l4.88-2.532-1.138-2.774-4.352 2.286h-1.906l-6.673-7.717-7.277 4.432z"/><path d="M186.236 65.428l-2.298-2.14 1.925-1.193 2.301 2.144-1.928 1.189zm-5.764-.396V61.65l-5.87-5.536 1.507-1.592 6.033 5.69h6.108l-7.778 4.82zm-6.336 1.442l-2.298-2.14 1.925-1.192 2.301 2.144-1.928 1.19v-.002zm-5.764-.395v-3.381l-5.87-5.538 1.507-1.592 6.033 5.691h6.108l-7.778 4.82z" fill="#CA3745" fill-rule="nonzero"/><path d="M187.122 58.584l-2.296-2.142 1.924-1.192 2.3 2.144-1.928 1.19zm-5.764-.396v-3.382l-5.87-5.537 1.507-1.592 6.034 5.691h6.109l-7.78 4.82zm-29.99 16.697h6.166l3.388-3.264h6.659l4.528-2.35-.876-2.137-4.094 2.15h-2.148l-6.585-7.616-7.037 4.285v8.932z" fill="#CA3745" fill-rule="nonzero"/><path fill="#383739" d="M187.952 31.768l3.087-1.153.074.051 3.985 2.766v.744l6.384 8.073-6.384 8.073v.744l-4.059 2.816-3.087-1.152 1.884-1.248v-2.374l-.749-.896h-3.345V36.286h3.345l.749-.896v-2.374z"/><path fill="#CA3745" d="M194.756 33.611l-3.765-2.613-2.29.856 1.477.979v2.681l-.93 1.114h-3.162V47.87h3.161l.931 1.114v2.682l-1.476.978 2.29.856 3.764-2.613v-.684l6.29-7.954-6.29-7.955z"/><path fill="#383739" d="M108.962 49.026l-1.738-1.504v-.725l-3.728-4.548 3.729-4.548v-.725l1.738-1.504 3.122 2.54-1.802-.014 2.663 2.702h6.084l4.784-3.742V27.09h11.968l13.897-8.528v-2.236l-2.125-1.417h-.674l-2.314 1.549-.359 1.155-1.811-2.472 3.52-2.956h.562l3.97-2.914h1.498l3.97 2.914h.563L160 15.14l-1.811 2.472-.358-1.155-2.316-1.55h-.672l-2.126 1.417v2.237l13.898 8.528h11.967v9.868l4.784 3.742h6.085l2.662-2.702-1.802.013 3.122-2.538 1.738 1.504v.724l3.73 4.548-3.73 4.548v.725l-1.738 1.504-3.122-2.539 1.802.014-2.662-2.703h-6.084l-4.785 3.742v9.868h-11.967l-13.898 8.528v2.237l2.126 1.416h.672l2.316-1.548.358-1.156 1.81 2.472-3.519 2.957h-.562l-3.971 2.913h-1.497l-3.971-2.913h-.563l-3.52-2.957 1.812-2.472.359 1.156 2.313 1.549h.674l2.126-1.416v-2.238l-13.898-8.528h-11.967v-9.869l-4.785-3.741h-6.083l-2.663 2.702 1.802-.014z"/><path d="M151.369 69.855l1.52 1.163-1.52 1.163v-2.325zm-4.835 2.115h.056l3.97 2.915h.465V72.61l-2.083-1.593 2.083-1.593v-4.27l-14.871-9.126H125.16v-9.17l-5.676-4.44h-8.56l-2.153 2.434-2.152-2.433h-2.54l3.487 4.254v.69l1.382 1.2 2.22-1.727-1.303.01v-.432l2.903-2.96h6.38l5.009 3.919v9.69h11.72l14.145 8.68v2.611l-2.365 1.576h-.883l-2.5-1.674-.192-.622-1.22 1.664 3.178 2.67h.494v.001zm-37.76-31.808l1.693 1.916h-3.389l1.695-1.916zm42.252-27.845l-1.52 1.162 1.52 1.163v-2.325zm40.901 30.104l1.695 1.914 1.694-1.915h-3.389zm-36.123-29.894l-3.971-2.913h-.464v2.272l2.085 1.594-2.085 1.594v4.27l14.872 9.125h10.993v9.171l5.676 4.44h8.56l2.152-2.434 2.152 2.432h2.541l-3.488-4.253v-.691l-1.38-1.2-2.22 1.728 1.303-.01v.431l-2.904 2.96h-6.379l-5.01-3.918v-9.693h-11.721l-14.143-8.68v-2.611l2.365-1.576h.881l2.502 1.675.192.62 1.22-1.663-3.179-2.671h-.55v.001z" fill="#FAAE29" fill-rule="nonzero"/><path d="M151.026 72.18l-1.52-1.162 1.52-1.162v2.325zm-40.559-29.76l-1.694 1.916-1.695-1.915h3.39zm45.393 29.55h-.056l-3.971 2.915h-.464v-2.272l2.085-1.595-2.085-1.594v-4.269l14.872-9.126h10.993v-9.17l5.676-4.439h8.56l2.152 2.433 2.152-2.433h2.541l-3.488 4.254v.69l-1.38 1.2-2.22-1.727 1.303.01v-.432l-2.904-2.96h-6.379l-5.01 3.919v9.692h-11.721l-14.143 8.678v2.611l2.365 1.576h.881l2.502-1.674.192-.622 1.22 1.665-3.179 2.67h-.494zm37.762-31.808l-1.695 1.916h3.39l-1.695-1.916zm-47.03-27.634l3.97-2.914h.464v2.272l-2.084 1.595 2.085 1.593v4.27l-14.872 9.126h-10.992v9.17l-5.677 4.44h-8.562l-2.152-2.434-2.152 2.432h-2.54l3.488-4.253v-.69l1.382-1.2 2.218 1.727-1.302-.01v.432l2.904 2.958h6.378l5.01-3.917v-9.692h11.72l14.144-8.68v-2.611l-2.364-1.576h-.882l-2.502 1.675-.192.62-1.22-1.663 3.18-2.67h.55zm4.778 2.116l1.52-1.163-1.52-1.163v2.326z" fill="#FFF" fill-rule="nonzero"/><path fill="#28AE66" d="M151.026 42.42V19.744l-14.775 9.067h-10.747v8.995l-5.462 4.272h31.328v22.676l14.773-9.068h10.748v-8.993l5.463-4.272z"/><path fill="#CA3745" d="M120.04 42.42l5.464 4.272v8.994h10.747l14.775 9.068V42.077h31.328l-5.463-4.271V28.81h-10.748l-14.773-9.066V42.42z"/><path d="M135.294 31.25l-2.556-2.382-2.532 1.562 2.56 2.387-3.288 2.037h7.176l6.183 5.832 1.977-2.088-6.012-5.672v-3.848l-3.508 2.172zm31.804 21.998l2.557 2.382 2.532-1.562-2.56-2.387 3.288-2.037h-7.176l-6.182-5.833-1.979 2.089 6.012 5.672v3.849l3.508-2.173zm-31.804 0l-2.556 2.382-2.532-1.562 2.56-2.387-3.288-2.037h7.176l6.182-5.833 1.978 2.089-6.012 5.672v3.849l-3.508-2.173zm31.804-21.998l2.557-2.382 2.532 1.562-2.56 2.387 3.288 2.037h-7.176l-6.182 5.832-1.979-2.088 6.012-5.672v-3.848l3.508 2.172z" fill="#383739" fill-rule="nonzero"/><path d="M169.698 55.202L167.4 53.06l1.925-1.192 2.3 2.144-1.928 1.19zm-5.764-.396v-3.382l-5.87-5.537 1.507-1.592 6.033 5.691h6.109l-7.78 4.82zm-31.238-25.51l2.298 2.142-1.926 1.192-2.3-2.144 1.928-1.19zm5.765.397v3.38l5.87 5.538-1.508 1.592-6.033-5.691h-6.108l7.779-4.82z" fill="#CA3745" fill-rule="nonzero"/><path d="M169.698 29.296l-2.297 2.142 1.925 1.192 2.3-2.144-1.928-1.19zm-5.764.397v3.38l-5.87 5.538 1.507 1.592 6.033-5.691h6.109l-7.78-4.82zm-31.238 25.509l2.297-2.142-1.925-1.192-2.3 2.144 1.928 1.19zm5.764-.396v-3.382l5.87-5.537-1.507-1.592-6.033 5.691h-6.108l7.778 4.82z" fill="#28AE66" fill-rule="nonzero"/><path fill="#383739" d="M167.085 42.25l-15.887 10.588L135.31 42.25l15.888-10.59z"/><path fill="#FFF" d="M151.026 32.186l-14.84 9.892h30.024l-14.84-9.892v20.126l14.841-9.892h-30.026l14.841 9.892z"/><path fill="#383739" d="M155.446 45.89v2.912h-8.496V45.89h-5.499v-7.282h5.499v-2.912h8.496v2.912h5.499v7.282z"/><path d="M147.293 36.038v2.912h-5.499v3.128h9.232v-6.04h-3.733zm4.077 6.04h9.232V38.95h-5.498v-2.912h-3.734v6.04zm-9.576.342v3.128h5.499v2.911h3.733V42.42h-9.232zm9.576 6.04h3.734v-2.912h5.498V42.42h-9.232v6.04z" fill="#CA3745" fill-rule="nonzero"/><path fill="#383739" d="M178.302 162.888v-4.664h12.79v-4.664h12.79v-42.146h-12.79v-4.664h-12.79v-4.664h-12.79v-4.664h-28.626v4.664h-12.792v4.664h-12.79v4.664H98.512v42.146h12.791v4.664h12.79v4.664h12.792v4.664h28.625v-4.664z"/><path d="M137.246 97.754v4.661H124.45v4.662h-12.797v4.66H98.856v41.484h12.797v4.661h12.797v4.66h12.796v4.661h27.923v-4.66h12.797v-4.66h12.798v-4.662h12.795v-41.483h-12.795v-4.661h-12.798v-4.662H165.17v-4.66h-27.923zm3.39 3.39h21.144v4.66h12.797v4.662h12.797v4.661h12.796v34.704h-12.796v4.661h-12.797v4.66h-12.798v4.66h-21.143v-4.66H127.84v-4.66h-12.797v-4.662h-12.797v-34.704h12.797v-4.66h12.797v-4.661h12.797v-4.661h-.001z" fill="#CA3745" fill-rule="nonzero"/><path fill="#CA3745" d="M128.167 158.815v-4.664h-12.79v-4.664h-12.791v-34h12.79v-4.665h12.791v-4.664h12.79v-4.664h20.481v4.664h12.792v4.664h12.79v4.664h12.791v34H187.02v4.664h-12.79v4.665h-12.79v4.664h-20.48v-4.664z"/><path fill="#383739" d="M131.137 109.611l-3.313-2.504v4.808l-3.173 2.016-.008-3.01-3.042 2.733-3.043-2.732-.008 3.01-3.516-2.234v4.458l-2.841 2.057-.008-2.734-3.375 2.445-3.376-2.445-.008 2.734-3.184-2.305v13.505h-3.73v6.148h3.73v13.505l3.184-2.306.008 2.734 3.376-2.444 3.375 2.444.008-2.734 2.84 2.057v4.459l3.517-2.234.008 3.01 3.042-2.733 3.043 2.733.008-3.01 3.172 2.016v4.808l3.314-2.504.007 3.359 3.246-2.904 3.248 2.904.007-3.359 2.97 2.245v5.129l4.441-4.048v4.757l6.142-3.949 6.143 3.949v-4.757l4.44 4.048v-5.128l2.97-2.246.008 3.359 3.247-2.904 3.248 2.904.006-3.359 3.312 2.504v-4.808l3.174-2.016.008 3.01 3.043-2.733 3.042 2.733.008-3.01 3.516 2.234v-4.46l2.842-2.055.008 2.733 3.374-2.444 3.376 2.444.008-2.734 3.184 2.306V135.56h3.729v-6.148h-3.73v-13.505l-3.184 2.305-.008-2.734-3.375 2.445-3.375-2.445-.007 2.734-2.841-2.057v-4.458l-3.516 2.234-.008-3.01-3.043 2.733-3.043-2.733-.008 3.01-3.173-2.017v-4.808l-3.312 2.504-.008-3.359-3.247 2.904-3.248-2.904-.006 3.36-2.97-2.246v-5.128l-4.44 4.048v-4.757l-6.144 3.949-6.142-3.949v4.757l-4.44-4.048v5.128l-2.971 2.245-.007-3.359-3.248 2.904-3.246-2.904z"/><path d="M105.768 118.883l.008-2.734 3.034 2.198.102-.074 2.932-2.124.008 2.734 3.182-2.304v31.815l-3.182-2.304-.008 2.735-3.034-2.199-3.034 2.199-.008-2.735-3.182 2.304v-13.176h-3.73v-5.462h3.73V116.58l3.182 2.303zm25.717-11.865l2.905 2.598 2.907-2.598.007 3.281 3.311-2.503v49.382l-3.312-2.504-.006 3.283-2.907-2.6-2.905 2.6-.007-3.282-3.31 2.503v-49.382l3.31 2.504.007-3.282zm39.427 0l-2.906 2.598-2.906-2.598-.007 3.281-3.31-2.503v49.382l3.31-2.504.008 3.283 2.905-2.6 2.906 2.6.007-3.282 3.311 2.503v-49.382l-3.31 2.504-.008-3.282zm25.717 11.865l-.008-2.734-3.035 2.198-.102-.074-2.932-2.124-.008 2.734-3.182-2.304v31.815l3.182-2.304.008 2.735 3.034-2.199 3.035 2.199.008-2.735 3.181 2.304v-13.176h3.73v-5.462h-3.73V116.58l-3.181 2.303z" fill="#28AE66" fill-rule="nonzero"/><path d="M118.898 111.689l2.702 2.427 2.702-2.427.008 2.866 3.514-2.233v40.33l-3.514-2.233-.008 2.866-2.702-2.427-2.702 2.427-.008-2.866-3.514 2.233v-40.33l3.514 2.233.008-2.866zm26.5-4.627l-4.44-4.048v58.946l4.44-4.048v4.905l5.8-3.728 5.8 3.728v-4.905l4.44 4.048v-58.946l-4.44 4.048v-4.905l-5.8 3.728-5.8-3.728v4.905zm38.1 4.627l-2.701 2.427-2.703-2.427-.008 2.866-3.514-2.233v40.33l3.515-2.233.007 2.866 2.703-2.427 2.701 2.427.008-2.866 3.515 2.233v-40.33l-3.515 2.233-.008-2.866z" fill="#FAAE29" fill-rule="nonzero"/><path d="M107.43 126.693c.388.392.853.59 1.38.59.527 0 .99-.198 1.38-.59 1.214-1.224 1.256-3.438 1.243-5.031l-1.658 1.752-.965-1.667s-.788 1.362-.966 1.667l-1.658-1.752c-.012 1.593.03 3.807 1.244 5.03zm13.343-3.429l-1.024-1.022v-2.037l-2.35 2.177 4.201 4.202 4.202-4.202-2.35-2.177v2.037l-1.024 1.022v-3.609l1.812-1.556-2.64-2.267-2.64 2.267 1.813 1.556v3.609zm12.79-4.048l-1.024-1.023v-2.037l-2.35 2.178 4.201 4.201 4.201-4.2-2.35-2.179v2.037l-1.023 1.023v-3.61l1.812-1.556-2.64-2.266-2.64 2.266 1.812 1.556v3.61z" fill="#383739" fill-rule="nonzero"/><path d="M108.81 122.431l.899 1.552 1.367-1.445c-.048 1.8-.442 3.221-1.13 3.912-.321.325-.704.49-1.136.49-.432 0-.814-.165-1.136-.489-.687-.692-1.082-2.113-1.13-3.912l1.367 1.444.9-1.552zm26.066-6.981v4.594l1.709-1.708v-1.394l1.513 1.403-3.707 3.706-3.707-3.706 1.513-1.403v1.394l1.709 1.708v-4.594l-1.628-1.399 2.113-1.814 2.114 1.814-1.629 1.399z" fill="#FFF" fill-rule="nonzero"/><path fill="#CA3745" d="M122.086 119.498v4.594l1.708-1.709v-1.393l1.513 1.402-3.707 3.707-3.706-3.707 1.512-1.402v1.393l1.71 1.709v-4.594l-1.629-1.399 2.113-1.814 2.114 1.814z"/><path d="M194.966 126.693c-.388.392-.852.59-1.379.59s-.991-.198-1.38-.59c-1.214-1.224-1.256-3.438-1.243-5.031l1.658 1.752.965-1.667s.788 1.362.966 1.667l1.657-1.752c.012 1.593-.028 3.807-1.244 5.03zm-13.342-3.429l1.024-1.022v-2.037l2.35 2.177-4.201 4.202-4.202-4.202 2.35-2.177v2.037l1.024 1.022v-3.609l-1.812-1.556 2.64-2.267 2.64 2.267-1.813 1.556v3.609zm-12.79-4.048l1.024-1.023v-2.037l2.35 2.178-4.202 4.201-4.2-4.2 2.35-2.179v2.037l1.023 1.023v-3.61l-1.813-1.556 2.64-2.266 2.64 2.266-1.812 1.556v3.61z" fill="#383739" fill-rule="nonzero"/><path d="M193.586 122.431l-.898 1.552-1.367-1.445c.048 1.8.442 3.221 1.13 3.912.321.325.703.49 1.135.49.432 0 .815-.165 1.136-.489.688-.692 1.083-2.113 1.13-3.912l-1.366 1.444-.9-1.552zm-26.065-6.981v4.594l-1.709-1.708v-1.394l-1.513 1.403 3.707 3.706 3.707-3.706-1.513-1.403v1.394l-1.709 1.708v-4.594l1.628-1.399-2.113-1.814-2.114 1.814 1.629 1.399z" fill="#FFF" fill-rule="nonzero"/><path fill="#CA3745" d="M180.311 119.498v4.594l-1.709-1.709v-1.393l-1.512 1.402 3.707 3.707 3.706-3.707-1.513-1.402v1.393l-1.708 1.709v-4.594l1.628-1.399-2.113-1.814-2.115 1.814z"/><path fill="#383739" d="M156.226 120.75l-1.376-1.902 3.528-3.258-3.29-2.704v1.916l-1.376 1.177v-3.473l3.108-2.292-5.623-4.144-5.623 4.144 3.11 2.292v3.473l-1.377-1.177v-1.916l-3.291 2.704 3.53 3.258-1.376 1.902z"/><path fill="#CA3745" d="M146.842 120.407l1.16-1.605-3.463-3.196 2.426-1.993v1.347l2.061 1.765v-4.392l-2.873-2.118 5.045-3.719 5.045 3.72-2.873 2.117v4.392l2.062-1.765v-1.347l2.426 1.993-3.464 3.196 1.161 1.605z"/><path fill="#383739" d="M148.628 110.215l2.57 1.894 2.57-1.894-2.57-1.894-.102.076z"/><path fill="#28AE66" d="M151.198 108.747l1.992 1.468-1.992 1.468-1.992-1.468z"/><path d="M107.43 138.28c.388-.392.853-.59 1.38-.59.527 0 .99.198 1.38.59 1.214 1.224 1.256 3.438 1.243 5.031l-1.658-1.752-.965 1.667s-.788-1.362-.966-1.667l-1.658 1.752c-.012-1.593.03-3.807 1.244-5.031zm13.343 3.429l-1.024 1.022v2.037l-2.35-2.178 4.201-4.201 4.202 4.201-2.35 2.178v-2.037l-1.024-1.022v3.609l1.812 1.556-2.64 2.267-2.64-2.267 1.813-1.556v-3.61zm12.79 4.048l-1.024 1.023v2.037l-2.35-2.179 4.201-4.2 4.201 4.2-2.35 2.179v-2.037l-1.023-1.023v3.61l1.812 1.555-2.64 2.267-2.64-2.267 1.812-1.556v-3.61z" fill="#383739" fill-rule="nonzero"/><path d="M108.81 142.542l.899-1.552 1.367 1.444c-.048-1.8-.442-3.22-1.13-3.912a1.555 1.555 0 0 0-1.136-.49c-.432 0-.814.166-1.136.49-.687.692-1.082 2.113-1.13 3.912l1.367-1.444.9 1.552zm26.066 6.981v-4.594l1.709 1.708v1.394l1.513-1.403-3.707-3.706-3.707 3.706 1.513 1.403v-1.394l1.709-1.708v4.594l-1.628 1.399 2.113 1.814 2.114-1.814-1.629-1.399z" fill="#FFF" fill-rule="nonzero"/><path fill="#CA3745" d="M122.086 145.475v-4.594l1.708 1.709v1.393l1.513-1.402-3.707-3.707-3.706 3.707 1.512 1.402v-1.393l1.71-1.71v4.595l-1.629 1.399 2.113 1.814 2.114-1.814z"/><path d="M194.966 138.28a1.885 1.885 0 0 0-1.379-.59c-.527 0-.991.198-1.38.59-1.214 1.224-1.256 3.438-1.243 5.031l1.658-1.752.965 1.667s.788-1.362.966-1.667l1.657 1.752c.012-1.593-.028-3.807-1.244-5.031zm-13.342 3.429l1.024 1.022v2.037l2.35-2.178-4.201-4.201-4.202 4.201 2.35 2.178v-2.037l1.024-1.022v3.609l-1.812 1.556 2.64 2.267 2.64-2.267-1.813-1.556v-3.61zm-12.79 4.048l1.024 1.023v2.037l2.35-2.179-4.202-4.2-4.2 4.2 2.35 2.179v-2.037l1.023-1.023v3.61l-1.813 1.555 2.64 2.267 2.64-2.267-1.812-1.556v-3.61z" fill="#383739" fill-rule="nonzero"/><path d="M193.586 142.542l-.898-1.552-1.367 1.444c.048-1.8.442-3.22 1.13-3.912a1.558 1.558 0 0 1 2.271 0c.688.692 1.083 2.113 1.13 3.912l-1.366-1.444-.9 1.552zm-26.065 6.981v-4.594l-1.709 1.708v1.394l-1.513-1.403 3.707-3.706 3.707 3.706-1.513 1.403v-1.394l-1.709-1.708v4.594l1.628 1.399-2.113 1.814-2.114-1.814 1.629-1.399z" fill="#FFF" fill-rule="nonzero"/><path fill="#CA3745" d="M180.311 145.475v-4.594l-1.709 1.709v1.393l-1.512-1.402 3.707-3.707 3.706 3.707-1.513 1.402v-1.393l-1.708-1.71v4.595l1.628 1.399-2.113 1.814-2.115-1.814z"/><path fill="#383739" d="M156.226 144.223l-1.376 1.902 3.528 3.257-3.29 2.704v-1.915l-1.376-1.177v3.473l3.108 2.291-5.623 4.144-5.623-4.144 3.11-2.29v-3.474l-1.377 1.177v1.915l-3.291-2.704 3.53-3.257-1.376-1.902z"/><path fill="#CA3745" d="M146.842 144.566l1.16 1.604-3.463 3.197 2.426 1.993v-1.347l2.061-1.765v4.392l-2.873 2.118 5.045 3.719 5.045-3.72-2.873-2.117v-4.392l2.062 1.765v1.347l2.426-1.993-3.464-3.197 1.161-1.604z"/><path fill="#383739" d="M148.628 154.758l2.57-1.894 2.57 1.894-2.57 1.894-.102-.076z"/><path fill="#28AE66" d="M151.198 156.226l1.992-1.468-1.992-1.468-1.992 1.468z"/><path fill="#383739" d="M196.722 130.52h-5.63v-2.244h-17.209l-11.979-7.869h-21.412l-11.98 7.869h-17.207v2.244h-5.63v3.934h5.629v2.244h17.209l11.979 7.87h21.412l11.98-7.87h17.207v-2.244h5.63z"/><path d="M140.594 120.762l-11.992 7.84h-16.95v2.245h-5.634v3.263h5.635v2.246h16.95l11.99 7.88h21.23l11.948-7.88h16.992v-2.246h5.635v-3.263h-5.635v-2.245h-16.992l-11.949-7.84h-21.228zm.254 1.144h20.678l10.974 7.204v1.101h12.246v4.576H172.5v1.103l-10.974 7.16h-20.678l-10.932-7.16v-1.102h-12.288v-4.576h12.288v-1.102l10.932-7.204z" fill="#CA3745" fill-rule="nonzero"/><path fill="#CA3745" d="M161.44 122.26l10.702 7.027v1.248h12.266v3.904h-12.266v1.247l-10.703 7.027h-20.483l-10.704-7.027v-1.248h-12.265v-3.904h12.266v-1.247l10.703-7.026z"/><path d="M135.64 136.478l4.635 3.48 3.048-2.29-1.772-1.33-1.276.958-1.09-.818 17.453-13.103h-3.544l-17.453 13.103zm10.117 5.12h3.544l17.453-13.102-4.634-3.478-3.049 2.288 1.772 1.33 1.277-.958 1.09.818-17.453 13.102zm7.337 0h3.544l-17.452-13.102 1.09-.818 1.275.958 1.773-1.33-3.049-2.288-4.634 3.478 17.453 13.102zm10.116-5.12l-1.09.818-1.277-.958-1.772 1.33 3.049 2.29 4.634-3.48-17.453-13.103h-3.544l17.453 13.103zm-31.079-3.99l3.115 2.068 3.115-2.069-3.115-2.069-3.115 2.07z" fill="#383739" fill-rule="nonzero"/><path d="M148.083 132.487l3.115 2.069 3.115-2.069-3.115-2.069-3.115 2.07zm22.183 0l-3.115 2.069-3.115-2.069 3.115-2.069 3.115 2.07z" fill="#383739" fill-rule="nonzero"/><path d="M166.183 136.478l-4.062 3.05-2.479-1.86 1.202-.902 1.277.959 1.66-1.247-16.996-12.76h2.402l16.996 12.76zm-10.573 4.778h-2.402l-16.995-12.76 4.063-3.05 2.477 1.86-1.201.901-1.276-.958-1.66 1.247 16.994 12.76zm-6.423 0h-2.402l16.996-12.76-1.66-1.247-1.277.958-1.202-.9 2.479-1.861 4.062 3.05-16.996 12.76zm4.021-17.538h2.402l-16.995 12.76 1.661 1.247 1.276-.959 1.2.902-2.476 1.86-4.064-3.05 16.996-12.76z" fill="#FAAE29" fill-rule="nonzero"/><path d="M135.246 130.83l2.495 1.657-2.495 1.657-2.496-1.656 2.496-1.658zm15.952 0l2.496 1.657-2.496 1.657-2.494-1.656 2.494-1.658zm15.953 0l-2.495 1.657 2.495 1.657 2.495-1.656-2.495-1.658z" fill="#28AE66" fill-rule="nonzero"/><path fill="#383739" d="M96.411 219.32l-1.222 1.729 2.191 1.676-2.192 1.675 1.222 1.728 2.546.296 2.465-1.904 6.145 3.904v-3.242l-3.868-2.457 3.868-2.457v-3.242l-6.145 3.904-2.464-1.904z"/><path d="M96.411 208.058l-1.222 1.73 2.191 1.674-2.192 1.676 1.222 1.728 2.546.296 2.465-1.904 6.145 3.904v-3.243l-3.868-2.456 3.868-2.457v-3.243l-6.145 3.904-2.464-1.904-2.546.295zm0 29.333l-1.222-1.728 2.191-1.676-2.192-1.675 1.222-1.728 2.546-.296 2.465 1.904 6.145-3.904v3.242l-3.868 2.457 3.868 2.457v3.242l-6.145-3.904-2.464 1.904-2.546-.295zm109.575-18.07l1.222 1.728-2.191 1.676 2.191 1.675-1.222 1.728-2.545.296-2.465-1.904-6.146 3.904v-3.242l3.868-2.457-3.868-2.457v-3.242l6.146 3.904 2.464-1.904 2.546.295z" fill="#383739" fill-rule="nonzero"/><path d="M205.986 208.058l1.222 1.73-2.191 1.674 2.191 1.676-1.222 1.728-2.545.296-2.465-1.904-6.146 3.904v-3.243l3.868-2.456-3.868-2.457v-3.243l6.146 3.904 2.464-1.904 2.546.295zm0 29.333l1.222-1.728-2.191-1.676 2.191-1.675-1.222-1.728-2.545-.296-2.465 1.904-6.146-3.904v3.242l3.868 2.457-3.868 2.457v3.242l6.146-3.904 2.464 1.904 2.546-.295zm-24.604-48.807v4.685h3.408v2.07h3.347v-3.77h-2.986v-2.985h-3.77zm10.044 7.388v4.684h3.404v2.071h3.352v-3.77h-2.986v-2.985h-3.77zm-70.41-7.388v4.685h-3.409v2.07h-3.347v-3.77h2.986v-2.985h3.77zm60.366 68.282v-4.684h3.408v-2.07h3.347v3.769h-2.986v2.985h-3.77zm-60.367 0v-4.684h-3.408v-2.07h-3.347v3.769h2.986v2.985h3.77zm70.411-7.388v-4.684h3.404v-2.07h3.352v3.769h-2.986v2.985h-3.77zm-80.455-53.506v4.684h-3.405v2.071h-3.35v-3.77h2.986v-2.985h3.77zm0 53.506v-4.684h-3.405v-2.07h-3.35v3.769h2.986v2.985h3.77zm52.831-61.003l-2.6-2.525-2.555 2.368 2.227 2.16-2.874 2.79h4.267l1.535-1.49 1.536 1.49h4.267l-2.875-2.79 2.227-2.16-2.555-2.368c-.868.84-1.733 1.684-2.6 2.525zm-12.604 0l-2.6-2.525-2.554 2.368 2.226 2.16-2.874 2.79h4.267l1.535-1.49 1.536 1.49h4.267l-2.874-2.79 2.226-2.16-2.554-2.368c-.868.84-1.733 1.684-2.6 2.525zm-12.603 0l2.6-2.525 2.555 2.368-2.226 2.16 2.874 2.79h-4.268l-1.535-1.49-1.536 1.49h-4.266l2.874-2.79-2.226-2.16 2.554-2.368c.868.84 1.734 1.684 2.6 2.525zm25.207 68.5l-2.6 2.524-2.555-2.366 2.227-2.161-2.874-2.79h4.267l1.535 1.49 1.536-1.49h4.267l-2.875 2.79 2.227 2.16-2.555 2.368c-.868-.84-1.733-1.683-2.6-2.525zm-12.604 0l-2.6 2.524-2.554-2.366 2.226-2.161-2.874-2.79h4.267l1.535 1.49 1.536-1.49h4.267l-2.874 2.79 2.226 2.16-2.554 2.368c-.868-.84-1.733-1.683-2.6-2.525zm-12.603 0l2.6 2.524 2.555-2.366-2.226-2.161 2.874-2.79h-4.268l-1.535 1.49-1.536-1.49h-4.266l2.874 2.79-2.226 2.16 2.554 2.368c.868-.84 1.734-1.683 2.6-2.525z" fill="#383739" fill-rule="nonzero"/><path d="M107.223 225.37v2.43l-5.822-3.698-2.544 1.966-2.255-.262-.943-1.334 2.285-1.747-2.285-1.747.943-1.334 2.254-.262 2.545 1.967 5.822-3.699v2.43l-4.165 2.645 4.165 2.645zm0-11.262v2.43l-5.822-3.699-2.544 1.967-2.255-.262-.943-1.334 2.285-1.748-2.285-1.746.943-1.334 2.254-.262 2.545 1.966 5.822-3.698v2.43l-4.165 2.644 4.165 2.646zm0 17.234v-2.43l-5.822 3.7-2.544-1.967-2.255.261-.943 1.335 2.285 1.747-2.285 1.747.943 1.334 2.254.261 2.545-1.966 5.822 3.698v-2.428l-4.165-2.646 4.165-2.646zm87.95-5.972v2.43l5.823-3.698 2.544 1.966 2.254-.262.944-1.334-2.285-1.747 2.285-1.747-.944-1.334-2.254-.262-2.544 1.967-5.822-3.699v2.43l4.164 2.645-4.164 2.645zm0-11.262v2.43l5.823-3.699 2.544 1.967 2.254-.262.944-1.334-2.285-1.748 2.285-1.746-.944-1.334-2.254-.262-2.544 1.966-5.822-3.698v2.43l4.164 2.644-4.164 2.646zm0 17.234v-2.43l5.823 3.7 2.544-1.967 2.254.261.944 1.335-2.285 1.747 2.285 1.747-.944 1.334-2.254.261-2.544-1.966-5.822 3.698v-2.428l4.164-2.646-4.164-2.646zm-10.364-42.415v2.986h2.985v3.084h-2.661v-2.07h-3.408v-4h3.084zm10.044 7.387v2.985h2.985v3.085h-2.662v-2.07h-3.407v-4h3.084zm-77.265-7.387v2.986h-2.985v3.084h2.662v-2.07h3.407v-4h-3.084zm67.22 67.595v-2.984h2.986v-3.084h-2.661v2.07h-3.408v3.998h3.084zm-67.22 0v-2.984h-2.986v-3.084h2.662v2.07h3.408v3.998h-3.084zm77.265-7.387v-2.985h2.985v-3.084h-2.662v2.07h-3.407v4h3.084zm-87.309-52.82v2.984h-2.985v3.085h2.662v-2.07h3.407v-4h-3.084zm0 52.82v-2.985h-2.985v-3.084h2.662v2.07h3.408v4h-3.084zm53.653-62.712l2.605 2.53 2.606-2.53 2.051 1.9-2.22 2.155 2.52 2.448h-3.281l-1.676-1.626-1.675 1.626h-3.281l2.52-2.448-2.22-2.155 2.05-1.9zm-12.604 0l2.605 2.53 2.606-2.53 2.05 1.9-2.22 2.155 2.521 2.448h-3.282l-1.675-1.626-1.675 1.626h-3.281l2.52-2.448-2.22-2.155 2.05-1.9zm-7.391 0l-2.606 2.53-2.606-2.53-2.05 1.9 2.22 2.155-2.52 2.448h3.28l1.676-1.626 1.675 1.626h3.282l-2.521-2.448 2.22-2.155-2.05-1.9zm19.995 72.604l2.605-2.53 2.606 2.53 2.051-1.9-2.22-2.155 2.52-2.448h-3.281l-1.676 1.626-1.675-1.626h-3.281l2.52 2.448-2.22 2.155 2.05 1.9zm-12.604 0l2.605-2.53 2.606 2.53 2.05-1.9-2.22-2.155 2.521-2.448h-3.282l-1.675 1.626-1.675-1.626h-3.281l2.52 2.448-2.22 2.155 2.05 1.9zm-7.391 0l-2.606-2.53-2.606 2.53-2.05-1.9 2.22-2.155-2.52-2.448h3.28l1.676 1.626 1.675-1.626h3.282l-2.521 2.448 2.22 2.155-2.05 1.9z" fill="#28AE66" fill-rule="nonzero"/><path fill="#383739" d="M117.264 245.137v7.387h67.869v-7.387h10.04v-44.824h-10.04v-7.387h-67.869v7.388h-10.04v44.823z"/><path d="M117.627 193.262v7.374h-10.042v44.152h10.042v7.374h67.16v-7.374h10.044v-44.152h-10.043v-7.374h-67.16zm4.323 2.84h58.516v7.118l2.416 1.78h9.11v35.466h-9.152l-2.374 1.737v7.161H121.95v-7.118l-2.416-1.78h-9.152v-35.465h9.11l2.458-1.781v-7.118z" fill="#CA3745" fill-rule="nonzero"/><path d="M122.288 196.44v6.527l8.814-6.526h-8.814zm48.982 0l8.814 6.527v-6.526h-8.814zm-60.508 8.9v6.102l8.306-6.102h-8.305zm72.544 0l8.347 6.144v-6.144h-8.347zm8.347 28.6l-8.347 6.187h8.347v-6.187zm-80.89.042v6.145h8.304l-8.305-6.145zm11.525 8.518v6.483h8.771l-8.771-6.483zm57.796 0l-8.77 6.483h8.77V242.5z" fill="#CA3745" fill-rule="nonzero"/><path fill="#28AE66" d="M170.702 196.447l20.95 15.474v21.608l-20.95 15.473h-39.008l-20.95-15.473V211.92l20.95-15.474h39.008z"/><path d="M115.734 236.017l-2.408-2.795 2.26-2.624-2.261-2.624 2.261-2.624-2.261-2.624 2.261-2.624-2.261-2.625 2.26-2.624-2.26-2.624 2.409-2.795h70.928l2.41 2.795-2.262 2.624 2.261 2.624-2.26 2.624 2.26 2.624-2.26 2.624 2.26 2.624-2.26 2.624 2.26 2.624-2.408 2.796h-70.93zm48.756-36.189l-2.796-2.409-2.624 2.261-2.624-2.26-2.624 2.26-2.624-2.26-2.624 2.26-2.624-2.26-2.624 2.26-2.624-2.26-2.796 2.407v45.795l2.796 2.41 2.624-2.262 2.624 2.26 2.624-2.26 2.624 2.26 2.624-2.26 2.624 2.26 2.624-2.26 2.624 2.261 2.796-2.409v-45.794z" fill="#383739" fill-rule="nonzero"/><g fill="#FAAE29" fill-rule="nonzero"><path d="M158.898 199.985l-2.452-2.114-2.452 2.114v45.48l2.452 2.113 2.452-2.113v-45.48zm-10.496 0l-2.452-2.114-2.452 2.114v45.48l2.452 2.113 2.452-2.113v-45.48z"/><path d="M115.89 235.674l-2.112-2.452 2.112-2.453h70.616l2.112 2.453-2.112 2.452H115.89zm70.616-15.402l2.113 2.453-2.113 2.452H115.89l-2.113-2.452 2.113-2.453h70.615zm0-5.59l2.112-2.453-2.112-2.452H115.89l-2.112 2.452 2.112 2.453h70.616z"/></g><g fill="#CA3745"><path d="M164.147 199.985l-2.452-2.114-2.453 2.114v45.48l2.453 2.113 2.451-2.112.001-45.481zm-20.993 0l-2.452-2.114-2.453 2.114v45.48l2.453 2.113 2.452-2.113v-45.48z" fill-rule="nonzero"/><path d="M115.891 230.426l-2.113-2.453 2.113-2.453h70.615l2.113 2.453-2.113 2.453H115.89zm0-10.496l-2.113-2.453 2.113-2.453h70.615l2.113 2.453-2.113 2.453H115.89z" fill-rule="nonzero"/><path d="M153.651 245.465l-2.453 2.113-2.452-2.113v-45.48l2.452-2.114 2.453 2.114z"/></g><path fill="#383739" d="M174.905 200.872H127.32v3.78h-6.082v36.147h6.082v3.779h47.755v-3.779h6.082v-36.148h-6.082v-3.779h-.171z"/><path d="M127.67 201.228V205h-6.102v35.466h6.102v3.77h5l-9.958-8.346v-26.314l9.958-8.347h-5v-.001zm42.076 0l9.915 8.347v26.315l-9.915 8.347h5v-3.771h6.06V205h-6.06v-3.772h-5z" fill="#CA3745" fill-rule="nonzero"/><g fill="#28AE66" fill-rule="nonzero"><path d="M133.22 201.228l-10.17 8.517v25.974c.12.102 10.076 8.438 10.17 8.517h35.974l10.128-8.517v-25.974l-10.128-8.517H133.22zm.509 1.44h34.915l9.237 7.755v24.619l-9.237 7.712h-34.916l-9.195-7.712v-24.619l9.196-7.755z"/><path d="M142.976 235.431l1.563.675.287 1.826-1.968 1.731 2.859 2.763h-2.75l-1.966-1.892-1.967 1.892h-2.75l2.858-2.763-1.968-1.731.288-1.826 1.563-.675 1.976 1.58.107-.085 1.868-1.495zm10.198 0l1.563.675.288 1.826-1.968 1.731 2.858 2.763h-2.75l-1.967-1.892-1.965 1.892h-2.75l2.858-2.763-1.968-1.731.288-1.826 1.562-.675 1.976 1.58.107-.085 1.868-1.495zm6.248 0l-1.563.675-.288 1.826 1.968 1.731-2.858 2.763h2.75l1.967-1.892 1.965 1.892h2.75l-2.858-2.763 1.968-1.731-.288-1.826-1.562-.675-1.976 1.58-.107-.085-1.868-1.495zm-16.446-25.413l1.563-.675.287-1.825-1.968-1.73 2.859-2.764h-2.75l-1.966 1.892-1.967-1.892h-2.75l2.858 2.763-1.968 1.73.288 1.826 1.563.675L141 208.44l.107.086 1.868 1.493zm10.198 0l1.563-.675.288-1.825-1.968-1.73 2.858-2.764h-2.75l-1.967 1.892-1.965-1.892h-2.75l2.858 2.763-1.968 1.73.288 1.826 1.562.675 1.976-1.579.107.086 1.868 1.493zm6.248 0l-1.563-.675-.288-1.825 1.968-1.73-2.858-2.764h2.75l1.967 1.892 1.965-1.892h2.75l-2.858 2.763 1.968 1.73-.288 1.826-1.562.675-1.976-1.579-.107.086-1.868 1.493zm18.099 2.916l-1.56 1.292 1.56 1.29v2.142l-2.4-1.977-1.721 1.56-1.846-.232-.65-1.2 1.588-1.584-1.589-1.584.65-1.2 1.847-.232 1.722 1.56 2.399-1.976v2.14zm0 8.5l-1.56 1.292 1.56 1.29v2.142l-2.4-1.977-1.721 1.56c-.138-.018-1.693-.214-1.846-.232l-.65-1.2 1.588-1.584-1.589-1.584.65-1.2 1.847-.232 1.722 1.56 2.399-1.976v2.14zm0 11.083l-1.56-1.292 1.56-1.291v-2.141l-2.4 1.977-1.721-1.56-1.846.232-.65 1.2 1.588 1.584-1.589 1.584.65 1.2c.154.018 1.709.214 1.847.232l1.722-1.56 2.399 1.976v-2.141zm-52.643-19.583l1.56 1.292-1.56 1.29v2.142l2.399-1.977 1.721 1.56 1.847-.232.65-1.2-1.589-1.584 1.59-1.584-.651-1.2-1.847-.232-1.721 1.56-2.4-1.976v2.14zm0 8.5l1.56 1.292-1.56 1.29v2.142l2.399-1.977 1.721 1.56c.138-.018 1.693-.214 1.847-.232l.65-1.2-1.589-1.584 1.59-1.584-.651-1.2-1.847-.232-1.721 1.56-2.4-1.976v2.14zm0 11.083l1.56-1.292-1.56-1.291v-2.141l2.399 1.977 1.721-1.56 1.847.232.65 1.2-1.589 1.584 1.59 1.584-.651 1.2c-.154.018-1.709.214-1.847.232l-1.721-1.56-2.4 1.976v-2.141z"/></g><path d="M133.856 203.009c-.093.077-8.482 7.1-8.856 7.416.756.626 1.488 1.281 2.246 1.906l1.652-1.484 2.161.297.848 1.568-1.525 1.526c.207.205 1.524 1.524 1.524 1.524l-.847 1.568-2.16.255s-1.461-1.267-1.653-1.44l-2.373 1.99v.679c.798.66 1.572 1.33 2.373 1.992.192-.174 1.652-1.441 1.652-1.441l2.161.253.848 1.568-1.525 1.526 1.524 1.526-.847 1.61-2.16.254s-1.461-1.31-1.653-1.484l-2.373 1.992v.72l2.373 1.992 1.652-1.483 2.161.296.848 1.568-1.525 1.526 1.524 1.525-.847 1.568-2.16.296s-1.461-1.308-1.653-1.483c-.756.623-1.492 1.243-2.246 1.865l8.856 7.416h1.949l2.84-2.755-1.823-1.61.339-2.204 1.907-.805 1.949 1.526 1.907-1.526 1.906.805.382 2.204-1.864 1.61 2.754 2.627 2.754-2.627-1.864-1.61.338-2.204 1.95-.805 1.906 1.526 1.95-1.526 1.906.805.34 2.204-1.823 1.61 2.712 2.67 2.755-2.67-1.823-1.61.34-2.204 1.948-.805 1.907 1.526 1.907-1.526 1.95.805.339 2.204-1.823 1.61 2.84 2.754h1.906l8.856-7.415c-.755-.622-1.49-1.24-2.246-1.864-.192.174-1.61 1.482-1.61 1.482l-2.161-.296-.89-1.568 1.525-1.525-1.525-1.526.89-1.568 2.16-.296s1.42 1.31 1.611 1.483l2.373-1.992v-.72l-2.373-1.992c-.192.175-1.61 1.484-1.61 1.484l-2.161-.255-.89-1.61 1.525-1.525-1.525-1.526.89-1.568 2.16-.253s1.42 1.267 1.611 1.44c.795-.655 1.58-1.296 2.373-1.949v-.762l-2.373-1.95c-.192.174-1.61 1.44-1.61 1.44l-2.161-.254-.89-1.568 1.525-1.524-1.525-1.526.89-1.568 2.16-.296s1.42 1.31 1.611 1.482c.76-.625 1.529-1.238 2.288-1.864l-8.898-7.457h-1.907l-2.839 2.753 1.822 1.61-.339 2.204-1.95.848-1.906-1.526-1.907 1.526-1.949-.848-.339-2.203 1.823-1.61-2.712-2.628-2.755 2.627 1.823 1.61-.34 2.204-1.907.848-1.949-1.526-1.906 1.526-1.95-.848-.339-2.203 1.864-1.61-2.753-2.628-2.755 2.627 1.864 1.61-.38 2.204-1.907.848-1.907-1.526-1.949 1.526-1.907-.848-.339-2.203 1.822-1.61-2.882-2.754h-1.906zm-8.983 18.856v1.737l1.017-.89-1.017-.847z" fill="#CA3745" fill-rule="nonzero"/><path d="M141.017 241.017l-1.483 1.397h2.923l-1.44-1.397zm10.17 0l-1.44 1.397h2.923l-1.484-1.397zm10.21 0l-1.482 1.397h2.966l-1.483-1.397zm-21.906-38.008l1.526 1.44 1.483-1.44h-3.009zm10.212 0l1.483 1.44 1.526-1.44h-3.009zm10.213 0l1.482 1.44 1.484-1.44h-2.966zm17.584 10.38l-1.017.849 1.017.804v-1.652zm0 8.475l-1.017.848 1.017.847v-1.695zm0 8.517l-1.017.848 1.017.847v-1.695zm-52.627-17.033v1.737l1.017-.848-1.017-.889zm0 8.516v1.737l1.017-.89-1.017-.847zm0 8.475v1.737l1.017-.848-1.017-.889z" fill="#FFF" fill-rule="nonzero"/><path fill="#383739" d="M159.92 219.886v-3.033h-3.069v-3.326h-11.305v3.326h-3.07v3.033h-4.24v5.678h4.24v3.032h3.07v3.326h11.305v-3.325h3.07v-3.033h4.239v-5.678z"/><path d="M151.026 213.87v3.428l-4.859 2.763v2.493h-7.588v-2.325h4.24v-3.033h3.069v-3.326h5.138zm.344 17.71v-3.428l4.859-2.762v-2.493h7.588v2.325h-4.24v3.032h-3.069v3.326h-5.138z" fill="#FAAE29" fill-rule="nonzero"/><path d="M156.229 222.554v-2.493l-4.86-2.763v-3.428h5.139v3.326h3.07v3.032h4.239v2.326h-7.588zm-17.649.343h7.587v2.493l4.86 2.762v3.428h-5.138v-3.326h-3.07v-3.032h-4.239v-2.325z" fill="#FFF" fill-rule="nonzero"/><path fill="#CA3745" d="M146.51 222.897v2.31l4.516 2.568v-4.878z"/><path fill="#28AE66" d="M151.026 217.675l-4.516 2.568v2.31h4.516z"/><path fill="#CA3745" d="M155.886 222.554v-2.31l-4.516-2.569v4.879z"/><path fill="#28AE66" d="M151.37 227.775l4.516-2.568v-2.31h-4.516z"/><path fill="#383739" d="M110.118 282.984v9.374h-8.932v8.501h-9.054v24.207h9.054v8.502h8.932v9.374h32.478l5.712 3.432-2.746 1.648h-11.58l-.999-1.127h10.495l-2.956-2.977h-15.014L132.31 351h14.079l4.809-2.89 4.81 2.89h14.078l6.802-7.08h-15.013l-2.957 2.976h10.496l-1 1.127h-11.581l-2.744-1.648 5.712-3.432h32.477v-9.374h8.933v-8.502h9.053V300.86h-9.053v-8.501h-8.933v-9.374h-32.477l-5.712-3.432 2.744-1.649h11.581l1 1.127h-10.496l2.957 2.977h15.013l-6.802-7.081h-14.08l-4.808 2.89-4.81-2.89H132.31l-6.802 7.081h15.014l2.956-2.977h-10.496l1-1.127h11.58l2.745 1.65-5.712 3.431z"/><path d="M159.703 342.584h32.246v-9.365h8.898v-8.517h9.068v-23.516h-9.068v-8.475h-8.898v-9.365h-32.245l-13.39-8.092h-13.856l-6.144 6.398h14.068l2.288-2.288h-10.466l1.61-1.822h11.864l15.17 9.152h27.712v9.364h8.94v8.517h9.069v16.78H197.5v8.517h-8.941v9.365h-27.712l-15.17 9.11h-11.864l-1.61-1.78h10.466l-2.288-2.288h-14.068l6.144 6.399h13.856l13.39-8.094zm-18.177-3.347h-27.712v-9.365h-8.899v-8.517h-9.068v-16.78h9.068v-8.517h8.899v-9.364h27.712l15.21-9.152h11.824l1.61 1.822h-10.424l2.288 2.288h14.068l-6.144-6.398h-13.856l-13.39 8.092h-32.245v9.365h-8.94v8.475h-9.069v23.516h9.068v8.518h8.941v9.364h32.246l13.39 8.094h13.855l6.144-6.399h-14.068l-2.288 2.288h10.424l-1.61 1.78h-11.822l-15.212-9.11z" fill="#CA3745" fill-rule="nonzero"/><path d="M151.186 281.272l-9.576 5.762h-27.458v9.366h-8.898v8.517h-9.068v16.101h9.068v8.517h8.898v9.365h27.458l9.576 5.72 9.576-5.72h27.457v-9.365h8.941v-8.517h9.068v-16.101h-9.068V296.4h-8.94v-9.365h-27.458l-9.576-5.763zm0 2.373l9.026 5.424h26.017v9.364h8.94v8.474h9.026v12.077h-9.025v8.517h-8.941v9.364h-26.017l-9.026 5.424-8.983-5.424h-26.017V327.5h-8.94v-8.517h-9.068v-12.077h9.068v-8.474h8.94v-9.364h26.017l8.983-5.424z" fill="#FAAE29" fill-rule="nonzero"/><path fill="#28AE66" d="M185.874 327.163v9.374h-25.76l-8.916 5.357-8.916-5.357h-25.76v-9.374h-8.932v-8.502h-9.053v-11.397h9.053v-8.502h8.932v-9.373h25.76l8.916-5.357 8.916 5.357h25.76v9.373h8.932v8.502h9.052v11.397h-9.052v8.502z"/><path d="M119.895 323.88v9.071h14.16l-14.16-9.392v.32zm0-21.834v-9.072h14.16l-14.16 9.392v-.32zm62.607 21.833v9.072h-14.16l14.16-9.392v.32zm0-21.833v-9.072h-14.16l14.16 9.392v-.32z" fill="#383739" fill-rule="nonzero"/><path d="M120.238 324.198l12.68 8.41h-12.68v-8.41zm0-22.47c.493-.329 11.816-7.838 12.68-8.411h-12.68v8.41zm61.92 22.47l-12.68 8.41h12.68v-8.41zm0-22.47l-12.68-8.411h12.68v8.41z" fill="#CA3745" fill-rule="nonzero"/><path fill="#383739" d="M137.956 310.475v-4.633h-1.58l-7.582-4.74-.09.057-7.49 4.683h-1.58v4.633h-3.564v4.976h3.564v4.632h1.58l7.58 4.74 7.582-4.74h1.58v-4.632h5.426v-4.976z"/><path d="M128.795 301.507l6.935 4.336h-13.868l6.933-4.336zm6.934 18.576l-6.934 4.336-6.933-4.336h13.867zm-1.68-9.265v4.29h-8.647v-4.29h8.648z" fill="#CA3745" fill-rule="nonzero"/><path d="M137.614 315.45v4.29h-8.648v-4.29h8.648zm-8.99 0v4.29h-8.647v-4.29h8.647zm14.415-4.632v4.29h-8.647v-4.29h8.647zm-17.979 0v4.29h-8.647v-4.29h8.647zm12.554-4.632v4.29h-8.648v-4.29h8.648zm-8.99 0v4.29h-8.647v-4.29h8.647z" fill="#FAAE29" fill-rule="nonzero"/><path d="M122.68 311.771v2.384h-3.885v-2.384h3.884zm3.563-4.633v2.384h-3.884v-2.384h3.884zm8.989 0v2.384h-3.884v-2.384h3.884zm-3.564 4.633v2.384h-3.884v-2.384h3.884zm8.99 0v2.384h-3.884v-2.384h3.884zm-5.426 4.633v2.384h-3.884v-2.384h3.884zm-8.989 0v2.384h-3.884v-2.384h3.884z" fill="#383739" fill-rule="nonzero"/><path d="M122.313 312.137h-3.152v1.652h3.152v-1.652zm3.564-4.633h-3.152v1.652h3.152v-1.652zm8.99 0h-3.153v1.652h3.152v-1.652zm-3.565 4.633h-3.152v1.652h3.152v-1.652zm8.99 0h-3.152v1.652h3.152v-1.652zm-5.426 4.633h-3.152v1.652h3.152v-1.652zm-8.99 0h-3.151v1.652h3.152v-1.652z" fill="#FFF" fill-rule="nonzero"/><path fill="#383739" d="M164.44 310.475v-4.633h1.58l7.582-4.74.09.057 7.49 4.683h1.58v4.633h3.564v4.976h-3.564v4.632h-1.58l-7.58 4.74-7.582-4.74h-1.58v-4.632h-5.426v-4.976z"/><path d="M173.6 301.507l-6.934 4.336h13.868l-6.933-4.336zm-6.933 18.576l6.934 4.336 6.933-4.336h-13.867zm1.68-9.265v4.29h8.647v-4.29h-8.648z" fill="#CA3745" fill-rule="nonzero"/><path d="M164.782 315.45v4.29h8.648v-4.29h-8.648zm8.99 0v4.29h8.647v-4.29h-8.647zm-14.415-4.632v4.29h8.647v-4.29h-8.647zm17.979 0v4.29h8.647v-4.29h-8.647zm-12.554-4.632v4.29h8.648v-4.29h-8.648zm8.99 0v4.29h8.647v-4.29h-8.647z" fill="#FAAE29" fill-rule="nonzero"/><path d="M179.717 311.771v2.384h3.884v-2.384h-3.884zm-3.564-4.633v2.384h3.884v-2.384h-3.884zm-8.989 0v2.384h3.884v-2.384h-3.884zm3.564 4.633v2.384h3.884v-2.384h-3.884zm-8.99 0v2.384h3.884v-2.384h-3.884zm5.426 4.633v2.384h3.884v-2.384h-3.884zm8.989 0v2.384h3.884v-2.384h-3.884z" fill="#383739" fill-rule="nonzero"/><path d="M180.083 312.137h3.152v1.652h-3.152v-1.652zm-3.564-4.633h3.152v1.652h-3.152v-1.652zm-8.99 0h3.153v1.652h-3.152v-1.652zm3.565 4.633h3.152v1.652h-3.152v-1.652zm-8.99 0h3.152v1.652h-3.152v-1.652zm5.426 4.633h3.152v1.652h-3.152v-1.652zm8.99 0h3.151v1.652h-3.152v-1.652z" fill="#FFF" fill-rule="nonzero"/><path fill="#383739" d="M160.36 302.736v4.632h-1.58l-7.582 4.74-.09-.056-7.49-4.683h-1.581v-4.633h-4.495v-4.976h4.495v-4.632h1.58l7.58-4.74 7.582 4.74h1.58v4.632h4.495v4.976z"/><path d="M151.198 311.704l6.935-4.336h-13.869l6.934 4.336zm6.934-18.576l-6.934-4.336-6.932 4.336h13.866z" fill="#FAAE29" fill-rule="nonzero"/><path d="M160.017 297.76v-4.29h-8.647v4.29h8.647zm-8.99 0v-4.29h-8.647v4.29h8.647zm13.484 4.633v-4.29h-8.647v4.29h8.647zm-8.99 0v-4.29h-8.647v4.29h8.648zm-8.989 0v-4.29h-8.646v4.29h8.646zm13.485 4.633v-4.29h-8.647v4.29h8.647zm-8.99 0v-4.29h-8.647v4.29h8.647z" fill="#CA3745" fill-rule="nonzero"/><path d="M148.646 294.423v2.384h-3.884v-2.384h3.884zm8.99 0v2.384h-3.885v-2.384h3.884zm-13.486 4.633v2.384h-3.884v-2.384h3.884zm8.99 0v2.384h-3.883v-2.384h3.884zm8.99 0v2.384h-3.884v-2.384h3.884zm-13.484 4.633v2.384h-3.884v-2.384h3.884zm8.99 0v2.384h-3.885v-2.384h3.884z" fill="#383739" fill-rule="nonzero"/><path d="M148.28 294.789h-3.152v1.652h3.152v-1.652zm8.99 0h-3.152v1.652h3.152v-1.652zm-13.485 4.633h-3.152v1.652h3.152v-1.652zm8.99 0h-3.152v1.652h3.152v-1.652zm8.989 0h-3.152v1.652h3.152v-1.652zm-13.484 4.632h-3.152v1.652h3.152v-1.652zm8.99 0h-3.152v1.652h3.152v-1.652z" fill="#FFF" fill-rule="nonzero"/><path fill="#383739" d="M160.36 328.166v4.632h-1.58l-7.582 4.741-.09-.057-7.49-4.683h-1.581v-4.633h-4.495v-4.976h4.495v-4.632h1.58l7.58-4.74 7.582 4.74h1.58v4.632h4.495v4.976z"/><path d="M151.198 337.134l6.935-4.336h-13.869l6.934 4.336zm6.934-18.576l-6.934-4.336-6.932 4.336h13.866z" fill="#FAAE29" fill-rule="nonzero"/><path d="M160.017 323.19v-4.29h-8.647v4.29h8.647zm-8.99 0v-4.29h-8.647v4.29h8.647zm13.484 4.633v-4.29h-8.647v4.29h8.647zm-8.99 0v-4.29h-8.647v4.29h8.648zm-8.989 0v-4.29h-8.646v4.29h8.646zm13.485 4.633v-4.29h-8.647v4.29h8.647zm-8.99 0v-4.29h-8.647v4.29h8.647z" fill="#CA3745" fill-rule="nonzero"/><path d="M148.646 319.854v2.384h-3.884v-2.384h3.884zm8.99 0v2.384h-3.885v-2.384h3.884zm-13.486 4.632v2.384h-3.884v-2.384h3.884zm8.99 0v2.384h-3.883v-2.384h3.884zm8.99 0v2.384h-3.884v-2.384h3.884zm-13.484 4.633v2.384h-3.884v-2.384h3.884zm8.99 0v2.384h-3.885v-2.384h3.884z" fill="#383739" fill-rule="nonzero"/><path d="M148.28 320.22h-3.152v1.651h3.152v-1.652zm8.99 0h-3.152v1.651h3.152v-1.652zm-13.485 4.632h-3.152v1.652h3.152v-1.652zm8.99 0h-3.152v1.652h3.152v-1.652zm8.989 0h-3.152v1.652h3.152v-1.652zm-13.484 4.633h-3.152v1.652h3.152v-1.652zm8.99 0h-3.152v1.652h3.152v-1.652z" fill="#FFF" fill-rule="nonzero"/><path fill="#383739" d="M102.14 383.483l33.642-18.105h30.832l33.64 18.105v29.832l-33.64 18.104h-30.832l-33.641-18.104z"/><path d="M135.89 365.72l-33.39 17.967v29.406l33.39 17.966h30.635l33.392-17.966v-29.405l-33.392-17.966H135.89v-.001zm.592 2.416h29.45l31.611 16.991v26.568l-31.611 16.991h-29.467l-31.61-16.992v-26.568l31.627-16.99z" fill="#28AE66" fill-rule="nonzero"/><path fill="#FAAE29" d="M151.37 398.227v30.112h14.476l31.346-16.87V398.57h-46.165v-30.112h-14.476l-31.347 16.87v12.9z"/><path fill="#FFF" d="M151.026 398.227v30.112H136.55l-31.346-16.87V398.57h46.165v-30.112h14.477l31.346 16.87v12.9z"/><path fill="#383739" d="M154.011 426.654v-8.704l-2.813 1.785-2.815-1.785v8.704h-8.753l5.906-4.332v-6.178l-9.008-5.715h-6.294V386.37h6.295l9.008-5.715v-6.178l-5.907-4.331h8.753v8.704l2.815-1.786 2.813 1.786v-8.704h8.754l-5.907 4.33v6.18l9.008 5.714h6.294v24.059h-6.294l-9.008 5.715v6.178l5.907 4.332z"/><path d="M154.365 370.508v8.983l-3.009-1.906v2.542l13.771 8.77h4.534v9.324h2.161v-11.526h-6.06l-9.236-5.848v-6.527l5.21-3.813h-7.371v.001zm-23.771 28.051v11.526h6.016l9.28 5.889v6.526l-5.212 3.813h7.373v-8.983l2.966 1.908v-2.628l-13.77-8.686h-4.493v-9.365h-2.16z" fill="#FAAE29" fill-rule="nonzero"/><path d="M140.678 370.508l5.212 3.813v6.526l-9.28 5.848h-6.016v11.526h2.16v-9.325h4.492l13.77-8.728v-2.584l-2.965 1.906v-8.983h-7.373v.001zm28.983 28.051v9.364h-4.535l-13.77 8.687v2.628l3.008-1.908v8.983h7.373l-5.211-3.813v-6.526l9.236-5.888h6.06v-11.527h-2.161z" fill="#FFF" fill-rule="nonzero"/><path fill="#CA3745" d="M133.082 407.566h4.27l13.846 8.784 13.845-8.784h4.27v-18.332h-4.27l-13.845-8.785-13.846 8.784h-4.27z"/><path d="M160.782 402.756h2.956v-1.398h-2.224v-2.544h4.753v6.485h-4.557v4.424h-9.379v-6.357h4.128v2.543h-1.599v1.272h4.322v-2.431l-17.57-10.707h-2.955v1.399h2.224v2.542h-4.754v-6.483h4.557v-4.424h9.38v6.356h-4.129v-2.543h1.6v-1.27h-4.322v2.43l17.569 10.706zm-1.6-10.706v-2.43h-4.322v1.27h1.6v2.543h-4.129v-6.356h9.38v4.424h4.556v6.483h-4.753v-2.542h2.224v-1.399h-2.956l-17.568 10.707v2.43h4.32v-1.272h-1.599v-2.542h4.128v6.356h-9.379v-4.424h-4.557v-6.484h4.754v2.544h-2.224v1.398h2.956l17.569-10.706z" fill="#383739" fill-rule="nonzero"/><path d="M159.525 404.558v2.965h-5.008v-1.957h1.6v-1.856h-3.443v5.67h8.694v-4.424h4.557v-5.798h-4.068v1.856h2.224v2.085h-3.395l-17.816-10.857v-2.965h5.008v1.957h-1.6v1.856h3.443v-5.67h-8.694v4.424h-4.556v5.798h4.067v-1.857h-2.224V393.7h3.395l17.816 10.857zm1.16-10.857h3.397v2.084h-2.224v1.857h4.067v-5.799h-4.556v-4.424h-8.695v5.671h3.443v-1.856h-1.6v-1.957h5.008v2.965l-17.816 10.856h-3.395v-2.084h2.224v-1.856h-4.067v5.798h4.556v4.424h8.694v-5.671h-3.443v1.857h1.6v1.956h-5.008v-2.965l17.816-10.856z" fill="#FFF" fill-rule="nonzero"/><path d="M190.434 399.907v9.41h-4.004v-3.323h-4.037v3.323h-4.004v-9.41h4.004v3.323h4.037v-3.323h4.004zM176.106 412.4v9.41h-4.004v-3.323h-4.037v3.323h-4.004v-9.41h4.004v3.323h4.037V412.4h4.004zm14.328-15.509v-9.41h-4.004v3.324h-4.037v-3.323h-4.004v9.41h4.004v-3.324h4.037v3.323h4.004zm-78.472 3.017v9.41h4.004v-3.323h4.037v3.323h4.004v-9.41h-4.004v3.323h-4.037v-3.323h-4.004zm0-3.017v-9.41h4.004v3.324h4.037v-3.323h4.004v9.41h-4.004v-3.324h-4.037v3.323h-4.004zm64.144-12.49v-9.41h-4.004v3.323h-4.037v-3.323h-4.004v9.41h4.004v-3.323h4.037v3.323h4.004zm-49.815 28v9.409h4.004v-3.323h4.037v3.323h4.004v-9.41h-4.004v3.323h-4.037V412.4h-4.004zm0-28v-9.41h4.004v3.323h4.037v-3.323h4.004v9.41h-4.004v-3.323h-4.037v3.323h-4.004zm52.203-6.595v7.145h13.278l-13.278-7.145zm-54.592 41.189v-7.146h-13.278l13.278 7.146zm0-41.19v7.146h-13.278l13.278-7.145zm54.592 41.19v-7.146h13.278l-13.278 7.146z" fill="#383739" fill-rule="nonzero"/><path d="M186.772 405.651v3.323h3.318v-8.724h-3.318v3.324h-4.722v-3.324h-3.319v8.724h3.319v-3.323h4.722zm-14.328 12.491v3.324h3.318v-8.724h-3.318v3.323h-4.722v-3.323h-3.319v8.724h3.319v-3.324h4.722zm14.328-26.995v-3.323h3.318v8.724h-3.318v-3.324h-4.722v3.324h-3.319v-8.724h3.319v3.323h4.722zm-71.148 14.504v3.323h-3.318v-8.724h3.318v3.324h4.722v-3.324h3.319v8.724h-3.319v-3.323h-4.722zm0-14.504v-3.323h-3.318v8.724h3.318v-3.324h4.722v3.324h3.319v-8.724h-3.319v3.323h-4.722zm56.82-12.491v-3.323h3.318v8.724h-3.318v-3.324h-4.722v3.324h-3.319v-8.724h3.319v3.323h4.722zm-42.492 39.486v3.324h-3.318v-8.724h3.318v3.323h4.722v-3.323h3.319v8.724h-3.319v-3.324h-4.722zm0-39.486v-3.323h-3.318v8.724h3.318v-3.324h4.722v3.324h3.319v-8.724h-3.319v3.323h-4.722z" fill="#CA3745" fill-rule="nonzero"/><path d="M178.856 378.389v6.229h11.569l-11.569-6.23zm-66.864 33.814l11.568 6.229v-6.229h-11.568z" fill="#FAAE29" fill-rule="nonzero"/><path d="M123.56 378.389l-11.569 6.229h11.568v-6.23zm55.295 33.814v6.229l11.569-6.229h-11.568z" fill="#FFF" fill-rule="nonzero"/></g></g></svg>