<svg width="800" height="480" xmlns="http://www.w3.org/2000/svg"><g fill="none" fill-rule="evenodd"><path fill="#E70013" d="M0 0h800v480H0z"/><path d="M521.063 240.031c0 66.844-54.188 121.031-121.032 121.031-66.843 0-121.031-54.187-121.031-121.03C279 173.187 333.188 119 400.031 119c66.844 0 121.031 54.188 121.031 121.031z" fill="#FFF"/><path d="M400.6 320.594c-43.28-1.48-77.6-36.993-77.6-80.297 0-43.305 34.32-78.818 77.6-80.297 11.062 0 23.718 2.625 32.25 8.906-58.688 2.156-73.594 52.031-73.594 72.094 0 20.063 9.469 64.781 73.594 71.438-7.313 4.687-21.188 8.156-32.25 8.156z" fill="#E70013"/><path fill="#E70013" d="M470.531 273.656l-36.469-13.312-24.093 30.375L411.375 252 375 238.406l37.313-10.687L413.906 189l21.75 32.156 37.313-10.312-23.906 30.469z"/></g></svg>