<svg width="800" height="480" xmlns="http://www.w3.org/2000/svg"><g fill="none" fill-rule="evenodd"><path fill="#009FCA" fill-rule="nonzero" d="M0 0h800v480H0z"/><path fill="#006" d="M0 0h399.68v239.176H0z"/><path d="M0 0v26.781l354.973 212.395h44.706v-26.781L44.6 0H0zm399.68 0v26.781L44.598 239.176H0v-26.781L354.973 0h44.706z" fill="#FFF" fill-rule="nonzero"/><path d="M166.524 0v239.176h66.631V0h-66.63zM0 79.725v79.726h399.68V79.725H0z" fill="#FFF" fill-rule="nonzero"/><path d="M0 95.691v47.794h399.68V95.691H0zM179.893 0v239.176h39.893V0h-40 .107zM0 239.176l133.262-79.725h29.733L29.733 239.176H0zM0 0l133.262 79.725h-29.84L0 17.82V0zm236.684 79.725L369.84 0h29.84L266.31 79.725h-29.732.106zM399.68 239.176l-133.37-79.725h29.947l103.422 61.802v17.923z" fill="#C00" fill-rule="nonzero"/><path d="M747.033 57.765H777l-24.125 16.47L762.071 101l-24.125-16.579L713.929 101l9.196-26.765L699 57.765h29.75L737.946 31l9.087 26.765zm-74.892 213H702l-24.125 16.47L687.071 314l-24.125-16.579L638.82 314l9.304-26.765L624 270.765h29.642L662.838 244l9.303 26.765zm74.892-49H777l-24.125 16.47L762.071 265l-24.125-16.579L713.929 265l9.196-26.765L699 221.765h29.75L737.946 195l9.087 26.765zm-321.85 155.15H455l-24.2 16.387L440.092 420 416 403.504 391.909 420l9.29-26.698L377 376.698h29.817L416 350l9.183 26.915zm67.676-82.613H463l24.125-16.604L477.929 251l24.125 16.496L526.18 251l-9.304 26.698L541 294.302h-29.75L502.054 321l-9.195-26.698zm88.108-122.067H551l24.125-16.47L565.929 129l24.125 16.579L614.18 129l-9.304 26.765L629 172.235h-29.75L590.054 199l-9.087-26.765zm73.85-24.933H625l24.2-16.604L639.908 104 664 120.496 688.091 104l-9.29 26.698L703 147.302h-29.817L664 174l-9.183-26.698zm-73.933 210.042H551l24.058-16.47L566.104 314l24.058 16.47L614.22 314l-9.278 26.765L629 357.235h-29.668L590.162 384l-9.278-26.656zm-88.067 21.824H463l24.091-16.445L477.91 336 502 352.445 526.091 336l-9.29 26.615L541 379.277h-29.71L502.109 406l-9.29-26.832z" fill="#FFF40D"/></g></svg>