<svg width="800" height="480" xmlns="http://www.w3.org/2000/svg"><g fill="none" fill-rule="evenodd"><path fill="#FE0000" d="M0 0h800v480H0z"/><path fill="#000095" d="M0 0h361.594v240H0z"/><path fill="#FFF" d="M264.469 167.438l-44.344-9.188 9.375 44.344-33.75-30.094-14.063 43.125-14.25-43.031-33.75 30.375 9.188-44.438L98.625 168l30-33.844L85.5 120.094l43.125-14.25L98.25 72.28l44.344 9.094-9.375-44.344 33.75 30.094L181.03 24l14.25 43.031 33.656-30.375-9.093 44.438 44.25-9.469-30 33.844 43.031 14.062-43.031 14.25z"/><path fill="#000095" d="M223.594 164.063l-14.063 7.406-13.594 8.062L180 178.97l-15.844.187-13.406-8.437-13.875-7.594-7.5-14.063-8.063-13.593.563-15.75-.188-15.938 8.438-13.312 7.781-13.875 13.969-7.406 13.688-8.063 15.843.563 15.938-.188 13.406 8.438 13.781 7.687 7.5 13.969 8.063 13.594-.563 15.843.188 15.844-8.438 13.406z"/><path d="M229.313 120.281a48.656 48.656 0 1 1-97.22 0c1.144-26.016 22.568-46.52 48.61-46.52 26.042 0 47.467 20.504 48.61 46.52z" fill="#FFF"/></g></svg>