<svg width="800" height="480" xmlns="http://www.w3.org/2000/svg"><g fill="none" fill-rule="evenodd"><path fill="#FFE700" d="M0 320.063h800v79.968H0z"/><path fill="#000" d="M0 240h800v79.969H0z"/><path fill="#DE3908" d="M0 160.031h800V240H0z"/><path fill="#FFE700" d="M0 80.063h800v79.968H0z"/><path fill="#000" d="M0 0h800v79.969H0z"/><path fill="#DE3908" d="M0 400.031h800V480H0z"/><path d="M474.438 245.125c0 41.266-33.453 74.719-74.72 74.719-41.265 0-74.718-33.453-74.718-74.719 0-41.266 33.453-74.719 74.719-74.719 41.266 0 74.718 33.453 74.719 74.719z" stroke="#000" stroke-width=".938" fill="#FFFDFF"/><path d="M386.875 187.688L382 178.78c1.875-1.875 4.969-3.375 10.031-3.375l-.562 9.844-4.688 2.438h.094z" stroke="#000" stroke-width=".938" fill="#DE3108"/><path d="M391.094 185.262l.656-9.844s10.031-.562 15.469 6l-5.344 7.688-10.875-3.75.094-.094z" stroke="#000" stroke-width=".938" fill="#FFE700"/><path d="M402 189.094l4.969-7.688c3.281 3.469 4.687 5.907 5.156 9.657.094.093-7.781 1.968-7.781 1.875L402 189.094z" stroke="#000" stroke-width=".938" fill="#DE3108"/><path d="M389.447 314.866s9.281-10.594 27.281-8.344c-2.719-4.406-11.531-3.843-11.531-3.843s-2.625-20.625-.563-21.75c2.063-1.125 11.25.093 11.25.093 1.125 0 3.188-3.187 1.5-5.25-1.593-2.062-6.375-9.843-4.406-11.437 1.969-1.5 12.563.937 12.563.937l-30-38.437s-3.094-14.531 3.093-21.563c7.407-6.093 6.563-12.75 6.375-12.656-1.03-6.75-11.25-11.531-18.187-5.344-4.031 4.875-1.313 8.625-1.313 8.625s-10.78 2.907-11.156 4.782c-.469 1.875 12.094-.282 12.094-.282l-1.219 8.532s-24.375 22.125-5.625 41.25l.563-.75s6.562 8.062 13.406 9.843c6.562 6.563 5.906 5.625 5.906 5.625s1.219 10.407 0 12.47c-1.594-.47-18.094-1.126-20.531-.188-2.25.75-10.688.28-8.625 14.156l3.094-7.031s-.282 4.968 1.78 6.75c-.374-5.25 1.97-8.813 1.97-8.813s.375 5.813 1.687 6.563c1.313.937 1.313-9.375 8.438-8.438 6.937.844 12.093.563 12.093.563s2.344 20.062 1.594 21.937c-5.062-1.219-17.25.469-18 3.563 7.125-.47 10.406.375 10.406.375s-5.718 5.156-3.937 8.062z" stroke="#000" stroke-width=".844" fill="#000" stroke-linecap="round" stroke-linejoin="round"/><path d="M391.965 206.5s-17.72 19.5-10.032 34.406c.375-2.062.188-3.375.47-3.281-.47-.281 2.155 1.781 1.968 1.406 0-1.125-.75-3.468-.75-3.468l2.344.656-1.407-2.625 3.47.375s-1.22-3.188-.845-3.188l2.813.188c-5.063-9-.281-16.5 1.969-24.563v.094z" stroke="#9CA69C" stroke-width=".844" fill="#9CA69C" stroke-linecap="round" stroke-linejoin="round"/><path d="M398.29 189.406s.938 6.75-2.812 8.625c-.469.469-2.813 1.219-2.438 2.625.375 1.875 1.407 1.5 2.813 1.125 3.844-.656 8.344-8.812 2.437-12.375z" stroke="#9CA69C" stroke-width=".938" fill="#9CA69C"/><path d="M391.813 194.813a1.406 1.406 0 1 1-2.813 0 1.406 1.406 0 0 1 2.813 0z" fill="#FFF"/><path d="M386.071 200.406c-.938.844-5.813 5.907-.938 7.782 4.97-1.313 3.563-2.25 4.688-3.375 0-2.344-2.438-2.907-3.75-4.313v-.094z" stroke="#000" stroke-width=".938" fill="#DE3108"/><path d="M396.67 249.406c-.282 1.125-1.407 5.25.093 8.438 4.313-1.875 6.281-1.313 7.688-.375-3.469-2.813-4.875-4.031-7.782-8.063z" stroke="#9CA69C" stroke-width=".844" fill="#9CA69C" stroke-linecap="round" stroke-linejoin="round"/><path d="M404 268.406l.188 9.563s3.375.562 4.875 0c1.5-.563 0-6.563-5.063-9.563z" stroke="#FFF" stroke-width=".844" fill="#FFF" stroke-linecap="round" stroke-linejoin="round"/><path d="M427.949 269.83s-6.094-14.812-21.75-18.562c-15.656-3.75-13.594-20.438-12.375-21.469.75-1.406 1.219-3.656 5.719-1.5s25.312 12.562 28.312 13.125c3 .562.375 28.781.188 28.406h-.094z" stroke="#000" stroke-width=".938" fill="#9CA69C"/><path d="M413.094 250.906c-.281.188 20.906 12.563 14.531 23.157 6-4.032 4.125-10.97 4.125-10.97s4.875 12.845-7.125 19.126c1.313 1.125 2.156.937 2.156.937l-2.062 1.969s-.938 1.594 7.125-2.344c-2.156 1.782-2.344 3.094-2.344 3.094s.563 1.688 5.813-2.906c-4.22 4.594-5.157 6.937-5.157 6.844 11.531-.938 36.563-38.438-7.875-49.407l1.969 2.063-11.25 8.437h.094z" stroke="#000" stroke-width=".844" fill="#DE3108" stroke-linejoin="round"/><path d="M413.681 247.696c2.813 2.062 3.844 2.812 4.22 3.75-2.626-.563-4.97-.375-4.97-.375s-5.718-5.438-6.75-5.906c-.75 0-5.25-2.813-5.25-2.813-2.156-1.125-4.218-8.719 3.938-6.562a87.188 87.188 0 0 0 9.656 4.312l10.031 3.188 5.813 6.468s-10.313-5.062-11.625-5.156c2.812 2.25 4.406 5.438 4.406 5.438-3.281-.938-6.094-1.875-9.469-2.344z" stroke="#000" stroke-width=".844" fill="#FFF" stroke-linecap="round" stroke-linejoin="round"/><path d="M374 201.508s9.844-2.438 11.063-2.063" stroke="#FFF" stroke-width=".844" stroke-linecap="round"/></g></svg>