<svg width="800" height="480" xmlns="http://www.w3.org/2000/svg"><g fill="none" fill-rule="evenodd"><path d="M0 0h800v36.938H0V0zm0 73.875h800v36.938H0V73.874zm0 73.781h800v37.031H0v-37.03zm0 73.875h800v36.938H0V221.53zm0 73.875h800v36.938H0v-36.938zm0 73.781h800v36.938H0v-36.938zm0 73.875h800V480H0v-36.938z" fill="#BD3D44" fill-rule="nonzero"/><path d="M0 36.938h800v36.937H0V36.937zm0 73.874h800v36.844H0v-36.844zm0 73.782h800v36.937H0v-36.937zm0 73.875h800v36.937H0V258.47zm0 73.875h800v36.937H0v-36.937zm0 73.781h800v36.938H0v-36.938z" fill="#FFF" fill-rule="nonzero"/><path fill="#192F5D" d="M0 0h364.781v258.469H0z"/><path d="M30.375 11.063L33.75 21.28h10.688l-8.626 6.282 3.282 10.312-8.719-6.375-8.625 6.281 3.281-10.218-8.718-6.282h10.875l3.187-10.218zm60.844 0L94.5 21.28h10.781l-8.719 6.282 3.282 10.312-8.625-6.375L82.5 37.78l3.281-10.218-8.625-6.282h10.688l3.375-10.218zm60.75 0l3.375 10.218h10.594l-8.625 6.282 3.28 10.312-8.718-6.375-8.625 6.281 3.281-10.218-8.719-6.282h10.782l3.375-10.218zm60.844 0l3.28 10.218h10.782l-8.719 6.282 3.375 10.312-8.719-6.375-8.718 6.281 3.375-10.218-8.719-6.282h10.688l3.375-10.218zm60.75 0l3.375 10.218h10.687L279 27.563l3.281 10.312-8.719-6.375-8.625 6.281 3.282-10.218-8.625-6.282h10.687l3.281-10.218zm60.843 0l3.281 10.218h10.782l-8.719 6.282 3.375 10.312-8.719-6.375-8.719 6.281 3.375-10.218-8.718-6.282h10.781l3.281-10.218zM60.844 36.936l3.281 10.22h10.781l-8.719 6.28 3.188 10.22-8.438-6.282-8.718 6.281 3.093-10.218-8.437-6.282h10.688l3.28-10.218zm60.75 0l3.375 10.22h10.687l-8.719 6.28 3.376 10.22-8.72-6.282-8.718 6.281 3.375-10.218-8.719-6.282h10.781l3.282-10.218zm60.844 0l3.28 10.22H196.5l-8.719 6.28 3.281 10.22-8.625-6.282-8.718 6.281L177 53.438l-8.625-6.282h10.688l3.375-10.218zm60.75 0l3.375 10.22h10.687l-8.719 6.28 3.375 10.22-8.719-6.282-8.625 6.281 3.282-10.218-8.719-6.282H240l3.188-10.218zm60.843 0l3.281 10.22h10.782l-8.719 6.28 3.281 10.22-8.625-6.282-8.719 6.281 3.282-10.218-8.625-6.282h10.687l3.375-10.218zM30.375 62.72l3.375 10.406h10.688l-8.626 6.281 3.282 10.219-8.719-6.375-8.625 6.375 3.281-10.313-8.718-6.28h10.875l3.187-10.313zm60.844 0L94.5 73.03h10.781l-8.719 6.281 3.282 10.22-8.625-6.376L82.5 89.53l3.281-10.312-8.625-6.281h10.688l3.375-10.22zm60.75 0l3.375 10.312h10.594l-8.625 6.281 3.28 10.22-8.718-6.376-8.625 6.375 3.281-10.312-8.719-6.281h10.782l3.375-10.22zm60.844 0l3.28 10.312h10.782l-8.719 6.281 3.375 10.22-8.719-6.376-8.718 6.375 3.375-10.312-8.719-6.281h10.688l3.375-10.22zm60.75 0l3.375 10.312h10.687L279 79.312l3.281 10.22-8.719-6.376-8.625 6.375 3.282-10.312-8.625-6.281h10.687l3.281-10.22zm60.843 0l3.281 10.312h10.782l-8.719 6.281 3.375 10.22-8.719-6.376-8.719 6.375 3.375-10.312-8.718-6.281h10.781l3.281-10.22zM60.844 88.594l3.281 10.219h10.781l-8.719 6.28 3.282 10.313-8.625-6.375-8.719 6.281 3.281-10.218-8.625-6.281H57.47l3.375-10.22zm60.75 0l3.375 10.219h10.687l-8.719 6.28 3.376 10.313-8.72-6.375-8.718 6.281 3.375-10.218-8.719-6.281h10.781l3.282-10.22zm60.844 0l3.28 10.219H196.5l-8.719 6.28 3.281 10.313-8.625-6.375-8.718 6.281L177 105.094l-8.625-6.281h10.688l3.375-10.22zm60.75 0l3.375 10.219h10.687l-8.625 6.28 3.281 10.313-8.719-6.375-8.625 6.281 3.282-10.218-8.719-6.281H240l3.188-10.22zm60.843 0l3.281 10.219h10.782l-8.719 6.28 3.281 10.313-8.625-6.375-8.719 6.281 3.282-10.218-8.625-6.281h10.687l3.375-10.22zM30.375 114.469l3.375 10.219h10.688l-8.626 6.28 3.282 10.313-8.719-6.375-8.625 6.281 3.281-10.218-8.718-6.281h10.875l3.187-10.22zm60.844 0l3.281 10.219h10.781l-8.719 6.28 3.282 10.22-8.625-6.282-8.719 6.281 3.281-10.218-8.625-6.281h10.688l3.375-10.22zm60.75 0l3.375 10.219h10.594l-8.625 6.28 3.28 10.313-8.718-6.375-8.625 6.281 3.281-10.218-8.719-6.281h10.782l3.375-10.22zm60.844 0l3.28 10.219h10.782l-8.719 6.28 3.375 10.313-8.719-6.375-8.718 6.281 3.375-10.218-8.719-6.281h10.688l3.375-10.22zm60.75 0l3.375 10.219h10.687l-8.625 6.28 3.281 10.313-8.719-6.375-8.625 6.281 3.282-10.218-8.625-6.281h10.687l3.281-10.22zm60.843 0l3.281 10.219h10.782l-8.719 6.28 3.375 10.313-8.719-6.375-8.719 6.281 3.375-10.218-8.718-6.281h10.781l3.281-10.22zM60.844 140.344l3.281 10.219h10.781l-8.719 6.28 3.282 10.22-8.625-6.375-8.719 6.375 3.281-10.313-8.625-6.281H57.47l3.375-10.125zm60.75 0l3.375 10.219h10.687l-8.719 6.28 3.376 10.22-8.72-6.375-8.718 6.375 3.375-10.313-8.719-6.281h10.781l3.282-10.125zm60.844 0l3.28 10.219H196.5l-8.719 6.28 3.281 10.22-8.625-6.375-8.718 6.375L177 156.75l-8.625-6.281h10.688l3.375-10.125zm60.75 0l3.375 10.219h10.687l-8.625 6.28 3.281 10.22-8.719-6.375-8.625 6.375 3.282-10.313-8.719-6.281H240l3.188-10.125zm60.843 0l3.281 10.219h10.782l-8.719 6.28 3.281 10.22-8.625-6.375-8.719 6.375 3.282-10.313-8.625-6.281h10.687l3.375-10.125zM30.375 166.125l3.375 10.313h10.688l-8.626 6.28 3.282 10.126-8.719-6.281-8.625 6.28 3.281-10.218-8.718-6.281h10.875l3.187-10.219zm60.844 0l3.281 10.313h10.781l-8.719 6.28 3.376 10.126-8.72-6.281-8.718 6.28 3.375-10.218-8.719-6.281h10.688l3.375-10.219zm60.75 0l3.375 10.313h10.594l-8.625 6.28 3.28 10.126-8.718-6.281-8.625 6.28 3.281-10.218-8.719-6.281h10.782l3.375-10.219zm60.844 0l3.28 10.313h10.782l-8.719 6.28 3.375 10.126-8.719-6.281-8.718 6.28 3.375-10.218-8.719-6.281h10.688l3.375-10.219zm60.75 0l3.375 10.313h10.687l-8.625 6.28 3.281 10.126-8.719-6.281-8.625 6.28 3.282-10.218-8.625-6.281h10.687l3.281-10.219zm60.843 0l3.281 10.313h10.782l-8.719 6.28 3.375 10.126-8.719-6.281-8.719 6.28 3.375-10.218-8.718-6.281h10.781l3.281-10.219zM60.844 192l3.281 10.219h10.781l-8.719 6.281 3.282 10.313-8.625-6.375-8.719 6.28 3.281-10.218-8.625-6.281H57.47L60.844 192zm60.75 0l3.375 10.219h10.687l-8.719 6.281 3.376 10.313-8.72-6.375-8.718 6.28 3.375-10.218-8.719-6.281h10.781L121.594 192zm60.844 0l3.28 10.219H196.5l-8.719 6.281 3.281 10.313-8.625-6.375-8.718 6.28L177 208.5l-8.625-6.281h10.688L182.438 192zm60.75 0l3.375 10.219h10.687l-8.625 6.281 3.281 10.313-8.719-6.375-8.625 6.28 3.282-10.218-8.719-6.281H240L243.188 192zm60.843 0l3.281 10.219h10.782l-8.719 6.281 3.281 10.313-8.625-6.375-8.719 6.28 3.282-10.218-8.625-6.281h10.687L304.031 192zM30.375 217.875l3.375 10.219h10.688l-8.626 6.281 3.282 10.219-8.719-6.281-8.625 6.28 3.281-10.312L16.313 228h10.875l3.187-10.125zm60.844 0l3.281 10.219h10.781l-8.719 6.281 3.376 10.219-8.72-6.281-8.718 6.28 3.375-10.312L77.156 228h10.688l3.375-10.125zm60.75 0l3.375 10.219h10.594l-8.438 6.281 3.281 10.219-8.719-6.281-8.625 6.28 3.282-10.312L138 228h10.781l3.188-10.125zm60.844 0l3.28 10.219h10.782l-8.719 6.281 3.375 10.219-8.719-6.281-8.718 6.28 3.375-10.312L198.75 228h10.688l3.375-10.125zm60.75 0l3.375 10.219h10.687L279 234.375l3.281 10.219-8.719-6.281-8.625 6.28 3.282-10.312-8.625-6.281h10.687l3.281-10.125zm60.843 0l3.281 10.219h10.782l-8.719 6.281 3.375 10.219-8.719-6.281-8.719 6.28 3.375-10.312-8.718-6.281h10.781l3.281-10.125z" fill="#FFF" fill-rule="nonzero"/></g></svg>