<svg width="800" height="480" xmlns="http://www.w3.org/2000/svg"><g fill="none" fill-rule="evenodd"><path fill="#1EB53A" d="M0 320h800v160H0z"/><path fill="#0099B5" d="M0 0h800v160H0z"/><path fill="#CE1126" d="M0 153.6h800v172.8H0z"/><path fill="#FFF" d="M0 163.2h800v153.6H0z"/><circle fill="#FFF" cx="134.4" cy="76.8" r="57.6"/><circle fill="#0099B5" cx="153.6" cy="76.8" r="57.6"/><g fill="#FFF"><path d="M261.1 111.38l-3.648 10.944 5.568 1.92"/><path d="M261.1 111.38l3.648 10.944-5.568 1.92"/><path d="M272.056 119.34l-11.535-.087-.106 5.888"/><path d="M272.056 119.34l-9.28 6.851-3.548-4.702"/><path d="M250.144 119.34l9.28 6.851 3.548-4.702"/><path d="M250.144 119.34l11.535-.087.106 5.888"/><path d="M267.871 132.22l-3.481-10.998-5.633 1.72"/><path d="M267.871 132.22l-9.384-6.71 3.376-4.826"/><path d="M254.329 132.22l9.384-6.71-3.376-4.826"/><path d="M254.329 132.22l3.481-10.998 5.633 1.72M261.1 65.3l-3.648 10.944 5.568 1.92"/><path d="M261.1 65.3l3.648 10.944-5.568 1.92"/><path d="M272.056 73.26l-11.535-.087-.106 5.888"/><path d="M272.056 73.26l-9.28 6.851-3.548-4.702"/><path d="M250.144 73.26l9.28 6.851 3.548-4.702"/><path d="M250.144 73.26l11.535-.087.106 5.888"/><path d="M267.871 86.14l-3.481-10.998-5.633 1.72"/><path d="M267.871 86.14l-9.384-6.71 3.376-4.826"/><path d="M254.329 86.14l9.384-6.71-3.376-4.826"/><path d="M254.329 86.14l3.481-10.998 5.633 1.72M261.1 19.22l-3.648 10.944 5.568 1.92"/><path d="M261.1 19.22l3.648 10.944-5.568 1.92"/><path d="M272.056 27.18l-11.535-.087-.106 5.888"/><path d="M272.056 27.18l-9.28 6.851-3.548-4.702"/><path d="M250.144 27.18l9.28 6.851 3.548-4.702"/><path d="M250.144 27.18l11.535-.087.106 5.888"/><path d="M267.871 40.06l-3.481-10.998-5.633 1.72"/><path d="M267.871 40.06l-9.384-6.71 3.376-4.826"/><path d="M254.329 40.06l9.384-6.71-3.376-4.826"/><path d="M254.329 40.06l3.481-10.998 5.633 1.72m43.737 80.598l-3.648 10.944 5.568 1.92"/><path d="M307.18 111.38l3.648 10.944-5.568 1.92"/><path d="M318.136 119.34l-11.535-.087-.106 5.888"/><path d="M318.136 119.34l-9.28 6.851-3.548-4.702"/><path d="M296.224 119.34l9.28 6.851 3.548-4.702"/><path d="M296.224 119.34l11.535-.087.106 5.888"/><path d="M313.951 132.22l-3.481-10.998-5.633 1.72"/><path d="M313.951 132.22l-9.384-6.71 3.376-4.826"/><path d="M300.409 132.22l9.384-6.71-3.376-4.826"/><path d="M300.409 132.22l3.481-10.998 5.633 1.72M307.18 65.3l-3.648 10.944 5.568 1.92"/><path d="M307.18 65.3l3.648 10.944-5.568 1.92"/><path d="M318.136 73.26l-11.535-.087-.106 5.888"/><path d="M318.136 73.26l-9.28 6.851-3.548-4.702"/><path d="M296.224 73.26l9.28 6.851 3.548-4.702"/><path d="M296.224 73.26l11.535-.087.106 5.888"/><path d="M313.951 86.14l-3.481-10.998-5.633 1.72"/><path d="M313.951 86.14l-9.384-6.71 3.376-4.826"/><path d="M300.409 86.14l9.384-6.71-3.376-4.826"/><path d="M300.409 86.14l3.481-10.998 5.633 1.72M307.18 19.22l-3.648 10.944 5.568 1.92"/><path d="M307.18 19.22l3.648 10.944-5.568 1.92"/><path d="M318.136 27.18l-11.535-.087-.106 5.888"/><path d="M318.136 27.18l-9.28 6.851-3.548-4.702"/><path d="M296.224 27.18l9.28 6.851 3.548-4.702"/><path d="M296.224 27.18l11.535-.087.106 5.888"/><path d="M313.951 40.06l-3.481-10.998-5.633 1.72"/><path d="M313.951 40.06l-9.384-6.71 3.376-4.826"/><path d="M300.409 40.06l9.384-6.71-3.376-4.826"/><path d="M300.409 40.06l3.481-10.998 5.633 1.72M353.26 111.38l-3.648 10.944 5.568 1.92"/><path d="M353.26 111.38l3.648 10.944-5.568 1.92"/><path d="M364.216 119.34l-11.535-.087-.106 5.888"/><path d="M364.216 119.34l-9.28 6.851-3.548-4.702"/><path d="M342.304 119.34l9.28 6.851 3.548-4.702"/><path d="M342.304 119.34l11.535-.087.106 5.888"/><path d="M360.031 132.22l-3.481-10.998-5.633 1.72"/><path d="M360.031 132.22l-9.384-6.71 3.376-4.826"/><path d="M346.489 132.22l9.384-6.71-3.376-4.826"/><path d="M346.489 132.22l3.481-10.998 5.633 1.72M353.26 65.3l-3.648 10.944 5.568 1.92"/><path d="M353.26 65.3l3.648 10.944-5.568 1.92"/><path d="M364.216 73.26l-11.535-.087-.106 5.888"/><path d="M364.216 73.26l-9.28 6.851-3.548-4.702"/><path d="M342.304 73.26l9.28 6.851 3.548-4.702"/><path d="M342.304 73.26l11.535-.087.106 5.888"/><path d="M360.031 86.14l-3.481-10.998-5.633 1.72"/><path d="M360.031 86.14l-9.384-6.71 3.376-4.826"/><path d="M346.489 86.14l9.384-6.71-3.376-4.826"/><path d="M346.489 86.14l3.481-10.998 5.633 1.72M353.26 19.22l-3.648 10.944 5.568 1.92"/><path d="M353.26 19.22l3.648 10.944-5.568 1.92"/><path d="M364.216 27.18l-11.535-.087-.106 5.888"/><path d="M364.216 27.18l-9.28 6.851-3.548-4.702"/><path d="M342.304 27.18l9.28 6.851 3.548-4.702"/><path d="M342.304 27.18l11.535-.087.106 5.888"/><path d="M360.031 40.06l-3.481-10.998-5.633 1.72"/><path d="M360.031 40.06l-9.384-6.71 3.376-4.826"/><path d="M346.489 40.06l9.384-6.71-3.376-4.826"/><path d="M346.489 40.06l3.481-10.998 5.633 1.72"/><g><path d="M168.94 111.38l-3.648 10.944 5.568 1.92"/><path d="M168.94 111.38l3.648 10.944-5.568 1.92"/><path d="M179.896 119.34l-11.535-.087-.106 5.888"/><path d="M179.896 119.34l-9.28 6.851-3.548-4.702"/><path d="M157.984 119.34l9.28 6.851 3.548-4.702"/><path d="M157.984 119.34l11.535-.087.106 5.888"/><path d="M175.711 132.22l-3.481-10.998-5.633 1.72"/><path d="M175.711 132.22l-9.384-6.71 3.376-4.826"/><path d="M162.169 132.22l9.384-6.71-3.376-4.826"/><path d="M162.169 132.22l3.481-10.998 5.633 1.72"/></g><g><path d="M215.02 111.38l-3.648 10.944 5.568 1.92"/><path d="M215.02 111.38l3.648 10.944-5.568 1.92"/><path d="M225.976 119.34l-11.535-.087-.106 5.888"/><path d="M225.976 119.34l-9.28 6.851-3.548-4.702"/><path d="M204.064 119.34l9.28 6.851 3.548-4.702"/><path d="M204.064 119.34l11.535-.087.106 5.888"/><path d="M221.791 132.22l-3.481-10.998-5.633 1.72"/><path d="M221.791 132.22l-9.384-6.71 3.376-4.826"/><path d="M208.249 132.22l9.384-6.71-3.376-4.826"/><path d="M208.249 132.22l3.481-10.998 5.633 1.72"/></g><g><path d="M215.02 65.3l-3.648 10.944 5.568 1.92"/><path d="M215.02 65.3l3.648 10.944-5.568 1.92"/><path d="M225.976 73.26l-11.535-.087-.106 5.888"/><path d="M225.976 73.26l-9.28 6.851-3.548-4.702"/><path d="M204.064 73.26l9.28 6.851 3.548-4.702"/><path d="M204.064 73.26l11.535-.087.106 5.888"/><path d="M221.791 86.14l-3.481-10.998-5.633 1.72"/><path d="M221.791 86.14l-9.384-6.71 3.376-4.826"/><path d="M208.249 86.14l9.384-6.71-3.376-4.826"/><path d="M208.249 86.14l3.481-10.998 5.633 1.72"/></g></g></g></svg>