<svg width="800" height="480" xmlns="http://www.w3.org/2000/svg"><g fill="none" fill-rule="evenodd"><path fill="#FFF" d="M400 0h400v480H400z"/><path fill="#FFE000" d="M0 0h400v480H0z"/><path d="M606.224 186.042c0 .12-13.44 44.36-28.368 59.83-16.656 17.38-27.168 17.4-27.168 17.4l-17.016-3.543s9.984.418 29.736-20.747c20.016-21.443 26.256-56.942 25.944-56.305l16.872 3.365z" stroke="#000" stroke-width=".5" fill="#FFF"/><path d="M590.3 189.335c-.36-1.872 8.136 44 33.648 65.145 12.744 10.573 21.264 10.573 21.264 10.573l21.264-3.525s-12.408.757-32.16-20.407c-20.04-21.463-26.064-52.423-25.92-52.543l-18.096.757z" stroke="#000" stroke-width=".5" fill="#FFF"/><path d="M589.676 187.842c0 .119 13.44 44.36 28.368 59.83 16.656 17.38 27.168 17.4 27.168 17.4l17.016-3.543s-9.984.418-29.736-20.747c-20.016-21.443-26.256-56.942-25.944-56.305l-16.872 3.365z" stroke="#000" stroke-width=".5" fill="#FFF"/><path d="M605.6 187.535c.36-1.872-8.136 44-33.648 65.145-12.744 10.573-21.264 10.573-21.264 10.573l-21.264-3.524s12.408.756 32.16-20.408c20.04-21.463 26.064-52.423 25.92-52.543l18.096.757z" stroke="#000" stroke-width=".5" fill="#FFF"/><path d="M605.741 223.002l2.094 4.456s.41-1.921 2.098-2.236l1.688-.295s6.223 9.981 7.45 11.766c1.226 1.784-.95 3.321-.519 3.332.432.012 6.417-2.124 6.417-2.124s-2.548.113-3.567-1.327c-1.019-1.44-8.039-12.16-8.039-12.16s1.477-.48 2.762-.964c1.285-.504 2.501 1.658 2.501 1.658l-3.03-5.376s-.045 1.771-1.11 2.082c-1.064.331-1.937.667-1.937.667s-.808-1.256-1.85-2.697c-1.02-1.42 1.152-2.779 1.152-2.779l-5.578 2.146s1.897.926 2.498 1.818l1.226 1.785s-.777.338-1.985.645c-.874.356-1.848-.048-2.27-.397z" stroke="#000" stroke-width=".5" fill="#FFF133"/><g fill="#B00" stroke="#000" stroke-width=".5"><path d="M550.525 332.845c-.526-.35-.75-1.156-.447-1.61.303-.456 1.134-.56 1.66-.21l2.894 1.928c.526.35.75 1.156.446 1.612-.317.475-1.133.558-1.66.207l-2.891-1.926h-.002zm-1.762 1.516c-.515-.349-.723-1.154-.415-1.61.309-.456 1.135-.564 1.65-.215l2.838 1.921c.515.349.724 1.155.414 1.612-.322.477-1.134.562-1.65.212l-2.835-1.919h-.002zm-1.938 1.484c-.526-.35-.75-1.156-.447-1.61.303-.456 1.134-.56 1.66-.21l2.894 1.928c.526.35.75 1.156.446 1.612-.317.475-1.133.558-1.66.207l-2.891-1.926h-.002zm23.801-20.372c-.584-.248-.965-.98-.76-1.462.205-.483.996-.717 1.58-.47l3.216 1.367c.584.248.964.98.759 1.463-.215.504-.996.716-1.582.467l-3.211-1.365h-.002z"/><path d="M569.277 317.125c-.57-.26-.923-1.002-.704-1.484.219-.481 1.01-.704 1.581-.444l3.14 1.429c.571.26.924 1.001.704 1.484-.229.504-1.01.703-1.582.443l-3.137-1.428h-.002zm-1.473 1.764c-.58-.258-.948-.997-.734-1.477.213-.48 1.01-.703 1.589-.445l3.192 1.42c.58.258.948.997.734 1.479-.224.502-1.01.701-1.59.443l-3.19-1.42h-.001z"/><path d="M566.277 319.675c-.557-.288-.87-1.05-.624-1.525.245-.475 1.05-.662 1.606-.375l3.064 1.585c.557.288.87 1.05.623 1.527-.256.496-1.048.66-1.607.372l-3.06-1.583h-.002zm9.383-10.824c-.602-.19-1.051-.874-.896-1.368.155-.494.916-.799 1.519-.609l3.319 1.045c.603.19 1.052.873.896 1.369-.162.516-.915.797-1.52.607l-3.316-1.043-.001-.001z"/><path d="M574.651 310.694c-.594-.194-1.028-.883-.867-1.378.161-.495.918-.797 1.512-.604l3.27 1.064c.593.194 1.028.883.866 1.38-.168.517-.918.795-1.513.602l-3.266-1.064h-.002zm-1.191 1.957c-.602-.19-1.051-.874-.896-1.368.155-.494.916-.799 1.519-.609l3.319 1.045c.603.19 1.052.873.896 1.369-.162.516-.915.797-1.52.607l-3.316-1.043-.001-.001z"/><path d="M572.031 314.316c-.59-.205-1.011-.903-.84-1.396.17-.493.933-.782 1.524-.578l3.25 1.125c.59.204 1.012.902.84 1.397-.178.515-.933.78-1.525.576l-3.247-1.124h-.002zm-13.994 12.896c-.546-.324-.817-1.111-.542-1.575.275-.463 1.097-.603 1.642-.28l3.001 1.782c.545.324.817 1.112.541 1.576-.287.484-1.096.602-1.643.278l-2.998-1.78-.001-.001zm-1.752 1.52c-.535-.323-.79-1.112-.51-1.576.28-.464 1.098-.605 1.632-.282l2.944 1.778c.535.324.79 1.112.51 1.577-.294.485-1.098.605-1.634.28l-2.94-1.776-.002-.001zm-1.748 1.58c-.546-.324-.817-1.111-.542-1.575.275-.463 1.097-.603 1.642-.28l3.001 1.782c.545.324.817 1.112.541 1.576-.287.484-1.096.602-1.643.278l-2.998-1.78-.001-.001z"/><path d="M552.463 331.361c-.515-.349-.723-1.154-.415-1.61.309-.456 1.135-.564 1.65-.215l2.838 1.921c.515.349.724 1.155.414 1.612-.322.477-1.134.562-1.65.212l-2.835-1.919h-.002zm12.155-9.911c-.566-.288-.895-1.049-.655-1.522.24-.474 1.048-.661 1.615-.374l3.12 1.579c.566.287.895 1.048.654 1.523-.25.495-1.047.66-1.616.372l-3.116-1.578h-.002z"/><path d="M563.177 323.075c-.557-.288-.87-1.05-.624-1.525.245-.475 1.05-.662 1.606-.375l3.064 1.585c.557.288.87 1.05.623 1.527-.256.496-1.048.66-1.607.372l-3.06-1.583h-.002z"/><path d="M561.437 324.012c-.546-.324-.817-1.111-.542-1.575.275-.463 1.097-.603 1.642-.28l3.001 1.782c.545.324.817 1.112.541 1.576-.287.484-1.096.602-1.643.278l-2.998-1.78-.001-.001z"/><path d="M559.785 325.532c-.535-.323-.79-1.112-.51-1.576.28-.464 1.098-.605 1.632-.282l2.944 1.778c.535.324.79 1.112.51 1.577-.294.485-1.098.605-1.634.28l-2.94-1.776-.002-.001zm26.724-38.679c-.62-.055-1.196-.62-1.15-1.128.045-.508.712-.963 1.331-.908l3.41.304c.62.056 1.196.62 1.15 1.13-.046.53-.711.961-1.332.906l-3.408-.304h-.001z"/><path d="M585.956 287.737c-.609-.12-1.12-.745-1.02-1.25.098-.506.808-.894 1.416-.775l3.35.657c.608.119 1.12.744 1.02 1.251-.103.529-.808.892-1.418.773l-3.347-.656h-.001zm-.808 2.047c-.616-.113-1.142-.731-1.05-1.235.094-.504.805-.895 1.421-.782l3.393.625c.617.113 1.142.73 1.05 1.236-.098.527-.804.894-1.423.78l-3.39-.624h-.001zm-.792 2.053c-.609-.12-1.12-.745-1.02-1.25.098-.506.808-.894 1.416-.775l3.35.657c.608.119 1.12.744 1.02 1.251-.103.529-.808.892-1.418.773l-3.347-.656h-.001zm4.178-11.229c-.612-.062-1.175-.635-1.123-1.145.051-.511.717-.961 1.33-.9l3.372.341c.612.062 1.175.634 1.123 1.147-.054.533-.717.959-1.331.897l-3.369-.34h-.002zm-.625 2.045c-.62-.055-1.196-.62-1.15-1.128.045-.508.712-.963 1.331-.908l3.41.304c.62.056 1.196.62 1.15 1.13-.046.53-.711.961-1.332.906l-3.408-.304h-.001zm-.675 2.155c-.612-.062-1.175-.635-1.123-1.145.051-.511.717-.961 1.33-.9l3.372.341c.612.062 1.175.634 1.123 1.147-.054.533-.717.959-1.331.897l-3.369-.34h-.002zm-7.253 16.391c-.608-.167-1.082-.832-.945-1.329.136-.497.883-.828 1.491-.661l3.348.919c.609.167 1.082.831.945 1.33-.142.52-.882.827-1.492.66l-3.345-.919h-.002z"/><path d="M578.974 303.049c-.599-.171-1.057-.841-.915-1.34.142-.499.886-.828 1.485-.657l3.298.942c.6.17 1.058.84.915 1.341-.149.521-.885.826-1.486.655l-3.295-.94-.002-.001zm-.993 2.05c-.608-.167-1.082-.832-.945-1.329.136-.497.883-.828 1.491-.661l3.348.919c.609.167 1.082.831.945 1.33-.142.52-.882.827-1.492.66l-3.345-.919h-.002z"/><path d="M576.851 306.894c-.594-.194-1.028-.883-.867-1.378.161-.495.918-.797 1.512-.604l3.27 1.064c.593.194 1.028.883.866 1.38-.168.517-.918.795-1.513.602l-3.266-1.064h-.002zm6.597-13.01c-.616-.113-1.142-.731-1.05-1.235.094-.504.805-.895 1.421-.782l3.393.625c.617.113 1.142.73 1.05 1.236-.098.527-.804.894-1.423.78l-3.39-.624h-.001z"/><path d="M583.174 295.249c-.599-.171-1.057-.841-.915-1.34.142-.499.886-.828 1.485-.657l3.298.942c.6.17 1.058.84.915 1.341-.149.521-.885.826-1.486.655l-3.295-.94-.002-.001zm-1.093 2.05c-.608-.167-1.082-.832-.945-1.329.136-.497.883-.828 1.491-.661l3.348.919c.609.167 1.082.831.945 1.33-.142.52-.882.827-1.492.66l-3.345-.919h-.002z"/><path d="M581.074 299.149c-.599-.171-1.057-.841-.915-1.34.142-.499.886-.828 1.485-.657l3.298.942c.6.17 1.058.84.915 1.341-.149.521-.885.826-1.486.655l-3.295-.94-.002-.001zm11.648-30.325c-.605.072-1.273-.363-1.333-.87-.06-.508.486-1.089 1.091-1.16l3.332-.398c.605-.072 1.273.363 1.333.871.064.53-.486 1.087-1.092 1.16l-3.33.397h0z"/><path d="M591.917 270.62c-.619-.042-1.206-.592-1.173-1.1.034-.51.689-.979 1.308-.938l3.41.226c.62.04 1.208.59 1.174 1.101-.035.532-.689.977-1.31.936l-3.407-.226h-.002zm-.581 2.055c-.612-.049-1.186-.61-1.145-1.12.04-.512.696-.976 1.309-.927l3.372.269c.613.049 1.186.61 1.145 1.122-.042.534-.696.974-1.31.925l-3.369-.269h-.002zm2.03-10.293c-.6.062-1.255-.386-1.308-.896-.053-.51.496-1.085 1.097-1.147l3.306-.342c.6-.062 1.256.386 1.309.897.055.534-.497 1.083-1.1 1.146l-3.302.342h-.002zm-.144 2.242c-.605.072-1.273-.363-1.333-.87-.06-.508.486-1.089 1.091-1.16l3.332-.398c.605-.072 1.273.363 1.333.871.064.53-.486 1.087-1.092 1.16l-3.33.397h0z"/><path d="M592.866 266.582c-.6.062-1.255-.386-1.308-.896-.053-.51.496-1.085 1.097-1.147l3.306-.342c.6-.062 1.256.386 1.309.897.055.534-.497 1.083-1.1 1.146l-3.302.342h-.002zm-2.149 8.238c-.619-.042-1.206-.592-1.173-1.1.034-.51.689-.979 1.308-.938l3.41.226c.62.04 1.208.59 1.174 1.101-.035.532-.689.977-1.31.936l-3.407-.226h-.002z"/><path d="M589.834 276.308c-.612-.062-1.175-.635-1.123-1.145.051-.511.717-.961 1.33-.9l3.372.341c.612.062 1.175.634 1.123 1.147-.054.533-.717.959-1.331.897l-3.369-.34h-.002zm-.625 2.145c-.62-.055-1.196-.62-1.15-1.128.045-.508.712-.963 1.331-.908l3.41.304c.62.056 1.196.62 1.15 1.13-.046.53-.711.961-1.332.906l-3.408-.304h-.001z"/></g><g fill="#B00" stroke="#000" stroke-width=".5"><path d="M643.262 327.224c.542-.33.804-1.121.523-1.583-.28-.462-1.105-.595-1.646-.266l-2.981 1.811c-.542.33-.804 1.121-.523 1.584.293.483 1.104.594 1.647.264l2.979-1.81h.001z"/><path d="M644.917 328.741c.53-.328.777-1.12.491-1.583-.286-.463-1.105-.598-1.636-.27l-2.924 1.807c-.53.329-.777 1.12-.49 1.585.299.484 1.104.596 1.637.267l2.92-1.805.002-.001zm1.745 1.583c.542-.33.804-1.121.523-1.583-.28-.462-1.105-.595-1.646-.266l-2.981 1.811c-.542.33-.804 1.121-.523 1.584.293.483 1.104.594 1.647.264l2.979-1.81h.001zM624.478 308.7c.596-.214 1.02-.917.844-1.406-.174-.49-.948-.767-1.544-.554l-3.282 1.172c-.596.213-1.02.916-.844 1.407.183.512.948.766 1.546.552l3.279-1.171h.001zm1.341 1.763c.583-.226.978-.942.788-1.431-.19-.49-.966-.752-1.549-.526l-3.21 1.248c-.583.226-.978.942-.787 1.433.198.51.964.75 1.549.523l3.207-1.246h.002zm1.281 1.957c.593-.224 1.003-.936.818-1.424-.184-.487-.963-.751-1.555-.527l-3.262 1.233c-.592.224-1.002.937-.817 1.425.193.51.963.75 1.557.526l3.258-1.232h.002z"/><path d="M628.607 313.222c.571-.258.926-.999.707-1.48-.218-.482-1.009-.706-1.58-.448l-3.143 1.423c-.571.259-.926 1-.707 1.483.228.503 1.009.704 1.581.445l3.14-1.422h.002zm-8.555-11.363c.611-.148 1.103-.797.982-1.297-.121-.5-.856-.852-1.468-.703l-3.367.817c-.612.148-1.104.797-.982 1.298.127.522.856.85 1.469.702l3.364-.817h.002zm.902 1.948c.602-.153 1.08-.808.952-1.31-.127-.5-.86-.85-1.462-.697l-3.32.844c-.602.153-1.08.808-.952 1.31.133.524.86.85 1.464.696l3.316-.842h.002zm.998 2.052c.611-.148 1.103-.797.982-1.297-.121-.5-.856-.852-1.468-.703l-3.367.817c-.612.148-1.104.797-.982 1.298.127.522.856.85 1.469.702l3.364-.817h.002z"/><path d="M623.272 307.637c.6-.165 1.064-.831.927-1.33-.138-.5-.878-.836-1.478-.67l-3.306.91c-.6.166-1.064.832-.926 1.333.144.522.877.833 1.48.667l3.301-.91h.002zm12.984 13.534c.56-.298.871-1.068.62-1.538-.25-.47-1.063-.643-1.623-.344l-3.084 1.643c-.56.299-.87 1.068-.62 1.54.262.492 1.064.641 1.625.342l3.08-1.642h.002z"/><path d="M637.801 322.695c.55-.299.845-1.07.589-1.542-.256-.471-1.065-.644-1.615-.345l-3.029 1.647c-.55.299-.845 1.07-.588 1.543.268.493 1.064.643 1.616.343l3.025-1.645h.002zm1.655 1.776c.56-.298.871-1.068.62-1.538-.25-.47-1.063-.643-1.623-.344l-3.084 1.643c-.56.299-.87 1.068-.62 1.54.262.492 1.064.641 1.625.342l3.08-1.642h.002z"/><path d="M641.417 325.641c.53-.328.777-1.12.491-1.583-.286-.463-1.105-.598-1.636-.27l-2.924 1.807c-.53.329-.777 1.12-.49 1.585.299.484 1.104.596 1.637.267l2.92-1.805.002-.001zm-11.434-10.552c.58-.257.95-.995.737-1.475-.213-.481-1.008-.706-1.588-.45l-3.194 1.414c-.58.256-.95.994-.736 1.476.222.503 1.007.704 1.588.447l3.191-1.411.002-.001z"/><path d="M631.407 316.722c.571-.258.926-.999.707-1.48-.218-.482-1.009-.706-1.58-.448l-3.143 1.423c-.571.259-.926 1-.707 1.483.228.503 1.009.704 1.581.445l3.14-1.422h.002z"/><path d="M633.056 317.771c.56-.298.871-1.068.62-1.538-.25-.47-1.063-.643-1.623-.344l-3.084 1.643c-.56.299-.87 1.068-.62 1.54.262.492 1.064.641 1.625.342l3.08-1.642h.002zm1.645 1.624c.55-.299.845-1.07.589-1.542-.256-.471-1.065-.644-1.615-.345l-3.029 1.647c-.55.299-.845 1.07-.588 1.543.268.493 1.064.643 1.616.343l3.025-1.645h.002zm-23.787-39.967c.618-.004 1.233-.518 1.23-1.027-.004-.51-.626-1.017-1.243-1.013l-3.398.023c-.618.004-1.233.518-1.23 1.03.004.532.626 1.014 1.245 1.01l3.395-.023h.001z"/><path d="M611.353 280.331c.612-.072 1.165-.655 1.105-1.165-.06-.51-.735-.948-1.347-.876l-3.37.4c-.611.072-1.165.654-1.104 1.166.063.533.734.947 1.348.874l3.366-.399h.002zm.819 2.146c.62-.066 1.186-.64 1.133-1.147-.054-.508-.73-.951-1.349-.886l-3.41.362c-.619.066-1.186.64-1.132 1.149.056.53.729.95 1.35.884l3.406-.362h.002z"/><path d="M612.753 284.431c.612-.072 1.165-.655 1.105-1.165-.06-.51-.735-.948-1.347-.876l-3.37.4c-.611.072-1.165.654-1.104 1.166.063.533.734.947 1.348.874l3.366-.399h.002zm-3.371-11.347c.611-.012 1.214-.537 1.203-1.049-.01-.512-.633-1.014-1.243-1.001l-3.363.066c-.611.013-1.214.537-1.203 1.05.01.536.633 1.013 1.245 1l3.36-.066h.001zm.532 2.144c.618-.004 1.233-.518 1.23-1.027-.004-.51-.626-1.017-1.243-1.013l-3.398.023c-.618.004-1.233.518-1.23 1.03.004.532.626 1.014 1.245 1.01l3.395-.023h.001zm.468 2.056c.611-.012 1.214-.537 1.203-1.049-.01-.512-.633-1.014-1.243-1.001l-3.363.066c-.611.013-1.214.537-1.203 1.05.01.536.633 1.013 1.245 1l3.36-.066h.001zm5.851 16.721c.615-.123 1.132-.75 1.031-1.252-.1-.503-.819-.884-1.434-.76l-3.389.678c-.616.124-1.132.75-1.031 1.254.105.526.819.882 1.436.759l3.385-.678h.002zm.897 1.949c.607-.128 1.108-.762 1.001-1.266-.107-.505-.823-.881-1.43-.753l-3.342.71c-.607.128-1.109.762-1.001 1.268.112.527.823.88 1.431.75l3.339-.708h.002zm.903 2.151c.615-.123 1.132-.75 1.031-1.252-.1-.503-.819-.884-1.434-.76l-3.389.678c-.616.124-1.132.75-1.031 1.254.105.526.819.882 1.436.759l3.385-.678h.002z"/><path d="M619.054 299.807c.602-.153 1.08-.808.952-1.31-.127-.5-.86-.85-1.462-.697l-3.32.844c-.602.153-1.08.808-.952 1.31.133.524.86.85 1.464.696l3.316-.842h.002zm-5.582-13.23c.62-.066 1.186-.64 1.133-1.147-.054-.508-.73-.951-1.349-.886l-3.41.362c-.619.066-1.186.64-1.132 1.149.056.53.729.95 1.35.884l3.406-.362h.002z"/><path d="M613.63 287.954c.607-.128 1.108-.762 1.001-1.266-.107-.505-.823-.881-1.43-.753l-3.342.71c-.607.128-1.109.762-1.001 1.268.112.527.823.88 1.431.75l3.339-.708h.002zm.903 2.051c.615-.123 1.132-.75 1.031-1.252-.1-.503-.819-.884-1.434-.76l-3.389.678c-.616.124-1.132.75-1.031 1.254.105.526.819.882 1.436.759l3.385-.678h.002zm.797 1.949c.607-.128 1.108-.762 1.001-1.266-.107-.505-.823-.881-1.43-.753l-3.342.71c-.607.128-1.109.762-1.001 1.268.112.527.823.88 1.431.75l3.339-.708h.002zm-9.118-30.796c.59.125 1.29-.251 1.395-.752.107-.502-.379-1.13-.97-1.255l-3.25-.69c-.59-.124-1.289.251-1.395.754-.112.524.38 1.128.971 1.254l3.248.688h.001z"/><path d="M606.812 262.89c.616.01 1.242-.489 1.25-.999.008-.51-.6-1.03-1.216-1.041l-3.391-.056c-.616-.01-1.242.49-1.25 1-.01.533.6 1.03 1.218 1.04l3.387.056h.002zm.463 2.06c.61.001 1.224-.51 1.225-1.022.002-.513-.608-1.029-1.218-1.03l-3.36-.01c-.61-.002-1.223.509-1.224 1.023-.002.535.609 1.027 1.22 1.028l3.356.01h.001zm-1.415-10.333c.586.114 1.273-.277 1.372-.782.098-.506-.392-1.127-.98-1.241l-3.231-.63c-.587-.114-1.275.277-1.373.784-.103.528.392 1.125.98 1.24l3.23.628h.001z"/><path d="M606.012 256.758c.59.125 1.29-.251 1.395-.752.107-.502-.379-1.13-.97-1.255l-3.25-.69c-.59-.124-1.289.251-1.395.754-.112.524.38 1.128.971 1.254l3.248.688h.001z"/><path d="M606.16 258.817c.586.114 1.273-.277 1.372-.782.098-.506-.392-1.127-.98-1.241l-3.231-.63c-.587-.114-1.275.277-1.373.784-.103.528.392 1.125.98 1.24l3.23.628h.001zm1.452 8.373c.616.01 1.242-.489 1.25-.999.008-.51-.6-1.03-1.216-1.041l-3.391-.056c-.616-.01-1.242.49-1.25 1-.01.533.6 1.03 1.218 1.04l3.387.056h.002z"/><path d="M608.382 268.684c.611-.012 1.214-.537 1.203-1.049-.01-.512-.633-1.014-1.243-1.001l-3.363.066c-.611.013-1.214.537-1.203 1.05.01.536.633 1.013 1.245 1l3.36-.066h.001zm.532 2.244c.618-.004 1.233-.518 1.23-1.027-.004-.51-.626-1.017-1.243-1.013l-3.398.023c-.618.004-1.233.518-1.23 1.03.004.532.626 1.014 1.245 1.01l3.395-.023h.001z"/></g><path d="M590.259 221.202l-2.094 4.456s-.41-1.921-2.098-2.236l-1.688-.295s-6.223 9.981-7.45 11.766c-1.226 1.784.95 3.321.519 3.332-.432.012-6.417-2.124-6.417-2.124s2.548.113 3.567-1.327c1.019-1.44 8.039-12.16 8.039-12.16s-1.477-.48-2.762-.964c-1.285-.504-2.501 1.658-2.501 1.658l3.03-5.376s.045 1.771 1.11 2.082c1.064.331 1.937.667 1.937.667s.808-1.256 1.85-2.697c1.02-1.42-1.152-2.779-1.152-2.779l5.578 2.146s-1.897.926-2.498 1.818l-1.226 1.785s.777.338 1.985.645c.874.356 1.848-.048 2.27-.397z" stroke="#000" stroke-width=".5" fill="#FFF133"/><g transform="translate(477.7 171.483)"><path fill="silver" d="M132.763 90.952l-7.248 6.054 25.323 21.197 7.233-6.042z"/><ellipse stroke="#000" stroke-width=".5" fill="#FFF133" transform="scale(-1 1) rotate(45 0 -52.351)" cx="24.24" cy="6.169" rx="5.111" ry="4.278"/><path d="M27.863 6.163l5.414 4.556-3.609 3.022-5.428-4.544c-1.805-1.51 1.804-4.532 3.609-3.022l.014-.012z" stroke="#000" stroke-width=".5" fill="silver"/><path d="M35.862 9.85l-7.233 6.042c-1.994 0-3.61-1.353-3.61-3.021 1.56-3.118 3.61-4.641 7.219-6.043 1.936.111 3.477 1.4 3.61 3.021h.014z" stroke="#000" stroke-width=".5" fill="#FFF133"/><path d="M35.082 9.197l5.443 4.544-7.248 6.054-5.414-4.532c.722-2.417 4.332-5.45 7.219-6.054v-.012z" stroke="#000" stroke-width=".5" fill="silver"/><path d="M41.29 14.381l-7.233 6.055c-1.99-.007-3.601-1.356-3.61-3.022 1.56-3.13 3.61-4.64 7.22-6.054 1.935.11 3.476 1.4 3.608 3.021h.015z" stroke="#000" stroke-width=".5" fill="#FFF133"/><path d="M40.51 13.74L90 55.169l-7.218 6.055-49.505-41.428c.722-2.417 4.346-5.438 7.233-6.042v-.012z" stroke="#000" stroke-width=".5" fill="silver"/><path d="M92.974 57.645L85.727 63.7c-1.99-.007-3.601-1.355-3.61-3.021 1.56-3.13 3.61-4.653 7.22-6.055 1.946.1 3.503 1.392 3.637 3.021z" stroke="#000" stroke-width=".5" fill="#FFF133"/><path d="M92.974 57.645l32.541 27.252-7.218 6.055L85.712 63.7c.722-2.417 4.346-5.438 7.233-6.042l.03-.013z" stroke="#000" stroke-width=".5" fill="silver"/><path d="M112.854 71.277l-10.842 9.076c-1.99-.006-3.601-1.355-3.61-3.021 0 0 0-3.021 3.61-6.055 3.61-3.033 7.218-3.02 7.218-3.02 1.69.18 3.104 1.498 3.624 3.02z" stroke="#000" stroke-width=".5" fill="silver"/><path d="M112.854 71.277l7.247 9.076-7.233 6.055-10.856-6.043c-.404-.302 0-3.033 3.61-6.066 3.608-3.034 7.073-2.95 7.232-3.022z" stroke="#000" stroke-width=".5" fill="silver"/><path d="M117.419 81.578c-2.474-2.474-6.052-6.053-10.892-7.279 1.226 4.84 4.811 8.425 7.278 10.892l3.614-3.613z" stroke="#000" stroke-width=".5" fill="silver"/><path d="M112.13 86.41l1.806-1.806-3.026-3.026c-3.026-3.026-8.156-.929-8.156-.929l9.375 5.762zm7.243-6.05l-1.806 1.806-3.027-3.026c-3.026-3.026-.928-8.156-.928-8.156l5.761 9.375z" stroke="#000" stroke-width=".5" fill="silver"/><path d="M40.51 13.74l5.429 4.545c3.609 3.02 16.284 16.653 16.284 16.653s16.935 11.154 20.544 14.175l5.443 4.544c-3.61-3.02-25.987-15.686-25.987-15.686S75.55 55.168 80.977 59.7l-5.428-4.544c-3.61-3.021-16.935-17.197-16.935-17.197s-14.48-9.076-18.104-12.11l-7.218-6.042C36.9 22.83 58.6 34.937 58.6 34.937S44.134 16.775 40.51 13.742z" stroke="#000" stroke-width=".5" fill="#FFF133"/><path d="M129.139 93.985c4.758 5.984 10.208 11.562 16.27 16.653 1.92 1.678 4.477 2.746 7.233 3.021 0 0 0-3.02-3.609-6.042-6.076-5.084-12.74-9.65-19.894-13.632zm-9.038-13.632c12.647 10.599 27.128 16.653 36.165 24.23 7.233 6.043 2.223 10.684.202 12.158-2.021 1.462-7.507 6.079-14.668-.048-9.052-7.565-16.285-19.687-28.946-30.285 0-3.022 3.624-6.043 7.233-6.043l.014-.012z" stroke="#000" stroke-width=".5" fill="silver" fill-rule="nonzero"/><path stroke="#000" stroke-width=".5" fill="silver" d="M163.323 113.48l-4.252-4.626-12.295 11.302 4.251 4.625z"/><g fill="silver" stroke="#000" stroke-width=".5"><path d="M38.181 19.924l-5.863 4.8 5.863 4.799-2.915 2.386-5.864-4.8-11.76 9.627 5.864 4.8-2.915 2.386-5.864-4.8-5.897 4.8 17.624 14.426 11.727-9.6-5.863-4.826-2.949 2.413-2.915-2.413 11.727-9.6 2.948 2.414-2.948 2.386 5.864 4.8 5.863-4.8-2.915-2.386 2.915-2.413 11.76 9.599-2.948 2.413-2.915-2.413-5.897 4.826 5.897 4.8 2.915-2.413 2.948 2.413-11.76 9.6-2.915-2.414 2.915-2.386-5.863-4.8-11.727 9.6 17.59 14.398 5.897-4.8-5.897-4.8 2.981-2.385 5.83 4.8 11.761-9.627-5.897-4.8 2.949-2.386 5.863 4.8 5.864-4.8L38.18 19.924z"/><path d="M55.788 72.75v4.8L41.113 89.562v-9.599l2.932-2.413h5.88l5.847-4.8zm14.674-11.904L58.8 70.391l-.133 4.772 11.794-9.667v-4.65z"/><path d="M58.72 75.15l-5.863-4.8v-4.8l5.863 4.8zm14.683-12.013l-5.864-4.8v-4.799l5.864 4.8zm-5.871-9.599v4.8l-2.948-2.4 2.948-2.4z"/><path d="M52.864 65.55v4.8l-2.948-2.4 2.948-2.4zm26.462-12.015l-5.93 4.8v4.799l5.93-4.949v-4.65zm-35.274-4.803l-5.863-4.8v-4.8l5.863 4.8zM55.79 58.34l-5.864-4.8v-4.8l5.863 4.8zm2.931-12.018l-8.795-7.2v-4.799l11.743 9.6-2.948 2.413z"/><path d="M49.933 34.323v4.8l-2.948-2.4 2.948-2.4zm-5.881 14.409l5.864-4.786v-4.8l-5.864 4.8v4.8zm-14.675-2.41l8.812-7.186v-4.8l-11.744 9.6 2.932 2.413zm8.803 2.403l-11.743 9.626h-5.864l-2.931 2.387v9.612L38.18 53.484v-4.745z"/><path d="M49.925 77.55L32.318 63.137h-5.88L44.045 77.55h5.88zm-8.812 2.413L23.506 65.551l2.932-2.4L44.045 77.55l-2.932 2.4v.013z" fill-rule="nonzero"/><path d="M41.113 79.963v9.6L23.506 75.15v-9.6z"/><path d="M26.45 58.335L8.843 43.922h-5.88L20.57 58.335h5.88zm-8.812 2.413L.031 46.336l2.932-2.4L20.57 58.335l-2.932 2.4v.013z" fill-rule="nonzero"/><path d="M17.638 60.748v9.599L.031 55.935v-9.6zm2.938-16.821l-2.931-2.4v-4.799l5.863 4.8zm14.668-12.012l-2.931-2.4v-4.8l5.863 4.8zm14.672 31.233v-4.8l-2.932 2.4 2.932 2.4zm5.874-4.808l5.863-4.786-2.932-2.4-2.932 2.4v4.8zM38.176 39.124l2.932-2.4-2.932-2.4v4.8z"/></g><path stroke="#000" stroke-width=".5" fill="#FFF133" d="M167.727 116.655l-4.658-5.067-13.507 12.417 4.659 5.067z"/><path d="M161.958 147.377c0 3.351-9.706 8.093-9.706-4.035h9.706v4.035z" stroke="#000" stroke-width=".5" fill="silver"/><path d="M187.87 115.072c40.305 0 31.01 37.434 27.528 28.27-2.578-6.726-9.734-16.142-17.823-18.285-11.022-2.918-7.32 2.143-11.323 2.143-4.031 0-.33-5.06-11.352-2.143-8.088 2.143-15.245 11.559-17.822 18.285-3.482 9.187-14.532-28.27 30.791-28.27z" stroke="#000" stroke-width=".5" fill="silver"/><path d="M147.372 147.377c.56 17.514 17.795 31.47 38.866 31.47 21.07 0 38.306-13.956 38.866-31.47v-4.035c0-6.612-9.706 28.27-38.852 28.27-29.147 0-38.88-28.43-38.88-28.27v4.035z" stroke="#000" stroke-width=".5" fill="silver"/><path d="M210.53 147.63c0 3.352 9.707 8.094 9.707-4.035h-9.706v4.036z" stroke="#000" stroke-width=".5" fill="silver"/><path d="M147.372 143.342c0 17.854 17.407 32.328 38.88 32.328 21.472 0 38.88-14.474 38.88-32.328 0-17.855-17.408-32.329-38.88-32.329-21.473 0-38.88 14.474-38.88 32.329zm14.586 0c0 3.35-6.251.683-2.577 9.803 2.209 6.134 8.081 10.88 15.52 12.539 11.021 2.895 7.32-2.143 11.35-2.143 4.004 0 .302 5.038 11.324 2.143 7.57-1.694 13.482-6.61 15.52-12.904 3.51-9.165-2.55-6.087-2.55-9.438 0-3.352 6.032-.251 2.55-9.416-2.038-6.294-7.95-11.21-15.52-12.904-11.022-2.918-7.32 2.12-11.323 2.12-4.031 0-.33-5.015-11.352-2.12-7.566 1.698-13.477 6.612-15.519 12.904-3.482 9.165 2.577 6.064 2.577 9.416z" stroke="#000" stroke-width=".5" fill="silver" fill-rule="nonzero"/><path d="M215.397 143.348c4.847 0 .456 14.384 2.16 11 3.534-6.999 3.534-15.002 0-22.001-1.704-3.405 2.687 11-2.16 11zm-63.145.007c-.214 3.813.704 7.608 2.66 11 2.193 3.363-2.687-11 2.193-11-4.853 0-.466-14.387-2.193-11-1.767 3.452-2.684 7.204-2.687 11h.027z" stroke="#000" stroke-width=".5" fill="silver"/><path d="M173.008 169.377c8.455 2.984 18.005 2.984 26.46 0 4.085-1.413-13.216 2.234-13.216-1.8 0 4.034-17.302.387-13.244 1.823v-.023zm13.244-50.247c0-4.036 17.273-.388 13.215-1.824-8.451-2.997-18.007-2.997-26.459 0-4.058 1.436 13.244-2.212 13.244 1.824z" stroke="#000" stroke-width=".5" fill="silver" fill-rule="nonzero"/><ellipse stroke="#000" stroke-width=".5" fill="#FFF133" transform="scale(-1 1) rotate(-47.084 0 623.113)" cx="219.819" cy="118.575" rx="5.027" ry="4.599"/><path d="M209.02 116.076a46.183 46.183 0 0 1 10.623 11.425l1.452-.79a48.46 48.46 0 0 0-11.162-12.006l-.912 1.371zm-56.089 43.117a46.183 46.183 0 0 0 10.623 11.425l-.894 1.39a48.46 48.46 0 0 1-11.162-12.005l1.433-.81z" stroke="#000" stroke-width=".5" fill="#FFF133"/><path d="M150.79 164.063c1.393 2.137 3.59 4.198 5.414 6.158 1.804 1.941 4.043 3.441 6.073 4.986l.088-3.365a48.557 48.557 0 0 1-11.162-12.005l-.43 4.242.017-.016zm55.77 7.892a46.248 46.248 0 0 0 11.43-10.627l1.39.893a48.527 48.527 0 0 1-12.01 11.167l-.81-1.433z" stroke="#000" stroke-width=".5" fill="#FFF133"/><ellipse stroke="#000" stroke-width=".5" fill="#FFF133" transform="scale(-1 1) rotate(-47.084 0 520.366)" cx="152.182" cy="171.072" rx="5.027" ry="4.599"/><path d="M207.764 173.017c2.138-1.394 3.89-2.68 5.852-4.504 1.962-1.824 4.48-4.415 6.045-6.464l.072 3.93a48.69 48.69 0 0 1-12.01 11.168l.041-4.13z" stroke="#000" stroke-width=".5" fill="#FFF133"/><path d="M206.541 171.384l.247 3.374.878 1.026-.275-3.42-.822-.98h-.028zm-42.91-1.414l-.987.958-.274 3.1.795-.684.466-3.374z" stroke="#000" stroke-width=".5" fill="#FFF133" fill-rule="nonzero"/><ellipse stroke="#000" stroke-width=".5" fill="#FFF133" transform="scale(-1 1) rotate(-47.084 0 670.856)" cx="216.932" cy="172.945" rx="5.027" ry="4.599"/></g><path d="M550.688 175.071l-8.496-3.524-8.496 3.524s17.592 7.068 17.592 31.757c0 17.64-30.048 21.164-30.048 42.328 0 9.08 8.184 17.64 16.704 17.64 8.52 0 21.264-3.524 34.008-14.116-8.496 3.524-18.24 7.427-25.512 7.168-4.704-.06-13.2-3.524-13.2-10.552 0-14.136 29.472-21.304 29.472-42.468 0-24.689-12-31.737-12-31.737l-.024-.02z" stroke="#000" stroke-width=".5" fill="#FFF"/><path d="M549.128 175.071l-11.184-3.524-2.4 3.524s16.944 7.068 16.944 31.757c0 17.64-30.216 21.164-30.216 42.328 0 9.08 6.408 17.402 15.672 17.64 17.616.458 21.696-4.778 34.008-14.116-10.344 6.431-25.2 9.318-30.96 6.81-7.056-3.067-8.4-7.168-8.4-10.712 0-14.116 29.016-20.786 29.016-41.95 0-24.689-12.48-31.737-12.48-31.737v-.02z" stroke="#000" stroke-width=".5" fill="#FFF"/><path d="M550.808 175.17c-1.68-.477-8.64-3.623-17.112 3.445-4.272 3.524-4.272 10.572-4.272 14.096L516.68 182.14s6.96-17.302 25.824-10.672a86.821 86.821 0 0 1 8.28 3.704h.024z" stroke="#000" stroke-width=".5" fill="#FFF"/><path d="M548.288 173.916c-2.112-.557-8.808-1.254-15.504 3.704-4.248 3.524-4.56 8.541-4.56 12.065l-9.744-7.566c-.816-.617 5.952-16.167 23.808-10.751a40.224 40.224 0 0 1 6 2.568v-.02z" stroke="#000" stroke-width=".5" fill="#FFF"/><path d="M551.538 226.585l-3.093 3.242s.334-1.793-.846-2.574l-1.185-.764s-8.097 6.8-9.631 7.982c-1.534 1.182-.395 3.172-.727 3.052-.333-.12-4.17-3.776-4.17-3.776s1.901.864 3.162-.08c1.26-.946 10.212-8.148 10.212-8.148s-.963-.86-1.778-1.668c-.809-.825-2.463.688-2.463.688l4.116-3.76s-.561 1.553.145 2.143c.699.608 1.25 1.163 1.25 1.163s1.038-.849 2.317-1.787c1.254-.928.058-2.761.058-2.761l3.524 3.542s-1.756.234-2.514.828l-1.534 1.182s.478.528 1.295 1.158c.545.572 1.422.514 1.862.338zm-31.617-45.182l1.72-2.892s.238 1.293 1.487 1.561l1.25.255s4.996-6.424 5.974-7.568c.978-1.145-.593-2.243-.27-2.236.323.008 4.716 1.637 4.716 1.637s-1.898-.164-2.709.76c-.811.922-6.428 7.81-6.428 7.81s1.086.37 2.028.737c.942.38 1.926-1.016 1.926-1.016l-2.45 3.472s.027-1.18-.756-1.425c-.784-.257-1.424-.511-1.424-.511s-.647.807-1.476 1.73c-.811.91.763 1.889.763 1.889l-4.089-1.622s1.449-.55 1.929-1.123l.978-1.144s-.569-.253-1.46-.5c-.64-.266-1.38-.032-1.709.186z" stroke="#000" stroke-width=".5" fill="#FFF133"/><g transform="translate(494.88 168.462)"><g transform="rotate(45 95.539 226.815)"><ellipse stroke="#000" stroke-width=".5" fill="silver" cx="10.294" cy="4.29" rx="5.111" ry="4.278"/><path d="M7.738 6.43v6.428h5.125V6.43c0-2.139-5.125-2.139-5.125 0z" stroke="#000" stroke-width=".5" fill="#FFF133"/><path d="M5.197 13.777H15.42c.68-.569 1.061-1.34 1.061-2.145 0-.805-.382-1.576-1.061-2.145-3.754-1.281-6.482-1.148-10.236 0-1.273 1.227-1.273 3.05 0 4.278l.014.012z" stroke="#000" stroke-width=".5" fill="silver"/><path d="M5.197 12.858v6.418H15.42v-6.418c-2.556-1.28-7.68-1.28-10.236 0h.014z" stroke="#000" stroke-width=".5" fill="#FFF133"/><path d="M5.197 20.182H15.42c1.406-1.183 1.406-3.095 0-4.278-3.754-1.281-6.482-1.148-10.236 0-1.281 1.229-1.281 3.061 0 4.29l.014-.012z" stroke="#000" stroke-width=".5" fill="silver"/><path fill="#FFF133" d="M5.197 128.464H15.42v29.982H5.183z"/><path d="M5.197 19.276v58.588H15.42V19.276c-2.556-1.281-7.68-1.281-10.236 0h.014z" stroke="#000" stroke-width=".5" fill="#FFF133"/><path d="M5.197 81.368H15.42c1.406-1.183 1.406-3.095 0-4.278-3.754-1.28-6.482-1.148-10.236 0-1.273 1.227-1.273 3.051 0 4.278h.014z" stroke="#000" stroke-width=".5" fill="silver"/><path d="M5.197 81.368v38.54H15.42v-38.54c-2.556-1.28-7.68-1.28-10.236 0h.014z" stroke="#000" stroke-width=".5" fill="#FFF133"/><path d="M2.628 102.783h15.346c.683-.567 1.068-1.34 1.068-2.145 0-.806-.385-1.578-1.068-2.145 0 0-2.555-2.14-7.68-2.14-5.126 0-7.666 2.14-7.666 2.14-1.025 1.136-.91 2.9 0 4.29z" stroke="#000" stroke-width=".5" fill="#FFF133"/><path d="M2.628 102.783l2.555 10.707h10.236l2.555-10.707c.043-.46-2.555-2.14-7.68-2.14-5.126 0-7.493 2.092-7.666 2.14z" stroke="#000" stroke-width=".5" fill="#FFF133"/><path d="M7.738 113.48c0-3.5 0-8.56 2.556-12.849 2.555 4.29 2.555 9.36 2.555 12.848h-5.11zm7.681 0h-2.556v-4.28c0-4.28 5.111-6.424 5.111-6.424l-2.555 10.703zm-10.236 0h2.555v-4.28c0-4.28-5.11-6.424-5.11-6.424l2.555 10.703z" stroke="#000" stroke-width=".5" fill="#FFF133"/><path d="M10.294 128.464a92.596 92.596 0 0 1 2.57 21.414c.06 2.328-.848 4.6-2.57 6.43 0 0-2.556-2.14-2.556-6.43 0-2.139 0-10.707 2.556-21.402v-.012zm-5.097-14.986c0 14.986-5.11 27.844-5.11 38.551 0 8.556 7.45 8.87 10.106 8.714 2.685-.158 10.452-.145 10.35-8.726 0-10.695-5.11-23.541-5.11-38.539-2.555-2.139-7.68-2.139-10.236 0z" stroke="#000" stroke-width=".5" fill="#FFF133" fill-rule="nonzero"/><path d="M5.197 19.276v6.429c0 4.278 2.541 21.402 2.541 21.402s-2.54 17.91-2.54 22.188v6.43c0-4.278 5.11-26.467 5.11-26.467s5.125 20.05 5.125 26.467v-6.43c0-4.278-2.555-22.188-2.555-22.188s2.555-14.985 2.555-19.263v-8.568c0 4.278-5.11 25.692-5.11 25.692S5.196 23.554 5.196 19.276z" stroke="#000" stroke-width=".5" fill="silver"/></g><path stroke="#000" stroke-width=".5" fill="#FFF133" d="M64.002 116.501l4.252-4.625 12.295 11.3-4.251 4.626zm1.365 33.897c0 3.351 9.706 8.094 9.706-4.035h-9.706v4.035z"/><path d="M39.456 118.093c-40.306 0-31.01 37.435-27.529 28.27 2.578-6.726 9.734-16.141 17.823-18.284 11.022-2.919 7.32 2.143 11.323 2.143 4.031 0 .33-5.062 11.352-2.143 8.088 2.143 15.245 11.558 17.822 18.284 3.482 9.188 14.532-28.27-30.791-28.27z" stroke="#000" stroke-width=".5" fill="#FFF133"/><path d="M79.953 150.398c-.56 17.514-17.795 31.47-38.866 31.47-21.07 0-38.306-13.956-38.866-31.47v-4.035c0-6.612 9.706 28.27 38.852 28.27 29.147 0 38.88-28.43 38.88-28.27v4.035z" stroke="#000" stroke-width=".5" fill="#FFF133"/><ellipse stroke="#000" stroke-width=".5" fill="silver" transform="rotate(-47.084 7.52 121.596)" cx="7.52" cy="121.596" rx="5.027" ry="4.599"/><path stroke="#000" stroke-width=".5" fill="silver" d="M59.598 119.676l4.658-5.067 13.507 12.417-4.659 5.067z"/><path d="M16.809 150.652c0 3.351-9.706 8.093-9.706-4.035h9.706v4.035z" stroke="#000" stroke-width=".5" fill="#FFF133"/><path d="M79.953 146.363c0 17.854-17.407 32.328-38.88 32.328-21.472 0-38.88-14.474-38.88-32.328 0-17.855 17.408-32.328 38.88-32.328 21.473 0 38.88 14.473 38.88 32.328zm-14.586 0c0 3.351 6.251.684 2.577 9.803-2.209 6.134-8.081 10.88-15.52 12.54-11.021 2.895-7.32-2.144-11.35-2.144-4.004 0-.302 5.039-11.324 2.143-7.57-1.694-13.482-6.61-15.52-12.904-3.51-9.165 2.55-6.087 2.55-9.438 0-3.352-6.032-.251-2.55-9.416 2.038-6.294 7.95-11.21 15.52-12.904 11.022-2.918 7.32 2.12 11.323 2.12 4.031 0 .33-5.015 11.352-2.12 7.566 1.698 13.477 6.613 15.519 12.904 3.482 9.165-2.577 6.064-2.577 9.416z" stroke="#000" stroke-width=".5" fill="#FFF133" fill-rule="nonzero"/><path d="M11.928 146.369c-4.847 0-.456 14.384-2.16 11-3.534-6.998-3.534-15.002 0-22 1.704-3.405-2.687 11 2.16 11zm63.145.007c.214 3.813-.704 7.608-2.66 11-2.193 3.363 2.687-11-2.193-11 4.853 0 .466-14.387 2.193-10.999 1.767 3.451 2.684 7.203 2.687 11h-.027z" stroke="#000" stroke-width=".5" fill="#FFF133"/><path d="M54.317 172.399c-8.455 2.983-18.005 2.983-26.46 0-4.085-1.414 13.216 2.234 13.216-1.802 0 4.036 17.302.388 13.244 1.824v-.022zM41.073 122.15c0-4.035-17.273-.388-13.215-1.824 8.451-2.997 18.007-2.997 26.459 0 4.058 1.436-13.244-2.211-13.244 1.824z" stroke="#000" stroke-width=".5" fill="#FFF133" fill-rule="nonzero"/><path d="M18.319 119.097a46.183 46.183 0 0 0-10.623 11.425l-1.452-.79a48.46 48.46 0 0 1 11.162-12.005l.913 1.37zm56.075 43.117A46.183 46.183 0 0 1 63.77 173.64l.894 1.39a48.46 48.46 0 0 0 11.162-12.004l-1.433-.81z" stroke="#000" stroke-width=".5" fill="silver"/><path d="M76.535 167.084c-1.393 2.137-3.59 4.198-5.414 6.159-1.804 1.94-4.043 3.44-6.073 4.985l-.088-3.365a48.557 48.557 0 0 0 11.162-12.005l.43 4.242-.017-.016zm-55.77 7.892a46.248 46.248 0 0 1-11.43-10.627l-1.39.893a48.527 48.527 0 0 0 12.01 11.167l.81-1.433z" stroke="#000" stroke-width=".5" fill="silver"/><ellipse stroke="#000" stroke-width=".5" fill="silver" transform="rotate(-47.084 75.143 174.093)" cx="75.143" cy="174.093" rx="5.027" ry="4.599"/><path d="M19.56 176.038c-2.137-1.394-3.89-2.68-5.851-4.504-1.962-1.824-4.48-4.415-6.045-6.464L7.592 169a48.69 48.69 0 0 0 12.01 11.168l-.041-4.13z" stroke="#000" stroke-width=".5" fill="silver"/><path d="M20.784 174.405l-.247 3.374-.878 1.026.275-3.42.822-.98h.028zm42.91-1.414l.987.958.274 3.1-.795-.684-.466-3.374z" stroke="#000" stroke-width=".5" fill="silver" fill-rule="nonzero"/><ellipse stroke="#000" stroke-width=".5" fill="silver" transform="rotate(-47.084 10.408 175.967)" cx="10.408" cy="175.967" rx="5.027" ry="4.599"/><g fill="#FFF133" stroke="#000" stroke-width=".5"><path d="M189.158 22.945l5.864 4.8-5.864 4.8 2.916 2.386 5.863-4.8 11.76 9.626-5.863 4.8 2.915 2.386 5.863-4.8 5.897 4.8-17.624 14.426-11.727-9.6 5.864-4.826 2.948 2.413 2.915-2.413-11.727-9.6-2.948 2.414 2.948 2.386-5.863 4.8-5.864-4.8 2.916-2.386-2.916-2.413-11.76 9.599 2.949 2.413 2.915-2.413 5.896 4.827-5.896 4.8-2.915-2.414-2.949 2.413 11.76 9.6 2.916-2.414-2.916-2.386 5.864-4.8 11.727 9.6-17.59 14.398-5.897-4.8 5.896-4.799-2.981-2.386-5.83 4.8-11.76-9.627 5.896-4.8-2.948-2.386-5.864 4.8-5.863-4.8 41.077-33.624z"/><path d="M171.551 75.771v4.8l14.675 12.012v-9.599l-2.931-2.413h-5.88l-5.847-4.8zm-14.673-11.904l11.66 9.545.133 4.773-11.793-9.667v-4.65z"/><path d="M168.62 78.171l5.863-4.8v-4.8l-5.864 4.8zm-14.683-12.012l5.863-4.8v-4.8l-5.863 4.8zm5.871-9.599v4.799l2.948-2.4-2.948-2.4z"/><path d="M174.476 68.572v4.8l2.948-2.4-2.948-2.4zm-26.462-12.016l5.93 4.8v4.799l-5.93-4.949v-4.65zm35.273-4.803l5.864-4.8v-4.799l-5.864 4.8zM171.55 61.36l5.864-4.799v-4.8l-5.864 4.8zm-2.932-12.017l8.796-7.2v-4.799l-11.744 9.6 2.948 2.413z"/><path d="M177.406 37.344v4.8l2.949-2.4-2.949-2.4zm5.881 14.409l-5.863-4.786v-4.8l5.863 4.8v4.8zm14.676-2.41l-8.812-7.186v-4.8l11.743 9.6-2.931 2.413zm-8.818 2.403l11.743 9.627h5.864l2.931 2.386v9.613l-20.538-16.867V51.76z"/><path d="M177.415 80.57l17.607-14.411h5.88L183.295 80.57h-5.88zm8.811 2.414l17.608-14.412-2.932-2.4-17.607 14.399 2.931 2.4v.013z" fill-rule="nonzero"/><path d="M186.226 82.984v9.6l17.608-14.413v-9.6z"/><path d="M200.89 61.356l17.606-14.413h5.88L206.77 61.356h-5.88zm8.811 2.413l17.607-14.412-2.932-2.4-17.607 14.399 2.932 2.4v.013z" fill-rule="nonzero"/><path d="M209.701 63.77v9.598l17.607-14.412v-9.6zm-2.938-16.821l2.932-2.4v-4.8l-5.864 4.8zM192.08 34.936l2.932-2.4v-4.8l-5.863 4.8zm-14.656 31.233v-4.8l2.932 2.4-2.932 2.4zm-5.874-4.809l-5.863-4.785 2.931-2.4 2.932 2.4v4.8zm17.599-19.214l-2.932-2.4 2.932-2.4v4.8z"/></g></g><g fill="#B00" stroke="#000" stroke-width=".5"><path d="M596.409 273.257c-.579-.157-1.294.18-1.43.677-.134.496.31 1.151.89 1.309l3.184.867c.579.158 1.294-.18 1.43-.678.14-.518-.31-1.15-.89-1.308l-3.183-.866h-.001z"/><path d="M596.467 271.2c-.576-.147-1.28.207-1.407.708-.127.5.324 1.148.9 1.294l3.173.804c.576.146 1.28-.208 1.408-.71.132-.523-.324-1.147-.902-1.293l-3.17-.803h-.002zm.042-2.243c-.579-.157-1.294.18-1.43.677-.134.496.31 1.151.89 1.309l3.184.867c.579.158 1.294-.18 1.43-.678.14-.518-.31-1.15-.89-1.308l-3.183-.866h-.001z"/><path d="M596.467 266.9c-.576-.147-1.28.207-1.407.708-.127.5.324 1.148.9 1.294l3.173.804c.576.146 1.28-.208 1.408-.71.132-.523-.324-1.147-.902-1.293l-3.17-.803h-.002zm-.058 14.857c-.579-.157-1.294.18-1.43.677-.134.496.31 1.151.89 1.309l3.184.867c.579.158 1.294-.18 1.43-.678.14-.518-.31-1.15-.89-1.308l-3.183-.866h-.001z"/><path d="M596.367 279.8c-.576-.147-1.28.207-1.407.708-.127.5.324 1.148.9 1.294l3.173.804c.576.146 1.28-.208 1.408-.71.132-.523-.324-1.147-.902-1.293l-3.17-.803h-.002zm.042-2.243c-.579-.157-1.294.18-1.43.677-.134.496.31 1.151.89 1.309l3.184.867c.579.158 1.294-.18 1.43-.678.14-.518-.31-1.15-.89-1.308l-3.183-.866h-.001z"/><path d="M596.367 275.5c-.576-.147-1.28.207-1.407.708-.127.5.324 1.148.9 1.294l3.173.804c.576.146 1.28-.208 1.408-.71.132-.523-.324-1.147-.902-1.293l-3.17-.803h-.002zm.342-19.443c-.579-.157-1.294.18-1.43.677-.134.496.31 1.151.89 1.309l3.184.867c.579.158 1.294-.18 1.43-.678.14-.518-.31-1.15-.89-1.308l-3.183-.866h-.001z"/><path d="M596.667 254.1c-.576-.147-1.28.207-1.407.708-.127.5.324 1.148.9 1.294l3.173.804c.576.146 1.28-.208 1.408-.71.132-.523-.324-1.147-.902-1.293l-3.17-.803h-.002zm.042-2.243c-.579-.157-1.294.18-1.43.677-.134.496.31 1.151.89 1.309l3.184.867c.579.158 1.294-.18 1.43-.678.14-.518-.31-1.15-.89-1.308l-3.183-.866h-.001z"/><path d="M596.667 249.8c-.576-.147-1.28.207-1.407.708-.127.5.324 1.148.9 1.294l3.173.804c.576.146 1.28-.208 1.408-.71.132-.523-.324-1.147-.902-1.293l-3.17-.803h-.002zm-.058 14.857c-.579-.157-1.294.18-1.43.677-.134.496.31 1.151.89 1.309l3.184.867c.579.158 1.294-.18 1.43-.678.14-.518-.31-1.15-.89-1.308l-3.183-.866h-.001z"/><path d="M596.567 262.6c-.576-.147-1.28.207-1.407.708-.127.5.324 1.148.9 1.294l3.173.804c.576.146 1.28-.208 1.408-.71.132-.523-.324-1.147-.902-1.293l-3.17-.803h-.002zm.042-2.243c-.579-.157-1.294.18-1.43.677-.134.496.31 1.151.89 1.309l3.184.867c.579.158 1.294-.18 1.43-.678.14-.518-.31-1.15-.89-1.308l-3.183-.866h-.001z"/><path d="M596.567 258.3c-.576-.147-1.28.207-1.407.708-.127.5.324 1.148.9 1.294l3.173.804c.576.146 1.28-.208 1.408-.71.132-.523-.324-1.147-.902-1.293l-3.17-.803h-.002zm-.458 49.157c-.579-.157-1.294.18-1.43.677-.134.496.31 1.151.89 1.309l3.184.867c.579.158 1.294-.18 1.43-.678.14-.518-.31-1.15-.89-1.308l-3.183-.866h-.001z"/><path d="M596.167 305.4c-.576-.147-1.28.207-1.407.708-.127.5.324 1.148.9 1.294l3.173.804c.576.146 1.28-.208 1.408-.71.132-.523-.324-1.147-.902-1.293l-3.17-.803h-.002z"/><path d="M596.209 303.257c-.579-.157-1.294.18-1.43.677-.134.496.31 1.151.89 1.309l3.184.867c.579.158 1.294-.18 1.43-.678.14-.518-.31-1.15-.89-1.308l-3.183-.866h-.001z"/><path d="M596.167 301.2c-.576-.147-1.28.207-1.407.708-.127.5.324 1.148.9 1.294l3.173.804c.576.146 1.28-.208 1.408-.71.132-.523-.324-1.147-.902-1.293l-3.17-.803h-.002zm-.158 14.857c-.579-.157-1.294.18-1.43.677-.134.496.31 1.151.89 1.309l3.184.867c.579.158 1.294-.18 1.43-.678.14-.518-.31-1.15-.89-1.308l-3.183-.866h-.001z"/><path d="M596.067 314c-.576-.147-1.28.207-1.407.708-.127.5.324 1.148.9 1.294l3.173.804c.576.146 1.28-.208 1.408-.71.132-.523-.324-1.147-.902-1.293l-3.17-.803h-.002zm.042-2.243c-.579-.157-1.294.18-1.43.677-.134.496.31 1.151.89 1.309l3.184.867c.579.158 1.294-.18 1.43-.678.14-.518-.31-1.15-.89-1.308l-3.183-.866h-.001z"/><path d="M596.067 309.8c-.576-.147-1.28.207-1.407.708-.127.5.324 1.148.9 1.294l3.173.804c.576.146 1.28-.208 1.408-.71.132-.523-.324-1.147-.902-1.293l-3.17-.803h-.002zm.242-19.443c-.579-.157-1.294.18-1.43.677-.134.496.31 1.151.89 1.309l3.184.867c.579.158 1.294-.18 1.43-.678.14-.518-.31-1.15-.89-1.308l-3.183-.866h-.001z"/><path d="M596.367 288.3c-.576-.147-1.28.207-1.407.708-.127.5.324 1.148.9 1.294l3.173.804c.576.146 1.28-.208 1.408-.71.132-.523-.324-1.147-.902-1.293l-3.17-.803h-.002zm.042-2.243c-.579-.157-1.294.18-1.43.677-.134.496.31 1.151.89 1.309l3.184.867c.579.158 1.294-.18 1.43-.678.14-.518-.31-1.15-.89-1.308l-3.183-.866h-.001z"/><path d="M596.367 284c-.576-.147-1.28.207-1.407.708-.127.5.324 1.148.9 1.294l3.173.804c.576.146 1.28-.208 1.408-.71.132-.523-.324-1.147-.902-1.293l-3.17-.803h-.002zm-.158 14.957c-.579-.157-1.294.18-1.43.677-.134.496.31 1.151.89 1.309l3.184.867c.579.158 1.294-.18 1.43-.678.14-.518-.31-1.15-.89-1.308l-3.183-.866h-.001zm-.042-2.157c-.576-.147-1.28.207-1.407.708-.127.5.324 1.148.9 1.294l3.173.804c.576.146 1.28-.208 1.408-.71.132-.523-.324-1.147-.902-1.293l-3.17-.803h-.002z"/><path d="M596.309 294.657c-.579-.157-1.294.18-1.43.677-.134.496.31 1.151.89 1.309l3.184.867c.579.158 1.294-.18 1.43-.678.14-.518-.31-1.15-.89-1.308l-3.183-.866h-.001z"/><path d="M596.267 292.6c-.576-.147-1.28.207-1.407.708-.127.5.324 1.148.9 1.294l3.173.804c.576.146 1.28-.208 1.408-.71.132-.523-.324-1.147-.902-1.293l-3.17-.803h-.002zm-.458 49.157c-.579-.157-1.294.18-1.43.677-.134.496.31 1.151.89 1.309l3.184.867c.579.158 1.294-.18 1.43-.678.14-.518-.31-1.15-.89-1.308l-3.183-.866h-.001z"/><path d="M595.767 339.7c-.576-.147-1.28.207-1.407.708-.127.5.324 1.148.9 1.294l3.173.804c.576.146 1.28-.208 1.408-.71.132-.523-.324-1.147-.902-1.293l-3.17-.803h-.002zm.042-2.243c-.579-.157-1.294.18-1.43.677-.134.496.31 1.151.89 1.309l3.184.867c.579.158 1.294-.18 1.43-.678.14-.518-.31-1.15-.89-1.308l-3.183-.866h-.001z"/><path d="M595.767 335.4c-.576-.147-1.28.207-1.407.708-.127.5.324 1.148.9 1.294l3.173.804c.576.146 1.28-.208 1.408-.71.132-.523-.324-1.147-.902-1.293l-3.17-.803h-.002zm-.1 12.8c-.576-.147-1.28.207-1.407.708-.127.5.324 1.148.9 1.294l3.173.804c.576.146 1.28-.208 1.408-.71.132-.523-.324-1.147-.902-1.293l-3.17-.803h-.002zm.042-2.243c-.579-.157-1.294.18-1.43.677-.134.496.31 1.151.89 1.309l3.184.867c.579.158 1.294-.18 1.43-.678.14-.518-.31-1.15-.89-1.308l-3.183-.866h-.001z"/><path d="M595.767 344c-.576-.147-1.28.207-1.407.708-.127.5.324 1.148.9 1.294l3.173.804c.576.146 1.28-.208 1.408-.71.132-.523-.324-1.147-.902-1.293l-3.17-.803h-.002zm.142-19.343c-.579-.157-1.294.18-1.43.677-.134.496.31 1.151.89 1.309l3.184.867c.579.158 1.294-.18 1.43-.678.14-.518-.31-1.15-.89-1.308l-3.183-.866h-.001z"/><path d="M595.967 322.6c-.576-.147-1.28.207-1.407.708-.127.5.324 1.148.9 1.294l3.173.804c.576.146 1.28-.208 1.408-.71.132-.523-.324-1.147-.902-1.293l-3.17-.803h-.002zm.042-2.243c-.579-.157-1.294.18-1.43.677-.134.496.31 1.151.89 1.309l3.184.867c.579.158 1.294-.18 1.43-.678.14-.518-.31-1.15-.89-1.308l-3.183-.866h-.001z"/><path d="M595.967 318.3c-.576-.147-1.28.207-1.407.708-.127.5.324 1.148.9 1.294l3.173.804c.576.146 1.28-.208 1.408-.71.132-.523-.324-1.147-.902-1.293l-3.17-.803h-.002zm-.158 14.857c-.579-.157-1.294.18-1.43.677-.134.496.31 1.151.89 1.309l3.184.867c.579.158 1.294-.18 1.43-.678.14-.518-.31-1.15-.89-1.308l-3.183-.866h-.001z"/><path d="M595.867 331.1c-.576-.147-1.28.207-1.407.708-.127.5.324 1.148.9 1.294l3.173.804c.576.146 1.28-.208 1.408-.71.132-.523-.324-1.147-.902-1.293l-3.17-.803h-.002z"/><path d="M595.909 328.957c-.579-.157-1.294.18-1.43.677-.134.496.31 1.151.89 1.309l3.184.867c.579.158 1.294-.18 1.43-.678.14-.518-.31-1.15-.89-1.308l-3.183-.866h-.001zm-.042-2.157c-.576-.147-1.28.207-1.407.708-.127.5.324 1.148.9 1.294l3.173.804c.576.146 1.28-.208 1.408-.71.132-.523-.324-1.147-.902-1.293l-3.17-.803h-.002zm-.358 36.457c-.579-.157-1.294.18-1.43.677-.134.496.31 1.151.89 1.309l3.184.867c.579.158 1.294-.18 1.43-.678.14-.518-.31-1.15-.89-1.308l-3.183-.866h-.001z"/><path d="M595.567 361.2c-.576-.147-1.28.207-1.407.708-.127.5.324 1.148.9 1.294l3.173.804c.576.146 1.28-.208 1.408-.71.132-.523-.324-1.147-.902-1.293l-3.17-.803h-.002zm.042-2.243c-.579-.157-1.294.18-1.43.677-.134.496.31 1.151.89 1.309l3.184.867c.579.158 1.294-.18 1.43-.678.14-.518-.31-1.15-.89-1.308l-3.183-.866h-.001z"/><path d="M595.567 356.9c-.576-.147-1.28.207-1.407.708-.127.5.324 1.148.9 1.294l3.173.804c.576.146 1.28-.208 1.408-.71.132-.523-.324-1.147-.902-1.293l-3.17-.803h-.002zm-.2 12.9c-.576-.147-1.28.207-1.407.708-.127.5.324 1.148.9 1.294l3.173.804c.576.146 1.28-.208 1.408-.71.132-.523-.324-1.147-.902-1.293l-3.17-.803h-.002zm.142-2.243c-.579-.157-1.294.18-1.43.677-.134.496.31 1.151.89 1.309l3.184.867c.579.158 1.294-.18 1.43-.678.14-.518-.31-1.15-.89-1.308l-3.183-.866h-.001z"/><path d="M595.467 365.5c-.576-.147-1.28.207-1.407.708-.127.5.324 1.148.9 1.294l3.173.804c.576.146 1.28-.208 1.408-.71.132-.523-.324-1.147-.902-1.293l-3.17-.803h-.002zm.142-10.743c-.579-.157-1.294.18-1.43.677-.134.496.31 1.151.89 1.309l3.184.867c.579.158 1.294-.18 1.43-.678.14-.518-.31-1.15-.89-1.308l-3.183-.866h-.001zm.058-2.157c-.576-.147-1.28.207-1.407.708-.127.5.324 1.148.9 1.294l3.173.804c.576.146 1.28-.208 1.408-.71.132-.523-.324-1.147-.902-1.293l-3.17-.803h-.002z"/><path d="M595.709 350.457c-.579-.157-1.294.18-1.43.677-.134.496.31 1.151.89 1.309l3.184.867c.579.158 1.294-.18 1.43-.678.14-.518-.31-1.15-.89-1.308l-3.183-.866h-.001z"/></g><g fill="#B00" stroke="#000" stroke-width=".5"><path d="M599.348 273.527c-.583-.15-1.293.2-1.42.697-.128.497.329 1.146.91 1.294l3.206.82c.582.148 1.293-.2 1.42-.7.133-.52-.33-1.144-.913-1.293l-3.202-.818h-.001zm-.038-2.163c-.58-.137-1.28.227-1.4.729-.118.501.343 1.143.922 1.28l3.19.758c.578.138 1.279-.226 1.398-.73.125-.524-.342-1.141-.923-1.28l-3.186-.756h-.001z"/><path d="M599.348 269.227c-.583-.15-1.293.2-1.42.697-.128.497.329 1.146.91 1.294l3.206.82c.582.148 1.293-.2 1.42-.7.133-.52-.33-1.144-.913-1.293l-3.202-.818h-.001z"/><path d="M599.31 267.164c-.58-.137-1.28.227-1.4.729-.118.501.343 1.143.922 1.28l3.19.758c.578.138 1.279-.226 1.398-.73.125-.524-.342-1.141-.923-1.28l-3.186-.756h-.001zm.038 14.863c-.583-.15-1.293.2-1.42.697-.128.497.329 1.146.91 1.294l3.206.82c.582.148 1.293-.2 1.42-.7.133-.52-.33-1.144-.913-1.293l-3.202-.818h-.001z"/><path d="M599.31 279.964c-.58-.137-1.28.227-1.4.729-.118.501.343 1.143.922 1.28l3.19.758c.578.138 1.279-.226 1.398-.73.125-.524-.342-1.141-.923-1.28l-3.186-.756h-.001zm.038-2.237c-.583-.15-1.293.2-1.42.697-.128.497.329 1.146.91 1.294l3.206.82c.582.148 1.293-.2 1.42-.7.133-.52-.33-1.144-.913-1.293l-3.202-.818h-.001z"/><path d="M599.31 275.764c-.58-.137-1.28.227-1.4.729-.118.501.343 1.143.922 1.28l3.19.758c.578.138 1.279-.226 1.398-.73.125-.524-.342-1.141-.923-1.28l-3.186-.756h-.001zm.038-19.437c-.583-.15-1.293.2-1.42.697-.128.497.329 1.146.91 1.294l3.206.82c.582.148 1.293-.2 1.42-.7.133-.52-.33-1.144-.913-1.293l-3.202-.818h-.001z"/><path d="M599.31 254.264c-.58-.137-1.28.227-1.4.729-.118.501.343 1.143.922 1.28l3.19.758c.578.138 1.279-.226 1.398-.73.125-.524-.342-1.141-.923-1.28l-3.186-.756h-.001zm.038-2.237c-.583-.15-1.293.2-1.42.697-.128.497.329 1.146.91 1.294l3.206.82c.582.148 1.293-.2 1.42-.7.133-.52-.33-1.144-.913-1.293l-3.202-.818h-.001z"/><path d="M599.31 249.964c-.58-.137-1.28.227-1.4.729-.118.501.343 1.143.922 1.28l3.19.758c.578.138 1.279-.226 1.398-.73.125-.524-.342-1.141-.923-1.28l-3.186-.756h-.001zm.038 14.963c-.583-.15-1.293.2-1.42.697-.128.497.329 1.146.91 1.294l3.206.82c.582.148 1.293-.2 1.42-.7.133-.52-.33-1.144-.913-1.293l-3.202-.818h-.001zm-.038-2.163c-.58-.137-1.28.227-1.4.729-.118.501.343 1.143.922 1.28l3.19.758c.578.138 1.279-.226 1.398-.73.125-.524-.342-1.141-.923-1.28l-3.186-.756h-.001z"/><path d="M599.348 260.627c-.583-.15-1.293.2-1.42.697-.128.497.329 1.146.91 1.294l3.206.82c.582.148 1.293-.2 1.42-.7.133-.52-.33-1.144-.913-1.293l-3.202-.818h-.001z"/><path d="M599.31 258.564c-.58-.137-1.28.227-1.4.729-.118.501.343 1.143.922 1.28l3.19.758c.578.138 1.279-.226 1.398-.73.125-.524-.342-1.141-.923-1.28l-3.186-.756h-.001zm.138 49.163c-.583-.15-1.293.2-1.42.697-.128.497.329 1.146.91 1.294l3.206.82c.582.148 1.293-.2 1.42-.7.133-.52-.33-1.144-.913-1.293l-3.202-.818h-.001z"/><path d="M599.41 305.764c-.58-.137-1.28.227-1.4.729-.118.501.343 1.143.922 1.28l3.19.758c.578.138 1.279-.226 1.398-.73.125-.524-.342-1.141-.923-1.28l-3.186-.756h-.001zm.038-2.337c-.583-.15-1.293.2-1.42.697-.128.497.329 1.146.91 1.294l3.206.82c.582.148 1.293-.2 1.42-.7.133-.52-.33-1.144-.913-1.293l-3.202-.818h-.001z"/><path d="M599.41 301.364c-.58-.137-1.28.227-1.4.729-.118.501.343 1.143.922 1.28l3.19.758c.578.138 1.279-.226 1.398-.73.125-.524-.342-1.141-.923-1.28l-3.186-.756h-.001zm.038 14.963c-.583-.15-1.293.2-1.42.697-.128.497.329 1.146.91 1.294l3.206.82c.582.148 1.293-.2 1.42-.7.133-.52-.33-1.144-.913-1.293l-3.202-.818h-.001z"/><path d="M599.41 314.264c-.58-.137-1.28.227-1.4.729-.118.501.343 1.143.922 1.28l3.19.758c.578.138 1.279-.226 1.398-.73.125-.524-.342-1.141-.923-1.28l-3.186-.756h-.001zm.038-2.237c-.583-.15-1.293.2-1.42.697-.128.497.329 1.146.91 1.294l3.206.82c.582.148 1.293-.2 1.42-.7.133-.52-.33-1.144-.913-1.293l-3.202-.818h-.001z"/><path d="M599.41 309.964c-.58-.137-1.28.227-1.4.729-.118.501.343 1.143.922 1.28l3.19.758c.578.138 1.279-.226 1.398-.73.125-.524-.342-1.141-.923-1.28l-3.186-.756h-.001zm-.062-19.337c-.583-.15-1.293.2-1.42.697-.128.497.329 1.146.91 1.294l3.206.82c.582.148 1.293-.2 1.42-.7.133-.52-.33-1.144-.913-1.293l-3.202-.818h-.001z"/><path d="M599.31 288.564c-.58-.137-1.28.227-1.4.729-.118.501.343 1.143.922 1.28l3.19.758c.578.138 1.279-.226 1.398-.73.125-.524-.342-1.141-.923-1.28l-3.186-.756h-.001zm.038-2.237c-.583-.15-1.293.2-1.42.697-.128.497.329 1.146.91 1.294l3.206.82c.582.148 1.293-.2 1.42-.7.133-.52-.33-1.144-.913-1.293l-3.202-.818h-.001z"/><path d="M599.31 284.264c-.58-.137-1.28.227-1.4.729-.118.501.343 1.143.922 1.28l3.19.758c.578.138 1.279-.226 1.398-.73.125-.524-.342-1.141-.923-1.28l-3.186-.756h-.001zm.038 14.963c-.583-.15-1.293.2-1.42.697-.128.497.329 1.146.91 1.294l3.206.82c.582.148 1.293-.2 1.42-.7.133-.52-.33-1.144-.913-1.293l-3.202-.818h-.001z"/><path d="M599.41 297.164c-.58-.137-1.28.227-1.4.729-.118.501.343 1.143.922 1.28l3.19.758c.578.138 1.279-.226 1.398-.73.125-.524-.342-1.141-.923-1.28l-3.186-.756h-.001zm-.062-2.237c-.583-.15-1.293.2-1.42.697-.128.497.329 1.146.91 1.294l3.206.82c.582.148 1.293-.2 1.42-.7.133-.52-.33-1.144-.913-1.293l-3.202-.818h-.001zm-.038-2.163c-.58-.137-1.28.227-1.4.729-.118.501.343 1.143.922 1.28l3.19.758c.578.138 1.279-.226 1.398-.73.125-.524-.342-1.141-.923-1.28l-3.186-.756h-.001zm.238 49.163c-.583-.15-1.293.2-1.42.697-.128.497.329 1.146.91 1.294l3.206.82c.582.148 1.293-.2 1.42-.7.133-.52-.33-1.144-.913-1.293l-3.202-.818h-.001z"/><path d="M599.51 339.964c-.58-.137-1.28.227-1.4.729-.118.501.343 1.143.922 1.28l3.19.758c.578.138 1.279-.226 1.398-.73.125-.524-.342-1.141-.923-1.28l-3.186-.756h-.001zm.038-2.237c-.583-.15-1.293.2-1.42.697-.128.497.329 1.146.91 1.294l3.206.82c.582.148 1.293-.2 1.42-.7.133-.52-.33-1.144-.913-1.293l-3.202-.818h-.001z"/><path d="M599.51 335.664c-.58-.137-1.28.227-1.4.729-.118.501.343 1.143.922 1.28l3.19.758c.578.138 1.279-.226 1.398-.73.125-.524-.342-1.141-.923-1.28l-3.186-.756h-.001zm.1 12.8c-.58-.137-1.28.227-1.4.729-.118.501.343 1.143.922 1.28l3.19.758c.578.138 1.279-.226 1.398-.73.125-.524-.342-1.141-.923-1.28l-3.186-.756h-.001z"/><path d="M599.548 346.327c-.583-.15-1.293.2-1.42.697-.128.497.329 1.146.91 1.294l3.206.82c.582.148 1.293-.2 1.42-.7.133-.52-.33-1.144-.913-1.293l-3.202-.818h-.001zm.062-2.163c-.58-.137-1.28.227-1.4.729-.118.501.343 1.143.922 1.28l3.19.758c.578.138 1.279-.226 1.398-.73.125-.524-.342-1.141-.923-1.28l-3.186-.756h-.001zm-.062-19.237c-.583-.15-1.293.2-1.42.697-.128.497.329 1.146.91 1.294l3.206.82c.582.148 1.293-.2 1.42-.7.133-.52-.33-1.144-.913-1.293l-3.202-.818h-.001zm-.038-2.163c-.58-.137-1.28.227-1.4.729-.118.501.343 1.143.922 1.28l3.19.758c.578.138 1.279-.226 1.398-.73.125-.524-.342-1.141-.923-1.28l-3.186-.756h-.001z"/><path d="M599.448 320.627c-.583-.15-1.293.2-1.42.697-.128.497.329 1.146.91 1.294l3.206.82c.582.148 1.293-.2 1.42-.7.133-.52-.33-1.144-.913-1.293l-3.202-.818h-.001z"/><path d="M599.51 318.564c-.58-.137-1.28.227-1.4.729-.118.501.343 1.143.922 1.28l3.19.758c.578.138 1.279-.226 1.398-.73.125-.524-.342-1.141-.923-1.28l-3.186-.756h-.001zm.038 14.863c-.583-.15-1.293.2-1.42.697-.128.497.329 1.146.91 1.294l3.206.82c.582.148 1.293-.2 1.42-.7.133-.52-.33-1.144-.913-1.293l-3.202-.818h-.001z"/><path d="M599.51 331.364c-.58-.137-1.28.227-1.4.729-.118.501.343 1.143.922 1.28l3.19.758c.578.138 1.279-.226 1.398-.73.125-.524-.342-1.141-.923-1.28l-3.186-.756h-.001zm.038-2.237c-.583-.15-1.293.2-1.42.697-.128.497.329 1.146.91 1.294l3.206.82c.582.148 1.293-.2 1.42-.7.133-.52-.33-1.144-.913-1.293l-3.202-.818h-.001z"/><path d="M599.51 327.064c-.58-.137-1.28.227-1.4.729-.118.501.343 1.143.922 1.28l3.19.758c.578.138 1.279-.226 1.398-.73.125-.524-.342-1.141-.923-1.28l-3.186-.756h-.001zm.138 36.463c-.583-.15-1.293.2-1.42.697-.128.497.329 1.146.91 1.294l3.206.82c.582.148 1.293-.2 1.42-.7.133-.52-.33-1.144-.913-1.293l-3.202-.818h-.001z"/><path d="M599.61 361.464c-.58-.137-1.28.227-1.4.729-.118.501.343 1.143.922 1.28l3.19.758c.578.138 1.279-.226 1.398-.73.125-.524-.342-1.141-.923-1.28l-3.186-.756h-.001zm.038-2.237c-.583-.15-1.293.2-1.42.697-.128.497.329 1.146.91 1.294l3.206.82c.582.148 1.293-.2 1.42-.7.133-.52-.33-1.144-.913-1.293l-3.202-.818h-.001z"/><path d="M599.61 357.164c-.58-.137-1.28.227-1.4.729-.118.501.343 1.143.922 1.28l3.19.758c.578.138 1.279-.226 1.398-.73.125-.524-.342-1.141-.923-1.28l-3.186-.756h-.001zm0 12.9c-.58-.137-1.28.227-1.4.729-.118.501.343 1.143.922 1.28l3.19.758c.578.138 1.279-.226 1.398-.73.125-.524-.342-1.141-.923-1.28l-3.186-.756h-.001zm.038-2.237c-.583-.15-1.293.2-1.42.697-.128.497.329 1.146.91 1.294l3.206.82c.582.148 1.293-.2 1.42-.7.133-.52-.33-1.144-.913-1.293l-3.202-.818h-.001z"/><path d="M599.61 365.764c-.58-.137-1.28.227-1.4.729-.118.501.343 1.143.922 1.28l3.19.758c.578.138 1.279-.226 1.398-.73.125-.524-.342-1.141-.923-1.28l-3.186-.756h-.001zm.038-10.837c-.583-.15-1.293.2-1.42.697-.128.497.329 1.146.91 1.294l3.206.82c.582.148 1.293-.2 1.42-.7.133-.52-.33-1.144-.913-1.293l-3.202-.818h-.001z"/><path d="M599.61 352.864c-.58-.137-1.28.227-1.4.729-.118.501.343 1.143.922 1.28l3.19.758c.578.138 1.279-.226 1.398-.73.125-.524-.342-1.141-.923-1.28l-3.186-.756h-.001z"/><path d="M599.648 350.727c-.583-.15-1.293.2-1.42.697-.128.497.329 1.146.91 1.294l3.206.82c.582.148 1.293-.2 1.42-.7.133-.52-.33-1.144-.913-1.293l-3.202-.818h-.001z"/></g><g fill="#B00" stroke="#000" stroke-width=".5"><path d="M609.339 259.656c-.648.119-1.204.742-1.112 1.247.093.504.835.891 1.482.773l3.564-.655c.648-.118 1.204-.742 1.112-1.248-.097-.527-.835-.89-1.484-.77l-3.56.652h-.002z"/><path d="M610.338 259.75c-.201-.504-.95-.792-1.496-.574-.548.218-.895.942-.694 1.446l1.104 2.775c.2.504.95.792 1.498.573.572-.227.893-.94.692-1.446l-1.104-2.773v-.001z"/><path d="M609.942 259.451c-.528-.289-1.311-.115-1.564.348-.253.463.023 1.217.552 1.506l2.91 1.59c.528.288 1.31.115 1.565-.35.264-.484-.024-1.216-.554-1.505l-2.907-1.588h-.002z"/><path d="M608.083 261.225c.326-.482.124-1.323-.406-1.68-.529-.358-1.386-.233-1.712.25l-1.794 2.655c-.325.482-.123 1.324.408 1.682.553.374 1.385.231 1.712-.252l1.792-2.653v-.002z"/><path d="M610.697 261.195c.311-.478.085-1.307-.453-1.658-.539-.35-1.391-.223-1.702.255l-1.713 2.63c-.311.479-.085 1.308.455 1.66.563.366 1.39.222 1.701-.257l1.711-2.628.001-.002zm-13.312.056c.338-.479.158-1.327-.363-1.695-.52-.368-1.382-.256-1.72.223l-1.865 2.639c-.339.479-.158 1.327.364 1.696.544.384 1.38.255 1.72-.226l1.863-2.635v-.002z"/><path d="M599.993 261.326c.325-.474.121-1.312-.408-1.674-.529-.362-1.385-.249-1.71.226l-1.787 2.613c-.325.475-.121 1.313.41 1.676.553.378 1.383.247 1.709-.229l1.785-2.61.001-.002z"/><path d="M602.785 261.351c.338-.479.158-1.327-.363-1.695-.52-.368-1.382-.256-1.72.223l-1.865 2.639c-.339.479-.158 1.327.364 1.696.544.384 1.38.255 1.72-.226l1.863-2.635v-.002z"/><path d="M605.297 261.295c.311-.478.085-1.307-.453-1.658-.539-.35-1.391-.223-1.702.255l-1.713 2.63c-.311.479-.085 1.308.455 1.66.563.366 1.39.222 1.701-.257l1.711-2.628.001-.002zm-11.412-.944c.338-.479.158-1.327-.363-1.695-.52-.368-1.382-.256-1.72.223l-1.865 2.639c-.339.479-.158 1.327.364 1.696.544.384 1.38.255 1.72-.226l1.863-2.635v-.002z"/><path d="M595.099 261.102c.364-.465.232-1.323-.267-1.714-.498-.39-1.364-.317-1.729.149l-2.01 2.56c-.364.466-.232 1.323.268 1.715.521.41 1.363.316 1.73-.15l2.006-2.558.002-.002zm-3.121-.975c.47-.437.533-1.314.125-1.752-.407-.438-1.288-.438-1.758 0l-2.588 2.41c-.47.438-.534 1.315-.125 1.754.427.458 1.287.437 1.759-.002l2.585-2.408.002-.002z"/></g><g fill="#B00" stroke="#000" stroke-width=".5"><path d="M644.156 349.238c.412.438.398 1.28-.03 1.683-.428.403-1.27.369-1.683-.07l-2.271-2.41c-.413-.437-.399-1.28.03-1.684.448-.421 1.27-.367 1.683.072l2.27 2.408v.001z"/><path d="M646.45 348.604c.4.434.368 1.271-.067 1.672-.434.401-1.272.368-1.673-.067l-2.206-2.392c-.401-.434-.368-1.27.067-1.673.455-.42 1.272-.366 1.674.07l2.204 2.389h.001z"/><path d="M649.056 348.038c.412.438.398 1.28-.03 1.683-.428.403-1.27.369-1.683-.07l-2.271-2.41c-.413-.437-.399-1.28.03-1.684.448-.421 1.27-.367 1.683.072l2.27 2.408v.001z"/><path d="M651.45 347.304c.4.434.368 1.271-.067 1.672-.434.401-1.272.368-1.673-.067l-2.206-2.392c-.401-.434-.368-1.27.067-1.673.455-.42 1.272-.366 1.674.07l2.204 2.389h.001zm10.646-6.944c.6.169 1.061.837.921 1.336-.14.499-.881.83-1.481.662l-3.303-.925c-.6-.169-1.062-.836-.922-1.337.146-.521.882-.83 1.483-.66l3.3.924h.002z"/><path d="M660.415 336.1c.476-.324 1.252-.212 1.55.225.297.437.118 1.2-.358 1.525l-2.622 1.786c-.476.324-1.251.213-1.55-.225-.311-.457-.118-1.2.36-1.525l2.619-1.784.001-.001z"/><path d="M663.091 338.306c.609.164 1.085.825.952 1.323-.134.498-.88.833-1.488.669l-3.352-.902c-.608-.164-1.085-.826-.95-1.325.14-.52.878-.831 1.488-.667l3.348.901h.002zm-28.514 13.199c.388.448.328 1.287-.121 1.675-.45.39-1.29.33-1.677-.12l-2.136-2.468c-.388-.449-.328-1.287.123-1.677.47-.406 1.287-.328 1.676.122l2.134 2.467h.001z"/><path d="M636.972 350.989c.376.445.296 1.277-.16 1.663-.457.385-1.292.326-1.668-.12l-2.07-2.45c-.377-.445-.297-1.277.16-1.664.478-.403 1.29-.325 1.668.121l2.069 2.448v.002z"/><path d="M639.436 350.179c.422.433.427 1.276.008 1.684-.419.409-1.262.384-1.685-.049l-2.326-2.384c-.423-.433-.428-1.276-.008-1.686.438-.427 1.262-.383 1.686.051l2.323 2.382.002.002z"/><path d="M641.546 349.903c.362.45.257 1.278-.211 1.655-.468.377-1.301.303-1.663-.147l-1.996-2.48c-.362-.45-.257-1.279.212-1.657.49-.393 1.3-.301 1.663.15l1.993 2.477.002.002zm12.31-3.265c.412.438.398 1.28-.03 1.683-.428.403-1.27.369-1.683-.07l-2.271-2.41c-.413-.437-.399-1.28.03-1.684.448-.421 1.27-.367 1.683.072l2.27 2.408v.001z"/><path d="M656.25 346.004c.4.434.368 1.271-.067 1.672-.434.401-1.272.368-1.673-.067l-2.206-2.392c-.401-.434-.368-1.27.067-1.673.455-.42 1.272-.366 1.674.07l2.204 2.389h.001zm-52.617 7.775c.324.471.151 1.287-.347 1.63-.498.343-1.324.215-1.648-.256l-1.787-2.595c-.325-.47-.152-1.287.348-1.63.521-.36 1.322-.215 1.648.258l1.785 2.591v.002z"/><path d="M606.129 353.8c.311.468.117 1.274-.39 1.612-.507.337-1.327.206-1.638-.262l-1.713-2.576c-.312-.467-.117-1.274.391-1.612.53-.352 1.326-.205 1.638.264l1.711 2.573.001.001z"/><path d="M608.733 353.779c.324.471.151 1.287-.347 1.63-.498.343-1.324.215-1.648-.256l-1.787-2.595c-.325-.47-.152-1.287.348-1.63.521-.36 1.322-.215 1.648.258l1.785 2.591v.002z"/><path d="M611.229 353.8c.311.468.117 1.274-.39 1.612-.507.337-1.327.206-1.638-.262l-1.713-2.576c-.312-.467-.117-1.274.391-1.612.53-.352 1.326-.205 1.638.264l1.711 2.573.001.001zm-17.796.279c.324.471.151 1.287-.347 1.63-.498.343-1.324.215-1.648-.256l-1.787-2.595c-.325-.47-.152-1.287.348-1.63.521-.36 1.322-.215 1.648.258l1.785 2.591v.002z"/><path d="M595.929 354c.311.468.117 1.274-.39 1.612-.507.337-1.327.206-1.638-.262l-1.713-2.576c-.312-.467-.117-1.274.391-1.612.53-.352 1.326-.205 1.638.264l1.711 2.573.001.001z"/><path d="M598.533 353.979c.324.471.151 1.287-.347 1.63-.498.343-1.324.215-1.648-.256l-1.787-2.595c-.325-.47-.152-1.287.348-1.63.521-.36 1.322-.215 1.648.258l1.785 2.591v.002z"/><path d="M601.029 353.9c.311.468.117 1.274-.39 1.612-.507.337-1.327.206-1.638-.262l-1.713-2.576c-.312-.467-.117-1.274.391-1.612.53-.352 1.326-.205 1.638.264l1.711 2.573.001.001zm23.302-.857c.36.459.248 1.29-.224 1.66-.473.37-1.307.28-1.667-.18l-1.98-2.528c-.36-.46-.248-1.29.225-1.661.494-.387 1.306-.28 1.667.181l1.978 2.526.001.002z"/><path d="M626.848 352.652c.357.452.242 1.278-.23 1.65-.472.374-1.304.294-1.66-.158l-1.965-2.49c-.357-.452-.242-1.278.231-1.652.494-.39 1.303-.292 1.66.161l1.963 2.487.001.002z"/><path d="M629.45 352.358c.37.456.275 1.29-.19 1.666-.465.377-1.302.297-1.671-.159l-2.034-2.51c-.369-.455-.274-1.29.192-1.667.486-.394 1.3-.296 1.67.161l2.032 2.507v.002z"/><path d="M631.972 351.989c.376.445.296 1.277-.16 1.663-.457.385-1.292.326-1.668-.12l-2.07-2.45c-.377-.445-.297-1.277.16-1.664.478-.403 1.29-.325 1.668.121l2.069 2.448v.002zm-18.039 1.69c.324.471.151 1.287-.347 1.63-.498.343-1.324.215-1.648-.256l-1.787-2.595c-.325-.47-.152-1.287.348-1.63.521-.36 1.322-.215 1.648.258l1.785 2.591v.002z"/><path d="M616.386 353.481c.332.461.174 1.278-.317 1.633-.492.354-1.318.248-1.65-.213l-1.831-2.537c-.333-.46-.175-1.277.318-1.633.514-.37 1.316-.247 1.65.215l1.829 2.534v.001z"/><path d="M619.103 353.224c.361.458.252 1.29-.22 1.66-.47.372-1.305.284-1.667-.175l-1.988-2.525c-.361-.459-.252-1.29.22-1.662.493-.388 1.305-.283 1.667.177l1.987 2.523.001.002z"/><path d="M621.477 353.038c.327.463.16 1.277-.336 1.627-.496.35-1.32.237-1.647-.225l-1.801-2.548c-.327-.463-.16-1.277.337-1.628.518-.366 1.319-.236 1.647.228l1.799 2.545v.001zm-58.96-.353c.258.491-.022 1.267-.561 1.55-.54.284-1.339.075-1.597-.416l-1.422-2.705c-.258-.491.022-1.267.562-1.552.564-.296 1.338-.074 1.597.42l1.42 2.701v.002z"/><path d="M565.001 352.95c.243.488-.06 1.25-.608 1.524-.548.273-1.341.057-1.585-.43l-1.34-2.687c-.243-.488.061-1.25.61-1.524.573-.286 1.34-.057 1.584.432L565 352.95l.001.001z"/><path d="M567.733 353.259c.297.48.08 1.28-.437 1.601-.516.32-1.333.16-1.63-.32l-1.638-2.641c-.298-.48-.08-1.281.438-1.603.54-.334 1.331-.159 1.63.322l1.636 2.64h0z"/><path d="M570.127 353.4c.284.476.043 1.266-.482 1.579-.525.312-1.336.148-1.62-.329l-1.56-2.622c-.284-.477-.043-1.267.484-1.58.548-.327 1.334-.147 1.618.33l1.56 2.62v.002zm-15.326-1.75c.243.488-.06 1.25-.608 1.524-.548.273-1.341.057-1.585-.43l-1.34-2.687c-.243-.488.061-1.25.61-1.524.573-.286 1.34-.057 1.584.432l1.338 2.684.001.001z"/><path d="M557.417 351.985c.258.491-.022 1.267-.561 1.55-.54.284-1.339.075-1.597-.416l-1.422-2.705c-.258-.491.022-1.267.562-1.552.564-.296 1.338-.074 1.597.42l1.42 2.701v.002z"/><path d="M559.901 352.35c.243.488-.06 1.25-.608 1.524-.548.273-1.341.057-1.585-.43l-1.34-2.687c-.243-.488.061-1.25.61-1.524.573-.286 1.34-.057 1.584.432l1.338 2.684.001.001zm23.132 1.609c.297.48.08 1.28-.437 1.601-.516.32-1.333.16-1.63-.32l-1.638-2.641c-.298-.48-.08-1.281.438-1.603.54-.334 1.331-.159 1.63.322l1.636 2.64h0z"/><path d="M585.527 354.1c.284.476.043 1.266-.482 1.579-.525.312-1.336.148-1.62-.329l-1.56-2.622c-.284-.477-.043-1.267.484-1.58.548-.327 1.334-.147 1.618.33l1.56 2.62v.002z"/><path d="M588.333 354.179c.324.471.151 1.287-.347 1.63-.498.343-1.324.215-1.648-.256l-1.787-2.595c-.325-.47-.152-1.287.348-1.63.521-.36 1.322-.215 1.648.258l1.785 2.591v.002z"/><path d="M590.829 354.1c.311.468.117 1.274-.39 1.612-.507.337-1.327.206-1.638-.262l-1.713-2.576c-.312-.467-.117-1.274.391-1.612.53-.352 1.326-.205 1.638.264l1.711 2.573.001.001zm-17.996-.641c.297.48.08 1.28-.437 1.601-.516.32-1.333.16-1.63-.32l-1.638-2.641c-.298-.48-.08-1.281.438-1.603.54-.334 1.331-.159 1.63.322l1.636 2.64h0z"/><path d="M575.327 353.6c.284.476.043 1.266-.482 1.579-.525.312-1.336.148-1.62-.329l-1.56-2.622c-.284-.477-.043-1.267.484-1.58.548-.327 1.334-.147 1.618.33l1.56 2.62v.002z"/><path d="M577.933 353.759c.297.48.08 1.281-.437 1.601-.516.32-1.333.16-1.63-.32l-1.638-2.641c-.298-.48-.08-1.281.438-1.603.54-.334 1.331-.159 1.63.322l1.636 2.64h0z"/><path d="M580.427 353.9c.284.476.043 1.266-.482 1.579-.525.312-1.336.148-1.62-.329l-1.56-2.622c-.284-.477-.043-1.267.484-1.58.548-.327 1.334-.147 1.618.33l1.56 2.62v.002zm-38.94-12.315c-.598-.206-1.028-.904-.859-1.395.17-.49.94-.776 1.538-.57l3.292 1.139c.598.207 1.028.905.858 1.397-.177.513-.939.774-1.539.567l-3.289-1.137h-.001z"/><path d="M541.655 344.697c-.565.172-1.283-.15-1.434-.645-.15-.495.265-1.165.83-1.337l3.114-.948c.566-.173 1.284.15 1.435.646.158.518-.265 1.163-.832 1.336l-3.111.948h-.002z"/><path d="M543.161 347.358c-.394.4-1.175.423-1.56.044-.386-.38-.376-1.161.018-1.562l2.171-2.206c.395-.4 1.176-.423 1.562-.043.403.396.375 1.16-.02 1.562l-2.17 2.204-.001.001z"/><path d="M544.852 348.763c-.15.507-.856.852-1.41.687-.554-.164-.96-.838-.808-1.346l.83-2.795c.15-.508.855-.852 1.411-.687.58.171.958.838.807 1.347l-.83 2.792v.002zm.863-12.469c-.55-.298-.847-1.068-.592-1.54s1.063-.646 1.614-.348l3.031 1.64c.55.298.848 1.069.592 1.542-.267.493-1.063.645-1.615.346l-3.029-1.639h-.001zm-1.553 1.676c-.561-.298-.874-1.067-.624-1.538.25-.47 1.062-.644 1.623-.346l3.089 1.638c.56.298.873 1.067.623 1.539-.26.492-1.062.643-1.624.344l-3.086-1.636-.001-.001z"/><path d="M542.674 339.63c-.589-.21-1.004-.913-.829-1.405.175-.492.942-.775 1.53-.565l3.244 1.155c.589.21 1.004.912.828 1.406-.183.514-.941.774-1.532.563l-3.24-1.154h0zm4.092 10.704c.037.53-.52 1.104-1.113 1.146-.594.042-1.228-.448-1.265-.979l-.206-2.92c-.037-.531.52-1.105 1.115-1.147.621-.044 1.226.448 1.263.98l.206 2.918v.002z"/><path d="M549.438 350.995c.15.51-.283 1.193-.867 1.365-.585.173-1.322-.165-1.472-.674l-.828-2.805c-.15-.51.283-1.193.87-1.366.61-.18 1.319.166 1.47.677l.827 2.801v.002z"/><path d="M552.317 351.285c.258.491-.022 1.267-.561 1.55-.54.284-1.339.075-1.597-.416l-1.422-2.705c-.258-.491.022-1.267.562-1.552.564-.296 1.338-.074 1.597.42l1.42 2.701v.002zm105.233-6.84c.511.367.702 1.183.38 1.632-.322.448-1.157.53-1.668.164l-2.814-2.02c-.511-.366-.702-1.183-.38-1.632.337-.47 1.157-.53 1.67-.162l2.81 2.017.002.001z"/><path d="M658.238 344.749c.488.377.635 1.2.292 1.644-.343.444-1.177.51-1.666.132l-2.69-2.079c-.488-.377-.634-1.2-.29-1.645.358-.464 1.176-.51 1.666-.13l2.687 2.077h.001zm3.922-2.595c.527.35.753 1.156.45 1.61-.302.456-1.133.561-1.66.212l-2.897-1.925c-.526-.35-.752-1.155-.449-1.612.316-.475 1.133-.559 1.66-.208l2.895 1.922.002.001z"/><path d="M660.08 343.656c.482.382.617 1.208.267 1.65-.35.44-1.185.5-1.667.118l-2.659-2.104c-.483-.383-.618-1.208-.267-1.65.366-.462 1.184-.5 1.668-.117l2.656 2.102.001.001zm-10.59-9.859c-.466.408-.557 1.245-.182 1.674.376.43 1.22.451 1.685.044l2.563-2.243c.466-.408.557-1.246.18-1.676-.392-.448-1.218-.45-1.684-.04l-2.561 2.24-.001.001z"/><path d="M647.403 332.723c-.454.404-.528 1.238-.146 1.667.382.429 1.22.454 1.674.05l2.5-2.227c.455-.404.529-1.238.146-1.668-.399-.448-1.219-.452-1.674-.047l-2.498 2.224h-.002zm-2.518-1.069c-.485.392-.618 1.223-.265 1.66.354.438 1.195.484 1.68.092l2.672-2.157c.485-.392.618-1.223.264-1.662-.37-.457-1.194-.482-1.68-.09l-2.67 2.156v.001zm11.418 5.369c-.454.404-.528 1.238-.146 1.667.382.429 1.22.454 1.674.05l2.5-2.227c.455-.404.529-1.238.146-1.668-.399-.448-1.219-.452-1.674-.047l-2.498 2.224h-.002zm-2.313-1.126c-.466.408-.557 1.245-.182 1.674.376.43 1.22.451 1.685.044l2.563-2.243c.466-.408.557-1.246.18-1.676-.392-.448-1.218-.45-1.684-.04l-2.561 2.24-.001.001z"/><path d="M651.803 334.923c-.454.404-.528 1.238-.146 1.667.382.429 1.22.454 1.674.05l2.5-2.227c.455-.404.529-1.238.146-1.668-.399-.448-1.219-.452-1.674-.047l-2.498 2.224h-.002z"/></g><g transform="translate(560.12 95.278)"><path stroke="#000" stroke-width=".5" fill="#FFF133" d="M35.401 0v5.086h-4.276V8.48H35.4v10.162h2.85V8.48h4.285V5.086h-4.284V.01H35.4z"/><ellipse stroke="#000" stroke-width=".5" fill="#FFF133" cx="36.825" cy="18.639" rx="2.853" ry="3.386"/><path d="M69.119 82.156c0 8.772-.895 18.657-2.496 26.25-10.22-3.38-22.825-5.084-28.872-5.084-7.46 0-20.968 1.703-29.409 3.394-1.703-7.936-2.58-16.22-2.597-24.56 0-35.059 8.96-49.963 31.3-63.51 19.87 13.547 32.074 28.451 32.074 63.51z" stroke="#000" stroke-width=".5" fill="#FFF"/><path d="M69.13 83.235c0-3.133-14.236-5.674-31.764-5.674-17.529 0-31.756 2.541-31.756 5.674v1.893c0-3.132 14.227-5.047 31.756-5.047 17.528 0 31.764 3.175 31.764 6.307v-3.153z" stroke="#000" stroke-width=".5" fill="#FFF133"/><g fill="#FFF133" stroke="#000" stroke-width=".5"><path d="M37.368 58.644l-5.014 3.787 3.343 2.52-1.671 1.26-3.352-2.52-5.014 3.78 5.014 3.788 3.361-2.535 1.671 1.267v3.78h3.333v-3.78l1.672-1.267 3.352 2.527 5.013-3.787-5.013-3.78-3.343 2.52-1.68-1.253 3.351-2.527zm-34.012 3.92l.687 3.976.94 2.46-1.061 1.816-.94-2.46-.122 4.276 2.945 3.113-.946-2.475 2.005.652 1.41 3.691 1.532-.585-1.41-3.691 1.058-1.823.944 2.468.127-4.287-2.951-3.102.94 2.46-2-.638-.94-2.46zm68.002.057l-2.035 3.452-.863 2.469-1.985.69.864-2.468-2.849 3.16.255 4.252.869-2.482 1.118 1.785-1.295 3.702 1.552.544 1.296-3.703 1.987-.698-.866 2.476 2.86-3.164L72 68.387l-.864 2.469-1.124-1.77.864-2.47zM15.764 68.14c-.237-1.363.602-2.7 1.965-3.133 1.287-.32 2.884.607 3.193 1.853.31 1.246-.67 2.811-.67 2.811l6.39 3.712-2.576.64-4.79-2.78-2.944 4.698-2.576.639 3.92-6.27s-1.603-.925-1.912-2.17zm38.004-1.251c.413-1.318 1.773-2.12 3.183-1.879 1.291.307 2.287 1.861 1.99 3.108-.296 1.247-1.884 2.187-1.884 2.187l3.98 6.222-2.583-.614-2.986-4.661-4.771 2.818-2.584-.614 6.361-3.765s-1.003-1.556-.706-2.802z"/><path d="M69.16 79.449c0-3.132-14.248-5.674-31.792-5.674-17.543 0-31.782 2.542-31.782 5.674v1.893c0-3.132 14.239-5.047 31.782-5.047 17.544 0 31.792 3.175 31.792 6.307V79.45z"/></g><path d="M66.548 106.943c0-3.132-13.045-5.673-29.107-5.673-16.063 0-29.1 2.541-29.1 5.673v1.894c0-3.132 13.037-5.047 29.1-5.047 16.062 0 29.107 3.175 29.107 6.307v-3.154z" stroke="#000" stroke-width=".5" fill="#FFF133"/><g fill="#FFF133" stroke="#000" stroke-width=".5"><path d="M37.72 82.353l-4.722 3.787 3.148 2.52-1.574 1.26-3.156-2.52-4.722 3.78 4.722 3.787 3.165-2.534 1.574 1.267v3.78h3.139V93.7l1.574-1.267 3.157 2.527 4.721-3.787-4.721-3.78-3.148 2.52-1.583-1.253 3.157-2.527zM5.673 86.285l.652 3.942.892 2.456-1.007 1.756-.893-2.456-.115 4.212 2.796 3.162-.898-2.47 1.902.707 1.34 3.684 1.453-.528-1.339-3.684 1.005-1.763.895 2.462.12-4.222-2.8-3.152.893 2.456-1.898-.693-.893-2.456zm64.077.057l-1.93 3.473-.819 2.465-1.882.743.82-2.465-2.701 3.208.241 4.194.824-2.48 1.06 1.73-1.228 3.697 1.472.489 1.228-3.697 1.885-.75-.822 2.471 2.712-3.212-.252-4.19-.82 2.465-1.065-1.714.82-2.465zm-52.378 5.439c-.224-1.359.57-2.668 1.857-3.063 1.217-.285 2.727.674 3.019 1.92.292 1.245-.633 2.776-.633 2.776l6.039 3.846-2.435.571-4.528-2.88-2.783 4.595-2.434.57 3.706-6.131s-1.516-.958-1.808-2.204zm35.793-1.117c.392-1.32 1.677-2.15 3.009-1.943 1.22.274 2.161 1.794 1.881 3.04-.28 1.247-1.78 2.22-1.78 2.22l3.76 6.09-2.44-.55-2.823-4.561-4.509 2.915-2.441-.548 6.011-3.895s-.948-1.522-.668-2.768z"/><path d="M67.66 103.167c0-3.132-13.418-5.673-29.94-5.673-16.522 0-29.93 2.541-29.93 5.673v1.894c0-3.132 13.408-5.047 29.93-5.047s29.94 3.175 29.94 6.307v-3.154z"/></g><path d="M67.439 61.218c0-3.132-13.428-5.674-29.962-5.674-16.533 0-29.952 2.542-29.952 5.674v1.893c0-3.132 13.419-5.047 29.952-5.047 16.534 0 29.962 3.175 29.962 6.307v-3.153z" stroke="#000" stroke-width=".5" fill="#FFF133"/><g fill="#FFF133" stroke="#000" stroke-width=".5"><path d="M37.809 36.693l-4.618 3.572 3.079 2.377-1.54 1.189-3.087-2.378-4.618 3.566 4.618 3.572 3.096-2.39 1.54 1.195v3.566h3.07v-3.566l1.538-1.195 3.088 2.384 4.617-3.573-4.617-3.565-3.079 2.377-1.548-1.182 3.087-2.384zM6.475 40.385l.634 3.737.87 2.319-.981 1.69-.87-2.32-.111 4.01 2.72 2.955-.873-2.333 1.852.636 1.303 3.479 1.415-.53-1.303-3.479.978-1.696.872 2.325.117-4.018-2.726-2.945.868 2.319-1.847-.623-.868-2.32zm62.654.059l-1.88 3.264-.797 2.326-1.833.672.798-2.327-2.631 3 .235 3.988.802-2.34 1.033 1.661-1.196 3.49 1.434.493 1.196-3.49 1.836-.68-.8 2.334 2.64-3.002-.245-3.985-.798 2.327-1.037-1.649.798-2.327zm-51.215 5.178a2.617 2.617 0 0 1 1.812-2.928c1.188-.288 2.66.599 2.946 1.774.285 1.175-.618 2.638-.618 2.638l5.893 3.553-2.376.577-4.418-2.66-2.716 4.39-2.375.577 3.616-5.86s-1.48-.886-1.764-2.06zm35.009-1.139c.382-1.243 1.636-2.01 2.936-1.796 1.192.276 2.11 1.73 1.836 2.905-.273 1.176-1.737 2.075-1.737 2.075l3.67 5.818-2.382-.554-2.755-4.358-4.4 2.696-2.383-.554 5.867-3.601s-.925-1.455-.652-2.63z"/><path d="M67.09 56.32c0-2.954-13.123-5.351-29.281-5.351S8.537 53.366 8.537 56.32v1.787c0-2.955 13.114-4.761 29.272-4.761 16.158 0 29.28 2.995 29.28 5.949V56.32z"/></g><ellipse fill="#B90000" cx="37.543" cy="108.723" rx="29.25" ry="4.767"/></g><path d="M645.212 176.871l8.496-3.524 8.496 3.524s-17.592 7.068-17.592 31.757c0 17.64 30.048 21.164 30.048 42.328 0 9.08-8.184 17.64-16.704 17.64-8.52 0-21.264-3.524-34.008-14.116 8.496 3.524 18.24 7.427 25.512 7.168 4.704-.06 13.2-3.524 13.2-10.552 0-14.136-29.472-21.304-29.472-42.468 0-24.689 12-31.737 12-31.737l.024-.02z" stroke="#000" stroke-width=".5" fill="#FFF"/><path d="M594.682 372.11c-.684.268-1.058 1.338-.744 2.14.313.8 1.314 1.336 1.998 1.068l3.77-1.474c.684-.267 1.057-1.337.743-2.14-.328-.838-1.314-1.335-2-1.066l-3.765 1.472h-.002z" stroke="#000" stroke-width=".5" fill="#B00"/><path d="M646.772 176.871l11.184-3.524 2.4 3.524s-16.944 7.068-16.944 31.757c0 17.64 30.216 21.164 30.216 42.328 0 9.08-6.408 17.402-15.672 17.64-17.616.458-21.696-4.778-34.008-14.116 10.344 6.431 25.2 9.318 30.96 6.81 7.056-3.067 8.4-7.168 8.4-10.712 0-14.116-29.016-20.786-29.016-41.95 0-24.689 12.48-31.737 12.48-31.737v-.02z" stroke="#000" stroke-width=".5" fill="#FFF"/><path d="M645.092 176.97c1.68-.477 8.64-3.623 17.112 3.445 4.272 3.524 4.272 10.572 4.272 14.096l12.744-10.572s-6.96-17.302-25.824-10.672a86.821 86.821 0 0 0-8.28 3.704h-.024z" stroke="#000" stroke-width=".5" fill="#FFF"/><path d="M647.612 175.716c2.112-.557 8.808-1.254 15.504 3.704 4.248 3.524 4.56 8.541 4.56 12.065l9.744-7.566c.816-.617-5.952-16.167-23.808-10.751a40.224 40.224 0 0 0-6 2.568v-.02z" stroke="#000" stroke-width=".5" fill="#FFF"/><path d="M644.462 228.485l3.093 3.242s-.334-1.793.846-2.574l1.185-.764s8.097 6.8 9.631 7.982c1.534 1.182.395 3.172.727 3.052.333-.12 4.17-3.776 4.17-3.776s-1.901.864-3.162-.08c-1.26-.946-10.212-8.148-10.212-8.148s.963-.86 1.778-1.668c.809-.825 2.463.688 2.463.688l-4.116-3.76s.561 1.553-.145 2.143c-.699.608-1.25 1.163-1.25 1.163s-1.038-.849-2.317-1.787c-1.254-.928-.058-2.761-.058-2.761l-3.524 3.542s1.756.234 2.514.828l1.534 1.182s-.478.528-1.295 1.158c-.545.572-1.422.514-1.862.338zm31.617-45.282l-1.72-2.892s-.238 1.293-1.487 1.561l-1.25.255s-4.996-6.424-5.974-7.568c-.978-1.145.593-2.243.27-2.236-.323.008-4.716 1.637-4.716 1.637s1.898-.164 2.709.76c.811.922 6.428 7.81 6.428 7.81s-1.086.37-2.028.737c-.942.38-1.926-1.016-1.926-1.016l2.45 3.472s-.027-1.18.756-1.425c.784-.257 1.424-.511 1.424-.511s.647.807 1.476 1.73c.811.91-.763 1.889-.763 1.889l4.089-1.622s-1.449-.55-1.929-1.123l-.978-1.144s.569-.253 1.46-.5c.64-.266 1.38-.032 1.709.186z" stroke="#000" stroke-width=".5" fill="#FFF133"/><path d="M598.182 371.91c-.684.268-1.058 1.338-.744 2.14.313.8 1.314 1.336 1.998 1.068l3.77-1.474c.684-.267 1.057-1.337.743-2.14-.328-.838-1.314-1.335-2-1.066l-3.765 1.472h-.002z" stroke="#000" stroke-width=".5" fill="#B00"/><path d="M593.49 375.702c-1.07.62-1.652 2.084-1.163 2.926.489.84 2.05 1.062 3.118.441l5.882-3.416c1.068-.62 1.651-2.085 1.161-2.928-.51-.88-2.049-1.06-3.12-.438l-5.876 3.413-.003.002z" stroke="#000" stroke-width=".565" fill="#B00"/><path d="M596.79 375.502c-1.07.62-1.652 2.084-1.163 2.926.489.84 2.05 1.062 3.118.441l5.882-3.416c1.068-.62 1.651-2.085 1.161-2.928-.51-.88-2.049-1.06-3.12-.438l-5.876 3.413-.003.002z" stroke="#000" stroke-width=".565" fill="#B00"/><path d="M592.552 379.442c-1.277.846-1.973 2.575-1.388 3.457.584.88 2.45.917 3.726.07l7.027-4.656c1.277-.846 1.973-2.575 1.387-3.46-.61-.92-2.448-.914-3.728-.066l-7.02 4.652-.004.003z" stroke="#000" stroke-width=".669" fill="#B00"/><path d="M596.552 379.142c-1.277.846-1.973 2.575-1.388 3.457.584.88 2.45.917 3.726.07l7.027-4.656c1.277-.846 1.973-2.575 1.387-3.46-.61-.92-2.448-.914-3.728-.066l-7.02 4.652-.004.003z" stroke="#000" stroke-width=".669" fill="#B00"/></g></svg>