<svg width="800" height="480" xmlns="http://www.w3.org/2000/svg"><g fill="none" fill-rule="evenodd"><path fill="#CF142B" d="M0 0h800v480H0z"/><path fill="#00247D" d="M0 0h800v320H0z"/><path fill="#FC0" d="M0 0h800v160H0z"/><g fill="#FFF"><path d="M414.478 168.492l-9.243 17.866 10.405 5.49z"/><path d="M414.478 168.492l2.575 19.95-11.655 1.6z"/><path d="M430.81 185.404l-19.847-3.27-2.007 11.593z"/><path d="M430.81 185.404l-18.177 8.614-5.124-10.59z"/><path d="M393.346 178.798l14.136 14.312 8.437-8.2z"/><path d="M393.346 178.798l19.77 3.716-2.08 11.58z"/><path d="M419.773 206.164l-3.024-19.888-11.645 1.675z"/><path d="M419.773 206.164l-13.81-14.627 8.489-8.145z"/><path d="M396.619 202.08l17.979-9.02-5.19-10.558z"/><path d="M396.619 202.08l9.643-17.653 10.37 5.556zM468 187.972L453.204 201.6l7.9 8.717z"/><path d="M468 187.972l-4.404 19.628-11.5-2.483z"/><path d="M477.563 209.45l-17.533-9.86-5.85 10.207z"/><path d="M477.563 209.45l-20.028 1.878-1.193-11.704z"/><path d="M444.617 190.43l8.389 18.283 10.732-4.82z"/><path d="M444.617 190.43l17.307 10.253-5.915 10.17z"/><path d="M460.09 225.183l3.96-19.722-11.514-2.41z"/><path d="M460.09 225.183l-7.974-18.468 10.763-4.75z"/><path d="M439.73 213.427l19.98-2.328-1.267-11.696z"/><path d="M439.73 213.427l15.099-13.29 7.844 8.767zm71.901 11.156l-18.564 7.745 4.441 10.894z"/><path d="M511.631 224.583L500.78 241.52l-9.957-6.266z"/><path d="M513.271 248.037l-13.103-15.263-8.988 7.59z"/><path d="M513.271 248.037l-19.462-5.086 2.882-11.406z"/><path d="M488.818 218.895l1.63 20.05 11.733-.858z"/><path d="M488.818 218.895l12.756 15.554-9.036 7.534z"/><path d="M491.472 256.844l10.467-17.178-9.997-6.202z"/><path d="M491.472 256.844l-1.177-20.08 11.738-.784z"/><path d="M476.36 238.834l19.57 4.646 2.81-11.424z"/><path d="M476.36 238.834l18.734-7.325 4.372 10.922zm63.75 35.075l-20.095.928.448 11.756z"/><path d="M540.11 273.909l-15.99 12.205-7.214-9.294z"/><path d="M533.629 296.51l-7.093-18.824-11.042 4.058z"/><path d="M533.629 296.51l-16.549-11.437 6.61-9.732z"/><path d="M520.618 260.761l-5.327 19.398 11.32 3.207z"/><path d="M520.618 260.761l6.666 18.98-11.067 3.988z"/><path d="M510.132 297.33l15.71-12.563-7.272-9.247z"/><path d="M510.132 297.33l5.762-19.273 11.298 3.279z"/><path d="M502.09 275.236l16.803 11.06 6.548-9.774z"/><path d="M502.09 275.236l20.11-.475.374 11.758z"/></g><g fill="#FFF"><path d="M231.25 274.125l15.99 12.205 7.213-9.293z"/><path d="M231.25 274.125l20.094.929-.448 11.756z"/><path d="M250.741 260.978l-6.666 18.979 11.067 3.988z"/><path d="M250.741 260.978l5.327 19.398-11.32 3.207z"/><path d="M237.73 296.726l16.549-11.436-6.61-9.732z"/><path d="M237.73 296.726l7.093-18.824 11.042 4.059z"/><path d="M269.269 275.453l-20.11-.475-.374 11.758z"/><path d="M269.269 275.453l-16.803 11.06-6.548-9.774z"/><path d="M261.227 297.546l-5.762-19.272-11.298 3.278z"/><path d="M261.227 297.546l-15.71-12.562 7.272-9.247zm-1.499-72.746l10.851 16.937 9.957-6.265z"/><path d="M259.728 224.8l18.565 7.745-4.442 10.893z"/><path d="M282.54 219.112l-12.755 15.554 9.036 7.533z"/><path d="M282.54 219.112l-1.629 20.05-11.733-.859z"/><path d="M258.088 248.254l19.462-5.087-2.882-11.405z"/><path d="M258.088 248.254l13.103-15.263 8.988 7.59z"/><path d="M295 239.05l-18.735-7.324-4.372 10.921z"/><path d="M295 239.05l-19.572 4.646-2.81-11.423z"/><path d="M279.887 257.061l1.177-20.081-11.738-.784z"/><path d="M279.887 257.061l-10.467-17.178 9.997-6.203zm23.473-68.873l4.403 19.628 11.5-2.482z"/><path d="M303.36 188.188l14.795 13.628-7.9 8.718z"/><path d="M326.742 190.646L309.436 200.9l5.914 10.17z"/><path d="M326.742 190.646l-8.389 18.283-10.732-4.819z"/><path d="M293.796 209.667l20.028 1.877 1.193-11.704z"/><path d="M293.796 209.667l17.533-9.86 5.85 10.206z"/><path d="M331.63 213.644l-15.1-13.29-7.844 8.767z"/><path d="M331.63 213.644l-19.98-2.328 1.266-11.696z"/><path d="M311.269 225.4l7.974-18.468-10.763-4.751z"/><path d="M311.269 225.4l-3.96-19.723 11.514-2.41zm45.611-56.692l-2.574 19.95 11.655 1.6z"/><path d="M356.88 168.708l9.244 17.867-10.405 5.49z"/><path d="M378.013 179.015l-19.77 3.716 2.08 11.58z"/><path d="M378.013 179.015l-14.136 14.311-8.437-8.199z"/><path d="M340.548 185.62l18.178 8.615 5.124-10.59z"/><path d="M340.548 185.62l19.849-3.269 2.006 11.592z"/><path d="M374.74 202.297l-9.643-17.653-10.37 5.556z"/><path d="M374.74 202.297l-17.979-9.02 5.19-10.558z"/><path d="M351.586 206.38l13.81-14.626-8.489-8.146z"/><path d="M351.586 206.38l3.024-19.887 11.645 1.674z"/></g></g></svg>