<svg width="800" height="480" xmlns="http://www.w3.org/2000/svg"><defs><linearGradient x1="-1488.299%" y1="243.101%" x2="-1599.93%" y2="207.528%" id="a"><stop stop-color="red" offset="0%"/><stop stop-color="#FF0" offset="100%"/></linearGradient><linearGradient x1="-1488.299%" y1="250.094%" x2="-1599.93%" y2="214.521%" id="b"><stop stop-color="red" offset="0%"/><stop stop-color="#FF0" offset="100%"/></linearGradient><linearGradient x1="-1542.369%" y1="255.688%" x2="-1654%" y2="220.116%" id="c"><stop stop-color="red" offset="0%"/><stop stop-color="#FF0" offset="100%"/></linearGradient><linearGradient x1="-1488.299%" y1="262.681%" x2="-1599.93%" y2="227.109%" id="d"><stop stop-color="red" offset="0%"/><stop stop-color="#FF0" offset="100%"/></linearGradient><linearGradient x1="-1489.938%" y1="268.276%" x2="-1601.569%" y2="232.703%" id="e"><stop stop-color="red" offset="0%"/><stop stop-color="#FF0" offset="100%"/></linearGradient><linearGradient x1="-1489.938%" y1="275.269%" x2="-1601.569%" y2="239.696%" id="f"><stop stop-color="red" offset="0%"/><stop stop-color="#FF0" offset="100%"/></linearGradient><linearGradient x1="-1542.369%" y1="274.569%" x2="-1654%" y2="238.997%" id="g"><stop stop-color="red" offset="0%"/><stop stop-color="#FF0" offset="100%"/></linearGradient><linearGradient x1="-1542.369%" y1="268.276%" x2="-1654%" y2="232.703%" id="h"><stop stop-color="red" offset="0%"/><stop stop-color="#FF0" offset="100%"/></linearGradient><linearGradient x1="-1542.369%" y1="262.681%" x2="-1654%" y2="227.109%" id="i"><stop stop-color="red" offset="0%"/><stop stop-color="#FF0" offset="100%"/></linearGradient><linearGradient x1="-1553.51%" y1="241.507%" x2="-1665.908%" y2="206.27%" id="j"><stop stop-color="red" offset="0%"/><stop stop-color="#FF0" offset="100%"/></linearGradient><linearGradient x1="-1542.369%" y1="249.395%" x2="-1654%" y2="213.822%" id="k"><stop stop-color="red" offset="0%"/><stop stop-color="#FF0" offset="100%"/></linearGradient><linearGradient x1="-1498.13%" y1="255.688%" x2="-1609.761%" y2="220.116%" id="l"><stop stop-color="red" offset="0%"/><stop stop-color="#FF0" offset="100%"/></linearGradient></defs><g fill="none" fill-rule="evenodd"><path fill="#006" d="M0 0h800v480H0z"/><g fill-rule="nonzero"><path d="M0 0v26.88L355.314 240H400v-26.88L44.686 0H0zm400 0v26.88L44.686 240H0v-26.88L355.314 0H400z" fill="#FFF"/><path d="M166.629 0v240h66.742V0H166.63zM0 79.954v80.092h400V79.954H0z" fill="#FFF"/><path d="M0 96v48h400V96H0zM180 0v240h40V0h-40zM0 240l133.371-79.954h29.715L29.943 240H0zM0 0l133.371 79.954h-29.828L0 17.83V0zm236.914 79.954L370.171 0H400L266.629 79.954h-29.715zM400 240l-133.371-79.954h29.828L400 222.17V240z" fill="#C00"/></g><path d="M508.664 111.239l181.094-.744-.33 161.359s6.358 24.525-75.972 61.85c29.645-3.055 61.934-34.682 61.934-34.682s13.047-16.763 19.405-7.432a71.843 71.843 0 0 0 17.177 17.92c4.707 3.633 8.423 13.707 1.321 21.14-7.02 7.432-18.167 8.422-21.14-.661-4.707 2.312-33.61 37.325-92.736 38.977a131.3 131.3 0 0 1-93.148-39.307s-8.01 12.717-19.489 2.642c-11.065-13.047-2.642-21.47-2.642-21.47s9.414-5.368 12.056-9.084c4.377-5.037 5.78-11.726 13.13-11.726 8.754.66 12.14 7.68 12.14 7.68s30.223 31.958 62.759 35.921c-73.495-35.26-76.22-57.061-75.972-62.429l.413-159.954z" fill="#FFF"/><path d="M513.04 115.533l172.672-.991v155.247c.33 20.15-33.61 40.711-86.707 66.889-54.75-28.242-86.295-45.418-86.708-67.22l.743-153.925z" stroke="#000" stroke-width="1.7" fill="#006129"/><path stroke="#F7C600" stroke-width="1.7" d="M533.85 286.635l10.157-14.946 10.24 14.946"/><path d="M545.99 281.02a2.064 2.064 0 1 1-4.047 0 2.064 2.064 0 1 1 4.129 0h-.083z" stroke="#000" stroke-width=".8" fill="#F7C600"/><path d="M535.667 297.7h15.855s.248-1.981-1.652-3.302c8.258-1.074 6.111-8.423 13.048-8.836 1.321.247-3.634 3.138-3.634 3.138s-4.129 2.972-2.312 4.459c1.57 1.156 2.23-.743 2.477-2.23.166-1.404 6.607-2.312 5.781-6.523-1.652-3.304-10.735 2.312-10.735 2.312h-6.441c-.413-.826-2.23-3.716-4.13-3.716-2.146.082-3.633 3.716-3.633 3.716h-14.699s-.495 3.798 6.937 4.542c1.651 2.147 2.973 2.807 4.377 3.303-.909.826-1.24 1.816-1.24 3.138z" stroke="#000" stroke-width=".8" fill="#F7C600"/><path d="M536.823 294.48h13.213m-19.241-7.762s1.073 6.193 5.945 7.597" stroke="#000" stroke-width=".8"/><path d="M48.954 176.624c.546-2.294 1.42-2.73 2.403-5.68.109-2.948-2.403-2.62-1.639-4.477 1.31-2.075.656-3.931-1.747-5.46.437 2.62-3.276 5.133-3.276 7.317s1.966 1.747 1.747 5.024c0 1.965-.546 1.42-.655 3.276h3.276-.11z" stroke="#000" stroke-width=".793" fill="url(#a)" transform="translate(481 110)"/><path d="M545.824 272.019a1.9 1.9 0 1 1-3.716.788 1.9 1.9 0 0 1 3.716-.788z" stroke="#000" stroke-width=".8" fill="#F7C600"/><path stroke="#F7C600" stroke-width="1.7" d="M533.19 255.833l10.24-15.029 10.239 15.03"/><path d="M545.411 250.218a2.064 2.064 0 1 1-4.046 0 2.064 2.064 0 0 1 4.129 0h-.083z" stroke="#000" stroke-width=".8" fill="#F7C600"/><path d="M535.089 266.899h15.855s.248-1.982-1.652-3.303c8.258-1.074 6.111-8.423 13.048-8.836 1.321.248-3.634 3.138-3.634 3.138s-4.129 2.89-2.312 4.46c1.57 1.155 2.23-.827 2.477-2.23.166-1.404 6.607-2.395 5.78-6.524-1.65-3.386-10.734 2.312-10.734 2.312h-6.441c-.413-.826-2.23-3.716-4.13-3.716-2.146.083-3.633 3.716-3.633 3.716h-14.699s-.495 3.799 6.937 4.46c1.651 2.229 2.973 2.807 4.377 3.385-.909.826-1.24 1.817-1.24 3.138z" stroke="#000" stroke-width=".8" fill="#F7C600"/><path d="M536.328 263.596h13.13m-19.241-7.68s1.073 6.11 5.945 7.597" stroke="#000" stroke-width=".8"/><path d="M48.458 145.74c.546-2.294 1.42-2.73 2.403-5.68.11-2.948-2.403-2.62-1.638-4.477 1.31-2.075.655-3.932-1.747-5.46.436 2.62-3.277 5.132-3.277 7.317 0 2.184 1.966 1.747 1.748 5.023 0 1.966-.546 1.42-.656 3.277h3.277-.11z" stroke="#000" stroke-width=".793" fill="url(#b)" transform="translate(481 110)"/><path d="M545.246 241.217a1.9 1.9 0 1 1-3.716.788 1.9 1.9 0 0 1 3.716-.788z" stroke="#000" stroke-width=".8" fill="#F7C600"/><path stroke="#F7C600" stroke-width="1.7" d="M641.532 227.757l10.158-14.864 10.24 14.864"/><path d="M653.754 222.224a2.064 2.064 0 1 1-4.046.822 2.064 2.064 0 0 1 4.046-.822z" stroke="#000" stroke-width=".8" fill="#F7C600"/><path d="M643.432 238.822l15.772.083s.248-2.065-1.651-3.303c8.257-1.156 6.193-8.423 13.13-8.836 1.32.165-3.634 3.138-3.634 3.138s-4.129 2.89-2.312 4.376c1.569 1.24 2.23-.66 2.395-2.147.247-1.486 6.771-2.394 5.78-6.523-1.569-3.386-10.652 2.312-10.652 2.312h-6.524c-.33-.826-2.147-3.716-4.046-3.716-2.147 0-3.716 3.716-3.716 3.716h-14.7s-.495 3.716 6.937 4.46c1.652 2.229 2.973 2.807 4.46 3.302-.992.826-1.24 1.9-1.24 3.138z" stroke="#000" stroke-width=".8" fill="#F7C600"/><path d="M644.505 235.684h13.213m-19.158-7.762s1.073 6.11 5.863 7.597" stroke="#000" stroke-width=".8"/><path d="M156.636 117.745c.546-2.293 1.42-2.73 2.403-5.678.109-2.95-2.403-2.622-1.638-4.478 1.31-2.075.655-3.932-1.748-5.46.437 2.62-3.276 5.132-3.276 7.316 0 2.185 1.966 1.748 1.747 5.024 0 1.966-.546 1.42-.655 3.276h3.276-.109z" stroke="#000" stroke-width=".793" fill="url(#c)" transform="translate(481 110)"/><path d="M653.589 213.223a1.9 1.9 0 1 1-3.716.788 1.9 1.9 0 0 1 3.716-.788z" stroke="#000" stroke-width=".8" fill="#F7C600"/><path stroke="#F7C600" stroke-width="1.7" d="M535.75 197.863l10.157-15.029 10.24 15.03"/><path d="M547.971 192.248a2.064 2.064 0 1 1-4.046.822 2.064 2.064 0 0 1 4.046-.822z" stroke="#000" stroke-width=".8" fill="#F7C600"/><path d="M537.649 208.929h15.772s.248-2.065-1.651-3.303c8.258-1.156 6.193-8.423 13.13-8.836 1.32.248-3.634 3.138-3.634 3.138s-4.211 2.89-2.312 4.46c1.486 1.155 2.147-.827 2.395-2.23.165-1.404 6.689-2.395 5.78-6.524-1.569-3.386-10.652 2.312-10.652 2.312h-6.524c-.413-.826-2.147-3.716-4.046-3.716-2.147.083-3.716 3.716-3.716 3.716h-14.7s-.495 3.799 6.937 4.46c1.652 2.229 2.973 2.807 4.46 3.385-.991.826-1.24 1.817-1.24 3.138z" stroke="#000" stroke-width=".8" fill="#F7C600"/><path d="M538.805 205.708h13.212m-19.24-7.762s1.073 6.11 5.863 7.597" stroke="#000" stroke-width=".8"/><path d="M50.936 87.77c.546-2.294 1.42-2.73 2.402-5.68.11-2.948-2.402-2.62-1.638-4.477 1.31-2.075.656-3.932-1.747-5.46.437 2.62-3.276 5.132-3.276 7.317 0 2.184 1.965 1.747 1.747 5.023 0 1.966-.546 1.42-.655 3.276h3.276-.11z" stroke="#000" stroke-width=".793" fill="url(#d)" transform="translate(481 110)"/><path d="M547.806 183.247a1.9 1.9 0 1 1-3.716.788 1.9 1.9 0 0 1 3.716-.788z" stroke="#000" stroke-width=".8" fill="#F7C600"/><path stroke="#F7C600" stroke-width="1.7" d="M535.997 168.383l10.157-14.947 10.24 15.03"/><path d="M548.219 162.85a2.064 2.064 0 1 1-4.13 0 2.064 2.064 0 0 1 4.13 0z" stroke="#000" stroke-width=".8" fill="#F7C600"/><path d="M537.897 179.448h15.772s.248-1.981-1.652-3.303c8.258-1.073 6.111-8.34 13.048-8.753 1.404.165-3.634 3.055-3.634 3.055s-4.129 2.973-2.23 4.46c1.487 1.156 2.148-.744 2.396-2.147.165-1.487 6.688-2.478 5.78-6.607-1.569-3.303-10.735 2.313-10.735 2.313H550.2c-.413-.744-2.23-3.634-4.047-3.717-2.147.083-3.716 3.717-3.716 3.717H527.74s-.495 3.798 6.937 4.541c1.652 2.147 2.973 2.808 4.46 3.303-.992.826-1.24 1.817-1.24 3.138z" stroke="#000" stroke-width=".8" fill="#F7C600"/><path d="M539.053 176.228h13.13m-19.159-7.762s.991 6.193 5.863 7.597" stroke="#000" stroke-width=".8"/><path d="M51.184 58.372c.546-2.294 1.42-2.73 2.402-5.68.11-2.948-2.402-2.62-1.638-4.477 1.31-2.075.655-3.932-1.747-5.46.436 2.62-3.277 5.132-3.277 7.317 0 2.184 1.966 1.747 1.748 5.023 0 1.966-.546 1.42-.656 3.277h3.277-.11z" stroke="#000" stroke-width=".793" fill="url(#e)" transform="translate(481 110)"/><path d="M548.054 153.767a1.9 1.9 0 1 1-3.716.787 1.9 1.9 0 0 1 3.716-.787z" stroke="#000" stroke-width=".8" fill="#F7C600"/><path stroke="#F7C600" stroke-width="1.7" d="M536.493 138.49l10.24-14.947 10.24 15.03"/><path d="M548.714 132.957a2.064 2.064 0 1 1-3.963 0 2.064 2.064 0 0 1 4.046 0h-.083z" stroke="#000" stroke-width=".8" fill="#F7C600"/><path d="M538.475 149.638h15.69s.33-2.065-1.652-3.304c8.34-1.156 6.193-8.423 13.212-8.835 1.24.165-3.716 3.055-3.716 3.055s-4.129 2.973-2.23 4.46c1.487 1.238 2.148-.744 2.396-2.148.165-1.486 6.606-2.395 5.78-6.606-1.652-3.303-10.735 2.312-10.735 2.312h-6.441c-.413-.743-2.23-3.633-4.13-3.633-2.146 0-3.633 3.716-3.633 3.716h-14.699s-.495 3.716 6.937 4.459a8.918 8.918 0 0 0 4.46 3.303c-.992.826-1.24 1.817-1.24 3.138v.083z" stroke="#000" stroke-width=".8" fill="#F7C600"/><path d="M539.63 146.334h13.13m-19.24-7.762s1.073 6.194 5.946 7.68" stroke="#000" stroke-width=".8"/><path d="M51.762 28.478c.546-2.293 1.42-2.73 2.402-5.679.11-2.948-2.402-2.62-1.638-4.477 1.31-2.075.655-3.932-1.747-5.46.437 2.62-3.277 5.132-3.277 7.316s1.966 1.748 1.748 5.024c0 1.966-.546 1.42-.656 3.276h3.277-.11z" stroke="#000" stroke-width=".793" fill="url(#f)" transform="translate(481 110)"/><path d="M548.632 123.956a1.9 1.9 0 1 1-3.716.787 1.9 1.9 0 0 1 3.716-.787z" stroke="#000" stroke-width=".8" fill="#F7C600"/><path stroke="#F7C600" stroke-width="1.7" d="M642.358 138.985l10.157-14.947 10.24 15.03"/><path d="M654.58 133.37a2.064 2.064 0 1 1-4.13 0 2.064 2.064 0 0 1 4.13 0z" stroke="#000" stroke-width=".8" fill="#F7C600"/><path d="M644.257 150.05h15.773s.248-1.981-1.652-3.303c8.258-1.073 6.111-8.34 13.048-8.753 1.404.165-3.634 3.055-3.634 3.055s-4.129 2.973-2.23 4.46c1.487 1.156 2.148-.743 2.395-2.147.166-1.487 6.69-2.478 5.781-6.607-1.569-3.303-10.735 2.313-10.735 2.313h-6.441c-.413-.744-2.147-3.634-4.047-3.634-2.147 0-3.716 3.634-3.716 3.634H634.1s-.495 3.798 6.937 4.541a8.918 8.918 0 0 0 4.46 3.304c-.992.825-1.24 1.816-1.24 3.138z" stroke="#000" stroke-width=".8" fill="#F7C600"/><path d="M645.331 146.83h13.213m-19.241-7.762s1.073 6.193 5.945 7.68" stroke="#000" stroke-width=".8"/><path d="M157.462 28.974c.546-2.294 1.42-2.73 2.403-5.68.109-2.948-2.403-2.62-1.639-4.477 1.31-2.075.656-3.931-1.747-5.46.437 2.62-3.276 5.133-3.276 7.317s1.966 1.747 1.747 5.023c0 1.966-.546 1.42-.655 3.277h3.276-.11z" stroke="#000" stroke-width=".793" fill="url(#g)" transform="translate(481 110)"/><path d="M654.415 124.369a1.9 1.9 0 1 1-3.716.787 1.9 1.9 0 0 1 3.716-.787z" stroke="#000" stroke-width=".8" fill="#F7C600"/><path stroke="#F7C600" stroke-width="1.7" d="M641.367 168.3l10.157-14.946 10.24 15.029"/><path d="M653.589 162.685a2.064 2.064 0 1 1-4.046 0 2.064 2.064 0 1 1 4.128 0h-.082z" stroke="#000" stroke-width=".8" fill="#F7C600"/><path d="M643.267 179.366h15.772s.248-1.982-1.652-3.303c8.258-1.074 6.194-8.34 13.13-8.754 1.322.166-3.633 3.056-3.633 3.056s-4.129 2.973-2.312 4.459c1.569 1.239 2.23-.743 2.395-2.147.247-1.486 6.771-2.395 5.78-6.606-1.569-3.303-10.653 2.395-10.653 2.395h-6.44c-.414-.826-2.23-3.717-4.13-3.717-2.147 0-3.716 3.634-3.716 3.634H633.11s-.495 3.799 6.937 4.542c1.652 2.23 2.973 2.807 4.46 3.303-.992.826-1.24 1.817-1.24 3.138z" stroke="#000" stroke-width=".8" fill="#F7C600"/><path d="M644.423 176.228l13.212-.083m-19.24-7.762s1.073 6.193 5.862 7.68" stroke="#000" stroke-width=".8"/><path d="M156.554 58.289c.546-2.293 1.42-2.73 2.402-5.679.11-2.949-2.402-2.621-1.638-4.478 1.31-2.075.655-3.931-1.747-5.46.437 2.621-3.277 5.133-3.277 7.317s1.966 1.747 1.748 5.024c0 1.965-.546 1.42-.656 3.276h3.277-.11z" stroke="#000" stroke-width=".793" fill="url(#h)" transform="translate(481 110)"/><path d="M653.424 153.767a1.9 1.9 0 1 1-3.716.787 1.9 1.9 0 0 1 3.716-.787z" stroke="#000" stroke-width=".8" fill="#F7C600"/><path stroke="#F7C600" stroke-width="1.7" d="M640.046 198.359l10.24-15.03 10.24 15.03"/><path d="M652.268 192.744a2.064 2.064 0 1 1-4.047 0 2.064 2.064 0 0 1 4.13 0h-.083z" stroke="#000" stroke-width=".8" fill="#F7C600"/><path d="M642.028 209.342h15.69s.33-1.982-1.652-3.303c8.34-1.074 6.194-8.34 13.13-8.754 1.321.166-3.633 3.056-3.633 3.056s-4.13 2.973-2.312 4.459c1.569 1.239 2.23-.743 2.477-2.147.248-1.404 6.606-2.395 5.78-6.606-1.651-3.303-10.735 2.312-10.735 2.312h-6.358c-.413-.743-2.23-3.634-4.13-3.634-2.146 0-3.633 3.634-3.633 3.634h-14.699s-.495 3.798 6.937 4.542a8.918 8.918 0 0 0 4.377 3.303c-.909.826-1.24 1.817-1.24 3.138z" stroke="#000" stroke-width=".8" fill="#F7C600"/><path d="M643.101 206.121h13.213m-19.24-7.762s1.073 6.11 5.945 7.597" stroke="#000" stroke-width=".8"/><path d="M155.232 88.265c.546-2.293 1.42-2.73 2.403-5.679.11-2.949-2.403-2.621-1.638-4.478 1.31-2.075.655-3.931-1.748-5.46.437 2.621-3.276 5.133-3.276 7.317s1.966 1.747 1.747 5.024c0 1.965-.546 1.42-.655 3.276h3.277-.11z" stroke="#000" stroke-width=".793" fill="url(#i)" transform="translate(481 110)"/><path d="M652.102 183.743a1.9 1.9 0 1 1-3.716.787 1.9 1.9 0 0 1 3.716-.787z" stroke="#000" stroke-width=".8" fill="#F7C600"/><path stroke="#F7C600" stroke-width="1.3" d="M641.367 286.966l10.157-15.03 10.24 15.03"/><path d="M653.589 281.35a2.064 2.064 0 1 1-4.046.822 2.064 2.064 0 0 1 4.046-.822z" stroke="#000" stroke-width=".8" fill="#F7C600"/><path d="M643.267 298.031h15.772s.248-2.064-1.652-3.303c8.258-1.074 6.194-8.423 13.13-8.836 1.322.248-3.633 3.138-3.633 3.138s-4.129 2.89-2.312 4.46c1.569 1.155 2.23-.827 2.395-2.23.247-1.404 6.771-2.395 5.78-6.524-1.569-3.386-10.653 2.312-10.653 2.312h-6.523c-.33-.826-2.147-3.716-4.047-3.716-2.147.083-3.716 3.716-3.716 3.716H633.11s-.495 3.799 6.937 4.46c1.652 2.229 2.973 2.807 4.46 3.385-.992.826-1.24 1.817-1.24 3.138z" stroke="#000" stroke-width=".8" fill="#F7C600"/><path d="M644.423 294.81h13.212m-19.24-7.762s1.073 6.11 5.862 7.597" stroke="#000" stroke-width=".8"/><path d="M156.556 177.01c.508-2.374 1.356-2.798 2.373-5.765.17-2.967-2.373-2.543-1.695-4.493 1.356-2.034.678-3.984-1.696-5.51.424 2.713-3.22 5.171-3.22 7.375 0 2.204 1.864 1.696 1.695 5.086.084 1.865-.509 1.441-.679 3.306h3.222z" stroke="#000" stroke-width=".821" fill="url(#j)" transform="translate(481 110)"/><path d="M653.424 272.35a1.9 1.9 0 1 1-3.716.787 1.9 1.9 0 0 1 3.716-.788z" stroke="#000" stroke-width=".8" fill="#F7C600"/><path stroke="#F7C600" stroke-width="1.7" d="M641.202 257.32l10.157-15.03 10.24 15.03"/><path d="M653.424 251.705a2.064 2.064 0 1 1-4.047 0 2.064 2.064 0 1 1 4.13 0h-.083z" stroke="#000" stroke-width=".8" fill="#F7C600"/><path d="M643.101 268.385h15.773s.248-2.064-1.652-3.303c8.258-1.156 6.194-8.423 13.13-8.836 1.322.165-3.633 3.138-3.633 3.138s-4.13 2.89-2.312 4.377c1.569 1.239 2.23-.66 2.477-2.147.165-1.404 6.606-2.395 5.78-6.524-1.651-3.385-10.735 2.312-10.735 2.312h-6.523c-.33-.825-2.147-3.716-4.047-3.716-2.147 0-3.716 3.716-3.716 3.716h-14.699s-.495 3.716 6.937 4.46c1.651 2.23 3.055 2.807 4.46 3.385-.992.826-1.24 1.817-1.24 3.138z" stroke="#000" stroke-width=".8" fill="#F7C600"/><path d="M644.257 265.165h13.213m-19.24-7.763s1.073 6.111 5.945 7.598" stroke="#000" stroke-width=".8"/><path d="M156.388 147.226c.546-2.293 1.42-2.73 2.403-5.679.11-2.949-2.403-2.621-1.638-4.478 1.31-2.075.655-3.931-1.747-5.46.436 2.62-3.277 5.133-3.277 7.317s1.966 1.747 1.748 5.024c0 1.965-.546 1.42-.656 3.276h3.277-.11z" stroke="#000" stroke-width=".793" fill="url(#k)" transform="translate(481 110)"/><path d="M653.259 242.703a1.9 1.9 0 1 1-3.716.788 1.9 1.9 0 0 1 3.716-.788z" stroke="#000" stroke-width=".8" fill="#F7C600"/><path stroke="#F7C600" stroke-width="1.7" d="M555.073 229.739l10.157-14.947 10.24 14.947"/><path d="M567.294 224.123a2.064 2.064 0 1 1-4.046.822 2.064 2.064 0 0 1 4.046-.822z" stroke="#000" stroke-width=".8" fill="#F7C600"/><path d="M556.972 240.804h15.773s.247-1.982-1.652-3.303c8.258-1.073 6.193-8.423 13.13-8.836 1.321.248-3.633 3.138-3.633 3.138s-4.13 2.973-2.313 4.46c1.487 1.155 2.147-.826 2.395-2.23.248-1.404 6.689-2.312 5.78-6.524-1.568-3.303-10.652 2.312-10.652 2.312h-6.441c-.413-.826-2.147-3.716-4.046-3.716-2.147.083-3.716 3.716-3.716 3.716h-14.7s-.495 3.799 6.937 4.46a8.918 8.918 0 0 0 4.46 3.385c-.992.826-1.24 1.817-1.24 3.138h-.082z" stroke="#000" stroke-width=".8" fill="#F7C600"/><path d="M558.128 237.584h13.213m-19.324-7.845s.991 6.193 5.863 7.597" stroke="#000" stroke-width=".8"/><path d="M70.26 119.727c.545-2.293 1.419-2.73 2.402-5.679.109-2.948-2.403-2.62-1.638-4.477 1.31-2.075.655-3.932-1.748-5.46.437 2.62-3.276 5.132-3.276 7.316 0 2.185 1.966 1.748 1.747 5.024 0 1.966-.546 1.42-.655 3.276h3.276-.109z" stroke="#000" stroke-width=".793" fill="url(#l)" transform="translate(481 110)"/><path d="M567.13 215.122a1.9 1.9 0 1 1-3.717.788 1.9 1.9 0 0 1 3.716-.788z" stroke="#000" stroke-width=".8" fill="#F7C600"/><g stroke="#000"><path d="M609.575 300.921s4.128 9.497 8.835 3.634c4.707-5.863 2.973-8.34 2.973-8.34l-10.487-5.781-3.138 6.606 1.817 3.881z" stroke-width=".8" fill="#F7C600"/><path d="M618.658 299.6s.66.165 1.239-.826c.578-.99-1.239-1.569-2.065-2.725l-.825 1.9 1.651 1.651zm-23.865-2.477l-9.249 5.037s-4.624.908-4.954 0c-.33-.908.165-1.652 2.477-1.817 2.477-.165 9-6.11 9-6.11l2.726 2.89zm.165-164.91l.33 3.304c.083 1.156-1.816 3.633-1.981 3.468-.166-.165-.991.165-.826.826.165.66 1.404.908 1.404.908s-.578 2.478 0 2.478c.578.165-1.487 3.137 0 3.963 1.486.826 4.046 1.817 5.202 1.652 1.156-.33 0 4.377 0 4.377l-3.303 6.854 17.754-1.817-3.716-5.78s-1.651-1.157-1.238-4.543c.495-3.303-.248-18.332-.248-18.332l-12.552-1.651-.826 4.294zm-3.303 26.178s-5.698 2.642-5.45 9.744c-1.487 6.854-2.23 13.708-2.23 13.708s-6.771 7.68-8.836 10.405c-2.064 2.725-5.202 8.423-6.358 9.91-1.156 1.486-5.615 6.358-5.45 8.257.082 1.817-1.074 9.91 3.385 10.818 1.156.496 4.873-9.331 4.873-9.331s.165-4.294-1.074-5.038c-1.239-.743 2.725-3.55 2.725-3.55l9.414-7.02c1.734-1.403 6.441-6.606 6.441-6.606l2.643-31.38-.083.083z" stroke-width=".8" fill="#FFC6B5"/><path d="M598.261 152.94s1.487 4.047 4.79 3.304c3.303-.66 7.267-3.716 7.267-3.716s3.055-.083 3.55.33c.414.496 8.341 8.175 8.093 10.57-.247 2.395-3.633 1.652-4.954 3.303-1.322 1.652-3.304 5.616-2.725 8.589.578 2.972 2.312 6.854 2.064 8.34-.248 1.486-1.486 1.982-1.486 2.808 0 .825 1.073 2.147 1.073 3.633 0 1.486-1.404 3.633-1.156 5.202.248 1.404.33 5.781.33 5.781l-.33 20.15s1.156.742 1.239 1.898c.082 1.157 7.762 34.436 7.762 34.436s-.33 1.073-1.156.908c-.826-.165 3.138 5.202 3.303 6.606.165 1.404 3.964 13.213 3.881 14.864-.165 1.652-.743 5.12-1.073 5.285-.33.083 2.477 7.35 2.064 8.423-.495 1.156-5.12 1.074-5.12 1.074l-1.32-.248s.164 1.487-.827 1.652c-.99.165-7.597-.413-7.597-.413s-1.982 2.973-3.138 2.89c-1.156-.083-2.642-2.147-2.973-1.817-.33.33 1.074 2.313.66 2.89-.33.579-6.192 1.817-7.266-.99-1.156-2.725.66-2.065.33-2.643-.33-.495-2.972-1.982-3.798-1.569-.826.413 2.064 1.156 1.982 2.312-.166 1.156-2.478 2.89-3.469 2.89-.99 0-3.138-4.293-6.276-3.798-3.303.413-5.285 1.239-5.285 1.239s-3.798 1.651-5.367 1.238c-1.652-.33-2.312-1.651-2.312-2.312 0-.66 1.156-3.633.99-4.542-.165-.908-.99-1.816-.99-3.22 0-1.321 2.642-6.028 2.642-6.028l-.165-21.14s-2.395 0-2.477-1.487c-.083-1.486 3.633-33.362 4.211-35.426.578-2.065 2.065-9.331 2.065-9.331s-1.652.825-1.817 0c-.165-.826 5.12-18.993 5.12-18.993s.908-9.084.908-11.561c0-2.395-.413-5.698-.413-5.698s-4.707-1.982-4.79-4.955c-.495-4.955 4.46-7.597 4.955-9.249l2.312-6.441s2.56-4.294 6.69-4.955v-.082z" stroke-width=".8" fill="#FFF"/><path d="M596.61 298.526s-11.148 5.781-12.8 6.276c-1.651.496-2.642-1.981-.99-2.477 1.65-.413 4.128-.66 4.128-.66s-3.799-2.973-3.716-3.056l5.285-1.982c.083 0 1.652 2.973 2.643 2.808.99-.165 4.046-2.478 4.046-2.478l1.321 1.57h.083z" stroke-width=".8" fill="#F7C600"/><path d="M612.217 301.664c1.074 1.404 1.486 3.716 3.881 2.395 2.395-1.321-1.238-3.964-1.238-3.964l-2.643 1.652v-.083zm4.377-.165s1.156.826 2.147-.165c.99-.99-2.065-3.22-2.065-3.22l-1.486 1.734 1.404 1.651z" stroke-width=".8" fill="#FFC6B5"/><path d="M613.125 157.483s-10.157 6.523-9.909 8.753m12.222-7.68l-2.313 2.643m5.533.247s-5.037 4.13-4.294 6.772m-19.571-11.23s-1.486 3.055-1.156 4.128c.33.991 2.89 4.955 3.22 7.267.33 2.477 0 4.129 0 4.129m-4.706-9.827s.495 3.633 1.156 4.377c.66.66 2.477 3.798 2.725 4.954m-4.79 5.946s2.973 1.486 5.78-4.294m4.377-3.964c-.082 0-2.147 5.616 1.487 7.68 3.633 2.064 6.44 1.817 8.092 1.239 1.57-.578 3.304-1.652 3.304-1.652m-14.452-.413s.248 7.597 11.396 15.03m-10.9-7.928s-.165 6.606 4.211 9.662m-6.606-17.424s-3.303 9.826-5.863 10.817m4.955-3.633s-.166 7.102-1.074 9.662m-.908 1.651s2.312 2.89 4.79 2.643c2.477-.166 3.55-3.22 5.284-2.725 1.652.495 3.303 1.816 7.35 1.486m-5.78 2.973s0 5.78 1.073 6.44c1.073.662.578 5.947.578 5.947m-15.69-15.277s-.083 5.45-.826 7.432c-.66 1.981-2.064 5.285-1.817 8.092m-4.376 3.303c.578-.247 2.477-1.981 2.477-1.981m1.074 1.238s-4.955 21.058-3.551 33.692m4.707-32.618s-2.478 15.772-1.321 18.745m.082-19.24l9.662.66m1.321-1.239s2.643 1.404 6.276 1.156m-7.432 6.524s-.413 27.003-1.156 33.031m15.277-26.838s2.973 23.7 4.707 25.847m-10.405-22.791s1.817 20.975 2.808 22.791m-28.903 7.35s3.634-1.156 6.854-4.625c3.634 4.955 9.249.248 9.249.248s8.67 5.946 12.634-.66c5.946 3.88 8.919-.578 8.919-.578s2.147 3.303 3.799 2.972m-9.58 2.313s4.542 20.974 11.149 26.92m-34.105-29.15s.578 17.59 1.569 29.893m-2.478-10.074s-.495 11.56-1.156 12.304m-5.533 1.073s1.24 4.955 7.598.33c6.358-4.624 6.358 1.652 6.606 2.478.248.578 1.239 5.533 3.633 1.404m5.038-6.771s-.991 10.24 8.092 2.725c9.084-7.432 10.488 0 10.736 2.23" stroke-width=".8"/><path d="M594.628 131.553s2.477.33 3.881-.496c1.321-.825 2.973-1.156 4.129.496 1.156 1.652 1.9 1.486 1.9 1.486s-1.652 4.212 0 4.707c1.733.496 2.477.496 2.642.991.165.578-1.487 1.9-.991 2.478.413.495 1.239 1.238 1.321 1.651.165.496-.99 2.478-.66 2.89.33.496 1.403 2.313 2.064 2.313.66 0 .248 2.89 2.312 2.147 2.065-.744 1.9-2.478 1.9-2.478s2.23-.33 2.807-2.312c.578-1.982 1.9-2.477 1.9-2.477s2.807-1.404-.826-3.716c0-16.02-10.57-14.369-10.57-14.369s-1.322-2.808-3.304-2.477c-2.147.33-2.23 2.725-3.716 2.477-1.486-.165-1.816-1.239-1.981-1.073-.083.082-1.322 2.394-1.322 2.972 0 .578-4.046-.825-3.716 2.147.33 2.973 2.312 2.89 2.23 2.643z" stroke-width=".8" fill="#9C5100"/><path d="M605.61 127.672s-.825 4.954 4.543 4.542c-.661 2.807 1.403 3.716 1.403 3.716m3.964 3.055c.165 0 2.478 1.486 0 3.303m-7.762.743s1.156 1.322 2.477.991c1.239-.33 3.303 1.322 3.303 1.322s1.652.578 1.9.165m-14.617 1.899s3.881 1.486 6.359-4.707m-13.626-1.9l2.313.166" stroke-width=".8"/><path stroke-width=".8" stroke-linejoin="round" d="M593.885 143.114h2.064l-1.817.826"/><path d="M596.775 136.673c.33 0 1.651-.413 1.817 0 .247.248-1.322.495-1.817 0z" stroke-width="1.4" stroke-linejoin="round"/><path d="M621.548 163.924c.083 0 3.716 11.313 4.212 14.203a92.488 92.488 0 0 1 1.404 15.938c-.578 1.651-6.441 9.249-7.102 11.23-.743 1.982-4.872 9.414-4.872 9.414s-.991 7.35-1.487 7.68c-.412.33 1.24 2.147 1.074 2.725-.248.66-3.303 3.881-4.707 3.551-1.404-.33-3.55-1.982-3.633-3.468-.083-1.487 0-6.359 1.073-7.68 1.074-1.321 6.441-13.956 6.772-14.781.33-.826 4.954-10.736 5.037-12.387.165-1.817-1.404-5.78-3.056-7.185-3.55-10.652-2.147-17.01 5.285-19.24z" stroke-width=".8" fill="#FFC6B5"/><path d="M568.12 213.058l.165 5.037m-4.872-5.367s3.303 5.367 2.973 8.257" stroke-width=".8"/><path d="M606.52 223.958s2.477-.248 2.394 3.799c1.569-4.955 4.707-5.12 4.707-5.12" stroke-width=".8" stroke-linejoin="round"/></g><path d="M598.344 338.742c48.39-1.404 79.688-36.334 79.275-36.665-.33-.33 6.441-9.744 11.809-8.423 5.367 1.322 13.13 17.177 22.544 20.48 4.707 7.432-1.404 14.12-3.386 15.525-2.064 1.32-11.065 4.954-12.387-.33-1.404-5.451-4.129-4.377-4.129-4.377s-42.94 41.95-92.735 40.298c-51.364.33-93.727-40.298-93.727-40.298l-3.716 3.963s-4.046 4.377-6.028 4.13c-1.982-.414-10.735-6.112-11.396-11.81-.66-5.78 5.368-9.413 5.368-9.413s14.781-11.396 16.516-17.507c3.303-3.303 9.661 2.395 9.661 2.395s38.977 44.675 82.33 41.95v.082z" stroke="#000" stroke-width="1.7" fill="#F7C600"/><path d="M488.845 312.73s3.964-1.074 5.45.578c1.487 1.652 11.561 11.561 11.561 11.561" stroke="#000" stroke-width="1.7"/><path d="M497.929 317.354l-3.964 2.973s10.074 2.065 7.762 8.67m206.611-16.68s-1.982-1.073-5.12 1.239a130.887 130.887 0 0 0-11.065 11.23" stroke="#000" stroke-width="1.7"/><path d="M699.337 317.107l4.377 3.303s-9.084.66-7.102 9.249" stroke="#000" stroke-width="1.7"/><path d="M540.044 323.383l-.33.412a2.973 2.973 0 0 0-2.065-.165c-.578.165-1.652.66-3.22 1.652l-13.296 7.68-.33-.248 3.303-15.525c.413-1.9.578-3.055.578-3.468 0-.413-.33-.826-.826-1.321l.248-.413 7.184 5.12-.247.413-.248-.166c-.66-.413-1.156-.66-1.487-.66a.66.66 0 0 0-.66.247 1.982 1.982 0 0 0-.248.579l-.413 1.899-2.147 9.661 7.68-4.459a21.47 21.47 0 0 0 1.817-1.156l.66-.66a.94.94 0 0 0 .248-.661l-.248-.826a4.294 4.294 0 0 0-1.156-1.073l.33-.413 4.873 3.55m4.79 23.123l-.249.412-8.423-4.624.248-.413.496.33c.495.248.908.33 1.32.33.249 0 .496-.082.827-.33l.825-1.403 5.78-10.57c.496-.826.827-1.404.827-1.652a1.321 1.321 0 0 0-.248-.826 2.477 2.477 0 0 0-.991-.826l-.495-.33.247-.413 8.423 4.625-.247.413-.579-.248a2.477 2.477 0 0 0-1.238-.413c-.248 0-.496.082-.826.33-.371.42-.677.893-.908 1.404l-5.78 10.653a6.028 6.028 0 0 0-.827 1.651c0 .248.166.496.33.826.166.248.496.578.91.826l.577.248m30.802-7.267l-2.147 6.11-.496-.165a8.258 8.258 0 0 0-1.238-4.707 6.441 6.441 0 0 0-3.303-2.642 5.12 5.12 0 0 0-3.551 0 6.193 6.193 0 0 0-2.89 2.395 16.02 16.02 0 0 0-1.982 3.798c-.579 1.652-.909 3.138-.991 4.542-.083 1.404.247 2.56.908 3.468a5.78 5.78 0 0 0 2.808 1.982c.428.152.87.263 1.32.33l1.487.083 1.322-3.633.33-1.322c0-.247-.165-.495-.413-.825a2.312 2.312 0 0 0-.991-.578l-.413-.166.165-.495 8.423 3.055-.165.496c-.66-.248-1.156-.33-1.486-.248-.248 0-.578.165-.826.413l-.496 1.156-1.32 3.633c-1.24.083-2.478 0-3.8-.165a18.828 18.828 0 0 1-3.88-.825 11.644 11.644 0 0 1-3.882-2.23 11.23 11.23 0 0 1-2.23-2.725 9.001 9.001 0 0 1-1.073-3.22c-.17-1.424 0-2.867.496-4.212a9.414 9.414 0 0 1 5.12-5.616 9.91 9.91 0 0 1 7.844-.247c.826.247 1.652.66 2.313.99l1.651 1.24c.38.369.795.7 1.239.99h.826a2.46 2.46 0 0 0 .825-.826l.496.166M588.6 360.13v.495l-9.58-1.486.083-.495.66.082c.433.12.89.12 1.322 0l.578-.578c.165-.248.248-.826.413-1.651l1.817-11.974c.165-.991.165-1.57.082-1.817a1.321 1.321 0 0 0-.495-.66c-.248-.248-.66-.414-1.156-.496h-.578v-.578l9.579 1.486-.083.496-.578-.083a2.477 2.477 0 0 0-1.321 0l-.66.578a5.78 5.78 0 0 0-.414 1.652l-1.816 11.974a6.028 6.028 0 0 0-.083 1.816c0 .248.248.496.496.66.247.249.66.414 1.156.496h.578m24.773-5.945l-.413 6.523-16.35.826v-.495h.578c.47-.01.929-.153 1.321-.413.248-.165.413-.33.496-.66v-1.652l-.579-12.14a6.028 6.028 0 0 0-.247-1.734c-.083-.247-.33-.412-.578-.578-.33-.165-.826-.247-1.239-.247h-.66v-.496l9.826-.495v.495l-.826.083a2.48 2.48 0 0 0-1.238.33 1.284 1.284 0 0 0-.496.66c-.165.248-.165.827-.082 1.735l.578 11.726c0 .908.165 1.486.247 1.817.166.247.33.413.661.495h3.22a5.202 5.202 0 0 0 2.395-.66 4.542 4.542 0 0 0 1.652-1.652c.33-.826.826-1.982 1.156-3.386h.496m17.837-3.138l-6.194 1.817-.248 1.982v1.486c.248.496.496.826.991.909.248.082.826 0 1.817-.165l.165.495-5.863 1.652-.165-.413a2.725 2.725 0 0 0 1.321-1.239c.33-.578.496-1.652.743-3.138l2.065-15.938h.248l10.735 12.47c.99 1.238 1.651 1.9 2.23 2.147.33.165.825.248 1.403.082l.083.496-8.506 2.56-.165-.496.413-.082c.66-.248 1.156-.413 1.321-.743a.745.745 0 0 0 .083-.661 1.652 1.652 0 0 0-.165-.496l-.66-.825-1.652-1.9m-.744-.825l-4.376-5.285-.909 6.854 5.285-1.652m23.535-23.948l2.395 4.46-.496.247a7.68 7.68 0 0 0-1.981-1.734 3.716 3.716 0 0 0-1.817-.413 4.129 4.129 0 0 0-1.734.66l-1.239.661 6.771 12.47.909 1.486c.248.165.495.248.826.248a2.33 2.33 0 0 0 1.238-.33l.578-.33.248.495-8.506 4.542-.247-.413.578-.33c.397-.184.74-.468.99-.826l.166-.826c0-.248-.248-.826-.66-1.652l-6.772-12.387-1.156.579c-1.074.578-1.734 1.238-1.982 1.981a5.202 5.202 0 0 0 .165 3.469l-.495.247-2.313-4.459 14.534-7.762m11.066-6.606l4.459 6.028.33-.248c.909-.66 1.404-1.486 1.321-2.395-.082-.908-.412-1.982-1.156-3.22l.413-.248 5.78 7.68-.33.33a7.102 7.102 0 0 0-2.147-1.651 2.89 2.89 0 0 0-1.734-.33c-.578 0-1.156.33-1.816.825l3.055 4.129c.35.544.767 1.043 1.239 1.486l.743.165c.248 0 .578-.247 1.073-.495l.826-.66a6.606 6.606 0 0 0 2.56-3.469 6.606 6.606 0 0 0-.413-4.294l.413-.248 2.89 5.12-12.717 9.58-.248-.414.496-.33c.413-.33.66-.66.826-.99v-.827a5.615 5.615 0 0 0-.826-1.486l-7.35-9.662-.99-1.156a1.321 1.321 0 0 0-.826-.33c-.413 0-.826.248-1.322.578l-.495.33-.33-.33 12.304-9.332 3.303 4.377-.495.33a6.441 6.441 0 0 0-2.56-1.651 4.129 4.129 0 0 0-2.395.165c-.496.165-1.321.743-2.477 1.569l-1.404 1.156" fill="#000" fill-rule="nonzero"/><path d="M510.315 324.704c60.117 48.804 119.078 49.712 176.718 0"/></g></svg>