<svg width="800" height="480" xmlns="http://www.w3.org/2000/svg"><g fill="none" fill-rule="evenodd"><path fill="#FFF" d="M0 0h800v480H0z"/><g stroke="#010002"><path d="M285.3 316s-.5-3.6 6.2-6.1c6.6-2.6 7.2-12.2 5.8-18.6 0 0-3.4 6-7.7 8.1 0 0-6.8 3.6-7.2 10.4 0 0 0 2.5-.5 4.5-.3 1-3.4-8.6 2.4-15.8 6-7.3 7.6-13.3 2.9-25 0 0-.5 7-5.1 11.1-4.7 4-5.3 4.4-5.2 14 0 0 0 3.4-1.7 4.5 0 0-3.6-5.3-4.6-8.8-1-3.5-1.4-5 2.8-9 0 0 13.2-8.7 3.7-27.4 0 0-.3 6.4-5 10.2-4.5 3.9-4.2 6.4-4.4 13-.2 6.7-.6 6.2-1.1 7.2 0 0-8.5-15.6-2-23.8 6.5-8.3 10.2-10 3-25.4 0 0 .3 8-5.5 11.8-5.7 4-4.4 13-4.4 13s.4 3.5-.8 6c0 0-8.1-15.9-.4-24.4 6.6-7.3 7-12.4 3.5-22.6 0 0-.4 4.7-4 7.3-3.7 2.6-6.6 5.1-5.9 15 0 0 .3 7-.6 9 0 0-3.4-6.4-4.4-10.5-1-4.2-1.3-6.6 1.2-10.7s12.5-16 .6-33c0 0-.3 5.5-3.4 10.5-3 5-1.6 10.9-1 15.4.7 4.5-1.5 8.9-1.5 8.9s-5.2-9.5-4-20.4c1-11-3.4-20-13.5-26.4 0 0-7.3 17 2.7 25.7 0 0 8.5 8.4 10.7 18.6 0 0-6.5-.6-12.3-12-5.9-11.4-18-9.6-18.8-9.7 0 0 2 17.6 20.6 22.6 0 0 12 2 14.2 10.8 0 0 2 6 2.8 9.2 0 0-3.8-1.5-7.3-6.7-3.5-5-3-5.7-14.8-6.9 0 0-4.7-.5-7.2-3.9 0 0 5 18.6 17.7 18.5 0 0 11.6-1.3 18 14l-2.9-2c-1.7-1.1-6-3.3-14.5-2.3s-10.9-.4-13-1c0 0 8.6 15.7 20.7 11 12.2-4.7 18 12.4 18.2 12.7 0 0-1.7-1.2-3.8-3.3-2.2-2.1-6.6-4.7-15-2 0 0-6.1 2.3-12.3.4 0 0 6 11.5 19.8 9.5a15.1 15.1 0 0 1 17.3 10.2s-1.8-1-3-2c-1.3-1-6-3.7-16-.8-10 3-13.6-.4-13.6-.4s5.5 10 16.2 11.3c0 0 6-.1 8.4-1 2.5-1 9.2-2.5 13.8 4.2 0 0-1.3.2-3.2-.7 0 0-7-2.5-12.5 2 0 0-4.8 4.9-11.6 4 0 0 8.8 8.5 22.8 1.3 0 0 4.7-3.4 8.2-.8 3.5 2.7 11.5-2.6 11.5-2.6v.1z" stroke-width="1.5" fill="#369443"/><g stroke-width="1.5"><path d="M363.2 104.7s-1.6-14.5 10-16a38 38 0 0 1 18 1.2l5.5 10.6-2 7.2-7.4 3.4s1.3-11-8.8-11.2c-2.6 0-4 1-8.1.3s-6.3 3.8-7.2 4.5z" fill="#F4C53D"/><path d="M444.8 140.6c-1.8 2.2-8.7 3-8.7 3s7.1 5.5 10.2 13.3c3 7.7-82.4 0-82.4 0s3.8-2.6 6.3-7.6c0 0-3.8 1.4-7.6-2.4 0 0 2.8 1 6.5-4.6 0 0 5.5-7 9.4-9 0 0-1.8 1.2-6.1-1.2 0 0 7.4-1 10-13.5 0 0 .5-2.8 3.3-7 2.8-4 2.2.9 7.4-5.4 0 0 2.4-4.4.3-7-2-2.8-4.3-1.8-8.6-4.4-4.4-2.6-6.3-4-4.8-8s5.3-3.4 5.9-3.4c.6 0 .8-3.5 5.5-5.9 4.7-2.4 17.4-1.3 19.2-.3 2 1 9.5 3.3 14 14.5 4.4 11.2-1.2 15.4 10.8 32.4 0 0-4.8 1-7.9 0 0 0 6.3 11.2 17.3 16.5z" fill="#F4C53D"/><path d="M392 93.2c-10-.5-6.1-9.8-6.1-9.8"/><path d="M409 94.5s-1.7-.8-3.2-2.8c-2-2.7-6.7-4-9.1-1.4 0 0-2.5 2.8-4.8 3 0 0 2.6.7 4.3 2.3 1.7 1.6 3.5 2.8 6.1 2.4 2.6-.3 3-1.7 4.2-2.5 1.3-.8 2.5-1 2.5-1z" fill="#F4C53D"/></g><path d="M283.8 337.5s-.2-6.4 7.8-6.8l23.5 32.7s-.9 2.1-11.5 1.9c0 0-1.2 0-1.8 1.2-.9 2-18-29-18-29z" stroke-width="1.5" fill="#369443"/><g transform="translate(133.228 74.623)" stroke-width="1.506"><path d="M176.445 224.756s-7.513 12.887-16.591 13.098c0 0-15.612-1.897-20.023 2.183-3.086 2.845-6.233 5.194-7.528 12.465-1.264 7.272 2.484 8.838 3.373 9.154 0 0 .692 5.194 5.826 3.839 0 0 .301 5.42 9.364 2.815 9.078-2.604 12.842-1.776 14.604-10.81 1.791-9.047 3.432-8.897 5.043-9.98 2.168-1.461 6.248-2.831 9.274-4.577 2.71-1.566 13.128-6.866 16.68-7.272 3.554-.422 2.77-12.375 2.77-12.375h-9.183l-4.44-6.55-9.184 8.01h.015zm28.905-64.646s-9.183 7.482-16.892 0c0 0-3.1 3.734-9.334 2.65-6.202-1.1-7.241-4.366-7.828-6.233 0 0-5.39 3.131-9.937.647-4.516-2.469-4.516-6.218-4.516-6.218s-7.904 1.566-11.954-3.793c-4.05-5.345-1.58-10.644.603-11.277 0 0-8.537 2.244-10.87-5.088a8.43 8.43 0 0 1 2.469-9.455s-17.976-.09-25.353-5.72c0 0-6.127-3.855-2.469-7.904 0 0-16.184-2.59-20.234-9.033 0 0-1.776-1.777-1.19-4.893 0 0 .106-1.762 1.883-1.867 0 0-18.458-2.86-23.787-8.943 0 0-2.56-2.8-1.28-6.549 0 0 .271-.978.708-1.656 0 0-16.802-3.538-25.082-11.02 0 0-4.787-4.26-2.318-9.982 0 0-28.078-7.678-21.574-20.053 0 0-13.128-4.26-8.973-16.109 0 0-10.855-5.51-6.127-14.242 4.531-8.355 18.457 1.46 34.927 6.022 0 0 44.623 14.032 66.589 17.765l62.418 92.935 36.418 14.031 3.688 25.985h.015z" fill="#F4C53D" fill-rule="nonzero"/><path d="M205.787 91.67s-5.857-4.396-16.29.768c0 0-3.508 2.424-6.278-.226a5.616 5.616 0 0 1 .648-8.657c7.783-5.766 10.659-23.064-1.175-30.245 0 0-17.162-10.177-80.137-26.196 0 0-5.27-1.475-8.1-.768a7.829 7.829 0 0 0-5.66 5.691s-2.831 8.024 6.654 12.616c0 0 4.275 1.957 8.686 3.222 0 0-4.847-1.054-6.925 3.734-1.957 4.576.903 9.258 9.786 12.27 0 0 2.409.933 5.826 1.76 0 0-7.603 2.184-3.944 8.326 0 0 3.252 6.444 14.754 7.588 0 0-8.582.933-2.53 9.093 0 0 2.665 4.471 11.05 6.128 0 0-6.352.21-3.16 5.916 3.221 5.721 10.764 8.943 18.2 9.47 0 0 4.02.21 6.836-.422 0 0-7.076 3.538-2.921 9.455 0 0 3.056 4.215 10.704 4.004 0 0-1.972 6.625 3.628 9.124 4.366 1.957 7.995-1.175 7.995-1.175s-1.476 7.091 4.892 9.59c0 0 3.177 1.641 7.92 0 0 0 3.613 8.115 16.5 2.41 12.887-5.676 3.04-53.461 3.04-53.461v-.015zm.753 73.68s-1.882 10.146-16.862 22.913c0 0-11.562 10.192-11.276 21.935.3 11.969-2.063 13.309-6.61 17.358 0 0 9.38.738 13.911-5.51 0 0-.195 10.388-1.58 11.337 0 0 2.95.18 7.211-4.472 0 0 2.56-2.71 4.938-3.748 0 0-2.77 7.18-.602 13.835 0 0 .692-2.604 4.35-3.749 0 0 6.625-1.355 9.184-10.914 0 0 1.671-6.324 12.044-11.954 0 0 11.743-4.426 11.442-10.207-.301-5.797-26.135-36.825-26.135-36.825h-.015z" fill="#F4C53D" fill-rule="nonzero"/><path d="M260.978 296.162s-2.694 11.863-12.044 10.915c0 0-6.609-.632-6.112-11.653 0 0-9.77 5.21-11.351-7.678 0 0-8.883 2.063-8.777-9.981 0 0-8.28 1.445-7.302-9.26 0 0-8.988 2.41-8.988-7.677 0 0-21.017-3.493 22.793-43.449l39.083 23.275-7.302 55.508z" fill="#F4C53D"/><path d="M265.33 242.882s-6.52 5.781-11.156-2.86c0 0-6.324-.301-7.302-5.089 0 0-5.134-.512-6.127-5.404 0 0-7.001-.723-6.805-6.64 0 0-12.737-.993 0-15.416 12.736-14.423 34.34 23.937 34.34 23.937l-2.95 11.472zm7.256-3.583c6.323 0 13.474 39.444 11.622 63.216-.677 8.627-5.3 15.672-11.622 15.672-6.323 0-10.93-7.045-11.593-15.672-1.866-23.772 5.285-63.216 11.593-63.216z" fill="#F4C53D" fill-rule="nonzero"/><ellipse fill="#F4C53D" cx="272.586" cy="238.998" rx="8.732" ry="12.947"/><path d="M242.822 295.424s.994-20.881 19.09-50.825m-30.441 43.147s-2.816-12.059 22.703-47.724c0 0-2.966-8.506 6.112-13.971m-37.592 51.714s-.798-13.053 24.178-42.832c0 0-2.213-7.678 6.835-13.82m-38.315 47.393s.933-13.188 25.353-38.977c0 0-1.205-7.89 7.527-12.782m-41.853 44.08s1.762-15.07 27.52-37.938c0 0-.888-5.931 7.694-11.953M7.422 17.614s20.219 11.713 83.24 23.426m-74.267-7.317S71.15 51.578 96.653 53.776m-58.7 0s32.128 10.087 69.75 16.456M65.37 74.793s36.282 8.717 53.626 10.162m-29.267 6.97s30.697 6.4 38.465 7.167m-18.924 8.627s22.402 3.402 31.315 3.221m-3.493 10.388s9.063-.421 13.414-1.144m-5.029 15.702s7.709-2.077 12.24-4.983m-.888 20.053s5.932-2.288 8.792-8.52m5.676 14.09s4.577-4.11 4.878-8.686m12.284 12.27s-1.716-1.49-.541-7.934m-1.672-9.455s-.903-1.836-.602-4.757m-31.766-87.515s10.358 4.155 13.806 9.876c3.462 5.721 1.189 11.277 0 14.453-.588 1.611-7.89 15.687.692 25.88m-14.362 11.05s.06-.045 3.703-1.204m-25.563-13.76s6.172 1.234 12.24 1.294m-20.776-16.53s7.256.737 14.076.632m-24.87-16.53s10.462 2.077 16.078 2.183m-24.766-19.918s12.903 3.673 22.493 4.983m21.317 7.588s-9.273 8.626 1.882 16.636c0 0-4.637 7.271 4.637 14.859m-2.469 3.583s-1.385 13.88 15.597 13.88c0 0-3.267 12.36 13.128 11.954 0 0 1.867 9.876 13.7 7.89m-26.06 108.621s-2.695.602-8.521 0m-16.38 7.272s-8.19-1.25-7.798 16.53m12.736-12.48s-7.407-.934-6.925 16.319m78.391-57.886s-3.553.722-6.022 3.537c-2.454 2.8-7.196 2.274-7.196 2.274s2.56-2.078 3.463-7.272c.873-5.194 3.748-6.76 3.748-6.76m-8.476-4.907s-3.553.722-6.022 3.522c-2.469 2.816-7.211 2.289-7.211 2.289s2.56-2.078 3.463-7.272c.888-5.194 3.748-6.76 3.748-6.76m3.568 28.38s-3.101.647-5.254 3.085c-2.153 2.454-6.293 2.003-6.293 2.003s2.258-1.807 3.011-6.353c.783-4.532 3.282-5.902 3.282-5.902"/></g><g transform="matrix(-1 0 0 1 675.972 74.623)" stroke-width="1.506"><path d="M176.445 224.756s-7.513 12.887-16.591 13.098c0 0-15.612-1.897-20.023 2.183-3.086 2.845-6.233 5.194-7.528 12.465-1.264 7.272 2.484 8.838 3.373 9.154 0 0 .692 5.194 5.826 3.839 0 0 .301 5.42 9.364 2.815 9.078-2.604 12.842-1.776 14.604-10.81 1.791-9.047 3.432-8.897 5.043-9.98 2.168-1.461 6.248-2.831 9.274-4.577 2.71-1.566 13.128-6.866 16.68-7.272 3.554-.422 2.77-12.375 2.77-12.375h-9.183l-4.44-6.55-9.184 8.01h.015zm28.905-64.646s-9.183 7.482-16.892 0c0 0-3.1 3.734-9.334 2.65-6.202-1.1-7.241-4.366-7.828-6.233 0 0-5.39 3.131-9.937.647-4.516-2.469-4.516-6.218-4.516-6.218s-7.904 1.566-11.954-3.793c-4.05-5.345-1.58-10.644.603-11.277 0 0-8.537 2.244-10.87-5.088a8.43 8.43 0 0 1 2.469-9.455s-17.976-.09-25.353-5.72c0 0-6.127-3.855-2.469-7.904 0 0-16.184-2.59-20.234-9.033 0 0-1.776-1.777-1.19-4.893 0 0 .106-1.762 1.883-1.867 0 0-18.458-2.86-23.787-8.943 0 0-2.56-2.8-1.28-6.549 0 0 .271-.978.708-1.656 0 0-16.802-3.538-25.082-11.02 0 0-4.787-4.26-2.318-9.982 0 0-28.078-7.678-21.574-20.053 0 0-13.128-4.26-8.973-16.109 0 0-10.855-5.51-6.127-14.242 4.531-8.355 18.457 1.46 34.927 6.022 0 0 44.623 14.032 66.589 17.765l62.418 92.935 36.418 14.031 3.688 25.985h.015z" fill="#F4C53D" fill-rule="nonzero"/><path d="M205.787 91.67s-5.857-4.396-16.29.768c0 0-3.508 2.424-6.278-.226a5.616 5.616 0 0 1 .648-8.657c7.783-5.766 10.659-23.064-1.175-30.245 0 0-17.162-10.177-80.137-26.196 0 0-5.27-1.475-8.1-.768a7.829 7.829 0 0 0-5.66 5.691s-2.831 8.024 6.654 12.616c0 0 4.275 1.957 8.686 3.222 0 0-4.847-1.054-6.925 3.734-1.957 4.576.903 9.258 9.786 12.27 0 0 2.409.933 5.826 1.76 0 0-7.603 2.184-3.944 8.326 0 0 3.252 6.444 14.754 7.588 0 0-8.582.933-2.53 9.093 0 0 2.665 4.471 11.05 6.128 0 0-6.352.21-3.16 5.916 3.221 5.721 10.764 8.943 18.2 9.47 0 0 4.02.21 6.836-.422 0 0-7.076 3.538-2.921 9.455 0 0 3.056 4.215 10.704 4.004 0 0-1.972 6.625 3.628 9.124 4.366 1.957 7.995-1.175 7.995-1.175s-1.476 7.091 4.892 9.59c0 0 3.177 1.641 7.92 0 0 0 3.613 8.115 16.5 2.41 12.887-5.676 3.04-53.461 3.04-53.461v-.015zm.753 73.68s-1.882 10.146-16.862 22.913c0 0-11.562 10.192-11.276 21.935.3 11.969-2.063 13.309-6.61 17.358 0 0 9.38.738 13.911-5.51 0 0-.195 10.388-1.58 11.337 0 0 2.95.18 7.211-4.472 0 0 2.56-2.71 4.938-3.748 0 0-2.77 7.18-.602 13.835 0 0 .692-2.604 4.35-3.749 0 0 6.625-1.355 9.184-10.914 0 0 1.671-6.324 12.044-11.954 0 0 11.743-4.426 11.442-10.207-.301-5.797-26.135-36.825-26.135-36.825h-.015z" fill="#F4C53D" fill-rule="nonzero"/><path d="M260.978 296.162s-2.694 11.863-12.044 10.915c0 0-6.609-.632-6.112-11.653 0 0-9.77 5.21-11.351-7.678 0 0-8.883 2.063-8.777-9.981 0 0-8.28 1.445-7.302-9.26 0 0-8.988 2.41-8.988-7.677 0 0-21.017-3.493 22.793-43.449l39.083 23.275-7.302 55.508z" fill="#F4C53D"/><path d="M265.33 242.882s-6.52 5.781-11.156-2.86c0 0-6.324-.301-7.302-5.089 0 0-5.134-.512-6.127-5.404 0 0-7.001-.723-6.805-6.64 0 0-12.737-.993 0-15.416 12.736-14.423 34.34 23.937 34.34 23.937l-2.95 11.472zm7.256-3.583c6.323 0 13.474 39.444 11.622 63.216-.677 8.627-5.3 15.672-11.622 15.672-6.323 0-10.93-7.045-11.593-15.672-1.866-23.772 5.285-63.216 11.593-63.216z" fill="#F4C53D" fill-rule="nonzero"/><ellipse fill="#F4C53D" cx="272.586" cy="238.998" rx="8.732" ry="12.947"/><path d="M242.822 295.424s.994-20.881 19.09-50.825m-30.441 43.147s-2.816-12.059 22.703-47.724c0 0-2.966-8.506 6.112-13.971m-37.592 51.714s-.798-13.053 24.178-42.832c0 0-2.213-7.678 6.835-13.82m-38.315 47.393s.933-13.188 25.353-38.977c0 0-1.205-7.89 7.527-12.782m-41.853 44.08s1.762-15.07 27.52-37.938c0 0-.888-5.931 7.694-11.953M7.422 17.614s20.219 11.713 83.24 23.426m-74.267-7.317S71.15 51.578 96.653 53.776m-58.7 0s32.128 10.087 69.75 16.456M65.37 74.793s36.282 8.717 53.626 10.162m-29.267 6.97s30.697 6.4 38.465 7.167m-18.924 8.627s22.402 3.402 31.315 3.221m-3.493 10.388s9.063-.421 13.414-1.144m-5.029 15.702s7.709-2.077 12.24-4.983m-.888 20.053s5.932-2.288 8.792-8.52m5.676 14.09s4.577-4.11 4.878-8.686m12.284 12.27s-1.716-1.49-.541-7.934m-1.672-9.455s-.903-1.836-.602-4.757m-31.766-87.515s10.358 4.155 13.806 9.876c3.462 5.721 1.189 11.277 0 14.453-.588 1.611-7.89 15.687.692 25.88m-14.362 11.05s.06-.045 3.703-1.204m-25.563-13.76s6.172 1.234 12.24 1.294m-20.776-16.53s7.256.737 14.076.632m-24.87-16.53s10.462 2.077 16.078 2.183m-24.766-19.918s12.903 3.673 22.493 4.983m21.317 7.588s-9.273 8.626 1.882 16.636c0 0-4.637 7.271 4.637 14.859m-2.469 3.583s-1.385 13.88 15.597 13.88c0 0-3.267 12.36 13.128 11.954 0 0 1.867 9.876 13.7 7.89m-26.06 108.621s-2.695.602-8.521 0m-16.38 7.272s-8.19-1.25-7.798 16.53m12.736-12.48s-7.407-.934-6.925 16.319m78.391-57.886s-3.553.722-6.022 3.537c-2.454 2.8-7.196 2.274-7.196 2.274s2.56-2.078 3.463-7.272c.873-5.194 3.748-6.76 3.748-6.76m-8.476-4.907s-3.553.722-6.022 3.522c-2.469 2.816-7.211 2.289-7.211 2.289s2.56-2.078 3.463-7.272c.888-5.194 3.748-6.76 3.748-6.76m3.568 28.38s-3.101.647-5.254 3.085c-2.153 2.454-6.293 2.003-6.293 2.003s2.258-1.807 3.011-6.353c.783-4.532 3.282-5.902 3.282-5.902"/></g><path d="M547 257l-14.3 61.7-5.9-4.2 14-59.2-9.8.2 23.1-42.3 1.5 48.7-8.6-4.9zm37 13l-43 50.8-4.6-5.2 42.8-50.2-8.7-4.6 39.2-26-20.3 43.8-5.4-8.6z" stroke-width="1.5" fill="#0081C6" fill-rule="nonzero"/><path d="M573.6 243l-38.5 74-5.9-3.5 38.7-73.8-9.4-2.4 32.7-34.6-10.5 47.5-7.1-7.2zm-48 96.6l-2.9 11.7 8 8-11.2 47-10-13.3-14.6 6.8 11.1-47 10.4-3 2.6-11.7s3.2-1.2 6.6 1.5z" stroke-width="1.5" fill="#0081C6" fill-rule="nonzero"/><path d="M528.3 331.8l-5.7 10.6 5.7 9.7-22.4 42.5-6.3-15.6-15.9 2.6 22.4-42.4h10.7l5.5-10.6s4 0 6 3.2z" stroke-width="1.5" fill="#0081C6"/><path d="M529.2 334.9l-15 19.2 3.4 10.8-30.9 36-2.8-16.6-16-1.2 30.8-36 10.4 2.5 16-20.4s4.4 2.2 4.1 5.7zm-382.7-45c3.6-1.5 6.2-2.9 6.2-6.7 0-1-.5-3-1.5-6.1L127 203a59 59 0 0 0-3-7.9c-1.1-2-3.2-2.9-6.1-4h30.7c-3.3 1.5-6.4 2.7-6.3 6.3 0 1.3.4 3.2 1.1 5.7l18.6 58 18.5-58a20 20 0 0 0 1.1-5.7c0-3.7-3.2-5-6.3-6.4h29.8c-2.7 1.1-5 2-6 4.1a63 63 0 0 0-3.1 8L171.8 277a37.9 37.9 0 0 0-1.5 6.1s-1.1 4.7 6.2 6.7h-30v.1zm515.3-7.6v-83.7c0-1.4-.3-2.5-.8-3.3-.5-.8-2.5-3-5.5-4.2h27.7a11.5 11.5 0 0 0-5.5 4.2c-.5.8-.7 1.9-.7 3.3v83.7c0 1.5.2 2.6.7 3.4.5.8 2.5 2.8 5.5 4.2h-27.7c3-1.4 5-3.4 5.5-4.2.5-.8.8-1.9.8-3.4z" stroke-width="1.5" fill="#0081C6" fill-rule="nonzero"/><path d="M405.8 310.8S480 277.9 480.1 202H331.5c.2 76 74.3 108.8 74.3 108.8z" stroke-width="1.5" fill="#FFF"/><path d="M343 202v48.5s5.6 11.3 11.4 18.3V202H343zm22.8 0v80s7.2 7 11.4 10.4V202h-11.4zm22.9 0v98.9s8.1 5.2 11.4 7v-106h-11.4v.1zm80 0v48.5s-5.7 11.3-11.5 18.3V202h11.5zm-22.9 0v80s-7.1 7-11.4 10.4V202h11.4zm-22.8 0v98.9s-8.2 5.2-11.5 7v-106H423v.1z" stroke-width="1.5" fill="#A60032" fill-rule="nonzero"/><path d="M480.1 146.8s-36.4 19-74.3-1.6c-37.9 20.6-74.3 1.6-74.3 1.6V202h148.6v-55.2z" stroke-width="1.5" fill="#162667"/></g></g></svg>