<svg width="800" height="480" xmlns="http://www.w3.org/2000/svg"><g fill="none" fill-rule="evenodd"><path fill="#000" d="M0 0l325.688 205.688H800v68.625H325.687L0 480z"/><path fill="#FF0" d="M0 462.844l332.531-212.531H800v-20.625H332.531L0 17.155V48l312 192L0 432z"/><path fill="#40AA40" d="M0 480l332.531-212.531H800V480z"/><path fill="#CE0000" d="M0 0l332.531 212.531H800V0z"/><path d="M89.813 249.938c1.124.28 1.5.562 2.624-1.032.188-.937.938-2.062 1.594-3.094.75-1.406 1.125-1.875 1.875-.937.563.656 2.625-.469 3.375.094 1.313.937.563.75 1.594-.188.844-1.687.094-1.5-.938-2.25-.937-.562-2.906.563-3.75 0 .282-1.687.844-1.875 1.876-2.25.75.469 2.906-.375 3.562-.375.938.188 1.875.281 2.156-1.125.469-.937.281-.281-.187-.937-.75-.656-2.813.469-3.656 0-.938-.844-.844-1.125-.188-2.438.75-.469 1.406-.281 2.438.375.937.75 2.624-.656 3.562-.75.844-.937 1.781-1.219 1.125-2.344-.281-.937-.563-.937-1.688-1.218-1.124-.75-2.624.656-3.093-.469.937-1.313 1.219-1.031 2.344-.281.75.187 2.812-1.031 3.562-1.125 1.031-.281.563.937 1.313-1.688-.282-1.125-2.157.656-3.188.375-.938.188-1.875-.187-1.875-1.312 0-1.406.75-1.5 1.781-1.313.938.188 2.906-.937 3.75-.937.938.562 1.406.375 2.25-.938.563-1.594-.094-.937-1.219-1.875-.75-.469-2.812.656-3.656.094.188-.563.469-1.313.938-1.594.844.188 1.5.188 2.531.75.938.469 2.625-1.406 3.469-2.062-.188-.938-1.875.375-2.813-.281-.562-.47-1.406-.938-1.594-1.407.563-1.594.282-1.5 1.876-.937.75-.281 2.156-.281 1.218-1.781-.187-.188-.937-.188-1.687-.47-.844-.562-1.594-1.218-2.531-1.405-.657-.094-1.594-.375-2.063-.188 0 .938.188 1.5.094 2.625.469.656 1.219.656 1.406.938-.844.75-1.313.375-2.156.375-1.125-.657-.469-2.907-1.781-2.438.28.656.187 3.188.75 3.75.562.375 1.312.75 1.406 1.219-.938 1.406-1.219 1.312-2.344.656-.938-.563-.563-2.625-1.406-2.531-.938.75-.938.656-.75 1.687 0 1.313-.469 3.188.656 3.938 1.219.937 1.406.75.375 2.531-.656.844-1.031.656-1.875.281-.844-.562-.656-2.812-1.313-3.469-1.312-.75-.562-.75-1.593.188-.281 1.219 0 1.5.469 2.531.374.656.374 2.813 1.124 3 1.126.656 1.22.563-.187 1.875-.938 0-1.5.281-2.25-.656-.938-.75-.375-3-1.594-3-1.125.094-1.406.094-1.312 1.688.281 1.406-.281 3.562.844 4.406 1.03.469 1.687.375 2.062 1.031-.375.281-.938 1.219-1.313 1.406-.75 0-1.5-.469-2.343-.656-.938-.469-.469-1.313-1.313-1.875-.937.281-.937-.938-1.406.281.188 1.125-.188 2.438.938 3.188.75.469 1.406 1.594 2.25 2.156.937 1.125.562 1.313 0 2.813-.844.093-1.688-.47-2.532-.938-.844-.656-.656-2.813-1.5-3.281-.656-.75-.469-1.313-1.594.187 0 .938.094 1.125.376 1.875 0 .938-.188 3 .75 3.656.937.188 2.062.657 2.812.938.75.938.094.75-.75 2.063-.469 1.312-.469 1.593-1.313 2.25-.75.937-.937 1.406-.374 2.625z" fill="#FF0"/><path d="M113.438 251.156c.656-1.125 1.03-1.312 0-3.187-.75-.656-1.5-1.875-2.25-2.906-.938-1.5-1.22-2.063 0-2.532.75-.281.562-2.812 1.406-3.469 1.312-1.03.937-.28.469-1.78-1.313-1.595-1.407-.75-2.532.187-.937.656-.656 3.281-1.406 3.937-1.5-.937-1.5-1.687-1.406-2.812.844-.656.844-3.375 1.125-4.031.562-.938.937-1.875-.188-2.72-.75-.937-.187-.374-.937-.28-.938.656-.656 3.28-1.5 3.937-1.125.75-1.313.469-2.25-.75-.094-.938.281-1.594 1.312-2.438 1.031-.75.469-3.093.75-4.03-.562-1.313-.469-2.438-1.687-2.25-.938 0-1.125.28-1.875 1.405-1.125.938-.375 3-1.688 3-.844-1.5-.375-1.687.75-2.625.469-.656.188-3.468.375-4.218.188-1.125.938-.188-1.031-1.875-1.125-.281-.188 2.437-.938 3.375-.28 1.125-.937 1.875-1.874 1.5-1.407-.563-1.126-1.406-.563-2.344s.281-3.563.656-4.406c.938-.938.938-1.313 0-2.813-1.219-1.312-.937-.281-2.062.563-.938.656-.656 3.281-1.5 3.937-.469-.469-.938-.937-1.031-1.687.468-.75.656-1.5 1.687-2.344.75-.844-.375-3.281-.563-4.5-.937-.188-.374 2.063-1.406 2.813-.656.468-1.312 1.125-1.875 1.125-1.219-1.22-1.312-.938-.187-2.344.094-.938.656-2.344-1.125-1.875-.281 0-.469.937-1.031 1.5-.938.656-1.782 1.219-2.344 2.062-.375.656-.938 1.594-.938 2.156.75.47 1.406.47 2.438.938.75-.188 1.125-.938 1.406-1.031.281 1.125-.188 1.5-.469 2.437-1.125.938-3-.656-3 .938.75-.094 3 .937 3.75.656.563-.469 1.219-1.125 1.688-.938.937 1.407.75 1.782-.281 2.625-.938.75-2.813-.375-2.907.47.281 1.312.188 1.312 1.219 1.5 1.219.468 2.719 1.78 3.75.937 1.406-.938 1.406-1.219 2.531.562.563 1.031.281 1.406-.469 2.063-.843.75-2.812-.375-3.75 0-1.124 1.125-.843.375-.374 1.875.937.75 1.312.656 2.53.469.75-.188 2.813.75 3.188 0 1.031-.938.938-1.032 1.594.937-.375 1.125-.281 1.688-1.5 2.156-1.031.75-2.813-.844-3.375.469-.375 1.313-.469 1.594 1.031 2.063 1.406.28 3.188 1.687 4.406.937.844-.938.938-1.688 1.782-1.875.094.563.656 1.5.656 1.969-.188.844-.938 1.406-1.5 2.25-.75.844-1.406 0-2.156.656-.094 1.031-1.313.563-.281 1.594.937.187 2.156 1.125 3.187.375.844-.656 2.156-.938 2.906-1.594 1.406-.563 1.406 0 2.625 1.125-.281.938-1.125 1.594-1.875 2.25-.937.656-2.812-.375-3.656.281-.938.469-1.313 0-.469 1.781.938.47 1.125.282 1.875.282.938.469 2.625 1.5 3.656.75.563-.938 1.5-1.875 2.063-2.625 1.031-.375.656.187 1.5 1.594 1.031 1.125 1.313 1.218 1.594 2.343.562 1.125.937 1.594 2.25 1.406l.094.094z" fill="#FF0"/><path d="M91.875 294.844c0-4.969-.75-9.938 0-9.938 43.875 0 54.844-30 54.844-49.875S131.53 195 102.844 195c-32.813 0-43.875 19.5-43.875 39.938-.175 18.59 14.338 34.014 32.906 34.968 21.938 0 27.469-4.969 43.875-24.937-5.438 24.937-32.813 34.875-43.875 34.875-21.938 0-43.875-15-43.875-44.813 0-24.937 16.406-49.875 54.844-49.875 32.906 0 54.844 24.938 54.844 49.875 0 34.875-27.375 59.813-65.813 59.813z" fill="#FF0"/></g></svg>