<svg width="800" height="480" xmlns="http://www.w3.org/2000/svg"><g fill="none" fill-rule="evenodd"><path fill="#000" d="M.991 381.714V98.463L211.89 240.088.898 381.714z"/><path fill="#00C" d="M144.857 479.087l236.759-159.27H800v159.177H144.857z"/><path d="M129.733.996H800v159.457H381.522S132.814-.591 129.733.996z" fill="red"/><path fill="#FC0" d="M.991 60.746v37.717L211.89 239.995.898 381.714v37.624l265.606-179.25L.898 60.746z"/><path fill="#093" d="M.991 60.746V.996h88.691L370.88 191.448H800v97.28H370.88L89.588 478.994H.99v-59.656l265.513-179.25L1.084 60.746z"/><path d="M89.589.996h55.268L381.616 160.36l418.384.093v30.995H370.88L89.588 1.09V.996zm0 478.091h55.268l236.759-159.27H800v-30.995H370.88L89.588 478.994v.093z" fill="#FFF" fill-rule="nonzero"/></g></svg>