<svg width="800" height="480" xmlns="http://www.w3.org/2000/svg"><g fill="none" fill-rule="evenodd"><path fill="#198A00" d="M0 0h800v480H0z"/><path fill="#EF7D00" d="M715.531 172.5H800V480h-84.469z"/><path fill="#000" d="M631.156 172.313h84.375v307.5h-84.375z"/><path fill="#DE2010" d="M545 172.5h86.156V480h-86.25z"/><g fill="#EF7D00" stroke="#000"><path d="M743.375 61.5s31.875-13.594 34.875-16.406c1.406 1.687-12.75 18.75-40.219 25.031 24.938-5.813 46.219-24.375 50.625-23.813 1.219.282.938 18.094-56.25 33.563 39.563-10.313 62.532-29.438 62.25-27.375.282.469-3.937 15-38.531 26.344 9.656-2.25 35.906-18.188 35.625-15.094.844 1.219-25.313 34.875-72.75 23.906 37.875 9.844 62.344-13.875 65.813-13.406.75.094-6.938 20.625-54.563 21.938 22.781-2.344 16.219-.094 16.219-.094s-13.407 10.5-29.719 3.375c12.75 3.469 14.156 3.656 14.438 4.687-.844 1.5-11.25 3.563-21.47-1.875 8.157 3.375 15.47 3.938 15.563 5.156-.093.376-5.25 3.376-9.937 1.22-4.594-2.063-47.157-28.22-47.157-28.22L740.75 60.47l2.625.937v.094zm-85.313 70.875c-6.375 0-6.562 5.625-6.562 5.625s-.469.469-.188 3.188l1.594-2.438c.75.094 3.657.938 8.25-2.625-4.218 4.406-1.687 6-1.687 6s-.938 3.469 2.25 4.125c-.938-1.406-.375-2.625-.375-2.625s4.5-.469 4.218-5.906c.094 4.969 2.813 6.187 2.813 6.187s0 2.719 2.906 3c-1.5-1.406-1.218-3.562-1.218-3.562s3.75-2.813.656-7.5c1.875-1.125 3.468-4.219 3.468-4.219s-2.625-1.125-3.843-2.063c-.563-1.218 0-7.968 0-7.968l-1.688-8.719-4.5 13.594c.188-1.875.282 5.906-6.093 5.906z" stroke-width=".938" fill-rule="nonzero" stroke-linejoin="round"/><path d="M689.563 112.781c.187.094 4.78 5.25 9.28 4.969 1.688-1.406-3.468-4.406-3.468-5.156 1.875 1.687 9.469 8.25 14.438 5.906 1.875-2.813-3.563-2.344-9.563-9.938 4.219 2.813 14.719 8.907 19.688 6.563 1.968-2.25-10.97-9.281-15.375-14.719l-11.25-5.719-15.188 12.47 11.531 5.624h-.093z" stroke-width=".938" stroke-linejoin="round"/><path d="M672.406 70.125s5.157-3 25.875-1.5c2.25.281 14.063-4.031 17.907-5.344 6-1.125 25.312-5.25 30.375-9.187 3.75-.469-.938 6.656-5.625 8.437-4.875 2.157-22.594 8.344-28.97 7.5 7.595.094 3.376 6.281-9.187 3.375 6 3.375 3.75 3.938 3.75 3.938s-10.593.562-13.406-1.875c7.125 2.719 4.125 3.75 4.125 3.75s-7.219.656-10.594-.938c5.157 1.594 2.532 2.531 2.532 2.531s-4.22.75-7.688-.562c-3.563-1.219-8.813-10.031-9.094-10.031v-.094z" stroke-width=".938" stroke-linecap="round" stroke-linejoin="round"/><path d="M680.656 115.688l.75 13.687-.75 1.125c-.281.375-9.656-1.5-8.437 5.625 0 3 0 3.75 2.062 5.344-.468-1.875-.375-3.281-.375-3.281s2.719 1.593 5.25-2.813c-1.781 4.313-.562 5.906-.093 6 .375.75-.75 4.219 2.812 4.125-1.406-1.313-.75-3.188-.75-3.188s3.75-.562 2.438-7.218c1.312-1.313 1.875 0 1.875 0s.375 3.937 3.656 3.094c1.406.843-.282 3-.282 3s2.344 0 3.094-1.875c.657-2.063 1.5-5.625-2.343-7.125-.47-1.407 1.5-1.5 1.5-1.5s2.437.843 3.187 2.062c.75 1.219.469-3.188-2.625-3.75-3.75 0-3.938-.844-3.938-.938l-.937-12.843-6.094.469z" stroke-width=".938" stroke-linejoin="round"/><path d="M693.688 127.313c0-.657-6.375-9.282-4.688-10.313 1.594.281 4.219 4.219 6.469 2.906-.657-1.5-2.625-.656-4.782-4.594-2.25-4.5-2.53-11.156-10.312-18.374 5.063 7.687 16.313 12.187 16.875 9.937.563-2.25-10.031-10.688-9.469-12.75 2.063 4.125 12.563 13.5 20.25 12.75.563-1.875-6.281-5.438-8.062-8.813C695 94.689 681.78 83.344 681.594 80.72a31.219 31.219 0 0 0-9.282-9.938 4.688 4.688 0 0 1-.75-1.594c-3-7.03.938-9.374 3.282-9.656 1.875-.281 2.437 0 3.75-.656L673.812 57c2.157 1.594 7.5.188 6.375 4.688 2.344-.938 7.407-6.938-5.718-8.25-4.313-4.876-21.844-7.688-26.25 13.687.375.281.562.563 1.687 1.313-5.625-2.626-20.531-4.688-25.875-5.626-14.625-4.124-29.718-14.25-31.125-13.03-1.875.937 8.813 10.874 8.25 11.062a246.562 246.562 0 0 0-25.781-12.75c-5.625-2.063-11.156-6.938-11.719-6-2.062 4.218 8.907 14.906 10.969 16.125 2.063 1.218 18.094 8.718 17.813 8.812C568.25 56.062 564.313 54 563 52.781c-2.156-.468-7.313-7.5-8.719-7.031-.843.75.75 11.813 12.282 16.875 1.875 1.313 24.75 9.469 24.562 10.125 0 .188-26.25-10.781-27.188-11.25-5.062-1.875-11.25-8.813-12.375-8.063s2.813 8.25 7.875 10.594c2.72 1.125 12.938 6.188 22.125 9.375.563.281-16.593-6.469-24.843-9.844-3.75-2.062-5.438-4.687-6-4.124-.938.562 1.312 11.624 27.843 17.812.657.375 9.375-1.969 8.907-1.688a106.219 106.219 0 0 1-14.813 2.626c-.281.75 1.688 4.687 15.375 3.937 1.688-.094 11.25-3.469 10.407-2.813a163.125 163.125 0 0 1-13.875 4.594c-.844 0-5.25.563-5.438.938-.188.75 3.281 3.562 10.594 3.937 6.562.375 18.937-3.937 18.75-3.656-.375.281-12 4.313-12.282 4.5-.468.281-4.687.469-4.875.844-.375.844 6.188 6.937 25.407.375-1.875 2.625-11.25 4.406-11.25 4.875 0 .375 2.062 2.344 5.343 3.094 1.594.374 3.844.28 5.907 0 3.75-.75 7.5-2.157 12.468-6.75.563 1.406-12.28 7.968-11.718 8.53 2.812 2.626 12.093-.28 12.656-.656.656-.28 17.813-10.03 17.813-11.25.28 1.5-22.22 13.782-21.938 14.25 1.406 2.25 9.094-.093 9.375-.374l10.125-5.438c.281-.094-11.063 6.563-10.125 7.688-.469 4.406 17.813-3 19.219-3.938.656-.469-8.813 4.125-8.813 6.281 3.094 5.156 12.844 3.563 14.344 2.438.75-.563-.938 3.75-.375 3.375a15 15 0 0 0 2.813-4.031c-.188 1.5-1.313 3.75-1.875 6.374-.657 2.532-.844 5.532-1.688 8.626-.188 1.312 6-2.72 5.063-12.376.562 5.063-1.875 14.438-1.22 15 1.22.938 4.876-4.687 5.25-8.53 1.032 1.874 3.282 5.906 5.25 6.843-.187-2.906 0-2.813-.937-5.625.563-3.844.657-9.094.75-15.094 5.25 10.031 7.407 14.344 5.907 22.031 1.593.657 4.03-5.437 3.843-8.437a12.469 12.469 0 0 0 10.782 9.563z" stroke-width="1.031" stroke-linecap="round" stroke-linejoin="round"/><path d="M606.313 63.469s-3.657 2.718-8.063 2.531c1.125 4.5 10.313 1.031 10.313 1.031s-4.407 4.969-7.594 5.719c1.875 1.594 9.937 1.031 11.25.281 1.312-.844 3.75-3.937 3.75-3.937s-8.25 9.562-9.375 9.469c-.282 1.124 8.531.75 10.312-.938 1.875-1.688 6.563-4.125 6.563-4.125s-12.188 8.438-12.657 8.438c4.5 1.124 13.594-1.5 19.407-5.063-8.625 5.719-9.375 6.75-13.782 8.719 3.938.844 5.907 3.469 19.032-2.25 7.5-3.563 11.812-10.125 11.812-10.125a76.594 76.594 0 0 1-20.25 16.875c-.468.937 8.813 4.875 20.532-7.406" stroke-width="1.031" stroke-linecap="round" stroke-linejoin="round"/><path d="M670.063 90s.843 3.75 4.03 6.563c3.188 2.812 3.376 5.624 3.376 5.624m-8.907-36.562s1.032 3.469 4.313 5.625c3.375 2.063 8.438 8.813 8.719 10.031.375 1.406 2.343 11.813 2.156 12.938M648.312 70.78c.188 1.406-4.687 7.781 2.063 15.375-6.188 7.5-6.188 8.438-6.188 8.438s3.47 1.875 9.563-3.375c10.125 12.375 6.75 18 6.75 18" stroke-width="1.031" fill-rule="nonzero" stroke-linecap="round"/><path d="M659.656 100.5s-.937-1.313.75-6.281c1.5 1.875 3.188 2.156 3.844 2.812.75.844 8.438 1.875 8.813 7.031" stroke-width="1.031" stroke-linecap="round" stroke-linejoin="round"/><path d="M668.656 53.906c0-.375-1.593-3.75-7.312.375 3.093.188 6.093 1.969 7.312-.375z" stroke-width="1.031"/><path d="M723.219 68.906c.281.188 17.062 3.75 22.687 1.969-7.125 9.563-21.468 3.094-21.468 3.094 7.03 2.062 7.312 1.875 9.562 3.937.75 1.875-12.938.938-17.344-1.594 12.469 3.938 12.75 3.75 13.125 5.157.563 2.156-20.437-.563-22.218-3.281 5.625 4.312 8.625 5.156 11.718 7.124-3.75 1.688-10.781 3.376-23.625-5.718 16.875 15.375 32.157 14.437 34.594 17.156-5.906 8.719-28.781-5.156-39.281-12.188-10.5-7.03 22.968 16.97 26.062 16.594-1.5 2.344-12.562.281-13.312-.937" stroke-width="1.031" stroke-linejoin="round"/><path d="M727.531 85.031c-1.875.281-7.781.281-8.625.094" stroke-width="1.031" stroke-linecap="round"/><path d="M601.344 60.938s12.75 6.75 18.187 6.28a9.375 9.375 0 0 1-3.562 1.876c1.312.562 5.062 2.531 10.687 1.312l-3.093 2.813s4.875 1.875 10.312-.938a43.5 43.5 0 0 0-2.625 3.469l3.844.281" stroke-width="1.031" stroke-linecap="round" stroke-linejoin="round"/></g></g></svg>