<svg width="800" height="480" xmlns="http://www.w3.org/2000/svg" xmlns:xlink="http://www.w3.org/1999/xlink"><defs><path id="a" d="M0 0h800v480H0z"/></defs><g fill="none" fill-rule="evenodd"><mask id="b" fill="#fff"><use xlink:href="#a"/></mask><g mask="url(#b)"><path fill="#006400" d="M-2.3-.1h984.648v479.892H-2.3z"/><path fill="#FFD200" d="M-2.3 68.456h984.648v342.78H-2.3z"/><path fill="#D40000" d="M-2.3 137.012h984.648V342.68H-2.3z"/><path fill="#000" d="M-2.3 205.568h984.648v68.556H-2.3z"/><path stroke="#000" stroke-width="23.15" fill="#000" d="M-2.3-.1v479.892l328.216-239.946z"/><path fill="#FFF" d="M-2.3-.1v479.892l328.216-239.946z"/><path fill="#D40000" d="M122.54 119.187l65.056 195.042L17.393 193.685h210.41L57.483 314.229z"/><path fill="#FC0" d="M94.758 289.778l11.488-2.057 21.217-.8 7.853.686 17.583 2.856 1.29-1.714v-12.34l2.11-10.626 3.516-10.74 3.869-8.57 4.923-8.912 7.97 1.942h2.11l.235-1.485-16.88-14.054-17.583-13.14-25.436-18.51-2.345-.571-2.696-19.425-1.992-5.827-2.697-2.285-5.04-1.6-5.627.229-2.578 1.37-5.393 1.143-2.813.458-1.875 2.17-.235 2.743 7.854.228 1.993.8-.235.8-4.454.571-2.11.686 2.462 1.828 2.578.914 3.283 1.143.703 2.285.234 29.479-1.758 4.57-.586 8.57 2.579 10.283-6.565 7.313-3.75 6.513-.704 3.999-1.993 3.999-.234 2.514 1.29 2.742 5.04 16.225 2.579 13.368z"/><path d="M100.854 162.15c-2.11 0-3.048.228-5.04 1.256a12.899 12.899 0 0 1-5.393 1.6c-2.93 0-5.275 2.056-5.275 4.684v1.714l4.22-.114c12.425.343 1.172 1.485.234 1.6-3.047.57.704 2.97 4.338 4.227 3.868 1.143 3.633.457 3.633 17.14 0 13.596 0 15.539-1.172 18.624-1.524 4.57-1.524 11.426 0 15.996.704 1.828 1.172 3.428 1.172 3.77 0 .23-1.875 2.4-4.102 4.914-4.103 4.57-6.565 9.255-6.565 12.568a6.754 6.754 0 0 1-1.172 2.971c-1.524 1.943-1.524 5.256-.117 6.513 1.524 1.371 7.737 24.909 7.854 29.365 0 1.6.234 1.6 9.729-.229 7.737-1.485 25.906-1.828 35.166-.685 4.22.571 9.143 1.485 10.901 1.828 5.627 1.485 5.393 1.714 5.393-4.913a82.68 82.68 0 0 1 5.978-30.508c2.24-5.54 4.945-10.89 8.088-15.996 0 0 2.11.228 4.689.914 4.806 1.143 6.212 1.028 6.212-1.143 0-1.142-5.04-5.256-29.773-23.994a505.657 505.657 0 0 0-30.83-22.738c-.703 0-1.406-.343-1.523-.8l-1.758-10.855c-.821-5.598-1.993-11.083-2.462-12.225-1.641-3.428-4.806-5.142-10.081-5.485a37.52 37.52 0 0 0-2.344 0zm.117 1.142h2.344c7.737.457 9.143 2.514 11.253 15.996a192.31 192.31 0 0 1 1.407 10.74c0 .915-1.055 2.057-3.751 3.771a54.294 54.294 0 0 0-11.722 10.855l-1.524 2.057-.352-4.8V188.43c.352-9.94 0-10.855-3.282-11.997-2.696-.914-6.212-1.828-5.275-2.4 1.173-.685 2.345-.228 5.158-1.028 1.172-.229 1.055-.114.82-1.028-.234-1.486-1.875-2.286-6.212-2.057-3.517.228-3.868.114-3.634-.8.469-1.828 2.345-2.97 5.275-3.313a16.013 16.013 0 0 0 5.158-1.486 8.368 8.368 0 0 1 4.337-1.142v.114zm17.466 29.479h.468c1.993.343 59.548 44.219 59.548 45.475 0 .457-.469.8-1.172.8-.469 0-15.121-3.999-32.47-8.912-27.664-7.998-31.65-9.14-32.822-10.626a5.71 5.71 0 0 1-.117-7.084 5.659 5.659 0 0 0 1.172-2.286c0-1.37-2.93 2.057-3.516 4-.586 2.285.586 6.17 2.344 7.426.704.572 5.978 2.286 11.722 4 9.847 2.742 10.55 3.085 11.019 4.684 1.172 3.77-2.93 8.227-8.792 9.484a17.322 17.322 0 0 0-6.095 2.742 80.367 80.367 0 0 1-20.162 11.883c-.469.343-1.055 2.171-1.406 3.885-.704 3.77-.938 4.342-2.11 4.342-.587 0-.704-.343-.235-1.6.82-2.285.703-5.027-.117-5.027-.586 0-.82.8-.82 2.056 0 1.143-.352 2.514-.821 2.857-.586.685-.703.228-.469-2.628.234-1.943.117-3.428-.117-3.428-.586 0-1.641 2.857-1.993 5.37-.234 1.486-.234 1.486-.703-.343-.352-1.37-.235-2.285.82-3.999a10.088 10.088 0 0 0 1.172-3.999c0-1.485 1.173-2.97 6.682-8.34 3.517-3.543 7.854-7.999 9.378-9.941 2.696-3.2 2.813-3.428 2.696-6.742 0-1.828-.235-3.542-.47-3.77-.703-.686-1.64 2.97-1.171 4.913.234 1.828 0 2.4-3.869 6.856a130.874 130.874 0 0 1-8.791 8.912c-4.572 4.113-6.213 6.398-6.213 8.455 0 .686-.469 2.285-1.172 3.77-.703 1.486-.938 2.971-.703 3.314.234.343 0 .343-.352 0-.586-.571-.586-1.485-.117-3.428a7.803 7.803 0 0 0 .234-2.97c-.586-1.143-1.406.228-1.758 3.085-.235 1.6-.586 2.856-.938 2.628-.82-.457-.586-3.428.469-5.028.586-.8 1.172-2.628 1.524-4.113.82-4.228 2.696-7.656 6.799-12.226a66.144 66.144 0 0 0 3.75-4.342l-1.172-3.77a27.872 27.872 0 0 1-.234-15.654c1.524-4.342 4.572-8.684 9.378-13.368 4.688-4.457 9.26-7.199 11.722-7.313zm17.583 36.792c.3-.022.599.04.823.171.224.131.35.318.349.514-.148.276-.548.46-.997.46-.449 0-.848-.184-.996-.46-.012-.326.33-.613.82-.685zm2.93.342c.3-.021.6.041.823.172.224.131.351.318.35.514-.148.276-.548.46-.997.46-.45 0-.849-.184-.996-.46-.013-.326.33-.613.82-.686zm3.048.572c.3-.022.599.04.823.171.224.131.35.318.349.514-.148.276-.547.46-.996.46-.45 0-.85-.184-.997-.46-.012-.326.331-.613.82-.685zm2.813.571c.3-.022.6.04.823.172.224.13.351.318.35.514-.148.275-.548.46-.997.46-.45 0-.849-.185-.996-.46-.013-.327.33-.614.82-.686zm-7.385.686c.3-.022.6.04.823.171.224.131.351.318.35.514-.148.276-.548.46-.997.46-.449 0-.849-.184-.996-.46-.013-.326.33-.613.82-.685zm2.814.457c.299-.022.599.04.823.171.223.131.35.318.349.514-.148.276-.548.46-.997.46-.449 0-.848-.184-.996-.46-.013-.326.33-.613.82-.685zm6.095.228c.3-.022.599.04.823.172.224.13.351.318.35.514-.148.275-.548.46-.997.46-.45 0-.849-.185-.997-.46-.012-.327.331-.613.821-.686zm-3.165 0c.3-.022.599.04.823.172.224.13.351.318.35.514-.148.275-.548.46-.997.46-.45 0-.849-.185-.997-.46-.012-.327.331-.613.821-.686zm5.861.686c.117 0 4.337.914 9.378 2.285l9.26 2.628-1.758 3.085a109.083 109.083 0 0 0-2.814 5.027c-1.172 2.286-1.406 2.286-7.033 1.029-6.095-1.371-15.707-2.628-25.554-3.428l-9.377-.8 3.516-1.257a59.838 59.838 0 0 0 6.213-2.742c2.344-1.257 3.282-1.485 6.916-1.143 5.275.343 8.791-.685 10.198-2.742l1.172-1.942h-.117zm-10.315.685c.3-.022.599.041.823.172.224.131.35.318.349.514-.148.275-.548.46-.997.46-.449 0-.848-.185-.996-.46-.012-.327.33-.613.82-.686zm6.564 0c.3-.022.599.041.823.172.224.131.351.318.35.514-.182.228-.544.371-.939.371-.395 0-.756-.143-.937-.371-.013-.327.33-.613.82-.686h-.117zm-9.378 0c.3-.022.6.041.823.172.224.131.351.318.35.514-.148.275-.548.46-.997.46-.449 0-.849-.185-.996-.46.063-.283.39-.51.82-.572v-.114zm6.213.229c.564-.046 1.082.207 1.172.571-.147.276-.547.46-.996.46-.45 0-.849-.184-.996-.46.063-.283.39-.51.82-.571zm-7.736 1.257c.299-.022.599.04.823.171.223.131.35.318.349.514-.148.276-.548.46-.997.46-.449 0-.848-.184-.996-.46-.013-.326.33-.613.82-.685zm2.93 0c.333-.028.666.049.897.207.232.158.334.378.275.592-.147.276-.547.46-.996.46-.45 0-.849-.184-.997-.46-.012-.326.331-.613.821-.685v-.114zm3.048.228c.563-.046 1.082.207 1.172.571-.148.276-.547.46-.996.46-.45 0-.85-.184-.997-.46.064-.283.39-.51.82-.57zm3.282 0c.3-.022.599.04.823.172.224.13.351.318.35.514-.148.275-.548.46-.997.46-.45 0-.85-.185-.997-.46-.012-.327.331-.613.82-.686zm-23.796 9.255a229.664 229.664 0 0 1 41.144 4.8c.118.113-.703 2.856-1.992 6.17l-2.345 6.855c-.117.571-.937.571-2.93.343-9.73-1.486-37.862-1.372-48.646.228-6.213.914-7.034.8-6.565-.457l1.172-4 .704-3.084 6.33-3.2a74.598 74.598 0 0 0 11.956-7.426h1.055l.117-.229zm-31.65 16.225c.353 0 1.056.343 1.876.914 1.173.686 2.58 1.257 3.165 1.257 3.048 0 4.69 4.228 7.268 18.282l.938 5.027c.234 1.143 0 1.371-2.696 1.943-3.283.685-4.103.8-4.103.342 0-1.142-3.282-15.653-4.689-20.795-.7-2.265-1.326-4.551-1.875-6.856a.12.12 0 0 1 .117 0v-.114zm33.526 2.285h3.4l-1.173 1.143c-1.993 2.285-2.93 2.4-4.337.914a5.705 5.705 0 0 1-1.172-1.714c0-.228 1.523-.457 3.282-.457v.114zm7.15 0h6.33l-1.407 1.371c-1.64 1.829-1.758 1.829-3.516 0l-1.407-1.485v.114zm9.612 0h1.524c.82 0 2.344 0 3.282.229l1.759.343-1.642 1.485c-.937.8-1.758 1.485-1.875 1.371l-1.641-1.828-1.407-1.714v.114zm9.964.343l1.407.343c.82.228 2.578.343 3.868.457h2.344l-1.758 1.485a10.429 10.429 0 0 1-2.11 1.486c-.117 0-1.172-.914-1.993-1.943l-1.758-1.828zm-35.4.114h.234c.117.229-.352 1.143-1.172 1.943l-1.172 1.6-1.759-1.372-1.758-1.485 2.813-.343 2.813-.343zm2.696.229l1.875 1.6 1.876 1.713-3.517.229-3.517.114 1.641-1.714 1.642-1.942zm21.1 0c.35 0 .585.114.937.343a7.566 7.566 0 0 1 1.524 1.942c.469.914.351 1.143-1.172 1.143l-2.93-.572-1.408-.342 1.524-1.486c.704-.685 1.172-1.142 1.641-1.142l-.117.114zm-9.73 0c.586 0 1.172.343 1.875 1.485.82 1.257.82 1.257-2.344 1.257h-3.165l1.641-1.485c.82-.8 1.524-1.143 1.993-1.143v-.114zm19.927.228l1.407 1.372c1.641 1.485 1.875 2.399.703 2.285l-3.282-.343-2.579-.229 1.876-1.485 1.875-1.6zm-41.261.8c.234 0 1.172.572 1.875 1.371l1.407 1.486-2.93.457-4.103.571c-.82.229-.586-.343 1.172-1.828 1.172-1.143 2.344-2.057 2.579-2.057zm-4.337 0h.469c.937.229.937.457-.704 2.057l-1.758 1.714-.586-1.486c-.469-1.142-.352-1.485.703-1.942a5.756 5.756 0 0 1 1.876-.343zm53.92 2.057c.235 0 .235.228 0 .685-.234.915-1.289 1.143-1.289.229 0-.229.352-.571.821-.8h.352l.117-.114zm-25.084 1.828c9.026 0 18.169.229 20.396.457 3.634.457 3.986.571 3.986 1.943 0 1.6-.47 1.713-5.393.914-1.406-.343-7.384-.8-13.128-1.257a179.867 179.867 0 0 0-33.408 1.142c-2.227.229-2.813 0-2.813-.685 0-1.486 11.956-2.514 30.36-2.514zm-12.074 3.314h6.33l-1.407 1.485c-1.758 1.828-1.875 1.828-3.516 0l-1.407-1.485zm8.206 0l1.64 1.6 1.642 1.827-3.4.115h-3.399l1.758-1.829 1.641-1.713h.118zm2.461 0h6.33l-1.407 1.485c-1.64 1.828-1.758 1.828-3.516 0l-1.407-1.485zm-15.004 0c.234 0 0 .57-.82 1.713-.821 1.029-1.642 1.829-1.759 1.829-.234 0-1.055-.686-1.758-1.486l-1.407-1.485h2.11c1.073.005 2.14-.149 3.165-.457.155-.03.314-.03.469 0v-.114zm2.344.57l1.524 1.372 1.759 1.485-3.048.229-3.4.228 1.642-1.713 1.523-1.6zm20.397 0l1.64 1.829c1.876 1.942 1.76 2.057-2.46 1.257l-1.994-.343 1.407-1.371 1.407-1.371zm2.344 0h2.813c3.048 0 3.4.458 1.641 2.058-1.406 1.142-1.406 1.142-3.047-.572l-1.407-1.485zm-35.87.572c1.407 0 1.29.114-.468 1.828-1.29 1.257-1.407 1.257-1.876.343-.351-1.142.704-2.057 2.345-2.17zm45.482.229c.469 0 1.407 0 2.345.228l2.696.457-1.524 1.371-1.407 1.372-1.29-1.6-1.172-1.828h.352zm-42.2.571c.353 0 .704.229 1.29.8 1.173 1.142 1.173 1.142.235 1.6a9.598 9.598 0 0 1-2.813.457h-1.876l1.524-1.6c.82-.8 1.172-1.143 1.524-1.257h.117zm39.973.343c.469 0 .82.228 1.407 1.142l1.055 1.372h-2.462c-1.641 0-2.344-.229-2.344-.686.234-.457.82-1.143 1.523-1.485l.821-.343zm7.502 1.485c.234 0 .234.229.234.571 0 1.143-1.054 1.943-1.523 1.143-.118-.343.117-.914.586-1.257l.703-.457zm-30.36 1.371c10.198 0 21.451.686 28.133 1.828l1.875.343v5.028c0 3.77-.234 5.027-.82 5.027l-5.861-1.142a151.478 151.478 0 0 0-41.027-1.143l-2.696.343-.704-4.228a23.411 23.411 0 0 1-.468-4.342s2.696-.571 5.86-.914c3.869-.571 9.613-.8 15.708-.8z" fill="#000" fill-rule="nonzero"/><path d="M143.99 248.758c-3.516 0-5.978 2.4-5.978 5.942 0 5.484 6.33 8.227 10.081 4.342 3.751-3.885 1.172-10.284-4.102-10.284zm0 1.371c1.244 0 2.437.482 3.316 1.339a4.513 4.513 0 0 1 1.373 3.232c0 3.428-3.868 5.713-7.033 4.227-3.165-1.713-2.93-6.97.469-8.34a5.144 5.144 0 0 1 1.758-.458h.118zm-23.56-2.056c-3.517 0-5.979 2.4-5.979 5.941 0 5.485 6.33 8.227 10.081 4.342 3.751-3.885 1.172-10.283-4.103-10.283zm0 1.37c1.243 0 2.436.482 3.315 1.34a4.513 4.513 0 0 1 1.373 3.231c0 3.428-3.868 5.713-7.033 4.228-3.165-1.714-2.93-6.97.469-8.341a5.144 5.144 0 0 1 1.758-.457h.117zm-19.576-83.523c-1.014.06-1.821.896-1.876 1.942 0 1.17.919 2.117 2.051 2.117 1.133 0 2.052-.948 2.052-2.117a2.081 2.081 0 0 0-.704-1.471 1.95 1.95 0 0 0-1.523-.471zm.117.685c.777 0 1.406.563 1.406 1.257s-.63 1.257-1.406 1.257c-.777 0-1.407-.563-1.407-1.257 0-.333.148-.653.412-.889.264-.235.622-.368.995-.368z" fill="#000" fill-rule="nonzero"/></g></g></svg>